<?xml version="1.0" encoding="utf-8"?>
<!-- Generator: Adobe Illustrator 15.0.2, SVG Export Plug-In . SVG Version: 6.00 Build 0)  -->
<!DOCTYPE svg PUBLIC "-//W3C//DTD SVG 1.1//EN" "http://www.w3.org/Graphics/SVG/1.1/DTD/svg11.dtd">
<svg version="1.1" id="Ebene_1" xmlns="http://www.w3.org/2000/svg" xmlns:xlink="http://www.w3.org/1999/xlink" x="0px" y="0px"
	 width="100px" height="100px" viewBox="0 0 100 100" enable-background="new 0 0 100 100" xml:space="preserve">
<circle fill="#B2B2B2" cx="50" cy="50" r="50"/>
<g>
	<path d="M94.373,34.491l-0.03-0.588l-12.141,0.352l-16.099,0.619c-0.125-0.876-1.494-0.788-1.494-0.788
		c-0.459-0.54-0.957-0.173-0.957-0.173c-0.586,0.451-0.66-0.926-0.66-0.926l-1.631-9.054c-0.25-1.604-0.994-2.7-0.994-2.7
		l-1.939,0.165l1.139,0.961l1.438,11.415l-1.653,0.224l0.019,0.454l-16.387,1.062l-12.137,0.182l0.03,0.589l12.142-0.353
		l15.818-0.608l0.314,0.089c0.219,0.759,1.457,0.688,1.457,0.688c0.138,0.16,0.274,0.234,0.404,0.269l0.028,1.709l-3.271,0.168
		c-0.016-0.477-0.158-0.592-0.158-0.592l-0.961,0.056c-0.887-0.081-0.604,0.926-0.604,0.926l-1.543,0.06l-0.021-0.844
		c0.39,0.028,0.035-0.308,0.035-0.308l-1.154,0.085c-0.372,0.024,0.037,0.333,0.037,0.333l-0.055,0.931L52.6,38.979
		c-0.461,0-0.498,0.674-0.498,0.674l-2.009,0.027v0.704l-0.442,0.222l-0.355-1.294l-0.694,0.256l0.215,1.293
		c-0.09,0.788-4.052,1.969-4.052,1.969L34.21,44.517l-3.25,0.338l-6.326-10.631c-0.212-0.311-0.07-0.536-0.07-0.536
		c0.427-0.195,0.318-1.232,0.318-1.232l4.728,2.474l0.391-2.394l-6.113-1.998c-0.532-0.142-0.373-1.094-0.373-1.094l1.744-7.482
		l-1.442-0.59l-1.013,7.312c-0.018,0.814-1.437,1.211-1.437,1.211l-0.038-0.451l-5.242-2.615l-0.46,2.252l1.438,0.673l3.821,0.98
		l-1.05,0.226c-0.585,0-0.071,0.787-0.071,0.787l1.744,3.601l-1.368,4.981l1.062,0.419l0.764-4.554l0.409,0.785
		c0.339,0.651-0.036,0.984-0.036,0.984c-0.441,0.422-0.176,0.897-0.176,0.897l0.356,1.297l-0.372,0.111l1.546,3.489l-0.268,0.14
		l-0.25,2.197l2.486,0.194l-0.426,0.62c-0.515,0.62,0.124,1.151,0.124,1.151l8.3,2.646l0.584,1.716l0.145,0.081l0.017,0.455
		l-0.373,0.5l-0.054-0.363l-0.444,0.167l0.144,1.017l-0.197,0.279c-0.745-0.337-1.208,0.479-1.208,0.479
		c-0.371,2.025,0.782,1.91,0.782,1.91c0.978-0.137,0.534-2.051,0.534-2.051l2.434-3.485c1.082-0.479,5.685,0.337,5.685,0.337
		l0.284,1.037l0.321-1.098l2.966,0.426l0.069,1.32l0.57-0.026l0.09-1.21l3.998,0.365l4.392,0.7l4.936,0.171l5.969,0.254l0.038,0.621
		c-0.463,0.08-0.692,0.951-0.692,0.951c-0.584,2.844,1.045,2.872,1.045,2.872c1.459,0.251,1.141-2.562,1.141-2.562l0.462-0.534
		l0.144,0.022c-0.105,0.287,0.142,1.244,0.142,1.244c0.64,1.545,1.724,0.783,1.724,0.783c1.064-0.841,0.623-2.865,0.623-2.865
		l0.729-0.059l0.036,1.018l0.264,0.055v-0.955l0.163-0.032l0.017,0.899l0.268-0.055l0.017-0.9l0.194,0.029l0.018-0.451l2.012,0.114
		l0.035,0.646l0.584-0.646l0.09-0.312l2.414-0.312c0.729,1.546,1.742,1.322,1.742,1.322c0.817,0.146,0.747-1.626,0.747-1.626
		c-0.196-0.536,0.14-1.663,0.14-1.663c0.129-0.927-0.582-2.335-0.582-2.335l0.266-0.141c0.3-0.392-0.163-0.759-0.163-0.759
		l-1.062-0.056c-0.836-0.143-2.508-3.4-2.508-3.4c-1.014-2.367-2.593-1.973-2.593-1.973c-0.659-0.198-0.552-1.15-0.552-1.15
		c1.456,0-0.124-0.199-0.124-0.199l-0.375,0.397c-1.045-0.957-4.636-2.223-4.636-2.223c-0.408-0.113-0.18-0.337-0.18-0.337
		c1.387-1.464,0.196-0.676,0.196-0.676c-1.103,1.125-1.849,0.394-1.849,0.394l-0.812-0.783l-0.077-0.612l0.033-1.052l1.49-0.201
		l-0.02-0.454l16.387-1.062L94.373,34.491z M65.803,34.843l-1.139-0.225l-0.018-0.282C64.646,34.336,66.213,34.364,65.803,34.843z
		 M59.604,34.423v-0.168l1.225-0.086l0.054,0.254h-0.347c-0.104-0.02-0.176-0.035-0.176-0.035l-0.545,0.035H59.604z M59.354,35.472
		l1.215,0.345l0.004,0.035C60.572,35.852,59.302,35.829,59.354,35.472z M61.236,37.994l0.014-1.603
		c0.188-0.022,0.314-0.116,0.314-0.116c0.102-0.077,0.187-0.098,0.258-0.084l0.033,1.888L61.236,37.994z M61.98,38.08l0.065-1.68
		c0.152,0.298,0.181,0.801,0.181,0.801l0.021,0.122v0.757H61.98z M66.621,54.955c-0.125-0.482-0.873-0.732-0.873-0.732l-0.02-0.451
		h0.979l0.106,0.561C67.046,55.206,66.621,54.955,66.621,54.955z M65.615,35.765v0.167l-0.871,0.062
		c0.068-0.103,0.115-0.195,0.115-0.195l0.541-0.035L65.615,35.765L65.615,35.765z"/>
	<path d="M48.589,57.22h0.262c0,0,4.108,0.035,3.997,0s0,4.259,0,4.259h-4.259V57.22z"/>
	<path d="M46.227,71.869c0.003,0.205-7.492-1.215-7.492-1.215l1.213-7.491l5.271,0.854l0,0l2.221,0.359l-0.312,1.928
		C47.128,66.305,46.224,71.664,46.227,71.869z"/>
	<path d="M34.454,86.766L33.14,76.645c0,0,10.117-1.568,10.12-1.312s1.313,10.121,1.313,10.121L34.454,86.766z"/>
</g>
</svg>
