<?xml version="1.0" encoding="utf-8"?>
<!-- Generator: Adobe Illustrator 15.0.2, SVG Export Plug-In . SVG Version: 6.00 Build 0)  -->
<!DOCTYPE svg PUBLIC "-//W3C//DTD SVG 1.1//EN" "http://www.w3.org/Graphics/SVG/1.1/DTD/svg11.dtd">
<svg version="1.1" id="Ebene_1" xmlns="http://www.w3.org/2000/svg" xmlns:xlink="http://www.w3.org/1999/xlink" x="0px" y="0px"
	 width="100px" height="100px" viewBox="0 0 100 100" enable-background="new 0 0 100 100" xml:space="preserve">
<circle fill="#B2B2B2" cx="50" cy="50" r="50"/>
<path d="M92.848,46.242c-1.987-1.031-4.203-1.536-4.312-1.62c-1.886-1.475-3.166-1.483-3.315-1.486
	C83.195,43.092,74.15,44.27,74.15,44.27s-0.389-0.422-0.452-0.416c-0.062,0.006-0.231-0.01-0.186,0.059
	c0.049,0.07,0.163,0.411,0.017,0.432c-10.366,1.453-15.666,3.239-15.773,3.251c-6.525,0.743-7.435,1.08-7.684,1.015
	c-0.401-0.103-9.175-2.324-9.314-2.343c-0.139-0.021-0.911,0.064-0.996-0.008c-0.16-0.135-3.795-1.771-3.974-1.755
	c-0.105,0.011-1.664,0.046-1.508,0.175c0.718,0.592,1.944,2.262,2.32,2.209c0.376-0.055,2.12,0.764,2.12,0.764l0.595,0.055
	c0,0-0.556,0.154-0.26,0.171c0.299,0.015,3.681,1.676,3.661,1.677c-0.15,0.009-10.849,1.394-10.849,1.394s-0.109-0.303-0.279-0.289
	c-0.168,0.017-0.141,0.332-0.141,0.332s-0.567,0.039-0.946,0.083c-0.795,0.092-3.273-0.178-3.748-0.517
	c-0.348-0.249-14.17-8.718-14.529-8.96c-0.285-0.192-3.372,0.274-4.938,0.496c1.253,1.977,6.039,10.324,6.039,10.324
	c-1.467-0.081-3.267,0.149-3.414,0.162c-0.284,0.025,0.017,0.191,0.017,0.191s1.961,1.153,1.893,1.188
	c-0.172,0.09-0.21,0.638-0.21,0.638l-0.14,0.012l0.07,0.814l0.169-0.017c0.069,0.49,0.907,0.925,1.527,0.96
	c0.18,0.008,3.068,0.222,3.757,0.268c0.427,0.027,9.799,0.733,9.799,0.733l-0.103,0.239c0.341,0.08,0.478-0.188,0.478-0.188
	c0.52,0.006,6.977,0.525,8.963,0.617c1.769,0.08,5.586-0.216,5.586-0.216l-0.029,0.267c0.241-0.021,0.409-0.303,0.409-0.303
	l2.744-0.295l0.023,0.487c0.134-0.023,0.408-0.525,0.408-0.525c0.081-0.016,0.576-0.051,0.576-0.051l0.04,0.454
	c0,0,0.352-0.063,0.509-0.003c0.15,0.06,2.777,0.307,2.777,0.307v0.146l-0.198,0.126l2.974-0.221l0.051,0.216l0.197-0.038
	l0.006,0.201c-0.627,0.678-0.669,0.82-0.641,0.998c0.073,0.46,0.275,0.569,0.512,0.651c0.185,0.07,0.27,0.055,0.437,0.024
	c0.383-0.064,0.747-0.646,0.747-0.646s0.175-0.099,0.211-0.019c0.091,0.203,0.243,0.195,0.433,0.225
	c0.129,0.022,0.278,0.003,0.426-0.067c0.16-0.077,0.96-0.857,0.926-1.254c-0.055-0.633-0.644-0.622-0.652-0.696
	c-0.02-0.22,0.735-0.772,0.735-0.772v-0.476l0.523-0.069l0.073,0.818c-0.203,0.029-0.44,1.14-0.427,1.287
	c0.013,0.145,0.046,0.747,0.046,0.747c-0.111,0.053-0.342,0.229-0.31,0.578c0.065,0.732,0.613,0.725,0.772,0.712
	c0.473-0.03,0.828-0.55,0.803-0.833c-0.013-0.156-0.05-0.381,0.024-0.338c0.179,0.099,0.319,0.046,0.52,0.028
	c0.274-0.025,0.681-0.559,0.659-0.81c-0.009-0.106-0.02-0.319-0.09-0.416c-0.172-0.238,0.061-0.302,0.292-0.322
	c0.406-0.037,0.609-0.635,0.717-0.613c0.108,0.023,1.797,0,1.797,0l0.05,0.302l-0.241,0.045l0.025,0.165
	c0,0,2.099-0.202,2.288-0.221c2.624-0.264,2.644-0.605,2.644-0.605l-0.027-1.783c0.301-0.028,5.109-0.937,5.109-0.937l-0.043,0.458
	c0.378-0.032,0.46-0.562,0.531-0.574c1.072-0.211,6.54-0.916,6.846-0.942c2.185-0.193,7.071-1.352,7.071-1.352l0.094,0.658
	l-0.424,0.482l0.03,0.208l0.526-0.023c0,0,0.236,0.761,0.154,0.778c-0.085,0.019-0.741,0.245-0.682,0.928
	c0.052,0.577,0.751,0.61,0.857,0.601c0.587-0.053,0.856-0.634,0.835-0.875c-0.029-0.316-0.323-0.421-0.285-0.559
	c0.104-0.379-0.301-1.139-0.301-1.139l0.149-0.106l-0.056-0.515l0.59-0.286l-0.074-0.554c4.62-1.475,6.172-2.821,6.511-3.112
	c0.579-0.496,0.851-0.773,0.812-1.214C93.688,46.687,93.013,46.33,92.848,46.242z"/>
</svg>
