<?xml version="1.0" encoding="utf-8"?>
<!-- Generator: Adobe Illustrator 15.0.2, SVG Export Plug-In . SVG Version: 6.00 Build 0)  -->
<!DOCTYPE svg PUBLIC "-//W3C//DTD SVG 1.1//EN" "http://www.w3.org/Graphics/SVG/1.1/DTD/svg11.dtd">
<svg version="1.1" id="Ebene_1" xmlns="http://www.w3.org/2000/svg" xmlns:xlink="http://www.w3.org/1999/xlink" x="0px" y="0px"
	 width="100px" height="100px" viewBox="0 0 100 100" enable-background="new 0 0 100 100" xml:space="preserve">
<circle fill="#B2B2B2" cx="50" cy="50" r="50"/>
<path d="M90.689,57.73c-0.378-0.183-1.178-0.629-1.178-0.629s-0.106-0.144,0.037-0.292c0,0,0.275,0.225,0.433-0.341
	c0.158-0.565,0.614-3.43,0.267-4.319c-0.348-0.892-1.022-1.339-3.221-1.972c-2.199-0.632-4.731-1.218-5.697-1.642
	s-1.572-1.237-2.494-2.13c-0.92-0.892-2.386-2.683-3.393-3.658c-1.006-0.974-2.026-1.615-2.026-1.615s-0.548-0.42-1.646-0.676
	v-3.123c0-1.023-0.829-1.853-1.852-1.853c-1.024,0-1.854,0.83-1.854,1.853v2.757c-1.087-0.061-1.985-0.095-1.985-0.095l-0.025-6.943
	c0,0-0.755-0.259-1.9-0.241c-1.146,0.017-21.299-0.689-22.133-0.676c-0.833,0.013-26.988-0.558-27.572-0.549
	s-1.169-0.086-1.151,1.081c0.018,1.168,0.094,4.711,0.094,4.711s-0.391,0.277-0.59,0.885s-0.176,0.711,0.138,0.832
	c0.315,0.121,0.421,0.222,0.421,0.222s-0.138,9.844-0.125,10.636s0.242,4.896,0.261,6.063s0.061,3.877,0.074,4.753
	c0.014,0.875,0.014,0.875,0.014,0.875l-2.959,0.046c0,0-1.612,0.901-1.606,1.256s-0.334,1.319,0.458,1.307
	c0.792-0.013,3.586,0.005,3.689-0.099c0.103-0.107,0.474-0.321,0.474-0.321l1.648-0.005c0,0,0.7,0.844,1.138,0.838
	c0.438-0.008,1.504,0.142,1.914-0.281c0.411-0.423,0.646-0.667,0.646-0.667l8.038-0.053c0,0-0.589,1.052-0.583,1.406
	c0.005,0.354,0.096,0.792,0.638,0.782c0.542-0.008,0.721-0.554,0.721-0.554l0.772,0.01l0.029,1.812l0.312,0.016l0.055-3.17
	l2.698-0.062c0.8,2.641,3.269,4.547,6.165,4.502c3.043-0.048,5.55-2.232,6.12-5.104l32.633,0.046
	c0.602,2.927,3.211,5.105,6.308,5.058c3.395-0.053,6.116-2.766,6.23-6.123l0.938,0.081c0,0,1.001-2.226,0.988-3.06
	S91.067,57.911,90.689,57.73z M47.093,48.733h-4.255v4.254H39.15v-4.254h-4.254v-3.688h4.254v-4.255h3.688v4.255h4.255V48.733z"/>
</svg>
