<?xml version="1.0" encoding="utf-8"?>
<!-- Generator: Adobe Illustrator 15.0.2, SVG Export Plug-In . SVG Version: 6.00 Build 0)  -->
<!DOCTYPE svg PUBLIC "-//W3C//DTD SVG 1.1//EN" "http://www.w3.org/Graphics/SVG/1.1/DTD/svg11.dtd">
<svg version="1.1" id="Ebene_1" xmlns="http://www.w3.org/2000/svg" xmlns:xlink="http://www.w3.org/1999/xlink" x="0px" y="0px"
	 width="100px" height="100px" viewBox="0 0 100 100" enable-background="new 0 0 100 100" xml:space="preserve">
<circle fill="#B2B2B2" cx="50" cy="50" r="50"/>
<path d="M90.408,52.779l-0.056-0.263l-0.186,0.007v-0.432h0.063l-0.063-0.259v-0.219h-0.063c-0.051-0.137-0.134-0.288-0.255-0.46
	l-0.083-0.117h-0.005c-0.093-0.123-0.186-0.229-0.248-0.297v-1.177c0,0-0.317-0.001-0.329-0.001v-1.492
	c0-0.387-0.039-0.706-0.078-0.92c0.272-0.125,0.339-0.398,0.202-0.804c-0.073-0.262-0.473-1.58-0.925-1.914l-0.166-0.123
	l-0.054,0.038l-0.005-0.017c-0.104-0.02-0.54-0.075-1.145-0.153c-1.487-0.192-3.974-0.519-5.064-0.741l-0.048-0.01l-0.227,0.028
	l0.005-0.079c-0.127-0.032-0.166-0.05-0.166-0.05c-0.362-0.212-7.168-3.509-11.024-4.801l-0.117-0.037l-0.015,0.007v-0.012
	c-0.696-0.23-1.254-0.373-1.658-0.431c-2.778-0.391-7.947-0.811-11.207-0.811c-3.36,0-9.362,0.238-12.183,0.774
	c-0.496,0.095-1.113,0.273-1.833,0.527v0.008l-0.009-0.005l-0.385,0.142v0.005l-0.006-0.002l-0.119,0.043
	c-4.294,1.635-10.609,5.266-12.26,6.821c-0.067-0.002-0.339-0.013-0.339-0.013s-0.106,0.053-0.128,0.063l-0.012-0.068
	c-0.274-0.01-0.605-0.017-0.913-0.017c-0.161,0-16.673,1.747-17.596,4.144h-0.002l-0.239,0.681h-0.332l-0.078,0.057
	c-0.08,0.061-0.139,0.139-0.183,0.251h-0.008l-0.115,0.477h0.006l-0.103,0.446h-0.02l-0.031,0.22l-0.058,0.259h0.068
	c0.025,0.084,0.069,0.16,0.131,0.224l0.085,0.085h0.025c-0.03,0.016-0.067,0.038-0.111,0.062c-0.089,0.051-0.202,0.114-0.315,0.185
	l0.014,0.049l-0.088-0.002l-0.077,0.051c-0.3,0.202-0.483,0.389-0.571,0.579l-0.06,0.003v0.182L9.563,53.77l0.084-0.004v1.821
	c0,0.163,0.049,0.411,0.312,0.56c-0.104,0.07-0.167,0.187-0.167,0.326c0,0.089,0.026,0.17,0.074,0.235
	c-0.09,0.095-0.142,0.224-0.142,0.36c0,0.16,0.068,0.31,0.188,0.406l0.079,0.063h0.182c-0.125,0.148-0.157,0.36-0.083,0.546
	c0.073,0.178,0.231,0.289,0.42,0.311c-0.013,0.043-0.017,0.084-0.017,0.12c0,0.962,7.071,1.312,8.328,1.366v0.008l0.477-0.001
	v-0.005l0.461-0.025c0.493-0.025,0.962-0.06,1.369-0.092c0.991,1.785,2.895,2.993,5.075,2.993c2.261,0,4.227-1.302,5.183-3.194
	c0.326,0.153,0.638,0.229,1.068,0.258v0.007l0.462,0.018v0.002l0.219-0.006h0.258v-0.009c0.494-0.03,1.287-0.13,2.186-0.242
	c1.299-0.162,2.773-0.345,3.602-0.345l23.396-0.097c0.716,0,1.495,0.229,2.121,0.408c0.336,0.101,0.633,0.187,0.874,0.226v0.024
	l0.222-0.002l0.256,0.016v-0.027c0.136-0.012,0.233-0.036,0.309-0.077l0.151-0.081v-0.139h1.034c0.945,1.931,2.93,3.263,5.218,3.263
	c2.379,0,4.43-1.438,5.323-3.494h1.207c0.093,0.093,0.222,0.165,0.378,0.21v0.024l0.207,0.02l0.268,0.048v-0.031l0.243-0.006
	c0,0,0.112-0.069,0.134-0.084l0.022,0.07c0.1-0.007,0.204-0.02,0.318-0.033l-0.002,0.006l0.377-0.058
	c2.331-0.354,6.511-1.504,7.816-2.071l-0.013-0.065c0.018,0.001,0.132,0.014,0.132,0.014l0.078-0.039
	c0.424-0.221,0.436-0.745,0.36-1.096c0.194-0.349,0.516-1.062,0.701-1.884h0.002l0.034-0.202l0.057-0.274h-0.013
	c0.027-0.21,0.044-0.414,0.044-0.609C90.438,53.057,90.428,52.917,90.408,52.779z"/>
</svg>
