<?xml version="1.0" encoding="utf-8"?>
<!-- Generator: Adobe Illustrator 15.0.2, SVG Export Plug-In . SVG Version: 6.00 Build 0)  -->
<!DOCTYPE svg PUBLIC "-//W3C//DTD SVG 1.1//EN" "http://www.w3.org/Graphics/SVG/1.1/DTD/svg11.dtd">
<svg version="1.1" id="Ebene_1" xmlns="http://www.w3.org/2000/svg" xmlns:xlink="http://www.w3.org/1999/xlink" x="0px" y="0px"
	 width="100px" height="100px" viewBox="0 0 100 100" enable-background="new 0 0 100 100" xml:space="preserve">
<circle fill="#B2B2B2" cx="50" cy="50" r="50"/>
<path d="M50.368,23.664c0,0-0.947-0.662-1.033-0.852c-0.086-0.19-0.163-0.069-0.163-0.069s0.249-0.396,0.3-0.627
	c0.052-0.233,0.164-0.233,0.207-0.121c0.043,0.111,0.155,0.345,0.283,0.318c0.131-0.026,0.414-0.138,0.526-0.138
	c0.112,0,0.354-0.06,0.37-0.138c0.018-0.078,0.104-0.095,0.147-0.095s0.609,0.121,0.696-0.223c0.087-0.345-0.067-0.293,0.052-0.637
	c0.121-0.346-0.008-0.362-0.008-0.422c0-0.061,0.025-0.172,0.138-0.259c0.11-0.086,0.396-0.274,0.335-0.481
	c-0.06-0.207-0.042-0.156,0.061-0.232c0.103-0.079,0.216-0.25,0.129-0.501c-0.085-0.249-0.138-0.43-0.12-0.508
	c0.018-0.078,0.595-0.017,0.637-0.525c0.043-0.508-0.697-1.196-0.896-1.618c-0.049-0.105,0.119-0.249,0.139-0.319
	c0.024-0.094,0.077-0.242-0.078-0.438c-0.154-0.198,0.129-0.155,0.216-0.198c0.085-0.044,0.216-0.258,0.216-0.258
	s1.85-0.078,2.229-0.311c0.379-0.231,0.096-0.507,0-0.61c-0.094-0.104-0.619-0.767-0.989-2.11s-1.593-3.46-5.915-3.289
	c-4.321,0.173-5.854,2.514-5.889,4.77c-0.026,1.761-0.099,3.094,0.078,3.651c0.05,0.156,0.185,0.171,0.267,0.215
	c0,0,0.588,0.23,0.873,0.27c0.283,0.038,0.581,0.038,0.632,0.341c0.052,0.304,0.128,0.613,0.162,0.795
	c0.032,0.18,0.013,0.529,0.051,0.69c0.039,0.162,0.02,0.4,0.02,0.4s-0.401-0.044-0.413-0.012c-0.013,0.032-0.091,0.819-0.188,1.175
	c-0.098,0.354-0.175,0.709-0.162,0.774c0.012,0.065,0.064,0.226,0.025,0.284c-0.039,0.058-0.374,0.052-0.613,0.374
	c-0.24,0.323-0.291,0.355-0.465,0.529c-0.175,0.174-0.737,0.956-0.969,1.163c-0.233,0.206-0.472,0.478-0.556,0.605
	c-0.083,0.13-0.652,0.917-0.548,1.26c0.025,0.082,0.136,0.103,0.136,0.103s-0.646,1.157-0.646,1.415c0,0.259-0.201,0.53-0.239,0.737
	c-0.039,0.206-0.026,1.084,0.025,1.348c0.052,0.266,0.059,0.802,0.064,0.983c0.007,0.18,0.117,0.709,0.201,1.116
	c0.084,0.406,0.206,1.072,0.316,1.22c0.11,0.149,0.232,0.188,0.311,0.576c0.077,0.387,0.232,0.974,0.335,1.188
	s0.167,0.369,0.258,0.775c0.09,0.407,0.316,1.104,0.322,1.272c0.007,0.167,0.136,0.368,0.168,0.496
	c0.033,0.13-0.039,0.124-0.11,0.259c-0.07,0.135-0.303,0.459-0.303,0.601s0.02,1.163-0.032,1.466
	c-0.053,0.304-0.142,0.51-0.142,0.788c0,0.277,0.064,0.857,0.089,1.116c0.026,0.259-0.051,0.923,0.033,1.168
	c0.084,0.245,0.336,0.705,0.408,0.885c0.07,0.181,0.335,0.684,0.335,0.774s-0.517,0.73-0.517,0.878c0,0.149-0.167,0.239-0.149,0.451
	c0.02,0.214,0.136,0.537,0.188,0.66c0.051,0.123,0.051,0.419-0.013,0.503c-0.064,0.084-0.213,0.316-0.336,0.316
	s-0.162-0.059-0.258,0.006c-0.097,0.065-0.633,0.356-0.691,0.452c-0.058,0.098-0.128,0.214-0.052,0.336
	c0.079,0.123,0.866,0.684,0.976,0.761c0.109,0.078,0.232,0.201,0.212,0.318c-0.02,0.115,0.064,0.076,0.104,0.134
	c0.039,0.058-0.019,0.188-0.071,0.271c-0.052,0.084-0.136,0.439-0.155,0.62c-0.019,0.181-0.201,0.556-0.213,0.729
	c-0.013,0.174-0.058,0.458-0.051,0.627c0.006,0.168-0.11,0.194-0.085,0.342c0.026,0.148,0,0.199,0.046,0.31
	c0.045,0.111,0.052,0.169,0.052,0.279c0,0.108,0.023,0.151-0.038,0.174c-0.061,0.021-0.099,0.017-0.065,0.11
	c0.035,0.096,0.061,0.126,0.074,0.181c0.014,0.057,0,0.103-0.06,0.096c-0.061-0.009-0.094-0.15-0.182-0.065
	c-0.086,0.087-0.055,0.181-0.009,0.237c0.048,0.057,0.104,0.06,0.086,0.146c-0.017,0.087-0.029,0.172,0.009,0.235
	c0.039,0.067,0.048,0.113,0.048,0.126s-0.28,0.202-0.207,0.374c0.073,0.173,0.207,0.164,0.207,0.164s-0.052,1.3-0.134,1.873
	c-0.082,0.572-0.263,3.107-0.254,3.181c0.009,0.074,0.091,0.085,0.104-0.025c0.013-0.113,0.085-0.577,0.177-0.826
	c0.09-0.251,0.095-1.791,0.18-2.098c0.086-0.305,0.164-0.575,0.164-0.753c0-0.177,0-1.48,0-1.48s0.147-0.137,0.156-0.061
	c0.008,0.076-0.014,0.251-0.061,0.379c-0.046,0.129-0.013,0.456,0.061,0.599c0.074,0.142,0.757,0.986,0.757,1.161
	c0,0.283,0.164,0.54,0.239,0.613c0.074,0.07,0.078,0.076,0.074,0.22c0,0-0.281,2.392-0.217,3.012
	c0.064,0.619,0.129,1.937,0.135,2.376c0.007,0.439,0,2.538,0,2.538s0.02,0.032,0.026,0.058c0.007,0.026,0.02,0.142,0.085,0.491
	c0.064,0.348,0.116,0.646-0.013,0.827c-0.13,0.181-0.182,0.218-0.162,0.361c0.02,0.142,0.038,0.477-0.026,0.658
	c-0.065,0.181-0.077,0.639-0.058,0.806c0.02,0.169,0.09,0.13-0.04,0.245c-0.129,0.117-0.147,0.531-0.206,0.726
	c-0.059,0.191,0.039,0.263-0.064,0.477c-0.104,0.213-0.304,0.207-0.277,0.341c0.026,0.137-0.007,0.66,0,0.886
	c0.006,0.226,0,0.394-0.078,0.535c-0.078,0.144-0.22,0.943-0.22,1.182c0,0.24-0.045,0.687-0.045,0.705s-0.052,0.193,0.019,0.271
	c0.071,0.077,0.02,0.232-0.019,0.322s-0.033,0.342-0.033,0.381s-0.071,1.937-0.026,2.318c0.045,0.381,0.006,1.342,0.078,1.471
	c0.071,0.13,0.207,0.846,0.129,1.176c-0.079,0.33-0.174,0.75-0.162,0.917c0.013,0.169,0.097,1.24,0.136,1.407
	c0.04,0.169-0.013,0.278,0.161,0.291c0.174,0.014,0.646,0.169,0.743,0.498s0.232,1.612,0.465,2.479
	c0.232,0.865,0.31,1.279,0.31,1.421S42.172,86.832,42.159,87c-0.013,0.168-0.349,2.814,0.193,2.995
	c0.197,0.065-0.358,0.222-0.387,0.497c-0.045,0.433-0.182,1.311-0.009,1.363c0.067,0.02,1.612,0.191,3.573,0.232
	c0.219,0.003-0.009-0.623,0.22-0.62c0.71,0.008,1.859,0.136,2.647,0.181c2.573,0.149,4.83,0.034,5.72-0.672
	c0.121-0.096,1.498-0.258,1.188-1.162c-0.065-0.19-0.296-0.244-0.296-0.244s-0.271-1.046-0.555-1.061
	c-0.285-0.012-0.491,0.015-0.491,0.015s-0.104-0.491-0.544-0.519c-0.438-0.025-1.471,0.221-1.769,0.155
	c-0.296-0.063-0.618-0.116-0.773-0.425c-0.156-0.312-0.143-0.646-0.569-0.673c-0.425-0.024-0.258-0.258-0.58-0.258
	c-0.323,0-0.271-0.283-0.453-0.271c-0.18,0.013-0.219-0.192-0.427-0.245c-0.206-0.052-0.4-0.311-0.516-0.387
	c-0.117-0.078-0.078-0.311-0.233-0.374c-0.155-0.064-0.245-0.233-0.283-0.259c-0.04-0.026,0.116-0.374-0.13-0.491
	c-0.246-0.116,0.09-0.373-0.091-0.53c-0.18-0.153,0.065-0.696-0.128-0.942c-0.194-0.244-0.194-0.748-0.194-0.878
	c0-0.129,0.374,1.82,0.878,2.093c0.503,0.271,1.045-0.349,0.491-1.084c-0.556-0.736-0.814-0.775-0.93-1.292
	c-0.117-0.517-0.117-0.71-0.117-0.775c0-0.063,0.155-0.116,0.194-0.063c0.038,0.05-0.155,0.037,0.038,0.05
	c0.195,0.014,0.285-0.037,0.434-0.265c0.148-0.226,0.368-0.542,0.497-0.922c0.13-0.381,0.427-1.04,0.124-1.66
	s-0.479-0.659-0.497-1.215c-0.02-0.554-0.143-1.264,0.044-1.394c0.188-0.128,1.014-0.652,1.278-0.69
	c0.265-0.039,0.299-0.1,0.928-0.503c0.629-0.405,0.775-0.483,1.016-0.664c0.241-0.182,0.577-0.301,0.568-0.698
	c-0.009-0.396-0.103-0.877-0.051-1.084c0.051-0.207,0.508-1.765,0.646-2.609c0.138-0.843,0.224-1.607,0.242-2.064
	c0.015-0.457,0.274-2.084,0.326-2.454s0.198-0.645,0.248-0.758c0.053-0.111,0.294-1.351,0.207-1.869
	c-0.085-0.516-0.257-0.56-0.257-0.56s-0.044-1.195,0.06-1.429c0.104-0.23,0.087-0.998,0.232-1.462
	c0.146-0.466,0.104-1.017,0.104-1.05c0-0.035-0.14-0.775,0.035-1.129c0.17-0.354,0.411-0.766,0.411-0.836
	c0-0.068-0.111-0.49-0.017-0.81s0.241-1.229,0.241-1.868c0-0.636-0.035-2.367-0.035-2.367s0.421,0.087,0.749-0.18
	c0.327-0.267,0.576-0.292,0.768-0.447c0.188-0.155,0.765-0.585,0.756-1.369c-0.008-0.784-0.207-1.826-0.258-2.032
	c-0.052-0.207,0.111-0.19,0.111-0.241c0-0.052,0.044-1.972,0.103-2.359c0.062-0.387,0.097-2.238,0.097-2.6
	c0-0.362,0.035-0.627-0.138-0.748c-0.173-0.122-0.414-0.155-0.44-0.215c-0.025-0.06,0.019-0.517-0.215-0.491
	c-0.231,0.026-0.567,0.156-0.602,0.035c-0.035-0.121,0.018-0.87,0.018-0.87s0.085,0,0.12,0.173c0.034,0.172,0.241,0.18,0.31,0.06
	c0.068-0.121,0.086-1.214-0.104-1.249c-0.189-0.034-0.353-0.077-0.353-0.077l-0.026-0.43c0,0,0.499-0.611,0.586-1.025
	c0.085-0.414-0.431-1.816-0.49-2.144c-0.061-0.326-0.198-0.732-0.319-0.886c-0.121-0.155-0.053-0.664-0.053-0.664
	s0.259,0.121,0.285-0.318c0.026-0.439-0.009-0.878-0.009-0.878s-0.163-0.061-0.189,0c-0.025,0.06-0.163,0.077-0.155-0.018
	c0.009-0.095,0.112,0.018,0.165-0.318c0.051-0.336-0.362-1.292-0.681-1.455c-0.32-0.163-0.688,0.086-0.767,0.12
	c-0.078,0.035-0.181,0.052-0.181-0.077c0-0.128-0.37-1.111-0.784-1.464c-0.165-0.142-0.225-0.34-0.249-0.413
	c-0.044-0.121-0.723-1.042-0.818-1.153c-0.095-0.112-0.198-0.207,0.009-0.328c0.206-0.12,0.198,0.079,0.344,0.104
	c0.147,0.026,0.414,0.077,0.56,0.198c0.146,0.121,0.828,0.817,1.068,0.8c0.241-0.017,0.353-0.154,0.533-0.163
	c0.182-0.009,0.259-0.086,0.311-0.104c0.052-0.018,0.214-0.095,0.38-0.008c0.163,0.086,1.248,0.456,1.704,0.861
	c0.457,0.405,1.48,1.171,2.265,1.438c0.782,0.267,2.022,0.508,2.091,0.473c0.07-0.034-0.267-0.473-0.439-0.524
	c-0.172-0.052-0.86,0.103-2.048-0.671c-1.189-0.775-1.68-1.257-1.877-1.395c-0.198-0.138-0.922-0.49-1.136-0.508
	c-0.216-0.018-0.923,0.026-1.137,0.06c-0.216,0.034-0.303,0.165-0.483-0.009c-0.181-0.172-0.878-0.508-1.359-0.594
	c-0.481-0.086-0.604-0.086-0.688-0.146c-0.087-0.061,0.078-0.284-0.181-0.431c-0.26-0.146-0.414-0.267-0.542-0.328
	c-0.13-0.061-0.198-0.104-0.233-0.189c-0.035-0.085-0.12-0.301-0.301-0.301c-0.182,0-0.224,0.129-0.275,0.129
	c-0.052,0-0.095-0.009-0.095-0.069S50.368,23.664,50.368,23.664"/>
</svg>
