<?xml version="1.0" encoding="utf-8"?>
<!-- Generator: Adobe Illustrator 15.0.2, SVG Export Plug-In . SVG Version: 6.00 Build 0)  -->
<!DOCTYPE svg PUBLIC "-//W3C//DTD SVG 1.1//EN" "http://www.w3.org/Graphics/SVG/1.1/DTD/svg11.dtd">
<svg version="1.1" id="Ebene_1" xmlns="http://www.w3.org/2000/svg" xmlns:xlink="http://www.w3.org/1999/xlink" x="0px" y="0px"
	 width="100px" height="100px" viewBox="0 0 100 100" enable-background="new 0 0 100 100" xml:space="preserve">
<circle fill="#B2B2B2" cx="50" cy="50" r="50"/>
<path d="M74.924,18.153c0.615-1.539-0.308-2-0.308-2l-45.848,7.231c-1.23,0.769-0.307,1.692-0.307,1.692l-9.847,54.463l1.846,0.154
	l8.77-50.771l8.154,45.848l1.539-0.155L30,24.768l6-1.077c-0.154,0.616,0.615,2.462,0.615,2.462l1.231,27.693l-0.615,6l11.385-0.309
	l1.692-1.076l-0.923-5.386L47.539,22l5.692-0.615c-0.308,0.769,0.615,2.769,0.615,2.769l0.462,28.77L54,59.078l11.847-0.309
	l1.847-1.231l-1.231-6.615l-0.923-31.231l7.538-1.077l-5.23,63.233h1.538l4.77-55.694l5.847,50.309l1.385-0.769L74.924,18.153z
	 M48.974,54l0.974,4.103h-1.231L48.974,54z M37.692,58.923l0.462-4.153l0.922,3.385L37.692,58.923z M48.462,52.616l-0.308,5.538
	l-8.462,0.154l-1.385-5.078L37.23,25.846c0,0,0-0.154,0-1.846l9.077-1.693c0,0,0,1.231,0.77,2.001L48.462,52.616z M66.41,52.667
	l0.77,4.769H66L66.41,52.667z M54.513,58.154l0.41-4.564l0.616,4.001L54.513,58.154z M65.795,51.385l-0.513,6.051l-8.974-0.051
	l-1.078-4.923l-0.692-28.771c0.385-0.769,0.539-2.539,0.539-2.539l9.153-1.231c-0.229,0.924,0.539,2.309,0.539,2.309L65.795,51.385z
	"/>
</svg>
