<?xml version="1.0" encoding="utf-8"?>
<!-- Generator: Adobe Illustrator 15.0.2, SVG Export Plug-In . SVG Version: 6.00 Build 0)  -->
<!DOCTYPE svg PUBLIC "-//W3C//DTD SVG 1.1//EN" "http://www.w3.org/Graphics/SVG/1.1/DTD/svg11.dtd">
<svg version="1.1" id="Ebene_1" xmlns="http://www.w3.org/2000/svg" xmlns:xlink="http://www.w3.org/1999/xlink" x="0px" y="0px"
	 width="100px" height="100px" viewBox="0 0 100 100" enable-background="new 0 0 100 100" xml:space="preserve">
<circle fill="#B2B2B2" cx="50" cy="50" r="50"/>
<g>
	<path d="M40.515,44.996h0.167c0.123-0.307,0.184-0.479,0.184-0.515v-0.239c-0.012,0-0.129,0-0.35,0V44.996z"/>
	<path d="M74.479,77.629c-0.07-1.9-0.297-7.396-0.342-8.369c-0.045-0.975-0.463-11.205-0.525-12.525
		c-0.064-1.32-0.312-7.794-0.398-9.484c-0.086-1.694-0.479-10.913-0.537-12.283c-0.059-1.371-0.416-9.3-0.479-10.61
		c-0.061-1.309-0.066-2.191-0.209-2.555c-0.143-0.367-0.543-0.896-1.264-1.181c-0.723-0.284-1.137-0.22-3.09-0.166
		c-1.949,0.055-6.082,0.187-6.082,0.187l-4.189,0.142c0,0-0.621-0.107-0.939-0.215c-0.125-0.633-0.193-0.997-0.35-1.445
		c-0.154-0.447-0.287-0.513-0.67-0.56c-0.381-0.047-0.979-0.138-1.596-0.763c-0.691-0.703-0.564-1.811-0.852-2.335
		c-0.24-0.433-0.799-1.143-1.654-1.409c-0.85-0.265-2.033,0.068-2.606,0.812c-0.571,0.742-0.609,1.353-0.654,1.894
		c-0.049,0.542-0.307,1.125-0.863,1.599c-0.553,0.477-1.032,0.515-1.255,0.55c-0.224,0.037-0.615,0.255-0.587,0.807
		c0.027,0.554,0.066,1.261,0.066,1.261l-0.557,0.148c0,0-5.326,0.068-7.553,0.141c-2.229,0.072-3.641,0.091-4.589,0.132
		c-0.95,0.041-1.484,0.186-1.867,0.599c-0.382,0.411-0.573,0.816-0.591,1.69c-0.02,0.873-0.149,4.573-0.17,6.197
		c-0.022,1.627-0.282,9.255-0.354,12.242c-0.074,2.988-0.271,9.312-0.307,11.159c-0.035,1.842-0.236,9.232-0.294,11.152
		c-0.06,1.922-0.229,9.209-0.277,11.117c-0.049,1.908-0.108,3.455,0.011,3.895c0.116,0.443,0.443,1.236,1.351,1.508
		c0.798,0.236,3.909,0.08,7.333,0.072s8.29,0,11.144-0.004c2.856-0.004,8.436,0,11.641-0.012c3.207-0.01,9.42-0.035,11.014-0.057
		c1.596-0.023,1.803-0.02,2.361-0.459C74.259,80.059,74.55,79.529,74.479,77.629z M50.692,15.387
		c0.41-0.017,1.059,0.413,1.189,1.095c0.123,0.641-0.311,1.405-1.066,1.523c-0.756,0.12-1.514-0.536-1.453-1.391
		C49.421,15.757,50.257,15.403,50.692,15.387z M68.241,52.248c-1.006,0.86-1.516,1.289-1.527,1.289
		c-0.418,0.332-0.668,0.498-0.754,0.498c-0.025,0-0.197-0.008-0.518-0.02c-0.318,0-0.49,0-0.516,0c-0.404,0-0.607,0.066-0.607,0.203
		c0,0.074,0.031,0.164,0.092,0.277c-0.012,0.035-0.023,0.064-0.035,0.09c-0.025,0.811-0.35,1.48-0.977,2.006
		c-0.576,0.48-1.227,0.721-1.951,0.721c-0.65,0-1.252-0.223-1.805-0.664c-0.625-0.49-0.957-1.109-0.992-1.859
		c-0.025-0.023-0.043-0.043-0.057-0.055c-0.012-0.258,0.006-0.467,0.057-0.627c0-0.062-0.068-0.092-0.203-0.092
		c-0.088,0-0.16,0.012-0.221,0.037v0.902c0,0.025-0.016,0.076-0.049,0.156c-0.029,0.08-0.043,0.131-0.043,0.156
		c-0.051,0.32-0.258,0.682-0.627,1.088c-0.369,0.402-0.719,0.648-1.051,0.734c-0.072,0.025-0.123,0.045-0.146,0.057
		c-0.666,0.072-0.988,0.115-0.971,0.125c0.012,0.002,0.021,0.004,0.033,0.004c-0.021,0-0.031-0.002-0.033-0.004
		c-0.369-0.002-0.713-0.062-1.035-0.182c-0.418-0.172-0.725-0.35-0.92-0.533c-0.271-0.32-0.443-0.539-0.518-0.662
		c-0.184-0.381-0.293-0.652-0.33-0.811c-0.014-0.109-0.018-0.209-0.018-0.295c-0.025-0.023-0.037-0.043-0.037-0.055
		c-0.014-0.344,0-0.553,0.037-0.627c-0.051-0.037-0.088-0.066-0.111-0.092h-1.455l-0.072,0.074c0,0.023,0.012,0.062,0.035,0.109
		c0.012,0.074,0.004,0.223-0.029,0.443c-0.027,0.221-0.049,0.381-0.062,0.479c-0.135,0.711-0.496,1.277-1.086,1.693
		c-0.516,0.367-1.091,0.553-1.731,0.553c-0.821,0-1.528-0.295-2.117-0.885c-0.649-0.65-0.925-1.449-0.83-2.393
		c-0.023-0.037-0.036-0.062-0.036-0.074h-0.221l-0.057,0.037v0.938c0,0.051-0.016,0.076-0.054,0.076
		c-0.049,0.33-0.208,0.711-0.479,1.141c-0.222,0.332-0.595,0.619-1.122,0.865c-0.407,0.197-0.823,0.295-1.253,0.295
		S41,57.275,40.607,57.09c-0.243-0.109-0.441-0.227-0.589-0.35c-0.404-0.332-0.667-0.654-0.79-0.977
		c-0.038-0.096-0.062-0.176-0.074-0.238c-0.148-0.27-0.209-0.498-0.185-0.682l-0.055-0.055v-0.754h-1.951
		c-0.099,0-0.272-0.113-0.526-0.342c-0.25-0.228-0.382-0.346-0.396-0.359c-0.379-0.062-0.662-0.092-0.846-0.092
		c-0.111-0.048-0.166-0.134-0.166-0.257c0-0.159,0.118-0.306,0.35-0.441c0-0.073,0.009-0.196,0.028-0.369
		c0.017-0.172,0.027-0.263,0.027-0.275c0-0.026-0.01-0.056-0.027-0.093c-0.02-0.036-0.028-0.062-0.028-0.073
		c0-0.27,0.006-0.466,0.019-0.59c-0.012-0.392-0.042-0.638-0.092-0.735c-0.061,0.208-0.104,0.361-0.129,0.46
		c-0.111,0.049-0.196,0.072-0.257,0.072c-0.159,0-0.337-0.14-0.534-0.423c0.11-0.122,0.177-0.183,0.203-0.183
		c0.038,0,0.117,0.037,0.24,0.111v-0.037c-0.098-0.258-0.148-0.405-0.148-0.443c0-0.171,0.055-0.275,0.166-0.312
		c0.146-0.048,0.228-0.085,0.239-0.111c-0.233-0.11-0.417-0.147-0.552-0.11c-0.062-0.049-0.092-0.184-0.092-0.405
		c0-0.294,0.117-0.436,0.351-0.424v-0.239c0-0.025-0.067-0.277-0.203-0.755c-0.135-0.479-0.203-0.729-0.203-0.754
		c0-0.085,0.013-0.154,0.037-0.203l7.75,0.019c0.052,0,0.105-0.026,0.166-0.074c-0.097-0.246-0.195-0.369-0.294-0.369h-1.491
		c-0.038,0-0.11-0.047-0.221-0.146h-0.718c-0.061,0-0.098-0.031-0.111-0.093c0.024-0.037,0.043-0.067,0.055-0.091v-1.84h1.399
		c0.075-0.123,0.154-0.192,0.24-0.204c0.614-0.037,1.049-0.056,1.308-0.056l4.769-0.128c0.368,0,0.552-0.099,0.552-0.294
		c0-0.024-0.006-0.066-0.019-0.129c0-0.062,0-0.104,0-0.129c0-0.121,0.08-0.183,0.24-0.183c0.024,0,0.08,0.006,0.165,0.018
		c0.086,0.011,0.142,0.019,0.165,0.019c0.024,0,0.094-0.016,0.203-0.046c0.11-0.03,0.179-0.045,0.203-0.045
		c0.061,0,0.11,0.044,0.147,0.128c-0.074,0.099-0.111,0.214-0.111,0.35c0,0.209,0.068,0.312,0.202,0.312
		c0.025,0,0.078-0.076,0.156-0.23c0.082-0.153,0.176-0.229,0.287-0.229c0.123,0,0.209,0.049,0.256,0.147
		c0.051,0.099,0.1,0.203,0.148,0.312c0.086-0.024,0.197-0.049,0.332-0.072c0.037-0.013,0.188-0.02,0.459-0.02
		c0.332,0,0.535,0.03,0.609,0.092c0.295,0.221,0.588,0.449,0.883,0.681l1.436-0.497c0.135,0.025,0.215,0.104,0.24,0.24
		c0.023,0.135,0.049,0.256,0.074,0.367c0.146,0,0.227,0.007,0.238,0.02c0.318,0.195,0.564,0.357,0.734,0.478
		c0.074,0.024,0.254,0.038,0.535,0.038h5.246c0.014,0,0.062-0.026,0.148-0.073c0.221-0.026,0.369-0.038,0.441-0.038
		c0.014,0,0.053,0.018,0.119,0.055c0.068,0.037,0.115,0.056,0.141,0.056c0.023,0,0.127-0.009,0.312-0.028
		c0.184-0.018,0.287-0.028,0.311-0.028c0.088,0,0.162,0.03,0.223,0.093v0.46c-0.061,0.048-0.146,0.074-0.258,0.074
		c-0.025,0-0.098-0.013-0.221-0.038s-0.197-0.037-0.221-0.037c-0.025,0-0.133,0.015-0.322,0.046
		c-0.189,0.03-0.299,0.045-0.322,0.045c-0.16,0-0.295-0.018-0.406-0.055l-5.67,0.038c-0.318,0.135-0.562,0.264-0.736,0.386
		c-0.012,0.012-0.086,0.019-0.221,0.019l-1.473-0.037c-0.098-0.025-0.178,0.073-0.24,0.294c-0.061,0.221-0.104,0.38-0.127,0.479
		c0.244,0.036,0.766,0.055,1.564,0.055c0.209,0,0.328-0.033,0.357-0.101c0.031-0.068,0.178-0.103,0.432-0.103l2.709,0.038
		c0.123,0.026,0.188,0.082,0.201,0.175c0.014,0.091,0.1,0.138,0.258,0.138c0.086,0,0.145-0.028,0.176-0.083
		c0.031-0.055,0.107-0.084,0.23-0.084c0.023,0,0.23,0.013,0.615,0.038c0.387,0.025,0.592,0.037,0.619,0.037
		c-0.014,0,0.094-0.042,0.32-0.129c0.229-0.084,0.432-0.129,0.617-0.129c0.232,0,0.479,0.056,0.738,0.167
		c0.461,0.186,0.693,0.292,0.699,0.322c0.043-0.012,0.084-0.052,0.127-0.138c0.318,0,0.559-0.006,0.719-0.019
		c0.117,0,0.182,0,0.201,0c0.111,0,0.164,0.085,0.158,0.259c-0.008,0.17,0.045,0.257,0.156,0.257c0.012,0,0.104-0.087,0.275-0.257
		c0.012,0.011,0.029,0.023,0.057,0.036c0.023,0.012,0.041,0.024,0.055,0.038c-0.037,0.11-0.051,0.184-0.037,0.22
		c0.037,0,0.092,0.006,0.164,0.018c0.074,0,0.119,0,0.129,0c0.039,0,0.117-0.012,0.24-0.037c0.123-0.024,0.189-0.038,0.203-0.038
		c0.061,0,0.393,0.137,0.994,0.406c0.037,0.147,0.08,0.231,0.129,0.257c0.367,0.172,0.648,0.294,0.838,0.369
		c0.189,0.073,0.303,0.11,0.34,0.11c0.049,0,0.092-0.018,0.129-0.055v-1.141c0-0.048,0.012-0.066,0.035-0.055l0.039-0.239
		c0.061-0.05,0.109-0.075,0.146-0.075c0.051,0,0.105,0.055,0.166,0.166c-0.086,0.246-0.02,0.43,0.201,0.553v0.736
		c0.197,0.209,0.301,0.313,0.314,0.313c0.049-0.136,0.043-0.24-0.018-0.313c0.061-0.062,0.184-0.091,0.367-0.091
		c0.221,0,0.348,0.03,0.387,0.091c-0.012,0.123-0.031,0.209-0.055,0.257c0.172,0.27,0.232,0.49,0.184,0.664
		c0.184,0.134,0.334,0.227,0.449,0.275c0.117,0.048,0.25,0.092,0.396,0.128c0.172-0.356,0.289-0.632,0.352-0.829h0.107
		c0.309,0.149,0.463,0.251,0.463,0.312c0,0.05-0.008,0.068-0.018,0.055c-0.037,0.038-0.064,0.068-0.084,0.092
		c-0.02,0.025-0.037,0.065-0.055,0.121c-0.02,0.054-0.027,0.094-0.027,0.119c0,0.048,0,0.08,0,0.092
		c0.074,0.086,0.129,0.147,0.166,0.184c0.121,0.221,0.184,0.369,0.184,0.442C70.249,50.482,69.579,51.119,68.241,52.248z"/>
	<path d="M39.743,44.278v0.68c0.074,0.024,0.166,0.038,0.275,0.038c0.137,0,0.24-0.02,0.314-0.056v-0.681
		c-0.074-0.037-0.171-0.055-0.295-0.055C39.903,44.204,39.804,44.229,39.743,44.278z"/>
	<path d="M22.287,46.053c0.405-0.065,0.432-1.021,0.318-2.489c-0.113-1.466-1.931-7.955-1.931-7.955L20.25,32.94l-0.58,0.092
		c-0.239-1.479-0.384-2.356-0.384-2.356s-0.731-0.629-2.004-0.431c-1.273,0.205-1.774,1.03-1.774,1.03s5.177,33.935,6.546,37.323
		c0.749,1.854,1.888,4.121,1.984,4.312c0.033-0.213,0.417-2.719,0.557-4.715c0.142-2.027-1.515-13.396-3.015-23.095
		C21.739,45.597,22.032,46.093,22.287,46.053z M21.472,44.402c-0.506-3.272-0.99-6.316-1.374-8.703l0.109-0.018
		c0,0,1.821,6.489,1.936,7.956c0,0-0.563,0.208-0.664,0.701C21.477,44.357,21.476,44.381,21.472,44.402z"/>
</g>
</svg>
