<?xml version="1.0" encoding="utf-8"?>
<!-- Generator: Adobe Illustrator 15.0.2, SVG Export Plug-In . SVG Version: 6.00 Build 0)  -->
<!DOCTYPE svg PUBLIC "-//W3C//DTD SVG 1.1//EN" "http://www.w3.org/Graphics/SVG/1.1/DTD/svg11.dtd">
<svg version="1.1" id="Ebene_1" xmlns="http://www.w3.org/2000/svg" xmlns:xlink="http://www.w3.org/1999/xlink" x="0px" y="0px"
	 width="100px" height="100px" viewBox="0 0 100 100" enable-background="new 0 0 100 100" xml:space="preserve">
<circle fill="#B2B2B2" cx="50" cy="50" r="50"/>
<g>
	<path d="M40.087,45.096h0.166c0.124-0.308,0.184-0.479,0.184-0.516v-0.24c-0.011,0-0.129,0-0.35,0V45.096z"/>
	<path d="M74.397,20.677c-0.596-0.248-0.546-1.39-0.546-1.39H67c0.109,0.293,0.127,0.594,0.097,0.734l0.447,6.385l0.155,5.284
		l-0.025,0.92c0,0-0.085,1.269-1.192,1.566c-0.971,0.313-1.432-0.407-1.432-0.407s-0.298-0.338-0.304-0.871
		c-0.027-0.667-0.25-9.149-0.25-9.149l-0.058-1.164c0,0,0.277-0.253,0.29-0.124c0.065,0.247,0.061,1.59,0.061,1.59l0.164,5.615
		l0.085,3.106c0,0,0.171,1.02,0.651,1.092c0.421,0.199,1.029,0.036,1.36-0.402c0.28-0.457,0.313-0.723,0.313-0.723l-0.001-2.539
		l-0.093-2.533l-0.22-3.49l-0.27-3.76c0,0,0.065-0.676-0.185-1.132h-1.374c0,0.001,0,0.001,0,0.001H64.92c0,0,0.002,0,0.002-0.001
		h-38.22V80.59l44.791,0.123c0,0,0-0.496,0.272-0.546c0.274-0.049,2.087-0.421,2.087-1.066c0-0.646,0-37.268,0-37.268
		s-0.05-1.143,0.546-1.391c0.597-0.248,2.696-0.693,2.696-2.299c0-1.018,0-6.553,0-6.553V27.44c0,0,0-3.445,0-4.463
		C77.094,21.37,74.994,20.926,74.397,20.677z M67.835,52.354c-1.008,0.861-1.518,1.291-1.529,1.291
		c-0.418,0.332-0.669,0.498-0.756,0.498c-0.023,0-0.196-0.008-0.517-0.02c-0.317,0-0.49,0-0.514,0c-0.407,0-0.609,0.067-0.609,0.203
		c0,0.074,0.031,0.166,0.093,0.276c-0.013,0.037-0.024,0.066-0.036,0.092c-0.025,0.811-0.351,1.48-0.979,2.007
		c-0.575,0.48-1.227,0.721-1.952,0.721c-0.65,0-1.253-0.222-1.806-0.663c-0.626-0.49-0.959-1.113-0.995-1.861
		c-0.025-0.025-0.042-0.044-0.054-0.055c-0.014-0.259,0.004-0.47,0.054-0.628c0-0.061-0.067-0.092-0.203-0.092
		c-0.086,0-0.159,0.012-0.221,0.038v0.902c0,0.024-0.015,0.076-0.046,0.156s-0.045,0.132-0.045,0.157
		c-0.051,0.317-0.258,0.681-0.627,1.087c-0.368,0.405-0.72,0.651-1.052,0.736c-0.071,0.024-0.121,0.044-0.146,0.056
		c-0.666,0.073-0.988,0.116-0.972,0.125c0.012,0.002,0.022,0.005,0.032,0.005c-0.021,0-0.029-0.002-0.032-0.005
		c-0.368-0.003-0.714-0.062-1.036-0.181c-0.419-0.173-0.725-0.35-0.922-0.535c-0.27-0.319-0.442-0.539-0.516-0.663
		c-0.185-0.38-0.295-0.65-0.332-0.809c-0.013-0.11-0.018-0.211-0.018-0.296c-0.025-0.025-0.037-0.044-0.037-0.055
		c-0.013-0.345,0-0.554,0.037-0.628c-0.05-0.035-0.086-0.066-0.111-0.092h-1.456l-0.072,0.074c0,0.023,0.013,0.062,0.035,0.111
		c0.013,0.073,0.005,0.22-0.027,0.441c-0.031,0.222-0.052,0.381-0.064,0.478c-0.135,0.713-0.497,1.279-1.087,1.696
		c-0.516,0.369-1.091,0.552-1.732,0.552c-0.822,0-1.529-0.294-2.119-0.883c-0.649-0.652-0.926-1.45-0.829-2.396
		c-0.024-0.036-0.036-0.062-0.036-0.074H44.38l-0.057,0.038V55.1c0,0.05-0.017,0.073-0.054,0.073
		c-0.049,0.332-0.209,0.713-0.479,1.143c-0.223,0.332-0.595,0.621-1.124,0.866c-0.407,0.196-0.824,0.294-1.254,0.294
		c-0.43,0-0.841-0.09-1.235-0.275c-0.244-0.11-0.441-0.228-0.589-0.35c-0.405-0.332-0.668-0.657-0.791-0.977
		c-0.038-0.1-0.061-0.18-0.074-0.239c-0.147-0.271-0.209-0.498-0.185-0.683l-0.056-0.055v-0.755h-1.952
		c-0.1,0-0.273-0.113-0.527-0.342c-0.25-0.228-0.382-0.348-0.395-0.359c-0.381-0.062-0.663-0.093-0.848-0.093
		c-0.111-0.048-0.166-0.134-0.166-0.257c0-0.161,0.117-0.307,0.351-0.442c0-0.074,0.009-0.196,0.028-0.369
		c0.018-0.171,0.027-0.264,0.027-0.275c0-0.025-0.009-0.056-0.027-0.092c-0.019-0.036-0.028-0.062-0.028-0.074
		c0-0.271,0.006-0.467,0.018-0.59c-0.012-0.393-0.042-0.638-0.092-0.737c-0.061,0.209-0.104,0.361-0.129,0.46
		c-0.11,0.049-0.196,0.073-0.257,0.073c-0.16,0-0.337-0.14-0.534-0.424c0.11-0.121,0.177-0.183,0.202-0.183
		c0.038,0,0.118,0.036,0.24,0.111v-0.038c-0.098-0.258-0.147-0.405-0.147-0.443c0-0.171,0.056-0.276,0.167-0.312
		c0.146-0.048,0.228-0.086,0.239-0.11c-0.233-0.111-0.417-0.149-0.553-0.111c-0.061-0.049-0.092-0.185-0.092-0.405
		c0-0.294,0.118-0.436,0.351-0.423v-0.24c0-0.025-0.066-0.277-0.203-0.755c-0.135-0.479-0.202-0.73-0.202-0.756
		c0-0.086,0.012-0.154,0.036-0.202l7.757,0.019c0.05,0,0.105-0.026,0.166-0.074c-0.097-0.248-0.195-0.369-0.294-0.369h-1.492
		c-0.037,0-0.11-0.048-0.221-0.147h-0.719c-0.06,0-0.097-0.031-0.111-0.092c0.025-0.038,0.044-0.068,0.056-0.092v-1.843h1.4
		c0.075-0.122,0.155-0.19,0.24-0.202c0.615-0.038,1.05-0.057,1.309-0.057l4.771-0.128c0.369,0,0.552-0.099,0.552-0.294
		c0-0.025-0.004-0.068-0.018-0.13c0-0.061,0-0.104,0-0.13c0-0.121,0.081-0.183,0.24-0.183c0.025,0,0.08,0.007,0.166,0.019
		c0.087,0.011,0.142,0.017,0.165,0.017c0.025,0,0.094-0.015,0.204-0.045c0.11-0.031,0.179-0.047,0.203-0.047
		c0.062,0,0.111,0.046,0.147,0.13c-0.073,0.099-0.111,0.215-0.111,0.351c0,0.208,0.068,0.313,0.204,0.313
		c0.024,0,0.078-0.076,0.156-0.23c0.081-0.154,0.175-0.231,0.285-0.231c0.125,0,0.21,0.049,0.258,0.148
		c0.052,0.099,0.099,0.203,0.149,0.313c0.086-0.026,0.197-0.05,0.331-0.074c0.036-0.012,0.19-0.019,0.46-0.019
		c0.332,0,0.535,0.029,0.609,0.092c0.294,0.221,0.589,0.449,0.883,0.681l1.438-0.496c0.136,0.024,0.216,0.104,0.238,0.239
		c0.025,0.135,0.05,0.257,0.075,0.368c0.148,0,0.227,0.007,0.238,0.019c0.321,0.196,0.565,0.357,0.737,0.479
		c0.074,0.025,0.253,0.038,0.534,0.038h5.251c0.014,0,0.062-0.025,0.148-0.074c0.221-0.025,0.369-0.037,0.441-0.037
		c0.013,0,0.052,0.018,0.12,0.056c0.068,0.036,0.114,0.055,0.14,0.055c0.024,0,0.128-0.009,0.312-0.028
		c0.184-0.019,0.289-0.027,0.312-0.027c0.086,0,0.16,0.03,0.222,0.093v0.46c-0.062,0.048-0.149,0.074-0.259,0.074
		c-0.024,0-0.098-0.012-0.221-0.038c-0.123-0.026-0.196-0.036-0.223-0.036c-0.022,0-0.13,0.016-0.32,0.045
		c-0.19,0.03-0.298,0.047-0.323,0.047c-0.159,0-0.295-0.019-0.405-0.056l-5.675,0.038c-0.318,0.135-0.564,0.264-0.737,0.386
		c-0.012,0.012-0.086,0.019-0.22,0.019l-1.476-0.038c-0.098-0.024-0.178,0.074-0.238,0.295c-0.062,0.219-0.104,0.379-0.13,0.479
		c0.246,0.036,0.77,0.055,1.566,0.055c0.208,0,0.328-0.034,0.36-0.101c0.03-0.068,0.175-0.103,0.431-0.103l2.708,0.039
		c0.125,0.024,0.191,0.082,0.204,0.174s0.098,0.138,0.259,0.138c0.085,0,0.144-0.027,0.175-0.082c0.03-0.056,0.106-0.084,0.23-0.084
		c0.023,0,0.229,0.013,0.616,0.037c0.388,0.025,0.594,0.038,0.619,0.038c-0.014,0,0.095-0.043,0.321-0.13
		c0.228-0.085,0.433-0.129,0.617-0.129c0.234,0,0.479,0.056,0.739,0.167c0.462,0.185,0.693,0.292,0.699,0.321
		c0.042-0.011,0.085-0.051,0.126-0.138c0.32,0,0.561-0.005,0.721-0.017c0.117,0,0.181,0,0.202,0c0.11,0,0.164,0.085,0.156,0.258
		c-0.006,0.171,0.046,0.257,0.157,0.257c0.012,0,0.104-0.085,0.275-0.257c0.014,0.011,0.032,0.024,0.056,0.036
		c0.024,0.011,0.044,0.024,0.056,0.038c-0.036,0.109-0.05,0.183-0.036,0.221c0.036,0,0.091,0.007,0.164,0.019
		c0.075,0,0.118,0,0.13,0c0.038,0,0.115-0.012,0.239-0.037c0.123-0.024,0.19-0.038,0.204-0.038c0.062,0,0.392,0.136,0.993,0.407
		c0.037,0.147,0.08,0.231,0.13,0.257c0.367,0.172,0.648,0.295,0.839,0.369c0.189,0.073,0.303,0.111,0.341,0.111
		c0.048,0,0.092-0.019,0.129-0.055v-1.144c0-0.048,0.011-0.065,0.036-0.055l0.038-0.239c0.061-0.05,0.109-0.075,0.147-0.075
		c0.048,0,0.104,0.056,0.166,0.167c-0.088,0.247-0.02,0.43,0.202,0.553v0.737c0.195,0.209,0.3,0.314,0.313,0.314
		c0.048-0.136,0.042-0.241-0.02-0.314c0.062-0.062,0.184-0.091,0.369-0.091c0.22,0,0.349,0.029,0.386,0.091
		c-0.012,0.123-0.03,0.209-0.055,0.256c0.172,0.271,0.232,0.493,0.185,0.665c0.185,0.136,0.336,0.227,0.45,0.277
		c0.117,0.048,0.25,0.091,0.395,0.128c0.175-0.357,0.291-0.632,0.354-0.829h0.108c0.307,0.148,0.462,0.252,0.462,0.313
		c0,0.048-0.009,0.067-0.019,0.055c-0.038,0.038-0.065,0.069-0.085,0.093c-0.018,0.025-0.036,0.065-0.054,0.12
		c-0.02,0.055-0.027,0.095-0.027,0.121c0,0.048,0,0.079,0,0.091c0.073,0.087,0.128,0.148,0.166,0.185
		c0.122,0.222,0.184,0.369,0.184,0.442C69.844,50.585,69.175,51.224,67.835,52.354z"/>
	<path d="M39.313,44.377v0.681c0.074,0.025,0.166,0.038,0.276,0.038c0.136,0,0.24-0.019,0.314-0.055v-0.682
		c-0.074-0.038-0.172-0.057-0.295-0.057C39.474,44.302,39.374,44.328,39.313,44.377z"/>
</g>
</svg>
