<?xml version="1.0" encoding="utf-8"?>
<!-- Generator: Adobe Illustrator 15.0.2, SVG Export Plug-In . SVG Version: 6.00 Build 0)  -->
<!DOCTYPE svg PUBLIC "-//W3C//DTD SVG 1.1//EN" "http://www.w3.org/Graphics/SVG/1.1/DTD/svg11.dtd">
<svg version="1.1" id="Ebene_1" xmlns="http://www.w3.org/2000/svg" xmlns:xlink="http://www.w3.org/1999/xlink" x="0px" y="0px"
	 width="100px" height="100px" viewBox="0 0 100 100" enable-background="new 0 0 100 100" xml:space="preserve">
<circle fill="#B2B2B2" cx="50" cy="50" r="50"/>
<g>
	<path d="M46.745,79.538c-3.866-0.402-8.458-1.449-12.324-3.705l2.255-6.444c2.819,2.095,6.686,3.786,10.391,4.35l1.208-22.876
		c-5.961-5.075-12.244-10.391-12.244-18.769c0-8.539,6.283-13.21,13.936-13.774l0.483-8.78h5.316l-0.483,9.021
		c2.578,0.322,5.559,1.128,8.861,2.497l-1.853,5.639c-2.015-1.047-4.753-1.933-7.331-2.336l-1.208,21.588
		c6.122,5.155,12.646,10.713,12.646,19.655c0,8.457-6.041,13.29-14.419,14.016l-0.563,10.149h-5.155L46.745,79.538z M48.759,41.599
		l0.886-17.238c-3.544,0.645-6.364,2.9-6.364,7.169C43.281,35.477,45.618,38.619,48.759,41.599z M53.27,55.132l-0.967,18.606
		c4.189-0.805,6.848-3.705,6.848-7.894S56.653,58.354,53.27,55.132z"/>
</g>
</svg>
