<?xml version="1.0" encoding="utf-8"?>
<!-- Generator: Adobe Illustrator 15.0.2, SVG Export Plug-In . SVG Version: 6.00 Build 0)  -->
<!DOCTYPE svg PUBLIC "-//W3C//DTD SVG 1.1//EN" "http://www.w3.org/Graphics/SVG/1.1/DTD/svg11.dtd">
<svg version="1.1" id="Ebene_1" xmlns="http://www.w3.org/2000/svg" xmlns:xlink="http://www.w3.org/1999/xlink" x="0px" y="0px"
	 width="100px" height="100px" viewBox="0 0 100 100" enable-background="new 0 0 100 100" xml:space="preserve">
<circle fill="#B2B2B2" cx="50" cy="50" r="50"/>
<g>
	<path fill="#12100B" d="M63.674,69.032c-0.784-0.642-1.923-0.072-1.923-0.072c-0.854-0.996-4.344-0.213-4.344-0.213
		c-0.783,0.071-3.702,0.57-3.702,0.57c-1.353,0.071-4.059,0.354-4.059,0.354C48.437,69.53,46.8,69.53,46.8,69.53
		c-2.35,0.214-3.133-0.854-3.133-0.854c0.285-0.569,0.925-0.926,0.925-0.926c7.619-3.062,5.411-5.482,5.411-5.482
		c0-0.57-1.282,0.214-1.282,0.214l-5.553,2.421c-2.492,0.355-4.628,1.709-4.628,1.709c-2.492,0.926-4.201,2.562-4.201,2.562
		c-2.492,2.351-5.055,1.639-5.055,1.639l-11.312-1.132v11.685c5.183-0.219,12.167-0.586,12.167-0.586
		c1.139-0.284,2.563,0.071,2.563,0.071c7.049,1.14,10.538-0.355,10.538-0.355c1.495-0.071,3.061-0.57,3.061-0.57
		c4.984-0.427,5.768-2.065,5.768-2.065c1.851-0.354,2.989-1.423,2.989-1.423l1.639-1.424C68.514,68.96,63.674,69.032,63.674,69.032z
		"/>
	<path fill="#12100B" d="M72.388,21.026c-1.513-0.038-2.874-0.568-4.952-0.718c-2.08-0.152-7.259-2.268-7.485-2.306
		c-1.787-0.298-4.083-1.588-5.746-2.381c-1.286-0.605-2.344-0.038-2.344-0.038s-0.188-0.076-0.529-0.152
		c-0.341-0.075-1.021-0.335-1.814-0.302c-0.769-0.034-2.255,2.161-2.835,2.419c-0.647,0.188-2.419,0.794-3.214,1.096
		c-0.793,0.303-1.208,0.454-1.89,0.983c-0.681,0.529-2.155,2.193-2.495,2.57c-0.34,0.378-0.34,0.455-0.87,0.567
		c-0.529,0.114-0.945,0.302-1.247,0.644c-0.303,0.34,0.189,1.208,0.075,1.247c-0.113,0.039-0.604,0.53-0.832,0.945
		c-0.227,0.416-0.832,1.021-1.437,2.003s0.265,1.701,1.021,1.966c0.755,0.265,1.209,0,1.814-0.378
		c0.604-0.378,2.759-2.533,3.024-2.684c0.265-0.152,0.719-0.832,0.719-0.492c0,0.34-0.076,1.852-0.076,1.852
		c-0.037,0.681-0.189,1.096-0.302,1.286c-0.227,0.151-0.567,1.172-0.567,1.172l0.416,0.038c0,0-0.038,1.021-0.038,2.117
		c0,1.096,1.172,1.134,1.852,1.021c0.681-0.113,1.437-1.739,1.437-1.739c1.323,0,4.801-1.965,5.972-2.08
		c1.173-0.113,2.345-0.038,3.139,0.076s3.818,0.076,4.763,0.076s2.23-0.265,2.646-0.302c0.416-0.039,1.398,0.529,3.1,0.755
		c1.701,0.227,2.382-0.643,2.986-0.907c0.605-0.265,0.945-0.113,1.929-0.113c0.982,0,4.385,0.983,6.465,1.625
		c2.079,0.643,6.955,1.702,6.955,1.702V21.366C82.027,21.366,73.899,21.063,72.388,21.026z M45.207,26.583
		c-0.227,0.037,0.265-1.513,0.529-1.777c0.264-0.265,0.869-0.832,0.869-0.832s1.172,0.757,3.062,0.529
		C49.667,24.503,47.021,26.47,45.207,26.583z"/>
	<circle fill="#12100B" cx="38.653" cy="42.296" r="2.63"/>
	<circle fill="#12100B" cx="46.127" cy="47.376" r="2.914"/>
	<circle fill="#12100B" cx="39.268" cy="51.521" r="2.104"/>
	<path fill="#12100B" d="M41.768,55.934c-0.224,0.572-0.33,1.469-0.33,1.469s-0.061,0.355,0.235,0.842
		c0.44,0.725,0.798,0.999,1.034,1.217c0.234,0.217,0.669,0.217,0.669,0.217s1.085,0,1.424-0.044
		c0.339-0.043,0.531-0.269,0.531-0.269s0.895-1.051,1.033-1.295c0.139-0.243,0.156-0.399,0.148-0.738
		c-0.009-0.338-0.209-0.999-0.348-1.372c-0.139-0.375-0.451-0.608-0.451-0.608s-1.155-0.852-2.224-0.626
		c-0.58,0.123-1.251,0.617-1.251,0.617C42.045,55.482,41.924,55.533,41.768,55.934z"/>
	<path fill="#12100B" d="M46.57,41.397c0.392-0.006,2.129-0.898,2.521-1.303c0.545-0.562,0.647-2.785,0.606-2.879
		c-0.416-0.971-1.77-2.164-1.77-2.164s-0.006-0.054-0.652-0.09c-1.061-0.06-2.02,0.097-2.02,0.097
		c-0.923,0.362-1.792,1.948-1.96,2.34s0.494,2.521,0.729,2.841C44.26,40.558,46.178,41.402,46.57,41.397z"/>
</g>
</svg>
