<?xml version="1.0" encoding="utf-8"?>
<!-- Generator: Adobe Illustrator 15.0.2, SVG Export Plug-In . SVG Version: 6.00 Build 0)  -->
<!DOCTYPE svg PUBLIC "-//W3C//DTD SVG 1.1//EN" "http://www.w3.org/Graphics/SVG/1.1/DTD/svg11.dtd">
<svg version="1.1" id="Ebene_1" xmlns="http://www.w3.org/2000/svg" xmlns:xlink="http://www.w3.org/1999/xlink" x="0px" y="0px"
	 width="100px" height="100px" viewBox="0 0 100 100" enable-background="new 0 0 100 100" xml:space="preserve">
<circle fill="#B2B2B2" cx="50" cy="50" r="50"/>
<path d="M70.994,30.04c0,0-2.373-2.482-3.163-3.237c-0.794-0.754-2.796-2.423-2.796-2.423l-7.525,6.592c0,0-1.317,0.219-1.949,0.487
	c-0.632,0.272-1.579,1.138-1.579,1.138l-0.211,0.161c0,0-1.057-4.211-1.373-5.072c-0.319-0.864-1.533-2.345-2.007-3.374
	c-0.476-1.024-0.476-1.591-0.476-1.591s0.948,0.324,1.318-0.002c0.367-0.322,0.155-0.807,0.525-1.294
	c0.368-0.486,0.576-0.972,0.576-0.972s0.211-0.055,0.316-0.271c0.105-0.214,0.158-0.702,0.158-0.702s0.631-0.108,0.79-0.433
	c0.155-0.323-0.057-1.566-0.057-1.566s0.475-0.486,0.634-0.594c0.156-0.107,0.368-0.917,0.366-1.403
	c-0.001-0.256,0.043-0.677,0.085-1.019c0.067,0.053,0.136,0.103,0.202,0.158c0,0,0.086-0.433,0.126-1.075
	c0.077-0.196,0.116-0.471,0.017-0.826c-0.012-0.546-0.075-1.156-0.234-1.754l1.509-0.091c-0.108,0.316-0.311,1.07-0.229,2.102
	l1.267,0.235c0,0-0.336-1.438,0.048-2.404l2.462-0.149c-6.291-2.224-8.319-3.101-8.319-3.101c-2.637,0.308-9.229,0.688-9.229,0.688
	l4.771,1.548c-0.61,0.5-1.244,1.281-1.622,2.504c0,0,0.074-0.016,0.207-0.037c-0.47,1.102-0.753,2.297-0.752,3.124
	c0.001,1.509,0.317,2.103,0.318,2.698s-0.26,1.08-0.26,1.08l-0.58,0.486c0,0-0.579,0.704-1.053,1.189
	c-0.475,0.486-3.001,0.974-3.528,1.137c-0.527,0.164-2.634,0.436-2.945,4.755c-0.311,4.316,0.273,7.931,0.695,9.444
	c0.426,1.51,0.954,3.453,1.639,4.099c0.685,0.648,0.685,0.648,0.685,0.648s0.219,6.044,0.115,8.581
	c-0.102,2.536-0.57,6.695-0.57,6.695s0.045,0.014,0.121,0.035l-0.634,20.597l3.488,0.774c0,0.006,0,0.012,0,0.018
	c0.057,3.131,0.536,8.419,0.484,9.285c-0.051,0.862-0.786,2.537-0.681,2.75c0.104,0.218,1.265,0.92,1.687,1.078
	c0.422,0.162,1.001,0.162,1.792,0.592c0.789,0.43,2.265,1.35,4.32,1.292c2.054-0.056,3.846-0.653,4.001-0.975
	c0.16-0.327-0.422-1.189-0.422-1.675c0,0-0.421-0.216-1-0.483c-0.58-0.271-1.477-0.864-2.268-1.345
	c-0.792-0.488-0.792-0.92-0.792-0.92s0.264,0.272,1.319,0.271c1.054-0.002,2.21-0.652,3.213-0.544
	c0.999,0.102,3.003,0.749,5.058,0.099c2.052-0.647,2.63-1.297,2.524-1.674c-0.104-0.38-0.475-0.921-0.736-0.919
	c-0.265,0-1.583-0.266-2.267-0.211c-0.685,0.055-1.688-0.537-1.688-0.537s-0.685-0.972-0.422-1.892
	c0.262-0.916,0.52-6.639,0.518-7.718s-0.066-10.364-0.438-13.224c-0.372-2.861-0.638-5.075-0.638-5.075l0.208-0.432
	c0,0-1.322-6.907-1.322-7.499c-0.001-0.545-0.317-5.596-0.369-6.416c0.299-0.063,0.685-0.116,1.149-0.117
	c1.16-0.001,2.056,0.483,2.056,0.483l1.09-1.014l2.756-0.34l-0.055-1.51l0.895-0.108l0.105-0.487c0,0,0.63-0.483,0.945-0.593
	c0.316-0.108,0.844-0.325,0.844-0.541c0-0.217,0-0.217,0-0.217s0.315-0.268,0.367-0.484c0.052-0.218-0.052-0.433-0.052-0.433
	s0.633-0.325,0.633-0.541c0-0.217,0.051-0.431,0.051-0.431l0.266-0.442L70.994,30.04z M49.879,83.607
	c-0.051,1.188-0.419,2.699-0.419,2.699l-0.578-0.327c0,0,0.315-1.348,0.418-2.48c0.103-1.135,0.1-3.671,0.1-3.671
	S49.931,82.418,49.879,83.607z"/>
</svg>
