<?xml version="1.0" encoding="utf-8"?>
<!-- Generator: Adobe Illustrator 15.0.2, SVG Export Plug-In . SVG Version: 6.00 Build 0)  -->
<!DOCTYPE svg PUBLIC "-//W3C//DTD SVG 1.1//EN" "http://www.w3.org/Graphics/SVG/1.1/DTD/svg11.dtd">
<svg version="1.1" id="Ebene_1" xmlns="http://www.w3.org/2000/svg" xmlns:xlink="http://www.w3.org/1999/xlink" x="0px" y="0px"
	 width="100px" height="100px" viewBox="0 0 100 100" enable-background="new 0 0 100 100" xml:space="preserve">
<circle fill="#B2B2B2" cx="50" cy="50" r="50"/>
<path fill="#13110C" d="M47.541,35.778c-11.648-3.067-20.083,0-20.083,0c3.986,16.863-6.131,50.894-6.131,50.894
	c17.172,2.758,32.346,0,32.346,0S43.555,52.64,47.541,35.778z"/>
<path d="M73.599,13.266c-4.547,4.546-8.525,9.738-9.152,10.598c-0.503,0.693-1.526,1.854-1.905,2.28
	c-0.103-0.065-0.941-0.572-1.712-0.169c-0.481,0.253-0.845,0.655-1.042,1.11c-0.943-0.422-3.489-1.542-4.375-1.716
	c-1.094-0.215-11.594-1.095-11.908-1.095c-0.312,0-0.41,0.235,0.069,0.382c0.479,0.146,6.462,1.437,7.401,1.573
	c0.938,0.137,5.279,1.017,6.531,1.174c0.701,0.088,1.53,0.206,2.126,0.293c-0.013,0.13-0.013,0.259,0.005,0.39
	c0.085,0.591,0.661,1.115,1.127,1.388l-2.137,57.776h3.383l-0.202-57.566c0.129-0.014,0.248-0.042,0.358-0.08
	c0.082,0.925,0.381,3.779,1.03,5.483c0.781,2.053,2.895,6.003,3.305,7.019s1.543,3.52,1.623,3.597
	c0.078,0.079,0.255,0.215,0.078-0.449c-0.177-0.666-1.486-5.201-1.996-6.57c-0.508-1.369-1.954-5.632-2.286-6.493
	c-0.28-0.723-0.873-1.874-1.125-2.965c0.54-0.508,0.733-1.288,0.733-1.629c0-0.28-0.238-0.635-0.479-0.924
	c0.818-0.679,2.784-2.318,3.177-2.712c0.497-0.497,2.659-3.03,3.363-4.34c0.704-1.311,4.146-5.984,4.303-6.14
	C74.048,13.325,74.039,12.827,73.599,13.266z"/>
</svg>
