<?xml version="1.0" encoding="utf-8"?>
<!-- Generator: Adobe Illustrator 15.0.2, SVG Export Plug-In . SVG Version: 6.00 Build 0)  -->
<!DOCTYPE svg PUBLIC "-//W3C//DTD SVG 1.1//EN" "http://www.w3.org/Graphics/SVG/1.1/DTD/svg11.dtd">
<svg version="1.1" id="Ebene_1" xmlns="http://www.w3.org/2000/svg" xmlns:xlink="http://www.w3.org/1999/xlink" x="0px" y="0px"
	 width="100px" height="100px" viewBox="0 0 100 100" enable-background="new 0 0 100 100" xml:space="preserve">
<circle fill="#B2B2B2" cx="50" cy="50" r="50"/>
<path fill-rule="evenodd" clip-rule="evenodd" d="M83.434,25.287c0,0-1.018-0.793-1.109-1.891c-0.102-1.196-0.92-1.969-0.92-1.969
	s-18.096,0-19.205,0s-1.514,2.052-1.785,2.702c-0.27,0.648-1.516,1.077-1.516,1.077s-39.896,0-40.6,0
	c-0.702,0-1.108,1.974-1.163,2.271c-0.055,0.297-0.595,0.297-0.595,0.297l0.136,48.797h66.783L83.434,25.287z M68.154,46.542
	c-0.041,0.351-0.471,0.637-0.451,0.884s-0.598,0.617-0.598,0.617s0.432,0.185,0.062,0.432s-0.697,0.412-0.822,0.596
	c-0.125,0.186-0.762,0.021-0.762,0.021s0.125,0.228,0.309,0.31c0.186,0.08-0.268,0.228-0.039,0.33
	c0.225,0.102,0.41,0.327,0.389,0.572c-0.021,0.249-0.451,0.146-0.76,0.268c-0.309,0.125-0.721,0.331-0.842,0.537
	c-0.125,0.205-0.393,0.224-0.742,0.224c-0.348,0-0.514,0.271-0.822,0.289c0,0,0.516,0.309,0.762,0.35s0.205,0.576,0.391,0.822
	c0.184,0.246,0.207,0.721-0.061,0.76c-0.27,0.041-0.74,0.124-0.885,0.393c-0.145,0.266-0.535,0.616-0.904,0.801
	c-0.371,0.184-0.822,0.021-0.986,0.124c-0.166,0.102-0.885,0.06-1.174,0c0,0,0,0.246,0.33,0.266
	c0.328,0.021,1.068,0.187,1.439,0.454c0.369,0.266,0.658,0.617,0.76,0.841c0.102,0.228,0.125,0.74-0.102,0.803
	c-0.229,0.059-0.822,0.042-1.008,0.165c0,0,0.184,0.225,0.432,0.267c0.248,0.04-0.082,0.266-0.268,0.329s-0.369,0.287-0.492,0.474
	c-0.123,0.184-0.516,0.246-0.742,0.368c-0.225,0.123-0.451,0.248-0.842,0.268c0,0,0.275,0.123,0.412,0.187
	c0.225,0.103-0.043,0.184-0.268,0.161c-0.229-0.018-0.492,0.022-0.721,0.125c-0.227,0.103-0.473,0.021-0.721,0.021
	c-0.246,0-0.676-0.164-0.943,0.081c0,0,0.473,0.082,0.74,0.245c0.268,0.167,0.473,0.412,0.76,0.557
	c0.287,0.144,0.514,0.638,0.721,0.741c0.205,0.102,0.35,0.328,0.143,0.472c-0.207,0.145-0.041,0.207,0.104,0.328
	c0.143,0.124-0.082,0.249,0.041,0.454s0.082,0.452-0.041,0.534c-0.125,0.083-0.207-0.104-0.432-0.082
	c-0.227,0.019-0.268,0.225-0.492,0.247c-0.229,0.02-0.617,0.342-0.947,0.33c-0.514-0.023-0.904-0.311-1.131-0.27
	c0,0,0.062,0.27,0.186,0.431c0.123,0.165,0.02,0.394,0,0.639c-0.021,0.245-0.145,0.144-0.352,0.062
	c-0.203-0.083-0.533,0-0.697-0.041c-0.164-0.042-0.596-0.123-0.781-0.164c-0.184-0.041-0.473-0.35-0.473-0.35s0,0.328-0.164,0.265
	c-0.164-0.059-0.268-0.366-0.434-0.224c-0.162,0.143-0.287,0.062-0.473,0c-0.184-0.062-0.596-0.247-0.965-0.289
	c-0.369-0.041-0.555-0.328-0.844-0.266c-0.287,0.061-0.574-0.062-0.801-0.164c-0.227-0.104-0.412-0.309-0.74-0.33
	c-0.33-0.02-0.68-0.123-0.781-0.248c-0.104-0.123-0.186-0.285-0.432-0.285s-0.474-0.044-0.474-0.044s0.248,1.337,0.474,2.467
	c0.226,1.132,0.391,2.14,0.575,3.169c0.187,1.028,0.432,1.726,0.596,2.095c0.164,0.371,0.288,0.639,0.535,0.781
	c0.247,0.145,0.473,0.122,0.473,0.371c0,0.246,0.041,0.41,0.041,0.41s0.35,0.062,0.514,0.289c0.164,0.226,0.02,0.41-0.164,0.45
	c-0.186,0.041-0.246,0.206-0.535,0.246C50.949,72.547,50.6,71.95,50.6,71.95s-0.186,0.021-0.329,0.164
	c-0.145,0.144-0.308,0.104-0.124-0.246c0.186-0.35,0.247-0.597,0.082-0.802c-0.164-0.207-0.412-0.535-0.555-0.843
	c-0.145-0.308-0.269-0.718-0.412-1.334c-0.143-0.618-0.205-1.052-0.349-1.852c-0.145-0.804-0.308-1.913-0.492-2.714
	c0,0-0.31-0.042-0.35-0.205c-0.042-0.166,0.287-0.33,0.287-0.33s0.061-0.309-0.123-0.513c-0.186-0.207-0.268-0.411-0.124-0.474
	c0,0,0.021-0.268-0.144-0.349c-0.166-0.081-0.124-0.434-0.124-0.434s-0.476,0.138-0.72,0.269c-0.267,0.143-0.822,0.308-1.357,0.33
	c-0.533,0.019-1.007-0.125-1.58-0.229c-0.577-0.102-1.091-0.165-1.646-0.246c-0.555-0.082-1.007-0.33-1.295-0.35
	c-0.287-0.021-0.534,0.062-0.822,0.02c-0.284-0.04-0.534-0.08-0.781-0.205c-0.247-0.121-0.576-0.369-0.925-0.389
	c-0.349-0.021-0.247-0.246-0.164-0.413c0.082-0.163,0.185-0.514,0.534-0.574c0,0-0.103-0.288-0.329-0.288s-0.412-0.083-0.535-0.268
	c-0.124-0.185-0.268-0.329-0.453-0.575c-0.185-0.247-0.431-0.475-0.616-0.475c-0.186,0-0.062-0.205,0-0.389
	c0.061-0.183,0.061-0.434,0.226-0.699s0.39-0.473,0.679-0.574c0.287-0.104,0.657-0.165,0.657-0.165s-0.082-0.206-0.268-0.206
	c-0.184,0-0.657-0.186-0.821-0.062c-0.164,0.125-0.37,0.062-0.514-0.062c-0.145-0.122-0.268-0.265-0.514-0.326
	c-0.247-0.062-0.123-0.31-0.329-0.454c-0.206-0.145-0.309-0.351-0.535-0.351c-0.225,0-0.247-0.287-0.083-0.327
	c0.165-0.042,0.185-0.309,0.185-0.309s-0.185-0.041-0.349-0.124c-0.165-0.082-0.288-0.205-0.514-0.328
	c-0.227-0.124-0.087-0.245,0.062-0.372c0.246-0.204,0.143-0.472,0.432-0.739c0.287-0.27,0.534-0.452,0.862-0.452
	c0.33,0,0.637-0.123,0.637-0.123s-0.41-0.103-0.719-0.144c-0.309-0.041-0.925-0.493-1.211-0.516
	c-0.289-0.019-0.083-0.286-0.289-0.473c-0.205-0.183-0.349-0.514-0.596-0.676c-0.246-0.166-0.206-0.37-0.391-0.515
	c-0.186-0.147,0-0.207,0.145-0.37c0.143-0.165,0.37-0.535,0.761-0.657c0.39-0.125,1.089-0.125,1.089-0.125s-0.329-0.329-0.616-0.513
	c-0.289-0.186-0.392-0.391-0.638-0.493c-0.246-0.103-0.123-0.433-0.39-0.659c-0.268-0.226-0.103-0.431-0.103-0.431
	s-0.185-0.144-0.247-0.33c-0.062-0.184-0.062-0.43-0.226-0.533c-0.164-0.103-0.021-0.351,0.206-0.433
	c0.226-0.08,0.349-0.287,0.986-0.228c0,0-0.226-0.162-0.328-0.286c-0.104-0.124-0.268-0.536-0.391-0.845
	c-0.124-0.308-0.226-0.616-0.082-0.696c0.144-0.081,0.369,0.021,0.369,0.021s-0.062-0.227-0.164-0.473
	c-0.102-0.247-0.102-0.535,0.042-0.721c0.144-0.186,0.596-0.124,0.884-0.082c0.288,0.043,0.678,0.227,0.904,0.392
	c0.227,0.164,0.351,0.37,0.351,0.37s0.185-0.249,0.267-0.454c0.083-0.205,0.371-0.226,0.494-0.04
	c0.125,0.187,0.411,0.165,0.679,0.45c0.267,0.29,0.309,0.496,0.514,0.7c0.205,0.206,0.37,0.475,0.37,0.475s0-0.906,0.061-1.112
	c0.062-0.206,0.248-0.473,0.432-0.473s0.35,0.165,0.555,0.267c0.206,0.104,0.451,0.475,0.451,0.475s0.227-0.206,0.413-0.124
	c0.185,0.083,0.246,0.205,0.473,0.473c0.226,0.268,0.473,0.268,0.575,0.536c0.104,0.268,0.104,0.45,0.288,0.656
	c0.186,0.206,0.494,0.475,0.679,0.741s0.287,0.761,0.452,0.883c0.163,0.124,0.225,0.494,0.391,0.597
	c0.165,0.103,0.431,0.72,0.431,0.72s0.021-0.536-0.123-0.804c-0.143-0.265-0.288-0.719-0.432-1.148
	c-0.144-0.434-0.493-0.988-0.493-1.377c0-0.392-0.369-0.763-0.41-1.234c-0.042-0.473-0.165-0.885-0.022-1.009
	c0.144-0.121,0.063-0.225-0.04-0.369c-0.103-0.144-0.144-0.678-0.165-1.131c-0.021-0.453,0.082-0.822,0.228-1.008
	c0.143-0.183,0-0.799,0.163-1.026c0.165-0.229,0.966-0.27,1.336-0.185c0.371,0.081,0.493,0.431,0.884,0.574
	c0.305,0.112,0.352,0.41,0.597,0.451c0,0,0.021-0.368-0.082-0.698c-0.104-0.327-0.268-1.005-0.247-1.706
	c0.021-0.698,0.187-1.663,0.287-2.035c0.104-0.369,0.104-0.821,0.33-0.821s0.472,0.103,0.739,0.287s0.451,0.659,0.72,0.821
	c0,0,0.123-0.368,0.021-0.697c-0.103-0.33-0.415-0.895-0.308-1.399c0.123-0.575,0.226-1.027,0.37-1.232
	c0.143-0.206,0.637,0.165,0.82,0.495c0,0-0.018-0.803-0.018-1.091s0.185-0.657,0.185-0.946c0-0.211,0.308-0.103,0.369,0.062
	c0.062,0.164,0.267,0.062,0.411,0.268c0,0-0.041-0.599,0.124-0.761c0.163-0.165,0.308-0.392,0.555-0.493
	c0.246-0.104,0.473-0.104,0.616-0.02c0.145,0.08,0.021,0.411,0.021,0.411s0.204,0.184,0.349,0.205
	c0.145,0.02,0.247,0.266,0.145,0.411c-0.104,0.143-0.268,0.266-0.289,0.514c-0.021,0.246,0,0.451,0,0.451s0.351,0,0.515-0.144
	c0.165-0.145,0.577-0.145,0.657-0.021c0.084,0.125-0.039,0.411,0,0.679c0.043,0.267-0.184,0.37-0.162,0.697
	c0.02,0.331-0.268,0.658-0.268,0.658s0.184,0.124,0.369-0.061c0.186-0.186,0.391-0.328,0.596-0.392
	c0.207-0.062,0.516-0.019,0.637,0.063c0.123,0.081-0.061,0.594,0.062,0.902c0.125,0.308-0.041,0.679-0.041,1.028
	c0,0.352-0.205,0.473-0.205,0.864c0,0.39-0.205,0.658-0.309,0.903c0,0,0.393-0.021,0.699-0.143c0.309-0.124,0.986-0.144,1.396-0.165
	c0.227-0.01,0.309,0.185,0.268,0.474c-0.039,0.286-0.121,0.841-0.039,1.13c0.08,0.287-0.207,0.698-0.125,0.863
	s0.145,0.39-0.02,0.492s-0.125,0.352-0.207,0.616c-0.082,0.268-0.471,0.639-0.512,0.886c0,0,0.594-0.206,0.863-0.43
	c0.266-0.229,1.703-0.269,2.014-0.269c0.309,0,0.492,0.08,0.41,0.431c-0.082,0.35,0.123,0.432,0.021,0.739
	c-0.104,0.31-0.432,0.434-0.494,0.7c0,0,0.535-0.145,0.74-0.123c0.207,0.02,0,0.349-0.082,0.472
	c-0.082,0.124-0.287,0.659-0.309,0.986c-0.02,0.329-0.309,0.514-0.35,0.844s-0.453,0.782-0.453,1.069
	c0,0.288-0.123,0.513-0.266,0.699c-0.145,0.185-0.289,0.555-0.557,0.842c-0.266,0.288-0.123,0.576-0.348,0.822
	c-0.227,0.247-0.35,0.349-0.453,0.656c-0.104,0.31-0.184,0.639-0.184,0.639s0.369-0.021,0.555-0.165
	c0.184-0.143,0.369-0.533,0.883-1.253c0.514-0.719,1.131-1.356,1.459-1.644c0.33-0.29,0.207-0.495,0.535-0.639
	c0.33-0.143,1.172-0.452,1.438-0.617c0.268-0.164,0.455-0.285,0.701-0.285c0.244,0,0.123,0.308,0.35,0.47
	c0.225,0.166,0.244,0.823,0.184,1.215c0,0,0.328-0.205,0.514-0.452c0.186-0.249,1.234-0.844,1.811-1.027
	c0.576-0.187,0.924-0.084,1.049,0.021c0.121,0.101,0,0.719-0.084,0.965c0,0,0.926-0.533,1.338-0.637
	c0.41-0.104,0.861-0.187,0.986-0.04c0.123,0.144-0.062,0.574-0.062,0.574s0.309-0.144,0.699-0.122
	c0.391,0.018,1.111,0.43,1.316,0.472S68.195,46.192,68.154,46.542z"/>
</svg>
