<?xml version="1.0" encoding="utf-8"?>
<!-- Generator: Adobe Illustrator 15.0.2, SVG Export Plug-In . SVG Version: 6.00 Build 0)  -->
<!DOCTYPE svg PUBLIC "-//W3C//DTD SVG 1.1//EN" "http://www.w3.org/Graphics/SVG/1.1/DTD/svg11.dtd">
<svg version="1.1" id="Ebene_1" xmlns="http://www.w3.org/2000/svg" xmlns:xlink="http://www.w3.org/1999/xlink" x="0px" y="0px"
	 width="100px" height="100px" viewBox="0 0 100 100" enable-background="new 0 0 100 100" xml:space="preserve">
<circle fill="#B2B2B2" cx="50" cy="50" r="50"/>
<path fill-rule="evenodd" clip-rule="evenodd" d="M62.735,25.791c-0.042-0.375-0.581-1.784-0.581-2.407
	c0-0.622-0.872-1.744-0.996-2.034c-0.125-0.291-0.582-0.623-1.08-1.204s-1.327-0.955-1.327-0.955s0.124-0.208,0.206-0.415
	c0.084-0.208,0-1.122,0-1.122s0.25-0.166,0.334-0.331c0.081-0.167-0.334-0.956-0.334-0.956s0.955-0.125,0.79-1.66
	c-0.083-0.76-2.006-1.425-2.006-1.425s0.332-0.167,0.276-0.442c-0.056-0.277,0.151-1.246-0.111-2.602
	c-0.263-1.354-1.052-2.101-1.825-2.489c-0.775-0.388-1.716-0.775-2.435-0.83c-0.72-0.056-1.993-0.304-3.487,0.388
	c-0.746,0.359-0.996,1.604-1.218,1.881c-0.221,0.276-0.608,1.05-0.608,1.05s0,0-0.332,0.112c-0.331,0.11-0.721,0.221-0.996,0.387
	c-0.277,0.166-0.997,0.333-1.329,0.333c-0.331,0-0.498,0.221-0.277,0.387c0.221,0.167,0.277,0.332,0.996,1.273
	c0.72,0.94,1.495,1.383,1.495,1.383s-0.166,0.222,0.111,0.443s0.498,0,0.498,0s0,0.332,0,0.664c0,0.332,0.111,0.511,0.332,0.733
	c0.221,0.222,0,0.595,0,0.595s-0.415,0.319-0.277,0.498c0.429,0.559,0.277,0.774,0.498,1.106c0.222,0.332,0.886,0.388,0.886,0.388
	s-3.223,3.347-4.094,4.759c-0.278,0.45-0.522,1.84-0.664,2.792l-2.556-0.188l-5.033-1.398h-2.796l-1.258,0.839
	c-1.168,0-2.324,1.166-2.677,1.958c-0.077-0.001-0.153-0.002-0.225-0.017c-0.136-0.029-0.26-0.121-0.393-0.157
	c-0.121-0.033-0.249-0.02-0.34-0.052c-0.105-0.039-0.39-0.288-0.548-0.156c-0.176,0.144,0.109,0.795,0.209,0.992
	c0.327,0.649,0.665,1.138,1.045,1.619c0.165,0.212,0.458,0.508,0.522,0.811c0.033,0.156,0.033,0.82-0.104,0.861
	c-0.062,0.02-0.058-0.096-0.105-0.13c-0.337-0.247-0.78,0.112-0.862,0.365c-0.194,0.599,0.456,1.153,0.523,1.646
	c0.04,0.295-0.081,0.665-0.131,0.993c-0.109,0.728-0.207,1.201-0.339,1.907c-0.035,0.186-0.078,0.85-0.21,0.915
	c-0.02,0.012-0.19-0.087-0.313-0.079c-0.061,0.004-0.392,0.105-0.392,0.105c-0.031,0.026-0.021,0.185-0.078,0.261
	c-0.113,0.149-0.664,0.476-0.81,0.549c-0.387,0.195-0.527,0.214-0.365,0.653c0.145,0.398,0.404,0.762,0.653,1.15
	c0.233,0.362,0.568,0.757,0.653,1.149c0.088,0.405,0.031,0.874,0.078,1.306c0.11,1.013,0.217,1.888,0.366,2.821
	c0.286,1.795,1.077,3.383,1.201,5.094c0.034,0.471,0.167,1.564,0.706,1.464c0.195-0.036,0.304-0.479,0.392-0.602
	c0.101-0.139,0.24-0.306,0.418-0.496c0.292-0.311,0.595-0.669,0.574-0.026c-0.012,0.424-0.194,0.712-0.182,0.94
	c0.011,0.222,0.315,0.695,0.575,0.654c0.259-0.043,0.387-0.736,0.522-1.072c0.145-0.36,0.365-0.748,0.497-1.098
	c0.169-0.449,0.243-0.862,0.366-1.33c0.162-0.626,0.281-1.138,0.549-1.648c0.127-0.243,0.3-0.663,0.391-0.73
	c0.112-0.085,0.313-0.08,0.444-0.131c0.265-0.104,1.058-0.458,1.045-0.733c-0.009-0.2-0.519-0.423-0.706-0.469
	c-0.097-0.023-0.306-0.006-0.34-0.053c-0.064-0.086,0.104-0.564,0.132-0.757c0.167-1.199,0.116-2.281-0.028-3.37
	c-0.084-0.653-0.385-1.237-0.469-1.751c-0.081-0.488,0.373-0.736,0.627-1.149c0.052-0.083,0.391-0.915,0.261-1.044
	c-0.052-0.052-0.57-0.008-0.731,0.026c-0.162,0.033-0.389,0.246-0.522,0.183c-0.09-0.043-0.298-1.085-0.34-1.49
	c-0.033-0.32-0.052-0.623,0.103-0.685l0.004-0.054c-0.031-0.228,0.315-0.522,0.416-0.854c0.055-0.181,0.168-0.576,0.104-0.732
	c-0.022-0.056-0.168-0.095-0.262-0.155c-0.49-0.318-0.803-0.55-1.202-0.889c-0.122-0.105-0.328-0.401-0.47-0.367
	c-0.128,0.033-0.107,0.319-0.183,0.393c-0.216-0.35-0.359-0.934-0.157-1.411c0.105-0.249,0.553-0.476,0.73-0.628
	c0.335-0.285,0.631-0.657,0.968-0.992c0.073-0.073,0.506-0.508,0.667-0.841l0.394-0.144l3.079,2.09l2.517,1.398l1.818,0.101
	c0.014,0.048,0.026,0.096,0.041,0.143c0.125,0.415,0.041,0.373,0.083,1.12c0.043,0.746,0.498,0.954,0.624,0.954
	c0.124,0,0.207-0.373,0.332-0.457c0.124-0.082,0.912-0.165,1.037-0.165c0.125,0,0,0.289-0.042,0.456
	c-0.042,0.166-0.456-0.042-0.498,0.332c-0.042,0.373,0.414,0.54,0.291,0.664c-0.124,0.124-0.249,1.121-0.249,1.121
	c-0.339,1.192,0.042,3.901,0.042,3.901s0.083,0.912,0.331,1.619c0.25,0.705,1.329,2.281,1.329,2.281s-1.037,0.956-1.204,1.288
	c-0.167,0.332-0.251,0.063-0.251,0.063l-0.187,1.025c0,0,0.437,1.318,0.188,1.568c-0.25,0.248-0.083,0.663,0.249,0.788
	c0.332,0.124-0.496,0.332-0.414,0.664c0.083,0.331,0.374,0.788,0.624,1.12c0.248,0.332,0.996,0.207,0.996,0.207
	s-0.166,2.988,0,4.192c0.166,1.203,0.997,4.773,1.285,5.893c0.292,1.121,1.163,5.022,1.371,5.146
	c0.208,0.126,0.457,0.54,0.457,0.706c0,0.167,0.583,1.37,1.08,1.91c0.496,0.539,0.414,0.788,0.332,1.203
	c-0.084,0.416-0.166,1.618-0.084,2.199c0.084,0.582,0.416,2.324,0.416,2.324s-1.122,1.785-1.039,3.114
	c0.06,0.952,0.955,0.954,1.162,1.037c0.208,0.082-0.746,1.161-0.746,1.161s-0.499,0-0.789-0.042
	c-0.291-0.04-0.373,0.209-0.373,0.375s-0.333,0.124-0.664,0.207c-0.333,0.083-0.582,0.456-0.582,0.456s-0.292,0-0.582,0.166
	c-0.29,0.166-1.659,0.041-1.784,0.041c-0.125,0-1.162,0-1.411,0.914c-0.249,0.913,0.456,1.494,1.369,2.074
	c0.913,0.582,3.569,0.54,4.067,0.415c0.498-0.124,1.577-0.166,1.577-0.166l0.084,0.623c0,0-0.831,0.664-1.246,1.37
	c-0.415,0.705-1.618,1.078-2.242,1.37c-0.623,0.289-0.747,0.954-0.829,1.078s-0.374,0.788,0.622,1.328
	c0.997,0.539,4.027,0.788,5.23,0.665c1.204-0.126,2.781-1.495,3.402-1.661c0.623-0.166,0.623-0.126,1.827-0.747
	c1.203-0.623,0.581-1.453,0.415-1.867c-0.166-0.416-0.458-2.324-0.458-2.324s0.126-0.539,0.166-0.871
	c0.042-0.334-0.454-0.915-0.58-1.453c-0.124-0.54,0.291-0.623,0.54-1.037c0.249-0.415,0.04-1.287,0-1.868
	c-0.042-0.582,0.207-2.241,0.29-3.279c0.084-1.036-0.124-4.482-0.166-5.271c-0.042-0.789,0.208-1.951,0.291-2.863
	c0.083-0.914-0.498-3.527-0.748-4.772c-0.248-1.246-0.124-1.785,0.125-2.325c0.248-0.538-0.041-1.743,0.166-2.365
	c0.208-0.622,0.291-2.822,0.291-2.822s0.166-0.166,0.29-0.374c0.124-0.207,0.124-0.498,0-0.787
	c-0.124-0.291,0.208-0.375,0.208-0.582c0-0.208,0.166-0.456,0.207-1.204c0.041-0.746-0.124-1.617-0.124-1.617
	s0.165-0.332,0.248-0.622c0.083-0.292,0.083-2.408,0.126-2.906c0.04-0.498-0.084-1.37,0.082-1.37c0.167,0,0.125-0.497,0.125-0.497
	s0.165-0.084,0.208-0.499c0.04-0.415,0.04-2.034,0.04-2.366c0-0.331-0.539-1.369-0.539-1.369s0.249-0.415,0.373-0.748
	c0.126-0.332,0.374-1.286,0.374-1.66c0-0.374,0.042-0.954,0.249-1.328s-0.166-0.623-0.166-0.623s0.208-0.414,0.373-0.706
	c0.166-0.291,0.084-1.661,0.084-2.117c0-0.457,0.041-2.656,0.248-3.029c0.208-0.373,0.498-1.826,0.955-2.697
	C62.984,26.414,62.775,26.164,62.735,25.791z"/>
</svg>
