<?xml version="1.0" encoding="utf-8"?>
<!-- Generator: Adobe Illustrator 15.0.2, SVG Export Plug-In . SVG Version: 6.00 Build 0)  -->
<!DOCTYPE svg PUBLIC "-//W3C//DTD SVG 1.1//EN" "http://www.w3.org/Graphics/SVG/1.1/DTD/svg11.dtd">
<svg version="1.1" id="Ebene_1" xmlns="http://www.w3.org/2000/svg" xmlns:xlink="http://www.w3.org/1999/xlink" x="0px" y="0px"
	 width="100px" height="100px" viewBox="0 0 100 100" enable-background="new 0 0 100 100" xml:space="preserve">
<circle fill="#B2B2B2" cx="50" cy="50" r="50"/>
<path d="M71.941,87.182c0-8.469,0.1-16.958-0.034-25.418c-0.012,0.017,0,0,0,0c-0.097,0.129-0.064,0.018-0.108-0.161
	c0.001,0.121-0.049,0.061-0.101,0.109c0.012,0.16-0.088,0.161-0.073,0c-0.054-0.048-0.102,0.011-0.101-0.109
	c0,0.12-0.048,0.062-0.102,0.109c0.011,0.16-0.087,0.161-0.073,0c-0.054-0.048-0.102,0.012-0.101-0.109
	c0,0.12-0.049,0.062-0.102,0.109c0.014,0.161-0.087,0.161-0.073,0c-0.052-0.049-0.101,0.011-0.103-0.109
	c0.001,0.12-0.047,0.062-0.1,0.109c0.017,0.161-0.09,0.161-0.072,0c-0.055-0.049-0.103,0.012-0.103-0.109
	c0,0.12-0.047,0.062-0.102,0.109c0.015,0.161-0.085,0.16-0.074,0c-0.051-0.048-0.099,0.009-0.1-0.109
	c0.002,0.121-0.047,0.062-0.101,0.109c0.029,0.338,0.057-1.229,0.074-1.375c-0.282-0.319-0.42-0.66-0.42-1.041
	c0.037-0.179,0.029-0.244-0.055-0.387c-0.028-0.211-0.023-0.789-0.021-0.809c-0.007,0.014,0.044-0.165-0.015-0.096
	c0.011-0.031,0.007-0.062-0.013-0.092c-0.021,0.029-0.025,0.061-0.014,0.092c-0.023-0.045-0.033,0.062-0.013,0.096
	c0.018,0.222-0.15,0.075-0.022,0.809c-0.084,0.144-0.093,0.21-0.057,0.387c0.003,0.376-0.135,0.722-0.418,1.041
	c0.018,0.146,0.044,1.721,0.074,1.375c-0.053-0.049-0.102,0.012-0.102-0.109c0.001,0.122-0.047,0.061-0.103,0.109
	c0.021,0.164-0.083,0.158-0.072,0c-0.053-0.049-0.101,0.012-0.101-0.109c0.002,0.121-0.048,0.062-0.101,0.109
	c0.014,0.161-0.088,0.161-0.074,0c-0.052-0.049-0.101,0.011-0.101-0.109c0,0.122-0.048,0.061-0.102,0.109
	c0.017,0.163-0.085,0.159-0.073,0c-0.053-0.049-0.102,0.011-0.102-0.109c0.003,0.121-0.047,0.062-0.1,0.109
	c0.015,0.161-0.087,0.161-0.072,0c-0.054-0.049-0.103,0.012-0.102-0.109c0,0.121-0.05,0.06-0.101,0.109
	c0.012,0.16-0.088,0.162-0.074,0c-0.055-0.048-0.104,0.013-0.101-0.109c0.001,0.121-0.05,0.061-0.101,0.109
	c0.011,0.159-0.091,0.163-0.074,0c-0.053-0.048-0.102,0.011-0.102-0.109c0,0.121-0.049,0.061-0.101,0.109
	c0.017,0.162-0.086,0.16-0.074,0c-0.052-0.048-0.101,0.011-0.1-0.109c0,0.121-0.047,0.062-0.104,0.109
	c0.021,0.164-0.083,0.158-0.072,0c-0.051-0.049-0.101,0.012-0.101-0.109c0.003,0.121-0.047,0.062-0.101,0.109
	c0.018,0.162-0.085,0.16-0.074,0c-0.05-0.049-0.099,0.011-0.1-0.109c0.003,0.123-0.048,0.061-0.102,0.109
	c0.017,0.164-0.079,0.157-0.074,0c-0.051-0.049-0.102,0.012-0.1-0.109c0,0.12-0.048,0.062-0.101,0.109
	c0.014,0.161-0.085,0.16-0.073,0c-0.055-0.048-0.104,0.012-0.101-0.109c-0.002,0.119-0.05,0.062-0.102,0.109
	c0.024,0.346,0.057-1.233,0.073-1.375c-0.244-0.246-0.369-0.531-0.357-0.821c-0.025-0.014-0.026-0.033-0.003-0.055
	c-0.143-0.002-0.141-0.075-0.06-0.165c0.037-0.178,0.03-0.243-0.054-0.387c-0.029-0.22-0.026-0.788-0.023-0.809
	c0.042-0.065-0.006-0.115-0.013-0.096c0.011-0.031,0.007-0.062-0.013-0.092c-0.02,0.029-0.024,0.061-0.015,0.092
	c-0.043-0.064-0.013,0.097-0.014,0.096c0.018,0.223-0.149,0.074-0.022,0.809c-0.083,0.145-0.091,0.208-0.055,0.387
	c0.001,0.379-0.137,0.722-0.419,1.041c0.018,0.144,0.045,1.717,0.074,1.375c-0.054-0.049-0.102,0.012-0.102-0.109
	c0,0.119-0.048,0.062-0.101,0.109c0.012,0.159-0.091,0.162-0.074,0c-0.052-0.048-0.102,0.012-0.1-0.109
	c0,0.12-0.049,0.061-0.102,0.109c0.015,0.161-0.088,0.16-0.074,0c-0.052-0.049-0.1,0.011-0.101-0.109
	c0.002,0.12-0.049,0.062-0.1,0.109c0.011,0.161-0.086,0.16-0.075,0c-0.053-0.048-0.103,0.012-0.1-0.109
	c-0.002,0.118-0.049,0.062-0.1,0.109c0.008,0.158-0.09,0.163-0.075,0c-0.055-0.048-0.102,0.011-0.101-0.109
	c0,0.121-0.048,0.061-0.102,0.109c0.015,0.16-0.09,0.162-0.072,0c-0.055-0.049-0.102,0.012-0.102-0.109
	c0,0.12-0.046,0.062-0.102,0.109c0.015,0.163-0.085,0.159-0.074,0c-0.051-0.048-0.1,0.011-0.099-0.109
	c0,0.121-0.049,0.061-0.103,0.109c0.014,0.161-0.086,0.16-0.072,0c-0.053-0.049-0.103,0.012-0.102-0.109
	c0,0.12-0.048,0.062-0.101,0.109c0.011,0.161-0.084,0.16-0.075,0c-0.049-0.048-0.101,0.011-0.1-0.109
	c0.002,0.121-0.048,0.062-0.101,0.109c0.009,0.159-0.088,0.162-0.073,0c-0.054-0.048-0.102,0.011-0.102-0.109
	c0,0.12-0.05,0.062-0.101,0.109c0.015,0.161-0.087,0.161-0.073,0c-0.054-0.048-0.102,0.012-0.101-0.109
	c0,0.12-0.049,0.061-0.101,0.109c0.011,0.159-0.088,0.162-0.074,0c-0.053-0.048-0.103,0.012-0.102-0.109
	c0,0.121-0.047,0.061-0.101,0.109c-0.05-0.567-0.032-1.562-0.286-2.251c-0.144-0.002-0.143-0.075-0.059-0.165
	c-0.081-0.125-0.04-0.21,0.042-0.272c-0.098,0.023-0.13-0.015-0.098-0.114c-0.029-0.219-0.022-0.79-0.021-0.809
	c-0.001,0.002,0.04-0.161-0.016-0.096c0.015-0.031,0.01-0.062-0.012-0.092c-0.021,0.029-0.026,0.061-0.013,0.092
	c-0.042-0.062-0.019,0.089-0.015,0.096c0.025,0.21-0.148,0.083-0.022,0.809c0.032,0.099,0.002,0.139-0.098,0.114
	c0.082,0.062,0.122,0.146,0.043,0.272c0.082,0.091,0.084,0.164-0.059,0.165c0.021,0.327-0.101,0.619-0.362,0.876
	c0.018,0.147,0.046,1.716,0.075,1.375c-0.053-0.048-0.104,0.013-0.101-0.109c0,0.121-0.05,0.061-0.101,0.109
	c0.011,0.16-0.089,0.161-0.074,0c-0.054-0.048-0.102,0.011-0.102-0.109c0,0.12-0.049,0.062-0.101,0.109
	c0.015,0.161-0.09,0.162-0.072,0c-0.055-0.048-0.103,0.012-0.102-0.109c0,0.12-0.048,0.062-0.102,0.109
	c0.015,0.162-0.085,0.16-0.074,0c-0.052-0.048-0.1,0.01-0.1-0.109c0,0.12-0.05,0.061-0.102,0.109c0.014,0.162-0.087,0.16-0.073,0
	c-0.052-0.049-0.103,0.013-0.102-0.109c0.001,0.12-0.049,0.062-0.1,0.109c0.014,0.161-0.089,0.161-0.074,0
	c-0.052-0.048-0.101,0.01-0.102-0.109c0.002,0.122-0.048,0.061-0.102,0.109c0.015,0.163-0.082,0.158-0.074,0
	c-0.05-0.048-0.099,0.01-0.1-0.109c0.003,0.122-0.047,0.062-0.101,0.109c0.015,0.161-0.084,0.161-0.073,0
	c-0.052-0.048-0.102,0.012-0.1-0.109c0.001,0.122-0.05,0.061-0.102,0.109c0.011,0.16-0.085,0.161-0.074,0
	c-0.052-0.049-0.102,0.012-0.102-0.109c0.002,0.12-0.049,0.062-0.099,0.109c0.008,0.158-0.092,0.163-0.074,0
	c-0.054-0.048-0.102,0.011-0.102-0.109c0,0.12-0.047,0.062-0.102,0.109c0.018,0.16-0.089,0.162-0.071,0
	c-0.055-0.048-0.104,0.012-0.102-0.109c0,0.122-0.047,0.061-0.103,0.109c0.018,0.162-0.084,0.159-0.073,0
	c-0.052-0.049-0.1,0.011-0.101-0.109c0.001,0.12-0.048,0.062-0.101,0.109c-0.036-0.419-0.002-1.391-0.231-1.974
	c-0.078-0.115-0.121-0.283-0.113-0.442c0.036-0.178,0.028-0.242-0.056-0.387c-0.028-0.22-0.028-0.783-0.023-0.809
	c0,0,0.04-0.159-0.014-0.096c0.014-0.031,0.009-0.062-0.013-0.092c-0.02,0.029-0.024,0.061-0.012,0.092
	c-0.057-0.067-0.011,0.104-0.016,0.096c0.019,0.222-0.147,0.075-0.021,0.809c0.032,0.1,0,0.138-0.098,0.114
	c0.083,0.063,0.122,0.148,0.042,0.272c-0.293,0.752-0.287,1.758-0.345,2.416c-0.053-0.048-0.101,0.011-0.101-0.109
	c0,0.12-0.049,0.061-0.101,0.109c0.011,0.16-0.088,0.162-0.074,0c-0.053-0.048-0.102,0.011-0.102-0.109
	c0.002,0.121-0.048,0.062-0.1,0.109c0.011,0.16-0.094,0.162-0.073,0c-0.055-0.049-0.103,0.012-0.103-0.109
	c0.001,0.12-0.046,0.062-0.101,0.109c0.015,0.161-0.088,0.161-0.074,0c-0.051-0.049-0.1,0.012-0.1-0.109
	c0.001,0.121-0.048,0.061-0.101,0.109c0.011,0.161-0.085,0.16-0.074,0c-0.052-0.049-0.101,0.012-0.1-0.109
	c0,0.121-0.048,0.062-0.103,0.109c0.017,0.163-0.085,0.159-0.074,0c-0.049-0.049-0.101,0.011-0.101-0.109
	c0.002,0.12-0.048,0.062-0.099,0.109c0.011,0.159-0.087,0.162-0.075,0c-0.052-0.049-0.102,0.012-0.102-0.109
	c0.001,0.12-0.048,0.062-0.1,0.109c0.012,0.16-0.088,0.162-0.074,0c-0.054-0.049-0.101,0.012-0.101-0.109
	c0.001,0.121-0.047,0.061-0.101,0.109c0.011,0.161-0.088,0.161-0.074,0c-0.052-0.049-0.1,0.011-0.1-0.109
	c0.001,0.122-0.05,0.061-0.102,0.109c0.014,0.162-0.085,0.159-0.074,0c-0.051-0.048-0.102,0.011-0.1-0.109
	c-0.001,0.12-0.051,0.061-0.101,0.109c0.014,0.161-0.086,0.161-0.074,0c-0.054-0.048-0.102,0.011-0.102-0.109
	c0.001,0.12-0.047,0.062-0.101,0.109c0.012,0.161-0.085,0.161-0.074,0c-0.051-0.049-0.101,0.012-0.1-0.109
	c0,0.121-0.048,0.061-0.102,0.109c-0.005-0.069-0.019-1.343-0.113-1.698c-0.16-0.19-0.242-0.451-0.231-0.718
	c0.046-0.237-0.054-0.2-0.054-0.387c-0.029-0.218-0.025-0.79-0.023-0.809c0-0.001,0.029-0.16-0.015-0.096
	c0.012-0.031,0.008-0.062-0.013-0.092c-0.02,0.029-0.023,0.061-0.013,0.092c-0.063-0.062-0.012,0.101-0.015,0.096
	c0.018,0.223-0.149,0.073-0.021,0.809c-0.084,0.142-0.092,0.209-0.055,0.387c-0.297,0.757-0.278,1.761-0.346,2.416
	c-0.054-0.048-0.102,0.011-0.102-0.109c0,0.121-0.046,0.062-0.102,0.109c0.015,0.161-0.089,0.161-0.072,0
	c-0.054-0.048-0.101,0.011-0.102-0.109c0.001,0.12-0.047,0.062-0.101,0.109c0.011,0.16-0.09,0.162-0.073,0
	c-0.053-0.049-0.103,0.012-0.102-0.109c0,0.12-0.049,0.062-0.1,0.109c0.008,0.159-0.089,0.162-0.074,0
	c-0.053-0.049-0.103,0.013-0.102-0.109c0,0.121-0.048,0.061-0.102,0.109c0.012,0.161-0.082,0.16-0.074,0
	c-0.051-0.049-0.1,0.012-0.1-0.109c0.002,0.121-0.047,0.062-0.101,0.109c0.015,0.161-0.087,0.16-0.074,0
	c-0.053-0.049-0.102,0.012-0.1-0.109c0,0.121-0.048,0.061-0.103,0.109c0.016,0.162-0.086,0.16-0.073,0
	c-0.052-0.048-0.102,0.012-0.1-0.109c-0.001,0.119-0.048,0.062-0.102,0.109c0.013,0.161-0.086,0.161-0.074,0
	c-0.05-0.048-0.1,0.01-0.1-0.109c0.002,0.122-0.048,0.061-0.101,0.109c0.016,0.162-0.087,0.16-0.075,0
	c-0.051-0.048-0.102,0.012-0.099-0.109c0,0.121-0.05,0.061-0.103,0.109c0.015,0.161-0.086,0.161-0.072,0
	c-0.055-0.048-0.103,0.012-0.103-0.109c0,0.12-0.048,0.062-0.1,0.109c0.009,0.16-0.087,0.161-0.074,0
	c-0.053-0.049-0.102,0.012-0.1-0.109c0,0.121-0.049,0.061-0.102,0.109c0.011,0.161-0.083,0.16-0.074,0
	c-0.051-0.049-0.101,0.011-0.1-0.109c0,0.12-0.047,0.061-0.101,0.109c-0.046-0.666-0.051-1.661-0.345-2.416
	c0.036-0.18,0.028-0.245-0.056-0.387c-0.028-0.214-0.023-0.789-0.021-0.809c0,0,0.039-0.16-0.015-0.096
	c0.013-0.031,0.008-0.062-0.014-0.092c-0.02,0.029-0.024,0.061-0.012,0.092c-0.034-0.058-0.022,0.083-0.015,0.096
	c0.018,0.222-0.148,0.076-0.021,0.809c-0.084,0.144-0.092,0.209-0.055,0.387c0,0.381-0.136,0.721-0.419,1.041
	c0.018,0.146,0.042,1.716,0.074,1.375c-0.054-0.048-0.103,0.012-0.102-0.109c0.002,0.121-0.047,0.061-0.1,0.109
	c0.009,0.161-0.084,0.16-0.074,0c-0.053-0.048-0.102,0.012-0.1-0.109c-0.001,0.12-0.048,0.062-0.103,0.109
	c0.017,0.161-0.088,0.161-0.072,0c-0.056-0.048-0.102,0.012-0.102-0.109c0,0.119-0.048,0.062-0.101,0.109
	c0.013,0.161-0.084,0.16-0.075,0c-0.051-0.049-0.101,0.011-0.1-0.109c0.001,0.121-0.048,0.061-0.101,0.109
	c0.013,0.161-0.086,0.16-0.074,0c-0.052-0.049-0.101,0.011-0.102-0.109c0.001,0.12-0.047,0.062-0.099,0.109
	c0.014,0.16-0.089,0.162-0.073,0c-0.054-0.049-0.103,0.013-0.101-0.109c0,0.119-0.049,0.062-0.101,0.109
	c0.01,0.159-0.089,0.163-0.073,0c-0.054-0.049-0.104,0.013-0.102-0.109c0,0.12-0.05,0.062-0.101,0.109
	c0.013,0.16-0.089,0.162-0.074,0c-0.053-0.048-0.101,0.011-0.102-0.109c0.001,0.12-0.048,0.062-0.1,0.109
	c0.01,0.159-0.089,0.162-0.075,0c-0.052-0.048-0.101,0.011-0.101-0.109c0.001,0.12-0.047,0.062-0.099,0.109
	c0.011,0.16-0.087,0.162-0.074,0c-0.055-0.049-0.102,0.012-0.101-0.109c0.001,0.121-0.048,0.061-0.101,0.109
	c0.013,0.162-0.085,0.159-0.072,0c-0.054-0.048-0.103,0.012-0.102-0.109c0,0.121-0.048,0.061-0.101,0.109
	c0.011,0.149-0.089,0.181-0.073,0c-0.157-0.133-1.603-32.9,0.374-33.769c-0.415-1.713-0.032-1.93-0.645-1.624
	c-0.082-0.655-0.943-6.774-1.073-6.774c-0.134,0-0.993,6.105-1.075,6.774c-0.6-0.293-0.258-0.094-0.646,1.624
	c1.061,0.459,0.004,3.534,0.362,3.673c-0.132,0.094-0.168,0.008-0.035-0.06c0.017-0.079-0.065-0.093,0.05-0.16
	c-0.115,0.068-0.085-0.01-0.163-0.035c-0.126,0.084-0.179,0.006-0.035-0.062c0.016-0.079-0.068-0.094,0.051-0.159
	c-0.115,0.062-0.088-0.009-0.164-0.038c0.035,0.07,0.021,0.115-0.042,0.135c-0.132-0.562,0.091-0.809,0.118-1.14
	c-0.079-0.064-0.14,0.014-0.142-0.15c0.002,0.167-0.062,0.086-0.141,0.15c0.054,0.652,0.133-0.075,0.055-0.232
	c0,0-0.075,0.065-0.1,0.105c0-0.115-0.006-0.204-0.022-0.306c-0.019,0.102-0.026,0.19-0.024,0.306c-0.025-0.04-0.099-0.11-0.1-0.105
	c-0.132,0.211,0.01,0.757,0.054,0.232c-0.035-0.025-0.081-0.02-0.116-0.002c0.025-0.055,0.017-0.105-0.024-0.148
	c0.001,0.171-0.058,0.086-0.142,0.15c0.05,0.601,0.131-0.164,0.054-0.232c-0.001-0.004-0.073,0.065-0.1,0.105
	c0-0.117-0.006-0.204-0.021-0.306c-0.018,0.103-0.025,0.19-0.024,0.306c-0.025-0.04-0.098-0.11-0.1-0.105
	c-0.076,0.086,0.011,0.881,0.053,0.232c-0.085-0.062-0.142,0.019-0.141-0.15c0,0.169-0.058,0.086-0.14,0.15
	c0.018,0.378,0.077,0.267,0.053-0.232c-0.001-0.004-0.074,0.065-0.1,0.105c0-0.115-0.006-0.204-0.022-0.306
	c-0.017,0.102-0.024,0.19-0.023,0.306c-0.025-0.04-0.097-0.11-0.1-0.105c-0.248,0.396,0.13,0.418,0.045,0.447
	c0.014-0.047-0.036-0.063,0.043-0.096c-0.077,0.033-0.055-0.009-0.102-0.033c-0.079,0.042,0.005-0.086,0.022-0.137
	c-0.023-0.01-0.044-0.007-0.062,0.009c0.016-0.079-0.245-0.023-0.057-0.083c0.014-0.049-0.038-0.064,0.042-0.097
	c-0.076,0.033-0.056-0.011-0.101-0.033c-0.097,0.067-0.1-0.011-0.018-0.041c0.014-0.05-0.038-0.062,0.04-0.097
	c-0.074,0.032-0.053-0.01-0.099-0.033c-0.125,0.065,0.082,0.066-0.037,0.081c-0.003-0.016-0.011-0.06-0.016-0.088l-0.003,0.047
	c-0.136-0.238-0.006-0.064,0.037-0.081c0.014-0.048-0.036-0.062,0.041-0.096c-0.076,0.035-0.054-0.008-0.1-0.034
	c-0.089,0.051-0.11-0.005-0.019-0.041c0.015-0.048-0.034-0.062,0.041-0.097c-0.078,0.037-0.053-0.012-0.101-0.033
	c-0.087,0.052-0.107-0.007-0.017-0.041c0.014-0.05-0.036-0.062,0.042-0.097c-0.077,0.036-0.055-0.01-0.101-0.032
	c-0.088,0.048-0.112-0.007-0.018-0.041c0.015-0.048-0.035-0.062,0.041-0.096c-0.076,0.036-0.054-0.013-0.1-0.032
	c-0.085,0.044-0.111-0.006-0.018-0.042c0.014-0.05-0.037-0.063,0.041-0.097c-0.076,0.035-0.055-0.012-0.1-0.031
	c-0.132,0.066-0.058-0.059,0.023-0.139c-0.086,0.044-0.051-0.012-0.101-0.032c-0.086,0.04-0.116-0.01-0.018-0.04
	c0.013-0.051-0.038-0.064,0.041-0.098c-0.076,0.036-0.055-0.014-0.101-0.032c-0.087,0.047-0.114-0.006-0.019-0.042
	c0.016-0.045-0.036-0.062,0.042-0.096c-0.077,0.036-0.055-0.01-0.102-0.032c-0.087,0.047-0.091-0.017-0.019-0.04
	c0.016-0.049-0.037-0.062,0.042-0.098c-0.045,0.01-0.121,0-0.113-0.019c-0.027-0.063-0.017-0.112,0.036-0.15
	c-0.065-0.396-2.261-17.635-1.683-17.635c-0.31,0-0.079,1.936-0.087,2.113c-1.284,0.011-2.562-0.077-3.834-0.262
	c0.062,4.251,4.004-0.632,3.688,3.419c-0.219,2.795-0.491,5.526-0.857,8.304c-0.103,0.78-0.434,3.103-0.592,4.061
	c0.052,0.037,0.062,0.085,0.038,0.15c0.002,0.002-0.067,0.029-0.116,0.019c0.077,0.036,0.026,0.049,0.042,0.098
	c0.073,0.023,0.069,0.088-0.02,0.04c-0.045,0.023-0.024,0.068-0.1,0.032c0.076,0.034,0.027,0.05,0.042,0.096
	c0.092,0.036,0.07,0.089-0.02,0.042c-0.045,0.019-0.023,0.068-0.1,0.032c0.079,0.033,0.029,0.047,0.042,0.098
	c0.092,0.029,0.072,0.087-0.019,0.04c-0.049,0.021-0.015,0.076-0.1,0.032c0.079,0.078,0.154,0.208,0.023,0.139
	c-0.046,0.018-0.025,0.066-0.101,0.031c0.077,0.034,0.026,0.047,0.042,0.097c0.092,0.035,0.069,0.09-0.018,0.042
	c-0.046,0.018-0.024,0.067-0.101,0.032c0.078,0.033,0.027,0.046,0.041,0.096c0.093,0.035,0.069,0.087-0.018,0.041
	c-0.047,0.021-0.025,0.068-0.101,0.032c0.076,0.035,0.026,0.048,0.042,0.097c0.09,0.034,0.07,0.09-0.02,0.041
	c-0.045,0.021-0.021,0.07-0.099,0.033c0.076,0.035,0.025,0.05,0.042,0.097c0.09,0.035,0.071,0.093-0.019,0.041
	c-0.047,0.023-0.023,0.069-0.101,0.034c0.078,0.034,0.026,0.047,0.041,0.096c0.047,0.018,0.19-0.174,0.03,0.098l-0.007-0.064
	c-0.025,0.179-0.015,0.02-0.04,0.007c-0.047,0.021-0.025,0.065-0.101,0.033c0.078,0.035,0.024,0.048,0.041,0.097
	c0.08,0.03,0.085,0.101-0.019,0.041c-0.045,0.022-0.025,0.065-0.1,0.033c0.076,0.033,0.027,0.049,0.042,0.097
	c0.178,0.058-0.075,0.034-0.067,0.076c-0.015-0.011-0.032-0.011-0.051-0.002c0.13,0.071,0.001,0.02-0.054,0.051
	c0.009,0.11,0.232,0.171,0.078,0.086c-0.047,0.022-0.025,0.065-0.102,0.033c0.077,0.033,0.027,0.049,0.042,0.096
	c0.091,0.032-0.106-0.274-0.064-0.341c0-0.115-0.007-0.204-0.023-0.306c-0.017,0.102-0.023,0.191-0.023,0.306
	c-0.025-0.04-0.099-0.11-0.101-0.105c-0.123,0.197,0.023,0.788,0.054,0.232c-0.085-0.061-0.141,0.017-0.14-0.15
	c0,0.168-0.057,0.088-0.142,0.15c0.026,0.456,0.183,0.111,0.054-0.232c0,0-0.074,0.065-0.101,0.105c0-0.118-0.006-0.204-0.023-0.306
	c-0.016,0.102-0.022,0.189-0.022,0.306c-0.026-0.04-0.098-0.11-0.101-0.105c-0.001,0.461,0.026,0.667,0.054,0.232
	c-0.163-0.136-0.12-0.123-0.282,0c0.058,0.566,0.165-0.084,0.054-0.232c0,0-0.073,0.065-0.099,0.105
	c0.001-0.115-0.006-0.204-0.023-0.306c-0.016,0.102-0.023,0.19-0.023,0.306c-0.025-0.04-0.097-0.11-0.099-0.105
	c-0.05,0.067-0.004,0.943,0.054,0.232c-0.079-0.064-0.141,0.015-0.141-0.15c0,0.165-0.064,0.086-0.141,0.15
	c0.021,0.324,0.248,0.587,0.118,1.14c-0.063-0.02-0.078-0.064-0.042-0.135c-0.077,0.029-0.049,0.101-0.164,0.038
	c0.117,0.064,0.037,0.079,0.05,0.159c0.144,0.069,0.091,0.144-0.036,0.062c-0.076,0.025-0.047,0.103-0.163,0.035
	c0.117,0.067,0.037,0.08,0.05,0.16c0.137,0.067,0.099,0.155-0.033,0.06c-0.036,0.013-0.047,0.053-0.048,0.069
	c-0.279-0.838-0.465-3.359,0.421-3.743c-0.459-1.727-0.027-1.921-0.647-1.624c-0.082-0.664-0.941-6.774-1.074-6.774
	c-0.131,0-0.992,6.109-1.074,6.774c-0.615-0.295-0.2-0.103-0.646,1.624c1.972,0.852,0.562,33.584,0.356,33.769
	c0.016,0.161-0.086,0.161-0.072,0c-0.055-0.049-0.102,0.012-0.101-0.109c0.001,0.122-0.048,0.061-0.103,0.109
	c0.016,0.161-0.085,0.161-0.073,0c-0.052-0.048-0.1,0.011-0.1-0.109c0,0.121-0.048,0.062-0.101,0.109
	c0.011,0.161-0.087,0.16-0.074,0c-0.051-0.049-0.1,0.011-0.101-0.109c0.002,0.121-0.047,0.062-0.1,0.109
	c0.016,0.161-0.089,0.161-0.073,0c-0.052-0.048-0.102,0.011-0.101-0.109c0.001,0.121-0.046,0.061-0.101,0.109
	c0.016,0.162-0.087,0.16-0.073,0c-0.052-0.048-0.1,0.01-0.1-0.109c0.001,0.122-0.048,0.061-0.102,0.109
	c0.011,0.16-0.088,0.162-0.073,0c-0.053-0.049-0.102,0.012-0.103-0.109c0.002,0.121-0.049,0.062-0.099,0.109
	c0.013,0.16-0.09,0.162-0.075,0c-0.053-0.049-0.102,0.012-0.102-0.109c0.001,0.121-0.048,0.061-0.101,0.109
	c0.016,0.161-0.085,0.161-0.074,0c-0.051-0.049-0.101,0.012-0.1-0.109c0.001,0.121-0.046,0.061-0.101,0.109
	c0.012,0.162-0.086,0.16-0.073,0c-0.052-0.049-0.101,0.011-0.101-0.109c0.002,0.121-0.049,0.061-0.1,0.109
	c0.01,0.159-0.09,0.162-0.075,0c-0.052-0.049-0.101,0.011-0.101-0.109c0,0.12-0.049,0.061-0.1,0.109
	c0.011,0.14-0.13,0.143-0.14,0.122c-0.006,0.033,0.01,0.058,0.049,0.071c-0.184,7.908-0.049,25.071-0.049,25.071 M69.803,58.28
	C69.768,58.374,69.813,58.249,69.803,58.28L69.803,58.28z M69.833,58.324C69.828,58.309,69.789,58.202,69.833,58.324L69.833,58.324z
	 M65.671,58.28C65.639,58.38,65.684,58.241,65.671,58.28L65.671,58.28z M65.705,58.324C65.698,58.309,65.658,58.203,65.705,58.324
	L65.705,58.324z M61.543,58.28C61.51,58.376,61.555,58.246,61.543,58.28L61.543,58.28z M61.575,58.324
	C61.57,58.309,61.531,58.202,61.575,58.324L61.575,58.324z M57.413,58.28C57.378,58.375,57.426,58.248,57.413,58.28L57.413,58.28z
	 M57.445,58.324C57.439,58.308,57.4,58.202,57.445,58.324L57.445,58.324z M53.282,58.28C53.248,58.376,53.295,58.246,53.282,58.28
	L53.282,58.28z M53.315,58.324C53.31,58.308,53.271,58.202,53.315,58.324L53.315,58.324z M49.153,58.28
	C49.121,58.378,49.165,58.243,49.153,58.28L49.153,58.28z M49.186,58.324C49.18,58.309,49.141,58.202,49.186,58.324L49.186,58.324z
	 M29.225,61.905c0.026-0.013,0.053-0.013,0.079,0H29.225C29.239,61.905,29.225,61.905,29.225,61.905z M29.318,61.905
	c0.056-0.104,0.112-0.104,0.167,0H29.318C29.36,61.9,29.318,61.905,29.318,61.905z M29.499,61.905c0.027-0.013,0.053-0.013,0.079,0
	H29.499C29.514,61.905,29.499,61.905,29.499,61.905z M29.594,61.905c0.055-0.104,0.111-0.104,0.167,0H29.594
	C29.635,61.9,29.594,61.905,29.594,61.905z M29.775,61.905c0.026-0.013,0.054-0.013,0.08,0H29.775
	C29.791,61.905,29.775,61.905,29.775,61.905z M29.868,61.905c0.057-0.104,0.113-0.104,0.168,0H29.868
	C29.911,61.9,29.868,61.905,29.868,61.905z M30.049,61.905c0.027-0.013,0.054-0.013,0.08,0H30.049
	C30.064,61.905,30.049,61.905,30.049,61.905z M30.144,61.905c0.055-0.104,0.111-0.104,0.167,0H30.144
	C30.187,61.9,30.144,61.905,30.144,61.905z M30.326,61.905c0.026-0.013,0.053-0.013,0.079,0H30.326
	C30.34,61.905,30.326,61.905,30.326,61.905z M30.42,61.905c0.055-0.104,0.11-0.104,0.167,0H30.42
	C30.462,61.9,30.42,61.905,30.42,61.905z M30.601,61.905c0.026-0.013,0.053-0.013,0.079,0H30.601
	C30.616,61.905,30.601,61.905,30.601,61.905z M30.694,61.905c0.057-0.104,0.112-0.104,0.167,0H30.694
	C30.737,61.9,30.694,61.905,30.694,61.905z M30.876,61.905c0.026-0.013,0.053-0.013,0.079,0H30.876
	C30.89,61.905,30.876,61.905,30.876,61.905z M30.97,61.905c0.056-0.104,0.112-0.104,0.168,0H30.97
	C31.013,61.9,30.97,61.905,30.97,61.905z M31.15,61.905c0.027-0.013,0.054-0.013,0.08,0H31.15
	C31.166,61.905,31.15,61.905,31.15,61.905z M31.245,61.905c0.055-0.104,0.111-0.104,0.167,0H31.245
	C31.288,61.9,31.245,61.905,31.245,61.905z M31.427,61.905c0.026-0.013,0.053-0.013,0.079,0H31.427
	C31.441,61.905,31.427,61.905,31.427,61.905z M31.521,61.905c0.055-0.104,0.111-0.104,0.167,0H31.521
	C31.562,61.9,31.521,61.905,31.521,61.905z M31.703,61.905c0.026-0.013,0.052-0.013,0.078,0H31.703
	C31.717,61.905,31.703,61.905,31.703,61.905z M31.796,61.905c0.056-0.104,0.111-0.104,0.166,0H31.796
	C31.837,61.9,31.796,61.905,31.796,61.905z M31.977,61.905c0.026-0.013,0.054-0.013,0.08,0H31.977
	C31.992,61.905,31.977,61.905,31.977,61.905z M32.138,61.905h-0.067c0.031-0.003,0.053-0.022,0.067-0.046V61.905L32.138,61.905z
	 M32.503,26.862c-0.24-0.049-0.189-0.16,0-0.278V26.862L32.503,26.862z M32.581,28.074c0.074,0.097,0.074,0.194,0,0.292V28.074
	L32.581,28.074z M32.776,30.895c0.011,0.226-0.53-2.488-0.087-2.488C32.895,28.407,32.769,30.756,32.776,30.895L32.776,30.895z
	 M32.776,28.318c-0.05-0.065-0.05-0.132,0-0.197V28.318L32.776,28.318z M32.776,27.923c-0.02,0.021-0.04,0.023-0.061,0.005
	c0.078,0.194-0.132,0.192-0.055,0c-0.102,0.082-0.088-0.192,0.005-0.099c-0.113-0.193,0.155-0.209,0.045,0
	C32.78,27.76,32.783,27.895,32.776,27.923C32.767,27.933,32.776,27.923,32.776,27.923z M32.976,26.491
	C32.881,25.002,32.881,25.006,32.976,26.491L32.976,26.491z M33.628,20.483c-0.008,0.002-0.017,0.002-0.026,0.006
	c0.009-0.012,0.015-0.025,0.021-0.039C33.627,20.461,33.629,20.472,33.628,20.483C33.62,20.486,33.628,20.483,33.628,20.483z
	 M33.736,20.336c0,0.044-0.017,0.078-0.042,0.105c-0.022-0.091-0.086-0.284-0.148-0.334C33.67,20.153,33.736,20.313,33.736,20.336
	C33.736,20.381,33.736,20.313,33.736,20.336z M33.528,20.188c0.027,0.032,0.043,0.072,0.046,0.116
	c-0.057-0.014-0.077-0.056-0.061-0.129C33.518,20.18,33.523,20.184,33.528,20.188C33.555,20.22,33.523,20.184,33.528,20.188z
	 M33.531,20.358C33.56,20.374,33.461,20.688,33.531,20.358C33.544,20.366,33.52,20.409,33.531,20.358z M33.369,25.337
	C33.369,25.449,33.369,27.96,33.369,25.337C33.369,25.284,33.369,25.362,33.369,25.337z M33.373,20.341
	c0.082-0.011,0.137-0.021,0.044,0.101C33.397,20.413,33.381,20.379,33.373,20.341C33.388,20.339,33.381,20.379,33.373,20.341z
	 M33.417,20.149v-0.003c0,0.045,0.016,0.086,0.049,0.125c-0.032-0.005-0.065-0.005-0.098,0C33.374,20.211,33.4,20.168,33.417,20.149
	C33.417,20.149,33.4,20.168,33.417,20.149z M33.207,20.483c0-0.011,0.001-0.022,0.004-0.033c0.005,0.014,0.012,0.027,0.021,0.041
	C33.223,20.489,33.215,20.486,33.207,20.483C33.207,20.483,33.215,20.486,33.207,20.483z M33.188,20.332
	c0.005,0.041-0.011,0.077-0.047,0.107c-0.089-0.132-0.04-0.242,0.147-0.331C33.223,20.163,33.189,20.238,33.188,20.332
	C33.188,20.332,33.188,20.26,33.188,20.332z M33.306,20.188c0.004-0.004,0.009-0.008,0.014-0.013
	c0.017,0.074-0.003,0.118-0.062,0.129C33.263,20.26,33.28,20.22,33.306,20.188C33.311,20.184,33.28,20.22,33.306,20.188z
	 M33.262,20.381C33.363,20.492,33.307,20.575,33.262,20.381C33.262,20.381,33.273,20.431,33.262,20.381z M33.29,28.074
	c0.087,0.097,0.087,0.194,0,0.292V28.074L33.29,28.074z M33.544,30.895c0.019,0.284-0.606-2.488-0.127-2.488
	C33.69,28.407,33.534,30.735,33.544,30.895L33.544,30.895z M33.544,28.365c-0.088-0.097-0.088-0.194,0-0.292V28.365L33.544,28.365z
	 M33.484,27.94c-0.011,0-0.023-0.006-0.033-0.012c0.091,0.2-0.164,0.188-0.067,0c-0.122,0.079-0.102-0.19,0.006-0.099
	c-0.13-0.204,0.187-0.198,0.055,0C33.525,27.764,33.6,27.94,33.484,27.94C33.473,27.94,33.518,27.94,33.484,27.94z M34.006,26.491
	C33.944,25.769,33.82,24.292,34.006,26.491L34.006,26.491z M34.058,27.829c0.022-0.021,0.044-0.021,0.066,0
	c-0.115-0.197,0.159-0.205,0.045,0c0.085-0.09,0.116,0.175,0.005,0.099c0.078,0.194-0.132,0.192-0.056,0
	C34.05,27.984,34.05,27.861,34.058,27.829C34.067,27.821,34.058,27.829,34.058,27.829z M34.254,28.074v0.292
	C34.18,28.268,34.18,28.171,34.254,28.074L34.254,28.074z M34.058,28.121c0.05,0.065,0.05,0.132,0,0.197V28.121L34.058,28.121z
	 M34.271,30.895c0.013,0.24-0.507-2.488-0.124-2.488C34.422,28.407,34.262,30.741,34.271,30.895L34.271,30.895z M34.472,26.862
	c-0.187,0.047-0.233-0.046-0.141-0.278C34.486,26.61,34.533,26.703,34.472,26.862L34.472,26.862z M34.739,31.868
	C34.761,31.725,34.759,31.737,34.739,31.868L34.739,31.868z M35.148,30.498C35.148,30.38,35.552,31.132,35.148,30.498
	C35.148,30.454,35.148,30.498,35.148,30.498z M35.148,30.819h0.088c0,0.049-0.04,0.087-0.088,0.087V30.819L35.148,30.819z
	 M35.148,31.192v-0.087c0.048,0,0.088,0.04,0.088,0.087H35.148L35.148,31.192z M35.252,31.076
	C35.306,31.076,35.065,30.851,35.252,31.076C35.246,31.076,35.235,31.056,35.252,31.076z M35.336,31.177
	C35.062,31.177,35.606,31.177,35.336,31.177C35.295,31.177,35.375,31.177,35.336,31.177z M35.406,30.921
	C35.305,30.839,35.196,30.864,35.406,30.921C35.387,30.906,35.406,30.921,35.406,30.921z M35.419,30.935
	C35.341,30.978,35.596,31.151,35.419,30.935C35.424,30.933,35.435,30.954,35.419,30.935z M35.521,31.192h-0.086
	c0-0.047,0.04-0.087,0.086-0.087V31.192L35.521,31.192z M35.521,30.906c-0.046,0-0.086-0.038-0.086-0.087
	C35.521,30.79,35.55,30.819,35.521,30.906C35.474,30.906,35.521,30.906,35.521,30.906z M35.521,30.788
	C35.471,30.654,35.281,30.145,35.521,30.788L35.521,30.788z M35.569,30.498C35.569,30.379,35.971,31.135,35.569,30.498
	C35.569,30.454,35.569,30.498,35.569,30.498z M35.569,30.819h0.087c0,0.049-0.041,0.087-0.087,0.087V30.819L35.569,30.819z
	 M35.569,31.192v-0.087c0.047,0,0.087,0.04,0.087,0.087H35.569L35.569,31.192z M35.67,31.076
	C35.716,31.076,35.498,30.84,35.67,31.076C35.666,31.076,35.656,31.056,35.67,31.076z M35.755,31.177
	C35.481,31.177,36.034,31.177,35.755,31.177C35.715,31.177,35.795,31.177,35.755,31.177z M35.828,30.921
	C35.723,30.838,35.616,30.863,35.828,30.921C35.808,30.906,35.828,30.921,35.828,30.921z M35.84,30.935
	C35.772,30.973,36.021,31.163,35.84,30.935C35.845,30.933,35.855,30.954,35.84,30.935z M35.942,31.177
	c-0.036,0.019-0.148,0.048-0.06-0.049c-0.006,0.009-0.011,0.022-0.007,0.037C35.916,31.18,35.954,31.057,35.942,31.177
	L35.942,31.177z M35.942,30.894c-0.028-0.006-0.038-0.004-0.029,0.008c-0.034-0.013-0.058-0.043-0.058-0.083
	C35.938,30.79,35.967,30.815,35.942,30.894C35.928,30.894,35.942,30.894,35.942,30.894z M35.942,30.788
	C35.892,30.654,35.701,30.146,35.942,30.788L35.942,30.788z M36.007,31.031C36,30.995,36.047,30.881,36.007,31.031
	C36.005,31.023,36.007,31.031,36.007,31.031z M36.046,30.947l-0.005-0.002c0.003-0.003,0.005-0.005,0.009-0.007L36.046,30.947
	L36.046,30.947z M36.028,30.897c0.003-0.011-0.002-0.024-0.017-0.032c-0.013,0.005-0.02,0.018-0.022,0.03
	c-0.015-0.081,0.024-0.09,0.087-0.076C36.077,30.854,36.057,30.881,36.028,30.897C36.031,30.886,36.057,30.881,36.028,30.897z
	 M36.081,30.788c-0.001-0.008,0.002-0.008,0.012,0H36.081L36.081,30.788z M36.152,30.537c-0.026,0.034-0.03,0.044-0.087,0.02
	c0.078,0.035,0.028,0.05,0.042,0.099c0.023,0.006,0.038-0.009,0.045-0.025c-0.018,0.208-0.012,0.092-0.063,0.065
	c-0.046,0.018-0.024,0.067-0.099,0.032c0.011,0.029,0.032,0.043,0.062,0.044C35.991,30.65,35.898,30.429,36.152,30.537
	C36.14,30.553,36.152,30.537,36.152,30.537z M36.201,30.606C36.225,30.485,36.26,30.305,36.201,30.606L36.201,30.606z
	 M36.282,30.436c-0.011,0-0.021-0.004-0.029-0.014C36.276,30.416,36.293,30.41,36.282,30.436L36.282,30.436z M36.363,31.192
	C36.344,31.161,36.278,31.05,36.363,31.192L36.363,31.192z M36.479,29.911c0,0,0.005-0.006,0.008-0.018
	c0.006,0.01,0.011,0.018,0.018,0.029L36.479,29.911L36.479,29.911z M36.571,30.572C36.517,30.813,36.491,30.929,36.571,30.572
	L36.571,30.572z M36.46,30.819h0.035c0,0.044-0.032,0.081-0.075,0.087L36.46,30.819L36.46,30.819z M36.408,31.192v-0.087
	c0.049,0,0.087,0.04,0.087,0.087H36.408L36.408,31.192z M36.511,31.076C36.559,31.076,36.331,30.845,36.511,31.076
	C36.505,31.076,36.495,31.056,36.511,31.076z M36.594,31.177C36.324,31.177,36.873,31.177,36.594,31.177
	C36.555,31.177,36.634,31.177,36.594,31.177z M36.666,30.921C36.561,30.838,36.458,30.863,36.666,30.921
	C36.646,30.906,36.666,30.921,36.666,30.921z M36.679,30.935C36.599,30.972,36.861,31.151,36.679,30.935
	C36.685,30.933,36.695,30.954,36.679,30.935z M36.782,31.192h-0.089c0-0.047,0.04-0.087,0.089-0.087V31.192L36.782,31.192z
	 M36.782,30.906c-0.049,0-0.089-0.038-0.089-0.087C36.782,30.789,36.811,30.818,36.782,30.906
	C36.733,30.906,36.782,30.906,36.782,30.906z M36.782,30.788C36.731,30.653,36.541,30.146,36.782,30.788L36.782,30.788z
	 M36.782,30.373C36.795,30.425,36.659,29.875,36.782,30.373L36.782,30.373z M38.266,20.883c-0.137,1.978-0.307,4.007-0.498,5.933
	c0.048,0.055,0.041,0.127-0.002,0.188c-0.021-0.021-0.047-0.027-0.076-0.019c0.063,0.068,0.147,0.21,0.024,0.135
	c-0.048,0.023-0.022,0.071-0.101,0.034c0.079,0.034,0.026,0.046,0.041,0.097c0.095,0.036,0.065,0.082-0.019,0.041
	c-0.045,0.021-0.022,0.068-0.099,0.033c0.075,0.034,0.027,0.047,0.041,0.095c0.09,0.036,0.067,0.088-0.019,0.042
	c-0.046,0.022-0.026,0.065-0.1,0.032c0.076,0.035,0.026,0.048,0.042,0.097c0.085,0.034,0.071,0.092-0.019,0.04
	c-0.048,0.023-0.023,0.071-0.102,0.034c0.079,0.034,0.027,0.048,0.043,0.097c0.097,0.032,0.065,0.084-0.02,0.04
	C37.898,27.564,38.118,21.907,38.266,20.883L38.266,20.883z M37.887,26.743c0.097,0.033,0.07,0.088-0.019,0.038
	c-0.013,0.007-0.019,0.018-0.022,0.031l0.012-0.147C37.903,26.743,37.86,26.643,37.887,26.743
	C37.927,26.756,37.878,26.712,37.887,26.743z M37.895,26.886l-0.066,0.147C37.811,26.941,37.824,26.872,37.895,26.886L37.895,26.886
	z M37.331,27.975c0.053-0.223,0.008-0.064,0.014-0.042C37.438,27.962,37.415,28.042,37.331,27.975
	C37.331,27.975,37.36,27.998,37.331,27.975z M37.32,28.061c0.062,0.017,0.057,0.058-0.016,0.123L37.32,28.061L37.32,28.061z
	 M37.258,28.202C37.252,28.215,37.253,28.208,37.258,28.202C37.258,28.202,37.254,28.206,37.258,28.202z M37.327,28.912h0.259
	l-0.477,0.478L37.327,28.912L37.327,28.912z M36.903,29.844c0.155-0.178,0.115,0.003,0.089,0.128
	C36.9,29.94,36.871,29.897,36.903,29.844L36.903,29.844z M36.828,30.159c0.049,0.013,0.088-0.007,0.119-0.06
	c-0.097-0.065-0.183-0.038-0.054-0.23C37.028,30.16,37.058,30.623,36.828,30.159L36.828,30.159z M36.828,30.498
	C36.828,30.38,37.231,31.134,36.828,30.498C36.828,30.454,36.828,30.498,36.828,30.498z M36.828,30.819h0.087
	c0,0.049-0.039,0.087-0.087,0.087V30.819L36.828,30.819z M36.828,31.192v-0.087c0.049,0,0.087,0.04,0.087,0.087H36.828
	L36.828,31.192z M36.931,31.076C36.983,31.076,36.747,30.848,36.931,31.076C36.926,31.076,36.915,31.056,36.931,31.076z
	 M37.016,31.177C36.736,31.177,37.288,31.177,37.016,31.177C36.975,31.177,37.054,31.177,37.016,31.177z M37.086,30.921
	C36.983,30.838,36.875,30.864,37.086,30.921C37.067,30.906,37.086,30.921,37.086,30.921z M37.1,30.935
	C37.024,30.977,37.273,31.155,37.1,30.935C37.104,30.933,37.114,30.954,37.1,30.935z M37.201,31.192h-0.087
	c0-0.047,0.041-0.087,0.087-0.087V31.192L37.201,31.192z M37.201,30.906c-0.047,0-0.087-0.038-0.087-0.087
	C37.201,30.79,37.229,30.819,37.201,30.906C37.154,30.906,37.201,30.906,37.201,30.906z M37.201,30.788
	C37.151,30.654,36.961,30.145,37.201,30.788L37.201,30.788z M37.248,31.192v-0.087c0.049,0,0.087,0.04,0.087,0.087H37.248
	L37.248,31.192z M37.335,30.819c0,0.049-0.039,0.087-0.087,0.087C37.219,30.819,37.248,30.79,37.335,30.819
	C37.335,30.868,37.335,30.819,37.335,30.819z M37.248,30.788C37.49,30.146,37.299,30.653,37.248,30.788L37.248,30.788z
	 M37.35,31.076C37.394,31.076,37.177,30.84,37.35,31.076C37.345,31.076,37.334,31.056,37.35,31.076z M37.434,31.177
	C37.16,31.177,37.709,31.177,37.434,31.177C37.395,31.177,37.475,31.177,37.434,31.177z M37.505,30.921
	C37.4,30.838,37.298,30.865,37.505,30.921C37.486,30.906,37.505,30.921,37.505,30.921z M37.52,30.935
	C37.444,30.97,37.695,31.157,37.52,30.935C37.525,30.933,37.535,30.954,37.52,30.935z M37.622,31.192h-0.088
	c0-0.047,0.04-0.087,0.088-0.087V31.192L37.622,31.192z M37.622,30.906c-0.048,0-0.088-0.038-0.088-0.087
	C37.621,30.789,37.651,30.818,37.622,30.906C37.573,30.906,37.622,30.906,37.622,30.906z M37.622,30.788
	C37.571,30.653,37.38,30.146,37.622,30.788L37.622,30.788z M37.668,31.192v-0.087c0.046,0,0.087,0.04,0.087,0.087H37.668
	L37.668,31.192z M37.755,30.819c0,0.049-0.041,0.087-0.087,0.087C37.639,30.819,37.668,30.79,37.755,30.819
	C37.755,30.868,37.755,30.819,37.755,30.819z M37.668,30.788C37.909,30.146,37.718,30.654,37.668,30.788L37.668,30.788z
	 M37.771,31.076C37.816,31.076,37.594,30.842,37.771,31.076C37.766,31.076,37.755,31.056,37.771,31.076z M37.854,31.177
	C37.58,31.177,38.133,31.177,37.854,31.177C37.813,31.177,37.895,31.177,37.854,31.177z M37.926,30.921
	C37.7,30.742,37.897,30.997,37.926,30.921C37.906,30.906,37.927,30.917,37.926,30.921z M37.984,31.192
	c-0.049,0.009-0.049-0.013,0-0.067V31.192L37.984,31.192z M37.984,31.072C37.964,31.076,37.899,30.757,37.984,31.072
	C37.975,31.074,37.984,31.072,37.984,31.072z M37.984,30.886C37.958,30.863,37.95,30.737,37.984,30.886
	C37.966,30.871,37.984,30.886,37.984,30.886z M37.984,30.788C37.984,30.785,37.835,29.927,37.984,30.788L37.984,30.788z
	 M37.984,30.082c-0.021,0-0.041,0.005-0.061,0.018c0.063,0.773,0.029-0.266,0.054-0.232c-0.002-0.004-0.074,0.065-0.099,0.105
	c-0.001-0.117-0.008-0.203-0.024-0.306c-0.016,0.102-0.022,0.19-0.022,0.306c-0.026-0.04-0.099-0.11-0.101-0.105
	c-0.174,0.464,0.055,0.517-0.062,0.23c0.021-0.241-0.081-0.059-0.167,0.002c0.042,0.46,0.181,0.105,0.055-0.232
	c-0.002-0.004-0.074,0.065-0.1,0.105c0-0.115-0.006-0.203-0.023-0.306c-0.016,0.102-0.022,0.19-0.022,0.306
	c-0.025-0.04-0.099-0.11-0.101-0.105c-0.105,0.21,0.002,0.806,0.055,0.232c-0.174-0.118-0.113-0.149-0.282,0
	c0.05,0.711,0.104-0.164,0.053-0.232c-0.003-0.004-0.073,0.065-0.1,0.105C37.222,29.314,37.656,29.53,37.984,30.082
	C37.983,30.082,37.984,30.082,37.984,30.082z M37.984,29.436h-0.675C37.778,28.775,38.052,28.66,37.984,29.436L37.984,29.436z
	 M37.984,28.853H37.89l0.094-0.094V28.853L37.984,28.853z M37.984,28.511C38.189,28.747,36.897,27.261,37.984,28.511L37.984,28.511z
	 M37.984,27.479c-0.011,0.002-0.011-0.003,0-0.017V27.479L37.984,27.479z M38.034,26.512c-0.012-0.002-0.012-0.009,0.001-0.019
	L38.034,26.512L38.034,26.512z M38.023,26.336c0.033,0.014,0.025,0.085,0.014,0.12c0.004,0.007-0.065,0.028-0.115,0.019
	C38,26.51,37.95,26.523,37.963,26.57c0.084,0.03,0.068,0.087-0.017,0.042c0.311-0.123,0.6-7.909,0.793-9.324
	c-0.229,2.983-0.45,6.123-0.74,9.017C38,26.306,38.01,26.328,38.023,26.336C38.032,26.339,38.01,26.328,38.023,26.336z
	 M38.079,26.478C38.109,26.341,38.114,26.317,38.079,26.478L38.079,26.478z M38.103,26.337c0.018-0.054,0.016-0.075-0.007-0.063
	c0.038-0.198,0.011-0.089,0.023-0.042C38.196,26.257,38.252,26.199,38.103,26.337L38.103,26.337z M38.191,27.479
	C38.457,27.314,38.853,27.067,38.191,27.479L38.191,27.479z M38.595,27.65c0.058,0.298-0.076,0.516-0.404,0.655
	C37.974,27.734,38.108,27.516,38.595,27.65L38.595,27.65z M38.191,27.141c-0.018-0.372,0.116-0.712,0.404-1.018
	C38.935,26.936,38.8,27.276,38.191,27.141L38.191,27.141z M38.191,28.912h0.286l-0.286,0.476V28.912L38.191,28.912z M38.191,30.091
	v-0.156C38.541,30.487,38.297,30.185,38.191,30.091C38.191,30.091,38.196,30.095,38.191,30.091z M38.191,29.903
	c0.068-0.228,0.067-0.081,0.06,0.069C38.239,29.952,38.213,29.924,38.191,29.903C38.191,29.903,38.213,29.924,38.191,29.903z
	 M38.191,30.422C38.231,30.433,38.297,31.362,38.191,30.422C38.227,30.432,38.191,30.422,38.191,30.422z M38.273,31.177
	C38.002,31.177,38.547,31.177,38.273,31.177C38.235,31.177,38.315,31.177,38.273,31.177z M38.345,30.921
	C38.244,30.839,38.134,30.864,38.345,30.921C38.326,30.906,38.345,30.921,38.345,30.921z M38.359,30.935
	C38.285,30.969,38.534,31.157,38.359,30.935C38.364,30.933,38.374,30.954,38.359,30.935z M38.46,31.192h-0.087
	c0-0.047,0.04-0.087,0.087-0.087V31.192L38.46,31.192z M38.46,30.906c-0.047,0-0.087-0.038-0.087-0.087
	C38.46,30.79,38.49,30.819,38.46,30.906C38.414,30.906,38.46,30.906,38.46,30.906z M38.46,30.788
	C38.411,30.654,38.22,30.146,38.46,30.788L38.46,30.788z M38.484,29.949c0,0.17-0.058,0.087-0.142,0.15
	c0.051,0.605,0.154-0.075,0.056-0.232c-0.002-0.004-0.074,0.065-0.101,0.105c0.11-0.288,0.264-0.289,0.374,0
	c-0.025-0.04-0.098-0.11-0.101-0.105c-0.053,0.419,0.017,0.689,0.055,0.232C38.542,30.036,38.483,30.117,38.484,29.949
	L38.484,29.949z M38.507,30.788C38.749,30.146,38.558,30.653,38.507,30.788L38.507,30.788z M38.595,30.819
	c0,0.049-0.04,0.087-0.088,0.087C38.478,30.818,38.508,30.789,38.595,30.819C38.595,30.868,38.595,30.819,38.595,30.819z
	 M38.507,31.192v-0.087c0.048,0,0.088,0.04,0.088,0.087H38.507L38.507,31.192z M38.609,31.076
	C38.652,31.076,38.437,30.84,38.609,31.076C38.605,31.076,38.594,31.056,38.609,31.076z M38.705,31.175
	C38.622,31.175,38.603,31.033,38.705,31.175C38.701,31.175,38.705,31.175,38.705,31.175z M38.705,30.897
	C38.543,30.897,38.69,30.892,38.705,30.897C38.701,30.897,38.705,30.897,38.705,30.897z M38.705,29.79
	C38.704,29.78,38.704,29.782,38.705,29.79L38.705,29.79z M38.705,29.725c-0.023,0.002-0.027-0.018-0.011-0.059
	c-0.098,0.139-0.322,0.138-0.421,0C38.043,29.528,38.621,29.704,38.705,29.725L38.705,29.725z M38.705,29.436h-0.446
	C38.572,28.782,38.751,28.675,38.705,29.436L38.705,29.436z M38.705,28.853h-0.097l0.097-0.161V28.853L38.705,28.853z M38.705,28.53
	C37.714,28.517,38.682,28.53,38.705,28.53L38.705,28.53z M38.821,24.269c-0.034,0.01-0.066,0.027-0.093,0.045
	c-0.244-1.31-0.023,1.02-0.163,0.937c-0.048,0.024-0.024,0.069-0.102,0.034c0.078,0.033,0.027,0.048,0.042,0.097
	c0.09,0.033,0.069,0.09-0.02,0.04c-0.046,0.022-0.024,0.066-0.101,0.034c0.076,0.033,0.029,0.045,0.042,0.097
	c0.102,0.03,0.063,0.081-0.018,0.039c-0.047,0.022-0.025,0.067-0.102,0.033c0.078,0.034,0.028,0.047,0.042,0.096
	c0.099,0.034,0.066,0.085-0.017,0.041c-0.048,0.022-0.024,0.067-0.101,0.033c0.076,0.035,0.029,0.047,0.041,0.097
	c0.093,0.035,0.067,0.085-0.016,0.042c-0.045,0.019-0.029,0.063-0.102,0.029c0.078,0.035,0.028,0.049,0.041,0.098
	c0.091,0.035,0.07,0.089-0.018,0.041c0.536-0.249,0.539-7.951,0.633-9.181C39.302,17.131,38.823,23.406,38.821,24.269
	C38.787,24.278,38.821,24.269,38.821,24.269z M38.821,16.559c-0.318,0.153-0.356,2.35-0.384,2.68l0.384-4.896V16.559
	C38.753,16.592,38.821,16.559,38.821,16.559z M40.566,28.208c-0.006,0.004-0.008,0.002-0.006-0.006
	C40.564,28.206,40.566,28.208,40.566,28.208L40.566,28.208z M40.708,29.389l-0.476-0.478C40.543,28.833,40.702,28.993,40.708,29.389
	L40.708,29.389z M39.917,27.65C40.338,29.302,40.252,28.964,39.917,27.65L39.917,27.65z M39.832,27.479v-0.017l0.009,0.017H39.832
	L39.832,27.479z M39.927,28.853c-0.095,0.032-0.126,0-0.095-0.094L39.927,28.853L39.927,28.853z M39.985,28.912l0.522,0.524
	C39.728,29.539,39.626,29.315,39.985,28.912L39.985,28.912z M40.513,28.184C40.478,28.052,40.463,28,40.513,28.184L40.513,28.184z
	 M40.486,27.975c-0.083,0.066-0.108-0.013-0.014-0.042C40.479,27.91,40.435,27.753,40.486,27.975
	C40.457,27.998,40.486,27.975,40.486,27.975z M39.065,11.071c-0.006,0.002-0.012,0.004-0.019,0.006
	c0.007-0.009,0.011-0.02,0.016-0.029C39.065,11.056,39.065,11.063,39.065,11.071C39.06,11.073,39.065,11.071,39.065,11.071z
	 M39.146,10.963c0,0.034-0.012,0.059-0.031,0.078c-0.014-0.069-0.064-0.205-0.109-0.248C39.097,10.824,39.146,10.946,39.146,10.963
	C39.146,10.997,39.146,10.946,39.146,10.963z M38.991,10.853c0.02,0.024,0.032,0.054,0.036,0.085
	c-0.043-0.008-0.059-0.04-0.046-0.096C38.984,10.847,38.988,10.849,38.991,10.853C39.011,10.877,38.988,10.849,38.991,10.853z
	 M38.752,11.071c0-0.008,0.001-0.015,0.003-0.022c0.004,0.009,0.009,0.02,0.015,0.029C38.764,11.075,38.759,11.073,38.752,11.071
	C38.752,11.071,38.759,11.073,38.752,11.071z M38.736,10.958c0.005,0.031-0.007,0.059-0.034,0.082
	c-0.068-0.099-0.032-0.181,0.11-0.248C38.763,10.833,38.738,10.888,38.736,10.958C38.736,10.958,38.736,10.907,38.736,10.958z
	 M38.825,10.853c0.005-0.004,0.009-0.006,0.011-0.01c0.014,0.057-0.001,0.089-0.045,0.096
	C38.795,10.907,38.806,10.877,38.825,10.853C38.83,10.849,38.806,10.877,38.825,10.853z M38.843,11.084
	c-0.024-0.021-0.043-0.052-0.05-0.087C38.843,10.991,38.917,11.063,38.843,11.084C38.819,11.064,38.853,11.082,38.843,11.084z
	 M38.909,11.041C38.817,10.928,39,10.931,38.909,11.041C38.893,11.021,38.925,11.021,38.909,11.041z M38.909,10.911
	c-0.012,0-0.024,0-0.036,0.003C38.889,10.703,38.982,10.911,38.909,10.911C38.896,10.911,38.921,10.911,38.909,10.911z
	 M38.975,11.084C38.871,11.057,39.126,10.892,38.975,11.084C38.965,11.082,38.98,11.077,38.975,11.084z M39.089,24.314
	c-0.358-0.227-0.267-7.325-0.083-7.394c0.095,1.236,0.088,8.923,0.632,9.181c-0.087,0.049-0.109-0.006-0.018-0.041
	c0.015-0.048-0.036-0.063,0.042-0.098c-0.074,0.034-0.057-0.01-0.102-0.029c-0.084,0.043-0.109-0.007-0.018-0.042
	c0.014-0.047-0.036-0.062,0.042-0.097c-0.076,0.034-0.054-0.01-0.102-0.033c-0.083,0.045-0.114-0.008-0.018-0.041
	c0.014-0.049-0.037-0.062,0.042-0.096c-0.076,0.034-0.054-0.011-0.101-0.033c-0.08,0.041-0.122-0.009-0.019-0.039
	c0.014-0.051-0.036-0.064,0.042-0.097c-0.076,0.032-0.055-0.012-0.101-0.034c-0.089,0.052-0.106-0.008-0.018-0.04
	c0.016-0.048-0.04-0.063,0.042-0.097c-0.077,0.035-0.055-0.008-0.1-0.034C39.113,25.332,39.332,23.004,39.089,24.314
	C39.061,24.296,39.089,24.314,39.089,24.314z M39.112,28.853v-0.161l0.097,0.161H39.112L39.112,28.853z M39.244,28.912l0.314,0.524
	C38.959,29.479,38.957,29.229,39.244,28.912L39.244,28.912z M39.114,31.177C39.201,31.021,39.183,31.177,39.114,31.177
	C39.114,31.177,39.154,31.177,39.114,31.177z M39.185,30.921C39.109,30.859,39.048,30.807,39.185,30.921
	C39.166,30.906,39.185,30.921,39.185,30.921z M39.198,30.935C39.114,30.977,39.382,31.147,39.198,30.935
	C39.203,30.933,39.214,30.954,39.198,30.935z M39.301,31.192h-0.087c0-0.047,0.04-0.087,0.087-0.087V31.192L39.301,31.192z
	 M39.301,30.906c-0.047,0-0.087-0.038-0.087-0.087C39.301,30.79,39.33,30.819,39.301,30.906
	C39.253,30.906,39.301,30.906,39.301,30.906z M39.301,30.788C39.25,30.654,39.06,30.145,39.301,30.788L39.301,30.788z
	 M39.324,29.949c0.001,0.166-0.062,0.087-0.141,0.15c0.04,0.49,0.046,0.185,0.056-0.232c-0.003-0.004-0.075,0.065-0.101,0.105
	c0.111-0.289,0.264-0.289,0.374,0c-0.027-0.04-0.098-0.11-0.1-0.105c-0.103,0.164,0.015,0.835,0.054,0.232
	C39.381,30.036,39.324,30.115,39.324,29.949L39.324,29.949z M39.348,30.788C39.587,30.144,39.397,30.655,39.348,30.788
	L39.348,30.788z M39.435,30.819c0,0.049-0.04,0.087-0.087,0.087C39.318,30.819,39.348,30.79,39.435,30.819
	C39.435,30.868,39.435,30.819,39.435,30.819z M39.348,31.192v-0.087c0.048,0,0.087,0.04,0.087,0.087H39.348L39.348,31.192z
	 M39.45,31.076C39.506,31.076,39.264,30.852,39.45,31.076C39.444,31.076,39.433,31.056,39.45,31.076z M39.534,31.177
	C39.262,31.177,39.811,31.177,39.534,31.177C39.494,31.177,39.574,31.177,39.534,31.177z M39.605,30.921
	C39.5,30.838,39.4,30.863,39.605,30.921C39.585,30.906,39.605,30.921,39.605,30.921z M39.626,31.076c-0.002,0-0.005,0-0.008,0
	c0.003-0.004,0.006-0.006,0.008-0.011V31.076C39.624,31.076,39.626,31.076,39.626,31.076z M39.626,30.947
	c-0.002-0.005-0.005-0.007-0.008-0.012C39.627,30.933,39.63,30.936,39.626,30.947C39.624,30.941,39.626,30.947,39.626,30.947z
	 M39.626,30.788c-0.101-0.052-0.166-0.335,0-0.368V30.788L39.626,30.788z M39.626,30.088c0.09-0.034-0.451,0.585,0-0.167V30.088
	C39.618,30.091,39.626,30.088,39.626,30.088z M39.626,29.893c-0.024,0.022-0.054,0.057-0.07,0.079
	C39.549,29.816,39.551,29.687,39.626,29.893C39.602,29.916,39.626,29.893,39.626,29.893z M39.626,29.725
	c-0.076,0.03-0.107,0.01-0.092-0.059c-0.097,0.138-0.322,0.137-0.419,0l-0.002,0.018C39.258,29.53,39.538,29.468,39.626,29.725
	L39.626,29.725z M39.626,29.387l-0.285-0.476C39.689,28.817,39.784,28.976,39.626,29.387L39.626,29.387z M39.626,28.853
	C39.137,28.268,38.855,27.93,39.626,28.853L39.626,28.853z M39.626,28.305C39.223,27.442,39.245,27.49,39.626,28.305L39.626,28.305z
	 M39.626,27.479C38.966,27.067,39.361,27.313,39.626,27.479L39.626,27.479z M39.626,27.141c-0.608,0.134-0.743-0.205-0.404-1.018
	C39.51,26.429,39.644,26.769,39.626,27.141L39.626,27.141z M39.614,26.206c0.032-0.03,0.06-0.021,0.083,0.026
	C39.708,26.201,39.813,26.399,39.614,26.206L39.614,26.206z M39.69,26.375c0.057-0.028,0.066,0.021,0.048,0.103L39.69,26.375
	L39.69,26.375z M39.783,26.494c0.011,0.009,0.012,0.015,0.002,0.019L39.783,26.494C39.787,26.501,39.783,26.494,39.783,26.494z
	 M39.785,26.536c0.026-0.015,0.049-0.004,0.068,0.034c0.012-0.048-0.032-0.061,0.041-0.096c-0.051,0.01-0.116-0.018-0.115-0.019
	c-0.021-0.064-0.01-0.113,0.038-0.15c-0.289-2.896-0.511-6.033-0.739-9.017c0.193,1.471,0.527,10.138,1.334,10.514
	c-0.082,0.044-0.119-0.007-0.017-0.04c0.012-0.051-0.037-0.063,0.041-0.097c-0.078,0.037-0.053-0.01-0.1-0.034
	c-0.088,0.05-0.106-0.005-0.019-0.04c0.015-0.049-0.036-0.062,0.042-0.097c-0.074,0.033-0.055-0.009-0.1-0.032
	c-0.087,0.047-0.108-0.006-0.02-0.042c0.016-0.047-0.035-0.062,0.043-0.095c-0.078,0.034-0.055-0.013-0.101-0.033
	c-0.083,0.04-0.111-0.005-0.019-0.041c0.015-0.05-0.036-0.062,0.041-0.097c-0.078,0.037-0.052-0.009-0.1-0.034
	c-0.13,0.079-0.053-0.062,0.024-0.135c-0.03-0.01-0.055-0.003-0.077,0.019c0-0.02-0.007-0.037-0.023-0.053
	c-0.104,0.06-0.104-0.008-0.02-0.04c0.013-0.048-0.037-0.062,0.042-0.095c-0.077,0.034-0.054-0.011-0.102-0.035
	c-0.089,0.052-0.113-0.007-0.018-0.038c0.014-0.049-0.035-0.063,0.041-0.099c-0.077,0.037-0.054-0.013-0.1-0.032
	C39.812,26.645,39.823,26.743,39.785,26.536L39.785,26.536z M39.832,30.788C39.966,29.914,39.831,30.791,39.832,30.788
	L39.832,30.788z M39.854,30.819c0,0.021-0.008,0.043-0.022,0.058C39.812,30.831,39.82,30.812,39.854,30.819
	C39.854,30.84,39.854,30.819,39.854,30.819z M39.832,30.373c0.04-0.233,0.041-0.278,0-0.502
	C39.936,30.076,40.046,30.256,39.832,30.373L39.832,30.373z M39.832,31.192v-0.058C39.87,31.18,39.87,31.199,39.832,31.192
	L39.832,31.192z M39.87,31.076C40.003,31.076,39.664,30.812,39.87,31.076C39.864,31.076,39.854,31.056,39.87,31.076z M39.955,31.177
	C39.677,31.177,40.229,31.177,39.955,31.177C39.913,31.177,39.993,31.177,39.955,31.177z M40.024,30.921
	C39.924,30.838,39.816,30.864,40.024,30.921C40.006,30.906,40.024,30.921,40.024,30.921z M40.038,30.935
	C39.959,30.979,40.215,31.151,40.038,30.935C40.043,30.933,40.054,30.954,40.038,30.935z M40.141,31.192h-0.088
	c0-0.047,0.04-0.087,0.088-0.087V31.192L40.141,31.192z M40.141,30.906c-0.048,0-0.088-0.038-0.088-0.087
	C40.141,30.79,40.17,30.819,40.141,30.906C40.093,30.906,40.141,30.906,40.141,30.906z M40.141,30.788
	C40.09,30.652,39.899,30.147,40.141,30.788L40.141,30.788z M40.187,31.192v-0.087c0.048,0,0.087,0.04,0.087,0.087H40.187
	L40.187,31.192z M40.274,30.819c0,0.049-0.039,0.087-0.087,0.087C40.158,30.819,40.187,30.79,40.274,30.819
	C40.274,30.868,40.274,30.819,40.274,30.819z M40.187,30.788C40.428,30.146,40.237,30.654,40.187,30.788L40.187,30.788z
	 M40.29,31.076C40.348,31.076,40.103,30.851,40.29,31.076C40.285,31.076,40.272,31.056,40.29,31.076z M40.374,31.177
	C40.1,31.177,40.648,31.177,40.374,31.177C40.334,31.177,40.413,31.177,40.374,31.177z M40.445,30.921
	C40.334,30.837,40.242,30.867,40.445,30.921C40.425,30.906,40.445,30.921,40.445,30.921z M40.458,30.935
	C40.383,30.989,40.627,31.149,40.458,30.935C40.462,30.933,40.473,30.954,40.458,30.935z M40.56,31.192h-0.087
	c0-0.047,0.04-0.087,0.087-0.087V31.192L40.56,31.192z M40.56,30.906c-0.048,0-0.087-0.038-0.087-0.087
	C40.56,30.79,40.588,30.819,40.56,30.906C40.512,30.906,40.56,30.906,40.56,30.906z M40.56,30.788
	C40.509,30.654,40.319,30.145,40.56,30.788L40.56,30.788z M40.557,30.097c-0.039-0.021-0.077-0.021-0.114,0.002
	c0.029,0.394,0.073,0.254,0.055-0.232c-0.004-0.004-0.075,0.065-0.102,0.105c0.001-0.116-0.005-0.204-0.022-0.306
	c-0.017,0.102-0.023,0.191-0.022,0.306c-0.027-0.04-0.098-0.11-0.1-0.105c-0.121,0.192,0.01,0.791,0.053,0.232
	c-0.085-0.061-0.141,0.018-0.142-0.15c0.001,0.168-0.055,0.089-0.141,0.15c0.058,0.573,0.158-0.113,0.053-0.232
	c-0.002-0.004-0.073,0.065-0.099,0.105c0-0.114-0.007-0.203-0.022-0.306c-0.018,0.102-0.025,0.19-0.024,0.306
	c-0.402-0.631,0.675-0.502,0.839,0c-0.026-0.04-0.097-0.11-0.1-0.105c-0.201,0.322,0.082,0.604-0.06,0.23
	c0.023-0.056,0.014-0.105-0.027-0.148C40.542,29.992,40.533,30.042,40.557,30.097L40.557,30.097z M40.607,30.788
	C40.846,30.144,40.656,30.655,40.607,30.788L40.607,30.788z M40.694,30.819c0,0.049-0.039,0.087-0.087,0.087
	C40.578,30.819,40.607,30.79,40.694,30.819C40.694,30.868,40.694,30.819,40.694,30.819z M40.607,31.192v-0.087
	c0.049,0,0.087,0.04,0.087,0.087H40.607L40.607,31.192z M40.709,31.076C40.755,31.076,40.532,30.842,40.709,31.076
	C40.704,31.076,40.694,31.056,40.709,31.076z M40.793,31.177C40.521,31.177,41.067,31.177,40.793,31.177
	C40.752,31.177,40.833,31.177,40.793,31.177z M40.865,30.921C40.754,30.838,40.662,30.866,40.865,30.921
	C40.844,30.906,40.865,30.921,40.865,30.921z M40.878,30.935C40.793,30.982,41.06,31.145,40.878,30.935
	C40.882,30.933,40.894,30.954,40.878,30.935z M40.981,31.192h-0.087c0-0.047,0.039-0.087,0.087-0.087V31.192L40.981,31.192z
	 M40.981,30.906c-0.049,0-0.087-0.038-0.087-0.087C40.981,30.79,41.01,30.819,40.981,30.906
	C40.932,30.906,40.981,30.906,40.981,30.906z M40.981,30.788C40.93,30.653,40.739,30.146,40.981,30.788L40.981,30.788z
	 M40.981,30.373c-0.435-0.08,0.018-0.341-0.064-0.506c-0.002-0.004-0.074,0.065-0.1,0.105c0.001-0.077-0.006-0.188-0.019-0.245
	c0.23,0.206,0.197,0.271,0.064,0.372C40.878,30.424,41.218,29.703,40.981,30.373L40.981,30.373z M41.397,30.906
	c-0.048,0-0.084-0.038-0.084-0.087C41.368,30.805,41.397,30.834,41.397,30.906C41.35,30.906,41.397,30.906,41.397,30.906z
	 M41.326,29.884C41.334,29.916,41.289,29.959,41.326,29.884C41.33,29.901,41.321,29.895,41.326,29.884z M41.236,30.553
	C41.326,30.944,41.296,30.814,41.236,30.553L41.236,30.553z M41.025,30.159C41.094,30.159,41.195,30.676,41.025,30.159
	C41.027,30.159,41.025,30.159,41.025,30.159z M41.025,30.498C41.025,30.382,41.432,31.13,41.025,30.498
	C41.025,30.454,41.025,30.498,41.025,30.498z M41.025,30.819h0.088c0,0.049-0.039,0.087-0.088,0.087V30.819L41.025,30.819z
	 M41.025,31.192v-0.087c0.05,0,0.088,0.04,0.088,0.087H41.025L41.025,31.192z M41.129,31.076
	C41.173,31.076,40.956,30.84,41.129,31.076C41.124,31.076,41.114,31.056,41.129,31.076z M41.213,31.177
	C40.938,31.177,41.488,31.177,41.213,31.177C41.173,31.177,41.253,31.177,41.213,31.177z M41.284,30.921
	C41.08,30.75,41.221,31.005,41.284,30.921C41.265,30.906,41.287,30.917,41.284,30.921z M41.297,30.935
	C41.214,30.97,41.483,31.149,41.297,30.935C41.303,30.933,41.314,30.954,41.297,30.935z M41.401,31.192h-0.088
	c0-0.047,0.04-0.087,0.088-0.087V31.192L41.401,31.192z M41.447,31.192C41.531,31.081,41.488,31.138,41.447,31.192L41.447,31.192z
	 M41.537,30.436l-0.009-0.018c0.012,0,0.024,0.002,0.035,0.006C41.555,30.433,41.546,30.436,41.537,30.436L41.537,30.436z
	 M41.61,30.591C41.557,30.323,41.587,30.477,41.61,30.591L41.61,30.591z M41.803,31.018C41.762,30.891,41.808,31,41.803,31.018
	C41.803,31.018,41.804,31.014,41.803,31.018z M41.82,30.877c-0.018-0.021-0.028-0.013-0.031,0.024
	c-0.034-0.013-0.057-0.043-0.057-0.083C41.791,30.805,41.827,30.814,41.82,30.877C41.816,30.873,41.82,30.877,41.82,30.877z
	 M41.725,30.788c0.006-0.007,0.01-0.007,0.012,0H41.725L41.725,30.788z M41.82,30.788c-0.099,0-0.023-0.012,0-0.045V30.788
	L41.82,30.788z M41.82,30.725c-0.078-0.018-0.021,0-0.092-0.029c-0.088,0.048-0.088-0.017-0.018-0.04
	c0.014-0.049-0.037-0.063,0.042-0.099C41.684,30.423,41.685,30.434,41.82,30.725C41.812,30.723,41.82,30.725,41.82,30.725z
	 M41.866,30.498C41.866,30.38,42.269,31.134,41.866,30.498C41.866,30.454,41.866,30.498,41.866,30.498z M41.866,30.819h0.088
	C41.954,30.918,41.867,30.933,41.866,30.819L41.866,30.819z M41.866,31.105c0.002,0,0.003,0,0.006,0
	C41.868,31.109,41.866,31.109,41.866,31.105C41.869,31.105,41.866,31.105,41.866,31.105z M41.882,31.192
	c-0.045-0.123,0.025-0.015,0.061-0.028V31.15C41.971,31.201,41.951,31.215,41.882,31.192L41.882,31.192z M41.962,31.063
	C41.91,31.063,41.821,30.899,41.962,31.063C41.956,31.063,41.95,31.048,41.962,31.063z M42.054,31.177
	C41.78,31.177,42.325,31.177,42.054,31.177C42.013,31.177,42.093,31.177,42.054,31.177z M42.124,30.921
	C42.02,30.838,41.918,30.865,42.124,30.921C42.104,30.906,42.124,30.921,42.124,30.921z M42.138,30.935
	C42.06,30.984,42.312,31.149,42.138,30.935C42.142,30.933,42.153,30.954,42.138,30.935z M42.239,31.192h-0.087
	c0-0.047,0.039-0.087,0.087-0.087V31.192L42.239,31.192z M42.239,30.906c-0.048,0-0.087-0.038-0.087-0.087
	C42.239,30.79,42.269,30.819,42.239,30.906C42.191,30.906,42.239,30.906,42.239,30.906z M42.239,30.788
	C42.189,30.654,41.999,30.146,42.239,30.788L42.239,30.788z M42.287,30.498C42.287,30.38,42.689,31.134,42.287,30.498
	C42.287,30.454,42.287,30.498,42.287,30.498z M42.287,30.819h0.087c0,0.049-0.039,0.087-0.087,0.087V30.819L42.287,30.819z
	 M42.287,31.192v-0.087c0.048,0,0.087,0.04,0.087,0.087H42.287L42.287,31.192z M42.388,31.076
	C42.43,31.076,42.219,30.837,42.388,31.076C42.384,31.076,42.374,31.056,42.388,31.076z M42.474,31.177
	C42.199,31.177,42.746,31.177,42.474,31.177C42.434,31.177,42.513,31.177,42.474,31.177z M42.544,30.921
	C42.44,30.838,42.336,30.865,42.544,30.921C42.525,30.906,42.544,30.921,42.544,30.921z M42.557,30.935
	C42.468,30.975,42.745,31.145,42.557,30.935C42.562,30.933,42.574,30.954,42.557,30.935z M42.66,31.192h-0.088
	c0-0.047,0.04-0.087,0.088-0.087V31.192L42.66,31.192z M42.66,30.906c-0.048,0-0.088-0.038-0.088-0.087
	C42.659,30.789,42.689,30.818,42.66,30.906C42.611,30.906,42.66,30.906,42.66,30.906z M42.66,30.788
	C42.609,30.653,42.418,30.146,42.66,30.788L42.66,30.788z M43.078,31.885C43.042,31.697,43.069,31.752,43.078,31.885
	C43.078,31.885,43.077,31.871,43.078,31.885z M43.486,26.862c-0.242-0.049-0.191-0.16,0-0.278V26.862L43.486,26.862z M43.563,28.074
	c0.074,0.097,0.074,0.194,0,0.292V28.074L43.563,28.074z M43.758,30.895c0.012,0.227-0.526-2.488-0.088-2.488
	C43.879,28.407,43.751,30.755,43.758,30.895L43.758,30.895z M43.758,28.318c-0.049-0.065-0.049-0.132,0-0.197V28.318L43.758,28.318z
	 M43.758,27.923c-0.019,0.021-0.039,0.023-0.06,0.005c0.084,0.182-0.131,0.203-0.056,0c-0.105,0.086-0.082-0.197,0.005-0.099
	c-0.109-0.207,0.16-0.195,0.045,0C43.764,27.766,43.769,27.885,43.758,27.923C43.75,27.933,43.758,27.923,43.758,27.923z
	 M43.958,26.491C43.865,24.999,43.865,25.008,43.958,26.491L43.958,26.491z M44.61,20.483c-0.008,0.002-0.015,0.002-0.025,0.006
	c0.01-0.012,0.016-0.025,0.022-0.039C44.611,20.461,44.612,20.472,44.61,20.483C44.603,20.486,44.61,20.483,44.61,20.483z
	 M44.72,20.336c0,0.044-0.018,0.078-0.043,0.105c-0.02-0.091-0.086-0.285-0.147-0.334C44.652,20.153,44.718,20.313,44.72,20.336
	C44.72,20.381,44.718,20.313,44.72,20.336z M44.512,20.188c0.025,0.032,0.042,0.072,0.046,0.116
	c-0.058-0.013-0.078-0.056-0.061-0.129C44.501,20.18,44.507,20.184,44.512,20.188C44.537,20.22,44.507,20.184,44.512,20.188z
	 M44.513,20.358C44.547,20.375,44.438,20.688,44.513,20.358C44.528,20.366,44.501,20.409,44.513,20.358z M44.353,25.337
	C44.353,25.451,44.353,27.958,44.353,25.337C44.353,25.284,44.353,25.362,44.353,25.337z M44.356,20.341
	c0.085-0.012,0.129-0.02,0.045,0.101C44.378,20.413,44.363,20.379,44.356,20.341C44.37,20.339,44.363,20.379,44.356,20.341z
	 M44.399,20.149c0,0,0-0.003,0.002-0.003c0,0.044,0.015,0.086,0.047,0.125c-0.032-0.005-0.065-0.005-0.097,0
	C44.356,20.211,44.383,20.168,44.399,20.149C44.399,20.149,44.383,20.168,44.399,20.149z M44.19,20.483
	c-0.002-0.011-0.001-0.022,0.003-0.033c0.007,0.014,0.013,0.027,0.021,0.041C44.206,20.489,44.199,20.486,44.19,20.483
	C44.19,20.483,44.199,20.486,44.19,20.483z M44.169,20.332c0.009,0.041-0.006,0.077-0.047,0.107
	c-0.09-0.132-0.041-0.242,0.149-0.331C44.206,20.163,44.171,20.237,44.169,20.332C44.169,20.332,44.169,20.26,44.169,20.332z
	 M44.289,20.188c0.004-0.004,0.011-0.008,0.015-0.013c0.016,0.073-0.004,0.116-0.062,0.129C44.246,20.26,44.262,20.22,44.289,20.188
	C44.293,20.184,44.262,20.22,44.289,20.188z M44.246,20.381L44.246,20.381C44.417,20.271,44.312,20.728,44.246,20.381
	C44.246,20.381,44.255,20.431,44.246,20.381z M44.272,28.074c0.087,0.097,0.087,0.194,0,0.292V28.074L44.272,28.074z M44.527,30.895
	c0.019,0.283-0.609-2.488-0.126-2.488C44.669,28.407,44.517,30.735,44.527,30.895L44.527,30.895z M44.527,28.365
	c-0.087-0.097-0.087-0.194,0-0.292V28.365L44.527,28.365z M44.468,27.94c-0.014,0-0.024-0.006-0.034-0.012
	c0.098,0.191-0.163,0.195-0.067,0c-0.128,0.076-0.096-0.19,0.006-0.099c-0.133-0.192,0.188-0.21,0.055,0
	C44.508,27.764,44.582,27.94,44.468,27.94C44.454,27.94,44.501,27.94,44.468,27.94z M44.99,26.491
	C44.929,25.771,44.803,24.29,44.99,26.491L44.99,26.491z M45.042,27.829c0.021-0.021,0.043-0.021,0.065,0
	c-0.108-0.204,0.156-0.198,0.046,0c0.094-0.089,0.106,0.176,0.005,0.099c0.067,0.194-0.123,0.193-0.057,0
	C45.033,27.987,45.035,27.855,45.042,27.829C45.05,27.821,45.042,27.829,45.042,27.829z M45.236,28.074v0.292
	C45.163,28.268,45.163,28.171,45.236,28.074L45.236,28.074z M45.042,28.121c0.05,0.065,0.05,0.132,0,0.197V28.121L45.042,28.121z
	 M45.253,30.895c0.014,0.24-0.505-2.488-0.123-2.488C45.405,28.407,45.245,30.742,45.253,30.895L45.253,30.895z M45.455,26.862
	c-0.187,0.047-0.234-0.046-0.141-0.278C45.469,26.61,45.516,26.703,45.455,26.862L45.455,26.862z M45.681,61.905v-0.022
	c0.013,0.011,0.029,0.02,0.048,0.022H45.681L45.681,61.905z M45.743,61.905c0.026-0.013,0.052-0.013,0.078,0H45.743
	C45.757,61.905,45.743,61.905,45.743,61.905z M45.837,61.905c0.055-0.104,0.11-0.104,0.165,0H45.837
	C45.879,61.9,45.837,61.905,45.837,61.905z M46.019,61.905c0.026-0.013,0.053-0.013,0.079,0H46.019
	C46.034,61.905,46.019,61.905,46.019,61.905z M46.111,61.905c0.056-0.104,0.112-0.104,0.167,0H46.111
	C46.153,61.9,46.111,61.905,46.111,61.905z M46.293,61.905c0.026-0.013,0.053-0.013,0.079,0H46.293
	C46.307,61.905,46.293,61.905,46.293,61.905z M46.387,61.905c0.055-0.104,0.111-0.104,0.167,0H46.387
	C46.429,61.9,46.387,61.905,46.387,61.905z M46.568,61.905c0.027-0.013,0.053-0.013,0.079,0H46.568
	C46.583,61.905,46.568,61.905,46.568,61.905z M46.663,61.905c0.055-0.104,0.111-0.104,0.167,0H46.663
	C46.704,61.9,46.663,61.905,46.663,61.905z M46.844,61.905c0.026-0.013,0.053-0.013,0.079,0H46.844
	C46.859,61.905,46.844,61.905,46.844,61.905z M46.938,61.905c0.056-0.104,0.112-0.104,0.167,0H46.938
	C46.98,61.9,46.938,61.905,46.938,61.905z M47.119,61.905c0.026-0.013,0.052-0.013,0.078,0H47.119
	C47.134,61.905,47.119,61.905,47.119,61.905z M47.212,61.905c0.057-0.104,0.112-0.104,0.167,0H47.212
	C47.256,61.9,47.212,61.905,47.212,61.905z M47.395,61.905c0.026-0.013,0.052-0.013,0.078,0H47.395
	C47.408,61.905,47.395,61.905,47.395,61.905z M47.488,61.905c0.055-0.104,0.111-0.104,0.167,0H47.488
	C47.531,61.9,47.488,61.905,47.488,61.905z M47.669,61.905c0.027-0.013,0.053-0.013,0.08,0H47.669
	C47.685,61.905,47.669,61.905,47.669,61.905z M47.764,61.905c0.056-0.104,0.111-0.104,0.167,0H47.764
	C47.805,61.9,47.764,61.905,47.764,61.905z M47.946,61.905c0.026-0.013,0.052-0.013,0.078,0H47.946
	C47.96,61.905,47.946,61.905,47.946,61.905z M48.04,61.905c0.055-0.104,0.111-0.104,0.167,0H48.04
	C48.081,61.9,48.04,61.905,48.04,61.905z M48.221,61.905c0.026-0.013,0.052-0.013,0.079,0H48.221
	C48.234,61.905,48.221,61.905,48.221,61.905z M48.314,61.905c0.056-0.104,0.111-0.104,0.167,0H48.314
	C48.357,61.9,48.314,61.905,48.314,61.905z M48.496,61.905c0.026-0.013,0.053-0.013,0.079,0H48.496
	C48.51,61.905,48.496,61.905,48.496,61.905z M48.589,61.905c0.056-0.104,0.112-0.104,0.167,0H48.589
	C48.631,61.9,48.589,61.905,48.589,61.905z M48.782,61.905h-0.011C48.78,61.899,48.783,61.899,48.782,61.905L48.782,61.905z
	 M48.918,61.056c0.026,0.032,0.026,0.062,0,0.095V61.056L48.918,61.056z M48.914,61.755c0.052,0,0.019,0.072,0,0.099V61.755
	C48.923,61.755,48.914,61.755,48.914,61.755z M48.983,61.905C48.893,61.848,48.91,61.858,48.983,61.905L48.983,61.905z
	 M48.983,61.856C48.958,61.822,48.953,61.625,48.983,61.856C48.975,61.844,48.983,61.856,48.983,61.856z M48.983,61.704
	c-0.006,0.001-0.016,0.006-0.016,0.006c0.016-0.04,0.009-0.075-0.02-0.107c-0.029,0.032-0.036,0.067-0.02,0.107
	C48.938,61.124,48.956,60.986,48.983,61.704C48.977,61.705,48.983,61.704,48.983,61.704z M48.983,61.135
	c-0.016-0.021-0.016-0.042,0-0.063V61.135L48.983,61.135z M48.983,61.008c-0.007,0.008-0.013,0.008-0.02,0
	c0.023,0.062-0.035,0.065-0.019,0c-0.021,0.032-0.04-0.058,0.002-0.03c-0.062-0.053,0.073-0.068,0.016,0
	C48.985,60.962,48.988,60.992,48.983,61.008C48.98,61.012,48.983,61.008,48.983,61.008z M49.209,58.329
	C49.22,58.15,49.21,58.322,49.209,58.329L49.209,58.329z M49.266,61.905C49.14,61.844,49.194,61.87,49.266,61.905L49.266,61.905z
	 M49.182,61.869C49.226,61.597,49.209,61.843,49.182,61.869C49.182,61.869,49.196,61.856,49.182,61.869z M49.266,61.869
	C49.239,61.846,49.223,61.594,49.266,61.869C49.251,61.856,49.266,61.869,49.266,61.869z M49.266,61.701
	c-0.012,0.004-0.023,0.009-0.023,0.009c0.016-0.04,0.01-0.075-0.02-0.107c-0.028,0.032-0.034,0.067-0.019,0.107
	C49.207,61.103,49.226,61.016,49.266,61.701C49.254,61.705,49.266,61.701,49.266,61.701z M49.182,61.15v-0.095
	C49.209,61.088,49.209,61.118,49.182,61.15L49.182,61.15z M49.266,61.15c-0.029-0.032-0.029-0.062,0-0.095V61.15L49.266,61.15z
	 M49.246,61.014c-0.003,0-0.007-0.002-0.01-0.006c0.013,0.068-0.041,0.06-0.022,0c-0.027,0.023-0.05-0.044,0.001-0.03
	c-0.075-0.057,0.088-0.061,0.018,0C49.261,60.969,49.282,61.014,49.246,61.014C49.242,61.014,49.256,61.014,49.246,61.014z
	 M49.464,60.978c0.007-0.004,0.014-0.004,0.021,0c-0.06-0.072,0.075-0.052,0.015,0c0.043-0.013,0.023,0.052,0.001,0.03
	c0.018,0.072-0.039,0.056-0.018,0C49.462,61.03,49.462,60.985,49.464,60.978C49.467,60.977,49.464,60.978,49.464,60.978z
	 M49.528,61.056v0.095C49.505,61.118,49.505,61.088,49.528,61.056L49.528,61.056z M49.464,61.071c0.017,0.021,0.017,0.042,0,0.063
	V61.071L49.464,61.071z M49.464,61.755c0.052,0,0.019,0.075,0,0.102V61.755C49.474,61.755,49.464,61.755,49.464,61.755z
	 M49.534,61.905C49.444,61.847,49.461,61.858,49.534,61.905L49.534,61.905z M49.534,61.855
	C49.51,61.816,49.506,61.631,49.534,61.855C49.526,61.842,49.534,61.855,49.534,61.855z M49.534,61.704
	c-0.007,0.001-0.017,0.006-0.017,0.006c0.018-0.04,0.012-0.075-0.018-0.107c-0.03,0.032-0.036,0.067-0.019,0.107
	C49.483,61.049,49.501,61.061,49.534,61.704C49.527,61.705,49.534,61.704,49.534,61.704z M49.664,61.905
	c-0.001-0.007,0.003-0.007,0.013,0H49.664L49.664,61.905z M49.691,61.905c0.056-0.104,0.111-0.104,0.167,0H49.691
	C49.732,61.9,49.691,61.905,49.691,61.905z M49.873,61.905c0.026-0.013,0.052-0.013,0.078,0H49.873
	C49.886,61.905,49.873,61.905,49.873,61.905z M49.965,61.905c0.057-0.104,0.112-0.104,0.167,0H49.965
	C50.009,61.9,49.965,61.905,49.965,61.905z M50.148,61.905c0.026-0.013,0.053-0.013,0.079,0H50.148
	C50.161,61.905,50.148,61.905,50.148,61.905z M50.241,61.905c0.056-0.104,0.111-0.104,0.167,0H50.241
	C50.284,61.9,50.241,61.905,50.241,61.905z M50.424,61.905c0.026-0.013,0.052-0.013,0.078,0H50.424
	C50.437,61.905,50.424,61.905,50.424,61.905z M50.516,61.905c0.057-0.104,0.113-0.104,0.167,0H50.516
	C50.558,61.9,50.516,61.905,50.516,61.905z M50.699,61.905c0.026-0.013,0.053-0.013,0.079,0H50.699
	C50.713,61.905,50.699,61.905,50.699,61.905z M50.792,61.905c0.056-0.104,0.112-0.104,0.167,0H50.792
	C50.833,61.9,50.792,61.905,50.792,61.905z M50.974,61.905c0.026-0.013,0.052-0.013,0.078,0H50.974
	C50.988,61.905,50.974,61.905,50.974,61.905z M51.066,61.905c0.057-0.104,0.112-0.104,0.168,0H51.066
	C51.109,61.9,51.066,61.905,51.066,61.905z M51.248,61.905c0.026-0.013,0.054-0.013,0.08,0H51.248
	C51.263,61.905,51.248,61.905,51.248,61.905z M51.342,61.905c0.057-0.104,0.112-0.104,0.168,0H51.342
	C51.386,61.9,51.342,61.905,51.342,61.905z M51.524,61.905c0.025-0.013,0.053-0.013,0.078,0H51.524
	C51.539,61.905,51.524,61.905,51.524,61.905z M51.617,61.905c0.056-0.104,0.112-0.104,0.167,0H51.617
	C51.661,61.9,51.617,61.905,51.617,61.905z M51.798,61.905c0.027-0.013,0.055-0.013,0.08,0H51.798
	C51.813,61.905,51.798,61.905,51.798,61.905z M51.893,61.905c0.056-0.104,0.112-0.104,0.168,0H51.893
	C51.936,61.9,51.893,61.905,51.893,61.905z M52.075,61.905c0.025-0.013,0.053-0.013,0.079,0H52.075
	C52.089,61.905,52.075,61.905,52.075,61.905z M52.169,61.905c0.056-0.104,0.111-0.104,0.167,0H52.169
	C52.211,61.9,52.169,61.905,52.169,61.905z M52.352,61.905c0.026-0.013,0.052-0.013,0.078,0H52.352
	C52.364,61.905,52.352,61.905,52.352,61.905z M52.443,61.905c0.056-0.104,0.111-0.104,0.168,0H52.443
	C52.484,61.9,52.443,61.905,52.443,61.905z M52.626,61.905c0.026-0.013,0.054-0.013,0.079,0H52.626
	C52.64,61.905,52.626,61.905,52.626,61.905z M52.719,61.905c0.056-0.104,0.112-0.104,0.168,0H52.719
	C52.761,61.9,52.719,61.905,52.719,61.905z M52.912,61.905h-0.011C52.91,61.899,52.913,61.899,52.912,61.905L52.912,61.905z
	 M53.048,61.056c0.024,0.032,0.024,0.062,0,0.095V61.056L53.048,61.056z M53.043,61.755c0.053,0,0.017,0.074,0,0.101V61.755
	C53.053,61.755,53.043,61.755,53.043,61.755z M53.113,61.905C53.022,61.848,53.04,61.858,53.113,61.905L53.113,61.905z
	 M53.113,61.856C53.088,61.823,53.082,61.624,53.113,61.856C53.104,61.844,53.113,61.856,53.113,61.856z M53.113,61.704
	c-0.007,0.001-0.017,0.006-0.017,0.006c0.017-0.04,0.011-0.076-0.02-0.107c-0.028,0.032-0.035,0.067-0.019,0.107
	C53.068,61.124,53.085,60.986,53.113,61.704C53.106,61.705,53.113,61.704,53.113,61.704z M53.113,61.135
	c-0.016-0.021-0.016-0.042,0-0.063V61.135L53.113,61.135z M53.113,61.008c-0.007,0.008-0.014,0.008-0.021,0
	c0.01,0.073-0.038,0.054-0.018,0c-0.027,0.021-0.039-0.044,0.001-0.03c-0.06-0.044,0.066-0.076,0.016,0
	C53.115,60.966,53.12,60.985,53.113,61.008C53.11,61.012,53.113,61.008,53.113,61.008z M53.34,58.329
	C53.352,58.151,53.34,58.322,53.34,58.329L53.34,58.329z M53.312,61.056c0.028,0.032,0.028,0.062,0,0.095V61.056L53.312,61.056z
	 M53.312,61.755c0.059,0,0.028,0.088,0,0.114V61.755C53.325,61.755,53.312,61.755,53.312,61.755z M53.396,61.905
	C53.268,61.844,53.326,61.871,53.396,61.905L53.396,61.905z M53.396,61.869C53.369,61.847,53.35,61.595,53.396,61.869
	C53.381,61.856,53.396,61.869,53.396,61.869z M53.396,61.701c-0.014,0.004-0.024,0.009-0.024,0.009
	c0.016-0.039,0.01-0.075-0.019-0.107c-0.029,0.031-0.036,0.067-0.019,0.107C53.337,61.103,53.355,61.017,53.396,61.701
	C53.383,61.705,53.396,61.701,53.396,61.701z M53.396,61.15c-0.028-0.032-0.028-0.062,0-0.095V61.15L53.396,61.15z M53.376,61.014
	c-0.004,0-0.008-0.002-0.011-0.006c0.022,0.061-0.04,0.066-0.023,0c-0.016,0.023-0.052-0.045,0.003-0.03
	c-0.085-0.064,0.097-0.048,0.019,0C53.392,60.967,53.415,61.014,53.376,61.014C53.372,61.014,53.387,61.014,53.376,61.014z
	 M53.594,60.978c0.007-0.004,0.014-0.004,0.021,0c-0.069-0.053,0.081-0.065,0.017,0c0.028-0.029,0.031,0.062,0.001,0.03
	c0.023,0.065-0.041,0.062-0.019,0C53.591,61.025,53.59,60.993,53.594,60.978C53.597,60.977,53.594,60.978,53.594,60.978z
	 M53.656,61.056v0.095C53.636,61.118,53.636,61.088,53.656,61.056L53.656,61.056z M53.594,61.071c0.016,0.021,0.016,0.042,0,0.063
	V61.071L53.594,61.071z M53.594,61.755c0.048,0,0.018,0.077,0,0.102V61.755C53.603,61.755,53.594,61.755,53.594,61.755z
	 M53.664,61.905C53.572,61.848,53.591,61.858,53.664,61.905L53.664,61.905z M53.664,61.855C53.64,61.82,53.635,61.627,53.664,61.855
	C53.654,61.842,53.664,61.855,53.664,61.855z M53.664,61.704c-0.008,0.001-0.018,0.006-0.018,0.006
	c0.018-0.04,0.011-0.076-0.019-0.107c-0.027,0.032-0.033,0.068-0.019,0.107C53.611,61.046,53.631,61.062,53.664,61.704
	C53.656,61.705,53.664,61.704,53.664,61.704z M53.794,61.905c-0.001-0.006,0.003-0.006,0.012,0H53.794L53.794,61.905z
	 M53.821,61.905c0.055-0.104,0.111-0.104,0.167,0H53.821C53.863,61.9,53.821,61.905,53.821,61.905z M54.002,61.905
	c0.026-0.013,0.053-0.013,0.078,0H54.002C54.017,61.905,54.002,61.905,54.002,61.905z M54.096,61.905
	c0.055-0.104,0.111-0.104,0.166,0H54.096C54.139,61.9,54.096,61.905,54.096,61.905z M54.277,61.905c0.025-0.013,0.053-0.013,0.079,0
	H54.277C54.291,61.905,54.277,61.905,54.277,61.905z M54.371,61.905c0.057-0.104,0.111-0.104,0.167,0H54.371
	C54.412,61.9,54.371,61.905,54.371,61.905z M54.553,61.905c0.026-0.013,0.053-0.013,0.079,0H54.553
	C54.567,61.905,54.553,61.905,54.553,61.905z M54.646,61.905c0.057-0.104,0.112-0.104,0.168,0H54.646
	C54.688,61.9,54.646,61.905,54.646,61.905z M54.827,61.905c0.027-0.013,0.054-0.013,0.08,0H54.827
	C54.842,61.905,54.827,61.905,54.827,61.905z M54.922,61.905c0.055-0.104,0.111-0.104,0.167,0H54.922
	C54.964,61.9,54.922,61.905,54.922,61.905z M55.102,61.905c0.027-0.013,0.055-0.013,0.082,0H55.102
	C55.117,61.905,55.102,61.905,55.102,61.905z M55.196,61.905c0.055-0.104,0.111-0.104,0.168,0H55.196
	C55.239,61.9,55.196,61.905,55.196,61.905z M55.378,61.905c0.026-0.013,0.053-0.013,0.08,0H55.378
	C55.393,61.905,55.378,61.905,55.378,61.905z M55.472,61.905c0.056-0.104,0.111-0.104,0.168,0H55.472
	C55.516,61.9,55.472,61.905,55.472,61.905z M55.654,61.905c0.026-0.013,0.053-0.013,0.079,0H55.654
	C55.668,61.905,55.654,61.905,55.654,61.905z M55.746,61.905c0.058-0.104,0.113-0.104,0.17,0H55.746
	C55.789,61.9,55.746,61.905,55.746,61.905z M55.93,61.905c0.026-0.013,0.053-0.013,0.078,0H55.93
	C55.944,61.905,55.93,61.905,55.93,61.905z M56.023,61.905c0.055-0.104,0.111-0.104,0.167,0H56.023
	C56.065,61.9,56.023,61.905,56.023,61.905z M56.205,61.905c0.026-0.013,0.053-0.013,0.079,0H56.205
	C56.219,61.905,56.205,61.905,56.205,61.905z M56.299,61.905c0.055-0.104,0.11-0.104,0.166,0H56.299
	C56.339,61.9,56.299,61.905,56.299,61.905z M56.48,61.905c0.025-0.013,0.052-0.013,0.078,0H56.48
	C56.494,61.905,56.48,61.905,56.48,61.905z M56.573,61.905c0.056-0.104,0.111-0.104,0.168,0H56.573
	C56.615,61.9,56.573,61.905,56.573,61.905z M56.756,61.905c0.026-0.013,0.052-0.013,0.078,0H56.756
	C56.77,61.905,56.756,61.905,56.756,61.905z M56.849,61.905c0.056-0.104,0.111-0.104,0.167,0H56.849
	C56.89,61.9,56.849,61.905,56.849,61.905z M57.042,61.905H57.03C57.039,61.899,57.044,61.899,57.042,61.905L57.042,61.905z
	 M57.178,61.056c0.024,0.032,0.024,0.062,0,0.095V61.056L57.178,61.056z M57.173,61.755c0.053,0,0.018,0.074,0,0.102V61.755
	C57.183,61.755,57.173,61.755,57.173,61.755z M57.243,61.905C57.151,61.847,57.17,61.858,57.243,61.905L57.243,61.905z
	 M57.243,61.855C57.218,61.819,57.212,61.629,57.243,61.855C57.234,61.842,57.243,61.855,57.243,61.855z M57.243,61.704
	c-0.007,0.001-0.018,0.006-0.018,0.006c0.018-0.04,0.012-0.075-0.018-0.107c-0.03,0.031-0.036,0.067-0.02,0.107
	C57.198,61.126,57.214,60.985,57.243,61.704C57.236,61.705,57.243,61.704,57.243,61.704z M57.243,61.135
	c-0.016-0.021-0.016-0.042,0-0.063V61.135L57.243,61.135z M57.243,61.008c-0.007,0.008-0.014,0.008-0.02,0
	c0.008,0.066-0.027,0.062-0.02,0c-0.025,0.025-0.038-0.05,0.001-0.03c-0.056-0.084,0.071-0.042,0.015,0
	C57.243,60.972,57.253,60.976,57.243,61.008C57.24,61.012,57.243,61.008,57.243,61.008z M57.468,58.329
	C57.479,58.151,57.468,58.322,57.468,58.329L57.468,58.329z M57.439,61.056c0.031,0.032,0.031,0.062,0,0.095V61.056L57.439,61.056z
	 M57.439,61.755c0.061,0,0.032,0.088,0,0.114V61.755C57.454,61.755,57.439,61.755,57.439,61.755z M57.524,61.905
	C57.396,61.843,57.454,61.871,57.524,61.905L57.524,61.905z M57.524,61.869C57.496,61.843,57.48,61.596,57.524,61.869
	C57.511,61.856,57.524,61.869,57.524,61.869z M57.524,61.701c-0.012,0.004-0.022,0.009-0.022,0.009
	c0.016-0.04,0.009-0.075-0.02-0.107c-0.027,0.032-0.033,0.068-0.018,0.107C57.467,61.109,57.483,61.01,57.524,61.701
	C57.513,61.705,57.524,61.701,57.524,61.701z M57.524,61.15c-0.028-0.032-0.028-0.062,0-0.095V61.15L57.524,61.15z M57.505,61.014
	c-0.003,0-0.007-0.002-0.011-0.006c0.018,0.068-0.044,0.06-0.021,0c-0.026,0.026-0.052-0.048,0.001-0.03
	c-0.07-0.07,0.084-0.051,0.018,0C57.52,60.97,57.542,61.014,57.505,61.014C57.502,61.014,57.516,61.014,57.505,61.014z
	 M57.723,60.978c0.008-0.004,0.016-0.004,0.022,0c-0.056-0.042,0.028,0.043,0.016,0.03c0.017,0.062-0.026,0.064-0.019,0
	C57.734,61.033,57.721,60.984,57.723,60.978C57.726,60.977,57.723,60.978,57.723,60.978z M57.787,61.056v0.095
	C57.763,61.118,57.763,61.088,57.787,61.056L57.787,61.056z M57.723,61.071c0.017,0.021,0.017,0.042,0,0.063V61.071L57.723,61.071z
	 M57.723,61.755c0.051,0,0.02,0.076,0,0.102V61.755C57.734,61.755,57.723,61.755,57.723,61.755z M57.792,61.905
	C57.703,61.848,57.72,61.857,57.792,61.905L57.792,61.905z M57.792,61.855C57.77,61.812,57.766,61.635,57.792,61.855
	C57.785,61.842,57.792,61.855,57.792,61.855z M57.792,61.704c-0.005,0.001-0.015,0.006-0.015,0.006
	c0.017-0.04,0.011-0.076-0.02-0.107c-0.028,0.032-0.035,0.068-0.017,0.107C57.742,61.052,57.759,61.058,57.792,61.704
	C57.787,61.705,57.792,61.704,57.792,61.704z M57.924,61.905c-0.001-0.006,0.003-0.006,0.011,0H57.924L57.924,61.905z
	 M57.949,61.905c0.056-0.104,0.111-0.104,0.168,0H57.949C57.991,61.9,57.949,61.905,57.949,61.905z M58.133,61.905
	c0.026-0.013,0.052-0.013,0.077,0H58.133C58.146,61.905,58.133,61.905,58.133,61.905z M58.226,61.905
	c0.056-0.104,0.111-0.104,0.166,0H58.226C58.268,61.9,58.226,61.905,58.226,61.905z M58.406,61.905c0.026-0.013,0.054-0.013,0.08,0
	H58.406C58.421,61.905,58.406,61.905,58.406,61.905z M58.501,61.905c0.055-0.104,0.111-0.104,0.166,0H58.501
	C58.543,61.9,58.501,61.905,58.501,61.905z M58.682,61.905c0.026-0.013,0.053-0.013,0.08,0H58.682
	C58.696,61.905,58.682,61.905,58.682,61.905z M58.775,61.905c0.056-0.104,0.111-0.104,0.168,0H58.775
	C58.817,61.9,58.775,61.905,58.775,61.905z M58.957,61.905c0.026-0.013,0.053-0.013,0.079,0H58.957
	C58.972,61.905,58.957,61.905,58.957,61.905z M59.05,61.905c0.058-0.104,0.113-0.104,0.169,0H59.05
	C59.095,61.9,59.05,61.905,59.05,61.905z M59.232,61.905c0.026-0.013,0.054-0.013,0.079,0H59.232
	C59.247,61.905,59.232,61.905,59.232,61.905z M59.327,61.905c0.055-0.104,0.11-0.104,0.167,0H59.327
	C59.369,61.9,59.327,61.905,59.327,61.905z M59.508,61.905c0.026-0.013,0.054-0.013,0.08,0H59.508
	C59.523,61.905,59.508,61.905,59.508,61.905z M59.603,61.905c0.055-0.104,0.11-0.104,0.166,0H59.603
	C59.644,61.9,59.603,61.905,59.603,61.905z M59.784,61.905c0.025-0.013,0.052-0.013,0.078,0H59.784
	C59.799,61.905,59.784,61.905,59.784,61.905z M59.877,61.905c0.056-0.104,0.111-0.104,0.168,0H59.877
	C59.919,61.9,59.877,61.905,59.877,61.905z M60.06,61.905c0.026-0.013,0.052-0.013,0.078,0H60.06
	C60.071,61.905,60.06,61.905,60.06,61.905z M60.151,61.905c0.057-0.104,0.112-0.104,0.168,0H60.151
	C60.195,61.9,60.151,61.905,60.151,61.905z M60.335,61.905c0.026-0.013,0.053-0.013,0.078,0H60.335
	C60.35,61.905,60.335,61.905,60.335,61.905z M60.427,61.905c0.057-0.104,0.113-0.104,0.168,0H60.427
	C60.471,61.9,60.427,61.905,60.427,61.905z M60.609,61.905c0.026-0.013,0.053-0.013,0.078,0H60.609
	C60.624,61.905,60.609,61.905,60.609,61.905z M60.702,61.905c0.056-0.104,0.112-0.104,0.167,0H60.702
	C60.745,61.9,60.702,61.905,60.702,61.905z M60.885,61.905c0.025-0.013,0.053-0.013,0.079,0H60.885
	C60.899,61.905,60.885,61.905,60.885,61.905z M60.978,61.905c0.058-0.104,0.112-0.104,0.168,0H60.978
	C61.021,61.9,60.978,61.905,60.978,61.905z M61.171,61.905H61.16C61.168,61.899,61.172,61.899,61.171,61.905L61.171,61.905z
	 M61.308,61.056c0.023,0.032,0.023,0.062,0,0.095V61.056L61.308,61.056z M61.302,61.755c0.051,0,0.021,0.076,0,0.102V61.755
	C61.312,61.755,61.302,61.755,61.302,61.755z M61.371,61.905C61.28,61.847,61.299,61.858,61.371,61.905L61.371,61.905z
	 M61.371,61.855C61.348,61.816,61.343,61.632,61.371,61.855C61.363,61.842,61.371,61.855,61.371,61.855z M61.371,61.704
	c-0.007,0.001-0.015,0.006-0.015,0.006c0.017-0.04,0.009-0.076-0.02-0.107c-0.028,0.032-0.034,0.068-0.018,0.107
	C61.327,61.133,61.344,60.979,61.371,61.704C61.364,61.705,61.371,61.704,61.371,61.704z M61.371,61.135
	c-0.015-0.021-0.015-0.042,0-0.063V61.135L61.371,61.135z M61.371,61.008c-0.006,0.008-0.013,0.008-0.019,0
	c0.016,0.063-0.027,0.064-0.02,0c-0.016,0.024-0.045-0.047,0.003-0.03c-0.054-0.054,0.062-0.071,0.016,0
	C61.374,60.966,61.379,60.986,61.371,61.008C61.369,61.012,61.371,61.008,61.371,61.008z M61.598,58.329
	C61.608,58.15,61.598,58.322,61.598,58.329L61.598,58.329z M61.57,61.056c0.028,0.032,0.028,0.062,0,0.095V61.056L61.57,61.056z
	 M61.57,61.755c0.058,0,0.031,0.089,0,0.114V61.755C61.584,61.755,61.57,61.755,61.57,61.755z M61.655,61.905
	C61.526,61.843,61.585,61.871,61.655,61.905L61.655,61.905z M61.655,61.869C61.629,61.849,61.611,61.591,61.655,61.869
	C61.64,61.856,61.655,61.869,61.655,61.869z M61.655,61.701c-0.013,0.004-0.023,0.009-0.023,0.009
	c0.017-0.04,0.01-0.075-0.019-0.107c-0.03,0.032-0.036,0.067-0.019,0.107C61.597,61.11,61.614,61.008,61.655,61.701
	C61.643,61.705,61.655,61.701,61.655,61.701z M61.655,61.15c-0.029-0.032-0.029-0.062,0-0.095V61.15L61.655,61.15z M61.634,61.014
	c-0.002,0-0.006-0.002-0.011-0.006c0.023,0.062-0.038,0.066-0.021,0c-0.017,0.024-0.055-0.045,0.003-0.03
	c-0.071-0.054,0.083-0.065,0.018,0C61.65,60.968,61.673,61.014,61.634,61.014C61.632,61.014,61.646,61.014,61.634,61.014z
	 M61.853,60.978c0.007-0.004,0.015-0.004,0.021,0c-0.069-0.069,0.082-0.05,0.016,0c0.041-0.015,0.023,0.052,0.002,0.03
	c0.018,0.07-0.04,0.058-0.019,0C61.851,61.03,61.851,60.986,61.853,60.978C61.855,60.977,61.853,60.978,61.853,60.978z
	 M61.917,61.056v0.095C61.894,61.118,61.894,61.088,61.917,61.056L61.917,61.056z M61.853,61.071c0.018,0.021,0.018,0.042,0,0.063
	V61.071L61.853,61.071z M61.853,61.755c0.052,0,0.018,0.075,0,0.102V61.755C61.863,61.755,61.853,61.755,61.853,61.755z
	 M61.924,61.905C61.831,61.847,61.851,61.859,61.924,61.905L61.924,61.905z M61.924,61.856
	C61.898,61.823,61.893,61.624,61.924,61.856C61.915,61.844,61.924,61.856,61.924,61.856z M61.924,61.704
	c-0.007,0.001-0.018,0.006-0.018,0.006c0.018-0.04,0.012-0.075-0.019-0.107c-0.03,0.032-0.036,0.067-0.018,0.107
	C61.872,61.049,61.89,61.061,61.924,61.704C61.917,61.705,61.924,61.704,61.924,61.704z M62.054,61.905
	c-0.001-0.006,0.004-0.006,0.012,0H62.054L62.054,61.905z M62.08,61.905c0.056-0.104,0.111-0.104,0.167,0H62.08
	C62.122,61.9,62.08,61.905,62.08,61.905z M62.262,61.905c0.026-0.013,0.052-0.013,0.078,0H62.262
	C62.275,61.905,62.262,61.905,62.262,61.905z M62.354,61.905c0.057-0.104,0.111-0.104,0.167,0H62.354
	C62.396,61.9,62.354,61.905,62.354,61.905z M62.536,61.905c0.027-0.013,0.054-0.013,0.08,0H62.536
	C62.551,61.905,62.536,61.905,62.536,61.905z M62.63,61.905c0.056-0.104,0.112-0.104,0.168,0H62.63
	C62.672,61.9,62.63,61.905,62.63,61.905z M62.812,61.905c0.026-0.013,0.054-0.013,0.08,0H62.812
	C62.826,61.905,62.812,61.905,62.812,61.905z M62.906,61.905c0.055-0.104,0.111-0.104,0.166,0H62.906
	C62.948,61.9,62.906,61.905,62.906,61.905z M63.088,61.905c0.025-0.013,0.053-0.013,0.079,0H63.088
	C63.103,61.905,63.088,61.905,63.088,61.905z M63.181,61.905c0.057-0.104,0.112-0.104,0.168,0H63.181
	C63.222,61.9,63.181,61.905,63.181,61.905z M63.362,61.905c0.027-0.013,0.053-0.013,0.08,0H63.362
	C63.377,61.905,63.362,61.905,63.362,61.905z M63.456,61.905c0.057-0.104,0.111-0.104,0.167,0H63.456
	C63.497,61.9,63.456,61.905,63.456,61.905z M63.638,61.905c0.027-0.013,0.054-0.013,0.08,0H63.638
	C63.653,61.905,63.638,61.905,63.638,61.905z M63.731,61.905c0.056-0.104,0.112-0.104,0.167,0H63.731
	C63.773,61.9,63.731,61.905,63.731,61.905z M63.913,61.905c0.026-0.013,0.054-0.013,0.08,0H63.913
	C63.927,61.905,63.913,61.905,63.913,61.905z M64.007,61.905c0.056-0.104,0.112-0.104,0.167,0H64.007
	C64.048,61.9,64.007,61.905,64.007,61.905z M64.188,61.905c0.026-0.013,0.053-0.013,0.08,0H64.188
	C64.202,61.905,64.188,61.905,64.188,61.905z M64.281,61.905c0.058-0.104,0.112-0.104,0.168,0H64.281
	C64.324,61.9,64.281,61.905,64.281,61.905z M64.463,61.905c0.027-0.013,0.053-0.013,0.08,0H64.463
	C64.478,61.905,64.463,61.905,64.463,61.905z M64.558,61.905c0.056-0.104,0.11-0.104,0.167,0H64.558
	C64.601,61.9,64.558,61.905,64.558,61.905z M64.738,61.905c0.027-0.013,0.054-0.013,0.08,0H64.738
	C64.754,61.905,64.738,61.905,64.738,61.905z M64.833,61.905c0.056-0.104,0.112-0.104,0.168,0H64.833
	C64.875,61.9,64.833,61.905,64.833,61.905z M65.014,61.905c0.027-0.013,0.054-0.013,0.081,0H65.014
	C65.029,61.905,65.014,61.905,65.014,61.905z M65.107,61.905c0.056-0.104,0.112-0.104,0.168,0H65.107
	C65.15,61.9,65.107,61.905,65.107,61.905z M65.302,61.905H65.29C65.299,61.899,65.303,61.899,65.302,61.905L65.302,61.905z
	 M65.438,61.056c0.023,0.032,0.023,0.062,0,0.095V61.056L65.438,61.056z M65.432,61.755c0.054,0,0.019,0.074,0,0.102V61.755
	C65.441,61.755,65.432,61.755,65.432,61.755z M65.502,61.905C65.411,61.848,65.429,61.858,65.502,61.905L65.502,61.905z
	 M65.502,61.855C65.479,61.816,65.474,61.632,65.502,61.855C65.494,61.842,65.502,61.855,65.502,61.855z M65.502,61.704
	c-0.007,0.001-0.016,0.006-0.016,0.006c0.017-0.04,0.011-0.076-0.021-0.107c-0.028,0.032-0.035,0.068-0.017,0.107
	C65.457,61.129,65.474,60.982,65.502,61.704C65.495,61.705,65.502,61.704,65.502,61.704z M65.502,61.135
	c-0.016-0.021-0.016-0.042,0-0.063V61.135L65.502,61.135z M65.502,61.008c-0.007,0.008-0.014,0.008-0.02,0
	c0.018,0.073-0.043,0.054-0.018,0c-0.025,0.021-0.042-0.042,0.001-0.03c-0.071-0.054,0.078-0.064,0.016,0
	C65.504,60.966,65.509,60.985,65.502,61.008C65.499,61.012,65.502,61.008,65.502,61.008z M65.728,58.329
	C65.737,58.15,65.728,58.322,65.728,58.329L65.728,58.329z M65.699,61.056c0.029,0.032,0.029,0.062,0,0.095V61.056L65.699,61.056z
	 M65.699,61.755c0.058,0,0.029,0.089,0,0.114V61.755C65.713,61.755,65.699,61.755,65.699,61.755z M65.785,61.905
	C65.655,61.843,65.715,61.871,65.785,61.905L65.785,61.905z M65.785,61.869C65.757,61.847,65.737,61.595,65.785,61.869
	C65.769,61.856,65.785,61.869,65.785,61.869z M65.785,61.701c-0.014,0.004-0.025,0.009-0.025,0.009
	c0.019-0.039,0.012-0.075-0.017-0.107c-0.028,0.032-0.035,0.067-0.02,0.107C65.726,61.105,65.744,61.014,65.785,61.701
	C65.771,61.705,65.785,61.701,65.785,61.701z M65.785,61.15c-0.028-0.032-0.028-0.062,0-0.095V61.15L65.785,61.15z M65.764,61.014
	c-0.004,0-0.007-0.002-0.01-0.006c0.024,0.065-0.046,0.062-0.023,0c-0.021,0.022-0.05-0.042,0.003-0.03
	c-0.092-0.047,0.104-0.053,0.018,0C65.779,60.972,65.804,61.014,65.764,61.014C65.76,61.014,65.775,61.014,65.764,61.014z
	 M65.982,60.978c0.007-0.002,0.101-0.063,0.037,0c0.047-0.017,0.018,0.055,0.002,0.03c0.018,0.073-0.044,0.054-0.019,0
	C65.98,61.025,65.979,60.994,65.982,60.978C65.985,60.977,65.982,60.978,65.982,60.978z M66.048,61.056v0.095
	C66.022,61.118,66.022,61.088,66.048,61.056L66.048,61.056z M65.982,61.071c0.015,0.021,0.015,0.042,0,0.063V61.071L65.982,61.071z
	 M65.982,61.755c0.052,0,0.017,0.075,0,0.102V61.755C65.993,61.755,65.982,61.755,65.982,61.755z M66.053,61.905
	C65.961,61.847,65.979,61.858,66.053,61.905L66.053,61.905z M66.053,61.856C66.028,61.814,66.023,61.632,66.053,61.856
	C66.046,61.844,66.053,61.856,66.053,61.856z M66.053,61.704c-0.007,0.001-0.018,0.006-0.018,0.006
	c0.02-0.04,0.014-0.076-0.018-0.107c-0.029,0.032-0.035,0.067-0.019,0.107C66.001,61.049,66.02,61.061,66.053,61.704
	C66.046,61.705,66.053,61.704,66.053,61.704z M66.184,61.905c-0.001-0.006,0.002-0.006,0.01,0H66.184L66.184,61.905z M66.209,61.905
	c0.057-0.104,0.112-0.104,0.166,0H66.209C66.252,61.9,66.209,61.905,66.209,61.905z M66.391,61.905c0.026-0.013,0.053-0.013,0.08,0
	H66.391C66.404,61.905,66.391,61.905,66.391,61.905z M66.484,61.905c0.057-0.104,0.112-0.104,0.168,0H66.484
	C66.527,61.9,66.484,61.905,66.484,61.905z M66.666,61.905c0.026-0.013,0.053-0.013,0.079,0H66.666
	C66.681,61.905,66.666,61.905,66.666,61.905z M66.759,61.905c0.057-0.104,0.112-0.104,0.169,0H66.759
	C66.803,61.9,66.759,61.905,66.759,61.905z M66.942,61.905c0.026-0.013,0.053-0.013,0.078,0H66.942
	C66.957,61.905,66.942,61.905,66.942,61.905z M67.035,61.905c0.055-0.104,0.111-0.104,0.167,0H67.035
	C67.077,61.9,67.035,61.905,67.035,61.905z M67.217,61.905c0.026-0.013,0.054-0.013,0.08,0H67.217
	C67.232,61.905,67.217,61.905,67.217,61.905z M67.312,61.905c0.055-0.104,0.111-0.104,0.167,0H67.312
	C67.353,61.9,67.312,61.905,67.312,61.905z M67.492,61.905c0.026-0.013,0.053-0.013,0.08,0H67.492
	C67.507,61.905,67.492,61.905,67.492,61.905z M67.586,61.905c0.056-0.104,0.111-0.104,0.168,0H67.586
	C67.629,61.9,67.586,61.905,67.586,61.905z M67.768,61.905c0.026-0.013,0.053-0.013,0.079,0H67.768
	C67.782,61.905,67.768,61.905,67.768,61.905z M67.86,61.905c0.057-0.104,0.112-0.104,0.168,0H67.86
	C67.902,61.9,67.86,61.905,67.86,61.905z M68.042,61.905c0.026-0.013,0.054-0.013,0.079,0H68.042
	C68.058,61.905,68.042,61.905,68.042,61.905z M68.136,61.905c0.057-0.104,0.112-0.104,0.167,0H68.136
	C68.18,61.9,68.136,61.905,68.136,61.905z M68.318,61.905c0.026-0.013,0.053-0.013,0.078,0H68.318
	C68.332,61.905,68.318,61.905,68.318,61.905z M68.411,61.905c0.055-0.104,0.111-0.104,0.168,0H68.411
	C68.454,61.9,68.411,61.905,68.411,61.905z M68.594,61.905c0.026-0.013,0.053-0.013,0.08,0H68.594
	C68.608,61.905,68.594,61.905,68.594,61.905z M68.688,61.905c0.056-0.104,0.11-0.104,0.167,0H68.688
	C68.729,61.9,68.688,61.905,68.688,61.905z M68.87,61.905c0.026-0.013,0.052-0.013,0.078,0H68.87
	C68.884,61.905,68.87,61.905,68.87,61.905z M68.962,61.905c0.056-0.104,0.111-0.104,0.168,0H68.962
	C69.004,61.9,68.962,61.905,68.962,61.905z M69.145,61.905c0.026-0.013,0.054-0.013,0.079,0H69.145
	C69.16,61.905,69.145,61.905,69.145,61.905z M69.238,61.905c0.055-0.104,0.111-0.104,0.166,0H69.238
	C69.28,61.9,69.238,61.905,69.238,61.905z M69.432,61.905h-0.013C69.429,61.899,69.433,61.899,69.432,61.905L69.432,61.905z
	 M69.566,61.056c0.024,0.032,0.024,0.062,0,0.095V61.056L69.566,61.056z M69.561,61.755c0.055,0,0.021,0.073,0,0.101V61.755
	C69.57,61.755,69.561,61.755,69.561,61.755z M69.633,61.905C69.537,61.846,69.562,61.86,69.633,61.905L69.633,61.905z
	 M69.633,61.856C69.607,61.826,69.6,61.622,69.633,61.856C69.623,61.844,69.633,61.856,69.633,61.856z M69.633,61.704
	c-0.007,0.001-0.018,0.006-0.018,0.006c0.017-0.039,0.011-0.075-0.018-0.107c-0.029,0.031-0.036,0.067-0.02,0.107
	C69.587,61.128,69.603,60.982,69.633,61.704C69.626,61.705,69.633,61.704,69.633,61.704z M69.633,61.135
	c-0.017-0.021-0.017-0.042,0-0.063V61.135L69.633,61.135z M69.633,61.008c-0.007,0.008-0.014,0.008-0.021,0
	c0.018,0.067-0.033,0.06-0.019,0c-0.014,0.021-0.046-0.043,0.003-0.03c-0.069-0.053,0.078-0.064,0.014,0
	C69.633,60.969,69.642,60.979,69.633,61.008C69.629,61.012,69.633,61.008,69.633,61.008z M69.857,58.329
	C69.869,58.151,69.857,58.322,69.857,58.329L69.857,58.329z M69.829,61.056c0.028,0.032,0.028,0.062,0,0.095V61.056L69.829,61.056z
	 M69.829,61.755c0.059,0,0.031,0.089,0,0.114V61.755C69.845,61.755,69.829,61.755,69.829,61.755z M69.914,61.905
	C69.785,61.843,69.845,61.871,69.914,61.905L69.914,61.905z M69.914,61.869C69.887,61.846,69.868,61.595,69.914,61.869
	C69.899,61.856,69.914,61.869,69.914,61.869z M69.914,61.701c-0.012,0.004-0.024,0.009-0.024,0.009
	c0.017-0.039,0.011-0.075-0.018-0.107c-0.028,0.031-0.036,0.067-0.02,0.107C69.855,61.102,69.874,61.017,69.914,61.701
	C69.902,61.705,69.914,61.701,69.914,61.701z M69.914,61.15c-0.028-0.032-0.028-0.062,0-0.095V61.15L69.914,61.15z M69.895,61.014
	c-0.005,0-0.008-0.002-0.012-0.006c0.022,0.062-0.038,0.065-0.022,0c-0.023,0.023-0.049-0.044,0.002-0.03
	c-0.083-0.062,0.098-0.048,0.019,0C69.909,60.97,69.932,61.014,69.895,61.014C69.89,61.014,69.905,61.014,69.895,61.014z
	 M70.112,60.978c0.007-0.004,0.015-0.004,0.021,0c-0.094-0.095,0.073,0.074,0.017,0.03c0.016,0.066-0.032,0.062-0.018,0
	C70.11,61.025,70.108,60.994,70.112,60.978C70.115,60.977,70.112,60.978,70.112,60.978z M70.177,61.056v0.095
	C70.152,61.118,70.152,61.088,70.177,61.056L70.177,61.056z M70.112,61.071c0.017,0.021,0.017,0.042,0,0.063V61.071L70.112,61.071z
	 M70.112,61.755c0.053,0,0.018,0.074,0,0.101V61.755C70.122,61.755,70.112,61.755,70.112,61.755z M70.183,61.905
	C70.091,61.847,70.11,61.859,70.183,61.905L70.183,61.905z M70.183,61.856C70.157,61.818,70.151,61.629,70.183,61.856
	C70.174,61.844,70.183,61.856,70.183,61.856z M70.183,61.704c-0.008,0.001-0.018,0.006-0.018,0.006
	c0.016-0.039,0.011-0.075-0.017-0.107c-0.029,0.031-0.036,0.067-0.021,0.107C70.131,61.045,70.149,61.062,70.183,61.704
	C70.175,61.705,70.183,61.704,70.183,61.704z M70.313,61.905c-0.001-0.006,0.002-0.006,0.01,0H70.313L70.313,61.905z M70.339,61.905
	c0.055-0.104,0.111-0.104,0.168,0H70.339C70.383,61.9,70.339,61.905,70.339,61.905z M70.521,61.905c0.026-0.013,0.054-0.013,0.08,0
	H70.521C70.536,61.905,70.521,61.905,70.521,61.905z M70.615,61.905c0.055-0.104,0.11-0.104,0.166,0H70.615
	C70.656,61.9,70.615,61.905,70.615,61.905z M70.797,61.905c0.025-0.013,0.052-0.013,0.078,0H70.797
	C70.812,61.905,70.797,61.905,70.797,61.905z M70.89,61.905c0.056-0.104,0.11-0.104,0.167,0H70.89
	C70.931,61.9,70.89,61.905,70.89,61.905z M71.071,61.905c0.026-0.013,0.053-0.013,0.079,0H71.071
	C71.085,61.905,71.071,61.905,71.071,61.905z M71.165,61.905c0.056-0.104,0.111-0.104,0.167,0H71.165
	C71.208,61.9,71.165,61.905,71.165,61.905z M71.348,61.905c0.026-0.013,0.053-0.013,0.078,0H71.348
	C71.361,61.905,71.348,61.905,71.348,61.905z M71.44,61.905c0.056-0.104,0.112-0.104,0.167,0H71.44
	C71.482,61.9,71.44,61.905,71.44,61.905z M71.621,61.905c0.026-0.013,0.053-0.013,0.078,0H71.621
	C71.636,61.905,71.621,61.905,71.621,61.905z M71.716,61.905c0.055-0.104,0.11-0.104,0.165,0H71.716
	C71.758,61.9,71.716,61.905,71.716,61.905z M71.896,61.905C71.935,61.905,71.955,61.897,71.896,61.905
	C71.91,61.905,71.896,61.905,71.896,61.905z"/>
</svg>
