<?xml version="1.0" encoding="utf-8"?>
<!-- Generator: Adobe Illustrator 15.0.2, SVG Export Plug-In . SVG Version: 6.00 Build 0)  -->
<!DOCTYPE svg PUBLIC "-//W3C//DTD SVG 1.1//EN" "http://www.w3.org/Graphics/SVG/1.1/DTD/svg11.dtd">
<svg version="1.1" id="Ebene_1" xmlns="http://www.w3.org/2000/svg" xmlns:xlink="http://www.w3.org/1999/xlink" x="0px" y="0px"
	 width="100px" height="100px" viewBox="0 0 100 100" enable-background="new 0 0 100 100" xml:space="preserve">
<circle fill="#B2B2B2" cx="50" cy="50" r="50"/>
<path fill-rule="evenodd" clip-rule="evenodd" d="M49.798,24.783c-0.14,0.053-0.157,0.229-0.329,0.247
	c-0.112,0.144-0.359-0.076-0.453,0.042c-0.191,0.14,0.006,0.422-0.082,0.575c-0.06,0.104-0.167,0.173-0.37,0.164
	c0.012,0.124,0.126,0.147,0.083,0.329c-0.046,0.228-0.347,0.201-0.412,0.411c-0.034,0.301,0.051,0.527,0,0.698
	c-0.041,0.136-0.167,0.181-0.206,0.329c-0.664,0.222-1.366-0.108-2.014-0.165c-0.263,0.226-0.311,0.577-0.37,1.069
	c-0.019,0.158-0.06,0.286-0.041,0.411c0.059,0.385,0.51,0.524,0.369,0.863c-0.188-0.047-0.271-0.176-0.369-0.33
	c-0.087-0.133-0.074-0.396-0.288-0.411c-0.037,0.146,0.104,0.258,0.165,0.37c0.485,0.897,0.92,1.92,1.356,2.959
	c0.031,0.074,0.097,0.134,0.123,0.206c0.025,0.069,0.014,0.171,0.042,0.246c0.024,0.066,0.102,0.141,0.123,0.206
	c0.125,0.375,0.206,0.765,0.329,1.191c0.047,0.163,0.127,0.304,0.164,0.453c0.484,1.952,0.235,4.707-0.288,6.618
	c0.236,0.111,0.515,0.139,0.781,0.206c0.255,0.063,0.512,0.138,0.781,0.205c0.255,0.064,0.546,0.106,0.822,0.165
	c0.416,0.087,0.738,0.295,1.151,0.124c0.127,0.091,0.327,0.112,0.536,0.123c0.139,0.139-0.088,0.328,0,0.412
	c0.369,0.202,0.768,0.283,1.148,0.452c0.357,0.158,0.717,0.364,1.068,0.535c0.724,0.349,1.455,0.671,2.22,0.986
	c0.305,0.395,0.441,0.957,0.576,1.521c0.691,0.135,1.421,0.162,2.138,0.248c0.699,0.083,1.398,0.149,2.095,0.246
	c0.716,0.1,1.431,0.167,2.138,0.247c0.514,0.058,1.008,0.141,1.48,0.286c0.249,0.079,0.421,0.125,0.617,0.248
	c0.028,0.019,0.09,0.017,0.122,0.041c0.062,0.045,0.123,0.096,0.247,0.166c0.224,0.123,0.529,0.435,0.74,0.657
	c0.233,0.247,0.441,0.525,0.615,0.822c0.019,0.028,0.019,0.093,0.043,0.124c0.041,0.057,0.098,0.124,0.163,0.246
	c0.015,0.027,0.021,0.095,0.041,0.124c0.039,0.052,0.116,0.124,0.166,0.246c0.038,0.1,0.069,0.216,0.122,0.329
	c0.024,0.055,0.052,0.137,0.082,0.207c0.037,0.08,0.043,0.248,0.082,0.41c0.019,0.081,0.065,0.167,0.081,0.247
	c0.119,0.536,0.172,1.141,0.291,1.685c0.094,0.445,0.23,0.859,0.408,1.274c0.335,0.777,0.793,1.674,1.193,2.466
	c0.058,0.113,0.092,0.203,0.164,0.329c0.036,0.062,0.071,0.115,0.122,0.205c0.037,0.062,0.072,0.115,0.125,0.206
	c0.123,0.214,0.378,0.532,0.533,0.781c0.071,0.115,0.187,0.275,0.288,0.41c0.024,0.033,0.015,0.086,0.041,0.123
	c0.045,0.063,0.123,0.107,0.164,0.165c0.212,0.283,0.457,0.648,0.698,0.946c0.609,0.742,1.094,1.529,1.646,2.341
	c0.026,0.041,0.013,0.088,0.041,0.124c0.034,0.045,0.112,0.098,0.163,0.164c0.024,0.032,0.017,0.09,0.043,0.124
	c0.088,0.113,0.223,0.215,0.327,0.328c0.419,0.451,0.892,0.905,1.069,1.562c0.189,0.211,0.341,0.449,0.494,0.698
	c0.075,0.124,0.17,0.242,0.245,0.37c0.043,0.07,0.024,0.127,0.084,0.205c0.045,0.062,0.143,0.056,0.123,0.165
	c0.059,0.133,0.038,0.344,0.04,0.533c0.025,0.155,0.272,0.087,0.288,0.247c0.164,0.178,0.309,0.267,0.658,0.329
	c0.14,0.024,0.305,0.062,0.411,0.042c0.202-0.04,0.4-0.312,0.656-0.535c0.215-0.187,0.464-0.389,0.658-0.534
	c0.32-0.241,0.685-0.492,1.068-0.698c0.268-0.146,0.355-0.184,0.74-0.247c0.251-0.041,0.423-0.034,0.617,0.082
	c0.094,0.057,0.114,0.142,0.204,0.205c0.09,0.064,0.19,0.056,0.288,0.123c0.08,0.056,0.09,0.169,0.207,0.207
	c0.077,0.098,0.23,0.124,0.245,0.287c-0.215,0.525-0.593,0.885-0.903,1.314c0.352-0.101,0.631,0.046,0.862,0.165
	c0.049,0.024,0.082,0.018,0.122,0.042c0.08,0.045,0.241,0.186,0.329,0.287c0.015,0.014-0.014,0.068,0,0.082
	c0.037,0.035,0.231-0.013,0.248,0.123c0.116,0.111,0.186,0.213,0.288,0.329c0.102,0.115,0.221,0.143,0.245,0.329
	c0.03,0.213-0.092,0.441-0.204,0.616c-0.021,0.032-0.093,0.075-0.123,0.123c-0.041,0.06-0.047,0.155-0.084,0.205
	c-0.055,0.075-0.17,0.148-0.245,0.247c-0.043,0.055-0.051,0.125-0.084,0.165c-0.141,0.173-0.352,0.353-0.533,0.534
	c-0.2,0.2-0.361,0.42-0.492,0.534c-0.104,0.091-0.25,0.152-0.37,0.246c-0.127,0.1-0.207,0.245-0.329,0.246
	c0.043,0.1,0.118,0.149,0.163,0.247c0.047,0.099,0.062,0.202,0.084,0.329c-0.436,0.236-0.946,0.386-1.438,0.576
	c-0.542,0.208-1.216,0.426-1.809,0.657c-0.135,0.075,0.016,0.17,0,0.246c-0.017,0.066-0.176,0.216-0.248,0.288
	c-0.077,0.078-0.234,0.196-0.41,0.205c-0.268,0.015-0.415-0.148-0.658-0.246c-1.128,0.378-2.193,0.821-3.329,1.191
	c-0.144-0.022-0.229-0.182-0.329-0.288c-0.051-0.054-0.094-0.119-0.164-0.204c-0.061-0.077-0.159-0.186-0.247-0.288
	c-0.37,0.009-0.848,0.1-1.232,0.041c-0.221-0.033-0.384-0.15-0.535-0.206c-0.03-0.127-0.073-0.249-0.123-0.371
	c-0.047-0.115-0.114-0.208-0.163-0.328c-0.094-0.227-0.112-0.498-0.247-0.697c-0.062-0.093-0.121-0.151-0.207-0.207
	c-0.075-0.05-0.194-0.062-0.286-0.122c-0.034-0.023-0.049-0.102-0.083-0.124c-0.048-0.032-0.115-0.007-0.164-0.041
	c-0.034-0.024-0.049-0.1-0.082-0.123c-0.04-0.028-0.092-0.01-0.122-0.041c-0.043-0.042-0.071-0.132-0.125-0.205
	c-0.096-0.135-0.243-0.354-0.329-0.535c-0.127-0.271-0.194-0.596-0.329-0.863c-0.053-0.108-0.131-0.184-0.204-0.287
	c-0.035-0.047-0.047-0.111-0.082-0.164c-0.01-0.017-0.077-0.028-0.081-0.041c-0.011-0.021,0.01-0.063,0-0.083
	c-0.029-0.042-0.097-0.071-0.125-0.123s-0.008-0.113-0.041-0.165c-0.051-0.08-0.159-0.158-0.206-0.246
	c-0.072-0.139-0.095-0.297-0.164-0.452c-0.169-0.381-0.4-0.836-0.576-1.274c-0.12-0.301-0.2-0.616-0.329-0.904
	c-0.12-0.271-0.294-0.521-0.451-0.78c-0.645-1.065-1.153-2.141-1.767-3.124c-0.384,0-0.768,0-1.152,0
	c-0.094,0.507-0.014,1.191-0.041,1.767c0.007,0.119,0.282-0.034,0.288,0.083c0,0.493,0,0.987,0,1.479
	c0.409,0.016,0.888-0.039,1.232,0.042c0,1.246,0,2.493,0,3.74c0.2,0.087,0.503,0.072,0.699,0.163
	c-0.024,0.153,0.067,0.424-0.082,0.453c0.133,0.044,0.067,0.288,0.082,0.451c-0.116,0.062-0.258,0.1-0.451,0.083
	c-0.168,0.628-0.396,1.192-0.617,1.767c0.032,0.201,0.152,0.315,0.124,0.575c0.076,0.143,0.221,0.208,0.329,0.328
	c0.088,0.101,0.178,0.239,0.286,0.371c0.062,0.075,0.157,0.128,0.206,0.206c0.076,0.118,0.147,0.331,0.248,0.493
	c0.065,0.109,0.1,0.276,0.163,0.492c0.09,0.308,0.2,0.818,0.164,1.357c-0.019,0.307-0.088,0.521-0.164,0.78
	c-0.043,0.148-0.039,0.308-0.082,0.411c-0.032,0.076-0.143,0.209-0.206,0.329c-0.123,0.231-0.233,0.396-0.411,0.617
	c-0.038,0.048-0.081,0.069-0.122,0.123c-0.039,0.048-0.045,0.125-0.082,0.164c-0.034,0.034-0.122,0.048-0.165,0.082
	c-0.155,0.124-0.327,0.338-0.534,0.452c-0.23,0.128-0.541,0.268-0.864,0.37c-0.38,0.119-0.952,0.226-1.521,0.163
	c-0.253-0.026-0.525-0.13-0.78-0.204c-0.084-0.025-0.19-0.019-0.248-0.042c-0.062-0.025-0.176-0.146-0.286-0.205
	c-0.11-0.057-0.236-0.064-0.328-0.124c-0.093-0.058-0.187-0.203-0.289-0.287c-0.034-0.028-0.092-0.011-0.122-0.041
	c-0.021-0.018-0.022-0.066-0.041-0.082c-0.041-0.032-0.141-0.058-0.165-0.082c-0.027-0.026-0.015-0.096-0.041-0.124
	c-0.084-0.09-0.223-0.24-0.329-0.369c-0.121-0.149-0.229-0.387-0.37-0.616c-0.069-0.115-0.104-0.285-0.164-0.494
	c-0.077-0.264-0.146-0.529-0.165-0.945c-0.004-0.089-0.004-0.144,0-0.247c0.004-0.096,0.021-0.225,0-0.328
	c-0.028-0.15-0.133-0.242-0.204-0.37c-0.037-0.064-0.043-0.134-0.082-0.205c-0.071-0.127-0.146-0.209-0.206-0.411
	c-0.106-0.348-0.198-0.833-0.166-1.397c0.008-0.136,0.015-0.314,0.043-0.452c0.015-0.076,0.096-0.155,0.123-0.247
	c0.028-0.101,0.008-0.201,0.04-0.287c0.035-0.089,0.108-0.217,0.166-0.329c0.028-0.061,0.047-0.098,0.082-0.164
	c0.059-0.121,0.108-0.174,0.204-0.288c0.01-0.011,0.077-0.03,0.084-0.041c0.03-0.071,0.055-0.119,0.122-0.206
	c0.097-0.124,0.196-0.187,0.37-0.327c0.092-0.077,0.161-0.191,0.245-0.248c0.076-0.05,0.221-0.066,0.329-0.123
	c0.092-0.048,0.162-0.129,0.247-0.165c0.104-0.043,0.252-0.044,0.37-0.081c0.106-0.033,0.198-0.105,0.288-0.123
	c0.303-0.06,0.626-0.03,0.987-0.042c0.178-0.314,0.262-0.724,0.411-1.068c-0.063-0.252-0.225-0.406-0.288-0.657
	c-0.503,0.333-1.063,0.734-1.603,1.109c-0.047,0.032-0.112,0.049-0.166,0.083c-0.016,0.009-0.028,0.075-0.04,0.082
	c-0.217,0.098-0.454,0.254-0.74,0.369c-0.983,0.396-2.74,0.247-4.234,0.247c-1.018,0-2.035,0-3.041,0
	c-0.201,0.375-0.321,0.773-0.493,1.15c-0.17,0.374-0.38,0.721-0.575,1.068c-0.298,0.53-0.596,1.029-0.946,1.521
	c-0.158,0.224-0.357,0.426-0.534,0.657c-0.065,0.086-0.1,0.167-0.164,0.246c-0.12,0.146-0.275,0.265-0.412,0.411
	c-0.137,0.149-0.235,0.308-0.37,0.453c-0.121,0.128-0.284,0.25-0.411,0.369c-0.289,0.271-0.551,0.535-0.863,0.781
	c-0.582,0.46-1.201,0.95-1.891,1.356c-0.676,0.398-1.394,0.789-2.178,1.11c-0.095,0.038-0.191,0.088-0.288,0.122
	c-0.22,0.08-0.381,0.116-0.617,0.206c-0.597,0.229-1.483,0.469-2.22,0.616c-2.204,0.443-5.068,0.26-7.028-0.287
	c-0.497-0.14-0.974-0.277-1.438-0.452c-0.115-0.044-0.259-0.079-0.37-0.123c-0.104-0.041-0.191-0.122-0.288-0.165
	c-0.107-0.047-0.21-0.07-0.329-0.124c-0.266-0.119-0.647-0.287-0.945-0.451c-0.098-0.054-0.195-0.152-0.288-0.205
	c-0.186-0.108-0.407-0.192-0.616-0.329c-0.143-0.094-0.24-0.18-0.411-0.288c-0.135-0.083-0.262-0.181-0.412-0.287
	c-0.729-0.521-1.396-1.086-2.013-1.727c-0.622-0.646-1.233-1.309-1.727-2.055c-0.496-0.752-0.967-1.522-1.356-2.385
	c-0.102-0.225-0.195-0.434-0.288-0.657c-0.078-0.189-0.14-0.34-0.205-0.534c-0.083-0.253-0.191-0.532-0.288-0.863
	c-0.337-1.15-0.634-2.519-0.699-3.987c-0.082-1.86,0.21-3.615,0.616-5.056c0.087-0.307,0.195-0.62,0.288-0.903
	c0.031-0.096,0.083-0.208,0.124-0.328c0.136-0.413,0.401-0.894,0.576-1.317c0.054-0.131,0.124-0.343,0.205-0.492
	c0.026-0.047,0.099-0.075,0.124-0.123c0.028-0.055,0.01-0.11,0.041-0.164c0.025-0.045,0.095-0.074,0.124-0.124
	c0.033-0.058,0.054-0.115,0.082-0.164c0.085-0.147,0.145-0.288,0.247-0.452c0.085-0.136,0.184-0.26,0.288-0.412
	c0.165-0.241,0.315-0.47,0.493-0.697c0.417-0.531,0.897-1.137,1.397-1.645c0.359-0.363,0.811-0.774,1.233-1.109
	c0.354-0.279,0.688-0.568,1.069-0.823c1.827-1.217,4.011-2.214,6.7-2.63c0.094-0.084,0.015-0.341,0.041-0.493
	c-0.058-0.182,0.246-0.001,0.246-0.124c-0.002-0.521,0.04-0.994,0.165-1.398c0.053-0.172,0.16-0.321,0.247-0.493
	c0.086-0.17,0.118-0.358,0.206-0.494c0.125-0.194,0.332-0.305,0.452-0.492c-0.218-0.061-0.374-0.214-0.576-0.329
	c-0.199-0.115-0.21-0.105-0.411-0.329c-0.141-0.158-0.201-0.263-0.329-0.493c-0.189-0.344-0.333-0.686-0.288-1.357
	c0.03-0.447,0.208-0.954,0.247-1.439c0.04-0.491-0.034-0.864,0.041-1.232c0.043-0.216,0.119-0.329,0.246-0.493
	c0.074-0.094,0.179-0.168,0.248-0.247c0.032-0.039,0.05-0.127,0.082-0.165c0.087-0.1,0.277-0.189,0.329-0.37
	c-0.245-1.316-0.476-2.815-0.575-4.274c-0.018-0.265-0.012-0.536-0.041-0.782c-0.027-0.229-0.122-0.436-0.042-0.658
	c-0.713,0.089-1.375,0.277-2.055,0.412c-0.669,0.133-1.346,0.269-2.056,0.37c-0.145-0.197-0.176-0.509-0.205-0.822
	c0.257-0.165,0.579-0.151,0.863-0.205c0.291-0.057,0.575-0.107,0.863-0.165c0.764-0.153,1.454-0.383,2.384-0.411
	c0.062-0.132-0.137-0.238-0.246-0.329c-0.012-0.01-0.03-0.078-0.042-0.083c-0.02-0.009-0.065,0.013-0.083,0
	c-0.034-0.024-0.048-0.101-0.082-0.123c-0.05-0.034-0.11-0.011-0.164-0.042c-0.17-0.096-0.279-0.156-0.576-0.206
	c-0.298-0.049-0.541-0.038-0.905,0.041c-0.073,0.016-0.169,0.061-0.247,0.082c-0.099,0.028-0.193,0.02-0.288,0.041
	c-1.028,0.234-2.345,0.494-3.411,0.657c-0.098-0.231-0.265-0.61-0.165-0.904c-0.024-0.094,0.118-0.11,0.165-0.123
	c0.088-0.024,0.167-0.023,0.247-0.041c0.754-0.167,1.553-0.287,2.384-0.452c0.466-0.092,0.845-0.182,1.397-0.247
	c0.142-0.017,0.314-0.04,0.452-0.041c0.721-0.008,1.351,0.24,1.85,0.617c0.209-0.712,0.409-1.375,0.781-1.973
	c0.047-0.076,0.131-0.209,0.206-0.329c0.119-0.191,0.291-0.45,0.452-0.657c0.259-0.333,0.558-0.621,0.863-0.946
	c0.028-0.03,0.05-0.1,0.083-0.123c0.04-0.027,0.091-0.01,0.123-0.042c0.126-0.123,0.237-0.25,0.37-0.37
	c0.09-0.08,0.176-0.21,0.288-0.288c0.04-0.028,0.087-0.014,0.124-0.041c0.098-0.077,0.178-0.163,0.288-0.247
	c0.032-0.024,0.086-0.014,0.123-0.041c0.035-0.025,0.048-0.099,0.083-0.123c0.039-0.028,0.086-0.016,0.123-0.042
	c0.067-0.046,0.134-0.125,0.206-0.165c0.304-0.168,0.688-0.284,1.068-0.411c0.16-0.054,0.339-0.151,0.535-0.165
	c0.042-0.311,0.168-0.533,0.329-0.781c0.122-0.189,0.276-0.37,0.411-0.576c0.066-0.102,0.049-0.261,0.206-0.287
	c-0.07-0.655,0.093-1.271,0-1.891c-0.011-0.074-0.074-0.279-0.123-0.412c-0.05-0.131-0.159-0.246-0.165-0.369
	c-0.008-0.153,0.097-0.454,0.165-0.699c0.048-0.18,0.077-0.283,0.123-0.493c0.024-0.109,0.104-0.268,0.164-0.412
	c0.069-0.167,0.134-0.31,0.206-0.493c0.052-0.132,0.087-0.25,0.164-0.37c0.048-0.073,0.096-0.206,0.165-0.329
	c0.042-0.076,0.118-0.119,0.165-0.206c0.106-0.198,0.11-0.299,0.287-0.452c0.028-0.024,0.057-0.017,0.083-0.041
	c0.131-0.125,0.408-0.325,0.534-0.494c0.28-0.065,0.487-0.212,0.74-0.328c0.069-0.032,0.733-0.124,0.986-0.124
	c0.27,0,0.633,0.086,0.987,0.164c0.68,0.151,1.217,0.468,1.808,0.781c0.025,0.013,0.095,0.02,0.124,0.041
	c0.016,0.011,0.026,0.074,0.041,0.083c0.145,0.077,0.296,0.089,0.411,0.164c0.108,0.071,0.222,0.242,0.37,0.37
	c0.035,0.03,0.089,0.055,0.124,0.083c0.051,0.041,0.095,0.111,0.165,0.165c0.02,0.016,0.105,0.021,0.123,0.041
	c0.024,0.028,0.022,0.093,0.041,0.124c0.018,0.028,0.065,0.057,0.083,0.082c0.021,0.031,0.017,0.09,0.041,0.124
	c0.037,0.049,0.145,0.157,0.205,0.247c0.045,0.066,0.117,0.15,0.124,0.164c0.048,0.104,0.042,0.273,0.082,0.411
	c0.037,0.127,0.112,0.242,0.124,0.329c0.053,0.402-0.081,0.954-0.083,1.479c-0.001,0.464,0.149,0.877-0.082,1.192
	c-0.333,0.22-0.064,0.858,0.041,1.233C49.644,24.208,49.783,24.497,49.798,24.783z M50.045,45.746
	c-0.14,0.026-0.383-0.053-0.453,0.041C49.702,45.866,49.974,45.834,50.045,45.746z M35.823,46.814
	c-0.103,0.192-0.167,0.386-0.206,0.616c-0.053,0.312-0.092,0.604-0.083,0.946c0.192,0,0.384,0,0.576,0
	c-0.027-0.645,0.055-1.398-0.041-1.973C36.005,46.581,35.904,46.664,35.823,46.814z M34.097,51.376
	c-0.077,0.035-0.135,0.119-0.206,0.164c-0.078,0.051-0.167,0.083-0.246,0.124c-0.166,0.085-0.359,0.177-0.534,0.247
	c-0.151,0.06-0.32,0.063-0.452,0.123c-0.012,0.005-0.027,0.071-0.041,0.082c-0.031,0.023-0.096,0.025-0.124,0.04
	c-0.561,0.333-1.11,0.743-1.603,1.11c-0.237,0.178-0.485,0.354-0.617,0.617c1.048,0.942,2.183,2,3.207,2.959
	c0.273,0.257,0.564,0.525,0.822,0.74c0.06,0.05,0.228,0.283,0.247,0.123c0-0.767,0-1.533,0-2.302
	c0.007-0.116-0.269,0.05-0.206-0.123c-0.027-1.315,0.055-2.74-0.041-3.987C34.269,51.392,34.162,51.348,34.097,51.376z
	 M27.398,54.295c-0.081,0.078-0.283,0.129-0.206,0.246c0.09,0.06,0.203-0.131,0.247-0.246c0.091-0.048,0.257-0.233,0.205-0.288
	C27.576,54.089,27.492,54.2,27.398,54.295z M34.467,60.459c-0.062-0.129-0.208-0.176-0.206-0.369
	c-0.059-0.125-0.007-0.246,0.042-0.37c-0.594-0.621-1.169-1.286-1.727-1.89c-0.148-0.161-0.335-0.317-0.452-0.453
	c-0.053-0.061-0.069-0.146-0.123-0.205c-0.091-0.099-0.196-0.187-0.288-0.288c-0.338-0.37-0.739-0.771-1.027-1.108
	c-0.34-0.399-0.769-0.876-1.11-1.192c-0.002-0.026-0.005-0.05-0.041-0.042c-0.356,0.385-0.635,0.845-0.946,1.274
	c1.114,1.023,2.221,2.054,3.329,3.083c0.34,0.315,0.71,0.672,1.028,0.944c0.323,0.276,0.653,0.62,0.945,0.864
	c0.192,0.159,0.356,0.328,0.535,0.493c0.128,0.117,0.269,0.292,0.412,0.411c0.187,0.154,0.341,0.266,0.616,0.204
	c-0.012-0.259,0.007-0.485,0.042-0.699c-0.086,0.029-0.092-0.063-0.165-0.081c-0.265-0.064-0.602,0.08-0.781-0.041
	C34.61,60.729,34.42,60.713,34.467,60.459z M60.896,55.199c-0.996,0.015-1.78-0.086-2.631-0.123c-0.69-0.03-1.257-0.045-1.931-0.042
	c-0.033,0.01-0.05,0.035-0.041,0.082c0,0.027,0,0.055,0,0.083c0.999,0.096,2.176,0.014,3.245,0.041
	c0.11-0.013-0.037,0.23,0.125,0.164c0.355-0.035,0.883,0.046,1.232,0c0.102-0.014,0.324,0.048,0.247-0.164
	C61.134,55.109,60.944,55.198,60.896,55.199z M26.37,55.322c-0.073,0.01-0.082,0.082-0.124,0.123c-0.127,0.127-0.25,0.223-0.37,0.37
	c-0.026,0.032-0.017,0.094-0.041,0.123c-0.027,0.035-0.095,0.047-0.123,0.082c-0.027,0.032-0.018,0.094-0.042,0.124
	c-0.027,0.034-0.096,0.047-0.123,0.082c-0.025,0.033-0.021,0.093-0.042,0.124c-0.002,0.002-0.035,0.034-0.041,0.04
	c-0.092,0.097-0.14,0.193-0.205,0.288c-0.109,0.153-0.233,0.302-0.329,0.452c-0.2,0.311-0.354,0.652-0.535,0.986
	c-0.045,0.084-0.125,0.123-0.164,0.206c-0.042,0.083-0.042,0.2-0.082,0.287c-0.125,0.267-0.28,0.541-0.37,0.781
	c-0.077,0.204-0.144,0.373-0.205,0.534c-0.11,0.283-0.203,0.562-0.289,0.862c-0.286,1.005-0.458,2.106-0.534,3.289
	c0.64-0.018,1.275-0.041,1.891-0.083c-0.239-3.567,0.688-6.289,1.973-8.466C26.509,55.485,26.478,55.364,26.37,55.322z
	 M35.495,55.363c0,0.041,0,0.082,0,0.123c0.025,0.923-0.033,2.006,0,2.877c0.004,0.125-0.06,0.297,0.082,0.37
	c0.033-0.966,0.158-2.219,0.165-3.082c0-0.057,0.067-0.272-0.082-0.288C35.604,55.363,35.549,55.363,35.495,55.363z M37.262,56.062
	c0.123,0,0.247,0,0.37,0c0.054-0.193,0.042-0.451,0.041-0.699c-0.137,0-0.274,0-0.411,0C37.262,55.597,37.262,55.829,37.262,56.062z
	 M39.646,55.363c-0.193,0.026-0.493-0.053-0.617,0.041C39.222,55.378,39.521,55.458,39.646,55.363z M27.85,57.089
	c-0.059,0.15-0.176,0.303-0.247,0.453c-0.066,0.14-0.128,0.253-0.164,0.329c-0.028,0.058-0.001,0.124,0,0.122
	c-0.096,0.298-0.188,0.572-0.288,0.781c-0.036,0.076-0.092,0.168-0.123,0.247c-0.082,0.214-0.14,0.494-0.206,0.74
	c-0.071,0.263-0.167,0.528-0.206,0.78c-0.04,0.257-0.015,0.544-0.042,0.821c-0.025,0.263-0.102,0.535-0.082,0.823
	c1.953-0.09,3.903-0.181,5.877-0.247c0.019-0.15-0.125-0.199-0.206-0.287c-0.108-0.12-0.264-0.273-0.328-0.37
	c-0.102-0.153-0.281-0.264-0.371-0.37c-0.025-0.031-0.019-0.095-0.042-0.124c-0.017-0.023-0.059-0.057-0.082-0.081
	c-0.179-0.198-0.395-0.379-0.575-0.577c-0.092-0.1-0.154-0.227-0.247-0.327c-0.119-0.13-0.295-0.257-0.37-0.37
	c-0.065-0.1-0.136-0.17-0.206-0.247c-0.192-0.211-0.484-0.458-0.617-0.657c-0.078-0.118-0.167-0.159-0.246-0.247
	c-0.093-0.101-0.154-0.228-0.247-0.328c-0.119-0.13-0.294-0.257-0.37-0.37c-0.147-0.222-0.382-0.354-0.493-0.575
	c-0.042,0-0.049-0.034-0.083-0.042C27.825,56.966,27.869,57.04,27.85,57.089z M37.385,57.83c0.029-0.082,0.11-0.11,0.206-0.124
	c0-0.233,0-0.466,0-0.698c-0.096,0-0.191,0-0.287,0C37.336,57.275,37.225,57.689,37.385,57.83z M59.046,57.295
	c-2.549,0-5.606-0.033-7.933,0.042c0.142,0.145,0.362,0.076,0.534,0.081c1.446,0.043,2.904,0,4.316,0c1.526,0,3.188,0.088,4.644,0
	c0.057-0.004,0.247,0.064,0.247-0.081c0-0.097,0-0.192,0-0.288c-0.019-0.093-0.202-0.017-0.288-0.041
	C60.37,57.395,59.648,57.295,59.046,57.295z M40.961,57.295c-0.6-0.03-1.263,0.023-1.809,0c-0.032,0.009-0.047,0.034-0.041,0.082
	c0.686,0.096,1.548,0.014,2.302,0.041C41.379,57.207,41.098,57.302,40.961,57.295z M41.865,57.418
	c0.24,0.054,0.856,0.026,0.864-0.123c-0.329,0-0.658,0-0.986,0C41.709,57.387,41.804,57.404,41.865,57.418z M44.742,57.295
	c-0.031,0.009-0.047,0.034-0.041,0.082c-0.043,0.003-0.032,0.053,0.041,0.041c0.822-0.027,1.818,0.037,2.59,0
	c0.075-0.004,0.277,0.067,0.288-0.081C46.743,57.24,45.688,57.322,44.742,57.295z M39.234,60.459
	c0.069,0.037,0.126-0.051,0.165-0.081c0.441-0.35,0.837-0.809,1.233-1.151c-0.479,0-0.958,0-1.438,0
	C39.169,59.676,39.266,60.004,39.234,60.459z M42.03,60.254c-0.201,0.219-0.397,0.419-0.576,0.616
	c-0.239,0.265-0.499,0.546-0.699,0.782c0.015-0.017-0.223,0.111-0.041,0.122c2.31,0.144,4.721,0.184,7.028,0.329
	c-0.021-0.965-0.059-1.914-0.083-2.877c-1.562,0-3.124,0-4.685,0C42.647,59.557,42.32,59.939,42.03,60.254z M48.605,59.35
	c0,0.315,0,0.631,0,0.946c0,0.082,0,0.163,0,0.246c0,0.041,0,0.082,0,0.123c0,0.023,0.034,0.047,0.042,0
	c-0.015-0.493,0.073-0.886,0.041-1.397c-0.009-0.031-0.035-0.048-0.083-0.041C48.605,59.268,48.605,59.31,48.605,59.35z
	 M51.811,59.35c0.221,0.896,0.297,1.929,0.37,2.919c0.024,0.32,0.097,0.657,0.124,0.986c0.121,1.408,0.027,2.87-0.205,4.151
	c0.807,0,1.618,0,2.425,0c0.987,0,2.175,0.107,2.878-0.083c0.434-0.116,0.769-0.43,1.066-0.615c0.039-0.023,0.086-0.016,0.125-0.042
	c0.062-0.043,0.104-0.121,0.164-0.164c0.036-0.026,0.092-0.017,0.124-0.041c0.172-0.132,0.411-0.297,0.533-0.411
	c0.033-0.03,0.086-0.014,0.123-0.042c0.056-0.041,0.108-0.124,0.166-0.163c0.034-0.025,0.092-0.022,0.122-0.041
	c0.129-0.081,0.282-0.233,0.37-0.288c0.037-0.023,0.084-0.015,0.122-0.041c0.058-0.04,0.104-0.121,0.166-0.164
	c0.127-0.09,0.316-0.134,0.37-0.288c0-1.933,0-3.864,0-5.796c-3.015,0-6.029,0-9.044,0C51.758,59.227,51.76,59.341,51.811,59.35z
	 M61.717,59.35c0.004,0.14-0.004,0.315,0,0.493c0.004,0.164-0.06,0.457,0.082,0.453c0.096-0.274,0.014-0.727,0.043-1.069
	c-0.043,0-0.084,0-0.125,0C61.717,59.268,61.717,59.31,61.717,59.35z M49.551,62.187c0.178,0,0.357,0,0.535,0
	c-0.18-0.643-0.323-1.322-0.535-1.933C49.551,60.897,49.551,61.542,49.551,62.187z M61.717,61.323c0,0.914,0,1.838,0,2.754
	c0,0.935,0.006,1.844,0.125,2.671c0-1.85,0-3.698,0-5.548c-0.043,0-0.084,0-0.125,0C61.717,61.241,61.717,61.282,61.717,61.323z
	 M62.826,61.446c0.192-0.027,0.493,0.054,0.617-0.041c-0.071-0.037-0.075-0.144-0.124-0.205c-0.164,0-0.327,0-0.493,0
	C62.826,61.282,62.826,61.363,62.826,61.446z M33.151,63.461c-2.176-0.103-4.56-0.233-6.658-0.288
	c0.047,0.227,0.011,0.536,0.082,0.739c2.475-0.101,4.972-0.181,7.398-0.329C33.752,63.374,33.416,63.473,33.151,63.461z
	 M49.51,63.213c0,0.289,0,0.576,0,0.864c0.261,0.013,0.584-0.035,0.781,0.041c-0.023-0.319-0.07-0.614-0.082-0.945
	C49.96,63.172,49.703,63.159,49.51,63.213z M47.701,63.255c-1.125,0.1-2.429,0.111-3.658,0.164
	c-1.193,0.051-2.398,0.093-3.534,0.206c0.235,0.149,0.519,0.071,0.78,0.083c2.106,0.083,4.449,0.214,6.494,0.286
	c-0.027-0.233,0.054-0.574-0.041-0.739C47.729,63.255,47.715,63.255,47.701,63.255z M22.753,65.311
	c0.276,3.82,1.673,6.52,3.617,8.672c0.27-0.415,0.72-0.758,0.986-1.11c0.138-0.183,0.34-0.344,0.452-0.493
	c0.114-0.15,0.273-0.238,0.329-0.41c-1.562-1.768-2.765-3.894-3.288-6.699c-0.729,0.003-1.419-0.033-2.096-0.083
	C22.753,65.228,22.753,65.27,22.753,65.311z M49.51,67.077c0.035-0.322,0.213-0.5,0.247-0.821c0.039-0.045,0.152-0.014,0.124-0.124
	c0.076-0.308,0.156-0.611,0.247-0.904c-0.206,0-0.412,0-0.617,0C49.567,65.874,49.41,66.525,49.51,67.077z M42.358,65.557
	c-0.037,0.108,0.113,0.147,0.165,0.205c0.071,0.083,0.133,0.17,0.206,0.246c0.107,0.116,0.256,0.238,0.329,0.329
	c0.043,0.056,0.037,0.114,0.082,0.165c0.14,0.152,0.313,0.302,0.452,0.451c0.074,0.079,0.136,0.174,0.206,0.247
	c0.07,0.074,0.142,0.184,0.247,0.206c1.288,0,2.576,0,3.864,0c-0.075-0.652-0.017-1.437-0.083-2.096
	C46.008,65.398,44.155,65.449,42.358,65.557z M26.863,65.516c0.111,0.579,0.287,1.271,0.535,1.644
	c0.145,0.22,0.273,0.573,0.37,0.781c0.014,0.03,0.02,0.065,0.041,0.123c0.106,0.286,0.197,0.504,0.329,0.698
	c0.127,0.189,0.256,0.364,0.37,0.535c0.061,0.091,0.145,0.157,0.206,0.247c0.251,0.362,0.438,0.769,0.781,1.026
	c1.107-1.233,2.235-2.465,3.329-3.658c0.183-0.198,0.395-0.377,0.575-0.575c0.093-0.101,0.155-0.228,0.247-0.329
	c0.094-0.103,0.264-0.165,0.288-0.328c-2.37-0.096-4.705-0.228-7.11-0.288C26.829,65.441,26.815,65.509,26.863,65.516z M41.742,67.2
	c-0.034-0.032-0.047-0.093-0.083-0.123c-0.042-0.037-0.118-0.04-0.165-0.083c-0.122-0.111-0.227-0.28-0.329-0.369
	c-0.051-0.044-0.121-0.043-0.165-0.082c-0.142-0.129-0.334-0.402-0.534-0.493c-0.011-0.005-0.029-0.072-0.041-0.083
	c-0.128-0.107-0.298-0.301-0.412-0.328c-0.285-0.07-0.522,0.109-0.821,0.041c-0.117,0.33,0.256,0.522,0.411,0.698
	c0.061,0.07,0.1,0.177,0.164,0.247c0.047,0.052,0.14,0.097,0.206,0.164c0.192,0.198,0.409,0.56,0.617,0.617
	c0.403,0.11,0.794-0.08,1.315,0C41.933,67.293,41.801,67.258,41.742,67.2z M59.826,66.831c-0.045,0.03-0.067,0.087-0.122,0.122
	c-0.058,0.039-0.149,0.043-0.207,0.083c-0.047,0.034-0.077,0.091-0.122,0.123c-0.048,0.034-0.108,0.044-0.166,0.082
	c-0.094,0.065-0.186,0.178-0.286,0.247c-0.041,0.026-0.12,0.051-0.165,0.082c-0.499,0.358-1.063,0.646-1.81,0.699
	c-1.463,0.104-3.194-0.078-5.013,0c-0.086,0.353-0.182,0.695-0.288,1.027c2.029-0.112,4.298,0.168,6-0.041
	c0.135-0.017,0.303-0.015,0.413-0.042c0.06-0.015,0.129-0.09,0.204-0.123c0.086-0.036,0.227-0.052,0.288-0.082
	c0.157-0.078,0.403-0.285,0.493-0.37c0.032-0.031,0.083-0.014,0.122-0.041c0.049-0.033,0.069-0.086,0.125-0.124
	c0.225-0.15,0.423-0.29,0.615-0.41c0.143-0.088,0.192-0.133,0.288-0.205c0.27-0.201,0.58-0.35,0.78-0.576
	c-0.063-0.165-0.043-0.43-0.081-0.534c-0.011-0.025-0.076-0.085-0.041-0.163c0-0.138,0-0.275,0-0.412
	c-0.002-0.024-0.007-0.048-0.041-0.041C60.539,66.39,60.129,66.623,59.826,66.831z M35.125,67.406
	c-0.079,0.072-0.16,0.163-0.206,0.205c-0.029,0.027-0.092,0.014-0.123,0.041c-0.16,0.146-0.281,0.339-0.411,0.453
	c-0.056,0.048-0.145,0.067-0.206,0.122c-0.396,0.363-0.773,0.769-1.192,1.151c-0.182,0.167-0.406,0.339-0.617,0.534
	c-0.474,0.441-0.715,0.673-1.233,1.151c-0.096,0.088-0.618,0.526-0.616,0.575c0.004,0.093,0.684,0.496,0.739,0.534
	c0.063,0.044,0.108,0.123,0.164,0.165c0.038,0.026,0.091,0.015,0.124,0.04c0.19,0.145,0.414,0.311,0.576,0.411
	c0.024,0.016,0.056,0.064,0.083,0.082c0.261,0.174,0.623,0.349,0.863,0.453c0.077,0.032,0.17,0.046,0.246,0.081
	c0.157,0.076,0.293,0.206,0.411,0.247c0.114,0.04,0.25,0.008,0.37,0.041c0.197,0.055,0.348,0.21,0.575,0.206
	c0.046,0.063,0.119,0.1,0.165,0.164c0.33,0.026,0.565,0.147,0.862,0.205c-0.081-1.315-0.121-2.674-0.165-4.027
	c-0.685-0.028-1.479,0.055-2.096-0.041c0.017-0.312-0.04-0.698,0.042-0.945c0.67,0,1.343,0,2.014,0
	c0.006-0.349-0.072-0.614-0.042-0.986c-0.098-0.025-0.298,0.051-0.329-0.042C35.032,68.013,35.097,67.634,35.125,67.406
	c0.179,0.016,0.358,0.028,0.287-0.206C35.259,67.141,35.207,67.331,35.125,67.406z M37.509,67.365
	c0.005-0.055,0.005-0.299-0.042-0.165C37.462,67.255,37.461,67.498,37.509,67.365z M41.783,68.804
	c0.148,0.162,0.285,0.396,0.493,0.452c0.229,0.062,0.551,0,0.822,0c0.259,0,0.523,0,0.822,0c0.12-0.023-0.063-0.064-0.041-0.124
	c-0.294-0.158-0.438-0.466-0.74-0.616c-0.119-0.333-0.601-0.246-1.068-0.246c-0.291,0-0.56-0.031-0.74,0.041
	C41.469,68.454,41.621,68.627,41.783,68.804z M45.523,69.091c0.066,0.071,0.141,0.183,0.247,0.206c0.863,0,1.726,0,2.589,0
	c-0.002-0.084,0.091-0.098,0.124-0.165c0.113-0.228,0-0.592,0.041-0.862c-1.233,0.026-2.576-0.055-3.741,0.041
	C45.069,68.534,45.303,68.856,45.523,69.091z M39.029,69.256c0.22-0.026,0.547,0.054,0.699-0.042
	c-0.269-0.143-0.419-0.402-0.659-0.575C38.986,68.774,39.048,69.056,39.029,69.256z M37.385,70.242
	c-0.047,0.006-0.044,0.065-0.041,0.123c-0.105,1.347-0.129,2.775-0.206,4.151c0.253-0.021,0.393,0.073,0.658,0.04
	c-0.007-1.03-0.08-2.094-0.124-3.081c-0.013-0.292,0.027-0.582,0-0.864c-0.009-0.09-0.019-0.375-0.124-0.369
	C37.495,70.242,37.44,70.242,37.385,70.242z M43.838,73.077c-0.149-0.146-0.24-0.297-0.37-0.41
	c-0.075-0.066-0.173-0.098-0.247-0.165c-0.304-0.281-0.669-0.673-0.986-0.945c-0.366-0.312-0.682-0.627-1.027-0.945
	c-0.179-0.163-0.328-0.335-0.453-0.369c-0.233-0.063-0.563,0-0.862,0c-0.292,0-0.681,0-0.904,0
	c-0.087,1.435-0.126,2.915-0.206,4.356c0.608-0.104,1.239-0.059,1.809-0.164c0.181-0.034,0.344-0.113,0.534-0.165
	c0.342-0.092,0.696-0.172,1.027-0.246c0.016-0.004,0.102-0.075,0.124-0.082c0.05-0.016,0.113,0.011,0.165,0
	c0.015-0.004,0.102-0.074,0.123-0.083c0.087-0.031,0.214-0.044,0.288-0.082c0.123-0.063,0.214-0.182,0.329-0.246
	c0.134-0.076,0.28-0.106,0.411-0.166c0.114-0.05,0.223-0.196,0.371-0.122C44.059,73.135,43.876,73.116,43.838,73.077z
	 M45.194,72.502c0.376-0.363,0.912-0.567,1.232-0.986c-0.324-0.252-0.706-0.694-1.027-0.986c-0.027-0.023-0.096-0.02-0.123-0.041
	c-0.13-0.099-0.153-0.209-0.288-0.246c-0.164-0.045-0.566,0-0.904,0c-0.368,0-0.842-0.031-0.986,0.04
	C43.844,70.976,44.455,71.803,45.194,72.502z M47.085,70.817c0.132-0.044,0.237-0.155,0.329-0.247
	c0.091-0.092,0.202-0.195,0.246-0.328c-0.343,0.027-0.794-0.055-1.068,0.04C46.794,70.423,46.93,70.63,47.085,70.817z
	 M59.415,71.763c0.076,0.192,0.381,0.318,0.493,0.411c0.118,0.096,0.239,0.175,0.329,0.246c0.126-0.354,0.273-0.685,0.37-1.067
	C60.065,71.345,59.777,71.59,59.415,71.763z M58.594,73.283c0.237-0.051,0.464-0.109,0.74-0.123c0.079-0.165,0.294-0.198,0.37-0.37
	c-0.209-0.23-0.34-0.537-0.577-0.739C58.874,72.385,58.627,72.728,58.594,73.283z M29.165,72.996
	c-0.052-0.003-0.057-0.054-0.123-0.041c-0.162,0.21-0.349,0.362-0.535,0.534c-0.118,0.109-0.236,0.249-0.329,0.329
	c-0.052,0.045-0.117,0.038-0.164,0.082c-0.173,0.157-0.305,0.366-0.494,0.451c-0.011,0.005-0.029,0.072-0.042,0.083
	c-0.122,0.104-0.282,0.203-0.329,0.37c2.201,1.923,4.809,3.438,8.713,3.657c-0.055-0.699-0.082-1.425-0.082-2.178
	C33.018,75.746,30.905,74.557,29.165,72.996z M46.468,73.941c0.085,0.011,0.083,0.11,0.124,0.164
	c0.115-0.027,0.173-0.169,0.247-0.247c0.074-0.078,0.164-0.12,0.206-0.164c0.028-0.03,0.013-0.09,0.041-0.123
	c0.072-0.084,0.176-0.158,0.247-0.246c0.038-0.049,0.049-0.12,0.083-0.165c0.021-0.029,0.156-0.061,0.082-0.124
	C47.216,73.401,46.76,73.588,46.468,73.941z M58.635,73.9c0.065-0.099,0.147-0.182,0.204-0.288
	c-0.133,0.024-0.189-0.028-0.286-0.041C58.579,73.682,58.569,73.827,58.635,73.9z M61.061,74.763
	c0.078-0.009,0.09,0.047,0.164,0.042c-0.013-0.164,0.096-0.207,0.081-0.37c-0.062-0.021-0.104-0.062-0.163-0.083
	C61.098,74.472,61.105,74.643,61.061,74.763z M45.482,74.599c-0.169-0.045-0.62,0.326-0.781,0.411
	c-0.173,0.09-0.362,0.131-0.535,0.205c-0.063,0.028-0.101,0.095-0.164,0.123c-0.23,0.105-0.492,0.196-0.74,0.288
	c-1.702,0.636-3.866,1.072-6.206,0.863c-0.034,0.651-0.076,1.294-0.083,1.973c2.094-0.018,3.921-0.595,5.343-1.233
	c0.643-0.287,1.225-0.618,1.768-0.985c0.101-0.068,0.211-0.131,0.288-0.164c0.013-0.007,0.026-0.073,0.042-0.082
	c0.019-0.015,0.061,0.009,0.082,0c0.013-0.006,0.026-0.072,0.041-0.084c0.083-0.055,0.167-0.064,0.247-0.123
	c0.073-0.052,0.125-0.142,0.206-0.205c0.281-0.22,0.646-0.4,0.822-0.739C45.639,74.721,45.618,74.635,45.482,74.599z M59.497,75.256
	c0.286,0.156,0.671,0.421,1.11,0.288c-0.022-0.357-0.086-0.39-0.246-0.617c-0.102-0.144-0.176-0.314-0.288-0.37
	C59.834,74.743,59.561,74.896,59.497,75.256z M63.402,75.667c0.289-0.016,0.45,0.098,0.74,0.083
	c-0.062-0.338-0.09-0.705-0.288-0.904C63.742,75.156,63.55,75.39,63.402,75.667z M62.785,76.406c0.151,0.164,0.241,0.351,0.37,0.535
	c0.119,0.169,0.288,0.327,0.37,0.534c0.18-0.041,0.256-0.242,0.329-0.37c0.151-0.259,0.249-0.654,0.288-0.945
	c-0.002-0.024-0.006-0.048-0.041-0.041C63.703,76.258,63.155,76.242,62.785,76.406z M59.951,77.559
	c0.135-0.249,0.343-0.423,0.451-0.699c-0.427,0.029-0.636-0.159-0.987-0.205C59.52,77.029,59.701,77.327,59.951,77.559z
	 M60.196,77.764c0.01,0.092,0.129,0.15,0.206,0.205c0.307,0.218,0.849,0.42,1.232,0.37c-0.112-0.407-0.165-0.877-0.247-1.315
	c-0.008-0.032-0.035-0.048-0.082-0.04C60.954,77.26,60.585,77.521,60.196,77.764z M61.964,78.339
	c0.617-0.041,1.051-0.266,1.355-0.617c-0.401-0.216-0.714-0.519-1.108-0.738C62.087,77.393,62.04,77.88,61.964,78.339z"/>
</svg>
