<?xml version="1.0" encoding="utf-8"?>
<!-- Generator: Adobe Illustrator 15.0.2, SVG Export Plug-In . SVG Version: 6.00 Build 0)  -->
<!DOCTYPE svg PUBLIC "-//W3C//DTD SVG 1.1//EN" "http://www.w3.org/Graphics/SVG/1.1/DTD/svg11.dtd">
<svg version="1.1" id="Ebene_1" xmlns="http://www.w3.org/2000/svg" xmlns:xlink="http://www.w3.org/1999/xlink" x="0px" y="0px"
	 width="100px" height="100px" viewBox="0 0 100 100" enable-background="new 0 0 100 100" xml:space="preserve">
<circle fill="#B2B2B2" cx="50" cy="50" r="50"/>
<g>
	<path d="M78.395,19.224H21.606c-1.126,0-2.048,1.359-2.048,3.021V76.54c0,1.662,0.922,3.021,2.048,3.021h3.988
		c-0.031,0.058-0.032,0.129,0.017,0.209l0.41,0.67c0.113,0.185,0.417,0.336,0.674,0.336H27.4c0.257,0,0.56-0.151,0.673-0.336
		l0.41-0.67c0.049-0.08,0.048-0.151,0.018-0.209h43.131c-0.03,0.058-0.031,0.128,0.018,0.207l0.41,0.67
		c0.113,0.186,0.416,0.336,0.674,0.336h0.706c0.258,0,0.561-0.15,0.674-0.336l0.409-0.67c0.049-0.079,0.047-0.149,0.018-0.207h3.854
		c1.126,0,2.048-1.358,2.048-3.021V22.245C80.442,20.583,79.521,19.224,78.395,19.224z M73.214,57.269H72.62v0.424h0.495
		c-0.593,2.465-1.363,4.275-2.299,4.974c0,0-0.918,1.014-12.048,1.381v-0.114h-0.424v0.128c-2.274,0.07-4.959,0.114-8.133,0.117
		v-0.245h-0.424v0.246c-3.153,0-5.841-0.037-8.133-0.101v-0.146h-0.424v0.134c-11.941-0.351-12.759-1.4-12.759-1.4
		c-1.884-1.573-2.998-7.125-3.378-13.519h0.095v-0.424h-0.118c-0.01-0.194-0.023-0.387-0.032-0.582h16.206l1.076-1.786l2.422,4.073
		l0.229-1.281h0.545v-0.424h-0.47l1.624-9.096l1.029,9.096H47.21v0.424h0.537l1.214,10.731l1.058-5.263h0.193V53.77h-0.023
		l1.148-5.715l0.7,1.286l1.961-5.331l1.678,4.714h-0.842v0.424h0.847v-0.411l0.408,1.147l1.628-2.227l0.472,0.484h16.186
		C74.182,51.527,73.789,54.717,73.214,57.269z M74.452,46.447h-7.139v-0.301H66.89v0.301h-7.986l-0.135-0.138v-0.163h-0.159
		l-1.077-1.106l-0.921,1.259l-2.585-7.268l-2.288,6.217l-1.143-2.099l-0.603,2.997h-0.205v0.847h0.035l-0.394,1.957l-1.914-16.916
		h0.542V31.61h-0.59l-0.422-3.729L44.851,40.18h-0.182v0.423h0.106l-0.901,5.051l-1.544-2.597l-0.674,1.12v-0.572h-0.424v0.847
		h0.258l-1.202,1.995H33.11v-0.301h-0.423v0.301h-7.709c-0.052-1.94-0.037-3.913,0.038-5.844h0.173V40.18h-0.156
		c0.309-7.067,1.464-13.455,3.439-15.162c0,0,0.36-0.699,12.759-0.924v0.031h0.424v-0.039c2.292-0.039,4.976-0.062,8.133-0.062
		v0.101h0.424v-0.1c3.175,0.002,5.861,0.028,8.133,0.071v0.029h0.424v-0.02c11.693,0.235,12.048,0.914,12.048,0.914
		C73.685,27.364,74.784,37.319,74.452,46.447z"/>
</g>
<rect x="49.752" y="57.269" width="0.847" height="0.424"/>
<rect x="62.456" y="57.269" width="0.848" height="0.424"/>
<rect x="70.079" y="57.269" width="0.848" height="0.424"/>
<rect x="54.834" y="57.269" width="0.847" height="0.424"/>
<rect x="52.293" y="57.269" width="0.847" height="0.424"/>
<rect x="64.997" y="57.269" width="0.848" height="0.424"/>
<rect x="59.916" y="57.269" width="0.847" height="0.424"/>
<rect x="57.375" y="57.269" width="0.847" height="0.424"/>
<rect x="67.538" y="57.269" width="0.848" height="0.424"/>
<rect x="31.965" y="57.269" width="0.847" height="0.424"/>
<rect x="29.424" y="57.269" width="0.847" height="0.424"/>
<rect x="37.047" y="57.269" width="0.847" height="0.424"/>
<rect x="39.588" y="57.269" width="0.847" height="0.424"/>
<rect x="47.21" y="57.269" width="0.847" height="0.424"/>
<rect x="42.128" y="57.269" width="0.847" height="0.424"/>
<rect x="26.883" y="57.269" width="0.847" height="0.424"/>
<rect x="34.506" y="57.269" width="0.847" height="0.424"/>
<rect x="44.669" y="57.269" width="0.847" height="0.424"/>
<rect x="26.883" y="48.724" width="0.847" height="0.424"/>
<rect x="29.424" y="48.724" width="0.847" height="0.424"/>
<rect x="59.916" y="48.724" width="0.847" height="0.424"/>
<rect x="57.375" y="48.724" width="0.847" height="0.424"/>
<rect x="34.506" y="48.724" width="0.847" height="0.424"/>
<rect x="42.128" y="48.724" width="0.847" height="0.424"/>
<rect x="62.456" y="48.724" width="0.848" height="0.424"/>
<rect x="52.293" y="48.724" width="0.847" height="0.424"/>
<rect x="37.047" y="48.724" width="0.847" height="0.424"/>
<rect x="39.588" y="48.724" width="0.847" height="0.424"/>
<rect x="72.62" y="48.724" width="0.847" height="0.424"/>
<rect x="64.997" y="48.724" width="0.848" height="0.424"/>
<rect x="67.538" y="48.724" width="0.848" height="0.424"/>
<rect x="70.079" y="48.724" width="0.848" height="0.424"/>
<rect x="39.588" y="40.18" width="0.847" height="0.423"/>
<rect x="34.506" y="40.18" width="0.847" height="0.423"/>
<rect x="31.965" y="40.18" width="0.847" height="0.423"/>
<rect x="37.047" y="40.18" width="0.847" height="0.423"/>
<rect x="26.883" y="40.18" width="0.847" height="0.423"/>
<rect x="29.424" y="40.18" width="0.847" height="0.423"/>
<rect x="42.128" y="40.18" width="0.847" height="0.423"/>
<rect x="59.916" y="40.18" width="0.847" height="0.423"/>
<rect x="54.834" y="40.18" width="0.847" height="0.423"/>
<rect x="57.375" y="40.18" width="0.847" height="0.423"/>
<rect x="49.752" y="40.18" width="0.847" height="0.423"/>
<rect x="52.293" y="40.18" width="0.847" height="0.423"/>
<rect x="70.079" y="40.18" width="0.848" height="0.423"/>
<rect x="72.62" y="40.18" width="0.847" height="0.423"/>
<rect x="64.997" y="40.18" width="0.848" height="0.423"/>
<rect x="62.456" y="40.18" width="0.848" height="0.423"/>
<rect x="67.538" y="40.18" width="0.848" height="0.423"/>
<rect x="44.669" y="31.61" width="0.847" height="0.424"/>
<rect x="26.883" y="31.61" width="0.847" height="0.424"/>
<rect x="29.424" y="31.61" width="0.847" height="0.424"/>
<rect x="64.997" y="31.61" width="0.848" height="0.424"/>
<rect x="54.834" y="31.61" width="0.847" height="0.424"/>
<rect x="62.456" y="31.61" width="0.848" height="0.424"/>
<rect x="42.128" y="31.61" width="0.847" height="0.424"/>
<rect x="59.916" y="31.61" width="0.847" height="0.424"/>
<rect x="52.293" y="31.61" width="0.847" height="0.424"/>
<rect x="57.375" y="31.61" width="0.847" height="0.424"/>
<rect x="70.079" y="31.61" width="0.848" height="0.424"/>
<rect x="39.588" y="31.61" width="0.847" height="0.424"/>
<rect x="72.62" y="31.61" width="0.847" height="0.424"/>
<rect x="67.538" y="31.61" width="0.848" height="0.424"/>
<rect x="34.506" y="31.61" width="0.847" height="0.424"/>
<rect x="37.047" y="31.61" width="0.847" height="0.424"/>
<rect x="66.89" y="48.688" width="0.424" height="0.847"/>
<rect x="66.89" y="56.311" width="0.424" height="0.847"/>
<rect x="66.89" y="61.392" width="0.424" height="0.848"/>
<rect x="66.89" y="51.229" width="0.424" height="0.847"/>
<rect x="66.89" y="58.852" width="0.424" height="0.847"/>
<rect x="66.89" y="35.982" width="0.424" height="0.847"/>
<rect x="66.89" y="53.77" width="0.424" height="0.847"/>
<rect x="66.89" y="25.818" width="0.424" height="0.847"/>
<rect x="66.89" y="33.441" width="0.424" height="0.847"/>
<rect x="66.89" y="38.523" width="0.424" height="0.847"/>
<rect x="66.89" y="43.605" width="0.424" height="0.847"/>
<rect x="66.89" y="41.064" width="0.424" height="0.847"/>
<rect x="66.89" y="30.9" width="0.424" height="0.847"/>
<rect x="66.89" y="28.359" width="0.424" height="0.847"/>
<rect x="58.345" y="25.818" width="0.424" height="0.847"/>
<rect x="58.345" y="30.9" width="0.424" height="0.847"/>
<rect x="58.345" y="28.359" width="0.424" height="0.847"/>
<rect x="58.345" y="38.523" width="0.424" height="0.847"/>
<rect x="58.345" y="41.064" width="0.424" height="0.847"/>
<rect x="58.345" y="61.392" width="0.424" height="0.848"/>
<rect x="58.345" y="33.441" width="0.424" height="0.847"/>
<rect x="58.345" y="43.605" width="0.424" height="0.847"/>
<rect x="58.345" y="58.852" width="0.424" height="0.847"/>
<rect x="58.345" y="56.311" width="0.424" height="0.847"/>
<rect x="58.345" y="48.688" width="0.424" height="0.847"/>
<rect x="58.345" y="35.982" width="0.424" height="0.847"/>
<rect x="58.345" y="51.229" width="0.424" height="0.847"/>
<rect x="58.345" y="53.77" width="0.424" height="0.847"/>
<rect x="49.788" y="61.392" width="0.424" height="0.848"/>
<polygon points="50.212,30.9 49.788,30.9 49.788,31.61 49.752,31.61 49.752,32.034 50.599,32.034 50.599,31.61 50.212,31.61 "/>
<rect x="49.788" y="56.311" width="0.424" height="0.847"/>
<rect x="49.788" y="58.852" width="0.424" height="0.847"/>
<rect x="49.788" y="35.982" width="0.424" height="0.847"/>
<rect x="49.788" y="33.441" width="0.424" height="0.847"/>
<rect x="49.788" y="38.523" width="0.424" height="0.847"/>
<rect x="49.788" y="25.818" width="0.424" height="0.847"/>
<rect x="49.788" y="28.359" width="0.424" height="0.847"/>
<rect x="49.788" y="41.064" width="0.424" height="0.847"/>
<rect x="49.788" y="43.605" width="0.424" height="0.847"/>
<rect x="41.231" y="58.852" width="0.424" height="0.847"/>
<rect x="41.231" y="56.311" width="0.424" height="0.847"/>
<rect x="41.231" y="61.392" width="0.424" height="0.848"/>
<rect x="41.231" y="38.523" width="0.424" height="0.847"/>
<rect x="41.231" y="41.064" width="0.424" height="0.847"/>
<rect x="41.231" y="53.77" width="0.424" height="0.847"/>
<rect x="41.231" y="30.9" width="0.424" height="0.847"/>
<rect x="41.231" y="25.818" width="0.424" height="0.847"/>
<rect x="41.231" y="35.982" width="0.424" height="0.847"/>
<rect x="41.231" y="28.359" width="0.424" height="0.847"/>
<rect x="41.231" y="51.229" width="0.424" height="0.847"/>
<rect x="41.231" y="33.441" width="0.424" height="0.847"/>
<rect x="41.231" y="48.688" width="0.424" height="0.847"/>
<rect x="32.687" y="61.392" width="0.423" height="0.848"/>
<rect x="32.687" y="56.311" width="0.423" height="0.847"/>
<rect x="32.687" y="53.77" width="0.423" height="0.847"/>
<rect x="32.687" y="58.852" width="0.423" height="0.847"/>
<rect x="32.687" y="28.359" width="0.423" height="0.847"/>
<polygon points="32.687,31.61 31.965,31.61 31.965,32.034 32.812,32.034 32.812,31.748 33.11,31.748 33.11,30.9 32.687,30.9 "/>
<rect x="32.687" y="33.441" width="0.423" height="0.847"/>
<rect x="32.687" y="51.229" width="0.423" height="0.847"/>
<rect x="32.687" y="25.818" width="0.423" height="0.847"/>
<rect x="32.687" y="35.982" width="0.423" height="0.847"/>
<rect x="32.687" y="43.605" width="0.423" height="0.847"/>
<polygon points="32.687,48.724 31.965,48.724 31.965,49.147 32.687,49.147 32.687,49.534 33.11,49.534 33.11,48.688 32.687,48.688 
	"/>
<rect x="32.687" y="38.523" width="0.423" height="0.847"/>
<rect x="32.687" y="41.064" width="0.423" height="0.847"/>
</svg>
