<?xml version="1.0" encoding="utf-8"?>
<!-- Generator: Adobe Illustrator 15.0.2, SVG Export Plug-In . SVG Version: 6.00 Build 0)  -->
<!DOCTYPE svg PUBLIC "-//W3C//DTD SVG 1.1//EN" "http://www.w3.org/Graphics/SVG/1.1/DTD/svg11.dtd">
<svg version="1.1" id="Ebene_1" xmlns="http://www.w3.org/2000/svg" xmlns:xlink="http://www.w3.org/1999/xlink" x="0px" y="0px"
	 width="100px" height="100px" viewBox="0 0 100 100" enable-background="new 0 0 100 100" xml:space="preserve">
<circle fill="#B2B2B2" cx="50" cy="50" r="50"/>
<path d="M74.942,72.042c-3.807-2.219-8.087-3.432-12.15-5.078c-4.016-1.498-8.236-2.355-12.199-3.996
	c-2.213-0.839-4.575-0.813-6.901-0.544c-0.048-11.996,2.755-23.417,11.13-32.789c-0.875,3.139-2.234,6.046-3.72,8.951
	c0.807,0,1.617,0,2.424,0c-0.639,0.639-1.279,1.279-1.919,1.92c0.674,4.344,1.348,8.688,2.021,13.034
	c2.021-4.008,4.041-8.016,6.062-12.023c-0.639-0.91-1.279-1.819-1.92-2.729c0.54-0.303,1.483-0.606,2.021-0.909
	c-0.279-3.291-0.837-6.537-2.986-9.101c2.216,2.275,3.989,4.842,5.674,7.53c0.39-0.652,0.779-1.303,1.168-1.955
	c0.208,0.824,0.415,1.648,0.623,2.472c3.828,1.548,7.656,3.097,11.483,4.646c-2.259-3.559-4.518-7.119-6.775-10.678
	c-1.043,0.078-2.084,0.155-3.125,0.234c0.014-0.58,0.225-1.487,0.239-2.067c-2.894-1.41-5.89-2.576-9.126-1.928
	c-0.266,0.087-0.692,0.052-0.863,0.21c0.026,0.263,0.055,0.526,0.083,0.79c-0.062-0.072-0.124-0.127-0.189-0.169
	c0.031-0.382-0.133-0.695-0.539-0.818c0-0.001,0-0.001,0-0.002c0.156,0.066,0.313,0.133,0.47,0.2
	c2.828-0.872,5.696-1.138,8.628-1.293c-0.322-0.557-0.646-1.111-0.968-1.667c0.694,0.184,1.39,0.369,2.086,0.554
	c2.716-2.197,5.435-4.393,8.153-6.589c-3.562,0.21-7.123,0.419-10.684,0.629c-0.37,0.803-0.74,1.606-1.11,2.408
	c-0.423-0.25-1.007-0.776-1.431-1.026c-2.231,1.562-4.324,3.3-5.173,5.961c-0.02,0.102-0.07,0.218-0.116,0.332
	c-0.001-0.006-0.004-0.014-0.005-0.02c-0.755-2.883-2.888-4.852-5.179-6.641c-0.466,0.243-1.117,0.771-1.582,1.013
	c-0.351-0.875-0.698-1.751-1.049-2.627c-3.783-0.423-7.564-0.845-11.348-1.268c2.773,2.493,5.546,4.984,8.318,7.478
	c0.751-0.159,1.502-0.317,2.253-0.474c-0.374,0.573-0.748,1.147-1.123,1.722c0.979,0.104,1.95,0.222,2.915,0.364
	c-1.21,0.097-2.427,0.319-3.637,0.583c-0.122,0.567-0.133,1.498-0.256,2.065c-0.994-0.324-1.986-0.646-2.98-0.968
	c-3.037,2.923-6.074,5.846-9.111,8.769c4.085-0.598,8.171-1.197,12.257-1.795c0.396-0.751,0.792-1.502,1.191-2.254
	c0.225,0.726,0.448,1.452,0.671,2.176c1.186-1.154,2.385-2.271,3.641-3.319c-8.327,8.94-12.136,19.762-11.162,31.932
	c-4.278,1.295-8.065,3.879-11.645,6.505c-2.49,1.197-5.626,2.673-6.015,5.741c-0.016,0.529,0.233,1.076,0.708,1.341
	c2.563,1.602,5.348,2.843,8.306,3.484c4.952,1.284,10.061-0.071,15.085,0.283c2.597-0.277,4.93,1.009,7.458,1.163
	c2.761,0.066,5.556-0.236,8.265,0.464c3.193,0.611,6.64,1.317,9.728-0.113c2.799-1.018,5.15-3.01,7.169-5.137
	C79.507,74.722,76.805,72.824,74.942,72.042z"/>
</svg>
