<?xml version="1.0" encoding="utf-8"?>
<!-- Generator: Adobe Illustrator 15.0.2, SVG Export Plug-In . SVG Version: 6.00 Build 0)  -->
<!DOCTYPE svg PUBLIC "-//W3C//DTD SVG 1.1//EN" "http://www.w3.org/Graphics/SVG/1.1/DTD/svg11.dtd">
<svg version="1.1" id="Ebene_1" xmlns="http://www.w3.org/2000/svg" xmlns:xlink="http://www.w3.org/1999/xlink" x="0px" y="0px"
	 width="100px" height="100px" viewBox="0 0 100 100" enable-background="new 0 0 100 100" xml:space="preserve">
<circle fill="#B2B2B2" cx="50" cy="50" r="50"/>
<path fill-rule="evenodd" clip-rule="evenodd" d="M65.414,44.348h-2.396H51.762c-0.607-0.526-1.189-1.055-1.559-1.298
	c0.392-0.772,0.455-0.256,1.396-1.967l1.45-2.978c1.818-3.949,1.614-2.557,2.733-3.257c0.783-0.488,1.502-2.128,1.994-2.601
	c0.407-0.384,0.313-0.277,0.543-0.771c0.25-0.561,0.577-0.926,0.11-1.346c0.1-0.342,0.101-0.221,0.026-0.506l-0.361-0.138
	l0.073-0.203l-0.166-0.321c-0.503,0.211-0.825,0.601-1.295,1.003c0.236-0.386,0.277-0.452,0.341-0.887l-0.183-0.198
	c-0.606,0.331-1.015,0.98-1.447,1.448l-0.843,0.855c0.075-0.523,0.082-0.769-0.073-1.243c-0.575-0.084-0.307,0.609-0.68,1.133
	l-0.566,0.682c0,0.001-0.287,1.551-0.432,1.808l-1.484,1.995l-1.767,1.911l-0.379,0.342c-1.637-2.712-3.144-5.666-4.327-8.616
	l-1.038-2.344l0.309-0.01c0.96-0.044-0.268-1.109-0.453-1.337c-0.46-0.544-0.836-0.877-1.163-1.51
	c-0.146-0.232-0.173-0.653-0.186-1.019l0.186-0.399l-0.046-0.045c0.509-0.283,0.305-0.232,0.832-0.232
	c0.232,0,0.699,0.02,0.931-0.186c0.211-0.189,0.779-1.585,0.885-1.95c0.244-0.89,0.323-1.345,0.323-2.274
	c0-1.3-0.271-1.105,0.369-2.136c0.271-0.433,0.286-1.227,0.187-1.718c-0.119-0.622-0.067-0.784-0.602-1.346
	c-0.798-0.839-2.132-1.278-3.249-1.44c-0.898-0.13-1.049-0.08-1.907,0l-0.648-0.927l-0.931-0.372H37.65l-1.117,0.464l-0.885,0.696
	l-0.74,0.974l-0.323,1.207l0.047,1.393c0.071,0.354,0.276,0.51,0.553,0.65c0,0.669-0.085,0.822,0,1.67l0.371,1.95
	c0.111,0.299,0.804,1.449,1.023,1.671c0.693,0.593,1.044,0.683,1.809,0.974l-0.007,0.584h0.001l-0.406,0.391l-0.449,0.726
	l-0.391,0.889c-1.387,4.085-1.242,7.998-0.479,12.256c0.187,1.002,0.411,1.994,0.642,2.985l0.357,1.521
	c0.266,0.979,0.208,1.891-0.057,2.918l-0.159,0.972c-2.587,5.893-0.95,11.947,0.056,18.555l0.176,1.833l0.086,0.877l0.049,1.228
	c0.05,2.352-0.087,4.969-0.439,7.291l-0.221,1.264l0.015,0.293l0.137,0.22l0.228,0.131c0.312,0.143,1.029,0.211,1.144,0.275
	l0.167,0.112c0.023,0.029,0.46,1.37,0.509,1.52c0.487,1.414,0.877,2.761,1.007,4.248l-0.034,0.832l-0.224,0.653
	c-0.315,1.483-0.141,2.703,0.331,4.136l0.255,0.697c0.19,0,0.436,0.028,0.611,0.104l0.019,0.172c0,0.065-0.019,0.28-0.011,0.338
	c0.042,0.144,0.243,0.244,0.354,0.256c0.254,0.029,1.276,0.021,1.435-0.104c0.103-0.093,0.103-0.098,0.137-0.225
	c0.016-1.791,1.516-0.06,1.755,0.329c1.433,0.169,2.823,0.303,4.224-0.066l0.392-0.189c-0.068-0.553-0.174-0.731-0.604-1.076
	l-0.68-0.387l0.455-0.148l0.088-0.407l-0.16-0.351l-0.405-0.218L47.7,86.912l-0.658-0.097l-0.667-0.092l-0.597-0.142l-0.43-0.235
	l-0.745-1.18l-0.478-1.078l-0.225-1.038c-0.11-1.953,0.392-3.871,0.768-5.769c0.915-0.14,1.807-0.313,2.728-0.313l0.079-0.586
	l0.061-1.349c0.239-6.64,0.16-13.249,0.004-19.888c0.361-0.02,0.717,0.022,1.075-0.02l-0.368-1.104
	c-0.015-2.229-0.396-4.414-0.829-6.591l-0.232-1c1.685,0.296,2.399,0.598,3.552,0.865v2.127V89.9h12.279V49.423h2.396V44.348z"/>
</svg>
