<?xml version="1.0" encoding="utf-8"?>
<!-- Generator: Adobe Illustrator 15.0.2, SVG Export Plug-In . SVG Version: 6.00 Build 0)  -->
<!DOCTYPE svg PUBLIC "-//W3C//DTD SVG 1.1//EN" "http://www.w3.org/Graphics/SVG/1.1/DTD/svg11.dtd">
<svg version="1.1" id="Ebene_1" xmlns="http://www.w3.org/2000/svg" xmlns:xlink="http://www.w3.org/1999/xlink" x="0px" y="0px"
	 width="100px" height="100px" viewBox="0 0 100 100" enable-background="new 0 0 100 100" xml:space="preserve">
<circle fill="#B2B2B2" cx="50" cy="50" r="50"/>
<g>
	<path d="M34.536,40.585v1.165c0,0.299,0.25,0.55,0.582,0.618l0.214,2.057c-0.193,0.146-0.675,0.546-0.675,0.909
		s0.168,0.637,0.571,0.637c0.402,0,0.729-0.362,0.729-0.81c0-0.125-0.112-0.021-0.195,0.014c-0.106,0.775-0.866,0.553-0.816,0.07
		c0.036-0.361,0.498-0.405,0.63-0.785c0.171-0.488,0.02-1.337,0.02-2.106c0.302-0.084,0.52-0.323,0.52-0.603v-1.165
		c0-0.349-0.34-0.636-0.757-0.636H35.35l-0.546-17.604h-0.155l0.594,17.605C34.849,39.973,34.536,40.25,34.536,40.585z"/>
	<path d="M33.702,52.906v0.067l-0.589,0.896c-0.029,0.012-0.048,0.041-0.047,0.073l0.061,4.164c0.002-0.137,0.008-0.23,0.019-0.23
		v1.47c0-0.004,0-0.016,0-0.021l0,0.039h5.173h0.239h0.319v-6.325v-0.133H38.72l-3.087-5.829l-0.051-0.124l-0.023,0.007v-1.008
		h-0.178v0.935l-0.005-0.002l-1.562,6.021H33.702z M33.995,57.876H33.47l-0.08-3.642h0.605V57.876z M33.995,54.076h-0.609
		l-0.002-0.134l0.556-0.903h0.055V54.076z M38.318,57.876h-4.244v-3.642h4.244V57.876z M38.318,54.076h-4.244v-0.845l0.041-0.192
		h3.928l0.084,0.207l0.031-0.008l-0.081-0.199h0.24V54.076z M34.074,53.079v-0.04h0.008L34.074,53.079z M38.685,52.906h-0.663
		l-2.266-5.529L38.685,52.906z M35.56,46.979l0.001,0.004l-0.001,0V46.979z M35.404,47.033h0.155v-0.029l0.045,0.087l2.384,5.815
		h-3.845L35.404,47.033z M35.375,47.02l-1.265,5.886h-0.262L35.375,47.02z"/>
	<path d="M85.639,22.925l-4.856-0.214L70.351,16.56l-0.387,0.076l-0.027,0.007l-0.006,0.049l-0.003,0.029
		c0,0-6.305,1.166-10.535,1.809c-3.664,0.556-13.685,2.027-16.304,2.411l-4.35-0.192l-8.904-0.388l-0.003,0.043l8.9,0.389
		l4.13,0.182l-0.408,0.06l0.935-0.037l14.646,0.646l0.004-0.044l-14.415-0.635c1.188-0.165,6.519-0.909,8.078-1.157
		c1.758-0.281,6.51-0.847,7.101-1.062c0.59-0.214,3.562-0.6,4.968-0.801c1.407-0.201,3.93-0.723,5.034-0.881l1.106-0.159
		l-0.019,0.181l-0.151,1.539l-0.056-0.003c-0.001,0.025-0.002,0.052-0.004,0.078l0.05,0.024l-0.02,0.196l-0.014,0.051l-0.033,0.12
		l-0.019,0.413l-0.004-0.003l-0.019,0.096l0.017,0.013v0.007l-0.368,0.078l0.325,0.84l-0.007,0.122h-0.018l0.013,0.072l-0.005,0.03
		l0.005,0.007l-0.026,0.556l-0.003-0.002l-0.019,0.095l0.017,0.012l-0.038,0.791l-0.35-0.015l-0.437-1.056l-0.011,0.293l0.065,0.16
		l-0.07-0.045l-0.006,0.172l0.013-0.002v0.001l-0.014,0.02l-0.006,0.163l0.135-0.185l0.16,0.383l-0.295-0.191l-0.005,0.091
		l0.255,0.151l-0.06,0.033l-0.163-0.008l-0.035-0.084l-0.003,0.083l-2.352-0.103l-8.906-0.389l-0.003,0.043l0.211,0.009
		l-0.066,0.005l-5.545-0.269L51.93,21.45l-0.083-0.002l-0.187-0.016l-0.029,0.022l-2.555-0.124l-6.439-0.271l-0.1-0.024
		l-0.083-0.001l-0.185-0.015l-0.03,0.022l-2.555-0.116l-0.123-0.03l-0.084-0.001l-0.186-0.015l-0.037,0.026l-0.531-0.024v0.005
		l-5.17-0.236l-0.1-0.023l-0.084-0.001l-0.186-0.014l-0.029,0.021l-2.555-0.116l-0.124-0.029l-0.084-0.001l-0.185-0.014
		l-0.036,0.026l-0.348-0.017l-0.003,0.054l0.28,0.013l-0.06,0.042c-0.032-0.017-0.067-0.025-0.106-0.029
		c-0.039-0.002-0.078,0.003-0.118,0.015l-0.102,1.366c0.016-0.003,0.031-0.008,0.047-0.014c1.914,0.104,3.829,0.208,5.743,0.312
		l0.039,0.04l0.188,0.006l0.085,0.008l0.189-0.027c0.723,0.039,1.447,0.078,2.169,0.118c0.132,0.183,0.458,0.082,0.665,0.006
		c1.916,0.104,3.829,0.208,5.742,0.313l0.04,0.041l0.188,0.007l0.086,0.009l0.189-0.029c0.723,0.04,1.446,0.079,2.168,0.119
		c0.125,0.18,0.732,0.145,1.024,0.056c0.04-0.015,0.051-0.018,0.06-0.02c0.007-0.004,0.004-0.003,0.017-0.011
		c1.842,0.106,3.779,0.143,5.621,0.249l0.039,0.042l0.188,0.007l0.085,0.009l0.189-0.029c0.725,0.042,1.446,0.084,2.168,0.125
		c0.128,0.181,0.732,0.147,1.024,0.06l0.238,0.013l0.005-0.057l-0.124-0.007c0.006-0.003,0.012-0.008,0.016-0.011l5.301,0.287
		l0.039,0.04l0.188,0.006l0.086,0.009l0.188-0.028c0.724,0.04,1.447,0.078,2.169,0.118c0.133,0.182,0.458,0.082,0.667,0.006
		l2.225,0.121l0.297,0.7l0.061-0.069l-0.013-0.029l0.231-0.061l0.104-0.027l0.05,0.114l-0.35-0.024l-0.127,3.327l0.332,0.023
		l-0.011,0.255c-0.013-0.001-0.025-0.001-0.039-0.001c-0.39-0.007-0.194,0.625-0.02,0.691c0.008,0.003,0.019,0.006,0.026,0.009
		c-0.024,0.598-0.05,1.194-0.073,1.791l-0.027,0.006c0,0,0.007,0.071,0.021,0.17c-0.008,0.188-0.015,0.375-0.021,0.562l-0.033-0.009
		l-0.018,0.099l0.046,0.014c-0.038,1.026-0.072,2.053-0.102,3.082l-0.024,0.005l0.007,0.098l0.016-0.003
		c-0.018,0.609-0.033,1.219-0.046,1.828c-0.045,0.047-0.069,0.1-0.071,0.157c-0.005,0.06,0.021,0.119,0.064,0.172
		c-0.008,0.417-0.015,0.834-0.024,1.25c-0.158,0.098-0.108,0.391-0.009,0.568c-0.006,0.416-0.014,0.832-0.02,1.248l-0.047,0.036
		l0.01,0.093l-0.004,0.042l0.037,0.066c-0.014,0.856-0.025,1.711-0.038,2.567c-0.021,0.022-0.033,0.047-0.034,0.073
		c-0.002,0.028,0.009,0.056,0.032,0.084c-0.016,1.209-0.031,2.419-0.049,3.628l-0.049,0.026l0.004,0.119l-0.006,0.054l0.047,0.117
		c-0.006,0.458-0.013,0.914-0.02,1.371c-0.228,0.092-0.077,0.292,0.035,0.419c-0.019,1.21-0.035,2.419-0.052,3.628l-0.052,0.026
		l0.004,0.119l-0.006,0.054l0.049,0.117c-0.006,0.458-0.012,0.915-0.02,1.371c-0.226,0.088-0.143,0.467-0.01,0.647
		c0.021,0.023,0.024,0.029,0.027,0.034c0.007,0.005,0.005,0.003,0.017,0.012c-0.024,1.164,0.049,2.385,0.025,3.549l-0.051,0.026
		l0.002,0.118l-0.008,0.055l0.05,0.118c-0.011,0.457-0.019,0.914-0.028,1.371c-0.228,0.088-0.146,0.467-0.014,0.646l-0.003,0.15
		h0.073l0.002-0.077c0.001,0.001,0.003,0.003,0.006,0.004c-0.013,1.033-0.026,2.065-0.041,3.098l-0.05,0.028l0.004,0.119
		l-0.007,0.053l0.047,0.117c-0.006,0.458-0.013,0.914-0.018,1.371c-0.229,0.091-0.078,0.291,0.033,0.42
		c-0.018,1.209-0.033,2.418-0.05,3.627l-0.052,0.027l0.003,0.118l-0.006,0.054l0.049,0.118c-0.006,0.458-0.013,0.914-0.02,1.371
		c-0.226,0.087-0.143,0.466-0.01,0.646c0.024,0.027,0.03,0.037,0.032,0.041c0.005,0.004,0.003,0.002,0.011,0.008
		c-0.023,1.165,0.049,2.383,0.025,3.549l-0.051,0.026l0.002,0.119l-0.006,0.053l0.049,0.118c-0.01,0.457-0.02,0.913-0.027,1.37
		c-0.228,0.088-0.147,0.468-0.016,0.646l-0.003,0.151h0.074l0.001-0.077c0.012,0.006,0.021,0.012,0.031,0.017
		c0.055,0.019,0.118,0.041,0.198,0.061h0.714c0.132-0.023,0.268-0.048,0.397-0.071v0.071h0.072l0.001-0.085
		c0.21-0.039,0.396-0.072,0.502-0.093v0.178h0.073v-0.191c0.016-0.004,0.024-0.005,0.024-0.005l-0.024-0.09l0.007-3.502l0.025-0.063
		l-0.004-0.053l0.007-0.118l-0.028-0.017l0.002-1.615l-0.045-4.063l0.024-0.064l-0.004-0.052l0.008-0.117l-0.029-0.019l-0.007-1.613
		l0.029-0.078l-0.003-0.054l0.007-0.116l-0.035-0.021l-0.002-0.335h-0.007l-0.013-3.266l0.024-0.064l-0.004-0.052l0.007-0.118
		l-0.028-0.017l-0.007-1.615l0.011-0.032l0.009-0.002l0.074-0.013l0.009-0.003l0.042,5.182l0.09,12.188h0.055L70.918,65.51
		l-0.048-5.622l0.063-11.554l-0.079-9.788l0.048-0.009l-0.051-0.196l-0.081-7.385c0.044-0.007,0.071-0.01,0.071-0.01l-0.073-0.189
		l-0.023-2.109l0.186-0.035l-0.118-0.456c0,0-0.028-0.003-0.073-0.009l-0.003-0.251l0.213,0.015l0.026-0.715l0.387,21.136
		l-0.013,5.93l-0.041,5.626l0.129,5.62l0.058,5.929l0.14,6.259h0.056l-0.139-6.259l-0.059-5.929l-0.129-5.62l0.041-5.626l0.032-5.93
		l-0.43-21.966l0.068-1.781l-0.118-0.009l-0.016-0.614l1.241,0.068l0.04,0.042l0.187,0.006l0.086,0.009l0.189-0.029
		c0.724,0.04,1.446,0.079,2.169,0.118c0.126,0.181,0.731,0.146,1.024,0.057c0.039-0.015,0.051-0.018,0.06-0.02
		c0.007-0.004,0.003-0.003,0.016-0.01c1.845,0.105,3.78,0.142,5.622,0.248l0.038,0.041l0.19,0.008l0.083,0.008l0.19-0.029
		c0.723,0.042,1.446,0.084,2.169,0.125c0.124,0.182,0.729,0.148,1.023,0.061l0.237,0.013l0.004-0.057l-0.122-0.007
		c0.011-0.008,0.021-0.015,0.028-0.023c0.033-0.039,0.072-0.087,0.107-0.147l0.042-0.55c-0.03-0.103-0.061-0.209-0.091-0.312
		l0.113,0.006l0.004-0.056l-0.135-0.007c-0.048-0.164-0.091-0.309-0.116-0.394l0.279,0.014l0.004-0.056l-0.302-0.015
		c-0.003-0.013-0.005-0.019-0.005-0.019l-0.146,0.012l-4.123-0.2l-0.188-0.111l4.773,0.211L85.639,22.925z M36.323,20.83
		l-0.468,0.334l-0.172-0.008l-1.847-0.439L36.323,20.83z M33.375,20.696l0.173,0.008l1.84,0.437l-2.459-0.125L33.375,20.696z
		 M33.083,20.683L32.641,21l-1.758-0.417L33.083,20.683z M30.393,20.56l0.203,0.01l1.756,0.417l-2.109-0.107
		c-0.016-0.062-0.037-0.117-0.066-0.164L30.393,20.56z M32.063,21.026l-0.944,0.328l-0.537-0.403L32.063,21.026z M30.377,20.94
		l-0.12,0.042c-0.001-0.016-0.003-0.033-0.006-0.047L30.377,20.94z M30.236,21.285c0.018-0.078,0.025-0.153,0.025-0.223l0.191-0.067
		l0.537,0.404l-0.219,0.077l0.179,0.019l0.115-0.04l0.084,0.063l0.19,0l-0.146-0.108l0.972-0.337l0.604,0.454l-0.157,0.068
		l-0.864-0.043l-0.007-0.008l-0.22-0.013l0.009,0.01l-1.353-0.066C30.201,21.414,30.221,21.351,30.236,21.285z M29.865,21.877
		c0.083-0.054,0.16-0.135,0.223-0.234l0.463-0.061l-0.195-0.026l-0.236,0.03c0.011-0.018,0.021-0.038,0.031-0.058l1.431,0.07
		l0.362,0.392L29.865,21.877z M32.276,22.008l2.145-0.27c-0.166-0.008-0.332-0.017-0.498-0.024l-1.784,0.261l-0.338-0.365
		c0.707,0.034,1.415,0.069,2.122,0.104l0.002,0l0.498,0.024l-0.002,0c0.205,0.01,0.408,0.02,0.613,0.03l0.414,0.413
		C34.389,22.123,33.334,22.065,32.276,22.008z M32.971,21.535l0.827-0.361l0.694,0.339l-0.431,0.149l0.059,0.006l-1.306-0.064
		l0.037-0.016l0.008,0.007h0.19L32.971,21.535z M34.706,21.518l0.75-0.259l0.677,0.508l-0.871-0.043l-0.006-0.006l-0.285-0.01
		l0.003,0.003l-0.718-0.036l0.332-0.115l0.221,0.142l0.253,0.008L34.706,21.518z M35.969,22.209l-0.233-0.013l-0.415-0.415
		c0.884,0.044,1.768,0.088,2.651,0.131L35.969,22.209z M38.153,22.296c-0.001,0.011-0.001,0.021,0,0.033
		c-0.623-0.035-1.248-0.069-1.872-0.103l1.927-0.284C38.188,22.041,38.169,22.156,38.153,22.296z M38.222,21.871
		c-0.569-0.028-1.142-0.057-1.713-0.085l1.109-0.384l0.608,0.457L38.222,21.871z M38.33,21.425
		c-0.014,0.096-0.043,0.189-0.076,0.312l-0.512-0.384l0.069-0.035l-0.229-0.012l-1.256,0.462l-0.745-0.559h-0.065l-0.119-0.013
		l-0.788,0.275l-0.717-0.351l-0.128,0.002l-0.066-0.004l-0.81,0.354l-0.58-0.435l3.596,0.183l0.165,0.012l0.005-0.004l2.27,0.115
		C38.338,21.373,38.335,21.399,38.33,21.425z M38.355,21.292l-2.21-0.112l0.468-0.335l1.75,0.416L38.355,21.292z M38.375,21.207
		l-1.479-0.351l1.543,0.071C38.44,20.927,38.41,21.071,38.375,21.207z M45.405,21.241l-0.468,0.347l-0.17-0.009l-1.847-0.451
		L45.405,21.241z M42.46,21.107l0.172,0.008l1.839,0.449l-2.459-0.125L42.46,21.107z M42.167,21.094l-0.444,0.33l-1.758-0.43
		L42.167,21.094z M39.476,20.971l0.202,0.01l1.756,0.429l-2.11-0.107c-0.015-0.064-0.037-0.122-0.065-0.171L39.476,20.971z
		 M41.145,21.451L40.2,21.792l-0.536-0.417L41.145,21.451z M39.46,21.365l-0.121,0.044c-0.001-0.017-0.003-0.034-0.006-0.05
		L39.46,21.365z M39.317,21.723c0.017-0.08,0.026-0.159,0.026-0.231l0.193-0.07l0.536,0.418l-0.31,0.104l0.172,0.009l0.211-0.055
		l0.085,0.066h0.19l-0.145-0.114l0.971-0.351l0.603,0.469l-0.156,0.071l-0.864-0.042l-0.007-0.007l-0.221-0.014l0.009,0.011
		l-1.354-0.067C39.282,21.856,39.302,21.791,39.317,21.723z M38.712,21.101l0.012-0.164l0.459,0.021l-0.058,0.043
		c-0.032-0.017-0.068-0.026-0.106-0.029C38.916,20.966,38.808,21.015,38.712,21.101z M38.945,22.337
		c0.082-0.055,0.159-0.139,0.223-0.243l0.598-0.093l-0.263-0.013l-0.302,0.048c0.011-0.02,0.021-0.041,0.031-0.061l0.271,0.013h0
		l0.263,0.013h-0.001l0.896,0.044l0.36,0.406L38.945,22.337z M41.354,22.469l1.823-0.249l-0.196-0.027l-1.763,0.241l-0.336-0.379
		c1.078,0.054,2.156,0.106,3.232,0.159l0.412,0.428C43.469,22.584,42.413,22.527,41.354,22.469z M42.051,21.978l0.829-0.376
		l0.693,0.35l-0.43,0.155l0.059,0.007l-1.306-0.065l0.037-0.016l0.01,0.007h0.189L42.051,21.978z M43.788,21.958l0.752-0.271
		l0.675,0.526l-0.871-0.043l-0.007-0.007l-0.283-0.01l0.003,0.003l-0.718-0.035L43.67,22l0.212,0.106l0.193-0.003L43.788,21.958z
		 M45.048,22.671l-0.233-0.012l-0.414-0.43c0.884,0.044,1.768,0.087,2.651,0.132L45.048,22.671z M47.233,22.759
		c-0.001,0.012-0.001,0.022,0,0.032c-0.625-0.034-1.249-0.069-1.873-0.103l1.928-0.298C47.268,22.492,47.249,22.612,47.233,22.759z
		 M47.304,22.316c-0.571-0.028-1.142-0.057-1.712-0.085l1.109-0.4l0.607,0.472L47.304,22.316z M47.412,21.854
		c-0.014,0.099-0.044,0.196-0.075,0.325l-0.512-0.398h-0.065l-0.119-0.012l-1.234,0.446l-0.743-0.579h-0.064l-0.119-0.012
		l-0.789,0.285l-0.716-0.361l-0.128,0.002l-0.066-0.005l-0.812,0.369l-0.578-0.45l3.595,0.183l0.164,0.013l0.005-0.004l2.27,0.116
		C47.421,21.799,47.417,21.827,47.412,21.854z M47.438,21.716l-2.212-0.113l0.469-0.348l1.749,0.427L47.438,21.716z M47.458,21.628
		l-1.479-0.362l1.554,0.099C47.532,21.365,47.493,21.486,47.458,21.628z M54.798,21.664l-0.468,0.347l-0.171-0.01l-1.847-0.457
		L54.798,21.664z M51.851,21.521l0.175,0.008l1.838,0.455l-2.459-0.132L51.851,21.521z M51.56,21.507l-0.443,0.328L49.358,21.4
		L51.56,21.507z M48.869,21.376l0.203,0.009l1.755,0.436l-2.109-0.114c-0.015-0.064-0.036-0.122-0.066-0.169L48.869,21.376z
		 M50.538,21.861L49.594,22.2l-0.537-0.418L50.538,21.861z M48.854,21.771l-0.12,0.043c-0.003-0.017-0.004-0.034-0.008-0.05
		L48.854,21.771z M48.709,22.127c0.017-0.08,0.026-0.157,0.027-0.23l0.193-0.069l0.535,0.419l-0.294,0.104l0.095,0.005l0.158-0.01
		l0.114-0.041l0.084,0.066l0.191,0l-0.145-0.113l0.972-0.349l0.603,0.472l-0.156,0.069l-0.865-0.044l-0.007-0.009l-0.221-0.013
		l0.009,0.01l-0.737-0.039l-0.134,0.009l0.039-0.014l-0.521-0.027C48.674,22.262,48.694,22.195,48.709,22.127z M48.352,21.378
		l-0.002-0.003l0.024,0.001C48.368,21.376,48.359,21.377,48.352,21.378z M48.548,21.384l-0.03,0.022
		c-0.026-0.014-0.055-0.023-0.083-0.028L48.548,21.384z M48.443,22.822c0.015-0.019,0.079-0.113,0.092-0.136l0.012-0.165
		l0.014-0.022l0.62-0.089H48.83l-0.236,0.031c0.01-0.019,0.021-0.04,0.031-0.06l1.432,0.075l0.42,0.472L48.443,22.822z
		 M50.678,22.928l2.026-0.335c-0.136-0.007-0.271-0.014-0.406-0.021l-1.687,0.274l-0.336-0.38c0.675,0.035,1.349,0.07,2.023,0.106
		l0.135-0.022l0.271,0.043c0.267,0.014,0.534,0.028,0.802,0.042l0.41,0.428C52.861,23.003,51.735,22.988,50.678,22.928z
		 M53.18,22.375l0.752-0.269l0.674,0.529l-0.87-0.045l-0.007-0.008l-0.283-0.011l0.002,0.003l-0.718-0.038l0.333-0.119l0.211,0.108
		l0.194-0.003L53.18,22.375z M52.534,22.523l0.059,0.006l-1.069-0.077l-0.078-0.062l0.828-0.374l0.691,0.352L52.534,22.523z
		 M54.44,23.094l-0.233-0.014l-0.413-0.43c0.884,0.045,1.768,0.092,2.65,0.138L54.44,23.094z M56.624,23.188
		c-0.001,0.011-0.001,0.022,0,0.032c-0.624-0.036-1.249-0.073-1.871-0.108l1.928-0.293C56.659,22.921,56.64,23.042,56.624,23.188z
		 M56.694,22.746c-0.57-0.031-1.141-0.062-1.711-0.091l1.108-0.397l0.606,0.474L56.694,22.746z M56.803,22.283
		c-0.015,0.1-0.044,0.196-0.075,0.325l-0.513-0.399H56.15l-0.118-0.013l-1.233,0.442l-0.743-0.582H53.99l-0.119-0.013l-0.788,0.283
		l-0.716-0.363l-0.129,0.002l-0.065-0.005l-0.812,0.366l-0.578-0.451l3.596,0.194l0.163,0.012l0.006-0.003l2.27,0.123
		C56.812,22.228,56.808,22.256,56.803,22.283z M56.828,22.145l-2.208-0.12l0.467-0.346l1.75,0.434L56.828,22.145z M56.925,21.795
		c0,0-0.041,0.121-0.076,0.263l-1.478-0.366l1.766,0.085L56.925,21.795z M77.336,20.813l3.087,1.881l-0.255-0.011l-2.899-1.775
		L77.336,20.813z M70.718,17.101l9.255,5.574l-9.078-0.4l-0.056-2.007l0.144-0.054l-0.155-0.346v-0.013h-0.004l-0.154-0.344
		c0,0-0.014-0.001-0.038-0.002l-0.003-0.61h0.003l-0.003-0.02v-0.009l-0.005-0.06l0.028-0.011l-0.038-0.095l-0.001-0.019l-0.006,0
		l-0.018-0.045c-0.017-0.216-0.083-0.794-0.144-1.289L70.718,17.101z M70.718,54.465v0.073l-0.031-0.019
		C70.702,54.502,70.712,54.484,70.718,54.465z M70.712,54.413h0.006v0.015C70.717,54.423,70.713,54.418,70.712,54.413z
		 M70.678,53.896c0,0-0.158-0.02-0.346-0.034l0.378-0.947L70.678,53.896z M70.699,71.641l0.001,0.072l-0.031-0.018
		C70.686,71.677,70.695,71.658,70.699,71.641z M70.694,71.588h0.005v0.015C70.698,71.6,70.696,71.593,70.694,71.588z M70.661,71.072
		c0,0-0.159-0.021-0.345-0.034l0.375-0.948L70.661,71.072z M70.188,58.346l-0.019,1.434c-0.037-0.003-0.071-0.004-0.106-0.005
		c-0.131-0.005-0.258-0.018-0.427-0.033l0.487-0.341l-0.004-0.04l0.009-0.075l-0.649-0.756l0.707-0.495l-0.004-0.04l0.01-0.075
		l-0.417-0.484l0.428-0.468l-0.011-0.079l0.002-0.042l-0.522-0.494l0.548-0.384l-0.028,2.271l-0.008,0.104L70.188,58.346z
		 M69.509,72.309l0.06,0.068l-0.081,0.058l0.011,0.119l0.138-0.096l0.513,0.596l-0.573,0.401l-0.102-0.096l0.006-0.546l0.009-0.005
		l0.005-0.139l-0.013,0.006l0.004-0.47l-0.019-0.08l0.02,0.022l0.003-0.327c0.083,0.012,0.168,0.022,0.259,0.028
		c0.104,0.007,0.205,0.008,0.301,0.004l0.101,0.118l-0.511,0.356l-0.152-0.18l-0.001,0.058L69.509,72.309z M69.463,74.85
		l-0.004,0.002l0.006-0.452l0.173,0.202l-0.125,0.139l0.016,0.121l0.172-0.188l0.395,0.46l-0.642,0.45l0.005-0.551l0.009-0.003
		L69.463,74.85z M69.696,74.538l-0.228-0.264l-0.004,0.037l0.033-0.676l0.075-0.055l0.536,0.505L69.696,74.538z M70.139,69.483
		l-0.007,0.104l0.007,0.004l-0.011,1.434c-0.035-0.002-0.072-0.004-0.105-0.005c-0.13-0.003-0.26-0.019-0.427-0.032l0.483-0.342
		l-0.004-0.04l0.009-0.075l-0.654-0.756l0.702-0.495l-0.003-0.041l0.01-0.074l-0.419-0.483l0.424-0.469l-0.012-0.08l0.003-0.041
		l-0.528-0.493l0.547-0.385L70.139,69.483z M69.389,71.938l-0.055-0.148c0.025,0.008,0.052,0.013,0.08,0.018l-0.009,0.903
		l-0.585,0.288l0.008-1.285c0.026,0.008,0.152,0.044,0.184,0.051h0.215l0.028,0.01l0.155,0.384L69.389,71.938z M69.405,54.764
		l-0.056-0.148c0.028,0.006,0.055,0.012,0.081,0.018l-0.003,0.346l0.001,0.006l-0.001-0.002l-0.004,0.553l-0.587,0.288l0.01-1.284
		c0.026,0.008,0.152,0.044,0.183,0.051h0.214l0.03,0.007l0.154,0.386v-0.004L69.405,54.764z M69.295,48.686
		c0.025,0.005,0.053,0.011,0.082,0.016l-0.003,0.904l-0.504,0.246l0.019-1.313c0.077,0.049,0.19,0.093,0.329,0.128l0.157,0.372
		v-0.166L69.295,48.686z M69.396,42.431c-0.097,0.006-0.185,0.017-0.261,0.033l-0.172-0.465l0.435-0.22L69.396,42.431z
		 M69.419,37.62l-0.308-0.22l0.312-0.069L69.419,37.62z M69.37,62.527l-0.001,0.205c-0.001,0.164-0.001,0.329-0.002,0.493
		l-0.508,0.279c0.008-0.668,0.018-1.335,0.027-2.003l0.481,1.339l0.001-0.108c0-0.068,0-0.138,0-0.207l-0.448-1.111l0.453-0.229
		c-0.001,0.447-0.003,0.895-0.005,1.341L69.37,62.527z M69.366,63.407c-0.001,0.56-0.002,1.117-0.005,1.676l-0.508-1.247
		l0.001-0.148L69.366,63.407z M68.89,61.291l0.011-0.815c0.042,0.015,0.091,0.03,0.148,0.044h0.328l-0.002,0.526L68.89,61.291z
		 M69.36,59.722c-0.134-0.008-0.292-0.015-0.482-0.019c-0.014,0-0.027,0.001-0.041,0.003c0.009-0.395,0.017-0.79,0.025-1.184
		L69.36,59.722z M68.866,58.324l0.002-0.146l0.534-0.28c-0.006,0.56-0.012,1.117-0.018,1.676L68.866,58.324z M68.852,64.032
		l0.487,1.199c-0.13-0.008-0.281-0.015-0.465-0.017c-0.014,0-0.027,0-0.04,0.001C68.84,64.821,68.846,64.427,68.852,64.032z
		 M68.871,65.715c0.077,0.049,0.19,0.093,0.328,0.128l0.157,0.372l0.001-0.101v-0.066l-0.08-0.187
		c0.026,0.006,0.054,0.011,0.081,0.016l-0.001,0.171l0.001,0.001l-0.001,0.065l-0.002,0.667l-0.504,0.246L68.871,65.715z
		 M69.408,57.209c-0.002,0.169-0.004,0.338-0.005,0.507l-0.531,0.279c0.015-0.668-0.038-1.377-0.024-2.045L69.408,57.209
		c0.001-0.085,0.002-0.17,0.002-0.256l-0.459-1.049l0.472-0.23c-0.005,0.427-0.009,0.854-0.013,1.279l0.037,0.084L69.408,57.209z
		 M69.443,51.745l-0.002,0.002l0.001-0.453l0.175,0.203l-0.125,0.138l0.018,0.12l0.17-0.188l0.398,0.46l-0.641,0.451l0.003-0.551
		l0.008-0.004L69.443,51.745z M69.448,49.569l0.001-0.427l0.085,0.13l-0.081,0.057l0.012,0.12l0.138-0.097l0.516,0.596l-0.571,0.4
		l-0.101-0.094l0.001-0.545l0.009-0.006l0.004-0.14L69.448,49.569z M69.462,46.066L69.462,46.066l-0.003-0.056l-0.003,0.001v-0.092
		l0.003,0.091h0.001L69.462,46.066l0.226-0.233l0.385,0.459l-0.618,0.45l0.002-0.549l0.009-0.005L69.462,46.066z M69.465,43.834
		l0.002-0.854c0.079,0.013,0.162,0.023,0.249,0.029c0.101,0.007,0.198,0.008,0.289,0.005l0.099,0.118l-0.489,0.357l-0.112-0.135
		l-0.014,0.114l0.059,0.07l-0.078,0.056l0.011,0.121l0.133-0.098l0.498,0.596l-0.551,0.401l-0.099-0.095l0.002-0.546l0.011-0.005
		l0.003-0.14L69.465,43.834z M69.472,41.604c0.002-0.604,0.005-1.208,0.008-1.812l0.707,0.683l-0.002,0.43l-0.004-0.002
		l-0.005,0.062l-0.642-0.772l-0.014,0.114l0.621,0.745l-0.551,0.401l-0.104-0.102l-0.007,0.123l0.035,0.034l-0.007,0.006l0.01,0.12
		l0.072-0.053l0.52,0.503L69.8,42.44c-0.021-0.001-0.041-0.003-0.062-0.005c-0.038-0.003-0.076-0.004-0.112-0.006l-0.131-0.156
		l-0.012,0.114l0.034,0.041c-0.017,0-0.031,0-0.049,0l0.004-0.687l0.026-0.014l0.004-0.139L69.472,41.604z M69.271,23.321
		l0.051,0.031l-0.028,0.013l-0.071-0.003l-0.016-0.035l-0.036-0.088l0.076-0.104l0.203,0.159l-0.041,0.019l-0.169-0.111
		L69.271,23.321z M69.379,22.708l-0.129-0.312l0.259,0.012l-0.011,0.211L69.379,22.708z M69.418,23.121l-0.104-0.08l0.045-0.06
		L69.418,23.121z M69.112,22.882L69.112,22.882l-0.122-0.093l0.222,0.012l0.023,0.015L69.112,22.882z M69.282,22.931l-0.039,0.054
		l-0.052-0.039L69.282,22.931z M68.959,22.731l-0.006-0.016l0.08,0.02L68.959,22.731z M68.927,22.652l-0.013-0.028l0.074,0.042
		L68.927,22.652z M68.898,23.287l0.025,0.059l-0.034-0.001L68.898,23.287z M68.892,22.569L68.892,22.569l0.005,0.011L68.892,22.569z
		 M68.852,22.472l-0.041-0.097l0.106,0.006L68.852,22.472z M68.87,23.219l-0.011-0.016l0.005-0.001L68.87,23.219z M68.878,23.401
		l0.071,0.003l0.035,0.084l-0.148,0.157L68.878,23.401z M69.019,23.571l0.05,0.118l-0.183,0.047L69.019,23.571z M69.041,23.783
		l0.064-0.009l0.001,0.005l-0.004,0.024l-0.114-0.006L69.041,23.783z M69.07,22.998l0.104,0.081l-0.044,0.062L69.07,22.998z
		 M69.423,22.811l0.064,0.004l-0.007,0.139L69.423,22.811z M69.488,24.315l0.039-0.01l-0.029-0.054l0.042-0.124l-0.038-0.093
		l0.002-0.053l0.237,0.141l-0.003,0.058l-0.07,0.038l-0.082,0.088l0.149-0.023l-0.004,0.13l-0.053,0.07l-0.198-0.013L69.488,24.315z
		 M69.652,23.303l0.118-0.053l0.001,0.001l-0.005,0.137l-0.108-0.006l-0.008-0.017h0.081L69.652,23.303z M70.267,27.863
		l-0.001,0.247c-0.006,0-0.012,0-0.018,0c-0.157-0.006-0.312-0.028-0.566-0.045l0.01-0.242L70.267,27.863z M69.787,22.774
		l-0.177-0.009l0.166-0.122l0.016,0.015L69.787,22.774z M69.882,24.359l0.114-0.154l-0.109-0.071l-0.072-0.048l0.002-0.084
		l0.019-0.101l0.094,0.004l0.362,0.251l-0.003,0.264l-0.315,0.084L69.8,24.494l0.001-0.022L69.882,24.359z M69.806,24.31
		l0.001-0.037l0.029-0.004L69.806,24.31z M70.607,30.288c-0.01-0.012-0.021-0.023-0.037-0.032l0.025,0.001l-0.022-0.111
		l-0.251-0.009l0.002-0.354l0.283,0.289V30.288z M70.611,30.982l0.001,0.279l-0.233-0.239
		C70.463,31.007,70.543,30.993,70.611,30.982z M70.39,30.25c-0.017,0.004-0.035,0.009-0.056,0.015l-0.012,0.004v-0.022L70.39,30.25z
		 M70.612,31.368l0.005,1.018l-0.31-0.014l0.01-1.307L70.612,31.368z M70.617,32.492l0.003,1.002l-0.318-0.34l0.006-0.675
		L70.617,32.492z M70.8,23.438l-0.112-0.005l-0.004-0.403l0.18,0.091l0.007,0.266l-0.127,0.047L70.8,23.438z M70.129,63.855
		l-0.007,0.952l0.001,0.001l-0.001,0.145l-0.001-0.001l-0.002,0.337c-0.034-0.001-0.069-0.004-0.103-0.005
		c-0.125-0.005-0.249-0.019-0.411-0.032l0.467-0.342l0.049,0.042l0.001-0.145l-0.676-0.769l0.678-0.495l-0.004-0.04l0.008-0.075
		l-0.403-0.484l0.41-0.467l-0.012-0.08l0.002-0.042l-0.508-0.494l0.526-0.384l-0.015,2.271l-0.005,0.104L70.129,63.855z
		 M69.517,66.448l-0.081,0.057l0.012,0.12l0.138-0.098l0.515,0.596l-0.569,0.401l-0.102-0.096l0.001-0.545l0.011-0.005l0.002-0.141
		l-0.013,0.007l0.002-0.427l-0.001-0.001l0.001-0.073l0.002-0.354c0.081,0.012,0.167,0.023,0.258,0.029
		c0.104,0.006,0.206,0.007,0.3,0.004l0.103,0.118l-0.508,0.356l-0.153-0.189l-0.001,0.035v0.074L69.517,66.448z M69.454,67.705
		l0.076-0.054l0.538,0.505l-0.412,0.452l-0.228-0.264l-0.004,0.037l0.003-0.825l0.022,0.023l-0.008,0.007L69.454,67.705z
		 M69.444,63.24L69.444,63.24l-0.002-0.056l-0.002,0.002v-0.095l0.002,0.093L69.444,63.24l0.227-0.231l0.383,0.46l-0.617,0.449
		l0.001-0.55l0.01-0.004L69.444,63.24z M69.469,61.971l0.072-0.054l0.52,0.504l-0.395,0.452l-0.22-0.264l-0.005,0.037l0.002-0.824
		l0.023,0.022l-0.009,0.006L69.469,61.971z M69.61,62.937l-0.17,0.145l0.001-0.348L69.61,62.937z M69.431,65.238
		c0.002-0.36,0.004-0.723,0.005-1.082l0.567,0.679l-0.555,0.404L69.431,65.238z M69.596,60.664l-0.112-0.135l-0.012,0.113
		l0.059,0.071l-0.078,0.056l0.011,0.119l0.133-0.096l0.497,0.596l-0.551,0.4l-0.099-0.095l0.003-0.547l0.009-0.004l0.004-0.142
		l-0.012,0.008l0.001-0.49h0.314l0.041-0.007L69.596,60.664z M70.035,60.471l0.115-0.021l-0.006,0.871l-0.483-0.577L70.035,60.471z
		 M69.456,59.729c0.004-0.361,0.009-0.723,0.012-1.083l0.583,0.68l-0.577,0.404L69.456,59.729z M69.48,57.676l-0.003,0.001
		l0.005-0.453l0.173,0.203l-0.125,0.138l0.017,0.122l0.171-0.188l0.396,0.459l-0.643,0.451l0.006-0.551l0.009-0.005L69.48,57.676z
		 M69.715,57.363L69.487,57.1l-0.005,0.037l0.034-0.677l0.074-0.054l0.535,0.506L69.715,57.363z M69.492,56.185l0.005-0.547
		l0.009-0.004l0.005-0.141L69.498,55.5l0.004-0.467l-0.02-0.082l0.021,0.023l0.003-0.33c0.081,0.014,0.169,0.023,0.259,0.028
		c0.104,0.009,0.205,0.01,0.299,0.006l0.103,0.118l-0.511,0.356l-0.152-0.179l-0.001,0.059l0.024,0.1l0.06,0.069l-0.081,0.058
		l0.011,0.119l0.139-0.098l0.512,0.597l-0.573,0.402L69.492,56.185z M70.093,53.431l0.009-0.075L69.447,52.6l0.702-0.496
		l-0.003-0.04l0.008-0.075l-0.417-0.482l0.424-0.47l-0.012-0.079l0.001-0.042l-0.525-0.493l0.547-0.386l-0.017,2.273l-0.006,0.104
		l0.006,0.003l-0.009,1.435c-0.036-0.003-0.073-0.004-0.108-0.005c-0.13-0.005-0.257-0.019-0.426-0.033l0.485-0.341L70.093,53.431z
		 M69.463,46.864l0.679-0.495l-0.004-0.041l0.009-0.075l-0.403-0.483l0.407-0.468l-0.009-0.081l0.001-0.041l-0.508-0.495
		l0.527-0.384l-0.015,2.271l-0.006,0.104l0.005,0.003l-0.006,0.956v0.143l-0.001-0.001l-0.002,0.336
		c-0.036-0.002-0.07-0.004-0.104-0.004c-0.126-0.005-0.249-0.019-0.41-0.033l0.467-0.341l0.049,0.042l0.001-0.142v-0.002
		L69.463,46.864z M69.667,41.525l0.515-0.377l-0.007,0.936l-0.002-0.024l0.001-0.041L69.667,41.525z M70.175,42.149L70.173,42.5
		c-0.08-0.02-0.168-0.036-0.261-0.048L70.175,42.149z M70.169,43.002v0.08l-0.062-0.073C70.129,43.006,70.149,43.004,70.169,43.002z
		 M70.168,43.211l-0.005,0.935l-0.483-0.579L70.168,43.211z M70.181,48.737l-0.001,0.08l-0.063-0.073
		C70.138,48.741,70.16,48.739,70.181,48.737z M70.178,48.945l-0.005,0.937l-0.5-0.579L70.178,48.945z M69.724,55.233l0.509-0.356
		l-0.011,0.935L69.724,55.233z M70.172,54.673c0.021-0.001,0.042-0.003,0.064-0.007l-0.001,0.081L70.172,54.673z M70.187,40.365
		l-0.594-0.573l0.598,0.053L70.187,40.365z M70.195,38.998l-0.416-0.251c0.037-0.005,0.077-0.011,0.119-0.019
		c0.099-0.018,0.2-0.037,0.299-0.056L70.195,38.998z M70.218,46.539v-0.107l0.454-1.184l0.008,1.569L70.218,46.539z M70.678,47.001
		l-0.429,1.121l-0.042-0.003l0.01-1.396L70.678,47.001z M69.608,34.839l0.613,0.028l-0.004,0.622L69.608,34.839z M70.67,45.066
		l-0.451,1.178l0.011-1.553l0.44,0.266V45.066z M70.24,42.992c0.079-0.011,0.149-0.028,0.209-0.048l0.213,0.129l0.001,0.128
		l-0.432,1.124L70.24,42.992z M70.234,33.08l-0.592-0.632l0.595,0.028L70.234,33.08z M70.339,42.55l0.318-0.831l0.005,1.169
		l-0.059-0.035c0.02-0.021,0.029-0.044,0.03-0.068C70.638,42.7,70.523,42.615,70.339,42.55z M70.664,43.382l0.005,1.39l-0.437-0.263
		L70.664,43.382z M70.668,28.109l-0.001-0.219l0.016,0.001l0.003,0.235L70.668,28.109z M70.683,22.928l-0.001-0.052l0.176,0.009
		l0.004,0.134L70.683,22.928z M70.682,22.819l-0.004-0.27l0.172,0.042l0.007,0.237L70.682,22.819z M70.678,22.492l-0.001-0.031
		l0.169,0.007l0.002,0.065L70.678,22.492z M70.677,22.403l-0.001-0.094l0.166,0.006l0.002,0.095L70.677,22.403z M70.676,22.265
		l-0.021-1.928l0.131-0.049l0.054,1.983L70.676,22.265z M70.656,41.373v0.167l-0.38,0.989c-0.011-0.004-0.021-0.007-0.033-0.01
		l0.008-1.39L70.656,41.373z M70.26,29.01l-0.003,0.434l-0.345-0.188l-0.257-0.263v-0.003L70.26,29.01z M69.658,28.879l0.002-0.054
		c0.095-0.001,0.202-0.011,0.328-0.034c0.09-0.017,0.182-0.034,0.273-0.052L70.261,28.9L69.658,28.879z M70.256,29.562v0.046
		l-0.098-0.101L70.256,29.562z M69.693,29.136l-0.041-0.022v-0.019L69.693,29.136z M69.938,29.387l0.304,0.312l-0.613,0.211
		c0.007-0.228,0.014-0.455,0.02-0.681L69.938,29.387z M70.255,29.804l-0.003,0.332l-0.628-0.022l0.002-0.093L70.255,29.804z
		 M70.254,40.947l0.002-0.405l0.398,0.384l0.001,0.263L70.254,40.947z M70.257,40.434l0.004-0.583l0.39,0.035l0.004,0.931
		L70.257,40.434z M70.261,39.743l0.002-0.298l0.385-0.017l0.002,0.348L70.261,39.743z M70.264,39.344v-0.191l0.294,0.178
		L70.264,39.344z M70.266,39.041l0.002-0.382c0.14-0.025,0.269-0.051,0.375-0.071l0.003,0.685L70.266,39.041z M70.272,38.007
		l0.006-0.865l0.358-0.08l0.003,0.975C70.542,38.027,70.404,38.014,70.272,38.007z M70.278,37.051v-0.066
		c0.179-0.049,0.309-0.131,0.357-0.233l0.001,0.22L70.278,37.051z M70.331,36.312l0.023-0.006l-0.007-0.039l0.017-0.069l-0.08-0.056
		l0.002-0.467l0.286,0.304l0.023-0.086l-0.309-0.331l0.006-0.693l0.335,0.015l0.006,1.681C70.59,36.47,70.481,36.381,70.331,36.312z
		 M70.292,24.05l-0.194-0.134l0.195,0.011L70.292,24.05z M70.624,34.777l-0.331-0.015l0.009-1.497l0.305,0.324l0.014-0.058
		l0.007,1.264L70.624,34.777z M70.294,23.612v0.114l-0.092-0.102L70.294,23.612z M70.16,23.577l-0.106-0.117l0.241,0.011
		l-0.001,0.088L70.16,23.577z M70.139,22.242l-0.261-0.013l0.003-0.116l0.269,0.124L70.139,22.242z M70.288,22.302l0.014,0.006v0.08
		l-0.064-0.003l-0.1-0.024l-0.03-0.001L70.288,22.302z M70.019,22.28l-0.145,0.045l0.002-0.052L70.019,22.28z M70.06,22.433
		l0.173,0.007l0.068,0.018L70.299,22.8l-0.154-0.008l-0.278-0.179l0.001-0.037L70.06,22.433z M70.299,22.856v0.034l-0.059-0.037
		L70.299,22.856z M70.304,22.189l-0.041,0.012l-0.374-0.271l0.009-0.259l0.407,0.296L70.304,22.189z M69.874,20.245l-0.03,0.012
		l-0.12-0.588l0.167,0.126L69.874,20.245z M69.86,20.636v0.017h-0.043L69.86,20.636z M69.86,22.726l0.056,0.055l-0.058-0.003
		L69.86,22.726z M69.975,22.84l0.074,0.072l-0.194,0l0.002-0.079L69.975,22.84z M70.049,23.022l-0.201,0.091l0.003-0.091
		L70.049,23.022z M70.194,23.057l0.104,0.102l-0.003,0.255L70,23.399l-0.156-0.173v-0.009L70.194,23.057z M69.899,23.394
		l-0.062-0.003l0.002-0.063L69.899,23.394z M69.953,23.454l0.121,0.135l-0.244,0.034l0.006-0.174L69.953,23.454z M70.117,23.636
		l0.176,0.195v0.037l-0.287-0.016l-0.18-0.124l0.002-0.053L70.117,23.636z M69.761,23.542l-0.049-0.032h-0.001l-0.029-0.069
		l0.083,0.003L69.761,23.542z M69.774,23.146l-0.002,0l-0.112-0.124l0.119,0L69.774,23.146z M69.676,23.746l0.039,0.091
		l-0.101-0.006L69.676,23.746z M69.738,23.896l0.01,0.022l-0.005,0.124l-0.193-0.125l0.022-0.03L69.738,23.896z M69.622,30.225
		l0.629,0.021v0.046c-0.139,0.039-0.309,0.081-0.472,0.116l-0.158-0.163L69.622,30.225z M69.694,30.426l-0.08,0.016l0.003-0.094
		L69.694,30.426z M70.247,31.046l-0.005,0.564l-0.652-0.193l0.006-0.224C69.771,31.142,70.019,31.09,70.247,31.046z M70.183,31.696
		l-0.607,0.364c0.005-0.18,0.009-0.36,0.012-0.541L70.183,31.696z M70.241,31.769l-0.004,0.6l-0.669-0.03l0.004-0.169L70.241,31.769
		z M70.232,33.191l-0.006,0.967l-0.686-0.486c0.008-0.398,0.016-0.795,0.024-1.193L70.232,33.191z M70.158,34.224l-0.628,0.128
		c0.004-0.189,0.006-0.379,0.01-0.567L70.158,34.224z M70.226,34.309l-0.003,0.451l-0.699-0.032l0.005-0.276L70.226,34.309z
		 M70.217,35.601l-0.003,0.494l-0.702-0.489c0.003-0.25,0.006-0.499,0.011-0.747L70.217,35.601z M70.213,36.215v0.008l-0.076,0.019
		c-0.107-0.03-0.225-0.05-0.352-0.059c-0.098-0.007-0.192-0.007-0.28,0.002c0.001-0.154,0.004-0.307,0.006-0.459L70.213,36.215z
		 M69.754,37.029c0.165,0.013,0.32,0.002,0.454-0.027v0.065l-0.712,0.157l0.002-0.23C69.579,37.01,69.665,37.023,69.754,37.029z
		 M70.207,37.157l-0.005,0.845c-0.01,0-0.018,0-0.027,0c-0.078-0.002-0.157-0.01-0.246-0.017l-0.437-0.312l0.004-0.357
		L70.207,37.157z M69.679,37.962c-0.056-0.004-0.119-0.008-0.188-0.013v-0.122L69.679,37.962z M69.618,38.762l0.576,0.348
		l-0.001,0.237l-0.711,0.03l0.003-0.614C69.527,38.763,69.571,38.763,69.618,38.762z M70.192,39.448l-0.001,0.289l-0.712-0.062
		l0.001-0.196L70.192,39.448z M69.485,44.669l-0.009,0.005l0.011,0.12l0.072-0.053l0.519,0.503l-0.396,0.453l-0.219-0.265
		l-0.004,0.038l0.002-0.824L69.485,44.669z M69.628,45.761l-0.172,0.145l0.002-0.348L69.628,45.761z M70.019,47.66l-0.553,0.404
		l-0.017-0.001c0.001-0.36,0.003-0.721,0.004-1.082L70.019,47.66z M69.45,48.715c0.082,0.012,0.168,0.023,0.259,0.028
		c0.105,0.008,0.205,0.008,0.299,0.006l0.103,0.118l-0.507,0.357l-0.154-0.19L69.45,48.715z M69.469,50.403L69.46,50.41l0.012,0.12
		l0.075-0.053l0.538,0.504l-0.41,0.452l-0.228-0.265l-0.005,0.037l0.002-0.824L69.469,50.403z M70.024,53.396L69.449,53.8
		l-0.017-0.001c0.001-0.361,0.003-0.723,0.004-1.084L70.024,53.396z M69.423,69.104l0.008-0.005l-0.003-0.179l-0.004,0.002
		l0.001-0.453l0.176,0.202l-0.126,0.139l0.018,0.123l0.17-0.188l0.398,0.459l-0.64,0.45L69.423,69.104z M69.654,66.479l0.508-0.357
		l-0.008,0.936L69.654,66.479z M70.099,65.918c0.021-0.001,0.043-0.003,0.064-0.004l-0.001,0.078L70.099,65.918z M70.198,63.898
		l0.463,0.277l-0.43,1.121l-0.041-0.003L70.198,63.898z M70.211,69.633l0.479,0.278l-0.446,1.12L70.2,71.029L70.211,69.633z
		 M70.212,69.451v-0.109l0.471-1.184l0.007,1.569L70.212,69.451z M70.214,69.155l0.011-1.554l0.457,0.267l0.001,0.108L70.214,69.155
		z M70.227,67.419l0.449-1.126l0.006,1.391L70.227,67.419z M70.675,66.112l-0.448,1.124l0.009-1.333
		c0.083-0.012,0.154-0.029,0.216-0.049l0.224,0.13V66.112z M70.612,65.765c0.02-0.021,0.03-0.044,0.031-0.068
		c0.002-0.066-0.066-0.131-0.186-0.187h0.214l0.002,0.29L70.612,65.765z M70.667,65.33c0,0-0.188-0.013-0.367-0.028l0.363-0.946
		l0.005,1.115L70.667,65.33z M70.199,63.715v-0.107l0.456-1.185l0.006,1.57L70.199,63.715z M70.654,62.242L70.2,63.419l0.012-1.553
		l0.442,0.267V62.242z M70.214,61.685l0.432-1.127l0.007,1.391L70.214,61.685z M70.645,60.376l-0.431,1.126l0.006-0.982h0.015
		v-0.084l0.41-0.077V60.376z M70.242,59.784l0.019-1.396l0.477,0.277l-0.452,1.12L70.242,59.784z M70.219,53.854l0.01-1.396
		l0.479,0.277l-0.446,1.121L70.219,53.854z M70.229,52.274l0.001-0.107l0.471-1.184l0.007,1.568L70.229,52.274z M70.7,50.802
		l-0.469,1.177l0.01-1.553l0.459,0.268V50.802z M70.243,50.244l0.449-1.126l0.007,1.39L70.243,50.244z M70.691,48.937l-0.448,1.123
		l0.009-1.333c0.084-0.011,0.156-0.028,0.217-0.048l0.223,0.129V48.937z M70.631,48.589c0.02-0.021,0.029-0.044,0.03-0.069
		c0.003-0.065-0.066-0.131-0.185-0.187h0.212l0.001,0.29L70.631,48.589z M70.684,48.154c0,0-0.188-0.012-0.365-0.027l0.362-0.947
		l0.005,1.115L70.684,48.154z M70.678,30.523l-0.001-0.379l0.012,0.014l0.017-0.09l-0.028-0.028l-0.007-1.377l0.02-0.004
		l0.022,1.985C70.698,30.604,70.687,30.563,70.678,30.523z M70.688,23.558l0.088-0.012l-0.088-0.012v-0.042l0.187,0.009l0.011,0.402
		l-0.193-0.012L70.688,23.558z M70.598,28.034l-0.149-0.159l0.147,0.011L70.598,28.034z M70.552,22.963l0.023,0.012l0.001,0.093
		l-0.074-0.048h0.061L70.552,22.963z M70.533,22.397l-0.139-0.101l0.179,0.008v0.095L70.533,22.397z M70.573,22.456v0.011
		l-0.054-0.014L70.573,22.456z M70.437,22.255l0.136-0.044v0.05L70.437,22.255z M70.395,18.902l0.01-0.003l0.153,0l0.004,0.608
		c-0.052-0.001-0.112,0-0.172,0.004L70.395,18.902z M70.386,20.438l0.179-0.067l0.002,0.293l-0.003-0.014l-0.181,0L70.386,20.438z
		 M70.383,20.761l0.184-0.001l0.004,0.989l-0.192-0.214L70.383,20.761z M70.378,21.641l0.192,0.215l0.002,0.196l-0.197-0.143
		L70.378,21.641z M70.374,22.018l0.143,0.103l-0.144,0.045L70.374,22.018z M70.373,22.34l0.12,0.056l-0.121-0.005L70.373,22.34z
		 M70.372,22.474l0.202,0.05l0.001,0.29l-0.206-0.01L70.372,22.474z M70.369,22.86l0.206,0.01v0.004l-0.001-0.001l-0.129,0.002
		l-0.063-0.004l-0.013,0.005V22.86z M70.367,23.228l0.201,0.199l-0.202-0.01L70.367,23.228z M70.366,23.475l0.211,0.01v0.034
		l-0.213,0.029L70.366,23.475z M70.364,23.602l0.213-0.03l0.002,0.312l-0.15-0.007l-0.065-0.073L70.364,23.602z M70.58,23.942v0.104
		l-0.098-0.109L70.58,23.942z M70.363,23.93l0.02,0l0.191,0.215l0.006-0.037l0.002,0.142l-0.22-0.152L70.363,23.93z M70.361,24.206
		l0.205,0.142l-0.206,0.056L70.361,24.206z M70.358,24.513l0.224-0.06l0.001,0.096l-0.225-0.016V24.513z M70.338,27.868l0.004,0
		l0.248,0.265c-0.078-0.008-0.168-0.015-0.254-0.021L70.338,27.868z M70.331,28.727c0.098-0.017,0.188-0.035,0.27-0.051l0.001,0.236
		l-0.271-0.009L70.331,28.727z M70.602,29.022l0.005,0.945l-0.209-0.214l0.139-0.048l-0.005-0.035l0.021-0.066l-0.226-0.124
		l0.003-0.469L70.602,29.022z M70.325,29.67V29.6l0.081,0.043L70.325,29.67z M70.005,18.672c0.021-0.006,0.048-0.015,0.08-0.025
		l-0.078-0.005c0.034-0.396,0.065-0.782,0.065-0.782s0.142-0.145,0.203,0.014c0.042,0.104,0.05,0.513,0.051,0.791h-0.001v0.125
		l-0.331,0.001L70.005,18.672z M69.99,18.9l0.334-0.001l-0.004,0.62c-0.008,0.003-0.015,0.006-0.021,0.012l-0.318-0.354L69.99,18.9z
		 M69.979,19.279l0.298,0.333c-0.002,0.07,0.019,0.168,0.042,0.252l-0.001,0.146l-0.354-0.27L69.979,19.279z M69.959,19.848
		l0.314,0.239l-0.327,0.13L69.959,19.848z M69.935,20.609l0.38-0.143l-0.002,0.185l-0.382,0.002L69.935,20.609z M69.928,20.761
		l0.385,0l-0.005,0.696l-0.389-0.432L69.928,20.761z M70.307,21.563l-0.001,0.295L69.9,21.565l0.016-0.438L70.307,21.563z
		 M69.913,19.086L69.912,19.1l-0.01-0.011C69.905,19.088,69.908,19.087,69.913,19.086z M69.74,19.014l0.168,0.188l-0.016,0.486
		l-0.178-0.136L69.74,19.014z M69.856,20.762l-0.007,0.187l-0.168-0.187L69.856,20.762z M69.654,20.837l0.193,0.213l-0.017,0.465
		l-0.202-0.146L69.654,20.837z M69.624,21.474l0.204,0.147l-0.011,0.259l-0.206-0.149L69.624,21.474z M69.6,21.983l0.211,0.098
		l-0.005,0.146l-0.218-0.009L69.6,21.983z M69.586,22.261l0.219,0.009l-0.002,0.079l-0.044,0.014l-0.177-0.007L69.586,22.261z
		 M69.58,22.411l0.025,0.001l-0.026,0.009L69.58,22.411z M69.573,22.531l0.069-0.022l0.001,0.002l-0.071,0.052L69.573,22.531z
		 M69.56,22.818l0.226,0.012l-0.003,0.082l-0.227,0L69.56,22.818z M69.555,22.928l0.011,0.057l-0.006,0.031l0.145,0.162l-0.11,0.05
		l-0.048-0.118L69.555,22.928z M69.528,23.474l0.047,0.028l0.003,0.006l0.007,0.017l-0.029,0.017l-0.029-0.021L69.528,23.474z
		 M69.521,23.653l0.034-0.005l0.014,0.01l-0.048,0.007V23.653z M69.591,23.708l-0.079,0.109l0.005-0.099L69.591,23.708z
		 M69.515,22.258l-0.004,0.093l-0.284-0.012l-0.04-0.096L69.515,22.258z M69.083,22.311l0.008,0.022l-0.024-0.001L69.083,22.311z
		 M69.114,22.39l0.142,0.343l-0.038-0.009L68.92,22.53l0.106-0.145L69.114,22.39z M68.998,22.271l-0.04,0.056l-0.17-0.008
		l-0.006-0.013L68.998,22.271z M68.823,22.227l-0.051,0.056l-0.024-0.059L68.823,22.227z M68.722,22.869l0.024,0.055l-0.087,0.092
		l-0.006,0.146l0.127-0.155l0.049,0.117l-0.176,0.045l-0.003,0.088l0.19-0.049l-0.02,0.134l-0.394-0.02l-0.006-0.008l-0.221-0.013
		l0.009,0.01l-0.677-0.034l-0.001,0l-0.127-0.006l-0.549-0.027c0.024-0.062,0.045-0.127,0.061-0.196
		c0.017-0.08,0.025-0.158,0.025-0.231l0.193-0.069l0.534,0.417l-0.308,0.104l0.043,0.002l0.128,0.006l0.211-0.055l0.085,0.066
		l0.19,0l-0.145-0.114L68.722,22.869z M68.673,22.647l-0.002,0.064v0.005l-1.747-0.088c-0.014-0.065-0.037-0.122-0.064-0.17
		l0.217-0.162l0.203,0.01L68.673,22.647z M67.565,22.319l1.118,0.051l-0.01,0.221L67.565,22.319z M67.059,22.691l-0.119,0.043
		c-0.001-0.017-0.003-0.034-0.006-0.05L67.059,22.691z M67.8,23.119l-0.536-0.417l1.419,0.072l0.009,0.022L67.8,23.119z
		 M57.771,21.822l-0.026-0.001l-0.004-0.014l0.049,0.002L57.771,21.822z M57.725,21.75l-0.003-0.009l8.61,0.376l2.357,0.104
		l-0.003,0.093l-1.403-0.064l-0.122-0.03l-0.085-0.001l-0.185-0.015l-0.036,0.027l-0.531-0.024v0.005l-5.171-0.236l-0.1-0.024
		l-0.084-0.001l-0.186-0.015l-0.027,0.021l-2.556-0.116l-0.124-0.03l-0.054,0l0.004-0.046L57.725,21.75z M60.976,22.022l0.174,0.007
		l1.839,0.437l-2.458-0.125L60.976,22.022z M60.242,22.325l-1.76-0.417l2.201,0.1L60.242,22.325z M61.438,22.043l2.484,0.114
		l-0.466,0.333l-0.171-0.009L61.438,22.043z M57.992,21.886l0.204,0.009l1.755,0.417l-1.959-0.099l0.002-0.006L57.859,22.2
		l-0.055-0.18L57.992,21.886z M59.13,22.865l-1.182-0.058l0.018-0.238c-0.018-0.065-0.037-0.132-0.056-0.198l0.143-0.05l0.538,0.404
		L58.37,22.8l0.179,0.019l0.115-0.04l0.085,0.064l0.191,0l-0.147-0.109l0.973-0.337l0.603,0.454l-0.156,0.069l-0.863-0.042
		l-0.008-0.008l-0.222-0.014L59.13,22.865z M57.889,22.297l-0.011-0.036l0.101,0.005L57.889,22.297z M58.183,22.277l1.48,0.074
		l-0.942,0.329L58.183,22.277z M57.853,23.223c0.024-0.029,0.05-0.064,0.073-0.104l0.014-0.184l0.213-0.028l-0.194-0.025
		l-0.016,0.002l0.002-0.021l1.239,0.061l0.361,0.393L57.853,23.223z M59.875,23.333l2.146-0.27
		c-0.166-0.008-0.331-0.017-0.497-0.024L59.738,23.3l-0.337-0.366c0.708,0.035,1.415,0.07,2.122,0.105l0.002,0l0.498,0.024l-0.003,0
		c0.204,0.01,0.409,0.02,0.614,0.03l0.412,0.413C61.99,23.448,60.934,23.391,59.875,23.333z M60.571,22.861l0.826-0.361l0.694,0.338
		l-0.431,0.149l0.061,0.006l-1.308-0.064l0.038-0.017l0.009,0.007l0.189,0.001L60.571,22.861z M62.575,23.035l-0.153-0.007
		l0.151,0.005v0l0.09,0.003l-0.357-0.191l0.751-0.26l0.678,0.509l-0.871-0.043l-0.007-0.007l-0.193-0.007l-0.09-0.003L62.575,23.035
		z M62.41,23.027L61.857,23l0.332-0.115L62.41,23.027z M63.568,23.535l-0.232-0.013l-0.416-0.415
		c0.886,0.043,1.77,0.087,2.653,0.131L63.568,23.535z M65.754,23.623c-0.001,0.011-0.001,0.022,0,0.032
		c-0.625-0.034-1.248-0.068-1.872-0.103l1.926-0.285C65.787,23.366,65.769,23.482,65.754,23.623z M65.823,23.196
		c-0.571-0.028-1.142-0.057-1.714-0.085l1.108-0.384l0.607,0.456L65.823,23.196z M65.931,22.75c-0.015,0.096-0.044,0.19-0.076,0.313
		l-0.513-0.384l0.068-0.035l-0.228-0.012l-1.257,0.462l-0.745-0.559h-0.063l-0.118-0.013l-0.789,0.274l-0.718-0.35l-0.128,0.002
		L61.3,22.445l-0.812,0.354l-0.578-0.435l3.594,0.183l0.165,0.012l0.005-0.003l1.509,0.077l0.001,0l0.229,0.011l-0.002,0.001
		l0.533,0.027C65.938,22.697,65.935,22.725,65.931,22.75z M65.955,22.617l-2.21-0.112l0.468-0.334l1.749,0.415L65.955,22.617z
		 M66.041,22.253c0,0-0.031,0.143-0.066,0.281l-1.479-0.351l1.767,0.08L66.041,22.253z M66.312,22.427l0.012-0.165l0.461,0.021
		l-0.061,0.043c-0.031-0.016-0.067-0.027-0.105-0.029C66.517,22.291,66.409,22.339,66.312,22.427z M66.544,23.664
		c0.084-0.055,0.16-0.141,0.224-0.243l0.597-0.093l-0.193-0.01l-0.066-0.003l-0.303,0.047c0.01-0.02,0.021-0.04,0.03-0.061
		l0.339,0.017l0.196,0.009l-0.003,0l0.899,0.044l0.359,0.406L66.544,23.664z M68.647,23.567l-0.008-0.019v0.01l-0.157-0.176
		l0.331,0.017l-0.046,0.306L68.647,23.567z M69.049,24.172l-0.038,0.264l-0.244-0.582l0.035-0.01l0.293,0.016L69.049,24.172z
		 M69.158,23.901l0.077,0.183l-0.137,0.143L69.158,23.901z M69.15,24.315l0.12-0.147l0.045,0.104L69.15,24.315z M69.246,23.42
		l0.207,0.01l0.005,0.003l-0.009,0.181l-0.056,0.059l0.054-0.008v0.01l-0.091,0.013L69.246,23.42z M69.378,23.737l0.065-0.008
		l-0.003,0.093l-0.029-0.001L69.378,23.737z M69.327,27.797l0.291,0.021L69.61,28.06c-0.086-0.004-0.183-0.01-0.295-0.012
		L69.327,27.797z M69.285,28.771c0.076,0.024,0.174,0.047,0.302,0.052l-0.001,0.054l-0.058-0.001l0.016,0.073l-0.004,0.03
		l0.042,0.043l-0.002,0.052l-0.296-0.162l-0.007,0.02L69.285,28.771z M69.273,29.024l0.304,0.166
		c-0.007,0.249-0.016,0.498-0.021,0.746l-0.325,0.112C69.244,29.706,69.259,29.365,69.273,29.024z M69.228,30.159l0.326-0.112
		l-0.004,0.065l-0.075-0.003l0.017,0.073l-0.005,0.031l0.06,0.062l-0.005,0.183c-0.133,0.027-0.25,0.05-0.329,0.065L69.228,30.159z
		 M69.191,31.045c0.044,0.17,0.105,0.304,0.187,0.239c0.026-0.022,0.076-0.044,0.145-0.067l-0.005,0.178l-0.335-0.099L69.191,31.045
		z M69.18,31.398l0.335,0.1c-0.005,0.202-0.01,0.405-0.015,0.607l-0.354,0.213C69.156,32.012,69.167,31.706,69.18,31.398z
		 M69.142,32.427l0.356-0.213c-0.011,0.469-0.021,0.938-0.029,1.406l-0.294-0.208L69.14,33.5l0.327,0.233
		c-0.004,0.211-0.008,0.423-0.012,0.635l-0.376,0.076C69.098,33.771,69.118,33.099,69.142,32.427z M69.074,34.543l0.38-0.076
		c-0.006,0.361-0.011,0.724-0.017,1.087l-0.372-0.261l-0.011,0.044C69.062,35.073,69.068,34.809,69.074,34.543z M69.054,35.407
		l0.383,0.267c-0.002,0.173-0.003,0.346-0.006,0.519c-0.163,0.022-0.301,0.068-0.398,0.131
		C69.039,36.018,69.046,35.712,69.054,35.407z M69.022,36.788c0.096,0.078,0.236,0.144,0.402,0.188l-0.002,0.265l-0.411,0.09
		C69.016,37.15,69.019,36.969,69.022,36.788z M69.009,37.482l0.409,0.293l-0.002,0.169c-0.102-0.005-0.218-0.009-0.352-0.012
		c-0.023,0-0.044,0.001-0.063,0.005L69.009,37.482z M68.988,38.631c0.019,0.017,0.036,0.03,0.055,0.037
		c0.086,0.032,0.199,0.075,0.368,0.09l-0.003,0.621l-0.432,0.019C68.979,39.143,68.984,38.887,68.988,38.631z M68.974,39.501
		l0.297-0.013l-0.3,0.234L68.974,39.501z M68.967,39.874l0.439-0.342l-0.004-0.049l0.006,0c-0.003,0.449-0.004,0.898-0.006,1.347
		l-0.437-0.812L68.967,39.874z M68.964,40.152l0.438,0.816l-0.003,0.673l-0.461,0.233C68.945,41.3,68.954,40.727,68.964,40.152z
		 M68.935,42.102l0.139,0.376c-0.057,0.015-0.106,0.033-0.145,0.053L68.935,42.102z M68.924,42.803
		c0.075,0.05,0.186,0.094,0.318,0.129l0.106,0.29l0.021-0.125l-0.054-0.146c0.025,0.006,0.051,0.011,0.077,0.016l-0.002,0.904
		l-0.484,0.246L68.924,42.803z M68.904,44.326l0.481,1.339l0.001-0.314l-0.448-1.113l0.452-0.229
		c-0.001,0.681-0.004,1.36-0.005,2.041l-0.51,0.279C68.886,45.662,68.895,44.994,68.904,44.326z M68.873,46.513l0.512-0.281
		c-0.001,0.559-0.004,1.118-0.005,1.676l-0.509-1.247L68.873,46.513z M68.868,46.857l0.488,1.199
		c-0.129-0.008-0.282-0.015-0.465-0.018c-0.014,0-0.027,0-0.04,0.001C68.858,47.646,68.862,47.252,68.868,46.857z M68.866,50.06
		l0.437,1.135l0.021-0.124l-0.421-1.097l0.47-0.231c-0.003,0.68-0.006,1.362-0.007,2.042l-0.527,0.278
		C68.848,51.396,68.858,50.73,68.866,50.06z M68.836,52.247l0.529-0.279c-0.001,0.558-0.004,1.117-0.005,1.675l-0.527-1.248
		L68.836,52.247z M68.813,53.775c0.006-0.394,0.011-0.789,0.016-1.183l0.507,1.197c-0.134-0.007-0.29-0.013-0.481-0.016
		C68.841,53.774,68.826,53.775,68.813,53.775z M68.849,67.237l0.437,1.135l0.023-0.125l-0.423-1.098l0.47-0.229
		c-0.002,0.681-0.006,1.361-0.007,2.041l-0.527,0.278C68.829,68.572,68.84,67.905,68.849,67.237z M68.817,69.424l0.53-0.281
		c-0.001,0.558-0.004,1.117-0.006,1.676l-0.526-1.247L68.817,69.424z M68.796,70.951c0.005-0.396,0.011-0.789,0.018-1.184l0.505,1.2
		c-0.134-0.01-0.291-0.016-0.481-0.019C68.822,70.949,68.809,70.95,68.796,70.951z M68.861,76.88c-0.015,0-0.028,0-0.042,0.001
		c0.008-0.395,0.018-0.789,0.025-1.183l0.497,1.198C69.209,76.89,69.052,76.882,68.861,76.88z M69.367,76.748l-0.52-1.247
		l0.004-0.148l0.532-0.28C69.379,75.632,69.374,76.189,69.367,76.748z M69.391,74.382c-0.002,0.169-0.004,0.339-0.005,0.509
		l-0.531,0.279c0.014-0.668-0.038-1.377-0.025-2.045l0.561,1.26L69.391,74.382c0.001-0.085,0.001-0.17,0.002-0.255l-0.459-1.048
		l0.471-0.229c-0.004,0.426-0.008,0.852-0.012,1.277l0.037,0.084L69.391,74.382z M69.415,70.974
		c0.001-0.361,0.003-0.721,0.004-1.083l0.587,0.68l-0.573,0.404L69.415,70.974z M69.438,76.903c0.005-0.36,0.01-0.721,0.013-1.082
		l0.582,0.681l-0.576,0.402L69.438,76.903z M70.172,75.413l-0.006,0.104l0.004,0.005l-0.019,1.433
		c-0.035-0.001-0.071-0.002-0.106-0.004c-0.129-0.004-0.258-0.02-0.427-0.033l0.486-0.34l-0.003-0.042l0.009-0.074l-0.649-0.757
		l0.707-0.495l-0.004-0.04l0.009-0.075l-0.414-0.483l0.427-0.468l-0.012-0.08l0.002-0.041l-0.523-0.494l0.548-0.385L70.172,75.413z
		 M70.204,72.986l-0.499-0.577l0.511-0.357L70.204,72.986z M70.217,71.922l-0.063-0.072c0.021-0.003,0.044-0.004,0.064-0.006
		L70.217,71.922z M70.226,76.959l0.017-1.396l0.479,0.277l-0.453,1.121L70.226,76.959z M70.72,77.136l-0.036-0.133
		c0,0-0.158-0.02-0.345-0.036l0.384-0.946L70.72,77.136z M70.723,75.658l-0.479-0.277l0.003-0.109l0.479-1.184L70.723,75.658z
		 M70.726,73.907l-0.477,1.177l0.021-1.553l0.456,0.267V73.907z M70.726,73.613l-0.452-0.265l0.454-1.125L70.726,73.613z
		 M70.729,71.914v0.127l-0.455,1.126l0.018-1.334c0.081-0.011,0.153-0.027,0.215-0.049L70.729,71.914z M70.736,59.961l-0.034-0.135
		c0,0-0.159-0.019-0.346-0.034l0.383-0.948L70.736,59.961z M70.74,58.483l-0.478-0.28l0.001-0.106l0.479-1.184L70.74,58.483z
		 M70.743,56.731l-0.477,1.178l0.02-1.553l0.457,0.267V56.731z M70.743,56.438l-0.452-0.265l0.455-1.125L70.743,56.438z
		 M70.746,54.866l-0.454,1.125l0.018-1.333c0.082-0.012,0.154-0.029,0.216-0.049l0.223,0.13L70.746,54.866z M70.878,48.332
		l-0.036,11.556h-0.027l-0.004,0.346l0.006-3.501l0.025-0.063l-0.004-0.055l0.008-0.116l-0.029-0.018l0.003-1.614l-0.046-4.064
		l0.025-0.063l-0.004-0.053l0.007-0.116l-0.03-0.019l-0.007-1.613l0.031-0.079l-0.004-0.054l0.008-0.116l-0.036-0.021l-0.001-0.335
		h-0.007l-0.014-3.265l0.024-0.064l-0.004-0.052l0.007-0.118l-0.029-0.017l-0.008-1.614l0.031-0.079L70.76,43.07l0.008-0.117
		l-0.036-0.021l-0.005-1.393l0.042-0.108l-0.004-0.054l0.007-0.117l-0.046-0.028l-0.001-0.237l0.003,0.004l0.026-0.086l-0.03-0.029
		l-0.005-0.993l0.053,0.004l-0.02-0.109l-0.033-0.004l-0.001-0.356h0.009l-0.006-0.035l0.029-0.056l-0.032-0.02l-0.005-0.741
		l0.086-0.017L70.878,48.332z M70.794,38.124l-0.019-0.07c0,0-0.024-0.004-0.064-0.008l-0.004-1.051l0.018-0.042l-0.019,0.004
		l-0.025-5.986l0.036-0.005L70.794,38.124z M70.7,24.557l-0.008-0.608l0.194,0.01l0.018,0.613L70.7,24.557z M70.9,22.471
		l2.105,0.097l-0.469,0.346l-0.17-0.008l-1.465-0.359L70.9,22.471z M70.904,22.605l1.167,0.285l-1.161-0.059L70.904,22.605z
		 M70.92,23.148l0.254,0.128l-0.249,0.09L70.92,23.148z M71.389,23.283l0.75-0.271l0.676,0.526l-0.871-0.043l-0.006-0.006
		l-0.284-0.011l0.004,0.003l-0.72-0.035l0.332-0.12l0.213,0.107l0.192-0.004L71.389,23.283z M70.938,23.904l-0.011-0.402
		l0.786,0.039l0.413,0.427L70.938,23.904z M72.648,23.998l-0.233-0.014l-0.413-0.429c0.884,0.043,1.768,0.087,2.65,0.131
		L72.648,23.998z M74.832,24.084c-0.001,0.012-0.001,0.022,0,0.033c-0.624-0.034-1.247-0.068-1.871-0.103l1.927-0.299
		C74.868,23.817,74.849,23.938,74.832,24.084z M74.902,23.642c-0.569-0.028-1.14-0.057-1.712-0.085l1.109-0.401l0.607,0.473
		L74.902,23.642z M75.013,23.179c-0.014,0.1-0.044,0.197-0.076,0.325l-0.512-0.397H74.36l-0.118-0.013l-1.235,0.446l-0.743-0.578
		h-0.065l-0.119-0.012l-0.787,0.285l-0.377-0.188l-0.004-0.159l1.675,0.085l0.163,0.013l0.009-0.004l2.269,0.115
		C75.021,23.125,75.017,23.153,75.013,23.179z M75.038,23.041l-2.211-0.112l0.47-0.348l1.748,0.427L75.038,23.041z M75.057,22.954
		l-1.478-0.361l1.553,0.098C75.132,22.691,75.093,22.812,75.057,22.954z M75.952,22.704l-0.001-0.003l0.024,0.001
		C75.967,22.703,75.96,22.703,75.952,22.704z M76.044,24.148c0.014-0.02,0.077-0.114,0.091-0.137l0.013-0.165l0.014-0.022l0.62-0.09
		H76.43l-0.234,0.032c0.01-0.021,0.02-0.041,0.029-0.062l1.431,0.075l0.422,0.473L76.044,24.148z M76.034,22.705l0.114,0.004
		l-0.03,0.022C76.093,22.718,76.063,22.709,76.034,22.705z M78.716,23.161l-1.757-0.436l2.201,0.107L78.716,23.161z M79.452,22.847
		l0.172,0.008l1.84,0.455l-2.46-0.133L79.452,22.847z M78.427,23.146l-2.109-0.114c-0.015-0.064-0.038-0.122-0.065-0.17l0.216-0.16
		l0.203,0.01L78.427,23.146z M78.138,23.188l-0.944,0.338l-0.535-0.418L78.138,23.188z M76.453,23.097l-0.121,0.043
		c0-0.018-0.003-0.034-0.005-0.05L76.453,23.097z M76.31,23.453c0.018-0.08,0.025-0.157,0.027-0.23l0.191-0.069l0.535,0.419
		l-0.292,0.104l0.097,0.005l0.155-0.011l0.113-0.041l0.086,0.066l0.189,0l-0.145-0.113l0.973-0.349l0.601,0.471l-0.156,0.071
		l-0.863-0.045l-0.007-0.009l-0.221-0.013l0.008,0.01l-0.733-0.039L76.73,23.69l0.041-0.015l-0.522-0.027
		C76.274,23.587,76.296,23.521,76.31,23.453z M78.277,24.253l2.023-0.335c-0.136-0.007-0.271-0.014-0.406-0.021l-1.684,0.274
		l-0.337-0.379c0.673,0.035,1.347,0.07,2.021,0.105l0.14-0.023l0.27,0.043l-0.003,0c0.269,0.014,0.537,0.028,0.806,0.042
		l0.411,0.429C80.462,24.328,79.335,24.315,78.277,24.253z M80.779,23.702l0.75-0.269l0.678,0.528l-0.871-0.046l-0.006-0.007
		l-0.284-0.012l0.003,0.004l-0.719-0.039l0.332-0.119l0.212,0.108l0.194-0.003L80.779,23.702z M80.135,23.849l0.059,0.006
		l-1.07-0.077l-0.079-0.062l0.828-0.374l0.693,0.352L80.135,23.849z M82.04,24.419l-0.233-0.013l-0.413-0.431
		c0.884,0.046,1.767,0.093,2.65,0.14L82.04,24.419z M84.224,24.515c0,0.01-0.001,0.021,0.001,0.031
		c-0.623-0.037-1.248-0.072-1.873-0.108l1.929-0.292C84.26,24.247,84.241,24.368,84.224,24.515z M84.295,24.071
		c-0.571-0.031-1.142-0.061-1.713-0.09l1.109-0.398l0.606,0.475L84.295,24.071z M84.404,23.608
		c-0.016,0.099-0.044,0.197-0.077,0.325l-0.511-0.4l-0.064,0l-0.119-0.013l-1.235,0.443l-0.742-0.581l-0.065-0.001l-0.117-0.012
		l-0.79,0.283l-0.716-0.364l-0.128,0.002l-0.065-0.004l-0.811,0.365l-0.579-0.451l3.595,0.193l0.165,0.014l0.004-0.005l2.27,0.123
		C84.412,23.555,84.407,23.582,84.404,23.608z M84.737,23.104l-0.214,0.016c0,0-0.039,0.122-0.074,0.264l-1.479-0.366L84.737,23.104
		z M84.437,23.438l-0.008,0.032l-2.209-0.119l0.469-0.347L84.437,23.438z M81.155,22.929l1.241,0.061l-0.467,0.346l-0.171-0.009
		l-1.848-0.457L81.155,22.929z M80.918,22.862l-1.288-0.062l-0.101-0.024l-0.083-0.002l-0.186-0.014l-0.028,0.022l-2.557-0.125
		l-5.776-0.244l-0.003-0.095l9.603,0.423L80.918,22.862z"/>
	<path d="M61.349,74.907H60.27v-5.916l-3.913-1.212L55.77,41.058h-3.601l-0.413,18.768h-0.707v-1.595h-0.245v4.168v0.124v3.536
		L37.406,61.91l-10.888,3.679h-2.812v0.95l-7.258,2.452v2.36h-0.59v3.525H15v3.127h0.858v1.073h16.553v-0.981H60.27v-2.82h1.079
		v2.698h0.246v-2.698h0.613v-0.368h-0.613H61.349z M51.612,66.311l-0.563-0.175v-3.612h0.647L51.612,66.311z M51.699,62.399h-0.65
		v-2.452h0.704L51.699,62.399z"/>
</g>
</svg>
