<?xml version="1.0" encoding="utf-8"?>
<!-- Generator: Adobe Illustrator 15.0.2, SVG Export Plug-In . SVG Version: 6.00 Build 0)  -->
<!DOCTYPE svg PUBLIC "-//W3C//DTD SVG 1.1//EN" "http://www.w3.org/Graphics/SVG/1.1/DTD/svg11.dtd">
<svg version="1.1" id="Ebene_1" xmlns="http://www.w3.org/2000/svg" xmlns:xlink="http://www.w3.org/1999/xlink" x="0px" y="0px"
	 width="100px" height="100px" viewBox="0 0 100 100" enable-background="new 0 0 100 100" xml:space="preserve">
<circle fill="#B2B2B2" cx="50" cy="50" r="50"/>
<path fill-rule="evenodd" clip-rule="evenodd" d="M74.8,9.193c-0.197-0.069-0.416,0.037-0.484,0.236
	c-0.055,0.158,0.006,0.326,0.131,0.422c-0.007,0.019-0.015,0.036-0.021,0.056l-5.114,14.83l-0.02-0.006
	c-0.053-0.018-0.126,0.059-0.165,0.171l-4.63,13.422c-0.288-0.126-0.613-0.204-0.961-0.204c-0.45,0-0.864,0.125-1.204,0.331
	c-0.004-0.003-0.004-0.007-0.007-0.011l-9.276-10.974c-0.077-0.092-0.176-0.136-0.218-0.101l-0.015,0.013L42.687,15.398
	c-0.014-0.017-0.028-0.031-0.042-0.046c0.075-0.135,0.067-0.307-0.039-0.432c-0.135-0.16-0.377-0.181-0.537-0.044
	c-0.161,0.135-0.18,0.376-0.045,0.537c0.109,0.128,0.284,0.162,0.433,0.102c0.014,0.018,0.02,0.032,0.035,0.049l10.127,11.979
	l-0.016,0.012c-0.043,0.037-0.014,0.14,0.062,0.231l9.272,10.968c-0.248,0.253-0.409,0.564-0.439,0.907l0.026,0.029H27.669
	c-0.868,0-1.577,1.046-1.577,2.325v41.792c0,1.278,0.709,2.325,1.577,2.325h3.027c-0.007,0.019-0.014,0.037-0.014,0.058
	c0,0.036,0.012,0.075,0.037,0.115l0.315,0.516c0.048,0.077,0.133,0.146,0.231,0.194c0.099,0.049,0.211,0.08,0.319,0.081h0.544
	c0.108-0.001,0.221-0.032,0.32-0.081c0.1-0.048,0.183-0.117,0.231-0.194l0.315-0.516c0.024-0.04,0.037-0.079,0.037-0.115
	c0-0.021-0.007-0.039-0.015-0.058h33.116c-0.007,0.017-0.014,0.036-0.014,0.056c0,0.037,0.013,0.076,0.036,0.117l0.315,0.515
	c0.048,0.078,0.133,0.146,0.231,0.194c0.098,0.049,0.212,0.08,0.318,0.08h0.545c0.108,0,0.222-0.031,0.32-0.08
	c0.1-0.049,0.184-0.116,0.231-0.194l0.316-0.515c0.023-0.041,0.036-0.08,0.036-0.117c0-0.02-0.008-0.039-0.016-0.056h2.926
	c0.866,0,1.576-1.047,1.576-2.325V42.014c0-1.279-0.71-2.325-1.576-2.325h-5.833l0.026-0.029c-0.037-0.427-0.275-0.809-0.637-1.085
	l4.661-13.511c0.037-0.113,0.026-0.219-0.025-0.237l-0.021-0.007l5.114-14.83c0.008-0.021,0.013-0.041,0.019-0.061
	c0.154-0.003,0.299-0.099,0.352-0.252C75.105,9.479,74.998,9.261,74.8,9.193z M65.547,73.127c0,0-1.046,1.164-16.174,1.164
	c-15.524,0-16.419-1.164-16.419-1.164c-3.684-3.076-3.561-25.901,0-28.978c0,0,0.387-0.765,16.419-0.765
	c15.788,0,16.174,0.765,16.174,0.765C69.598,47.461,69.074,70.493,65.547,73.127z"/>
</svg>
