<?xml version="1.0" encoding="utf-8"?>
<!-- Generator: Adobe Illustrator 15.0.2, SVG Export Plug-In . SVG Version: 6.00 Build 0)  -->
<!DOCTYPE svg PUBLIC "-//W3C//DTD SVG 1.1//EN" "http://www.w3.org/Graphics/SVG/1.1/DTD/svg11.dtd">
<svg version="1.1" id="Ebene_1" xmlns="http://www.w3.org/2000/svg" xmlns:xlink="http://www.w3.org/1999/xlink" x="0px" y="0px"
	 width="100px" height="100px" viewBox="0 0 100 100" enable-background="new 0 0 100 100" xml:space="preserve">
<circle fill="#D4D4D4" cx="49.75" cy="49.767" r="50"/>
<path fill-rule="evenodd" clip-rule="evenodd" fill="#FFFFFF" d="M26.39,49.767c0.491,0.149,0.009,0.699-0.351,0.701
	C25.782,50.196,26.202,49.943,26.39,49.767z"/>
<path fill-rule="evenodd" clip-rule="evenodd" d="M87.075,29.623l-0.326,0.458l-8.623,0.11l-0.631-1.696h-0.892l-1.087,1.37H63.211
	c0,0,0.067-1.284-1.89-1.284h-6.218l-1.218-0.151l-1.332,2.266c-0.316,0.073-0.291-0.359-0.7-0.381
	c-0.221,0.208-0.201,0.656-0.584,0.701c-0.429,0-0.856,0-1.285,0c-0.12-0.201-0.307-0.156-0.468-0.35
	c-0.122-0.148-0.131-0.445-0.232-0.583c-0.244-0.333-0.554-0.548-0.701-0.935c-0.234-0.617-0.216-1.339-0.234-2.219
	c0.368-0.266,1.253-0.261,1.402-0.935c0.053-0.245-0.344-0.989-0.584-1.519c-0.24-0.528-0.493-1.104-0.7-1.517
	c-0.379-0.754-1.145-2.267-1.635-2.688c-0.599-0.51-1.858-0.729-2.453-0.933c-0.467,0-0.935,0-1.401,0
	c-0.675,0.126-2.036,0.468-2.803,0.701c-0.921,0.28-2.474,1.318-2.92,2.219c-0.103,0.209-0.154,0.501-0.233,0.701
	c-0.427,1.075-0.542,2.331-0.468,4.087c0.033,0.771,0.322,1.601-0.116,2.337c-0.849,0.453-2.151,0.094-3.036,0.35
	c-0.565,0.163-1.409,0.896-1.985,1.401c-0.304,0.267-0.496,0.312-0.818,0.584c-0.034,0.028-0.085,0.219-0.116,0.233
	c-0.239,0.108-0.314,0.148-0.584,0.468c-0.619,0.734-1.89,2.457-1.985,3.621c-0.039,0.475,0.13,0.89,0.234,1.401
	c0.08,0.393,0.253,0.908,0.234,1.285c-0.039,0.736-0.655,1.502-0.934,2.336c-0.136,0.406-0.232,0.851-0.351,1.285
	c-0.431,1.562-0.98,3.652-1.051,5.489c-0.013,0.338,0.393,0.877-0.118,1.167c-0.797,0.097-1.316-0.085-1.285-0.817
	c-0.389-0.251-1.206-0.371-1.635-0.234c-0.487,0.291-0.488,1.067-0.466,1.868c0.034,0.501-0.55,0.384-0.584,0.818
	c-0.612,0.594-0.813,1.601-1.167,2.454c0,0.194,0,0.389,0,0.583c0.425,0.396,0.33,0.8,0.232,1.285c-0.164,0.818-0.157,1.788,0,2.687
	c0.117,0.655,0.572,1.183,0.935,1.75c0.417,0.654,0.733,1.148,1.285,1.402c0.379,0.175,0.824,0.271,1.168,0.467
	c0.056,0.033,0.163,0.181,0.233,0.234c0.334,0.249,0.769,0.364,0.818,0.817c-0.307,0.744-0.622,1.48-1.051,2.103
	c0.108,0.423,0.545,0.586,0.817,0.933c0.275,0.352,0.5,0.633,0.584,1.169c0.11,0.704-0.025,0.797-0.234,1.4
	c-0.113,0.328-0.144,0.651-0.234,0.935c-0.196,0.625-0.434,1.215-0.583,1.752c-0.394,1.413,0.337,4.27,0.701,5.489
	c0.194,0.649,0.367,1.408,0.584,1.635c0.385,0.404,0.764,0.839,1.401,1.285c0.656,0.461,1.461,0.922,2.218,1.051
	c0.585,0,1.168,0,1.753,0c1.254-0.261,2.472-0.639,3.152-1.518c0.158-0.203,0.389-0.771,0.468-0.935
	c0.369-0.774,0.983-1.547,1.285-2.219c0.194-0.433,0.25-0.723,0.351-1.169c0.01-0.044,0.217-0.288,0.232-0.349
	c0.655-2.593,0.582-5.228,1.869-7.358c3.354-1.016,6.151-2.98,8.409-4.905c0.098-0.084,0.133-0.266,0.233-0.351
	c0.134-0.114,0.35-0.127,0.468-0.232c0.204-0.187,0.395-0.412,0.584-0.584c0.263-0.241,0.47-0.379,0.7-0.586
	c0.359-0.321,0.655-1.03,1.284-0.934c-0.297,0.863-0.453,1.802-0.584,2.687c-0.155,1.043-0.403,2.141-0.233,3.153
	c0.091,0.545,0.537,1.001,0.584,1.519c0.034,0.379-0.149,1.015-0.233,1.518c-0.09,0.535-0.121,1.108-0.233,1.519
	c-0.234,0.848-0.721,1.57-0.818,2.452c-0.061,0.548,0.045,1.144,0,1.752c0.559,0.661,2.059,0.63,2.92,0.935
	c0.266,0.094,0.52,0.345,0.816,0.468c1.4,0.573,2.841,1.047,4.088,1.167c1.223,0.119,3.151,0.177,3.271-0.7
	c0.046-0.354-0.479-0.804-0.818-1.051c-0.436-0.318-0.915-0.389-1.284-0.585c-0.26-0.525-0.999-0.861-1.285-1.168
	c-0.075-0.081-0.039-0.268-0.116-0.35c-0.508-0.529-1.111-0.901-1.401-1.636c-0.315-0.795-0.316-2.699,0-3.386
	c0.307-0.665,0.738-1.104,1.051-1.635c0.274-0.466,0.525-1.01,0.701-1.52c1.485-4.285,1.611-9.763,1.868-15.182
	c1.047-0.124,2.063-0.492,2.919-0.934c0.818-0.422,1.993-1.186,2.336-1.869c0.256-0.505,0.401-1.19,0.7-1.868
	c0.252-0.566,0.624-1.083,0.935-1.635c0.305-0.542,0.633-1.079,0.935-1.635c0.245-0.448,0.518-0.911,0.7-1.285
	c0.268-0.542,0.214-1.099,0.469-1.635c0.217-0.456,0.724-0.854,1.168-1.285c0.93-0.902,1.592-1.438,2.686-2.103
	c0.467-0.284,1.088-0.726,1.518-0.817l0.301-0.888l3.564-0.261l1.022-1.435l9.283-0.261l0.188-1.286L87.075,29.623z M24.875,50.17
	c-0.257-0.271,0.163-0.525,0.351-0.701C25.716,49.618,25.235,50.168,24.875,50.17z M48.817,48.768c-0.502-0.749-0.037-2.306,0-3.271
	c0-0.116,0-0.234,0-0.35c0.078,0,0.155,0,0.233,0c1.007,0.434,1.786,1.096,2.569,1.752C50.898,47.736,49.699,48.093,48.817,48.768z
	 M65.867,35.922c-0.279,0.421-1.083,1.269-1.636,1.634c-0.58,0.386-1.239,1.213-1.867,1.753c-0.426,0.365-0.872,0.717-1.401,1.051
	c-0.084,0.051-0.261,0.048-0.352,0.116c-0.166,0.125-0.353,0.296-0.816,0.468c-0.402,0.149-1.731,0.613-2.22,0.584
	c-0.683-0.042-2.667-1.334-2.804-2.103c-0.073-0.424,0.224-1.088,0.352-1.518c0.123-0.41,0.225-0.89,0.467-1.286
	c0.943-0.086,1.523,0.19,2.452,0.117c0.026,0.869,0.018,0.17,0.117,2.57c1.139-0.186,2.224-0.424,3.271-0.701
	c0.087-2.482,0.103-1.845,0.116-2.804c1.793-0.62,1.145-0.526,5.489-1.751C67.066,34.781,66.24,35.359,65.867,35.922z
	 M76.364,29.996l0.349-0.892l0.435-0.021l0.261,0.848L76.364,29.996z"/>
</svg>
