<?xml version="1.0" encoding="utf-8"?>
<!-- Generator: Adobe Illustrator 15.0.2, SVG Export Plug-In . SVG Version: 6.00 Build 0)  -->
<!DOCTYPE svg PUBLIC "-//W3C//DTD SVG 1.1//EN" "http://www.w3.org/Graphics/SVG/1.1/DTD/svg11.dtd">
<svg version="1.1" id="Ebene_1" xmlns="http://www.w3.org/2000/svg" xmlns:xlink="http://www.w3.org/1999/xlink" x="0px" y="0px"
	 width="100px" height="100px" viewBox="0 0 100 100" enable-background="new 0 0 100 100" xml:space="preserve">
<circle fill="#B2B2B2" cx="50" cy="50" r="50"/>
<g>
	<path fill-rule="evenodd" clip-rule="evenodd" d="M34.078,37.605c-0.039-0.525,0.027-0.759,0.134-1.232
		c0.11-0.505,0.238-0.947,0.224-1.473c-0.029-1.118-0.354-2.676-0.673-3.785c-0.223-0.77-0.276-0.593-0.567-1.16
		c-0.272-0.528-0.312-0.951-0.763-1.466c-0.297-0.338-0.854-0.763-1.25-0.971l-0.36-0.18l-0.368-0.135
		c-0.031-0.022-0.222-0.284-0.251-0.332c-0.208-0.324-0.271-0.63-0.37-1.007l-0.504,0.224l-0.259-0.502
		c0.119-0.043,0.412,0.047,0.466-0.153c0.03-0.104,0.009-0.762,0.117-1.033c0.144-0.359,0.218-0.576,0.306-0.973
		c0.056-0.256,0.15-0.823,0.171-1.069l0.017-0.674l-0.043-0.72l-0.171-0.709l-0.314-0.667l-0.548-0.638
		c-0.115-0.116-0.295-0.245-0.458-0.27c-0.116-0.018-0.382,0.017-0.512,0.017c-0.557-0.001-0.399-0.12-0.593-0.215l-0.262-0.118
		l-0.396-0.061c-0.503-0.055-1.509-0.023-2.012,0.054c-0.219,0.035-0.421,0.07-0.622,0.16c-0.337,0.149-1.592,1.375-2.095,1.718
		c-0.248,0.17-0.296,0.137-0.566,0.386c-0.545,0.51-0.35,0.531-0.413,0.72c-0.024,0.069-0.036,0.065-0.063,0.118l-0.053,0.161
		l0.009,0.062c0.095-0.11,0.146-0.14,0.288-0.172c0.041,0.057,0.08,0.126,0.153,0.145c0.046,0.01,0.137-0.01,0.207,0.089
		c0.039,0.059,0.061,0.193,0.117,0.234L21.85,22c0.033,0.014,0.107,0.074,0.173,0.054c0.057-0.02,0.124-0.105,0.143-0.163
		c0.035-0.109,0.031-0.171,0.271-0.202c-0.056,0.17-0.064,0.327-0.064,0.507l0.008,0.004c-0.009,0.241,0.037,0.67,0.128,0.899
		c-0.045,0.017-0.045,0.027-0.074,0.069c0.104,0.178,0.13,0.069,0.162,0.223c0.032,0.16,0.03,0.139-0.008,0.298
		c-0.091,0.37-0.159,0.747-0.181,1.133c-0.012,0.234-0.021,0.318,0.342,0.36c0.095,0.01,0.195,0.001,0.233,0.097
		c0.064,0.159-0.09,0.375,0.027,0.477c0.081,0.069,0.18,0.007,0.171,0.171c-0.004,0.085-0.075,0.164-0.063,0.251
		c0.028,0.097,0.035,0.077,0.091,0.126l0.198,0.225c0.016,0.03,0.046,0.131,0.042,0.165l-0.016,0.034l0.017-0.022l-0.007,0.13
		l0.034,0.358l0.045,0.064l-0.017,0.007c0.029,0.058,0.124,0.144,0.182,0.171l0.164,0.051l-0.003,0.014
		c0.145,0,0.286,0.015,0.428-0.004l0.004,0.004c0.354,0.018,0.546-0.031,0.889-0.065c0.256-0.025,0.265-0.031,0.406,0.163
		l0.002-0.005c0.077,0.116,0.136,0.251,0.294,0.31c0.122,0.047,0.096-0.003,0.179,0.164l0.114,0.217
		c-1.844,2.117-2.046,6.588-2.686,9.142l-0.125,0.44c-0.051,0.194-0.151,0.709-0.171,0.909c-0.032,0.316-0.015,0.652-0.008,0.971
		c0.001,0.088-0.036,0.131-0.064,0.216c-0.068,0.208-0.087,0.651-0.081,0.872c0.013,0.422,0.112,0.84,0.271,1.232
		c0.065,0.153,0.393,0.937,0.521,1.052l0.062,0.05l-0.026,0.67l-0.774,0.169c-0.278,0.071-0.146,0.071-0.377,0.037
		c-0.247-0.037-0.505-0.034-0.755-0.046c-0.195-0.013-0.317-0.053-0.548-0.037c-0.825,0.064-1.15,0.571-1.375,0.702
		c-0.124,0.071-0.427,0.354-0.548,0.46c-0.039,0.031-0.06,0.038-0.073,0.088l-0.005,0.155l-2.665-0.371
		c-2.313,1.15-4.542,2.321-6.833,3.487l0.076,0.102l6.56-0.001l2.892-1.642l0.12,0.031c0.154,0.032,0.274-0.008,0.558,0.072
		c0.199,0.056,0.39,0.16,0.602,0.17l0.296,0.045c0.331,0.069,0.182,0.072,0.305,0.117c0.078,0.027,0.259,0.004,0.342,0.01
		c0.14,0.011,0.345,0.064,0.503,0.008c0.224-0.079,0.601-0.601,1.042-0.656c0.119-0.014,0.251,0.017,0.355-0.052
		c-0.123,0.587-0.249,1.177-0.39,1.76c-0.157,0.648-0.331,1.292-0.478,1.942l-0.216,1.032l-0.116,0.784l-0.046,0.682
		c-0.008,0.315,0.016,0.84,0.037,1.159c0.04,0.609,0.104,1.152,0.081,1.771c-0.061,1.121-0.22,2.236-0.323,3.354l-0.108,1.222
		l-0.099,1.196l-0.055,1.194l-0.035,1.225l0.026,1.274l0.064,1.367l0.045,1.449l-0.127,1.31l-0.244,1.197l-0.358,1.104l-0.442,1.018
		l-0.503,0.96l-0.548,0.919l-0.532,0.83l-0.143,0.06c-0.352,0.182-0.633,0.533-0.934,0.674c-0.375,0.163-0.716,0.193-1.107,0.243
		c-0.465,0.062-0.374,0.053-0.826,0.053c-0.275,0-0.687-0.028-0.918,0.146c-0.237,0.177-0.211,0.408-0.277,0.484
		c-0.077,0.086-0.399,0.146-0.189,0.325c0.091,0.076,0.108,0.059,0.251,0.215c0.145,0.149,0.153,0.175,0.315,0.27
		c0.205,0.119,0.399,0.203,0.621,0.298c0.281,0.111,0.232,0.194,0.612,0.296c0.504,0.133,0.812,0.26,1.375,0.261
		c0.812,0,1.941-0.247,2.777-0.307c0.11-0.008,0.378-0.028,0.477-0.008c0.068,0.174-0.036,0.352,0.18,0.367l2.741,0.044l0.243-0.044
		c0.065-0.034,0.18-0.323,0.188-0.396c0.013-0.097-0.026-0.234-0.036-0.331l-0.01-0.521l-0.041-0.143l0.213,0.016
		c0.136-0.33,0.15-0.333,0.215-0.691c0.063-0.352,0.082-0.712,0.188-1.053l0.144-0.368l0.243-0.388l0.369-0.387l0.746-1.546
		l0.28-1.627l-0.019-0.439c0.289,0.416,1.092,1.445,1.223,1.815l0.163,0.61l-0.009,0.541L28.117,74.4l-0.189,0.494l-0.179,0.523
		l-0.088,0.384l-0.02,0.036l-0.045,0.352c-0.045,0.413,0.008,0.998,0.136,1.401c0.047,0.153,0.103,0.336,0.129,0.493l-0.236,0.229
		c-0.403,0.342-1.369,0.913-1.88,1.042c-0.338,0.083-1.078,0.083-1.329,0.341c-0.197,0.2-0.124,0.387-0.153,0.485l-0.031,0.073
		l-0.015-0.011c-0.034,0.084-0.136,0.18-0.145,0.27l0.011,0.055v0.09l0.125,0.17l0.198,0.145c0.123,0.071,0.417,0.181,0.557,0.215
		c0.143,0.038,0.502,0.099,0.656,0.117l0.314,0.026l0.26,0.036c0.26,0.023,0.923,0.024,1.196,0.021
		c0.948-0.021,2.232-0.16,3.155-0.368l0.488-0.125l0.16,0.213c0.186-0.042,1.934-0.426,1.996-0.458l0.189-0.172l0.144-0.252
		c0.066-0.155,0.139-0.514,0.153-0.655c0.013-0.126,0.011-0.556-0.009-0.674c-0.067-0.222-0.056-0.458-0.089-0.729l-0.027-0.153
		L33.52,77.6l0.189-0.862c0.064-0.361,0.176-1.382,0.197-1.752c0.019-0.333,0.03-1.408,0.018-1.745
		c-0.01-0.321-0.082-1.316-0.117-1.644l-0.098-0.746c-0.129-0.986-0.258-1.971-0.423-2.949c-0.197-1.127-0.402-2.251-0.638-3.37
		c-0.141-0.67-0.643-2.934-0.764-3.292c-0.106-0.31-0.376-0.812-0.493-1.105c-0.064-0.158-0.206-0.603-0.226-0.764l-0.01-0.404
		l0.071-0.404l0.117-0.424c0.202-0.876,0.188-2.061,0.18-2.967l-0.009-0.521l0.045-0.377l0.098-0.298
		c1.927-2.523,2.505-4.783,1.087-7.809l-0.16-0.703l-0.087-0.267l0.554-0.453l0.593-0.629l0.423-0.629l0.262-0.619l0.151-0.656
		l0.055-0.694c0.019-0.504-0.026-1.515-0.091-2.012C34.365,38.888,34.125,38.265,34.078,37.605z"/>
	<path fill-rule="evenodd" clip-rule="evenodd" d="M89.861,40.015c-0.129-0.038-1.426-0.444-1.774-0.547
		c-0.353-0.102-2.283-0.718-2.658-0.836c-0.377-0.118-2.109-0.708-2.379-0.808c0.042-0.251-0.081-0.388-0.104-0.422
		c-0.022-0.036-0.109-0.203-0.667-0.596c-0.557-0.392-1.54-0.813-1.669-0.858c-0.127-0.044-0.741-0.228-0.761-0.228
		c-0.019-0.001-0.052,0.019-0.063,0.027c-0.01,0.008-0.014,0.014-0.06-0.002c0.004-0.067-0.026-0.073-0.026-0.073
		s-3.241-0.308-3.278-0.304c-0.032,0.004-0.603,0.191-0.954,0.413c-0.281,0.166-0.412,0.471-0.412,0.471s-0.131,0.627-0.184,0.86
		c-0.052,0.233,0.057,0.359,0.057,0.359l-1.354,7.738l-0.129,0.106l-0.173,1.126c0,0-0.01,0.001-0.027,0.032
		c-0.248-0.024-0.541-0.039-0.854-0.039c-0.894,0-1.615,0.113-1.615,0.245c0,0.148,0.002,0.289,0.006,0.425
		c-0.807-0.264-2.706,0.306-2.706,0.306c-0.692-0.161-3.776,0.162-3.776,0.162c-1.229-0.729-3.389-0.566-3.389-0.566l-1.001-1.056
		c0-0.73-0.537-1.384-0.537-1.384c0-0.568-1.258-2.521-1.258-2.521c0.602,0,0.794-1.13,0.794-1.13l0.231-0.729
		c0.232-0.406,0.541-0.162,0.541-0.162c0.384,0.081,0.538-0.326,0.538-0.326l-0.081-1.137c0.312-0.081,0.312-1.625,0.312-1.625
		l0.152-1.217l0.618,0.082c0.075-0.486-0.926-1.705-0.926-1.705c-1.31-2.435-4.47-1.705-4.47-1.705
		c-1.771,0.082-3.466,4.468-3.466,4.468c-0.152,0.241,0.228,0.646,0.228,0.646l-0.536,0.327c-0.308-0.896-2.002,0.891-2.002,0.891
		c-1.85,1.381-4.623,4.87-4.623,4.87c-0.438,0.793-1.544,2.785-2.516,4.536c-0.588,0.335-3.126,1.834-4.025,3.182
		c-0.057,0.063-0.106,0.139-0.141,0.239c-0.181,0.348-0.237,0.68-0.098,0.972l0.013,0.031c0.187,3.554,3.746,12.706,3.746,12.706
		c0.231,0.616,0.788,1.063,1.54,1.386c-0.73,1.682-1.954,5.226-2.218,10.553c-0.385,7.711,0.694,0.163,0.694,0.163
		s1.066-7.628,2.372-10.427c1.722,0.47,4.051,0.504,6.081,0.398l0.337,1.328c-0.607,1.912-1.37,5.12-1.559,9.591
		c-0.327,7.713,0.588,0.163,0.588,0.163s0.573-4.815,1.366-8.198l1.214,4.789c0,0,0.23-0.484,0.081-2.434l-0.821-4.087
		c0.193-0.581,0.394-1.03,0.597-1.282c0.049-0.005,0.096-0.009,0.144-0.013c-0.014,0.015-0.023,0.025-0.023,0.025l0.131-0.036
		c1.397-0.136,2.357-0.289,2.357-0.289c0.402-0.045,0.718-0.237,0.922-0.491c0.027,0.002,0.057,0.006,0.085,0.01
		c0.05,0.19,0.075,0.318,0.075,0.318c0,0.403,0.886,2.227,1.404,3.259l1.309,6.076c0,0,0.2-0.486,0.068-2.436l-0.343-2.004
		c0.351,0.456,0.763,0.972,1.105,1.396v6.043l0.074,0.084h1.541l0.081-0.084v-3.905c0.259,0.284,0.465,0.502,0.465,0.502
		c-0.311,0.812,0.919,1.215,0.919,1.215c0.305,0,1.543,1.379,1.543,1.379c3.391,1.463,2.696-1.704,2.696-1.704
		c6.159-1.947-2.004-2.434-2.004-2.434c-0.692-0.325-0.232-1.865-0.232-1.865c0-0.651,0.541-8.605,0.541-8.605
		c0-1.057,0.386-5.115,0.386-5.115c0-1.78-3.287-2.057-4.313-2.1v-5.201l-0.081-0.083h23.421l-0.073,0.083v27.834l0.073,0.084h1.546
		l0.077-0.084V51.227l-0.077-0.083h1.54l0.077-0.082v-1.056l-0.077-0.081h-5.172c0.008-0.042,0.008-0.098,0-0.154
		c-0.021-0.077-0.099-0.115-0.099-0.115s-1.041-0.44-0.948-0.45c0.092-0.011,0.229-0.161,0.229-0.161l2.47,0.087
		c0,0,0.109,0.062,0.22,0.134c0.098,0.064,0.196,0.14,0.238,0.149c0.089,0.021,0.438,0.031,0.485,0.037
		c0.048,0.007,0.046-0.036,0.046-0.036l0.03-0.242c0,0,1.001,0.055,1.115,0.053c0.113-0.002,0.111-0.087,0.111-0.087
		s0.095-0.555,0.196-1.137c0.107-0.629,0.224-1.29,0.224-1.29s-0.002-0.004,0.028-0.157c0.398-0.021,1.267,0.042,1.409,0.05
		c0.141,0.01,0.145-0.12,0.145-0.12s0.133-0.74,0.206-1.165c0.072-0.424,0.246-1.35,0.313-1.749c0.065-0.398,0.167-1,0.349-1.788
		c0.179-0.787,0.391-1.348,0.462-1.591C90.131,40.053,89.988,40.053,89.861,40.015z M75.684,48.591
		c0.17,0.1,0.624,0.334,0.638,0.342c0.011,0.008-0.073,0.028-0.104,0.04c-0.032,0.012-0.623,0.297-0.623,0.297s-0.247,0-0.539-0.056
		c-0.293-0.057-0.785-0.146-1.186-0.191c-0.041-0.005-0.071-0.007-0.108-0.01c0.056-0.309,0.103-0.665,0.139-1.007
		c0.181,0.131,0.285,0.147,0.333,0.168C74.29,48.198,75.441,48.527,75.684,48.591z M59.909,51.227v5.141
		c-0.586,0.011-1.252,0.037-1.814,0.064c-0.187-0.565-0.657-1.162-1.728-1.551c0.045-0.91-0.156-2.601-0.156-2.601
		c0.31-0.893,0.769-3.004,0.769-3.004h1.233c0.104,0.307,0.306,0.511,0.541,0.649h-0.385l-0.079,0.081v1.056l0.079,0.082h1.614
		L59.909,51.227z M70.886,49.925c0.163-0.142,0.19-0.324,0.19-0.324c0.052-0.013,0.092-0.033,0.135-0.051
		c0.081,0.2,0.141,0.293,0.141,0.293h2.078c0.125,0,0.229-0.303,0.312-0.721c0.013,0,0.03,0.001,0.044,0.001
		c0.22,0.002,0.886,0.114,1.249,0.182c0.187,0.035,0.383,0.036,0.383,0.036l-0.809,0.396c0,0-0.036,0.125-0.022,0.188H70.886z
		 M81.664,49.117c0,0-0.056-0.069-0.006-0.071c0.05-0.001,0.23,0.005,0.23,0.005S81.777,49.133,81.664,49.117z"/>
</g>
</svg>
