<?xml version="1.0" encoding="utf-8"?>
<!-- Generator: Adobe Illustrator 15.0.2, SVG Export Plug-In . SVG Version: 6.00 Build 0)  -->
<!DOCTYPE svg PUBLIC "-//W3C//DTD SVG 1.1//EN" "http://www.w3.org/Graphics/SVG/1.1/DTD/svg11.dtd">
<svg version="1.1" id="Ebene_1" xmlns="http://www.w3.org/2000/svg" xmlns:xlink="http://www.w3.org/1999/xlink" x="0px" y="0px"
	 width="100px" height="100px" viewBox="0 0 100 100" enable-background="new 0 0 100 100" xml:space="preserve">
<circle fill="#B2B2B2" cx="50" cy="50" r="50"/>
<path d="M77.394,74.326l3.729-0.28l-0.898-56.784h-4.195l-0.638,40.641l-1.775-0.418c-0.356-7.709-6.719-13.851-14.517-13.851
	c-7.144,0-13.081,5.158-14.299,11.952c-1.251-8.508-1.811-17.406-0.302-23.788c-11.383-2.998-19.627,0-19.627,0
	c3.896,16.48-5.992,49.741-5.992,49.741c16.782,2.695,31.613,0,31.613,0s-0.629-2.117-1.507-5.543h24.348L77.394,74.326z"/>
</svg>
