<?xml version="1.0" encoding="utf-8"?>
<!-- Generator: Adobe Illustrator 15.0.2, SVG Export Plug-In . SVG Version: 6.00 Build 0)  -->
<!DOCTYPE svg PUBLIC "-//W3C//DTD SVG 1.1//EN" "http://www.w3.org/Graphics/SVG/1.1/DTD/svg11.dtd">
<svg version="1.1" id="Ebene_1" xmlns="http://www.w3.org/2000/svg" xmlns:xlink="http://www.w3.org/1999/xlink" x="0px" y="0px"
	 width="100px" height="100px" viewBox="0 0 100 100" enable-background="new 0 0 100 100" xml:space="preserve">
<circle fill="#B2B2B2" cx="50" cy="50" r="50"/>
<path fill="#231F20" d="M22.622,74.061l-2.011,1.478l3.279-1.105l-0.176-0.146c-0.152,0.009-0.305,0.026-0.377,0.072
	c-0.18,0.099-0.318-0.038-0.355-0.115C22.952,74.188,22.865,74.145,22.622,74.061z M32.155,79.387
	c0.181,0.102,0.375,0.185,0.577,0.248l0.149-1.078L32.155,79.387z M63.858,15.893c-0.023-0.028-0.072-0.06-0.153-0.067
	c-0.155-0.011-0.244-0.001-0.365-0.088c-0.032,0.163-0.107,0.196-0.178,0.267c0.048,0.032,0.122,0.066,0.148,0.062
	c0,0-0.104,0.019-0.186,0.003c-0.027,0.091-0.003,0.234,0.029,0.363c0.021,0.072,0.067,0.195,0.115,0.318
	c0.085-0.163,0.329-0.602,0.562-0.828L63.858,15.893z M63.364,15.538c0.062,0.033,0.162,0.088,0.195,0.09
	c0.05,0.007,0.254,0,0.315,0.057c0.04,0.033,0.062,0.088,0.074,0.129c0.187-0.144,0.221-0.041,0.167,0.155
	c-0.054,0.206-0.511,0.908-0.699,1.133l0.012,0.024c0.049,0.121,0.475,0.647,0.486,0.942c0.009,0.284-0.278,0.438-0.467,0.438
	c-0.189,0-0.383-0.046-0.383-0.046c-0.025,0.082-0.067,0.386-0.055,0.512c0.011,0.125-0.186,0.214-0.186,0.214
	s0.065,0.094,0.039,0.309c-0.023,0.218-0.284,0.141-0.259,0.24c0.105,0.423-0.19,0.599-0.177,0.687
	c0.013,0.087-0.05,0.291-0.203,0.379c-0.15,0.088-0.633,0.327-0.633,0.327c0.216,0.305-0.074,0.658-0.074,0.658
	c0.102,0.202-0.266,0.379-0.266,0.379c0.583,1.314,1.268,2.673,2.225,4.477c0.958,1.804,1.213,1.837,2.024,5.258
	c1.231,5.21,3.197,13.757,3.309,16.589s0.406,13.237,0.443,13.388c0.033,0.15-0.073,0.279-0.199,0.215
	c-0.128-0.062-0.493,0.064-0.647,0c-0.151-0.062-0.795,0.013-0.922,0.028c-0.128,0.012-0.557,0.061-0.719-0.016
	c-0.167-0.075-0.279,0.052-0.407-0.061c-0.125-0.117-0.491-0.052-0.491-0.052s0.037,1.113-0.19,2.021
	c-0.228,0.913-0.861,4.994-1.062,6.513c-0.2,1.517-0.949,7.673-0.934,7.838c0.011,0.164-0.128,0.151-0.128,0.151
	c0.076,0.178,1.922,1.519,2.022,1.606c0.102,0.086,0.974,0.479,1.227,0.557c0.254,0.076,0.834,0.595,1.604,0.518
	c0.773-0.076,0.786,0.785,0.786,0.785c0.327,0.29-0.013,0.771-0.013,0.771c-0.165,0.506-0.836,0.467-3.352,0.494
	c-2.517,0.023-3.414-0.557-3.932-0.822c-0.519-0.266-1.541-0.606-1.541-0.606s-0.052,0.289-0.052,0.377
	c0,0.091-0.013,0.191-0.089,0.229c-0.077,0.036-0.342,0.251-0.835,0.151c-0.81-0.166-1.996-0.62-2.074-0.67
	c-0.076-0.052-0.125-0.216-0.087-0.381c0.037-0.162,0.149-1.01,0.149-1.01c-0.047-0.255,0.128-0.442,0.128-0.442
	c-0.038-0.128,0.126-0.987,0.126-1.115c0-0.125,0.291-0.77,0.291-0.77s-0.203,0-0.14-0.34c0.022-0.115-0.048-0.444,0.04-0.976
	c0.088-0.53,0.189-4.45,0.161-5.816c-0.022-1.365,0.281-5.182,0.281-5.182s-0.47,0.379-0.835,0.671
	c-0.367,0.289-2.111,2.352-3.287,3.083c-1.176,0.733-3.262,3.109-3.326,3.211c-0.063,0.104-0.176,0.09-0.277,0.024l-0.873-0.543
	c0,0.608-0.669,1.342-0.721,1.442c-0.052,0.102-0.125,0.896-0.102,1.189c0.026,0.289,0.039,0.77,0.203,1.072
	c0.165,0.306-0.013,0.772-0.013,0.772s0.443,0.632,0.848,1.215c0.403,0.58-0.177,0.911-0.177,0.911s0.024,0.236-0.176,0.201
	c-0.205-0.039-0.686-0.303-1.747-1.024c-1.064-0.721-1.997-2.125-2.086-2.29c-0.089-0.162-0.254-0.252-0.34-0.303
	c-0.09-0.052-0.405-0.141-0.974-0.655c-0.571-0.521-1.528-2.139-1.581-2.265c-0.051-0.126-0.127-0.292,0.052-0.392
	c0.176-0.103,0.719-0.481,0.719-0.481c-0.039-0.228,0.239-0.315,0.327-0.315c0.089,0,0.078-0.038,0.13-0.165
	c0.048-0.125,0.985-0.757,1.134-0.836c0.154-0.073,0.267-0.06,0.331-0.148c0.063-0.091,0.379-0.253,0.505-0.253
	c0.126,0,0.368-0.04,0.368-0.04s-0.076-0.062-0.117-0.127c-0.037-0.062-0.011-0.163,0.102-0.238c0.117-0.077,1.24-1.202,1.57-1.403
	c0.329-0.201,2.517-2.68,2.517-2.68s0.011-0.14,0.465-0.635c0.457-0.491,2.429-2.604,2.429-2.604
	c-0.216,0.077-1.253-0.149-1.429-0.149c-0.178,0-0.797-0.193-1.088-0.164c-0.289,0.022-0.657-0.368-0.657-0.368
	s-0.229-0.052-0.329-0.052c-0.102,0-0.154-0.051-0.141-0.213c0.015-0.166,0.064-0.407,0.114-0.521
	c0.05-0.113,0.115-0.264,0.115-0.377c0-0.168,0.069-0.543,0.146-0.984c-0.517,0.663-1.377,1.746-1.865,2.285
	c-0.734,0.811-1.745,1.833-2.604,2.656c-0.862,0.821-1.431,1.466-1.847,1.983c-0.416,0.52-0.708,0.392-0.708,0.392l-1.303,1.632
	c0,0,0.039,0.127,0.127,0.191c0.089,0.062,0.455,0.239,0.531,0.276c0.076,0.04,0.152,0.126,0.013,0.24
	c-0.141,0.113-0.507,0.518-0.596,0.646c-0.088,0.126-0.114,0.126-0.227,0.126c-0.115,0-0.531,0.038-0.531,0.038
	s-0.645,0.734-0.759,0.973c-0.113,0.24-0.355,0.392-0.455,0.457c-0.101,0.062-0.859,0.657-1.061,0.781
	c-0.181,0.115-0.726,0.408-1.102,0.622l-0.49,0.742c0.709,0.827,1.139,1.905,1.139,3.081c0,1.721-0.918,3.229-2.292,4.059
	c0.007,0.135,0.011,0.273,0.011,0.412c0,3.323-2.692,6.019-6.017,6.019s-6.02-2.695-6.02-6.019c0-1.863,0.847-3.53,2.176-4.634
	c-0.527-0.452-1.054-0.905-1.543-1.326c-1.635,0.556-4.859,1.646-5.373,1.775c-0.689,0.172-0.926,0.037-0.944-0.211
	c-0.021-0.249,0.116-0.523,0.56-0.83l3.136-2.164c0.004-0.142,0.115-0.277,0.17-0.311c0.1-0.063,0.076-0.075,0.088-0.203
	c0-0.007,0.004-0.022,0.011-0.04c-1.031-0.898-0.545-1.474-0.281-1.682l-0.059-0.06c-0.368-0.367,0.227-0.898,0.569-1.076
	c0.34-0.177,0.543-0.454,1.213-1.53c0.671-1.074,1.1-1.199,1.113-1.275c0.035-0.218,0.392-0.394,0.745-0.545
	c0.355-0.151,0.924-0.442,1.253-0.442s1.656-0.76,2.061-0.872c0.405-0.115,0.494-0.203,0.581-0.266
	c0.088-0.062,0.95-0.327,1.139-0.557c0.384-0.462,2.112-0.771,2.112-0.771s0.353-0.491,0.457-0.834
	c0.336-1.141,1.186-2.529,1.364-2.718c0.177-0.19,0.935-1.683,1.441-2.225c0.512-0.551,0.643-1.62,0.68-1.734
	c0.041-0.113,0.255-0.074,0.443-0.022c0.19,0.05,0.392,0.188,0.392,0.188c0.569-0.292,1.279-0.025,1.467,0.012
	c0.188,0.041,1.769,0.088,2.063,0.102c0.288,0.015,0.403-0.05,0.667,0.064c0.266,0.114,0.318,0.151,0.912,0.316
	c0.595,0.165,1.214,0.579,1.771,0.682c0.556,0.102,1.743,0.833,1.957,0.935c0.216,0.103,0.366,0.355,0.366,0.634
	c0,0.194,0.028,0.546,0.042,0.738c0.063-0.307,0.336-0.535,0.662-0.535c0.272,0,0.509,0.162,0.614,0.395l2.303-2.87
	c0.056-1.263,0.094-3.046,0.213-3.645c0.164-0.834,0.037-2.25-0.076-3.097c-0.114-0.85-0.519-1.783-0.519-4.236
	c0-3.454,0.253-5.437,0.253-5.437s-0.228,0.039-0.214-0.125c0.013-0.165,0-0.695,0.013-1.646c0.013-0.946,0.368-3.971,0.353-4.45
	c-0.011-0.48,0.166-1.113,0.178-1.49c0.013-0.381,0.733-5.603,1.075-7.106c0.343-1.504,0.998-2.844,1.427-4.021
	c0.43-1.175,1.645-2.04,1.645-2.04s0.027-0.185,0.014-0.3c-0.014-0.112-0.109-0.1-0.122-0.214c-0.011-0.115-0.081-0.151-0.131-0.234
	c-0.052-0.081,0.089-0.202,0.138-0.277c0.051-0.078,0.184-0.387,0.184-0.387s-0.354-0.082-0.436-0.53
	c-0.084-0.449,0.422-0.803,0.422-0.803c-0.201-0.052-0.18-0.253-0.138-0.303c0.044-0.054,0.025-0.253,0.025-0.253
	s-0.067,0.011-0.128,0.011c-0.055,0-0.088-0.158-0.195-0.244c-0.107-0.09,0-0.192,0.039-0.229c0.037-0.036,0-0.115,0-0.115
	c-0.443-0.225-0.594-2.63,2.351-4.69c2.946-2.061,4.11-0.296,4.11-0.296s0.135-0.076,0.207-0.051
	c0.076,0.025,0.123,0.153,0.223,0.159c0.102,0.007,0.144,0.188,0.144,0.188c0.052-0.056,0.178-0.03,0.225-0.061
	c0.042-0.033,0.104-0.008,0.138,0.057c0.031,0.061,0.037,0.17,0.037,0.17s0.128,0,0.22,0.055c0.097,0.058,0.083,0.248,0.083,0.248
	s0.081,0,0.134-0.046c0.05-0.044,0.088-0.037,0.159,0.075c0.067,0.116,0.073,0.014,0.188,0.141c0.112,0.125-0.145,0.374-0.145,0.374
	s0.118-0.026,0.232,0.031c0.113,0.056-0.062,0.22-0.062,0.22c0.354,0.242,1.604,0.229,1.896,0.19c0.292-0.038,0.783-0.2,1.061,0.076
	c0.532,0.533-2.166,2.542-2.166,2.542S63.376,15.426,63.364,15.538z M31.44,84.845l-1.41-2.65c-0.034,0.011-0.067,0.022-0.102,0.031
	l-0.449,2.833c0.188,0.029,0.384,0.045,0.584,0.045C30.547,85.104,31.013,85.011,31.44,84.845z M33.064,83.632l-2.336-2.033
	c-0.066,0.065-0.146,0.117-0.231,0.153c-0.07,0.153-0.183,0.285-0.323,0.37l1.416,2.66C32.17,84.526,32.676,84.129,33.064,83.632z
	 M33.841,81.952l-3.004-0.475l2.327,2.025C33.49,83.052,33.726,82.524,33.841,81.952z M30.924,81.328l2.942,0.467
	c0.03-0.167,0.045-0.334,0.051-0.509c-0.109,0.01-0.22,0.013-0.333,0.013c-0.917,0-1.771-0.258-2.495-0.709l-0.106,0.151
	c0.017,0.066,0.024,0.138,0.024,0.208C31.007,81.085,30.978,81.213,30.924,81.328z M33.322,79.753l0.308-0.087
	c-0.149-0.378-0.354-0.728-0.607-1.032l-0.146,1.042C33.022,79.71,33.17,79.738,33.322,79.753z M29.501,80.412l0.008,0.008
	c0.151-0.203,0.38-0.336,0.643-0.344v-0.235c-0.209-0.183-0.591-0.516-1.084-0.94L29.501,80.412z M27.115,78.616l2.172,1.637
	l-0.444-1.549l-0.939-0.815C27.608,78.093,27.342,78.337,27.115,78.616z M28.529,80.915l0.451,0.115
	c0.044-0.112,0.109-0.207,0.19-0.286l-0.183-0.116c-0.072-0.046-0.141-0.086-0.215,0C28.721,80.686,28.595,80.834,28.529,80.915z
	 M26.287,80.356l2.059,0.515c0.076-0.093,0.283-0.341,0.351-0.422c0.085-0.104,0.274-0.097,0.403,0
	c0.072,0.052,0.161,0.119,0.229,0.171c0.019-0.012,0.035-0.022,0.056-0.033l-0.024-0.079l-2.348-1.769
	C26.662,79.205,26.407,79.759,26.287,80.356z M26.392,82.374l2.529-1.125c0.001-0.022,0.007-0.046,0.009-0.067l-2.674-0.667
	c-0.033,0.209-0.05,0.426-0.05,0.643C26.205,81.582,26.272,81.99,26.392,82.374z M28.691,82.758l0.617-0.639
	c-0.026-0.02-0.05-0.036-0.074-0.057L28.691,82.758z M27.442,84.052l0.181-0.188l1.496-1.913c-0.119-0.141-0.194-0.322-0.206-0.521
	l-2.469,1.099C26.655,83.115,27,83.636,27.442,84.052z M29.46,82.194l-1.715,1.773l-0.165,0.212
	c0.493,0.421,1.085,0.721,1.739,0.852l0.443-2.785h-0.019C29.643,82.246,29.549,82.228,29.46,82.194z M35.946,78.65l-0.721-0.648
	c0.174,0.3,0.326,0.614,0.446,0.943C35.769,78.854,35.859,78.756,35.946,78.65z M36.626,77.048l-2.155-0.303l-0.107,0.119
	c0.198,0.203,0.379,0.421,0.542,0.65l1.131,1.019C36.351,78.107,36.558,77.603,36.626,77.048z M34.587,76.608l2.052,0.288
	c0.007-0.076,0.011-0.155,0.011-0.234c0-0.388-0.07-0.764-0.2-1.106c-0.059,0.065-0.116,0.128-0.148,0.16
	c-0.087,0.085-0.181,0.085-0.321-0.017c-0.05-0.041-0.115-0.097-0.176-0.15c-0.153,0.227-0.255,0.379-0.281,0.413
	c-0.153,0.193-0.386,0.02-0.386,0.02L34.587,76.608z"/>
</svg>
