<?xml version="1.0" encoding="utf-8"?>
<!-- Generator: Adobe Illustrator 15.0.2, SVG Export Plug-In . SVG Version: 6.00 Build 0)  -->
<!DOCTYPE svg PUBLIC "-//W3C//DTD SVG 1.1//EN" "http://www.w3.org/Graphics/SVG/1.1/DTD/svg11.dtd">
<svg version="1.1" id="Ebene_1" xmlns="http://www.w3.org/2000/svg" xmlns:xlink="http://www.w3.org/1999/xlink" x="0px" y="0px"
	 width="100px" height="100px" viewBox="0 0 100 100" enable-background="new 0 0 100 100" xml:space="preserve">
<circle fill="#B2B2B2" cx="50" cy="50" r="50"/>
<path d="M24.527,52.611c0.032,0.017,0.054,0.078,0.054,0.149c0,0.062-0.017,0.116-0.041,0.14
	c0.506,11.704,1.131,25.844,1.131,25.844s0.088,0.04,0.091,0.192l0.04,1.51c0.003,0.134-0.772,0.21-1.008,0.21
	c-0.235,0-0.95-0.003-0.952-0.138l-0.03-1.498c-0.002-0.134,0.074-0.204,0.074-0.204l-0.141-5.352h-0.102v0.067
	c0,0,0.001,0.061-0.051,0.051l-0.537-0.094c-0.068-0.011-0.068-0.092-0.068-0.092s-0.773,0.151-1.033,0.151
	c-0.26,0-1.108-0.143-1.293-0.177c-0.185-0.033-0.219-0.172-0.219-0.172s-0.159-0.007-0.159-0.126c0-0.108,0.091-0.107,0.091-0.107
	s-0.086-4.46-0.086-5.218c0-0.757,0.243-1.033,0.521-1.1c0.29-0.071,2.418-0.179,2.418-0.179c0.155-0.012,0.272,0.039,0.336,0.078
	L23.214,53.35l-0.613-0.037c-0.12-0.006-0.153-0.107-0.153-0.107l-1.973-0.032l0,0.558c0,0-0.007,0.131-0.108,0.129l-1.884-0.062
	c-0.124-0.004-0.132-0.106-0.132-0.106v-0.57l-2.209-0.067c-0.234-0.007-0.237-0.257-0.237-0.257l-0.031-1.89
	c0,0-0.005-0.22,0.216-0.211l3.213,0.131V50.57c0,0-0.004-0.142,0.097-0.164l3.473-0.735c0,0-0.004-0.117,0.067-0.131l0.172-0.031
	L22.8,37.654c0,0,0.02-3.951,0.37-6.238c0.325-2.12,0.826-3.771,1.188-4.727c0.362-0.956,1.594-4.514,5.57-6.989
	c1.255-0.781,3.169-1.307,5.395-1.307c0.857,0,2.655,0.299,2.655,0.299s0.087-0.089,0.181-0.078c0.094,0.01,0.177,0.021,0.24,0.01
	c0.063-0.01,0.247-0.075,0.349-0.075c0.101,0,6.053,1.158,6.133,1.18c0.081,0.021,0.228,0.258,0.228,0.258s0.28,0.06,0.332,0.102
	c0.154,0.125-0.245,0.308-0.245,0.308s-0.03,0.189-0.164,0.307c-0.135,0.118-0.832,0.495-1.135,0.504
	c-0.276,0.009-5.914-0.79-6.021-0.84c-0.111-0.051-0.111-0.118-0.169-0.135c-0.058-0.016-0.341-0.009-0.358-0.113
	c-0.023-0.15,0.258-0.34,0.258-0.34s0.078-0.531,0.162-0.691c0,0-1.582-0.225-2.421-0.225c-2.151,0-3.875,0.619-5.175,1.437
	c-2.856,1.798-4.418,4.688-5.006,6.636c-0.271,0.898-0.809,2.655-1.042,4.636c-0.272,2.321-0.218,4.899-0.218,6.032
	c0,0.387,0.216,5.519,0.495,12.036c0.031,0.017,0.053,0.076,0.053,0.149c0,0.062-0.016,0.115-0.041,0.139l0.05,1.157
	c0.034,0.013,0.06,0.076,0.06,0.152c0,0.066-0.02,0.124-0.047,0.145L24.527,52.611z"/>
<path d="M80.336,62.958l-1.017-0.405v-9.868h1.505l-0.19-1.329l-1.051-8.429h-0.149v-3.653l0.149-0.083v-1.081h-0.642v-0.622h-1.165
	v0.581h-0.525v1.079l0.148,0.167v3.446H66.335l-5.719-6.311l-0.601,0.664l-9.033-8.886L31.868,49.029l-0.557,0.044l0.076,0.382
	l2.841,1.565v10.627l-6.408,1.312v0.381l0.153,0.126l0.69,0.046v0.422h0.268v0.719h1.957v0.635l0.173,0.19v9.589h-0.127v1.048
	h-0.256v1.157h0.214v1.776h10.039v0.474h10.062V79.9l-0.183,0.203v0.271h0.162v0.544h-0.235v0.331h16.257v-0.331H66.76v-0.544h0.161
	v-0.271L66.74,79.9v-0.378h11.225v-1.426h0.337v-0.292h0.717V64.738l0.011-0.814h0.244l0.023-0.411l1.225,0.013l0.319-0.224v-0.344
	H80.336z M34.852,71.913h-2.785v-6.279l0.209-0.23v-0.551h2.215v6.066h0.36V71.913z"/>
</svg>
