<?xml version="1.0" encoding="utf-8"?>
<!-- Generator: Adobe Illustrator 15.0.2, SVG Export Plug-In . SVG Version: 6.00 Build 0)  -->
<!DOCTYPE svg PUBLIC "-//W3C//DTD SVG 1.1//EN" "http://www.w3.org/Graphics/SVG/1.1/DTD/svg11.dtd">
<svg version="1.1" id="Ebene_1" xmlns="http://www.w3.org/2000/svg" xmlns:xlink="http://www.w3.org/1999/xlink" x="0px" y="0px"
	 width="100px" height="100px" viewBox="0 0 100 100" enable-background="new 0 0 100 100" xml:space="preserve">
<circle fill="#B2B2B2" cx="50" cy="50" r="50"/>
<path fill-rule="evenodd" clip-rule="evenodd" d="M60.43,46.505l0.08-0.099c0.617-0.672,0.461-4.571-0.613-5.856
	c0,0,0-1.384,0.046-1.997c0,0-0.509-4.622-1.387-5.033c0,0-2.206-5.389-2.771-6.005l1.081-0.256c0,0-1.847-3.389-2.515-3.543
	L55.17,23.1c0,0,1.437-0.154,1.437-1.13c0,0-0.151-0.667,0.053-0.667l0.158-0.41c0,0,0.356-0.716,0.153-0.977l0.611-0.204
	c0,0,0.514-0.155,0.358-0.667l-0.613-1.799l0.038-0.454c0.149-0.034,0.301-0.056,0.433-0.041c0.314,0.036,0.541-0.182,0.831-0.256
	c0.202-0.051,0.402-0.103,0.605-0.153c0.081-0.021,0.176-0.007,0.181-0.101c0.004-0.05-0.004-0.099-0.027-0.143
	c-0.085-0.172-0.318-0.251-0.474-0.356c-0.495-0.334-0.925-0.687-0.979-1.302c-0.027-0.309,0.005-0.62-0.029-0.927
	c-0.016-0.149-0.052-0.282-0.049-0.432c0.001-0.156,0.004-0.311,0.006-0.467c-0.143-1.197-0.351-2.516-1.323-3.38
	c-0.229-0.205-0.498-0.411-0.79-0.53c-0.179-0.072-0.369-0.11-0.546-0.19c-0.09-0.042-0.137-0.12-0.225-0.146
	c-0.104-0.032-0.146-0.007-0.141-0.125c-0.061-0.029-0.122-0.055-0.183-0.082c-0.06-0.026-0.119-0.05-0.182-0.07
	c0.004-0.094,0.032-0.116-0.062-0.162c-0.067-0.032-0.134-0.065-0.2-0.098c-0.093-0.044-0.068-0.059-0.065-0.149
	c-0.108,0.001-0.101,0.042-0.184-0.025c-0.057-0.045-0.119-0.085-0.185-0.119c-0.137-0.076-0.344-0.17-0.503-0.104
	c-0.094,0.039-0.083,0.126-0.149,0.182c-0.086,0.071-0.163-0.03-0.238,0.027c-0.091,0.024-0.043,0.103-0.103,0.15
	c-0.06,0.047-0.136,0.057-0.209,0.065c-0.077,0.01-0.161,0.025-0.184,0.108c-0.021,0.084-0.174,0.106-0.257,0.162
	c-0.154,0.105-0.245,0.217-0.43,0.261c-0.404,0.097-0.733,0.171-1.092,0.384c-0.919,0.547-1.367,1.438-1.675,2.398
	c-0.165,0.51-0.298,1.029-0.472,1.536c-0.05,0.146-0.099,0.273-0.114,0.426c-0.013,0.125-0.013,0.259-0.059,0.377
	c-0.078,0.205-0.114,0.422-0.148,0.637c-0.043,0.282-0.082,0.572-0.196,0.837c-0.1,0.23-0.264,0.429-0.43,0.616
	c-0.353,0.398-0.696,0.803-0.722,1.349c-0.016,0.368,0.056,1.05,0.532,1.094c0.171,0.017,0.356,0.092,0.529,0.124
	c0.138,0.004,0.286-0.007,0.419,0.021c0.043,0.009,0.087,0.014,0.132,0.019l-0.214,0.981l-1.801,1.603c0,0-0.769,0.924-1.285,1.13
	c0,0-2.308,0.512-2.412,1.439c-0.104,0.917-0.104-0.155-0.104-0.155s-2.975,3.076-2.563,4.667c0,0,0,0.718-0.207,1.234
	c0,0-1.182,1.644,0.304,3.08c0,0-0.252,2.467-0.151,3.39c0,0-1.285,1.336-1.233,2.208c0,0-0.665,1.181-0.613,2.306
	c0,0-1.386,1.388-0.721,2.261c0,0,0.107,0.612,0.156,1.127c0,0,0.412,1.949,1.228,2.206l-0.101,0.72c0,0-0.562-0.104-0.614,0.463
	c0,0-0.101,0.821,0.155,0.821c0,0-0.516-0.205-0.516,0.256c0,0,0.052,0.564,0.772,0.616c0,0,1.386-0.103,1.386,0.305
	c0,0,0.156,0.771,0.922,0.718c0,0,0.101,0.875,0.769,0.875c0,0-0.464,2.774-0.818,3.083c0,0-0.973,1.999-0.924,2.667
	c0,0-1.032,1.387,0,1.851c0,0,1.797,0.771,2.31,0.771c0,0,1.129,0.666,2.103,0.666c0,0-0.259,5.594,0.052,6.468
	c0,0-0.613,1.591-0.72,2.974l-0.562,2.928c0,0-0.989,2.4-0.674,3.951l0.054,0.21c0.461,1.538,0.155,9.958,0.055,11.137
	c0,0-0.207,2.104,0.407,1.999c0,0-0.254,2.213,0.362,2.213l1.85,0.05c0,0-0.309,0.87,0.204,0.87c0,0,1.95-0.052,2.927-0.203
	c0,0,3.999-0.104,5.131,0.151c0,0,5.544-0.359,5.232-1.335c0,0-0.716-1.642-2.614-1.538c0,0-1.642-0.77-1.949-0.717l-0.669-0.722
	c0,0-0.667-3.134-1.694-3.539c0,0-0.104-1.281,0.149-1.693c0,0,0.824-5.854,0.519-6.678c0,0,0.464-0.924,1.23-1.588
	c0,0,2.67-4.978,2.414-7.704l1.132-9.288c0,0,1.947-0.103,2.049,0.204l1.488,0.105l0.055-1.387c0,0-0.155-6.01-0.615-6.623
	C60.05,49.742,59.909,47.307,60.43,46.505z"/>
</svg>
