<?xml version="1.0" encoding="utf-8"?>
<!-- Generator: Adobe Illustrator 15.0.2, SVG Export Plug-In . SVG Version: 6.00 Build 0)  -->
<!DOCTYPE svg PUBLIC "-//W3C//DTD SVG 1.1//EN" "http://www.w3.org/Graphics/SVG/1.1/DTD/svg11.dtd">
<svg version="1.1" id="Ebene_1" xmlns="http://www.w3.org/2000/svg" xmlns:xlink="http://www.w3.org/1999/xlink" x="0px" y="0px"
	 width="100px" height="100px" viewBox="0 0 100 100" enable-background="new 0 0 100 100" xml:space="preserve">
<circle fill="#B2B2B2" cx="50" cy="50" r="50"/>
<path fill-rule="evenodd" clip-rule="evenodd" d="M77.27,18.563c0.36-2.781-1.302-5.508-4.068-6.387
	c-3.026-0.962-6.245,0.642-7.331,3.592c-1.321,0.385-2.565,1.001-3.673,1.814c-1.032-1.543-2.572-2.763-4.479-3.369
	c-4.47-1.421-9.247,1.052-10.667,5.522c-0.318,1.001-0.431,2.017-0.38,3.008c-1.908,0.734-3.479,2.293-4.146,4.394
	c-0.532,1.672-0.394,3.393,0.253,4.885c-1.982,0.307-3.721,1.694-4.37,3.735c-0.337,1.059-0.331,2.144-0.048,3.14
	c-0.79,0.371-1.43,1.054-1.715,1.952c-0.359,1.129-0.064,2.309,0.668,3.136c0.034,0.692,0.287,1.353,0.715,1.885
	c-2.831,0.254-4.524,0.869-4.524,0.869c2.857,12.089-4.396,36.487-4.396,36.487c12.311,1.977,23.188,0,23.188,0
	s-7.253-24.397-4.395-36.487c-1.723-0.454-3.345-0.718-4.838-0.855c0.211-0.258,0.384-0.553,0.51-0.879
	c0.442,0.31,0.937,0.559,1.479,0.73c1.377,0.438,2.798,0.295,4.006-0.283c0.957,0.813,2.086,1.456,3.359,1.86
	c4.257,1.353,8.749-0.381,11.083-3.942c0.064,0.022,0.124,0.05,0.188,0.071c3.509,1.114,7.257-0.825,8.372-4.333
	c0.078-0.247,0.138-0.495,0.187-0.743c3.705-1.019,6.839-3.831,8.09-7.766C81.738,26.188,80.397,21.564,77.27,18.563z"/>
</svg>
