<?xml version="1.0" encoding="utf-8"?>
<!-- Generator: Adobe Illustrator 15.0.2, SVG Export Plug-In . SVG Version: 6.00 Build 0)  -->
<!DOCTYPE svg PUBLIC "-//W3C//DTD SVG 1.1//EN" "http://www.w3.org/Graphics/SVG/1.1/DTD/svg11.dtd">
<svg version="1.1" id="Ebene_1" xmlns="http://www.w3.org/2000/svg" xmlns:xlink="http://www.w3.org/1999/xlink" x="0px" y="0px"
	 width="100px" height="100px" viewBox="0 0 100 100" enable-background="new 0 0 100 100" xml:space="preserve">
<circle fill="#B2B2B2" cx="50" cy="50" r="50"/>
<path d="M73.68,16.786l-0.074-0.07l-0.106-0.021H26.752l-0.152,0.045l-0.151,0.061l-0.021,0.021l-0.04,0.016l-0.05,0.081
	l-0.007,0.078l-0.01,0.046l-0.016,65.091l-0.005,0.474l0.021,0.473l0.002,0.008l0.002,0.034l0.04,0.106l0.084,0.055h0.012
	l0.01,0.008h46.005l0.495,0.014l0.496-0.014l0.086-0.035l0.05-0.078l0.002-0.043l0.021-0.062V19.334l-0.014-0.836l0.002-0.411
	l0.027-0.424l0.008-0.148l0.043-0.213l0.002-0.305l0.004-0.108L73.68,16.786z M71.065,81.945h-3.116l-0.12,0.012l-0.021-0.001
	l-0.086-0.021l-0.037-0.048l-0.005-0.028l-0.003-0.034v-2.897l-0.014-0.124l0.012-0.104l0.026-0.035l0.002-0.002l0.05-0.023
	l0.014-0.002l0.043-0.005h2.982l0.158-0.013l0.048,0.004l0.127,0.031l0.001,0.002l0.031,0.045l0.006,0.06v2.821l0.008,0.086v0.006
	l0.002,0.016l0.004,0.042l-0.014,0.146l-0.066,0.065L71.065,81.945z M66.429,81.824l-0.066,0.1l-0.055,0.021l-0.517,0.008
	l-0.542-0.008l-0.153,0.014l-0.142-0.029h-0.007l-0.021-0.031l-0.009-0.066v-2.799l-0.014-0.164l0.014-0.162l0.046-0.053
	l0.082-0.022l0.533-0.008l0.533,0.008l0.117-0.011l0.027-0.001l0.009,0.001l0.069,0.011l0.064,0.038l0.018,0.033l0.006,0.05v2.921
	l0.011,0.096L66.429,81.824z M63.624,81.888l-0.004,0.015l-0.047,0.035l-0.071,0.008h-5.999l-0.153,0.014l-0.141-0.029h-0.016
	l-0.025-0.048l-0.005-0.058v-2.852l-0.013-0.139l0.013-0.134l0.055-0.053l0.081-0.016h6.029l0.123-0.013l0.102,0.012l0.059,0.054
	l0.006,0.031l0.006,0.037v2.883l0.007,0.078v0.05l0.002,0.04L63.624,81.888z M54.651,81.945h-6.468l-0.197,0.014L47.8,81.93
	l-0.044-0.071l-0.01-0.117v-2.73l-0.013-0.149l0.013-0.146l0.068-0.065l0.091-0.018h6.535l0.17-0.014l0.11,0.022l0.047,0.058
	l0.013,0.077v2.951l0.003,0.085l-0.017,0.081l-0.051,0.045L54.651,81.945z M45.886,81.806l-0.015,0.092l-0.044,0.037l-0.071,0.011
	h-8.374l-0.197,0.014l-0.178-0.027l-0.038-0.06l-0.011-0.102v-2.707l-0.013-0.173l0.013-0.168l0.066-0.073l0.057-0.015l0.021-0.003
	h8.396l0.157-0.013l0.153,0.013l0.053,0.055l0.015,0.081v2.882l0.008,0.08l0.002,0.073L45.886,81.806z M35.142,81.93l-0.082,0.016
	h-6.097l-0.144,0.014l-0.084-0.019l-0.055-0.079l-0.012-0.12v-2.603l-0.008-0.121v-0.06l-0.004-0.044l0.012-0.184l0.076-0.081
	l0.083-0.018h6.028l0.139-0.013l0.118,0.012l0.057,0.054l0.02,0.091v2.988l0.004,0.083l-0.011,0.046L35.142,81.93z M35.146,26.053
	l-0.071,0.006h-6.18l-0.12,0.014l-0.01,0l-0.073-0.08l-0.025-0.123v-7.239L28.66,18.52v-0.024l-0.006-0.071l0.028-0.194l0.069-0.068
	l0.098-0.023h5.946l0.157-0.013l0.153,0.013l0.069,0.079l0.015,0.118v7.337l0.012,0.197l-0.006,0.094l-0.031,0.075L35.146,26.053z
	 M45.551,18.132l0.047-0.004l0.181,0.012l0.052,0.032l0.032,0.056l0.021,0.139v7.473l0,0.111l-0.027,0.09l-0.016,0.012l-0.072,0.006
	h-8.532l-0.144,0.014l-0.08-0.018l-0.042-0.06l-0.016-0.11v-7.3l-0.014-0.19l0.029-0.18l0.063-0.058l0.088-0.018h8.245l0.119-0.008
	H45.551z M54.565,18.131l0.108,0.008l0.052,0.034l0.033,0.056l0.021,0.137v7.193l0.016,0.243l-0.007,0.116l-0.038,0.111
	l-0.032,0.026l-0.036,0.003h-6.551l-0.179,0.014l-0.141-0.024l-0.048-0.065l-0.018-0.129v-7.186l-0.007-0.124v-0.05l-0.007-0.078
	l0.007-0.106l0.038-0.111l0.058-0.048l0.078-0.013h6.422l0.128-0.01L54.565,18.131z M57.168,18.195l0.03-0.029l0.024-0.018
	l0.068-0.008h5.946l0.157-0.013l0.153,0.013l0.067,0.079l0.008,0.059v7.51l0.013,0.12l-0.009,0.08l-0.019,0.044l-0.03,0.022
	l-0.061,0.005h-6.052l-0.144,0.014l-0.129-0.029h-0.002l-0.009-0.014l-0.02-0.077V18.51l-0.013-0.158l0.009-0.117L57.168,18.195z
	 M66.126,18.132h0.002l0.149,0.008l0.109,0.078l0.035,0.11v7.459l0.009,0.079L66.429,25.9l-0.065,0.131l-0.056,0.028l-0.536,0.007
	l-0.561-0.008l-0.143,0.014l-0.114-0.025l-0.025-0.04l-0.012-0.092V18.48l-0.014-0.154l0.027-0.141l0.044-0.033l0.055-0.012
	l0.375-0.01l0.374,0.01l0.189-0.01L66.126,18.132z M67.668,18.268l0.004-0.024l0.073-0.08l0.121-0.024h2.814l0.111-0.008h0.086
	l0.029-0.003l0.175,0.026l0.062,0.069l0.02,0.098v7.247l0.008,0.119v0.101l0.003,0.026l-0.011,0.163l-0.072,0.081l-0.026,0.002
	h-3.153l-0.119,0.014l-0.042-0.002l-0.059-0.066l-0.015-0.069v-7.509l-0.013-0.115L67.668,18.268z M67.995,77.361l-0.22-0.022
	h-0.053l-0.044-0.058v-0.003l-0.001-0.068V63.208l-0.012-0.106l0.004-0.063v-0.005l0.028-0.055l0.052-0.04l0.101-0.025h3.027
	l0.077-0.008l0.11,0.016l0.074,0.074l0.024,0.106v13.866l0.014,0.149l-0.014,0.146l-0.079,0.072l-0.117,0.019H68.35l-0.15,0.008
	H67.995z M66.352,77.331l-0.119,0.022l-0.503,0.006l-0.503-0.006l-0.14,0.014l-0.122-0.027l-0.039-0.056l-0.009-0.066V63.284
	l-0.015-0.165l0.028-0.152l0.046-0.04l0.084-0.014l0.489-0.014l0.206,0.007l0.062-0.004l0.407,0.011l0.062,0.006l0.037,0.017
	l0.057,0.053l0.042,0.122v13.872l0.014,0.173l-0.021,0.114L66.352,77.331z M63.57,77.334l-0.091,0.02h-6.014l-0.14,0.014
	l-0.122-0.027l-0.034-0.062l-0.007-0.083V63.277l-0.013-0.15l0.009-0.102l0.009-0.049l0.056-0.05l0.091-0.014h6.014l0.121-0.013
	l0.013,0.001l0.068,0.007l0.045,0.027l0.032,0.052l0.016,0.087v13.946l0.015,0.153l-0.024,0.114L63.57,77.334z M47.733,63.146
	l0.004-0.062l0.038-0.11l0.064-0.053l0.037-0.006l0.057-0.002h6.671l0.072,0.007l0.033,0.019l0.04,0.059l0.028,0.15v13.768
	l0.014,0.172l-0.014,0.168l-0.064,0.074l-0.102,0.024h-6.452l-0.176,0.014l-0.165-0.028h-0.007l-0.053-0.065l-0.016-0.086V63.442
	l-0.007-0.123v-0.134L47.733,63.146z M45.871,77.286l-0.006,0.011l-0.052,0.044l-0.079,0.013h-8.328l-0.191,0.014l-0.18-0.028
	h-0.023l-0.042-0.061l-0.012-0.076V63.33l-0.014-0.195l0.007-0.094l0.038-0.082l0.061-0.043l0.017-0.001l0.066-0.002h8.449
	l0.124-0.013l0.086,0.009l0.046,0.034l0.03,0.061l0.009,0.078v13.916l0.013,0.165L45.871,77.286z M35.186,77.272l-0.057,0.062
	l-0.092,0.02h-5.855l-0.216,0.014l-0.207-0.028h-0.023l-0.053-0.065l-0.015-0.086V63.383l-0.015-0.214l0.007-0.102l0.038-0.094
	l0.066-0.052l0.021-0.005l0.087-0.004h3.344l0.736-0.007h1.449l0.492,0.015l0.138-0.013l0.075,0.012l0.027,0.016l0.032,0.052
	l0.023,0.13v13.828l0.013,0.165l-0.011,0.143L35.186,77.272z M34.901,27.315l0.023-0.003l0.158,0.01l0.082,0.076l0.024,0.12v13.48
	l0.014,0.165l-0.029,0.153l-0.059,0.047l-0.078,0.013h-5.938l-0.092,0.007H29l-0.042,0.004l-0.035,0.003l-0.165-0.03h-0.008
	l-0.062-0.071l-0.021-0.095V27.777L28.66,27.67v-0.03l-0.006-0.071l0.006-0.092l0.038-0.087l0.067-0.052l0.084-0.016h5.825
	l0.123-0.007H34.901z M45.854,41.332L45.8,41.368l-0.067,0.01h-8.374l-0.168,0.014l-0.157-0.03l-0.059-0.071l-0.018-0.096V27.731
	l-0.014-0.188l0.006-0.088l0.038-0.08l0.061-0.042l0.075-0.011h8.351l0.158-0.013l0.153,0.013l0.078,0.085l0.02,0.126v6.791
	l-0.007,6.765l0.013,0.124l-0.006,0.058L45.854,41.332z M54.565,27.314l0.102,0.008l0.053,0.035l0.035,0.056l0.024,0.136v13.412
	l0.015,0.176l-0.028,0.165L54.7,41.359l-0.087,0.019h-6.505l-0.15,0.014l-0.137-0.03l-0.059-0.08l-0.017-0.102V27.822l-0.007-0.127
	v-0.016l-0.003-0.038l-0.004-0.073l0.016-0.117l0.06-0.098l0.106-0.03h6.444l0.118-0.009L54.565,27.314z M57.186,27.368l0.054-0.036
	l0.068-0.01h5.809l0.122-0.007h0.09l0.028-0.003l0.168,0.011l0.081,0.076l0.018,0.083V41.09l0.013,0.122l-0.021,0.105l-0.059,0.047
	l-0.077,0.013h-5.953l-0.161,0.014l-0.149-0.03l-0.048-0.065l-0.002-0.011l-0.003-0.067V27.693l-0.013-0.157l0.009-0.114
	L57.186,27.368z M66.149,27.315l0.036-0.004l0.074,0.008l0.094,0.049l0.056,0.075l0.013,0.057v13.613l0.01,0.086l-0.003,0.035
	l-0.063,0.098l-0.109,0.046l-0.495,0.013l-0.497-0.013l-0.149,0.014l-0.138-0.03H64.97l-0.042-0.061l-0.011-0.076V27.724
	l-0.015-0.188l0.006-0.088l0.039-0.079l0.098-0.045l0.438-0.012l0.439,0.012l0.137-0.009L66.149,27.315z M67.67,27.474l0.026-0.062
	l0.051-0.048l0.135-0.042h2.776l0.112-0.007h0.107l0.016-0.002l0.165,0.024l0.077,0.074l0.028,0.107v13.329l0.008,0.119v0.146
	l0.001,0.01l-0.009,0.133l-0.081,0.092l-0.13,0.03h-2.587l-0.153,0.007h-0.202l-0.22-0.022l-0.068-0.015l-0.042-0.06l-0.004-0.028
	l0.001-0.026V27.61l-0.01-0.09L67.67,27.474z M66.429,61.499l-0.068,0.122l-0.116,0.054l-0.404,0.011l-0.485-0.014l-0.108,0.009
	h-0.004l-0.014,0.001l-0.07,0.004l-0.186-0.027l-0.044-0.067l-0.012-0.092V43.23l-0.009-0.149v-0.078l-0.004-0.047l0.013-0.225
	l0.04-0.066l0.029-0.013l0.059-0.012l0.533-0.007l0.533,0.007l0.111-0.011l0.062,0.003l0.104,0.079l0.032,0.107v18.559l0.009,0.087
	L66.429,61.499z M63.607,61.619l-0.034,0.033l-0.008,0.006l-0.078,0.014h-5.984l-0.153,0.014l-0.139-0.027l-0.043-0.067
	l-0.004-0.027l-0.001-0.011V43.019l-0.013-0.158l0.011-0.142l0.004-0.012l0.053-0.052l0.081-0.015h6.029l0.123-0.013l0.101,0.011
	l0.063,0.074l0.008,0.058v18.523l0.013,0.157l-0.011,0.133L63.607,61.619z M54.621,61.672h-5.946l-0.229,0.009h-0.29l-0.328-0.022
	h-0.013L47.76,61.57l-0.015-0.116V42.921l-0.002-0.108l0.018-0.104l0.061-0.059l0.083-0.009h6.558l0.139-0.012l0.042,0.002
	l0.042,0.009l0.044,0.027l0.031,0.061l0.02,0.147v18.306l0.016,0.254l-0.016,0.118l-0.06,0.098l-0.07,0.02L54.621,61.672z
	 M45.88,61.562l-0.003,0.021l-0.026,0.046l-0.028,0.028l-0.825,0.014h-5.605l0.044-0.198l0.016-0.094l0.008-0.024l-0.007-5.161
	v-5.142l0.013-0.165l-0.013-0.161l-0.038-0.061l-0.033-0.019l-0.007-0.008l-0.011-0.002l-0.029-0.017l-0.094-0.014h-1.769
	l-0.118,0.008h-0.056l-0.05,0.004l-0.185-0.012l-0.08-0.07l-0.026-0.111V43.08l-0.014-0.191l0.029-0.18l0.063-0.058l0.04-0.008
	l0.025-0.002h8.479l0.124-0.013l0.095,0.011l0.043,0.033l0.027,0.061l0.006,0.062v18.5l0.009,0.114l0.002,0.063L45.88,61.562z
	 M28.655,42.912l0.027-0.188l0.069-0.068l0.065-0.015h6.084l0.123-0.013l0.083,0.009l0.066,0.076l0.015,0.117v7.399l0.014,0.165
	l-0.029,0.153l-0.059,0.047l-0.078,0.014h-5.855l-0.025,0.002l-0.135-0.007l-0.142,0.007l-0.121-0.017h-0.023l-0.054-0.073
	l-0.014-0.094v-7.3l-0.008-0.112v-0.047L28.655,42.912z M33.581,55.544l-0.092,0.229l-0.107,0.222l-0.112,0.111l-0.125,0.092
	l-0.065,0.049l-0.008,0.006l-0.01,0.008l-0.041,0.03l-0.018,0.02l-0.041,0.036l-0.026,0.039l-0.02,0.021l-0.002,0.013l-0.013,0.019
	l0.002,0.026l-0.016,0.069l0.531,1.787l0.009,0.088l-0.048,0.063l-0.082,0.028l-1.315,0.014l-0.126-0.028l-0.03-0.049l-0.008-0.059
	l0.643-1.818v-0.012l0.013-0.064l-0.036-0.086l-0.081-0.06l-0.201-0.09l-0.106-0.065l-0.153-0.148l-0.111-0.192l-0.081-0.172
	l-0.056-0.18l-0.019-0.05l-0.023-0.179l0.017-0.231l0.026-0.094l0.068-0.179l0.107-0.223l0.122-0.184l0.044-0.055l0.063-0.055
	l0.027-0.018l0.11-0.048l0.225-0.042l0.221-0.01l0.445,0.051l0.007,0.003l0.119,0.059l0.14,0.089l0.109,0.113l0.007,0.01
	l0.119,0.208l0.073,0.221l0.021,0.266L33.61,55.43L33.581,55.544z M67.791,61.665h-0.022l-0.073-0.077l-0.018-0.072v-18.58
	l-0.014-0.12l0.002-0.017l0.007-0.065l0.026-0.044l0.053-0.033l0.087-0.015h3.039l0.1-0.01l0.111,0.018l0.06,0.07l0.016,0.097
	v18.048l0.008,0.191v0.283l-0.008,0.191l-0.025,0.062l-0.051,0.048l-0.11,0.033h-3.028l-0.057,0.007L67.791,61.665z"/>
</svg>
