<?xml version="1.0" encoding="utf-8"?>
<!-- Generator: Adobe Illustrator 15.0.2, SVG Export Plug-In . SVG Version: 6.00 Build 0)  -->
<!DOCTYPE svg PUBLIC "-//W3C//DTD SVG 1.1//EN" "http://www.w3.org/Graphics/SVG/1.1/DTD/svg11.dtd">
<svg version="1.1" id="Ebene_1" xmlns="http://www.w3.org/2000/svg" xmlns:xlink="http://www.w3.org/1999/xlink" x="0px" y="0px"
	 width="100px" height="100px" viewBox="0 0 100 100" enable-background="new 0 0 100 100" xml:space="preserve">
<circle fill="#B2B2B2" cx="50" cy="50" r="50"/>
<path d="M25.887,42.168c-0.711,0.882-0.644,1.5-0.557,2.072c0.087,0.573,0.318,2.06,2.583,2.587
	c-0.091,0.387-0.089,0.964,0.643,0.593c-0.032,0.258-0.153,0.433-0.553,0.557c-0.401,0.123-0.736,0.285-1.227,0.796
	c-0.493,0.511-0.692,1.397-0.767,2.188c-0.076,0.793,0.013,1.367,0.013,1.367l0.641-0.516c0,0-0.235-1.593,0.2-2.466
	c0.435-0.87,0.45-0.978,0.91-1.189c0.755-0.372,1.457-0.443,1.553-0.746c0.092-0.303,0.188-0.072,0.323,0.092
	c0.134,0.166,0.684,0.528,0.986,0.623c0.304,0.095,0.69,0.166,0.997-0.169c0.307-0.333,0.327-0.376,0.274-0.63
	c0,0,3.909,2.083,8.597,2.32c4.687,0.237,8.1,0.077,15.002-1.955c3.141-1.046,5.022-2.618,5.58-3.068
	c0.558-0.449,1.531-1.194,1.845-1.376c0.654,0.827,2.499,2.097,3.175,2.433s1.765,0.847,2.932,0.629
	c1.166-0.218,1.209-0.755,1.143-1.349c-0.066-0.596-0.288-1.825-0.391-2.247c-0.103-0.424-0.506-1.389-0.549-1.966
	c0.877-0.482,1.983-1.639,2.529-2.408c0.543-0.77,0.79-1.548,1.542-2.519c0.752-0.969,1.5-1.47,1.878-1.614
	c0.379-0.144,0.746-0.051,1.277-0.116c0.532-0.066,0.55-0.129,0.807-0.162c0.254-0.032,1.747-0.071,2.122-0.321
	c0.375-0.252,0.665-0.967,0.274-3.258c-0.393-2.292-1.003-2.565-1.839-3.193c-0.176-0.122,0.109-0.473-0.271-0.864
	c-0.379-0.391-0.565-0.277-1.071-0.597c-0.503-0.321-1.154-0.53-2.626-1.539c-1.471-1.007-2.33-1.079-3.266-1.509
	c-0.938-0.433-1.603-1.022-2.903-1.507c-1.302-0.48-2.751-0.398-4.367-0.74c-0.259-0.055-0.457-0.195-0.457-0.195
	s-0.313-0.371-0.724-0.504c-0.195-0.077-0.534-1.024-0.793-2.659c-0.259-1.634-0.249-1.934-0.093-3.863
	c0.158-1.927,0.374-1.829,0.254-2.701c0.035-0.193,0.012-0.212-0.164-0.335c-0.175-0.121-0.241-0.182-0.521-0.234
	c-0.28-0.054-0.795-0.097-2.161-0.083c-1.366,0.011-2.298,0.242-2.135,0.577c-0.336,0.144-0.329,0.313-0.329,0.313
	s-0.332,0.248-0.515,0.491c-0.375,0.228-0.479,0.277-0.935,1.171c-0.456,0.893-1.177,3.101-1.7,4.427
	c-0.214,0.542-0.576,1.067-0.576,1.067s-1.402,0.208-2.797,0.029c-0.324-0.051-1.022,0.107-1.831,0.159
	c-0.81,0.054-1.408,0.079-1.982,0.145c-0.575,0.066-2.125,0.28-3.123,0.405c-1,0.124-1.851,0.203-3.422,0.46
	c-1.569,0.255-1.787,0.178-1.942-0.497c-0.155-0.677-0.218-1.699-0.225-2.384c-0.007-0.683-0.053-1.299-0.351-1.779
	c0.489-0.063,0.046-0.473-0.105-0.531c-0.153-0.06-0.434-0.153-0.647-0.123c-0.042-0.49-0.137-1.79-0.672-2.342
	c0.226-0.201-0.058-0.362-0.316-0.435c-0.26-0.077-1.186-0.252-2.443-0.158c-1.257,0.093-1.509,0.189-1.719,0.262
	c-0.212,0.074-0.036,0.213-0.284,0.374c-0.251,0.161,0.054,0.254,0.054,0.254s-0.266,0.312-0.962,2.089
	c-0.698,1.781-0.565,1.903-0.974,2.881c-0.408,0.979-0.57,1.711-0.805,3.301c-0.236,1.589-0.064,2.096-1.31,4.558
	c-1.246,2.464-2.111,3.269-2.864,7.378C23.01,36.026,24.923,41.055,25.887,42.168z M31.233,47.055
	c0.452,0.623-0.668,0.881-0.668,0.881c-0.798-0.203-0.25-0.886-1.122-0.808c0.5-0.276,1.396-0.335,1.396-0.335
	S31.036,46.914,31.233,47.055z M29.923,46.34c0.259,0.054,0.395,0.261,0.077,0.338c-0.316,0.078-0.634,0.113-0.634,0.113
	S29.42,46.553,29.923,46.34z M27.479,44.538c0,0,0.09,0.103,0.16,0.272c0.072,0.167-0.187,0.092-0.187,0.092
	C27.187,44.701,27.479,44.538,27.479,44.538z"/>
<path d="M58.166,56.667c0,2.485-2.015,4.5-4.5,4.5s-4.5-2.015-4.5-4.5s2.021-4.686,4.5-4.5
	C56.556,52.383,58.166,54.182,58.166,56.667z"/>
<path d="M50.834,68.334c0,2.669-2.164,4.833-4.833,4.833s-4.833-2.164-4.833-4.833c0-2.67,2.168-4.977,4.833-4.834
	C48.794,63.649,50.834,65.664,50.834,68.334z"/>
<path d="M62.501,75c0,2.485-2.015,4.5-4.5,4.5s-4.288-2.023-4.5-4.5c-0.2-2.336,2.015-4.5,4.5-4.5S62.501,72.515,62.501,75z"/>
<path d="M51.832,84.5c0,2.578-2.088,4.667-4.666,4.667S42.5,87.078,42.5,84.5c0-2.577,2.09-4.594,4.667-4.666
	C49.879,79.758,51.832,81.923,51.832,84.5z"/>
</svg>
