<?xml version="1.0" encoding="utf-8"?>
<!-- Generator: Adobe Illustrator 15.0.2, SVG Export Plug-In . SVG Version: 6.00 Build 0)  -->
<!DOCTYPE svg PUBLIC "-//W3C//DTD SVG 1.1//EN" "http://www.w3.org/Graphics/SVG/1.1/DTD/svg11.dtd">
<svg version="1.1" id="Ebene_1" xmlns="http://www.w3.org/2000/svg" xmlns:xlink="http://www.w3.org/1999/xlink" x="0px" y="0px"
	 width="100px" height="100px" viewBox="0 0 100 100" enable-background="new 0 0 100 100" xml:space="preserve">
<circle fill="#B2B2B2" cx="50" cy="50" r="50"/>
<g>
	<path fill-rule="evenodd" clip-rule="evenodd" d="M38.972,48.333l-0.228,0.057c0,0,0.152,0.08,0.19,0.07
		C38.972,48.451,38.972,48.333,38.972,48.333z"/>
	<path fill-rule="evenodd" clip-rule="evenodd" d="M38.893,51.589c-0.056-0.521,0.28-1.008,0.384-1.136
		c0.104-0.129,0.304-0.145,0.304-0.145l-0.08-0.16l-0.672-0.224c0,0-0.648,2.186-0.336,3.538c0.312,1.354,1.241,1.377,1.241,1.377
		l0.056-0.536l0.136-1.44c0,0-0.497-0.177-0.632-0.289C39.157,52.462,38.949,52.109,38.893,51.589z"/>
	<path fill-rule="evenodd" clip-rule="evenodd" d="M39.943,48.304c0.038-0.164,0.019-0.332,0.019-0.332s-0.05,0.089-0.159,0.12
		c-0.107,0.032-0.398,0.13-0.398,0.13l-0.145,0.319l0.434,0.146C39.693,48.687,39.905,48.469,39.943,48.304z"/>
	<path fill-rule="evenodd" clip-rule="evenodd" d="M49.532,61.019c0,0-0.136-0.536-0.296-1.097s-0.576-1.521-0.576-1.521h-0.232
		c0,0-0.008,0.056-0.008,0.12s-0.096,0.279-0.096,0.279s-0.048,0.168-0.008,0.28c0.04,0.113-0.096,0.521-0.096,0.521l0.508,0.474
		l-0.153,0.346c0,0,0.123,1.103,0.092,1.613c-0.031,0.511-0.357,1.153-0.397,1.204c-0.041,0.051,0.04,0.295,0.04,0.295
		s0.348,0.664,0.47,1.092c0.122,0.429,0.061,1.408,0.041,1.501c-0.021,0.092-0.082,0.163-0.122,0.275
		c-0.041,0.112,0.02,0.336,0.102,0.387c0.082,0.052,0.061,0.266,0.061,0.296s0.021,0.245,0.04,0.276
		c0.021,0.031-0.02,0.326-0.071,0.397c-0.051,0.071,0.01,0.367,0.01,0.367c0.479-0.673,0.82-2.744,0.892-3.247
		c0.072-0.506,0.04-1.819,0.04-1.819l-0.048-0.016l-0.064-0.607l0.072-0.039l-0.16-0.874L49.532,61.019z"/>
	<path fill-rule="evenodd" clip-rule="evenodd" d="M50.574,51.293l-0.137-0.137l-0.006-0.224c0,0-0.905-0.184-1.286-0.932
		c0,0-0.054,0.578-0.129,0.66c0,0,0.231,0.157,0.333,0.728l0.646,0.068l0.035,0.312l-0.075,0.028l-0.021,0.244l0.096-0.021
		l0.04-0.068c0,0,0.034-0.163,0.143-0.17c0.109-0.007,0.272,0.021,0.272,0.021l0.027,0.096l0.067,0.02v0.062h0.32v-0.354h-0.326
		V51.293z"/>
	<path fill-rule="evenodd" clip-rule="evenodd" d="M39.565,50.973c0.024-0.04,0.048-0.064,0.048-0.088
		c0-0.024-0.008-0.225-0.104-0.216c0,0-0.329,0.399-0.32,0.775c0.008,0.377,0.056,0.713,0.208,0.833
		c0.153,0.12,0.585,0.312,0.585,0.312l0.063-0.12l-0.472-1.377C39.573,51.093,39.542,51.013,39.565,50.973z"/>
	<path fill-rule="evenodd" clip-rule="evenodd" d="M78.146,82.307c-0.081-2.172-0.339-8.447-0.391-9.559
		c-0.05-1.111-0.53-12.796-0.601-14.305c-0.074-1.508-0.356-8.9-0.456-10.831c-0.097-1.935-0.544-12.462-0.611-14.028
		c-0.068-1.564-0.475-10.62-0.546-12.116c-0.07-1.496-0.078-2.503-0.239-2.92c-0.163-0.417-0.619-1.021-1.443-1.347
		c-0.826-0.326-1.298-0.252-3.527-0.19c-2.228,0.063-6.946,0.213-6.946,0.213l-4.784,0.163c0,0-0.709-0.124-1.074-0.247
		c-0.144-0.725-0.222-1.139-0.398-1.65c-0.178-0.51-0.327-0.586-0.765-0.639c-0.437-0.055-1.119-0.158-1.824-0.872
		c-0.79-0.802-0.645-2.068-0.973-2.666c-0.274-0.496-0.911-1.306-1.887-1.609c-0.973-0.303-2.324,0.077-2.977,0.927
		c-0.653,0.848-0.696,1.546-0.749,2.162c-0.055,0.619-0.349,1.286-0.985,1.827c-0.632,0.544-1.179,0.588-1.433,0.628
		c-0.256,0.041-0.702,0.292-0.671,0.922c0.03,0.631,0.076,1.439,0.076,1.439l-0.637,0.17c0,0-6.083,0.077-8.625,0.161
		c-2.545,0.082-4.158,0.103-5.242,0.15c-1.084,0.046-1.694,0.212-2.132,0.684c-0.437,0.469-0.654,0.931-0.676,1.93
		c-0.022,0.998-0.17,5.222-0.193,7.078c-0.026,1.857-0.322,10.568-0.404,13.98c-0.084,3.412-0.31,10.635-0.35,12.742
		c-0.041,2.106-0.27,10.546-0.337,12.739c-0.068,2.194-0.26,10.518-0.316,12.696s-0.124,3.944,0.012,4.447
		c0.134,0.506,0.507,1.41,1.543,1.72c0.912,0.271,4.464,0.095,8.374,0.085s9.467-0.001,12.727-0.006
		c3.261-0.006,9.635-0.001,13.294-0.012c3.661-0.014,10.759-0.044,12.578-0.067c1.821-0.025,2.058-0.022,2.697-0.522
		C77.894,85.084,78.225,84.476,78.146,82.307z M50.98,11.225c0.469-0.019,1.208,0.472,1.358,1.25
		c0.142,0.732-0.355,1.604-1.217,1.74c-0.864,0.137-1.729-0.612-1.661-1.589C49.528,11.647,50.482,11.244,50.98,11.225z
		 M53.35,43.552c0,0-0.089-0.007-0.062,0.068c0.026,0.074,0.067,0.163,0.048,0.217c-0.021,0.055-0.123,0.076-0.123,0.076
		l0.008,0.122l-0.075,0.014v5.428c0,0-0.026,1.076-1.319,1.429v0.259l-0.156,0.122v0.327h-0.328v0.496l0.145-0.096l0.189-0.007
		l0.075,0.082c0,0,0.054-0.252,0.197-0.32c0.143-0.067,0.36-0.013,0.442,0.279c0.081,0.292,0.014,0.81-0.26,0.857
		c-0.271,0.048-0.326-0.313-0.326-0.313l-0.122,0.027c0,0-0.204,0.007-0.224-0.014c-0.021-0.021-0.021-0.021-0.021-0.021h-0.436
		l-0.088,0.088l-0.327,0.008c0,0-0.067,0.225-0.224,0.225s-0.279-0.13-0.279-0.13l-0.047,0.319c0,0-0.205,0.755-0.245,1.163
		c-0.042,0.409-0.157,1.552-0.136,1.92c0.02,0.367,0,0.979,0,0.979s1.061,2.13,1.375,4.32c0.312,2.189,0.218,3.918-0.354,5.782
		c-0.571,1.862-2.204,4.109-2.204,4.109s0,0.761-0.041,0.884c-0.041,0.121-0.149,0.407-0.149,0.407s0.34,0.272,0.3,0.721
		c-0.041,0.45-0.463,1.987-0.463,1.987v0.244c0,0-0.762,0.407-4.067,0.299c-0.341-0.011-0.708-0.026-0.708-0.026v0.218
		c0,0-2.884,0.23-4.354,0.204c-1.469-0.027-2.761-0.163-2.761-0.163s-0.204-0.313-0.177-0.463c0.027-0.149,0.312-0.38,0.639-0.45
		c0.327-0.067,0.79-0.149,0.79-0.149s0.925-0.583,1.033-0.625c0.109-0.041,0.136-0.123,0.136-0.123l0.231-0.367
		c0,0-0.15-0.176-0.204-0.558c-0.054-0.38-0.082-0.626,0.231-0.843c0.313-0.218,0.381-0.3,0.381-0.3l-0.068-0.611
		c0,0,0.041-0.137,0.108-0.218c0.068-0.082-0.095-1.252-0.095-1.252s-0.095-0.449-0.054-0.803s0.041-1.211,0.041-1.211
		s0.054-0.558,0.095-0.829c0.041-0.274,0.299-0.981,0.299-0.981s-0.272-0.312-0.286-0.462c-0.013-0.148-0.054-0.625-0.095-0.666
		s-0.136-0.435-0.15-0.708c-0.013-0.271,0.027-1.796,0.232-2.626c0.204-0.829,0.489-1.781,0.489-1.781l0.068-0.178
		c0,0-0.068-0.026-0.068-0.136c0-0.108-0.013-0.17,0.041-0.245c0.055-0.074,0.129-0.204,0.109-0.354s-0.027-0.558-0.027-0.558
		l-0.095-0.068c0,0-0.082-0.047-0.02-0.107c0.061-0.062,0.129-0.069,0.129-0.069s0.068-0.429,0.062-0.51
		c-0.007-0.082-0.021-0.32-0.021-0.32s-0.19,0.3-0.218,0.49c-0.027,0.189-0.021,0.51-0.021,0.51s-0.3-0.055-0.538-0.176
		c-0.238-0.122-0.258-0.158-0.245-0.246s0.149-0.585,0.149-0.585s0.177-0.354,0.272-0.537c0.096-0.183,0.232-0.326,0.232-0.326
		s-0.055-0.245,0.006-0.307c0.062-0.061,0.095-0.211,0.095-0.211s-0.082-0.108-0.082-0.149s0.116-0.592,0.116-0.592l-0.021-0.224
		c0,0-0.735-0.09-1.156-0.722c-0.421-0.633-0.523-1.537-0.517-2.157c0.007-0.619,0.225-1.612,0.225-1.612l0.21-0.884l-0.653-0.225
		l-0.156,0.062c0,0-0.068,0.129-0.095,0.116c-0.027-0.014-0.075-0.062-0.075-0.062s-0.164,0.123-0.211,0.109
		c-0.047-0.014-0.095-0.062-0.095-0.062l-0.122-0.014c0,0-0.334,0.564-0.688,0.599c-0.353,0.035-0.809,0.007-1.156-0.49
		c-0.347-0.497-0.293-0.892-0.293-0.892l-0.19,0.171c0,0-0.041,0.007-0.184-0.028s-0.333-0.075-0.333-0.075l-0.027,0.088
		l-0.436-0.109l-0.006-0.068l-0.395-0.122l0.061-0.3l-0.619-0.252c0,0-0.054,0.11-0.082,0.11s-0.164-0.062-0.164-0.062l0.062-0.3
		l-0.592-0.211c0,0-0.109,0.068-0.245,0.042c-0.136-0.027-0.653-0.205-0.653-0.205l-0.163,0.041l-0.775-0.238
		c0,0-0.062-0.034-0.062-0.095c0-0.061,0.068-0.238,0.068-0.238s-0.007-0.088-0.15-0.048c-0.143,0.042-0.428,0.137-0.428,0.137
		l-0.265,0.021c0,0,0.075-0.225,0.136-0.408c0.062-0.185,0.388-1.035,0.354-1.076c-0.034-0.041,0.144,0.048,0.197,0.123
		c0.055,0.075,0.238,0.305,0.307,0.353c0.067,0.047,0.108,0.062,0.108,0.062l0.062-0.211c0,0,0-0.102,0.055-0.088
		c0.054,0.013,0.836,0.21,0.836,0.21s0.041,0.041,0.082,0.089c0.041,0.047,0.483,0.142,0.483,0.142s0.381,0.136,0.395,0.177
		c0.013,0.041,0.312,0.123,0.312,0.123l0.041-0.103h0.286c0,0,0.054-0.082,0.075-0.082s0.205,0.068,0.205,0.068l0.006,0.061
		l0.144,0.028v0.041h-0.082v0.054l0.415,0.115c0,0,0.095,0.014,0.13-0.013c0.033-0.027-0.082-0.163-0.082-0.163
		s-0.102-0.082-0.061-0.177c0.041-0.095,0.225-0.17,0.225-0.17s0.067-0.027,0.108,0c0.041,0.027,0.116,0.068,0.116,0.068
		s0.021-0.122,0.136-0.136c0.116-0.013,0.327-0.026,0.327-0.026l0.224,0.189c0,0,0.103-0.034,0.211-0.013
		c0.108,0.021,0.21,0.095,0.21,0.095l0.157,0.204c0,0,0.095-0.027,0.17-0.027c0.075,0,0.122,0.007,0.122,0.007l0.449-0.258
		l0.163-0.014c0,0,0.062-0.122,0.157-0.189c0.095-0.069,0.326-0.239,0.34-0.287c0.014-0.047,0.109-0.17,0.136-0.184
		c0.027-0.014,0.047-0.224,0.122-0.319c0.075-0.096,0.123-0.15,0.123-0.177c0-0.027,0.061-0.238,0.245-0.279
		c0.183-0.041,0.183-0.041,0.183-0.041l0.422-0.904c0,0-0.021-0.279,0.115-0.551c0.136-0.272,0.517-0.551,0.517-0.551
		s-0.102-0.129,0.088-0.476c0.19-0.347,0.469-0.632,0.469-0.632s0.463-0.653,0.524-0.748c0.062-0.095,0.136-0.293,0.136-0.293
		s0.164-0.286,0.258-0.381c0.096-0.095,0.19-0.19,0.19-0.19s-0.075-0.014-0.095-0.048c-0.021-0.034-0.034-0.088-0.034-0.088
		s-0.082-0.035-0.102-0.069c-0.021-0.034-0.021-0.034-0.021-0.034s-0.191,0.347-0.34,0.313c-0.15-0.034-0.292-0.061-0.775-0.599
		c-0.483-0.538-0.544-0.659-0.551-0.803c-0.005-0.117,0.082-0.204,0.123-0.224l0.143-0.122l0.061-0.021c0,0-0.014-0.075,0-0.096
		c0.014-0.02,0.231-0.197,0.231-0.197l0.062,0.014l0.082-0.047l0.265,0.258l0.15-0.115l0.068,0.054c0,0,0.041-0.061,0.054-0.082
		s0.136-0.148,0.204-0.183s0.17-0.144,0.17-0.144h-0.15c0,0-0.068-0.006-0.075-0.081c-0.007-0.075,0.007-0.218,0.007-0.218
		l0.081-0.048v-2.867L39.156,34.8c0,0-0.167-0.01-0.167-0.081c0-0.072,0.296-0.436,0.296-0.436s-0.023-0.031,0-0.088
		s0.061-0.112,0.061-0.112s0.051-1.055,0.119-1.32c0.068-0.266,0.115-0.272,0.115-0.272s0.518-1.571,1.565-2.115
		c1.047-0.544,2.395-0.736,3.49,0.082c1.047,0.782,1.85,3.183,2.197,3.462c0,0,0.163,0.123,0.17,0.191
		c0.007,0.067-0.122,0.142-0.313,0.163c-0.19,0.021,0.688,0.191,1.728,1.218c0,0,0.034,0.074-0.054,0.163
		c-0.088,0.088-0.503,0.639-1.163,0.775c0,0-0.076,0.048,0.02,0.116c0.096,0.069,0.178,0.219,0.178,0.449
		c0,0.231-0.089,0.299-0.089,0.299s-0.089,0.116,0.02,0.184c0.109,0.067-0.041,0.258-0.041,0.258l0.177,0.218
		c0,0,0.401,0.156,0.51,0.257c0.109,0.103,0.36,0.286,0.36,0.286l0.381,0.171l0.02-0.212c0,0,0.034,0.177,0.082,0.197
		c0.047,0.021,0.224,0.211,0.238,0.279c0.014,0.068,0.102,0.278,0.102,0.278s-0.047,0.035-0.047,0.069
		c0,0.034,0.007,0.101,0.007,0.101l0.102,0.068c0,0,0.299-0.49,0.884-0.673s2.104-0.351,2.803,0.653
		c0.218,0.312,0.212,0.517,0.212,0.517l0.006,2.135h0.074v0.198h0.123v0.156h0.027V43.552z M69.674,53.304
		c0.248,0.331,0.332,3.579,0.332,3.579l-0.029,0.75l-0.805-0.056c-0.055-0.167-1.107-0.111-1.107-0.111l-0.612,5.021
		c0.139,1.475-1.306,4.165-1.306,4.165c-0.413,0.359-0.663,0.857-0.663,0.857c0.164,0.444-0.282,3.61-0.282,3.61
		c-0.136,0.223-0.08,0.916-0.08,0.916c0.556,0.219,0.915,1.912,0.915,1.912l0.362,0.391c0.166-0.029,1.054,0.388,1.054,0.388
		c1.025-0.056,1.415,0.832,1.415,0.832c0.167,0.527-2.831,0.722-2.831,0.722c-0.61-0.139-2.773-0.082-2.773-0.082
		c-0.527,0.082-1.581,0.109-1.581,0.109c-0.277,0-0.111-0.471-0.111-0.471l-0.999-0.026c-0.334,0-0.197-1.197-0.197-1.197
		c-0.332,0.058-0.219-1.081-0.219-1.081c0.055-0.636,0.219-5.188-0.03-6.02L60.096,67.4c-0.17-0.839,0.364-2.138,0.364-2.138
		l0.304-1.582c0.058-0.748,0.389-1.608,0.389-1.608c-0.167-0.472-0.027-3.495-0.027-3.495c-0.526,0-1.137-0.361-1.137-0.361
		c-0.277,0-1.249-0.416-1.249-0.416c-0.558-0.25,0-1,0-1c-0.026-0.36,0.5-1.441,0.5-1.441c0.191-0.168,0.442-1.667,0.442-1.667
		c-0.361,0-0.416-0.473-0.416-0.473c-0.414,0.028-0.499-0.389-0.499-0.389c0-0.22-0.748-0.165-0.748-0.165
		c-0.39-0.027-0.418-0.332-0.418-0.332c0-0.249,0.279-0.139,0.279-0.139c-0.139,0-0.084-0.443-0.084-0.443
		c0.027-0.308,0.331-0.251,0.331-0.251l0.055-0.39c-0.44-0.138-0.663-1.193-0.663-1.193c-0.026-0.278-0.085-0.609-0.085-0.609
		c-0.359-0.471,0.39-1.222,0.39-1.222c-0.027-0.608,0.332-1.247,0.332-1.247c-0.028-0.471,0.667-1.193,0.667-1.193
		c-0.056-0.5,0.082-1.834,0.082-1.834c-0.804-0.777-0.165-1.665-0.165-1.665c0.112-0.278,0.112-0.667,0.112-0.667
		c-0.223-0.861,1.386-2.524,1.386-2.524s0,0.58,0.057,0.085c0.056-0.502,1.304-0.779,1.304-0.779c0.277-0.112,0.694-0.61,0.694-0.61
		l0.974-0.868l0.116-0.534c-0.024-0.002-0.049-0.001-0.072-0.006c-0.072-0.015-0.153-0.009-0.228-0.011
		c-0.093-0.018-0.192-0.058-0.285-0.066c-0.258-0.025-0.296-0.393-0.287-0.593c0.013-0.295,0.199-0.513,0.39-0.729
		c0.091-0.101,0.18-0.209,0.232-0.333c0.062-0.143,0.082-0.299,0.106-0.452c0.019-0.116,0.038-0.233,0.08-0.344
		c0.024-0.063,0.024-0.136,0.031-0.205c0.009-0.081,0.035-0.151,0.062-0.23c0.095-0.273,0.167-0.554,0.255-0.83
		c0.168-0.52,0.409-1,0.906-1.296c0.194-0.115,0.372-0.155,0.591-0.208c0.1-0.023,0.148-0.085,0.232-0.141
		c0.044-0.03,0.127-0.042,0.139-0.087c0.012-0.044,0.058-0.052,0.1-0.059c0.039-0.005,0.08-0.01,0.112-0.035
		s0.006-0.068,0.055-0.081c0.041-0.031,0.083,0.023,0.13-0.016c0.035-0.03,0.03-0.077,0.08-0.098
		c0.086-0.036,0.198,0.016,0.272,0.056c0.035,0.019,0.07,0.041,0.1,0.065c0.046,0.036,0.041,0.014,0.1,0.013
		c-0.002,0.049-0.016,0.057,0.035,0.081c0.035,0.018,0.071,0.035,0.108,0.054c0.051,0.023,0.036,0.035,0.034,0.086
		c0.033,0.011,0.065,0.023,0.098,0.038s0.065,0.029,0.099,0.044c-0.004,0.064,0.019,0.05,0.076,0.068
		c0.047,0.014,0.072,0.056,0.122,0.08c0.094,0.042,0.197,0.063,0.295,0.103c0.157,0.064,0.303,0.176,0.427,0.286
		c0.526,0.467,0.639,1.181,0.715,1.828c0,0.084-0.002,0.168-0.004,0.253c-0.001,0.081,0.019,0.152,0.027,0.233
		c0.019,0.167,0.001,0.334,0.016,0.501c0.029,0.334,0.263,0.524,0.529,0.704c0.084,0.057,0.211,0.1,0.256,0.193
		c0.013,0.024,0.017,0.05,0.015,0.077c-0.003,0.05-0.053,0.043-0.098,0.055c-0.109,0.027-0.218,0.055-0.327,0.083
		c-0.156,0.041-0.28,0.159-0.448,0.139c-0.072-0.008-0.153,0.004-0.235,0.022l-0.02,0.245l0.331,0.973
		c0.083,0.277-0.192,0.36-0.192,0.36l-0.332,0.109c0.11,0.141-0.083,0.528-0.083,0.528l-0.085,0.222c-0.111,0-0.029,0.36-0.029,0.36
		c0,0.528-0.775,0.611-0.775,0.611l-0.443,0.333c0.361,0.083,1.359,1.916,1.359,1.916l-0.584,0.138
		c0.305,0.333,1.499,3.247,1.499,3.247c0.473,0.223,0.749,2.721,0.749,2.721c-0.025,0.331-0.025,1.08-0.025,1.08
		c0.58,0.695,0.665,2.802,0.331,3.166l-0.042,0.054C69.598,51.987,69.674,53.304,69.674,53.304z"/>
	<path fill-rule="evenodd" clip-rule="evenodd" d="M44.007,68.221c-0.051,0.115-0.051,0.396-0.051,0.461s-0.192,0.807-0.205,0.923
		c-0.013,0.115-0.064,0.957-0.064,0.957s-0.128,0.145-0.128,0.26c0,0-0.154,1.025-0.115,1.051c0.038,0.025,0.128,0.244,0.128,0.359
		s0,0.627-0.038,0.654c-0.039,0.025,0.025,0.281,0.025,0.281s-0.025,0.922-0.077,0.972c-0.051,0.054-0.218,0.335-0.218,0.335
		l0.115,0.486l0.846-0.473c0,0-0.206-0.104-0.103-0.309c0.103-0.205,0.257-1.051,0.257-1.229c0-0.181-0.051-0.22-0.104-0.259
		c-0.05-0.038-0.256-0.166-0.269-0.319c-0.013-0.154,0.192-0.691,0.256-0.782c0.065-0.09,0.142-0.256,0.142-0.256l0.23-1.153
		c0,0-0.038-0.205,0-0.243s0.295-0.858,0.269-0.948c-0.025-0.09-0.845-1.768-0.845-1.768S44.059,68.105,44.007,68.221z"/>
	<path fill-rule="evenodd" clip-rule="evenodd" d="M18.541,46.245c0.462-0.075,0.494-1.165,0.364-2.842
		c-0.129-1.675-2.206-9.085-2.206-9.085l-0.485-3.047l-0.662,0.105c-0.273-1.69-0.438-2.69-0.438-2.69s-0.836-0.721-2.29-0.493
		c-1.454,0.232-2.025,1.176-2.025,1.176s5.911,38.755,7.476,42.624c0.856,2.118,2.156,4.707,2.266,4.926
		c0.038-0.243,0.477-3.105,0.636-5.386c0.162-2.314-1.73-15.296-3.443-26.375C17.916,45.726,18.25,46.291,18.541,46.245z
		 M17.611,44.361c-0.579-3.736-1.131-7.214-1.569-9.94l0.125-0.02c0,0,2.079,7.411,2.21,9.088c0,0-0.643,0.236-0.757,0.798
		C17.616,44.309,17.614,44.335,17.611,44.361z"/>
</g>
</svg>
