<?xml version="1.0" encoding="utf-8"?>
<!-- Generator: Adobe Illustrator 15.0.2, SVG Export Plug-In . SVG Version: 6.00 Build 0)  -->
<!DOCTYPE svg PUBLIC "-//W3C//DTD SVG 1.1//EN" "http://www.w3.org/Graphics/SVG/1.1/DTD/svg11.dtd">
<svg version="1.1" id="Ebene_1" xmlns="http://www.w3.org/2000/svg" xmlns:xlink="http://www.w3.org/1999/xlink" x="0px" y="0px"
	 width="100px" height="100px" viewBox="0 0 100 100" enable-background="new 0 0 100 100" xml:space="preserve">
<circle fill="#B2B2B2" cx="50" cy="50" r="50"/>
<g>
	<path d="M25.954,42.968c0.402-0.065,0.43-1.013,0.316-2.471c-0.112-1.457-1.917-7.898-1.917-7.898l-0.422-2.648l-0.575,0.091
		c-0.238-1.47-0.381-2.339-0.381-2.339s-0.727-0.626-1.99-0.428c-1.264,0.202-1.761,1.022-1.761,1.022s5.139,33.689,6.499,37.052
		c0.744,1.842,1.874,4.092,1.969,4.281c0.033-0.211,0.415-2.699,0.554-4.68c0.141-2.014-1.505-13.299-2.993-22.928
		C25.41,42.516,25.701,43.008,25.954,42.968z M25.146,41.33c-0.503-3.248-0.983-6.271-1.363-8.64l0.107-0.018
		c0,0,1.809,6.441,1.922,7.899c0,0-0.559,0.205-0.658,0.693C25.15,41.285,25.148,41.307,25.146,41.33z"/>
	<path d="M34.227,19.055v2.553H32.37c0,0-0.154,0-0.154,0.194s0.154,0.194,0.154,0.194h1.856v0.308H32.37c0,0-0.154,0-0.154,0.194
		c0,0.193,0.154,0.193,0.154,0.193h1.856v2.012H32.37c0,0-0.154,0-0.154,0.194c0,0.193,0.154,0.193,0.154,0.193h1.856v0.309H32.37
		c0,0-0.154,0-0.154,0.193c0,0.193,0.154,0.193,0.154,0.193h1.856v2.012H32.37c0,0-0.154,0-0.154,0.194
		c0,0.192,0.154,0.192,0.154,0.192h1.856v0.31H32.37c0,0-0.154,0-0.154,0.193s0.154,0.193,0.154,0.193h1.856v2.012H32.37
		c0,0-0.154,0-0.154,0.193s0.154,0.193,0.154,0.193h1.856v0.31H32.37c0,0-0.154,0-0.154,0.193s0.154,0.193,0.154,0.193h1.856v2.012
		H32.37c0,0-0.154,0-0.154,0.192c0,0.194,0.154,0.194,0.154,0.194h1.856v0.31H32.37c0,0-0.154,0-0.154,0.192
		c0,0.194,0.154,0.194,0.154,0.194h1.856v2.012H32.37c0,0-0.154,0-0.154,0.193c0,0.192,0.154,0.192,0.154,0.192h1.856v0.31H32.37
		c0,0-0.154,0-0.154,0.193s0.154,0.193,0.154,0.193h1.856v2.012H32.37c0,0-0.154,0-0.154,0.194c0,0.192,0.154,0.192,0.154,0.192
		h1.856v0.31H32.37c0,0-0.154,0-0.154,0.193s0.154,0.193,0.154,0.193h1.856v2.011H32.37c0,0-0.154,0-0.154,0.194
		c0,0.192,0.154,0.192,0.154,0.192h1.856v0.31H32.37c0,0-0.154,0-0.154,0.194c0,0.193,0.154,0.193,0.154,0.193h1.856v2.011H32.37
		c0,0-0.154,0-0.154,0.194c0,0.193,0.154,0.193,0.154,0.193h1.856v0.309H32.37c0,0-0.154,0-0.154,0.194
		c0,0.193,0.154,0.193,0.154,0.193h1.856v2.011H32.37c0,0-0.154,0-0.154,0.193s0.154,0.193,0.154,0.193h1.856v0.31H32.37
		c0,0-0.154,0-0.154,0.193s0.154,0.193,0.154,0.193h1.856v2.011H32.37c0,0-0.154,0-0.154,0.193s0.154,0.193,0.154,0.193h1.856v0.311
		H32.37c0,0-0.154,0-0.154,0.193s0.154,0.193,0.154,0.193h1.856v2.012H32.37c0,0-0.154,0-0.154,0.191
		c0,0.195,0.154,0.195,0.154,0.195h1.856v0.309H32.37c0,0-0.154,0-0.154,0.193s0.154,0.193,0.154,0.193h1.856v2.012H32.37
		c0,0-0.154,0-0.154,0.193s0.154,0.193,0.154,0.193h1.856v0.309H32.37c0,0-0.154,0-0.154,0.193c0,0.195,0.154,0.195,0.154,0.195
		h1.856v2.012H32.37c0,0-0.154,0-0.154,0.191c0,0.195,0.154,0.195,0.154,0.195h1.856v0.309H32.37c0,0-0.154,0-0.154,0.193
		s0.154,0.193,0.154,0.193h1.856v2.01H32.37c0,0-0.154,0-0.154,0.195c0,0.193,0.154,0.193,0.154,0.193h1.856v0.309H32.37
		c0,0-0.154,0-0.154,0.193s0.154,0.193,0.154,0.193h1.856v2.012H32.37c0,0-0.154,0-0.154,0.193s0.154,0.193,0.154,0.193h1.856v0.309
		H32.37c0,0-0.154,0-0.154,0.193c0,0.195,0.154,0.195,0.154,0.195h1.856v2.01H32.37c0,0-0.154,0-0.154,0.195
		c0,0.191,0.154,0.191,0.154,0.191h1.856v0.311H32.37c0,0-0.154,0-0.154,0.193s0.154,0.193,0.154,0.193h1.856v2.012H32.37
		c0,0-0.154,0-0.154,0.191c0,0.195,0.154,0.195,0.154,0.195h1.856v0.309H32.37c0,0-0.154,0-0.154,0.193s0.154,0.193,0.154,0.193
		h1.856v2.012H32.37c0,0-0.154,0-0.154,0.193s0.154,0.193,0.154,0.193h1.856v0.311H32.37c0,0-0.154,0-0.154,0.191
		c0,0.193,0.154,0.193,0.154,0.193h1.856v2.555h42.549v-61.89H34.227z M36.548,78.625h-1.547v-0.234h0.386c0,0,0.155,0,0.155-0.193
		c0-0.191-0.155-0.191-0.155-0.191h-0.386v-0.311h0.386c0,0,0.155,0,0.155-0.193s-0.155-0.193-0.155-0.193h-0.386v-0.232h1.547
		V78.625z M36.548,75.529h-1.547v-0.232h0.386c0,0,0.155,0,0.155-0.193s-0.155-0.193-0.155-0.193h-0.386v-0.309h0.386
		c0,0,0.155,0,0.155-0.195c0-0.191-0.155-0.191-0.155-0.191h-0.386v-0.232h1.547V75.529z M36.548,72.436h-1.547v-0.232h0.386
		c0,0,0.155,0,0.155-0.193s-0.155-0.193-0.155-0.193h-0.386v-0.311h0.386c0,0,0.155,0,0.155-0.191c0-0.195-0.155-0.195-0.155-0.195
		h-0.386v-0.23h1.547V72.436z M36.548,69.342h-1.547v-0.232h0.386c0,0,0.155,0,0.155-0.195c0-0.193-0.155-0.193-0.155-0.193h-0.386
		v-0.309h0.386c0,0,0.155,0,0.155-0.193s-0.155-0.193-0.155-0.193h-0.386v-0.232h1.547V69.342z M36.548,66.246h-1.547v-0.232h0.386
		c0,0,0.155,0,0.155-0.193s-0.155-0.193-0.155-0.193h-0.386v-0.309h0.386c0,0,0.155,0,0.155-0.193c0-0.195-0.155-0.195-0.155-0.195
		h-0.386v-0.23h1.547V66.246z M36.548,63.152h-1.547V62.92h0.386c0,0,0.155,0,0.155-0.193s-0.155-0.193-0.155-0.193h-0.386v-0.309
		h0.386c0,0,0.155,0,0.155-0.195c0-0.191-0.155-0.191-0.155-0.191h-0.386v-0.232h1.547V63.152z M36.548,60.057h-1.547v-0.23h0.386
		c0,0,0.155,0,0.155-0.195c0-0.193-0.155-0.193-0.155-0.193h-0.386v-0.309h0.386c0,0,0.155,0,0.155-0.193s-0.155-0.193-0.155-0.193
		h-0.386V58.51h1.547V60.057z M36.548,56.963h-1.547V56.73h0.386c0,0,0.155,0,0.155-0.193s-0.155-0.193-0.155-0.193h-0.386v-0.309
		h0.386c0,0,0.155,0,0.155-0.195c0-0.191-0.155-0.191-0.155-0.191h-0.386v-0.232h1.547V56.963z M36.548,53.869h-1.547v-0.232h0.386
		c0,0,0.155,0,0.155-0.193s-0.155-0.193-0.155-0.193h-0.386v-0.311h0.386c0,0,0.155,0,0.155-0.193s-0.155-0.193-0.155-0.193h-0.386
		V52.32h1.547V53.869z M36.548,50.774h-1.547v-0.232h0.386c0,0,0.155,0,0.155-0.193s-0.155-0.193-0.155-0.193h-0.386v-0.31h0.386
		c0,0,0.155,0,0.155-0.193s-0.155-0.193-0.155-0.193h-0.386v-0.232h1.547V50.774z M36.548,47.679h-1.547v-0.231h0.386
		c0,0,0.155,0,0.155-0.193c0-0.194-0.155-0.194-0.155-0.194h-0.386v-0.309h0.386c0,0,0.155,0,0.155-0.193
		c0-0.194-0.155-0.194-0.155-0.194h-0.386v-0.231h1.547V47.679z M36.548,44.585h-1.547v-0.232h0.386c0,0,0.155,0,0.155-0.193
		c0-0.194-0.155-0.194-0.155-0.194h-0.386v-0.31h0.386c0,0,0.155,0,0.155-0.192c0-0.194-0.155-0.194-0.155-0.194h-0.386v-0.231
		h1.547V44.585z M36.548,41.491h-1.547v-0.232h0.386c0,0,0.155,0,0.155-0.193s-0.155-0.193-0.155-0.193h-0.386v-0.31h0.386
		c0,0,0.155,0,0.155-0.192c0-0.194-0.155-0.194-0.155-0.194h-0.386v-0.231h1.547V41.491z M36.548,38.396h-1.547v-0.232h0.386
		c0,0,0.155,0,0.155-0.193s-0.155-0.193-0.155-0.193h-0.386v-0.31h0.386c0,0,0.155,0,0.155-0.192c0-0.193-0.155-0.193-0.155-0.193
		h-0.386v-0.232h1.547V38.396z M36.548,35.301h-1.547V35.07h0.386c0,0,0.155,0,0.155-0.194c0-0.192-0.155-0.192-0.155-0.192h-0.386
		v-0.31h0.386c0,0,0.155,0,0.155-0.194c0-0.192-0.155-0.192-0.155-0.192h-0.386v-0.232h1.547V35.301z M36.548,32.207h-1.547v-0.231
		h0.386c0,0,0.155,0,0.155-0.193s-0.155-0.193-0.155-0.193h-0.386v-0.31h0.386c0,0,0.155,0,0.155-0.193s-0.155-0.193-0.155-0.193
		h-0.386V30.66h1.547V32.207z M36.548,29.113h-1.547V28.88h0.386c0,0,0.155,0,0.155-0.193s-0.155-0.193-0.155-0.193h-0.386v-0.31
		h0.386c0,0,0.155,0,0.155-0.192c0-0.194-0.155-0.194-0.155-0.194h-0.386v-0.232h1.547V29.113z M36.548,26.018h-1.547v-0.232h0.386
		c0,0,0.155,0,0.155-0.193c0-0.193-0.155-0.193-0.155-0.193h-0.386V25.09h0.386c0,0,0.155,0,0.155-0.193
		c0-0.194-0.155-0.194-0.155-0.194h-0.386v-0.232h1.547V26.018z M36.548,22.924h-1.547v-0.232h0.386c0,0,0.155,0,0.155-0.193
		c0-0.194-0.155-0.194-0.155-0.194h-0.386v-0.308h0.386c0,0,0.155,0,0.155-0.194s-0.155-0.194-0.155-0.194h-0.386v-0.231h1.547
		V22.924z"/>
</g>
</svg>
