<?xml version="1.0" encoding="utf-8"?>
<!-- Generator: Adobe Illustrator 15.0.2, SVG Export Plug-In . SVG Version: 6.00 Build 0)  -->
<!DOCTYPE svg PUBLIC "-//W3C//DTD SVG 1.1//EN" "http://www.w3.org/Graphics/SVG/1.1/DTD/svg11.dtd">
<svg version="1.1" id="Ebene_1" xmlns="http://www.w3.org/2000/svg" xmlns:xlink="http://www.w3.org/1999/xlink" x="0px" y="0px"
	 width="100px" height="100px" viewBox="0 0 100 100" enable-background="new 0 0 100 100" xml:space="preserve">
<circle fill="#B2B2B2" cx="50" cy="50" r="50"/>
<path fill-rule="evenodd" clip-rule="evenodd" fill="#231F20" d="M80.865,26.533c-0.042,0.001-0.083,0.004-0.116,0.008
	c-0.035-0.196-0.145-0.286-0.289-0.364c-0.182-0.097-0.768-0.414-0.971-0.528c-0.128-0.072-0.212-0.041-0.257,0.038
	c-0.112-0.052-0.187-0.022-0.229,0.051c-0.111-0.053-0.186-0.023-0.228,0.052c-0.112-0.053-0.188-0.022-0.229,0.051
	c-0.112-0.053-0.188-0.023-0.229,0.052c-0.113-0.053-0.187-0.022-0.228,0.051c-0.114-0.053-0.188-0.023-0.229,0.051
	c-0.112-0.052-0.187-0.022-0.229,0.051c-0.112-0.053-0.188-0.021-0.228,0.052c-0.113-0.053-0.188-0.022-0.229,0.051
	c-0.112-0.053-0.187-0.021-0.229,0.052c-0.111-0.053-0.189-0.022-0.23,0.051c-0.111-0.053-0.186-0.022-0.228,0.05
	c-0.112-0.052-0.186-0.021-0.228,0.051c-0.113-0.051-0.188-0.021-0.229,0.053c-0.112-0.054-0.187-0.024-0.228,0.05
	c-0.186-0.086-0.268,0.052-0.268,0.235c0,0.095,0.001,0.292,0.001,0.468c-0.028,0.01-0.062,0.03-0.058,0.071
	c0.007,0.08,0.007,0.16,0.007,0.16l-0.093,0.03c-0.013-0.007-0.024-0.016-0.034-0.023c-0.077-0.061-0.208-0.114-0.344-0.074
	c-0.017,0.006-0.067,0.018-0.144,0.035c-0.041-0.035-0.131-0.047-0.131-0.047s0.051,0,0.045-0.084
	c-0.005-0.085-0.114-0.085-0.228-0.081c-0.112,0.006-0.09,0.205-0.124,0.222c-0.022,0.011-0.036,0.066-0.046,0.103l-0.139,0.031
	c-0.045-0.029-0.116-0.039-0.116-0.039s0.052,0,0.045-0.084c-0.005-0.086-0.114-0.086-0.227-0.079
	c-0.113,0.005-0.091,0.205-0.125,0.221c-0.021,0.009-0.033,0.05-0.04,0.086l-0.119,0.027c-0.045-0.03-0.119-0.04-0.119-0.04
	s0.05,0,0.045-0.085c-0.005-0.085-0.113-0.085-0.227-0.08c-0.113,0.006-0.091,0.205-0.124,0.221c-0.02,0.01-0.034,0.054-0.042,0.088
	l-0.126,0.028c-0.04-0.032-0.123-0.042-0.123-0.042s0.052,0,0.046-0.085c-0.005-0.085-0.113-0.085-0.227-0.079
	c-0.114,0.005-0.09,0.205-0.125,0.221c-0.021,0.011-0.034,0.055-0.042,0.091l-0.1,0.022c-0.074-0.043-0.15-0.061-0.225-0.042
	c-0.008,0.002-0.018,0.004-0.024,0.007l-0.069,0.021c-0.032,0.008-0.064,0.023-0.091,0.043c-0.026-0.001-0.051,0-0.077,0.008
	c-0.009,0.002-0.018,0.004-0.025,0.006l-0.068,0.022l-0.016,0.004c-0.067-0.03-0.139-0.038-0.207-0.021
	c-0.011,0.002-0.021,0.006-0.03,0.009l-0.078,0.024c-0.1,0.025-0.18,0.099-0.23,0.206c-0.094-0.063-0.193-0.089-0.29-0.064
	c-0.01,0.001-0.02,0.004-0.03,0.008l-0.08,0.025c-0.183,0.045-0.296,0.26-0.301,0.53c-0.102,0.028-0.202,0.056-0.22,0.062
	c-0.037,0.012-0.098,0.039-0.134,0.009c-0.038-0.029-0.486-0.514-0.555-0.583c-0.067-0.067-0.157-0.166-0.249-0.148
	c-0.076,0.014-0.323,0.061-0.403,0.077c-0.008,0.002-0.016,0.003-0.025,0.006c-0.232,0.058-0.342,0.462-0.288,0.973
	c-4.615,0.009-12.48,0.028-12.74,0.036c-0.367,0.01-0.74,0.039-1.298,0.268c-0.458,0.187-0.805,0.475-0.913,0.572
	c-0.324-0.385-0.654-0.771-0.99-1.158c-7.733-8.897-16.007-14.479-17.996-12.75c-0.012,0.011-0.024,0.022-0.036,0.034l-0.964,0.875
	c-1.834,1.596,2.272,8.873,8.994,16.976c-0.143,0.068-0.254,0.118-0.285,0.131c-0.109,0.045-0.171,0.068-0.232,0.199
	c-0.024,0.054-0.503,0.901-1.078,1.907c-0.018-0.019-0.048-0.021-0.069-0.004l-0.072-0.078c-0.015-0.015-0.04-0.017-0.055-0.002
	l-0.261,0.244c-0.016,0.015-0.016,0.04-0.002,0.054l0.072,0.078l-0.035,0.032c-0.021,0.021-0.022,0.052-0.002,0.073l0.104,0.111
	c0.007,0.01,0.017,0.015,0.028,0.017c-0.798,1.407-1.652,2.909-1.668,2.943c-0.031,0.061-0.062,0.177,0.023,0.232
	c0.085,0.053,1.221,0.766,1.267,0.803c0.047,0.036,0.101,0.092,0.163,0.092h0.1c0.023,0.019,0.049,0.038,0.077,0.053
	c0.077,0.046,0.183,0.131,0.22,0.274c-0.261-0.01-0.486-0.018-0.528-0.018c-0.108,0-0.177,0-0.177,0.156
	c0,0.155,0.078,3.717,0.083,3.886c0.007,0.171,0.147,0.226,0.25,0.218c0.072-0.006,0.486,0,0.708,0.005l0.271,8.034l-0.844,1.512
	c0,0-0.139-0.012-0.357,0.459c-0.217,0.471-0.486,1.104-0.582,1.209c-0.094,0.104-0.231,0.531-0.255,0.65
	c-0.025,0.121-7.656,15.207-7.737,15.348c-0.083,0.143-0.115-0.035-0.338,0.406c-0.225,0.443-0.671,1.426-0.715,1.516
	c-0.043,0.088-0.094,0.148-0.05,0.344c0.013,0.059,0.039,0.104,0.068,0.139c-0.331,0.121-1.344,0.486-1.406,0.51
	c-0.073,0.027-0.125,0.092-0.125,0.191v0.512c0,0-0.437,0.199-0.539,0.256c-0.102,0.057-0.136,0.199-0.062,0.271
	c0.073,0.074,0.658,0.199,0.732,0.205c0.073,0.006,0.147-0.016,0.21,0c0.023,0.006,1.435,0.367,3.21,0.816l-1.64,4.391
	c0,0-0.23,0-0.397,0.402c-0.166,0.404-0.64,1.488-0.692,1.602c-0.037,0.072-0.05,0.242-0.057,0.348
	c-0.761,0.393-1.244,0.641-1.253,0.645c-0.052,0.023-0.138,0.08-0.138,0.154s0.024,1.1,0.024,1.219s-0.211,0.277-0.273,0.342
	c-0.062,0.061-0.528,0.312-0.573,0.334c-0.046,0.023-0.051,0.182-0.051,0.238s0.04,0.137,0.136,0.172
	c0.096,0.033,1.487,0.557,1.578,0.59c0.09,0.033,0.295,0.113,0.347,0.113h0.397c0.078,0,0.142-0.023,0.205-0.053
	c0.062-0.027,0.579-0.299,0.794-0.408c0.216-0.107,0.261-0.289,0.312-0.328c0.05-0.041,12.195-6.852,12.291-6.91
	c0.097-0.055,0.187-0.055,0.244-0.039c0.056,0.018,15.186,3.719,15.281,3.754c0.098,0.033,0.653,0.174,0.756,0.174
	c0.102,0,0.619,0.006,0.687,0.006c0.068,0,0.204-0.016,0.255-0.061c0.052-0.047,0.977-0.801,1.033-0.854
	c0.058-0.051,0.052-0.146,0.029-0.186c-0.023-0.039-0.113-0.205-0.137-0.25c-0.022-0.045-0.098-0.092-0.147-0.096
	c-0.052-0.006-0.613-0.062-0.663-0.062c-0.052,0-0.115-0.053-0.115-0.098c0-0.047-0.056-1.111-0.056-1.17
	c0-0.057-0.012-0.119-0.052-0.123c-0.039-0.008-0.197-0.029-0.272-0.047c-0.073-0.016-0.119,0.006-0.119,0.006l-1.051-0.236
	c-0.005-0.059-0.012-0.121-0.028-0.145c-0.033-0.051-0.079-0.107-0.079-0.107s0.098-0.143-0.034-0.363
	c-0.129-0.221-1.333-2.244-1.407-2.332c-0.073-0.092-0.522-0.734-0.652-0.949c-0.131-0.217-10.65-19.32-10.685-19.383
	c-0.033-0.061-0.022-0.34-0.106-0.486c-0.056-0.098-0.463-0.818-0.753-1.334l0.027-0.043c0.855-1.379,2.321-3.166,4.004-3.412
	c2.492-0.361,7.759-0.131,9.486-2.178c0.235-0.281,0.492-0.591,0.761-0.918c0.131-0.056,0.228-0.104,0.29-0.136
	c0.114-0.063,0.224-0.165,0.326-0.29c0.564,0.077,1.015-0.011,1.322-0.278c0.014-0.012,0.024-0.022,0.036-0.033l0.963-0.876
	c0.455-0.394,0.57-1.148,0.385-2.182l0.395-0.732c0.115-0.104,0.202-0.174,0.247-0.196c0.345-0.171,0.537-0.704,0.624-0.966
	c0.021-0.062,0.112-0.24,0.247-0.492c0.132-0.25,0.302-0.562,0.476-0.882c0.346-0.64,0.706-1.323,0.8-1.603
	c0.176-0.542,1.63-3.234,1.805-3.453c0.085-0.107,0.453-0.886,0.828-1.702l1.335-2.471l0.153,0.102
	c0.144,0.096,0.286-0.118,0.144-0.215l-0.174-0.115l0.043-0.077c0.271-0.193,0.665-0.382,0.921-0.488
	c0.719-0.296,2.258-0.172,2.729-0.102c0.476,0.071,1.123,0.094,1.549,0.083c0.21-0.006,1.128-0.054,2.06-0.091
	c0.936-0.037,1.873-0.06,2.134-0.016c0.264,0.044,0.441,0.071,0.526,0.062c0.201-0.018,0.076-0.171-0.007-0.236
	c-0.048-0.039-0.298-0.19-0.647-0.399c1.816-0.681,3.323-3.472,1.753-5.048C81.245,26.613,81.153,26.521,80.865,26.533z
	 M32.107,75.027c0.117-0.279,0.503-1.205,0.573-1.361c0.082-0.184,0.053-0.422,0.131-0.578l6.916-13.518L33.813,75.43L32.107,75.027
	z M32.141,83.447c0.12-0.371,0.594-1.816,0.731-2.15c0.121-0.295,0.883-2.359,1.227-3.287l5.754,1.467
	C38.586,80.127,34.888,82.033,32.141,83.447z M42.323,74.799c-0.068,0.137-1.187,1.824-1.238,1.904
	c-0.051,0.078-0.067,0.135-0.074,0.215c-0.003,0.041,0,0.135,0.003,0.213l-6.06-1.432c1.726-4.656,6.105-16.463,6.147-16.559
	c0.053-0.119,0.031-0.295,0.144-0.516c0.083-0.166,0.444-1.039,0.629-1.488l0.591,17.568C42.408,74.719,42.351,74.744,42.323,74.799
	z M71.314,31.373c0.059,0.015,0.13,0.01,0.187-0.062c0.117-0.149,0.284-0.47,0.284-0.47s0.062,0.044,0.104-0.037
	c0.042-0.084,0.153-0.309,0.182-0.346c0.03-0.039,0.406-0.423,0.506-0.583c0.101-0.159,0.072-0.345,0.083-0.414
	c0.011-0.07,0.003-0.295,0.003-0.295s0.098,0.021,0.102-0.066c0.002-0.036,0.005-0.094,0.009-0.15l0.591-0.172
	c0,0,0.773,0.469,0.848,0.517c0.072,0.046,0.188,0.059,0.283,0.053l0.047-0.005v0.331c0,0.096-0.038,0.198,0.064,0.252
	c0.104,0.054,0.79,0.455,0.92,0.532c0.132,0.075,0.194,0.081,0.268,0.053c0.069-0.029,0.709-0.257,0.738-0.272
	c0.011-0.006,0.019-0.017,0.024-0.03l0.292,0.168c0.028,0.018,0.056,0.02,0.077,0.01c0.353,0.204,0.814,0.475,1.283,0.747
	c0.406,0.24,0.816,0.482,1.164,0.686c-2.461,0.743-4.515-0.998-6.744-0.145c-0.391,0.149-0.789,0.225-1.216,0.402
	c-0.219,0.09-0.442,0.207-0.678,0.37L71.314,31.373z M55.076,30.105c0.358-0.208,0.64-0.297,1.057-0.287
	c0.307,0.007,8.477-0.057,12.783-0.09L55.67,32.207c-0.422-0.536-0.855-1.075-1.303-1.616
	C54.559,30.447,54.854,30.235,55.076,30.105z M56.798,78.461c0.121,0.238,0.386,1.113,0.573,1.369c0,0-0.045,0.113,0.103,0.477
	c0.103,0.252,0.205,0.453,0.258,0.553L47.66,78.602l7.084-3.924C54.967,75.086,56.688,78.238,56.798,78.461z M52.669,73.033
	l-6.399,3.271c-0.199-0.273-1.154-1.576-1.194-1.652c-0.046-0.086-0.148-0.385-0.239-0.398c-0.005,0-0.017,0-0.034,0.004
	l-0.528-17.373c0.138,0.227,0.388,0.639,0.426,0.709c0.051,0.096,0.159,0.137,0.159,0.137s0.029,0.238,0.085,0.305
	C44.999,58.102,52.061,71.844,52.669,73.033z M59.313,50.469c-1.684,1.998-6.965,1.781-9.406,2.135
	c-1.721,0.25-3.206,2.043-4.083,3.453c-0.114-0.203-0.199-0.355-0.22-0.393c-0.01-0.02-0.021-0.035-0.03-0.051
	c0.174-0.426,0.437-0.936,0.833-1.504c1.277-1.838,4.377-2.562,6.622-2.585c1.913-0.019,5.468-1.208,6.891-1.784
	C59.707,49.999,59.503,50.244,59.313,50.469z M60.093,49.529c-1.21,0.518-5.062,1.847-7.064,1.868
	c-2.25,0.023-5.411,0.744-6.727,2.639c-0.39,0.561-0.655,1.066-0.832,1.492c-0.008,0-0.013,0-0.013,0l-1.292-2.285l-0.242-7.986
	c0.286,0.002,0.662,0.002,0.734-0.007c0.116-0.016,0.164-0.069,0.164-0.188c0-0.115-0.071-3.648-0.071-3.802s-0.086-0.17-0.201-0.17
	h-0.581c0.036-0.144,0.117-0.395,0.248-0.432c0.186-0.053,0.255-0.046,0.309-0.155c0.027-0.054,0.101-0.213,0.169-0.36
	c0.485-0.091,1.375-0.261,1.572-0.305c0.271-0.062,0.292-0.147,0.462-0.301c0.155-0.14,0.502-0.506,0.563-0.571
	c5.332,5.637,10.362,9.52,13.122,10.173C60.304,49.27,60.198,49.4,60.093,49.529z M60.399,49.386
	c-0.013,0.006-0.024,0.013-0.04,0.021l0.194-0.238c0.028,0.007,0.057,0.011,0.085,0.018C60.562,49.271,60.481,49.339,60.399,49.386z
	 M66.159,40.927c-0.087,0.266-0.44,0.937-0.79,1.582c-0.172,0.322-0.342,0.634-0.476,0.883c-0.131,0.248-0.229,0.439-0.255,0.513
	c-0.092,0.277-0.272,0.748-0.56,0.892c-0.008,0.004-0.018,0.009-0.03,0.017l2.128-3.934C66.17,40.896,66.165,40.913,66.159,40.927z
	 M69.85,32.763l-0.045-0.029c-0.143-0.095-0.286,0.118-0.143,0.214l0.062,0.042l-6.521,11.699C62.274,41.77,59.694,37.388,56,32.63
	l13.189-2.37c0.163,0.242,0.35,0.376,0.51,0.336c0,0,0.223-0.045,0.322-0.113s0.194-0.256,0.19-0.337
	c-0.003-0.082,0.085-0.062,0.258-0.058c0.172,0.004,0.422-0.14,0.57-0.242l0.009-0.007c0.026,0.102,0.056,0.261,0.021,0.373
	c-0.055,0.177-0.226,0.464-0.292,0.572c-0.064,0.106-0.052,0.182,0.005,0.255c0.005,0.006,0.011,0.013,0.017,0.021L69.85,32.763z
	 M80.249,32.35l0.009,0.009c-0.085-0.006-0.227-0.029-0.429-0.063c-0.275-0.046-1.23-0.022-2.159,0.015
	c-0.93,0.036-1.848,0.085-2.06,0.091c-0.418,0.011-1.056-0.012-1.523-0.081c-0.468-0.071-2.041-0.202-2.799,0.11
	c-0.32,0.132-0.568,0.264-0.745,0.374l0.046-0.085c0.309-0.252,0.597-0.41,0.871-0.524c0.429-0.177,0.826-0.251,1.216-0.401
	c2.213-0.846,4.301,0.954,6.845,0.113C79.916,32.141,80.201,32.314,80.249,32.35z M79.616,31.737
	c-0.027,0.01-0.053,0.021-0.081,0.028c-0.366-0.218-0.818-0.483-1.262-0.743c-0.468-0.274-0.93-0.542-1.28-0.747
	c-0.004-0.026-0.019-0.047-0.05-0.064l-0.358-0.21c0.002-0.176,0.01-0.531,0.009-0.583c0-0.068,0.001-0.16-0.056-0.198
	c-0.039-0.028-0.233-0.156-0.407-0.274c0.156,0.039,0.283,0.069,0.31,0.069c0.073,0,0.119,0,0.119-0.136
	c0-0.027,0.005-0.049,0.011-0.066l0.045,0.021c0.184,0.083,0.366,0.156,0.441,0.03c0.101,0.029,0.185,0.024,0.23-0.049
	c0.099,0.025,0.184,0.021,0.228-0.053c0.099,0.028,0.184,0.022,0.229-0.051c0.099,0.027,0.183,0.022,0.229-0.052
	c0.1,0.028,0.184,0.024,0.228-0.05c0.101,0.025,0.184,0.022,0.229-0.052c0.1,0.026,0.185,0.022,0.229-0.052
	c0.098,0.026,0.184,0.022,0.227-0.051c0.101,0.025,0.185,0.024,0.231-0.053c0.1,0.028,0.184,0.025,0.228-0.051
	c0.1,0.026,0.184,0.025,0.228-0.05c0.101,0.027,0.184,0.023,0.229-0.051c0.1,0.026,0.184,0.024,0.228-0.052
	c0.1,0.027,0.184,0.024,0.229-0.051c0.099,0.026,0.183,0.023,0.229-0.051c0.148,0.041,0.264,0.011,0.264-0.224
	c0-0.341,0.005-0.842,0.012-1.159c0-0.015,0-0.03,0-0.044c0.276-0.042,0.363,0.006,0.582,0.227
	C82.849,28.406,81.35,31.102,79.616,31.737z"/>
</svg>
