<?xml version="1.0" encoding="utf-8"?>
<!-- Generator: Adobe Illustrator 15.0.2, SVG Export Plug-In . SVG Version: 6.00 Build 0)  -->
<!DOCTYPE svg PUBLIC "-//W3C//DTD SVG 1.1//EN" "http://www.w3.org/Graphics/SVG/1.1/DTD/svg11.dtd">
<svg version="1.1" id="Ebene_1" xmlns="http://www.w3.org/2000/svg" xmlns:xlink="http://www.w3.org/1999/xlink" x="0px" y="0px"
	 width="100px" height="100px" viewBox="0 0 100 100" enable-background="new 0 0 100 100" xml:space="preserve">
<circle fill="#B2B2B2" cx="50" cy="50" r="50"/>
<path stroke="#000000" stroke-width="0.2992" d="M72.411,51.103c0-0.743-0.477-1.368-1.139-1.604v-0.218
	c0-1.309-1.546-1.709-1.546-1.709H44.779h-3.548l1.024-0.968c0-5.351,0.252-21.044,0.323-26.334h0.492v-1.69
	c0-1.988-2.442-2.442-2.442-2.442s-1.495,0-3.403,0c-0.076-0.443-0.459-0.781-0.924-0.781h-1.708c-0.465,0-0.849,0.338-0.924,0.781
	c-1.773,0-3.379,0-4.081,0c-1.97,0-2,2.708-2,2.708v1.425h0.488l0.65,28.014c0.419,4.822,1.509,4.208,7.871,11.076
	c5.929,6.399,1.205,17.986,0,25.282l2.391,0.001h22.83l-1.417-15.831c9.959-1.822,9.324-11.503,9.324-11.503l1.546-2.704v-1.898
	C71.935,52.471,72.411,51.846,72.411,51.103z"/>
</svg>
