<?xml version="1.0" encoding="utf-8"?>
<!-- Generator: Adobe Illustrator 15.0.2, SVG Export Plug-In . SVG Version: 6.00 Build 0)  -->
<!DOCTYPE svg PUBLIC "-//W3C//DTD SVG 1.1//EN" "http://www.w3.org/Graphics/SVG/1.1/DTD/svg11.dtd">
<svg version="1.1" id="Ebene_1" xmlns="http://www.w3.org/2000/svg" xmlns:xlink="http://www.w3.org/1999/xlink" x="0px" y="0px"
	 width="100px" height="100px" viewBox="0 0 100 100" enable-background="new 0 0 100 100" xml:space="preserve">
<circle fill="#B2B2B2" cx="50" cy="50" r="50"/>
<path stroke="#000000" stroke-width="0.2992" d="M78.03,51.28c0.073-0.079,0.083-0.15,0.029-0.214
	c-0.189,0.01-0.33,0.183-0.489-0.041c-0.107-0.148-0.192-0.316-0.391-0.344c-0.756-0.108-0.671,0.021-1.039-0.577
	c-0.068-0.108-0.017-0.546-0.07-0.588c-0.145-0.11-0.479,0.02-0.653-0.018c-0.263-0.057-0.305-0.421-0.212-0.63
	c0.091-0.202,0.257-0.052,0.348-0.149c0.031-0.033-0.172-0.234-0.228-0.233c-0.353,0.008-0.644,0.392-0.999,0.353
	c-0.565-0.061,0.958-0.812,0.895-0.694c0.146-0.269,0.079-0.505,0.379-0.706c0.234-0.157,0.847-0.355,0.86-0.705
	c0.019-0.476-1.884-0.3-1.471-0.887c0.228-0.324-0.305-0.523-0.534-0.562c-0.322-0.054-0.389,0.039-0.585,0.293
	c-0.243,0.316-0.489,0.633-0.82,0.862c-0.243,0.168-0.618,0.237-0.824,0.448c-0.21,0.214-0.975,1.108-1.076,0.47
	c-0.043-0.273-0.128-0.945-0.431-1.073c-0.08-0.034-0.686,0.579-0.732,0.369c-0.106-0.471,0.771-0.944,0.741-1.438
	c-0.019-0.307-0.86,0.071-0.832-0.138c0.02-0.142,0.153-0.288,0.209-0.417c0.099-0.228-0.034-0.437,0.037-0.644
	c0.127-0.364,1.068-0.27,1.111-0.767c0.04-0.46,0.655-0.375,0.341-0.993c-0.504-0.99-0.019-0.386,0.381-0.988
	c0.317-0.477-0.496-0.717-0.509-1.009c-0.021-0.469,1.19-0.106,0.923-0.777c-0.389-0.974-2.21,0.552-2.726,0.591
	c-0.144,0.011,0.271-0.772,0.302-0.844c0.268-0.633,0.431-1.058,1.267-0.829c0.749,0.205,0.943-2.221-0.307-0.97
	c-0.262,0.265-1.027,0.05-0.796-0.39c0.072-0.136,0.805-1.327,0.771-1.326c-0.354,0.008-0.477,0.553-0.719,0.697
	c0.104-0.062-0.699-0.524-0.719-0.54c-0.388-0.315,0.506-0.421,0.591-0.453c0.461-0.175,0.693-0.874,1.026-1.207
	c0.652-0.65-0.961,0.007-0.869-0.46c0.056-0.271,0.146-0.508,0.254-0.762c0.045-0.107,0.522-1.089,0.13-0.861
	c-0.376,0.219-0.22,0.089-0.448-0.126c-0.209-0.198-0.883,0.519-1.044,0.642c-0.188,0.143-0.644,0.626-0.885,0.648
	c-0.227,0.021-0.747-0.608-0.704,0.069c0.026,0.413,0.179,0.802,0.246,1.208c0.025,0.155-0.862-0.039-1.006,0.007
	c-0.59,0.187-0.676,0.22-1.295,0.094c-0.315-0.062-1.515,0.102-1.664-0.048c-0.258-0.257,1.166-0.901,0-0.951
	c-1.215-0.052-0.412-0.336,0.265-0.5c0.224-0.054,0.135-1.283,0.02-1.401c-0.307-0.313-1.737,0.929-1.628-0.027
	c0.112-0.982,0.964-0.542,1.383-1.016c0.039-0.043,0.188-0.475,0.251-0.449c0.367,0.15,0.248,0.397,0.712,0.306
	c0.326-0.065-0.203-1.803-0.282-1.984c-0.173-0.399-1.101-0.213-1.066-0.047c-0.054-0.258,0.062-0.587,0.281-0.74
	c0.238-0.166,0.418,0.066,0.646,0.132c0.22,0.064,0.897,0.287,1.078,0.1c0.148-0.155-0.067-0.478,0.107-0.681
	c0.541-0.623-0.651-0.743-0.995-0.917c-0.095-0.048-0.272-1.525-0.278-1.667c-0.025-0.561,0.959,0.597,1.057,0.685
	c0.172,0.153,0.398-0.585,0.558-0.841c0.068-0.11,0.469-0.908,0.176-0.956c-0.296-0.049-0.736,0.323-0.976,0.451
	c-0.732,0.391-0.999,0.053-1.259-0.65c0.057,0.152,0.721-0.072,0.799-0.141c0.404-0.357,0.531,0.193,0.817,0.052
	c0.336-0.168,0.137-0.542,0.602-0.337c0.178,0.079,0.993,0.587,1.092,0.498c0.285-0.256-0.511-1.183-0.673-1.284
	c-0.62-0.39,0.678-0.761,0.553-1.172c-0.04-0.133-1.035,0.122-1.237-0.229c-0.222-0.385,1.62-0.027,1.688-0.061
	c0.301-0.15,0.198-1.089-0.132-1.165c-0.304-0.069-1.65,0.24-1.772-0.049c-0.026-0.061,0.232-0.089,0.237-0.146
	c0.007-0.088-0.499,0.014-0.522-0.167c-0.068-0.545-0.518-0.494-0.931-0.357c-0.912,0.303-0.4-1.479-0.997-1.145
	c-0.239,0.134-1.421,0.472-0.724-0.016c0.273-0.191,2.168-0.7,2.153-0.716c-0.214-0.252-1.661-0.527-1.269-1.102
	c0.369-0.541,1.527-0.381,0.958-1.258c-0.075-0.116-0.521,0.385-0.607,0.429c-0.342,0.169-0.606-0.21-1.029-0.021
	c-0.788,0.353-0.86-0.981-1.32,0.173c-0.099,0.246-0.135,0.362-0.331,0.211c-0.186-0.142-0.326,0.652-0.648,0.53
	c-0.199-0.076-0.684-0.561-0.629-0.79c0.075-0.317,0.76-0.443,1.025-0.514c0.752-0.199-0.421-1.012-0.247-1.364
	c0.211-0.43,1.821,0.153,1.815,0.074c-0.025-0.348,0.109-0.616,0.155-0.953c0.057-0.422-0.572-0.179-0.784-0.158
	c-0.465,0.045-0.271-0.666-0.377-0.871c-0.06-0.116-0.2-0.107-0.287-0.185c-0.131-0.117,0.049-0.292,0.038-0.423
	c-0.017-0.192-0.553-0.035-0.656-0.035c-0.469,0.003-0.271-0.427-0.301-0.734c-0.042-0.4-0.502-0.085-0.461-0.46
	c0.012-0.105,0.055-0.75,0.05-0.749c-0.254,0.083-0.479-0.178-0.671,0.076c-0.148,0.196-0.32,0.958-0.6,0.995
	c-0.106,0.014,0.366-1.225,0.308-1.285c-0.006-0.006-0.827-0.158-0.863-0.151c-0.202,0.042-0.282-0.329-0.402-0.291
	c-0.099,0.032-0.207,0.359-0.267,0.436c-0.154,0.198-0.588,0.32-0.656,0.555c-0.046,0.156,0.187,0.362,0.224,0.508
	c0.163,0.637-0.239,0.366-0.367-0.045c-0.058-0.187-0.08-2.479-0.905-1.923c-0.118,0.08-0.288,0.325-0.453,0.301
	c-0.205-0.031-0.224-0.253-0.406,0.019c-0.146,0.218-0.816,1.496-0.816,0.481c0-0.682-1.133,0.357-1.327,0.032
	c-0.098-0.164-0.033-0.634-0.332-0.583c-0.313,0.054-0.413,0.346-0.588,0.559c-0.443,0.54-0.247-0.881-0.761-0.242
	c-0.15,0.187-0.356,0.442-0.624,0.437c-0.119-0.002-0.782-0.099-0.665-0.324c0.295-0.566,1.062-0.245,0.872-1.061
	c-0.13-0.561-0.532-0.685-1.078-0.857c-0.343-0.108-0.386,0.355-0.705,0.277c-0.229-0.057-0.5,0.182-0.565,0.382
	c-0.204,0.602-0.21,0.076-0.462-0.051c-0.118-0.06-0.137,0.558-0.271,0.638c-0.259,0.155-0.567,0.177-0.806,0.378
	c-0.304,0.256-0.336,0.699-0.615,0.986C46,9.176,45.374,9.566,45.691,9.696c0.321,0.131,0.65-0.143,0.921,0.113
	c0.12,0.113,0.584,0.618,0.52,0.806c-0.305,0.894-0.791-0.076-1.153-0.129c-0.462-0.068-0.916,1.273-1.117,1.576
	c-0.316,0.475-1.905,0.475-1.784,0.979c0.089,0.368,0.283,0.058,0.457,0.015c0.208-0.052,0.906,0.346,0.936,0.555
	c0.039,0.279-0.122,0.81-0.335,1.001c-0.354,0.316-0.799-0.12-1.066-0.334c-0.35-0.28-0.598-1.37-1.127-0.942
	c-0.243,0.196-1.192,1.305-0.878,1.634c0.338,0.355,0.615-0.175,0.877-0.276c0.304-0.118,0.552,0.264,0.703,0.46
	c0.178,0.231,0.393,0.474,0.506,0.747c0.13,0.314-0.694-0.243-0.753-0.275c-0.626-0.347-0.618,0.323-0.75,0.757
	c-0.123,0.406-0.879,1.223-0.56,1.462c0.298,0.224,0.47,0.326,0.751,0.044c0.098-0.098,0.618-0.58,0.569-0.152
	c-0.021,0.183-0.309,1.378,0.224,0.575c-0.131,0.197-0.788,0.676-0.585,0.956c0.264,0.365,0.89-0.154,1.204,0.002
	c0.25,0.125-0.51,0.765-0.586,0.878c-0.227,0.337-0.77,0.097-1.115,0.272c-1.215,0.616,0.581,0.876,0.884,1.112
	c0.547,0.426-1.885,1.463-1.867,1.511c-0.035-0.098-0.341,0.143-0.443,0.065c-0.211-0.163-0.134-0.838-0.304-1.09
	c-0.142-0.21-0.537-0.084-0.753-0.254c-0.358-0.282-0.635-0.764-0.958-0.177c-0.381,0.694-0.694,0.492-1.344,0.252
	c-0.362-0.133-0.932-0.416-1.331-0.283c-0.191,0.064-0.12,0.167-0.274-0.065c-0.263-0.394-0.709,0.093-0.997,0.201
	c-0.579,0.218-0.509,0.215-0.622,0.803c-0.09,0.474-0.747,0.78-1.139,0.937c-0.463,0.185-0.698,0.799-0.72,1.261
	c-0.044,0.944,1.255-1.051,1.22-0.454c-0.033,0.557-0.61,1.771-1.309,1.701c-0.333-0.034-0.772-0.169-0.979,0.202
	c-0.296,0.532-0.698,0.248-1.169,0.215c-0.309-0.021-0.499-0.33-0.795-0.23c-0.366,0.123-0.696,0.411-0.976,0.667
	c-0.024,0.022-0.392,0.42-0.331,0.42c0.438,0,0.669,0.431,1.163,0.317c0.382-0.088,0.085,0.582,0.539,0.474
	c0.326-0.077,0.929,0.029,0.363,0.353c-0.636,0.364-0.984,0.709-0.884,1.48c0.085,0.655-0.124,1.003-0.505,1.528
	c-0.075,0.103-0.948,1.18-0.475,1.195c0.264,0.008,0.847-0.594,0.893-0.844c-0.407,2.215,0.784-0.461,1.234,0.1
	c0.006,0.008-1.17,1.435-1.254,1.681c-0.092,0.279,1.159-0.031,1.245-0.141c-0.277,0.354-0.209,1.094,0.177,0.554
	c0.126-0.175,0.082-0.43,0.316-0.534c0.292-0.129-0.032,0.548,0.091,0.569c0.189,0.033,0.556-0.399,0.802-0.446
	c0.463-0.088,0.894-0.755,1.309-0.739c0.173,0.007-0.004,0.848-0.047,0.947c-0.153,0.357-1.196,0.561-1.209,0.73
	c-0.028,0.379,1.695-0.332,1.467,0.235c-0.411,1.019-1.155,0.96-1.849,0.322c-0.734-0.676-0.435,0.115-0.71,0.505
	c-0.226,0.32-0.177,0.825,0.058,1.13c0.111,0.144,0.482,0.179,0.448,0.394c-0.05,0.276-0.06,1.7,0.457,1.022
	c0.504-0.681,1.312,0.455,1.557-0.181c0.074-0.192,0.831-1.501,0.841-1.121c0.007,0.255-0.057,0.508-0.049,0.764
	c0.009,0.27,0.233,0.461,0.156,0.741c-0.59-0.362-0.477,0.256-0.281,0.581c0.122,0.203-0.483,1.526-0.381,1.538
	c0.431,0.048,0.727-0.814,1.138-0.86c0.293-0.033-0.365,0.977-0.303,1.008c0.31,0.152,0.854-0.612,1.125-0.44
	c0.269,0.17-1.215,1.405-1.351,1.598c-0.217,0.311-0.027,0.488,0.203,0.693c0.315,0.282,0.328,0.517,0.749,0.047
	c0.839-0.935,0.135,0.995,1.162,0.518c0.388-0.18,0.646-0.423,0.871-0.789c0.439-0.716,0.341-0.39,0.898-0.112
	c0.726,0.364-0.33,0.565-0.692,0.817c-0.674,0.47-1.402,0.945-2.192,0.599c-0.966-0.422-1.452-0.687-1.472-1.854
	c-0.014-0.756-0.428-0.457-0.498,0.132c-0.534-0.397-0.528,0.142-0.893,0.325c-0.368,0.185-0.904-0.32-0.991-0.268
	c-0.105,0.063,0.359,0.693-0.074,0.513c-0.402-0.167-0.721-0.598-0.9-0.979c-0.293-0.619-0.875-2.338-0.288-2.902
	c0.434-0.417,0.361-0.443,0.083-0.931c-0.179-0.312-0.428,0.347-0.613,0.409c-0.436,0.145-0.323-0.751-0.156-0.919
	c0.347-0.346,0.041-0.819-0.437-0.734c-0.525,0.094-0.944,0.425-0.944-0.391c0-0.354-0.447-0.416-0.666-0.216
	c-0.32,0.292-0.119,0.791-0.585,1.026c-0.531,0.269-0.577,0.202-0.811,0.789c-0.164,0.412-0.355,0.333-0.095,0.812
	c0.147,0.271-0.084,0.544,0.154,0.81c0.33,0.368,0.867,0.056,1.112,0.635c0.169,0.399,0.041,1.362-0.358,1.63
	c-0.626,0.422-1.507-1.294-2.364-0.905c-0.241,0.11-0.818,0.531-0.594,0.873c0.115,0.175,0.679-0.182,0.53,0.115
	c-0.658,1.313,3.428,1.977,3.513,2.795c0.029,0.282-0.953,0.222-1.122,0.257c-0.502,0.104-1.383,1.809-0.714,1.965
	c0.393,0.091,0.293,0.041,0.482,0.41c0.19,0.372,0.624,0.391,0.983,0.416c0.534,0.037,0.22,0.568,0.394,0.894
	c0.256,0.479,0.985,0.766,1.423,1.046c0.194,0.124,0.396,0.229,0.559,0.393c0.561,0.566-0.818,0.356-0.923,0.409
	c-0.348,0.174-0.161,0.97-0.61,0.996c-0.598,0.035-0.385-0.919-1.022-0.026c-0.256,0.357-0.387,0.243-0.751,0.362
	c-0.253,0.084-0.833,0.63-0.244,0.686c0.368,0.034,0.494-0.356,0.717-0.018c0.075,0.113,0.278-0.082,0.35-0.089
	c0.142-0.014,0.289,0.372,0.335,0.438c0.578,0.812-3.064,1.209-3.516,1.282c-0.482,0.078-0.862,0.65-1.126,1.017
	c-0.05,0.07-0.638,1.027-0.389,1.024c0.717-0.008,1.417-1.147,2.13-1.115c0.325,0.016,0.07,0.471,0.046,0.669
	c-0.026,0.219,0.522-0.117,0.638-0.127c0.301-0.025,0.161-0.203,0.397-0.36c0.497-0.331,1.696,0.755,2.207,0.898
	c0.379,0.106,0.921,0.174,1.268-0.068c0.099-0.069,0.61-0.528,0.602-0.62c0.02,0.2-0.064,0.762-0.127,0.95
	c-0.103,0.307-0.621,0.314-0.851,0.487c-0.363,0.274,1.206,0.239,0.939,0.439c-0.218,0.163-0.499,0.201-0.532,0.532
	c-0.046,0.477,0.41,0.083,0.553-0.048c0.59-0.542,0.864,0.69,0.048,0.896c-0.552,0.14-1.057,0.185-1.621,0.071
	c-0.45-0.09-0.8,0.135-1.225,0.204c-0.938,0.155-2.064,0.521-2.545,1.403c-0.22,0.403,0.37,0.36,0.627,0.39
	c0.496,0.056,0.645,0.045,0.875-0.414c0.125-0.251,0.271-0.562,0.581-0.613c0.071-0.012,0.762-0.083,0.84,0.012
	c0.019,0.023-0.496,0.81-0.544,0.956c-0.165,0.49-0.845,1.32-0.296,1.792c0.338,0.292,0.905-1.404,1.047-1.64
	c0.273-0.451,0.948-1.062,1.48-1.132c-0.502,0.065-0.171,1.28-0.246,1.358c-0.364,0.377-0.71,0.793-1.096,1.146
	c0.218-0.2,0.197-0.07,0.342,0.114c0.156,0.199,1.138,0.296,0.851,0.528c-0.228,0.186-0.571,0.366-0.719,0.626
	c-0.263,0.46,0.099,0.764-0.279,1.196c-0.069,0.078-0.887,0.972-0.518,1.04c0.262,0.048,1.141-0.92,1.123-0.336
	c-0.016,0.516-0.729,0.746-0.839,1.22c-0.092,0.395,0.233,1.328-0.556,0.893c-0.427-0.236-0.733,0.495-0.999,0.709
	c-0.27,0.213-0.059-0.831-0.465-0.865c-1.383-0.117-0.667,1.41,0.01,1.928c0.312,0.238-1.031,1.257-0.819,1.351
	c0.307,0.136,0.641,0.052,0.866-0.178c0.151-0.155,1.092-0.957,1.079-1.078c0.005,0.049-0.639,1.104-0.132,0.981
	c0.625-0.149,1.218-0.584,1.754-0.915c-0.476,0.422-0.63,1.021-1.044,1.465c-0.337,0.36-0.898,0.607-1.147,1.039
	c-0.308,0.538-0.53,0.654-1.119,0.857c-0.257,0.089-0.671,0.204-0.838,0.441c-0.157,0.223,0.219,0.405,0.321,0.543
	c0.214,0.282,0.991-0.586,1.038-0.372c0.08,0.371-0.16,0.825-0.219,1.188c-0.112,0.672-0.627,0.979-0.904,1.539
	c-0.245,0.495,0.038,0.978,0.552,0.642c0.358-0.235,0.739-0.441,1.029-0.756c0.135-0.146,0.343-0.426,0.573-0.416
	c0.135,0.006,0.253,0.233,0.387,0.167c0.32-0.163-0.634-0.932-0.267-1.129c0.41-0.221,0.656-0.908,0.88-0.252
	c0.188,0.566,0.628,0.141,0.758-0.158c0.228-0.523,0.311-0.59,0.838-0.416c0.145,0.048,0.513-0.007,0.605,0.121
	c0.139,0.192-0.129,0.732-0.106,0.965c0.032,0.322-0.578,1.606-0.359,1.786c-0.151-0.125,0.568-0.14,0.484-0.11
	c0.51-0.176,0.973-0.83,1.325-1.208c0.379-0.405,0.479-0.701,0.92-0.437c0.166,0.099,0.409-0.148,0.572-0.177
	c0.264-0.046,0.807,0.148,1.008,0.294c0.155,0.112-0.413,1.168-0.04,0.985c0.62-0.303,0.771-1.204,1.361-1.508
	c0.497-0.255-0.19,0.928-0.264,1.038c-0.306,0.457-0.655,0.833-1.097,1.153c-0.894,0.649-1.989,0.702-2.814,1.416
	c-0.188,0.163-0.839,0.6-0.892,0.855c-0.104,0.5,0.67,0.754,1.035,0.75c0.323-0.003,1.347-0.937,1.493-0.661
	c0.188,0.356,0.094,1.195,0.799,0.933c0.514-0.191,0.837-0.769,1.014-1.251c0.035-0.097,0.77-1.472,0.962-1.353
	c0.045,0.027-0.24,2.988,0.114,2.859c0.13-0.048,0.278-1.806,0.379-2.042c0.159-0.373,0.144-1.021,0.358-1.322
	c0.107-0.15,0.842,0.191,0.88,0.337c0.094,0.36-0.231,0.935,0.061,1.237c0.306,0.317,0.775,0.264,0.85-0.23
	c0.016-0.106,0.064-1.014,0.266-0.779c0.085,0.1,0.594,1.068,0.726,0.977c0.015-0.01-0.242-0.748-0.249-0.82
	c-0.056-0.573,0.476-0.688,0.662-1.138c0.074-0.179,0.184-0.324,0.39-0.281c0.311,0.065,0.202-0.146,0.369-0.337
	c0.133-0.152,0.597,0.447,0.773,0.517c0.026-0.09,0.272-0.713,0.361-0.41c0.1,0.352,0.72-0.662,0.886-0.773
	c0.42-0.282,1.358,0.249,1.625-0.363c0.12-0.275-0.036-1.441,0.315-1.566c0.055-0.021,0.361,1.469,0.294,1.643
	c-0.132,0.35-1.285,0.712-1.608,0.761c-0.571,0.085-0.762,0.523-1.231,0.809c-0.55,0.335-0.992,0.994-1.348,1.525
	c-0.123,0.183-0.823,1.381-0.262,1.42c0.448,0.031,1.329-0.872,1.329-1.308c0-0.34,1.194-0.983,1.378-0.433
	c0.073,0.22,0.065,0.547,0.403,0.472c0.306-0.068,0.471-0.728,0.618-0.736c0.142-0.008,0.059,0.656,0.37,0.47
	c0.235-0.141,0.439-0.57,0.415-0.843c0.005,0.059-0.323,0.233-0.357,0.121c-0.035-0.115,1.091-1.207,1.236-0.487
	c0.192,0.949,0.095,1.941,0.276,2.894c0.191,1.003,0.815,1.825,1.084,2.798c0.239,0.866,0.553,1.774,0.726,2.651
	c0.31,1.568,0.178,3.385,0.125,4.979c-0.024,0.741-0.1,1.475-0.2,2.21c-0.069,0.506-0.066,1.523-0.559,1.797h3.781
	c-0.376-1.08-0.521-1.936-0.464-3.083c0.075-1.514-0.254-3.023-0.116-4.524c0.135-1.467,0.009-2.935,0.061-4.403
	c0.013-0.366,0.051-0.729,0.096-1.092c0.063-0.514,0.501-1.701,0.327-2.185c0.042,0.118,0.312,1.34,0.616,0.991
	c0.243-0.279-0.928-1.88-0.453-1.931c0.736-0.078,0.839,0.271,1.04,1.001c0.193,0.707,0.943-0.996,0.978-1.228
	c0.041-0.28,0.026-0.6,0.117-0.87c0.052-0.159,0.572-0.478,0.662-0.203c0.146,0.438-0.352,1.428-0.497,1.837
	c-0.187,0.522-0.168,0.901,0.552,0.625c0.396-0.151,0.61-0.484,0.716-0.882c0.026-0.102,0.215-1.176,0.075-1.229
	c0.188,0.072,0.371,1.364,0.468,1.589c0.318,0.731,0.431-0.979,0.467-0.954c0.521,0.376-0.395,0.863,0.55,0.911
	c0.585,0.029,0.827,1.365,1.117,1.716c0.478,0.578,0.86,0.929,0.998-0.037c0.062-0.438-0.326-1.329-0.152-1.685
	c0.023-0.05,0.288,0.451,0.293,0.463c0.213,0.507,0.205,1.106,0.44,1.592c0.138,0.283,0.35-0.175,0.422-0.279
	c0.075-0.11,0.265-0.229,0.311-0.348c0.074-0.19-0.042-0.408,0.017-0.611c0.082-0.292,0.257-2.715,0.979-1.418
	c0.256,0.461,0.359,1.875-0.364,1.98c0.525,0.223,1.173,0.458,1.581,0.869c0.294,0.295,0.119-0.894,0.148-0.949
	c-0.105,0.2,0.885-0.195,0.954-0.245c0.539-0.396,0.148-1.185-0.074-1.681c0.274,0.202,0.315-0.087,0.571-0.059
	c0.246,0.027,0.492,0.172,0.687,0.316c0.325,0.242,0.844,1.088,1.368,0.809c0.346-0.184,0.076-1.062,0.076-1.36
	c0-0.259,1.125,0.304,1.41,0.076c-0.214,0.171-1.019-1.102-1.086-1.275c-0.228-0.589-0.14-0.985,0.508-0.705
	c0.578,0.25,0.42-0.162,0.924-0.433c0.561-0.302,1.667,0.139,1.405,0.94c-0.124,0.38-0.982,0.293-1.271,0.222
	c-0.075-0.019-0.49,1.223,0.285,0.975c0.793-0.254,0.727-0.347,1.336,0.172c0.308,0.262,0.407-0.001,0.576-0.265
	c0.243-0.38,0.281-0.301,0.67-0.166c1.219,0.421-0.968-1.657,0.278-1.136c0.7,0.292,1.097,0.997,1.677,1.445
	c0.375,0.29,0.231-0.369,0.272-0.57c0.097-0.471,0.788-0.287,0.432-0.915c-0.159-0.279-0.384-0.508-0.57-0.767
	c-0.204-0.287-0.074-0.701-0.097-1.023c-0.031-0.464-1.188-0.182-1.464-0.28c-0.258-0.093-0.345-1.147-0.171-1.284
	c0.487-0.384,1.213,0.983,1.067-0.244c-0.028-0.238,0.205-0.336,0.346-0.488c0.286-0.312,0.239-0.653,0.262-1.041
	c0.031-0.545,3.363,0.2,3.358-0.226c0-0.019-0.334-0.1-0.366-0.117c-0.312-0.163,0.247-0.447,0.309-0.595
	c0.084-0.201-0.279-0.636-0.279-0.885c0-0.635-0.611-0.098-0.842,0.078c-0.244,0.185-0.505,0.428-0.692,0.071
	c-0.251-0.474-0.733-0.123-0.923-0.377c-0.166-0.221,0.644-1.128,0.803-1.245c0.037-0.028,1.192-0.28,0.88-0.53
	c-0.159-0.126-0.794,0.189-1.014,0.165c-0.374-0.043,0.258-0.449,0.345-0.566c0.07-0.096,0.609-0.655,0.601-0.674
	c-0.15-0.33-0.329-0.455,0.084-0.675c0.748-0.398,1.321-1.028,2.121-1.267c0.527-0.157,0.561-0.269,0.33-0.721
	c-0.219-0.428-0.083-0.702,0.389-0.713c1.578-0.033,0.143-0.496-0.056-1.186c-0.133-0.461-0.354-0.901-0.91-0.906
	c-0.334-0.003-0.659-0.428-1.018-0.537c-0.475-0.145-0.83-0.6-1.363-0.471c-0.327,0.08-0.928,0.715-1.25,0.552
	c-0.264-0.134-0.26-0.49-0.604-0.553c-0.397-0.072,0.134-0.347,0.223-0.523c0.175-0.351-0.155-0.538-0.186-0.836
	c-0.042-0.413,0.435-0.785,0.4-1.247c-0.035-0.475,0.36,0.055,0.409-0.3c0.029-0.219-0.435-0.793-0.545-1.016
	c-0.21-0.424-0.329-0.77,0.294-0.546c0.496,0.178,0.652-0.12,0.786-0.591c0.101-0.354-0.471-0.739-0.562-1.073
	c-0.099-0.363,0.339-0.134,0.525-0.132c0.413,0.005,0.569-0.793,0.962-0.525c0.22,0.149,0.48,0.997,0.793,0.883
	c0.405-0.147,0.267-0.676,0.749-0.549c0.204,0.054,0.297-0.277,0.437-0.37c0.451-0.298,1.771,0.226,2.269,0.238
	C78.56,52.278,77.848,51.736,78.03,51.28C78.236,50.769,77.825,51.791,78.03,51.28z M36.438,40.602
	c-0.283-0.281-0.713-0.683-0.562-1.125c0.096,0.065,0.949,0.35,0.947,0.258C36.829,40.02,36.575,40.365,36.438,40.602
	C36.284,40.449,36.438,40.602,36.438,40.602z M27.187,40.908c0.272-0.449,0.403-0.306,0.851-0.109
	c0.423,0.187,0.777,0.209,1.083,0.598c0.315,0.401,0.471,0.937,0.674,1.401c-0.658-0.385-1.322-0.759-1.991-1.125
	C27.329,41.415,26.919,41.362,27.187,40.908C27.342,40.653,27.036,41.164,27.187,40.908z M29.488,48.981
	c-0.078-0.045-0.108-0.103-0.091-0.175c0.149-0.059,0.615,0.218,0.633-0.118c0.021-0.375-0.462-0.796-0.737-0.978
	c-0.285-0.188-0.605-0.123-0.889-0.311c-0.428-0.283-0.779-0.706-1.084-1.113c-1.072-1.431,1.02-0.118,1.037-0.678
	c0.022-0.747,0.868-1.579,1.153-0.537c0.14,0.51-0.182,0.617-0.502,0.959c-0.438,0.468,0.44,0.265,0.667,0.301
	c0.257,0.041,0.667-0.242,0.782-0.213c0.536,0.135-0.039,0.836-0.173,1.126c-0.222,0.477,0.202,0.75,0.559,0.987
	c0.358,0.239,0.254,0.27,0.092,0.657c-0.131,0.314-0.265,0.736-0.518,0.978C30.232,50.043,29.596,49.104,29.488,48.981
	C29.13,48.572,29.848,49.39,29.488,48.981z M29.644,68.908c-0.489-0.068-0.966-0.36-1.458-0.188
	c0.604-0.363,1.244-0.586,1.965-0.425c0.132,0.029,1.453-0.099,1.447-0.075C31.507,68.57,29.962,68.954,29.644,68.908
	C29.282,68.857,30,68.96,29.644,68.908z M32.606,43.31c0.236-0.191,0.994,0.296,1.276,0.409c0.191,0.076,0.143,0.281,0.229,0.424
	c0.151,0.253,0.631,0.029,0.845,0.24c-0.63-0.016-1.529-0.11-2.098,0.204c-0.404,0.226-0.835,0.102-1.051-0.351
	C31.447,43.479,32.223,43.616,32.606,43.31C32.858,43.105,32.351,43.514,32.606,43.31z M32.962,67.479
	c-0.269,0.354-0.285-0.428-0.311-0.506c0.031,0.093-0.323,0.388-0.446,0.297c-0.22-0.163-0.074-0.413-0.367-0.353
	c0.314-0.385,0.917-0.328,1.309-0.206c0.244,0.075,0.219,0.199,0.261,0.46C33.532,67.936,33.167,67.204,32.962,67.479
	C32.808,67.682,33.114,67.274,32.962,67.479z M34.65,70.799c-0.227-0.272-1.247-0.098-1.356,0.129
	c0.345-0.712,1.245-1.06,1.919-0.64L34.65,70.799L34.65,70.799z M41.802,33.755c0.195-0.199,0.752-0.309,0.945-0.078
	c0.147,0.176,0.288,0.042,0.444,0.146c0.13,0.086,0.114,0.478,0.143,0.596C43.04,34.407,41.406,34.137,41.802,33.755
	C41.904,33.651,41.698,33.856,41.802,33.755z M39.963,64.411c-0.269-0.133-0.557,0.19-0.818,0.104
	c-0.016-0.005,0.821-0.576,0.964-0.621c0.202-0.062,0.075,0.214,0.229,0.299c0.107,0.059,0.577-0.337,0.696-0.394
	c-0.12,0.421-0.258,0.633-0.66,0.785C40.064,64.703,40.132,64.498,39.963,64.411C39.759,64.311,40.167,64.516,39.963,64.411z
	 M40.678,67.938c0,0,1.481-0.154,1.633-0.052c0.029,0.613-0.81,0.611-1.271,0.727c-0.18,0.045-2.157,0.55-2.167,0.51
	c0.004,0.014,0.666-0.727,0.731-0.827c0.241,0.148,0.491,0.547,0.794,0.345C40.662,68.463,40.97,68.262,40.678,67.938L40.678,67.938
	z M39.593,67.505c-0.217,0.022-0.397,0.023-0.397,0.023c0.462-0.012,0.833-0.073,1.213-0.338c0.161-0.112,0.466-0.02,0.662-0.104
	c0.213-0.092,0.451-0.431,0.667-0.458c0.042-0.006-0.074,0.492,0.183,0.538c0.252,0.044,0.447-0.127,0.545-0.354
	c0,0,0.101,0.204,0.256,0.511L39.593,67.505C39.376,67.527,39.593,67.505,39.593,67.505z M42.21,36.361
	c0.188-0.117,0.378-0.233,0.562-0.358c0.36-0.237,0.483,0.402,0.357,0.613C42.849,36.458,42.521,36.427,42.21,36.361L42.21,36.361z
	 M41.496,65.689c-0.255,1.176-0.306,0.154-0.613,0.255c0.101-0.142,0.844-1.312,0.746-1.385
	C41.799,64.686,41.525,65.556,41.496,65.689C41.241,66.865,41.752,64.516,41.496,65.689z M40.934,43.82
	c0.087,0.437,0.16,0.99,0.346,1.393c0.136,0.295,0.414,0.683-0.038,0.855c-0.116-0.324-0.878-2.176-0.417-2.376
	C40.896,43.696,40.933,43.738,40.934,43.82C40.984,44.076,40.883,43.565,40.934,43.82z M39.604,40.192
	c0.155-0.152,0.36,0.154,0.461,0.41c-0.662-0.158-0.106,0.691-0.374,0.776c-0.24,0.077-0.774-1.239-0.841-1.37
	c-0.09-0.176-0.699-0.838-0.67-1.044c-0.037,0.265,1.09,0.414,1.208,0.569C39.499,39.682,38.951,40.854,39.604,40.192
	C39.759,40.04,39.451,40.347,39.604,40.192z M37.563,36.361c-0.047-0.309,0.436-0.311,0.623-0.375
	c0.544-0.186,0.144-0.434,0.414-0.563c0.231-0.112-0.029,0.343-0.012,0.327c0.291,0.347,0.718-0.137,0.801,0.087
	c0.126,0.34,0.121,0.966-0.037,1.289c-0.2-0.125-0.582-0.346-0.819-0.204c-0.206,0.125-0.183,0.344-0.462,0.204
	C37.766,36.975,37.606,36.69,37.563,36.361C37.509,36.002,37.609,36.719,37.563,36.361z M38.021,47.193
	c0.404-0.324,2.404-0.34,2.787,0.004c0.51,0.459,0.574,1.456,0.483,2.092c-0.446-0.225-0.903-0.451-1.317-0.733
	c-0.849-0.579,0.971-0.2,0.782,0.024c0.18-0.214-0.36-0.909-0.237-1.154c-0.06,0.119-1.087-0.072-1.386,0.001
	c-0.534,0.13-1.373,0.794-1.829,0.277C37.304,47.704,37.766,47.398,38.021,47.193C38.277,46.988,37.766,47.398,38.021,47.193z
	 M38.533,50.311c-0.256,0.561-0.407,0.766-0.407,0.766c-0.4,0-0.632-0.729-0.664-1.042c0.006,0.057,1,0.11,1.162,0.023
	C38.643,50.149,38.612,50.233,38.533,50.311C38.277,50.871,38.789,49.748,38.533,50.311z M37.408,55.623l0.663,0.308
	c-0.611,0.41-0.728,0.561-0.97-0.255L37.408,55.623L37.408,55.623z M36.232,67.428c0,0-0.612,0.153-0.818,0.153
	c0.394-0.362,0.643-0.404,0.485-0.919c-0.086-0.28-0.165-0.542,0.196-0.438c0.254,0.073,0.373-0.222,0.587-0.184
	c0.177,0.031-0.295,0.597-0.369,0.656C36.263,66.738,36.521,67.219,36.232,67.428L36.232,67.428z M38.176,68.653
	c-0.576,0.213-1.119,0.716-1.774,0.675c0.113,0.007,0.645-0.314,0.751-0.42c0.217-0.216,0.312-0.531,0.512-0.766
	c0.269-0.314,0.336-0.059,0.613-0.153L38.176,68.653L38.176,68.653z M39.553,72.128c-0.257,0.051-0.257,0.357-0.051,0.46
	c-0.219-0.026-0.979-0.336-1.124-0.508c0.053,0.063,0.427-0.348,0.469-0.388c-0.169,0.161,0.566,0.07,0.521-0.037
	c0.077,0.186,0.205,0.546,0.475,0.491C39.75,72.117,39.653,72.11,39.553,72.128C39.296,72.179,39.808,72.076,39.553,72.128z
	 M42.365,73.404c-0.277,0.206-0.619,0.357-0.925,0.363c-0.342,0.006-0.627-0.722-0.338-0.827c0.157-0.058,0.401,0.311,0.626,0.279
	c0.35-0.049,0.695-0.245,1.044-0.325C42.772,72.895,42.566,73.252,42.365,73.404C42.159,73.558,42.566,73.252,42.365,73.404z
	 M43.028,70.339c-0.4-0.467-0.521,0.4-0.774,0.147c-0.229-0.229-0.3-0.074-0.55,0.093c-0.412,0.275-0.263-0.128-0.521-0.242
	c-0.251-0.11-0.469,0.326-0.587,0.463c-0.184,0.213-0.458,0.031-0.664-0.061c-0.382-0.172-1.052-0.044-1.356-0.264
	c0.07,0.05,1.227-1.027,1.387-1.057c0,0.238-0.077,1.441,0.428,0.845c0.24-0.282,0.801-1.336,1.121-1.429
	c0.341-0.1-0.192,1.7,0.54,0.812c0.041-0.049,0.414-0.467,0.414-0.433c0,0.262,0.866-0.601,0.867-0.601
	C43.758,68.58,43.061,70.253,43.028,70.339L43.028,70.339z M44.354,31.66c-0.151,0.307-0.306,1.124-0.306,1.124
	c-0.157-0.471-0.644-1.151-0.42-1.609c-0.049,0.1,0.953,0.049,0.834-0.195C44.535,31.129,44.422,31.526,44.354,31.66
	C44.204,31.966,44.509,31.353,44.354,31.66z M57.132,32.222c-0.018-0.004,0.898,0.385,0.594,0.552
	c-0.291,0.16-1.013-0.158-1.311-0.245C56.726,32.272,56.927,32.171,57.132,32.222C57.336,32.272,56.927,32.171,57.132,32.222z
	 M56.313,61.296c0.056-0.037,0.039,0.481-0.254,0.608c-0.388,0.167-0.783,0.316-1.178,0.465c0.165-0.271,0.339-0.571,0.579-0.784
	C55.69,61.382,56.058,61.463,56.313,61.296C56.465,61.193,56.158,61.397,56.313,61.296z M55.853,36.616
	c0.221-0.265,0.033,0.484,0.017,0.528c-0.161,0.418-0.516,0.64-0.779,0.981c-0.314,0.41-0.464,1.032-0.666,1.505
	c0.182-0.46,0.028-1.014,0.204-1.421C54.865,37.661,55.474,37.074,55.853,36.616C56.107,36.31,55.6,36.922,55.853,36.616z
	 M54.22,26.142c0.101-0.512,0.255-0.562,0.255-0.562c0.172,1.436,0.461,0.065,0.935-0.12c0.142-0.056-0.004,0.499-0.016,0.528
	c-0.098,0.242-0.403,0.417-0.597,0.571c-0.395,0.312-0.602,0.781-0.834,1.217C53.963,27.776,54.118,26.652,54.22,26.142
	C54.32,25.63,54.118,26.652,54.22,26.142z M53.145,25.784c0.02-0.049,0.395-0.589,0.399-0.572c0.16,0.537,0.009,1.539,0.009,2.105
	C53.213,26.802,52.906,26.389,53.145,25.784C53.245,25.528,53.044,26.039,53.145,25.784z M52.737,40.192
	c0.11-0.224,0.327-1.557,0.524-1.597c0.403-0.081,0.427-0.031,0.502,0.316c0.073,0.336-0.808,0.613-0.571,1.001
	c0.051,0.083,0.241-0.067,0.31-0.051c-0.047-0.011-0.149,0.565-0.159,0.637c-0.038,0.27-0.546,0.467-0.757,0.562
	C52.586,40.856,52.636,40.396,52.737,40.192C52.838,39.988,52.636,40.396,52.737,40.192z M48.805,19.703
	c0.143,0.208,0.326,0.496,0.558,0.612c0.163,0.083,0.57-0.097,0.654,0.07c0.101,0.2,0.083,0.482,0.112,0.698
	C49.627,21.048,48.095,20.337,48.805,19.703L48.805,19.703z M49.417,35.645c0.007-0.026,0.463-0.636,0.396-0.61
	c-0.134,0.051-0.355,2.264-0.45,2.602C49.363,36.998,49.243,36.261,49.417,35.645C49.493,35.381,49.316,36.002,49.417,35.645z
	 M47.729,20.265c0.101,0.204,0.408,0.409,0.408,0.409c0.01-0.134,0.064-0.511,0.255-0.511c0.245,0,0.208,0.72,0.306,0.869
	c-0.431-0.104-0.861-0.238-1.262-0.428c-0.276-0.13-0.464-0.33-0.717-0.489c-0.272-0.172-0.656-0.177-0.906-0.367
	c-0.16-0.121,0.941-0.354,1.119-0.161c0.096,0.104,0.079,0.346,0.136,0.476C47.176,20.305,47.526,19.858,47.729,20.265
	C47.83,20.469,47.628,20.062,47.729,20.265z M47.116,65.996c0.18-0.54-0.746-0.221-0.69-0.594c0.041-0.269-0.188-0.479-0.128-0.785
	c0.518,0.173,0.605,0.148,0.765,0.679c0.196,0.65,0.556,0.087,0.922,0.648c-0.179,0.06-0.409,0.081-0.52,0.239
	c-0.125,0.18-0.262,0.433-0.506,0.466c0.015-0.002-0.643-0.04-0.542-0.142C46.722,66.202,46.96,66.469,47.116,65.996
	C47.218,65.689,47.015,66.303,47.116,65.996z M45.84,51.69c-0.256-0.153-0.054-0.819-0.054-0.819
	c0.151,0.171,0.355,0.387,0.412,0.613c0.105,0.433,0.569,0.621,0.613,1.073c-0.271,0.104-0.547,0.241-0.831,0.153
	c-0.079-0.024-0.886-0.294-0.887-0.293C45.33,52.09,46.695,52.205,45.84,51.69C45.584,51.537,46.093,51.843,45.84,51.69z
	 M46.605,59.967c0.371-0.564,0.487-0.35,0.613,0.153c0.067,0.259,0.416,0.088,0.511,0.205c0.113,0.138,0.101,0.514,0.101,0.663
	c-0.236-0.102-0.485-0.189-0.714-0.306c-0.151-0.077-0.124-0.277-0.324-0.32c-0.076-0.017-0.507,0.105-0.525,0.051
	C46.231,60.301,46.548,60.053,46.605,59.967C46.705,59.814,46.503,60.12,46.605,59.967z M47.885,59.149
	c-0.2-0.321-0.697-0.814-0.748-1.184c-0.007-0.05,0.704-1.105,0.772-0.758C48.047,57.91,47.984,58.446,47.885,59.149L47.885,59.149z
	 M45.891,15.002c0.082,0.163,0.198,0.294,0.347,0.394c0.229,0.023-0.174-0.561-0.182-0.58c-0.035-0.079,0.609-0.077,0.701-0.119
	c0.271-0.125,0.583-0.136,0.872-0.307c-0.182,0.553-0.732,0.93-1.175,1.227c-0.767,0.757-0.979-0.694-0.683-0.717
	C45.811,14.933,45.851,14.968,45.891,15.002C46.093,15.31,45.686,14.695,45.891,15.002z M44.56,41.164
	c0.046,0.071,0.568,0.374,0.718,0.46c0.443,0.253,0.629,0.01,1.049-0.06c-0.388,0.065,0.064,0.704,0.2,0.786
	c0.253,0.152,0.201,0.298,0.233,0.603C45.857,42.556,45.119,41.984,44.56,41.164C44.46,41.009,44.665,41.317,44.56,41.164z
	 M45.686,46.171c0.413-0.137,0.585-0.084,0.818-0.512c0.002-0.003,0.392-0.838,0.426-0.815c0.609,0.405,0.086,1.021-0.275,1.275
	c-0.364,0.262,0.183,0.456,0.36,0.562c0.315,0.188-0.142,0.614-0.256,0.766c-0.195-0.152-1.802-1.029-1.797-1.055
	C44.991,46.265,45.587,46.204,45.686,46.171C46.146,46.018,45.227,46.324,45.686,46.171z M45.686,59.609l-0.663-0.205
	c0.232-0.196,0.467-0.399,0.724-0.562C46.059,58.644,45.74,59.498,45.686,59.609C45.686,59.609,45.786,59.404,45.686,59.609z
	 M47.577,80.456c-0.104,0.665-0.155,0.921-0.155,0.921c-0.729-1.68-1.038-3.378-1.38-5.162l0.256,0.972
	c0.009-0.113,0.076-1.038,0.237-0.996c0.258,0.066,0.174,1.026,0.201,1.019c0.2-0.054,0.4-0.336,0.535-0.482
	c-0.041,0.392-0.074,0.783-0.104,1.176c0.292,0.137,0.245-0.234,0.412-0.186C48.113,77.874,47.631,80.103,47.577,80.456
	C47.474,81.121,47.679,79.792,47.577,80.456z M48.191,69.625c-0.968-0.011-0.746-0.373-0.938-1.07
	c-0.076-0.273-1.001-0.739-1.261-0.873c0.496,0.233,0.894,0.136,1.313,0.442c0.113,0.082,0.461,0.113,0.414,0.286
	c-0.038,0.138-0.115,0.427,0.054,0.523c0.214,0.123,1.058-0.44,1.029-0.327C48.706,68.987,48.359,69.277,48.191,69.625
	C48.191,69.625,48.291,69.419,48.191,69.625z M48.649,43.922c-0.167-0.504-0.428-1.096-0.184-1.638
	c0.113-0.251,0.472-0.328,0.62-0.581c0.185-0.315,0.238-0.693,0.406-1.017C49.008,41.616,48.898,42.907,48.649,43.922
	C48.598,43.769,48.649,43.922,48.649,43.922z M49.518,60.631c-0.373-1.118,0.531-0.892,0.964-1.588
	c0.17-0.273,0.424-0.624,0.478-0.945c0.058-0.338-0.114-0.789-0.115-1.146c0.121,0.572,0.494,1.56,0.108,2.092
	C50.546,59.604,49.968,60.097,49.518,60.631C49.467,60.479,49.518,60.631,49.518,60.631z M49.825,62.062
	c0.147-0.277,0.294-0.555,0.441-0.832c0.1-0.188,0.643,0.225,0.784,0.27L49.825,62.062L49.825,62.062z M51.306,69.062
	c-0.028,0.199-0.189,0.778-0.481,0.769c-0.526-0.019-0.433,0.174-0.232,0.663c-0.455-0.057-0.683-1.698-0.384-1.851
	c0.236-0.12,0.452-0.035,0.508,0.202c0.18,0.756,0.479-0.018,0.747-0.286C51.389,68.634,51.317,68.977,51.306,69.062
	C51.255,69.419,51.356,68.704,51.306,69.062z M52.175,24.456c-0.355,0.765-0.612,2.35-0.612,2.35
	c-0.069-0.579-0.119-1.076-0.005-1.65c0.067-0.334-0.009-0.75,0.163-1.054c0.14-0.248,0.532-0.403,0.76-0.565
	C52.48,23.536,52.532,23.689,52.175,24.456C51.819,25.221,52.532,23.689,52.175,24.456z M52.586,47.704
	c0.119-0.332,0.225-0.669,0.402-0.977c0.104-0.141,0.188-0.294,0.25-0.458c0.01-0.041-0.043-0.298-0.024-0.326
	c0.114-0.171,0.675,0.46,0.783,0.475c0.396,0.052,0.321-0.938,0.785-0.861c1.038,0.174-0.648,1.387-0.807,1.273
	c0.087,0.062-0.209,0.79-0.367,0.841c-0.273,0.088-0.122-0.552-0.099-0.546C53.223,47.054,52.773,47.534,52.586,47.704
	C52.788,47.142,52.586,47.704,52.586,47.704z M52.992,65.384c0-0.289,0-0.579,0-0.868c0.373,0.079,0.689-0.583,0.92-0.818
	C53.688,64.416,53.407,64.76,52.992,65.384C52.992,65.384,53.095,65.229,52.992,65.384z M54.831,75.193
	c-0.263-0.117-0.635-0.28-0.705-0.586c-0.052-0.225-0.292-0.952-0.214-1.15c-0.122,0.36,0.469,0.783,0.734,0.88
	C54.985,74.461,54.883,74.926,54.831,75.193L54.831,75.193z M55.037,64.821c0.202,0.256,0.202,0.256,0.202,0.256l-0.969-0.204
	c0.252-0.336,0.363-1.347,0.811-1.324c0.597,0.03,0.493,0.126,0.651,0.637c0.161,0.519,0.574,0.972,0.778,1.486
	c-0.188-0.473-0.323-0.775-0.727-1.079c-0.142-0.107-0.307-0.349-0.496-0.38C54.922,64.154,54.877,64.622,55.037,64.821
	C55.239,65.077,54.831,64.565,55.037,64.821z M56.569,74.222c-0.272-0.244-0.964-0.773-0.794-1.201
	c-0.013,0.032,0.456,0.313,0.49,0.349C56.62,73.724,56.646,73.681,56.569,74.222C56.569,74.222,56.62,73.866,56.569,74.222z
	 M57.693,58.23c0,0-0.41,0.511-0.662,0.816c-0.346-0.22-0.664-1.214,0.043-1.111c0.47,0.067,0.796,0.185,0.712-0.485
	C57.82,57.717,57.794,57.98,57.693,58.23L57.693,58.23z M59.432,48.266c-0.206,0.664-1.129,2.708-1.129,2.708
	c-0.17-0.269-0.344-0.62-0.343-0.945c0.003-0.428,0.469-0.452,0.704-0.69c0.126-0.125,0.656-1.248,0.787-1.208
	C59.463,48.176,59.456,48.222,59.432,48.266C59.226,48.93,59.611,47.678,59.432,48.266z M69.956,46.12
	c-0.136,0.169-0.992,1.89-0.815,1.89c-0.349,0-0.403-0.742-0.692-0.853c-0.32-0.123-0.23-0.311-0.382-0.564
	c-0.092-0.153-0.487,0.239-0.505,0.083c-0.007-0.065,0.296-0.438,0.337-0.479c0.02-0.02,2.254-0.227,2.209-0.297
	C70.129,45.933,69.953,46.123,69.956,46.12C69.548,46.631,70.366,45.609,69.956,46.12z M67.504,45.456
	c0.633-0.576,1.333-1.119,2.014-1.624c0.021-0.015,0.219,0.215,0.188,0.292c-0.053,0.134-0.333,0.588-0.455,0.695
	C68.869,45.15,67.987,45.205,67.504,45.456L67.504,45.456z M69.623,43.35c0.31-0.264-0.05-0.529-0.129-0.855
	c-0.032-0.131,0.366-0.676,0.388-0.653c0.199,0.209,0.282,0.97,0.098,1.171c-0.337,0.366-0.714,0.616-1.137,0.859
	c-0.939,0.54-1.62,0.925-2.72,1.022c0.716-0.239,1.247-0.72,1.176-1.533c0.187,0.87,0.577,0.244,0.919-0.103
	c0.114-0.114,0.034-0.265,0.202-0.22C68.797,43.137,69.231,43.344,69.623,43.35C69.67,43.31,69.422,43.347,69.623,43.35z
	 M67.146,48.93c-0.665,0.19-0.905-0.991-1.124-1.432c0.14-0.194,0.57-0.601,0.851-0.491c0.224,0.087-0.067,0.741-0.09,0.845
	c-0.111,0.496,0.076,0.309,0.415,0.42c0.161,0.053,0.05,0.635,0.101,0.61C67.248,48.898,67.197,48.914,67.146,48.93
	C66.787,49.032,67.504,48.828,67.146,48.93z M66.022,50.311c-0.256,0.357-0.769,0.407-0.769,0.407
	c-0.11-0.261-0.209-0.962,0.263-0.842c0.529,0.136,0.217-0.545,0.61-0.603C66.271,49.252,66.113,50.183,66.022,50.311
	C65.767,50.668,66.278,49.952,66.022,50.311z M65.308,36.514c0.118-0.238,0.275-0.393,0.51-0.512
	c0.292-0.146,0.364,0.232,0.593,0.09c0.099-0.061,0.321-0.535,0.438-0.423c0.068,0.065,0.146,0.327,0.244,0.128
	c0.143-0.282,1.761-0.075,1.351,0.423c-0.382,0.464-0.839,0.874-1.246,1.314c-0.028,0.031-0.792,0.889-0.774,0.554
	C66.469,37.207,64.618,37.885,65.308,36.514C65.459,36.208,65.153,36.821,65.308,36.514z M63.827,39.222
	c0.039-0.08,0.531-1.232,0.535-0.907c0.001,0.164-0.483,0.555-0.13,0.615c0.534,0.089,1.157-0.242,1.655,0.085
	c0.119,0.079,0.215,0.187,0.34,0.259c0.132,0.075,0.901,0.09,0.95-0.093c-0.119,0.446-0.935,0.456-1.139,0.831
	c-0.2,0.368-0.866-0.107-1.211-0.061c-0.781,0.104-1.528,0.266-2.332,0.293C63.109,39.784,63.672,39.528,63.827,39.222
	C63.979,38.915,63.672,39.528,63.827,39.222z M62.853,59.251l-0.764,0.206C62.27,59.25,62.799,58.613,62.853,59.251L62.853,59.251z
	 M62.189,37.79c0.373-0.212,0.39-0.014,0.553,0.291c0.364,0.68,0.719-0.144,0.976-0.015c0.217,0.108-0.784,0.981-1.092,0.927
	c-0.376-0.066-1.213-0.287-1.282-0.752C61.243,37.576,61.849,37.987,62.189,37.79C62.547,37.587,61.833,37.996,62.189,37.79z
	 M60.81,30.281c-0.14-0.424,0.105-2.345,0.671-2.394c0.179-0.015-0.11,0.612,0.149,0.495C61.52,28.432,60.781,30.201,60.81,30.281
	C60.759,30.126,60.864,30.434,60.81,30.281z M62.753,69.419c-0.003-0.766-0.265-0.777-0.869-1.072
	c-0.354-0.173-0.698-0.49-1.02-0.715c0.353,0,0.428,0.415,0.702,0.491c0.192,0.178,0.5-0.151,0.774-0.032
	c0.259,0.11,0.567-0.148,0.567,0.256C62.908,68.707,62.838,69.07,62.753,69.419L62.753,69.419z M63.466,65.996
	c-0.023,0.073-0.64,0.185-0.531,0.32c-0.16-0.198-0.423-0.908-0.352-1.153c0.016-0.055,0.345,0.348,0.371,0.374
	c0.266,0.261,0.354-0.267,0.541-0.189C63.63,65.402,63.499,65.901,63.466,65.996C63.416,66.149,63.52,65.844,63.466,65.996z
	 M63.928,58.689c-0.093-0.253-0.304-0.502-0.069-0.695c0.37-0.307,0.744-0.407,1.194-0.509c0.287-0.064,0.595-0.104,0.494,0.265
	c-0.116,0.426,0.25,0.606,0.317,0.938c0.023,0.114-0.826-0.714-0.812-0.714c-0.294,0-0.479-0.16-0.614,0.205
	C64.35,58.415,64.165,58.604,63.928,58.689L63.928,58.689z M65.561,61.296c-0.199,0.161-0.179-0.702-0.226-0.775
	c-0.001-0.001-0.703,0.717-0.745,0.775c-0.193-0.485-0.232-0.922,0.218-1.259c0.123-0.093,0.503-0.619,0.658-0.549
	c0.143,0.064,0.34,0.279,0.518,0.191c-0.075,0.037,0.021,0.618,0.026,0.676C66.049,60.877,65.941,60.992,65.561,61.296
	C65.308,61.5,65.817,61.091,65.561,61.296z M68.015,65.689c-0.665,0.221-0.818,0.201-1.054-0.39c-0.106-0.27-0.85-0.423-1.09-0.683
	c-0.049-0.276-0.228-0.499,0.171-0.579c0.138-0.028,1.015-0.223,1.097-0.022c0.118,0.288-0.209,0.983,0.132,1.159
	c0.266,0.136,0.812,0.132,1.047,0.364C68.246,65.634,68.146,65.685,68.015,65.689C67.709,65.791,68.322,65.588,68.015,65.689z
	 M71.185,66.251c-0.819,0.186-1.587,0.206-2.455,0.206c0.342,0,0.806-0.503,1.175-0.58c0.116-0.024,1.73-0.12,1.707-0.235
	C71.664,65.899,71.424,66.197,71.185,66.251C70.724,66.355,71.642,66.149,71.185,66.251z M72.205,63.135
	c0.367-0.138,0.767,0.111,0.953-0.406c0.069-0.193,0.01-0.771,0.392-0.742c-0.04-0.004-0.12,0.038-0.154,0.058
	c0.284-0.16,0.669-0.241,0.889-0.495c0.274-0.315-0.481-0.393-0.598-0.509c0.134,0.13,0.792,0.181,1.021,0.309
	c0.404,0.227-0.66,0.781-0.811,0.918c-0.392,0.354-0.269,0.967-0.558,1.294c-0.461,0.523-1.288,0.526-1.903,0.341
	C71.642,63.697,71.797,63.288,72.205,63.135C72.612,62.981,71.797,63.288,72.205,63.135z M71.284,61.346
	c-0.075,0.425,0.089,0.467,0.285,0.882c0.216,0.455-0.478,1.069-0.36,1.257c-0.116-0.187-0.413-0.626-0.229-0.81
	c0.514-0.516-0.122-0.634-0.464-0.651c-0.788-0.039-1.736-0.12-2.501-0.318c0.173-0.065,0.82-0.057,0.916-0.231
	c0.096-0.176,0.37-0.285,0.348-0.413c0.012,0.067,0.456,0.33,0.533,0.433c0.153,0.202,0.422-0.036,0.588-0.108
	c0.227-0.099,0.294,0.133,0.473,0.077c0.164-0.051,0.235-0.273,0.392-0.314C71.327,61.193,71.334,61.259,71.284,61.346
	C71.185,61.908,71.387,60.784,71.284,61.346z"/>
</svg>
