<?xml version="1.0" encoding="utf-8"?>
<!-- Generator: Adobe Illustrator 15.0.2, SVG Export Plug-In . SVG Version: 6.00 Build 0)  -->
<!DOCTYPE svg PUBLIC "-//W3C//DTD SVG 1.1//EN" "http://www.w3.org/Graphics/SVG/1.1/DTD/svg11.dtd">
<svg version="1.1" id="Ebene_1" xmlns="http://www.w3.org/2000/svg" xmlns:xlink="http://www.w3.org/1999/xlink" x="0px" y="0px"
	 width="100px" height="100px" viewBox="0 0 100 100" enable-background="new 0 0 100 100" xml:space="preserve">
<circle fill="#B2B2B2" cx="50" cy="50" r="50"/>
<path fill-rule="evenodd" clip-rule="evenodd" d="M66.485,16.553c0,0-7.042,0-15.076,0v-1.361H37.793l-1.167,1.361
	c-4.101,0-7.215,0-8.073,0c-3.209,0-3.209,3.21-3.209,3.21v5.835l5.836,4.96l4.376,53.396l1.751,1.751h18.997
	c-2.67-1.344-4.506-4.102-4.506-7.295c0-1.419,0.363-2.754,1-3.917l0.802,0.802c-0.462,0.941-0.728,1.996-0.728,3.115
	c0,3.92,3.177,7.097,7.096,7.097s7.097-3.177,7.097-7.097c0-3.919-3.178-7.096-7.097-7.096c-1.093,0-2.124,0.254-3.049,0.695
	l-0.804-0.803c1.148-0.615,2.459-0.967,3.853-0.967c3.074,0,5.749,1.7,7.144,4.209l2.875-44.475v-5.543h4.669v-2.918L66.485,16.553z
	"/>
</svg>
