<?xml version="1.0" encoding="utf-8"?>
<!-- Generator: Adobe Illustrator 15.0.2, SVG Export Plug-In . SVG Version: 6.00 Build 0)  -->
<!DOCTYPE svg PUBLIC "-//W3C//DTD SVG 1.1//EN" "http://www.w3.org/Graphics/SVG/1.1/DTD/svg11.dtd">
<svg version="1.1" id="Ebene_1" xmlns="http://www.w3.org/2000/svg" xmlns:xlink="http://www.w3.org/1999/xlink" x="0px" y="0px"
	 width="100px" height="100px" viewBox="0 0 100 100" enable-background="new 0 0 100 100" xml:space="preserve">
<circle fill="#B2B2B2" cx="50" cy="50" r="50"/>
<path d="M86.868,60.282l-1.546-6.571c-2.859-7.73-10.281-5.179-10.281-5.179l-23.963,9.664c-1.448,0.278-2.69-0.844-3.275-1.495
	c0.218-0.084,0.925-0.383,0.925-0.732c0-0.464,0.058-0.881,0-1.265c-0.181-1.202-0.679-2.086-0.969-3.081
	c-0.433-1.479-0.868-2.988-1.068-4.521c-0.348-2.667-0.58-4.639-0.58-4.639s-0.464-2.319-3.363-2.319h-0.928v-6.377h1.508
	c0,0,1.758-1.681,1.739-2.783l9.741,0.812c0,0,2.292,0.29,2.288-2.783c-0.002-1.76,0.212-3.701-2.173-3.827
	c-2.203-0.116-9.856,0.464-9.856,0.464l-0.812-1.507v-1.275c0,0,0.486-0.688-4.445-0.978l-0.473-0.066
	c-0.243,0.009,0,0.019-0.223,0.029c-0.223-0.01,0.243-0.02,0-0.029l-0.695,0.066c-4.932,0.291-4.445,0.978-4.445,0.978v1.275
	l-0.812,1.507c0,0-7.653-0.58-9.856-0.464c-2.386,0.125-2.171,2.067-2.174,3.827c-0.003,3.073,2.29,2.783,2.29,2.783l9.74-0.812
	c-0.019,1.102,1.739,2.783,1.739,2.783h1.507v6.377h-0.928c-2.899,0-3.363,2.319-3.363,2.319s-0.232,1.972-0.58,4.639
	c-0.2,1.532-0.635,3.042-1.067,4.521c-0.29,0.995-0.789,1.879-0.969,3.081c-0.058,0.384,0,0.801,0,1.265
	c0,0.412,0.994,0.758,0.994,0.758s-0.919,15.085-1.212,16.211c-0.488,1.878-1.215,2.365-1.215,2.365
	c-0.429,0.378-1.586,0.788-1.528,1.483v1.393h11.879h1.391h11.879v-0.657h0.006c0.008-0.112,0.002-0.214-0.006-0.312v-0.423h-0.086
	C51.412,76.227,51,75.974,51,75.974c-3.943-3.091-0.31-5.256-0.31-5.256s18.397-9.431,19.789-10.282
	c1.392-0.849,3.247-0.695,3.247-0.695c1.392-0.231,1.778,2.319,2.242,3.247s1.082,1.005,1.082,1.005l9.277-2.551
	C86.946,61.364,86.868,60.282,86.868,60.282z"/>
</svg>
