<?xml version="1.0" encoding="utf-8"?>
<!-- Generator: Adobe Illustrator 15.0.2, SVG Export Plug-In . SVG Version: 6.00 Build 0)  -->
<!DOCTYPE svg PUBLIC "-//W3C//DTD SVG 1.1//EN" "http://www.w3.org/Graphics/SVG/1.1/DTD/svg11.dtd">
<svg version="1.1"
	 id="svg2" sodipodi:docname="H1N1_United_Kingdom_Map - Region.svg" sodipodi:version="0.32" inkscape:version="0.46" inkscape:output_extension="org.inkscape.output.svg.inkscape" sodipodi:docbase="/home/marnanel" xmlns:rdf="http://www.w3.org/1999/02/22-rdf-syntax-ns#" xmlns:dc="http://purl.org/dc/elements/1.1/" xmlns:cc="http://creativecommons.org/ns#" xmlns:sodipodi="http://sodipodi.sourceforge.net/DTD/sodipodi-0.dtd" xmlns:inkscape="http://www.inkscape.org/namespaces/inkscape" xmlns:svg="http://www.w3.org/2000/svg"
	 xmlns="http://www.w3.org/2000/svg" xmlns:xlink="http://www.w3.org/1999/xlink" x="0px" y="0px" width="1450.92px"
	 height="2116px" viewBox="0 238 1450.92 2116" enable-background="new 0 238 1450.92 2116" xml:space="preserve">
<path class="region" region="SCOTLAND" population="5156500" fill="#CC3300" d="M359.303,571.255l0.392-32.656l13.995-22.936l1.164,14.384l-2.72,10.498l-6.22,6.998 l1.553,12.051l2.721,8.94l-7.386,6.61L359.303,571.255z"/>
<path class="region" region="SCOTLAND" population="5156500" fill="#CC3300" d="M153.272,653.28l13.607-19.051l11.274-1.164l4.665,12.829l-17.495,14.771L153.272,653.28
	z"/>
<path class="region" region="SCOTLAND" population="5156500" fill="#CC3300" d="M231.019,780.397l-2.721-19.047l3.89-3.498l30.321,2.721l-32.656,21.767L231.019,780.397
	z"/>
<path class="region" region="SCOTLAND" population="5156500" fill="#CC3300" d="M259.01,752.797l16.326-15.161l26.044-20.214l-4.276,20.603l-25.657,10.106
	L259.01,752.797z"/>
<path class="region" region="SCOTLAND" population="5156500" fill="#CC3300" d="M446.381,1038.133l-15.936-19.436l4.662-15.161l-7.776-10.495l5.833-13.607l13.606-10.495
	l12.826,11.661l1.556,20.606l8.551,9.716l-5.055,29.932L446.381,1038.133z"/>
<path class="region" region="SCOTLAND" population="5156500" fill="#CC3300" d="M275.725,968.937l7.776-39.652l15.549-5.055l32.264-12.05l3.888,18.271l8.938,40.43
	l-13.994,8.552l-22.55,15.939l-6.608-5.056l2.332-7.777l5.831-5.054l-5.831-13.605l3.888-7.386l6.999-8.941l-6.999-3.89l-8.162,2.33
	l-17.106,18.271L275.725,968.937z"/>
<path class="region" region="SCOTLAND" population="5156500" fill="#CC3300" d="M333.26,921.122l10.883-8.551l6.999-3.499l11.276-4.664l-11.659-1.556l4.666-13.216
	l22.934-15.937l13.607-10.495l4.665,9.329l-7.774,9.715l-14.775,25.659l-24.884,41.982l-10.495-5.055L333.26,921.122z"/>
<path class="region" region="SCOTLAND" population="5156500" fill="#CC3300" d="M301.381,807.998l38.098,1.942l-11.663-7.773l11.663-27.212l-27.213-12.441l6.609-14.384
	l18.661-12.827l9.717,5.442l9.717,18.658l9.329,12.827l16.716,0.779l15.938,8.94l4.664,6.218l-5.056,23.325l-19.048,8.94
	l-12.438-6.223l-52.867,17.105L301.381,807.998z"/>
<path class="region" region="SCOTLAND" population="5156500" fill="#CC3300" d="M302.548,648.614l16.716,21.38l13.604-16.714l-5.828-14.775h-8.167L302.548,648.614z"/>
<path class="region" region="SCOTLAND" population="5156500" fill="#CC3300" d="M183.202,615.182l-6.61-31.874l12.05-17.105l-3.887-10.886v-6.221l9.718-9.329
	l10.495,13.216l6.61,8.94l0.775,12.825l-9.33,12.44l0.78,34.209L183.202,615.182z"/>
<path class="region" region="SCOTLAND" population="5156500" fill="#CC3300" d="M192.147,541.709l-5.444-5.831l2.334-11.273l5.053-3.5l-1.168-12.438l-22.934-15.162
	l13.604-15.549l37.709-1.164l16.716,15.16l-8.943,16.328l-24.104,36.541l-3.889,3.11l-6.608-7.776l-3.889,1.556H192.147
	L192.147,541.709z"/>
<path class="region" region="SCOTLAND" population="5156500" fill="#CC3300" d="M248.123,467.645l-17.492-21.382l18.658-5.83l8.94-5.442l11.661-5.054l-14.77-10.105
	l-26.045-19.826l27.99-4.275l-17.496-14.385l0.392-16.716l12.052-15.162l10.884,4.275l21.38,9.332l-4.273-26.437l33.042-20.212
	l41.202-25.659l5.443,38.097l-12.05,14.385l-10.108,15.161l-6.999,26.046l-2.331,25.268l-17.104,18.66l-18.658,1.944l-1.558,7.776
	l-11.275,1.555l-0.39,10.494L248.123,467.645z"/>
<path class="region" region="SCOTLAND" population="5156500" fill="#CC3300" d="M328.294,611.622l20.3-2.694l7.119,13.759l9.909-14.336l8.848,4.908l-3.847,12.12
	l-9.908,21.454l13.18-4.427l8.754-7.697l13.275-22.512l10.969-6.636l8.757,0.575l-21.937,32.998l12.028,10.486l-23.571,8.18
	l-12.123,26.457l25.882,1.059l-18.184,19.242l-11.547,5.483l-30.787,1.635l-7.697,12.697l61.572,8.756l-25.879,7.12l-4.33,5.579
	l12.603,19.725l15.392,1.155l12.701,9.331l38.964-30.786l26.457-25.882l-16.547,27.513L421.13,800.18l-13.178,31.943l7.698,26.362
	l-17.029,34.634l-12.607,21.456l8.755,8.274l9.334-2.214l-13.759,20.302l10.487,15.394l-18.185,46.18l-0.48,31.942l-13.181,13.179
	l-3.369,21.934l30.789-2.694l7.694-8.853l17.03-88.993l21.454-12.698l-13.757-32.423l-4.907-14.817l2.789-14.333l5.965,1.635
	l14.335-15.394l-4.908,18.184l-4.425,18.086l3.847,14.336l13.757,12.122l23.571,26.361l5.002-16.452l8.274-24.821l3.272-17.032
	l11.545-6.06l13.757,1.153l15.875,9.909l-13.181,0.48l-13.179-2.694l-7.697,7.698l-3.849,19.819l5.482,20.878l-9.911,11.542
	l26.459,24.149l6.544,7.117l0.575,30.307l-13.18,10.392l-5.482,9.91l-6.639,11.547l-9.911,28.093l-17.606,17.508l-5.965,18.765
	l3.271,35.114l-12.124-24.729l-8.753,2.79l-1.154,13.759l3.37,18.664l19.722,23.09l5.484,25.306l9.524,5.388l2.601,0.965
	l-11.495-44.839l16.75-9.343l20.24,15.697l4.711,3.561l35.778,26.387l7.71-30.238l-14.817-14.912l8.18-4.907l17.605,12.604
	l26.938,15.393l15.97,4.429l19.24-10.393l6.544-15.391l25.304,1.633l2.789-28.573l42.067,2.591
	c7.104-3.55,14.186-7.148,21.325-10.619c11.131-3.764,17.844-14.109,26.51-21.415c10.076-10.313,21.564-19.29,30.777-30.389
	c9.514-6.71,17.049-15.774,25.763-23.448c8.478-8.438,17.503-16.304,25.947-24.784c4.396-4.484,9.679-8.119,13.458-13.192
	c-0.575-4.749-3.529-8.819-5.281-13.202c-4.349-10.01-9.238-19.784-13.553-29.801c-1.538-2.943,1.098-5.344,3.104-7.117
	c12.324-10.873,24.69-21.708,37.055-32.542c0.814-0.842,1.908-1.486,3.061-1.809l-4.056-7.664l-11.065-12.027l-25.208-2.79
	l-11.546-12.122l-16.549-5.965l-7.119-13.276l-21.454,2.79l-11.546,18.184l-13.757,5.484l-16.453,0.481l-14.334-7.119l-18.121,0.456
	l-34.137-5.575l-32.349-17.958l6.281-5.662l26.78,11.16l33.938,5.555l22.261-11.522l5.602-13.823l27.527-19.515l15.783,8.548
	l30.854-22.384l-39.218-20.167l8.143-6.968l1.927-11.921l-12.679-2.537l-36.896,15.458l12.726-16.203l37.955-8.458l8.384,3.605
	l23.007-24.343l11.085-15.509l9.084-28.126l21.063-23.067l12.893-33.574l8.77-26.284l3.267-23.666l4.425-13.758l15.972-27.993
	l19.241-20.396l-2.786-12.028l-6.062-26.455l-13.756-17.51l-29.153,2.116l-34.632,2.792l-23.09-4.427l-29.633-5.484l-14.816,5.484
	l-15.395-0.482l-22.607-9.428l-19.246,0.578l-10.391,5l-13.757,6.544l-20.877,2.789l-11.547,10.391l-12.698,5.484l-9.331-5.963
	l-9.911,13.661l-13.756,13.757l-6.544-1.058l14.241-20.876l13.756-25.303l32.42-41.754l-14.236,1.636l-23.089,6.541l-11.549,1.157
	l20.877-19.818l0.576-15.973l18.089-7.695l2.792-12.027l27.53-21.441l16.453-11.542l9.905-13.757l10.394-9.331l20.973-11.064
	l13.181-12.027l4.328-17.606l-13.661-4.425l15.876-39.061l-47.819-5.485l7.118,12.121l-2.693,6.062l-29.728-10.487l-27.421,9.333
	l-41.85,5.002l-27.998,6.059l-23.089-12.7l-13.759,6.641l-14.334-6.641l-23.571-14.815l-9.332,9.334l-11.062,22.03l15.395,17.028
	l-14.238,3.851l-7.697,6.061l7.697,25.304l-25.304,6.541l-15.97,3.27l12.12,19.243l4.907,13.756H460.77l-13.758-2.696l22.031,23.091
	l17.513,19.243l-26.941,1.06l-13.662,13.756l-18.762-12.605l-7.119,14.817l-13.182-2.789l-8.848,3.849v23.666l15.97,9.333
	l-17.03,20.396l17.605,17.51l4.906,8.273l-7.116,1.153l-18.665-12.698l-5.004,14.336l-1.634,16.45l10.967,22.032l23.09,1.636
	l-13.661,16.453l-22.032,7.694l-12.604-12.604l-14.913-10.966l-8.177-15.395l3.27-26.458l0.576-19.242l-18.184-32.423
	l-14.333,11.545l1.154,21.455l8.753,16.452l-4.328,5.579l-8.275-8.275l-14.332-13.755l-10.97-4.428l-4.906,8.851l3.27,23.089
	l-16.55-15.392l-5.483,10.967l2.79,18.185l12.121,11.545l8.756,2.118l9.333-15.875l12.699,13.179l-8.85,14.238L328.294,611.622z"/>
<path class="region" region="ENGLAND_London" population="7635285" fill="#CC3300" d="M1164.934,1942.051c5.933-3.671,13.164-2.192,19.753-2.19
	c0.849,2.942,0.431,6.697,3.039,8.827c3.729,3.219,7.471,6.462,11.495,9.327c1.816,1.625,4.271,0.589,6.371,0.239
	c7.274-1.765,14.396-4.337,21.901-5.021c2.072,5.155,4.179,10.309,5.907,15.604c-3.367,4.862-7.907,8.804-11.097,13.787
	c-3.55,11.129-7.984,21.979-11.868,33.009c-1.62,5.318-6.047,9.521-11.071,11.632c-5.007-0.758-9.08-4.388-13.817-6.053
	c-3.755,3.186-7.201,6.702-10.769,10.092c-2.392-2.999-4.536-6.172-6.651-9.348c-2.934-0.369-5.87-0.624-8.79-0.968
	c-1.169-3.32-2.142-6.727-3.767-9.841c-4.43-0.253-6.377,5.154-9.432,7.697c-0.159-3.338,1.659-7.804-1.857-9.947
	c-8.658-6.158-18.045-11.267-26.607-17.546c-0.615-6.013,3.938-11.3,4.291-17.25c-1.042-4.442-3.07-8.563-4.393-12.911
	c6.909-1.473,14.166-1.075,20.927-3.197C1147.608,1953.205,1156.022,1947.186,1164.934,1942.051z"/>
<path class="region" region="WALES" population="2983112" fill="#FF9999" d="M789.658,1956.722c-0.9-10.091-0.97-20.221-1.272-30.335c-0.063-5.755,0.297-11.569-0.87-17.235
	c-0.233-2.172-2.429-3.143-3.909-4.366c-7.905-5.403-15.57-11.149-23.478-16.54c-5.245-4.243-10.388,3.474-15.996,2.208
	c-1.234-1.179-2.155-2.608-2.945-4.079c-6.395-12.554-12.938-25.031-19.119-37.688c-2.035-3.216-0.688-6.956,0.404-10.218
	c6.574-18.65,13.124-37.312,19.609-55.989c-10.959-6.337-22.565-11.497-33.651-17.596c-2.497-0.988-3.863-4.554-1.338-6.301
	c8.536-6.7,17.592-12.737,26.063-19.53c-3.358-2.115-7.27-3.206-10.511-5.49c-2.078-1.604-0.804-4.179-0.116-6.131
	c5.533-12.847,11.568-25.489,16.852-38.436c1.168-2.289-1.047-4.037-2.668-5.22c-5.509-3.952-11.104-7.778-16.617-11.715
	c-1.989-1.458-4.193-3.139-4.526-5.762c2.533-7.612,7.26-14.236,10.436-21.575c1.343-3.476,4.284-6.193,8.105-6.498
	c10.554-1.569,20.974-4.311,31.667-4.773c3.271,4.008,5.353,8.773,8.03,13.169c2.313-0.863,4.692-1.646,6.817-2.932
	c1.666-3.969,0.102-8.334-0.481-12.373c-4.487-1.136-9.137-1.712-13.464-3.388c-3.196-1.199-3.315-5.146-4.116-7.935
	c-1.709-6.863-2.126-14.089-4.7-20.7c-3.626-3.811-9.291-5.049-13.101-8.721c-1.192-1.485-1.259-4.086,0.38-5.297
	c2.656-2.66,5.743-4.848,8.38-7.528c-8.478-6.524-17.472-12.342-26.035-18.74c-2.208-1.577-3.43-3.883-4.374-6.341l-2.809-1.583
	l-22.787-20.598l-42.945,14.899l-19.722-2.63l-15.775-8.324l1.314,12.707l-23.227,8.327l-19.302,3.277l-1.902-3.908l3.311-2.757
	l8.691-11.95l-23.663,0.438l-6.137-12.271l-5.695-17.09l-39.44,3.506l-2.628,17.968l-17.091,3.066l13.146,18.405l8.767,0.877
	l14.898,19.28l12.529,8.613l1.762,3.763l-0.326,0.281l-0.379,19.771l-29.799,22.349l-7.012,1.315l-31.113,34.619l3.943,2.19
	l21.911-7.012l10.956,9.202l6.572-4.382l-0.438-8.766l17.967-14.022l46.451-5.259l-11.395,7.887l2.19,12.708l-2.19,9.642
	l13.584,18.404l-2.189,8.327l-13.585,17.967l11.832,19.721l1.314,13.146l-14.463,40.315l-13.146,15.775l-21.035,9.643
	l-26.731,19.279l-21.473,0.438l-2.63,4.383l-9.203-2.629l-5.259,10.955l-8.766,12.271l-12.271-2.19l-10.079,5.697l-6.135-7.013
	l-11.395,2.191l-1.753,13.585l-33.305,14.021l-0.438,7.013l3.507,5.259l16.652-2.191l10.956,11.395v12.271l-12.271,1.754
	l-8.767,7.012l12.271,13.146l2.19-7.888l21.474,3.506l-14.023,7.45l7.887,10.955l14.024,9.642l14.898-13.586l10.955,2.629
	l10.519-4.382l5.697-14.9l4.382-3.943l32.865,0.438l10.956-7.012l-1.312,11.832l9.202,14.022l17.529-2.63l3.942,5.26l13.146,1.313
	l-15.339,7.449l-12.27-1.752l-6.573,6.135l2.19,9.641l14.462,8.326l9.641-4.821l21.474,0.438l4.819-10.518l3.068-3.067l17.967-3.067
	l16.653,39.002l11.394,0.876l15.776,17.528l33.742,2.629l24.102-3.065l0.438-11.832l28.046-23.227l15.774,4.382l23.227-11.394
	l11.715-13.055C790.835,1959.278,790.015,1958.1,789.658,1956.722z"/>
<path class="region" region="NORTHERN IRELAND" population="1767100" sodipodi:nodetypes="ccccccccccccccccccccccccccccccccccccccccccccccccccccccccccccccccccccccccccccccccccccccccccccccccccccccccccccccccccccccccccccccccc" fill="#FF6666" d="
	M10.334,1256.218l18.473-4.68l7.882-12.808l23.152-0.739l2.462-5.419l15.024-9.853l-18.966-5.912l-0.984-4.926l-4.188-0.738
	l-6.156-13.546h7.882l7.882-8.622l8.62,9.605l15.271-9.113l20.196-0.492l-4.926-4.434v-9.113l8.867-4.68l5.91-12.562l-1.971-7.143
	l0.739-9.853l6.402-7.883l0.985-9.604l14.286-14.285h20.197l16.748,6.649l16.01-40.887l10.838,6.649l19.704,1.231l9.605-9.605
	l15.765-1.23l12.313-9.605h15.271l20.442,11.822l13.793-6.649l13.3,14.285l-0.737,28.571l4.925-3.941l7.882,5.911l0.738,10.591
	l-3.201,0.739l1.478,4.188l4.435,0.492l18.227,30.05l2.956,12.069l5.418,0.246l-4.68-10.837h5.666l10.591,14.285l0.493,11.574
	l-5.419,4.682l-17.98,8.62l-10.591,18.473l0.492,5.665l6.404-4.926l13.055-11.822l30.788-0.247l6.896,18.474l5.665,3.694
	l0.492,14.778l6.897,6.649l-5.174,38.178l-3.448-0.986l-11.329-11.575l0.738-6.896l3.94-2.708l-0.985-12.81l-3.447-10.098
	l-2.71-0.493l-1.231-5.173l-6.402-3.448l-6.896-2.463l-1.231,9.36l4.188,5.664l5.173,8.128l1.231,6.649l-0.985,13.301
	l-10.099,10.099l1.478,2.956l7.881-4.927l7.145-3.94l12.067,14.039l-20.688,27.34l-7.144-7.143l-18.227,0.739l-7.39,9.111
	l2.956,7.636l-3.448,20.196l-27.34,18.474l-6.896-2.709l1.479-2.956h-7.39l-8.62-12.068l-18.228,0.985l-1.971,7.143l-16.994,0.986
	l-21.183,7.635l-10.1-10.346l2.956-5.418l-2.463-4.928l6.403-9.604l-11.084-12.562l-5.665,7.635l-14.039-22.906l-6.896-3.939
	l3.202-3.201l-0.985-13.302l-12.069-7.636l-13.054-7.143l-9.854,14.285l-6.157,2.71l-7.143,8.129l8.62,11.33v9.851l-14.532,4.436
	l0.247,12.562l-12.315,13.054l-4.434-0.984l-12.315-11.33l-5.172,6.156l-14.532-0.244l-18.72-19.459l-16.995,0.984l-8.374-4.68
	l-1.23-18.228l-11.084-2.217l-6.157-16.257l-6.65,2.956L10.334,1256.218z"/>
<path class="region" region="ENGLAND_Yorkshire and The Humber" population="5199610" fill="#FF6666" d="M1180.248,1447.25c-13.193-24.92-26.51-49.774-39.816-74.631
	c-0.934-1.986-2.545-4.891-0.488-6.705c5.084-4.312,11.255-7.115,16.432-11.33c-3.49-2.187-6.949-4.522-10.791-6.027l0.034-0.079
	l-5.264-1.701l-1.601-1.201c-13.762-21.376-27.439-42.806-40.98-64.319c-2.663-3.999-4.625-8.855-8.977-11.347
	c-25.896-13.619-52.617-25.605-78.238-39.759c-13.381,9.3-26.573,18.862-39.907,28.228c0.367,6.072-1.026,11.993-1.971,17.947
	c-6.273-1.235-13.55-2.438-17.611-7.913c-2.617-2.892-4.424-6.604-7.66-8.864c-6.296-2.829-14.293-4.151-20.315-0.03
	c-1.502,2.27-2.273,4.922-3.357,7.397c-3.144-0.354-6.274-1.236-9.447-0.932c-5.19,2.754-9.279,7.206-14.541,9.838
	c-4.217-0.095-6.925-5.785-11.463-4.58c-8.836,1.702-17.609,3.729-26.387,5.699c-4.042,0.516-5.44,4.752-7.367,7.72
	c-2.112,4.005-5.035,7.688-6.265,12.093c-0.594,8.149,1.233,16.248,1.315,24.392c-0.003,1.748-0.32,3.918-2.36,4.365
	c-5.713,2.185-11.979,2.705-17.53,5.326c-4.924,6.607-8.237,14.288-12.44,21.367c3.038,6.538,6.614,12.829,10.704,18.771
	c4.945,0.104,9.91,0.039,14.839,0.619c0.719,3.606,1.261,7.252,1.987,10.864c6.328,2.009,14.351,1.311,18.883,6.936
	c8.071,9.086,15.835,18.462,24.297,27.195c0.013-0.014,0.025-0.026,0.039-0.041l2.389,4.046c-4.116,4.613-9.979,7.927-12.016,14.037
	c-1.686,4.834-3.632,9.579-5.158,14.47c-1.231,3.728,1.12,7.311,2.332,10.729c4.156,0.737,9.896-1.116,12.318,3.411
	c5.684,8.08,11.287,16.225,16.758,24.457c3.224,5.27,9.342,7.434,14.438,10.405c0.004-0.002,0.008-0.004,0.012-0.006l0.163,0.125
	l2.787,3.215c-0.005,0.002-0.011,0.005-0.016,0.007c8.865,15.729,18.833,30.846,28.548,46.065c13.13-1.348,26.148-3.812,39.3-4.871
	c5.896,1.19,11.087,4.593,16.702,6.68c6.583-8.017,11.058-17.42,16.896-25.937c2.637-4.589,9.388-2.786,12.21-7.076
	c3.764-5.237,8.009-10.438,9.705-16.786c2.386-8.877,4.712-17.767,6.945-26.682l0.958-0.332l2.782-0.978l2.557-0.979l1.116-0.938
	c4.365-2.95,8.594-6.103,12.757-9.335c3.077-2.32,6.118-5.049,10.069-5.687c13.553-3.062,27.427-4.892,40.613-9.421
	c5.404-1.592,10.621-3.855,16.161-4.98c2.979-0.659,5.513,1.586,7.562,3.44c6.753,6.55,13.171,13.45,20.003,19.923
	c2.213,2.221,5.433,2.664,8.417,2.96c6.556,0.642,13.092,1.542,19.677,1.909C1188.296,1460.944,1183.827,1454.3,1180.248,1447.25z"
	/>
<path class="region" region="ENGLAND_North East" population="2565541" fill="#FF6666" d="M1007.617,1226.776c-4.507-4.755-8.867-9.654-13.751-14.027
	c-3.651-3.664-7.966-6.992-10.072-11.858c-2.953-6.94-4.099-14.638-8.117-21.114c-0.004,0.006-0.006,0.012-0.011,0.018l-1.045-5.555
	c0.005-0.005,0.009-0.011,0.013-0.016c-4.854-14.538-9.656-29.096-14.636-43.593c-0.002,0-0.002,0-0.003,0l-1.432-4.434
	l-0.026-0.006c-5.895-37.717-11.688-75.45-17.377-113.197c-0.432-2.926-1.217-5.973-3.552-7.979
	c-17.786-17.857-35.332-35.987-53.58-53.374c-5.601,4.152-10.539,9.102-15.914,13.523c-7.441,6.882-15.499,13.109-22.685,20.249
	c-0.243,2.388,1.163,4.523,2.014,6.663c4.603,9.672,8.938,19.468,13.514,29.15c1.391,3.589,4.228,7.195,3.708,11.147
	c-3.436,5.062-8.397,8.846-12.728,13.107c-10.332,10.285-21.293,19.916-31.553,30.274c-7.399,7.285-15.46,13.884-22.489,21.541
	c7.901,11.125,17.627,20.83,25.621,31.895c-3.672,7.24-9.013,13.531-12.415,20.897c0.331,3.442,1.689,6.673,2.636,9.978
	c-2.067,3.883-5.511,7.271-6.544,11.562c2.384,5.676,5.766,10.889,8.854,16.206c6.648-3.713,11.765-9.989,19.188-12.27
	c3.544,4.573,6.885,9.304,10.428,13.884l4.06,7.859l-0.029,0.586c-1.69,6.167-5.669,11.51-8.057,17.431
	c2.178,4.274,6.432,7.113,9.575,10.687c-1.386,3.002-2.945,5.916-4.47,8.85c5.278,7.139,12.028,12.996,17.592,19.895
	c3.661,4.093,2.94,9.936,3.701,14.988c6.365-0.323,12.426-2.474,18.704-3.325c3.304,0.563,5.838,3.141,8.75,4.673
	c4.199-2.902,8.183-6.114,12.464-8.896c2.61-1.797,5.888-0.544,8.806-0.554c1.781-6.72,8.98-8.583,14.913-9.895
	c5.001,1.059,10.127,2.177,14.703,4.536c4.114,3.214,6.294,8.278,10.248,11.684c2.129,1.352,4.618,1.957,6.973,2.828
	c1.035-5.093,2.544-10.188,1.752-15.438c3.769-1.566,7.375-3.51,10.646-5.965C986.457,1241.747,997.27,1234.583,1007.617,1226.776z"
	/>
<path class="region" region="ENGLAND_North West" population="6868896" fill="#FF6666" d="M883.435,1536.22l0.701-3.057c0.981-1.32,1.551-2.928,2.328-4.368
	c-1.139-1.854-2.277-3.701-3.373-5.561c5.712-9.435,12.128-18.423,17.735-27.918c-6.051-8.673-11.979-17.426-17.966-26.139
	c-1.656-2.188-3.357-5.145-6.5-5.049c-0.43-0.083-0.827-0.107-1.209-0.107l0.002-0.01l-0.877-0.065l-1.702-0.159l-1.676-0.358
	l-1.728-0.558l-0.917-0.6l-0.812-0.851l-0.531-1.236l-0.426-1.25l-0.013-0.014c-0.733-2.574-1.903-5.175-2.206-7.741
	c1.164-6.409,4.335-12.248,6.225-18.46c1.493-5.402,6.235-8.759,9.813-12.731c-5.958-8.045-13.105-15.11-19.502-22.793
	c-2.167-2.454-4.173-5.154-6.909-6.996c-5.219-2.276-11.114-2.229-16.385-4.33c-2.269-2.842-1.023-7.248-2.908-10.418
	c-4.365-0.723-8.81-0.45-13.207-0.61c-4.671-7.239-10.008-14.493-12.635-22.705c2.988-7.067,7.522-13.375,10.718-20.359
	c-0.003,0.001-0.006,0.002-0.008,0.002l1.115-1.913l1.648-2.446l1.282-1.094c5.955-1.464,11.918-2.909,17.781-4.696
	c-0.321-8.346-1.607-16.652-1.525-25.005c0.801-4.571,3.951-8.278,6.042-12.324c2.225-3.43,3.685-7.565,6.944-10.186
	c3.395-1.513,7.136-1.959,10.747-2.727c-0.301-4.293,0.395-9.015-1.794-12.9c-5.861-7.99-14.004-14.112-19.429-22.437
	c-0.721-3.203,2.458-6.072,3.565-9.021c-2.917-3.456-7.015-6.154-8.929-10.294c1.291-6.947,5.967-12.744,8.818-19.137
	c-3.953-5.679-7.674-11.522-12.031-16.901c-6.556,4-12.116,9.48-19.02,12.923c-3.804-5.409-6.764-11.332-9.996-17.078
	c-0.942-1.923-2.195-3.825-2.312-6.015c1.521-3.932,4.651-6.958,6.357-10.794c-0.019-4.296-3.706-8.711-1.141-12.812
	c3.436-5.95,7.506-11.511,10.903-17.487c-8.074-9.617-15.736-19.613-24.349-28.76c-17.507,16.591-34.963,33.25-52.471,49.833
	c-3,1.798-6.907,1.282-10,3.054c-8.839,4.382-17.679,8.77-26.474,13.23c-4.369,1.905-4.829,7.128-6.505,11.005
	c-3.358,8.489-5.349,17.812-11.462,24.894c-5.375,7.952-12.529,15.143-14.9,24.715c-2.985,9.981-6.186,19.901-9.15,29.892
	c-0.986,2.317,0.694,4.446,1.603,6.479c9.593,17.45,19.035,34.983,28.572,52.466c3.529,6.23,6.528,12.773,10.562,18.715
	c4.812-2.232,9.195-5.36,14.203-7.165c2.113,0.258,3.263,1.444,3.445,3.562c-1.051,6.535-4.767,12.403-5.42,19.021
	c1.621,3.023,3.961,8.19,7.842,7.833c6.6-7.691,11.555-16.643,17.526-24.814c1.466,0.229,2.913,0.561,4.344,0.987
	c3.012,3.555,4.646,8.056,7.639,11.646c3.945-3.018,7.538-7.079,12.429-8.465l3.393,3.78c-0.005,0.001-0.011,0.001-0.016,0.002
	c2.054,4.898,4.812,9.451,7.126,14.226c0.805,1.659,1.523,4.217-0.438,5.41c-4.543,3.259-9.648,5.629-14.422,8.526
	c1.263,6.641,5.273,12.282,7.278,18.666c1.124,2.771-1.499,4.942-3.674,6.071c-6.707,3.54-13.595,6.73-20.233,10.404
	c-0.532,9.892-1.195,19.829-0.755,29.732c1.531,6.422,6,11.574,9.194,17.257l0.041,0.917l-0.426,3.431l-0.689,2.791l-0.333,1.072
	c-0.005-0.018-0.008-0.034-0.014-0.052c-6.208,10.151-11.633,20.812-16.892,31.462c1.72,8.834,6.812,16.723,8.382,25.597
	c-0.172,0.55-0.516,1.645-0.688,2.193c-6.522,4.251-13.979,6.803-20.946,10.221c1.347,7.424,4.347,14.41,7.199,21.358v0.001
	l0.001,0.001c0.004,0.011,0.009,0.021,0.013,0.031c0.002-0.001,0.004-0.003,0.007-0.005l2.853,3.907l0.182,0.017
	c8.565,7.438,18.552,13.023,27.333,20.186c2.019,1.109,2.158,4.064,0.449,5.536c-2.572,2.709-5.618,4.903-8.377,7.413
	c4.364,3.735,11.864,5.112,12.896,11.633c1.618,7.737,3.027,15.527,5,23.192c4.323,1.21,8.737,2.108,13.02,3.5
	c6.392,2.832,12.812-1.549,19.146-2.526c2.612,4.076,4.771,8.418,6.684,12.869c7.999-3.701,15.97-7.65,23.423-12.348
	c2.564-3.903,1.107-9.365,3.113-13.604c5.539-4.715,12.906-6.569,18.69-10.948c6.115-5.5,10.975-12.235,16.845-17.965
	c6.316-4.173,13.566-6.701,20.354-10.011c-1.042-10.869-4.449-21.382-7.218-31.92v-3.367H883.435z"/>
<path class="region" region="ENGLAND_South West" population="5194440" fill="#FF6666" d="M952.729,2004.99c1.858-2.181,3.761-4.315,5.666-6.447
	c-8.685-16.677-15.85-34.064-23.814-51.082l-1.005-2.831l-0.585-3.031l-0.215-2.393c2.555-23.156,5.797-46.241,7.844-69.445
	c-0.266-4.321,1.404-9.729-2.32-12.975c-4.402-4.662-8.771-9.353-13.332-13.851c-4.758,2.178-9.511,4.396-13.996,7.103
	c2.973,4.124,6.515,7.826,9.258,12.127c-0.217,0.659-0.649,1.979-0.865,2.637c-15.976,1.873-32.232,0.924-48.24,2.765
	c-7.521,2.127-14.414,6.02-21.871,8.367c-3.107-2.739-5.771-6.01-9.216-8.328c-6.062-1.665-12.424-1.056-18.628-1.078
	c0.124,8.291,1.688,16.568,0.984,24.867c-1.581,2.062-3.984,3.259-6.127,4.646c-7.559,4.372-15.096,8.779-22.497,13.412
	c0.615,13.528,0.611,27.09,1.526,40.604c5.824-3.859,9.092-10.483,15.151-14.066c0.862,0.618,2.588,1.854,3.45,2.475
	c-1.244,6.357-6.596,10.637-9.677,16.093c-4.5,7.477-9.991,14.226-15.663,20.826l-0.83,0.616l-6.168,6.434l-2.659,2.979
	l-1.328,1.436l-0.007,0.047c-11.983,13.018-23.918,26.079-35.835,39.157c-1.174,1.396-2.837,2.814-2.588,4.864
	c0.104,7.626,2.747,15.089,2.128,22.741c-0.755,3.097-4.432,3.383-7.019,3.868c-16.658,2.146-33.286,4.516-49.934,6.757
	c-3.921,0.364-8.15,1.135-11.854-0.62c-6.374-3.018-12.407-6.71-18.828-9.623c-2.062-1.275-4.43-0.223-6.592,0.088
	c-4.935,1.165-9.815-0.726-14.655-1.52l-3.562-1.052l-3.005-0.532l-0.036,0.022c-5.994-1.708-12.231-0.023-18.221,0.875
	c-16.819,2.934-33.716,5.413-50.525,8.405c-4.538,0.26-5.382,5.615-6.153,9.166c0.885,5.914,5.646,10.51,6.564,16.455
	c-1.857,5.11-6.654,8.295-10.191,12.2c-3.544,3.146-6.33,7.52-10.834,9.345c-9.393-0.598-18.148-4.697-27.456-5.9
	c-1.544,4.446-2.806,8.989-3.803,13.602l-0.175,0.141l-1.3,4.832c-0.004,0.001-0.007,0.001-0.011,0.001
	c-0.566,9.681-0.602,19.385-0.668,29.081c0.05,2.682-0.624,5.596-2.904,7.291c-9.938,7.729-20.611,14.51-30.479,22.324
	c-3.003,4.867,0.381,12.372-4.022,16.688c-5.841,3.607-12.505,5.635-18.688,8.594c-6.821,3.281-14.396,4.097-21.733,5.55
	c-0.991,7.104,0.508,14.438-0.987,21.446c-6.395,8.181-14.927,14.396-22.256,21.707c-12.246,12.244-25.151,23.798-37.513,35.922
	c-1.269,1.133-2.733,2.077-4.369,2.623c-3.904-1.082-6.943-3.964-10.278-6.112c-7.583,2.682-14.809,6.245-22.246,9.297
	c-2.645,1.277-5.968,2.344-7.14,5.343c-1.729,4.432-3.168,8.991-4.384,13.603c-1.359,3.802,2.33,6.694,4.843,8.915
	c5.284-0.282,10.561-1.848,15.411-3.919c5.074-4.184,7.163-11.03,12.454-14.976c4.73,0.114,8.839,2.85,13.176,4.435
	c5.644,2.708,12.862,3.954,16.176,9.87c4.957,8.414,9.397,17.137,14.613,25.406c6.41-4.291,12.13-9.494,18.088-14.365
	c-3.825-4.803-9.21-7.959-13.421-12.368c0.5-0.774,1.502-2.325,2.004-3.101c6.521-3.545,14.148-4.45,20.844-7.617
	c5.291-4.043,5.779-12.127,11.587-15.703c6.646-2.439,14.294-1.408,20.622-4.742c5.107-8.197,7.069-18.146,12.728-25.979
	c8.995-2.124,18.394,1.304,27.543,1.483c7.536,1.183,11.498-7.245,18.192-8.885c5.103-0.497,10.24-0.139,15.359-0.249
	c3.35,0.118,7.215-0.504,9.92,1.98c4.66,4.104,8.769,8.81,13.441,12.92c1.596-1.426,3.219-2.838,4.576-4.479l0.99-0.618l2.553-4.68
	l1.652-0.027c1.388,0.608,2.783,1.219,4.083,2.022c1.24,2.032,1.802,4.389,2.633,6.626c8.146,1.602,16.396,2.633,24.538,4.248
	c8.468,1.516,8.494,13.897,17.026,15.232c8.475,1.899,16.947,3.858,25.547,5.148c-0.095-4.926-0.873-9.78-1.324-14.66
	c-0.201-1.702,0.439-3.727,2.037-4.521c5.033-2.651,11.103-2.763,15.934-5.823c2.143-3.578,3.171-7.679,4.523-11.577
	c-2.775-3.403-6.823-6.109-8.312-10.342c1.19-4.309,6.204-6.08,9.242-9.012c-0.64-3.141-2.45-6.451-0.964-9.603
	c2.368-6.012,5.455-11.711,7.887-17.693c1.246-2.596,2.122-5.698,4.683-7.319c4.6-1.827,9.746-0.805,14.439-2.184
	c5.176-3.85,7.74-11.105,14.396-12.828c6.138-1.812,12.46-2.882,18.664-4.432c10.088-1.98,19.272-6.762,28.732-10.579
	c-0.001-0.01-0.001-0.019-0.002-0.027l0.444-0.142l2.604-0.4l2.766,0.081l0.629,0.144c0.019,0.013,0.034,0.027,0.054,0.041
	c7.229,2.268,15.379,0.971,22.162,4.731c15.792,10.035,30.976,21.06,47.045,30.656c1.297-3.856,2.172-7.876,3.979-11.528
	c2.103-1.529,4.797-1.156,7.223-0.97c21.613,2.442,43.105,6.031,64.743,8.187c1.727-7.383,0.137-15.67,3.773-22.465
	c11.411-3.923,24.229-2.089,35.429-6.921c-1.46-2.055-2.812-4.273-4.917-5.711c-2.127,0.204-4.198,0.751-6.283,1.146
	c-2.13-7.121-3.351-14.461-5.049-21.68c-2.345-0.327-4.69-0.646-7.017-0.971c0.435-4.902,1.623-9.683,2.786-14.443
	c-2.3-0.293-4.588-0.617-6.866-0.938c-3.609-5.624-6.979-11.398-10.791-16.88c-0.006,0.004-0.011,0.007-0.016,0.011l-0.479-1.298
	l-0.267-1.701l0.267-1.275l0.744-0.798l0.182-0.109c3.12-0.919,6.633-0.793,9.797-1.435c3.954-0.356,8.256-2.103,12.012,0.009
	c8.217,4.152,15.952,9.211,24.264,13.211c4.584-2.931,2.35-8.293,1.809-12.601c-2.475-16.843-4.987-33.68-7.679-50.485
	c7.403-3.913,15.679-5.781,23.12-9.599c1.264-3.001,0.808-6.364,0.933-9.519C961.009,2024.953,955.145,2015.323,952.729,2004.99z"/>
<path class="region" region="ENGLAND_East Midlands" population="4413206" fill="#FF6666" d="M1223.186,1561.409c-7.951-17.411-15.861-34.838-23.625-52.331
	c-1.312-2.688-2.515-5.725-5.195-7.323c-3.778-2.312-7.981-3.916-11.399-6.786c-6.31-4.955-13.957-8.077-19.611-13.863
	c-8.352-8.405-16.74-16.774-25.08-25.189c-1.627-1.414-3.225-3.562-5.655-2.965c-8.41,0.642-16.713,2.232-25.06,3.367
	c-4.089,0.753-8.026-1.604-12.096-0.76c-5.974,1.139-11.992,2.161-17.842,3.81c-8.962,4.395-15.25,13.586-25.301,15.85
	c-2.264,7.573-4.118,15.265-6.146,22.904c-0.157,0.513-0.278,1.029-0.383,1.547l-0.021,0.056l-0.488,2.183l-1.24,4.078l-1.071,2.029
	l-1.334,1.806l-0.545,0.714l0.001,0.006c-2.4,3.125-4.522,6.45-6.914,9.582c-2.821,4.265-9.58,2.479-12.143,7.039
	c-3.983,6.365-7.96,12.755-11.681,19.28c-0.211,0.312-0.365,0.624-0.495,0.937l-0.73,1.289l-1.969,3.243l-1.382,1.914l-0.602,0.802
	c-5.443-1.584-10.584-3.975-15.715-6.35c-4.397-2.407-9.39-0.587-14.021-0.162c-9.828,1.196-19.608,2.944-29.488,3.604
	c-3.029-0.218-4.233-3.799-5.876-5.904c-8.157-13.641-16.854-26.945-25.129-40.514c-2.087-3.859-6.088-5.888-9.819-7.807
	c-5.591,7.496-10.357,15.56-15.492,23.365c4.051,6.791-3.228,13.409-1.069,20.425c2.149,8.909,4.195,17.855,6.572,26.71
	c0.892,4.201,5.429,5.627,8.602,7.762c5.366,3.359,11.418,5.753,16.242,9.912c2.488,11.654,3.218,23.688,4.606,35.531
	c0.905,4.764-4.733,6.005-7.657,8.352c-0.55,7.029-1.025,14.064-1.438,21.109c12.234,5.661,25.269,9.369,37.675,14.641
	c-0.373,1.719-0.49,3.604-1.646,5.045c-5.046,7.21-11.416,13.432-16.072,20.914c4.022,2.723,8.162,5.309,12.638,7.247l0.201,0.248
	l2.245,1.755l1.726,1.185c-0.002,0.007-0.004,0.014-0.005,0.02c2.279,1.634,4.579,3.254,6.878,4.889
	c-0.431,4.372-1.876,8.614-2.025,13.016c8.16,13.647,25.29,16.594,37.17,25.819c5.257,7.803,8.601,16.751,13.639,24.715
	l-0.003,0.032l1.24,1.823l1.62,1.893c0.261,2.133,0.496,4.273,0.779,6.421c-1.465,1.197-2.928,2.396-4.388,3.604
	c2.222,5.601,0.897,11.702-0.356,17.37c-0.834,3.401-4.398,4.93-6.81,7.088c0.862,4.006,1.825,8.021,1.971,12.147
	c-4.065,0.21-10.812,0.54-9.534,6.437c3.186,5.678,8.376,9.976,11.322,15.85c-3.297,1.965-6.77,3.603-10.248,5.206
	c2.608,7.254,4.867,14.632,7.487,21.891c5.783-1.426,11.263-3.809,16.806-5.949c0.007-3.241-0.038-6.478,0.019-9.701
	c8.857-3.413,17.939-6.658,27.269-8.438c3.41,3.08,5.015,7.566,7.602,11.295c2.83-3.006,5.368-6.261,7.896-9.517
	c-2.352-3.72-4.92-7.3-7.019-11.162c9.294-7.891,20.178-13.713,29.497-21.519c2.089-6.344,4.27-12.654,6.124-19.069
	c4.871,0.345,9.662,1.374,14.533,1.806c1.678-4.381,2.873-9.627,7.959-11.155c-0.798-4.739-2.647-9.435-2.281-14.271
	c5.734-5.368,12.972-8.814,18.844-14.003c1.532-4.745,1.677-9.793,2.285-14.703c-3.028-2.395-6.159-4.645-9.327-6.828
	c-0.266-3.446-0.432-6.895-0.738-10.324c-3.17-0.335-6.341-0.587-9.491-0.959c-0.812-4.037-1.42-8.107-2.173-12.144
	c-0.009,0.017-0.015,0.031-0.021,0.046l0.084-0.448l0.15-2.481l0.978-1.69l0.482-0.307c10.133-2.634,19.061-10.084,29.95-9.188
	c7.73,0.057,15.467,0.057,23.203,0.044c7.227,0.044,14.625-0.632,21.62,1.663c1.705-5.477,1.71-11.983,5.486-16.504
	c6.459-2.058,13.57-1.662,19.765-4.706c3.771-3.714,6.639-8.245,9.831-12.449c-11.434-7.228-23.739-12.996-35.151-20.231
	c-3.109-1.599-1.854-5.826,0.322-7.688c11.682-13.229,23.584-26.256,35.316-39.434c1.71-1.974,3.178-4.307,3.159-7.01
	c0.485-7.364,1.386-14.695,1.795-22.061C1226.084,1567.462,1224.541,1564.362,1223.186,1561.409z"/>
<path class="region" region="ENGLAND_West Midlands" population="5393394" fill="#8B0000" d="M997.32,1786.156c2.826-3.062,6.537-5.107,9.647-7.854
	c-4.4-8.983-9.299-17.711-13.779-26.649c-2.046-4.858-7.509-6.333-11.623-8.889c-10.669-6.003-23.614-10.746-29.062-22.619
	c0.158-3.867,1.321-7.597,2.106-11.359c-2.104-1.484-4.23-2.937-6.375-4.33c-0.003,0.007-0.006,0.015-0.009,0.021l-0.995-0.844
	l-3.046-1.69l-0.633-0.377c0-0.007,0.001-0.013,0.002-0.019c-4.253-2.968-8.925-5.351-12.881-8.712
	c-0.846-2.681,1.424-4.819,2.818-6.808c4.836-5.818,9.631-11.669,14.151-17.737c-11.626-5.991-24.534-8.941-36.319-14.584
	c0.017-7.848,0.893-15.656,1.194-23.489c-0.115-4.449,4.855-5.841,7.803-8.029c-0.687-10.087-2.337-20.071-3.28-30.131
	c0.069-5.089-5.449-6.54-8.904-8.898c-5.003-2.562-9.533-6.262-14.961-7.841c-4.567,1.498-8.739,3.974-13.188,5.771
	c-11.786,4.172-16.3,17.418-26.514,23.761c-5.044,2.714-10.245,5.127-15.208,7.993c-0.481,3.226-1.015,6.458-1.09,9.729l-0.52,1.641
	l-1.165,2.293l-2.067,1.919l-1.43,0.751l-0.043,0.038c-8.549,4.059-16.584,9.137-25.315,12.827
	c-2.576-4.251-4.719-8.733-6.802-13.231c-4.45,0.665-8.81,1.82-13.049,3.313c-0.014,4.771,1.659,9.958-0.227,14.482
	c-3.933,3.522-9.146,5.627-14.217,6.937c-4.715-3.37-6.301-9.393-9.476-14.018c-7.791,0.974-15.513,2.411-23.257,3.68
	c-3.006,0.596-6.838,0.893-8.17,4.18c-3.128,6.166-6.772,12.114-9.135,18.642c7.946,6.509,16.876,11.703,24.725,18.345
	c-1.59,7.573-5.546,14.317-8.456,21.418c-3.357,8.085-7.513,15.85-10.277,24.175c4.51,2.096,9.209,3.746,13.719,5.859
	c-0.476,1.75,0.051,4.142-1.579,5.389c-8.494,6.921-18.19,12.366-26.094,20.014c10.908,5.771,21.85,11.512,32.999,16.81l0.396,0.668
	l0.677,2.069l-0.226,2.142l-0.939,2.406l0.013,0.226c-0.086,0.229-0.172,0.457-0.241,0.697
	c-5.731,16.562-11.502,33.115-17.386,49.628c-0.982,3.006-2.316,5.998-2.427,9.214c1.433,4.665,4.104,8.827,6.281,13.174
	c4.574,8.455,8.427,17.291,13.26,25.61c3.711-1.208,7.271-3.067,11.19-3.513c3.259,0.967,5.911,3.246,8.687,5.136
	c8.744,6.471,17.802,12.507,26.501,19.042c8.469-4.708,16.763-9.729,25.038-14.766c0.562-9.129-1.5-18.204-0.705-27.312
	c5.465-0.425,10.951-0.325,16.43-0.533l1.156,0.242l2.873,0.426l3.03,0.904l1.705,0.876c2.5,2.056,4.806,4.354,7.111,6.63
	c5.646-1.705,10.965-4.275,16.438-6.439c5.689-2.484,12.023-1.479,18.038-2.063c9.86-0.85,19.793-0.376,29.631-1.543
	c-2.867-3.973-6.417-7.483-8.684-11.854c3.776-4.604,10.16-5.896,15.089-9.007c-0.007-0.006-0.014-0.01-0.02-0.014l4.515-2.479
	l0.069,0.017c3.341,2.336,6.438,4.98,9.041,8.257c3.475,4.297,8.393,7.504,10.86,12.558c0.646,5.22,0.104,10.502,0.21,15.756
	c4.325-2.533,9.134-4.562,12.705-8.159c4.743-9.716,6.203-20.814,11.438-30.322c4.253,0.95,8.44,2.171,12.679,3.218
	c3.354-6.115,4.384-13.22,8.164-19.123c1.268-2.86,4.86-2.487,7.389-3.4c-0.85-3.301-1.622-6.615-2.293-9.94
	c2.488-2.049,5.513-3.563,7.502-6.151c1.204-3.338,1.125-6.954,1.404-10.438C1001.508,1789.041,996.276,1790.189,997.32,1786.156z"
	/>
<path class="region" region="ENGLAND_South East" population="8332007" fill="#CC3300" d="M1402.672,2051.417c-1.855-8.869-3.957-17.684-5.765-26.556
	c-1.578-6.959,3.449-12.979,4.935-19.506c-11.215,1.353-22.07,4.642-33.215,6.396c-8.629,1.288-17.141,4.758-25.921,4.114
	c-7.779-4.596-12.693-13.311-21.577-16.125c-9.189-3.239-18.025-7.579-27.607-9.59c-7.761-1.67-15.389-3.907-23.157-5.491
	c-1.922-0.073-4.854-1.242-5.852,1.115c-2.442,3.797-3.094,8.993-7.055,11.641c-5.661-0.447-10.919-2.945-16.514-3.726
	c-2.729,0.412-4.996,2.296-7.715,2.78c-3.397-1.625-5.853-4.618-8.64-7.046c-3.943,10.437-7.543,21.003-11.587,31.402
	c-1.79,4.337-6.582,6.259-9.336,9.805l-1.527,0.795l-1.429,0.526l-1.578,0.074l-2.406-0.751l-2.03-1.055l-0.625-0.155
	c-2.595-1.526-5.531-2.575-8.229-3.807c-2.521,2.505-4.978,5.077-7.529,7.554c-1.553,1.279-3.14,3.688-5.409,2.332
	c-2.995-2.924-4.896-6.708-7.208-10.135c-3.117-0.402-6.237-0.723-9.346-1.062c-1.097-2.427-2.116-4.873-3.164-7.296
	c-3.862,3.436-6.137,9.492-11.854,10.047c-0.15-4.587,0.495-9.125,0.688-13.684c0.193-1.832-1.818-2.653-2.971-3.603
	c-7.498-4.809-14.941-9.698-22.438-14.5c-0.001,0.001-0.001,0.002-0.002,0.003l-0.489-0.472l-1.58-0.901l-1.354-1.091l-0.338-1.504
	l0.301-3.31l0.6-2.158c0.16-0.392,0.319-0.782,0.479-1.172c-0.013-0.004-0.025-0.008-0.037-0.012l0.311-0.681l1.092-2.933v-0.163
	c0.701-2.452,1.61-4.866,1.888-7.4c-1.312-5.609-4.505-10.555-5.966-16.104c-1.987-9.49-5.14-18.688-8.21-27.864
	c-4.66-1.451-9.949-1.562-14.146-4.052c-4.504-5.94-8.765-12.118-12.674-18.461c-2.605-3.643,1.948-6.605,4.889-7.84
	c4.72-1.322,5.663,6.311,10.226,6.168c3.595,0.164,7.174-0.433,10.741-0.874c0.251-2.112,0.51-4.214,0.734-6.311
	c-7.572-3.145-15.377-5.783-22.625-9.644c1.424-6.291,4.049-12.211,5.784-18.4c1.088-6.273-2.518-12.514-1.321-18.754
	c3.309-4.891,7.825-8.787,11.609-13.289c-2.95-7.005-6.143-13.908-9.73-20.604c-9.264,6.326-18.597,12.572-27.577,19.299
	c1.919,3.421,5.19,6.421,5.749,10.412c-1.643,4.157-5.039,7.318-7.664,10.871c-1.782,1.833-3.614,5.267-6.646,3.862
	c-2.687-3.858-4.623-8.163-7.044-12.175c-7.237,2.043-14.484,4.104-21.54,6.714c0.137,1.84,0.294,3.691,0.47,5.556
	c0.021,0.003,0.041,0.004,0.062,0.007l-0.249,2.456l-0.978,2.558l-0.211,0.139c-7.651,1.58-14.616,5.943-22.308,7.577
	c-4.144-9.271-7.315-19.028-9.912-28.811c1.661-3.215,5.782-3.692,8.68-5.398c-2.364-3.361-4.989-6.525-7.784-9.521
	c-1.835,3.938-3.557,7.931-5.376,11.88c-4.455-0.386-8.771-1.584-13.031-2.854c-3.36,8.182-5.699,16.729-8.779,25.018
	c-1.503,5.553-7.679,7.224-11.906,10.202c-2.562,1.898-6.717,3.087-6.916,6.837c-2.23,17.104-3.936,34.279-6.283,51.372
	c-0.281,3.46-1.177,7.203,0.489,10.48c4.864,10.571,9.488,21.261,14.521,31.761c0.008-0.005,0.016-0.009,0.023-0.014l0.104,0.287
	l2.896,6.131l0.03,0.017c2.42,5.707,5.819,10.973,7.917,16.841c-1.979,2.246-3.994,4.465-5.961,6.73
	c3.337,5.547,3.187,12.326,6.256,17.957l0.292,1.841l0.338,3.232l-0.074,2.33l0.038,0.126c-0.337,5.458,0.424,11.007-0.711,16.369
	c-7.139,3.778-15.018,5.918-22.373,9.236c2.217,15.801,4.883,31.535,7.065,47.345c0.446,3.892,1.635,7.782,1.236,11.731
	c-1.752,2.834-4.834,4.427-7.445,6.355c-9.102-4.221-17.349-10.064-26.418-14.309c-5.022-0.908-10.091,1-15.096,1.452
	c2.469,4.995,5.55,9.649,8.546,14.347c3.034-0.024,6.068-0.084,9.114,0.002c-0.44,4.464-1.327,8.873-2.252,13.27
	c1.625,1.069,3.437,1.944,4.834,3.361c2.017,5.596,2.794,11.562,4.295,17.32c6.684,1.592,9.681,8.707,15.864,11.216
	c3.984,1.641,8.264,2.379,12.456,3.327c2.071-3.248,3.248-7.416,6.486-9.697c7.605-3.15,16.014-3.555,23.868-5.889
	c3.184-1.216,4.894-4.431,6.891-6.977c-1.905-5.256-5.566-9.773-6.868-15.229c0.926-1.287,1.939-2.493,3.042-3.617
	c11.667,7.962,22.062,17.79,33.948,25.374c9.041,0.427,18.221-0.179,27.291-0.652c0.004-0.021,0.008-0.041,0.012-0.062l1.071,0.104
	l1.382-0.159l2.128-0.957l0.339,0.073c8.91,3.547,16.222,10.018,24.995,13.814c2.037-4.34,3.864-8.774,6.153-12.983
	c24.465-4.858,49.091-8.875,73.584-13.593c0-0.004,0-0.008-0.001-0.012l0.562-0.021l1.541-0.376l2.48-0.846h0.255
	c0,0.001,0,0.003,0,0.004c13.383,5.47,27.431,9.192,41.058,14.04c9.744,2.732,19.141,7.212,29.156,8.677
	c5.924-5.596,10.106-12.726,15.602-18.705c2.317-2.435,5.716-3.233,8.79-4.279c10.268-2.991,20.508-6.086,30.764-9.125
	c11.733-3.257,17.771-16.649,30.033-18.58c-0.007-0.01-0.016-0.019-0.021-0.028l1.165-0.014l1.861-0.338l2.011,0.037l2.5,0.376
	l0.736,0.212c4.025,2.021,8.659,2.891,13.133,3.178c-0.029-4.838-1.594-10.013,0.775-14.537c2.152-4.683,4.569-9.233,6.84-13.854
	c1.343-2.473,2.681-5.426,5.557-6.397c7.051-2.604,15.021-2.637,21.524-6.709c9.065-5.491,18.033-11.151,26.99-16.817
	C1403.962,2057.082,1402.995,2053.723,1402.672,2051.417z"/>
<path class="region" region="SCOTLAND" population="5156500" fill="#CC3300" d="M1437.58,1733.495c-0.291-1.679-0.426-3.585-0.878-5.325l0.046-0.341l-1.017-5.339
	l-0.714-4.098l-0.127-0.239c0.009,0.001,0.017,0.001,0.024,0.002c-1.82-11.96-3.865-23.886-5.845-35.812
	c-0.52-4.51-4.629-7.089-7.714-9.851c-13.989-11.751-27.786-23.727-41.764-35.484c-4.933-4.788-12.257-4.258-18.491-5.81
	c-13.863-2.018-27.516-6.386-41.647-5.695c-18.438,0.092-36.877-0.069-55.312,0.054c-2.852-0.511-4.094,2.346-5.013,4.463
	c-5.585,13.354-11.11,26.737-16.835,40.033c-1.314,2.161-2.049,5.928-5.256,5.625c-4.498-1.393-8.377-4.226-12.697-6.038
	c-4.297,4.921-8.16,10.198-12.438,15.134l-1.628,0.853l-1.391,0.47l-1.692,0.074h-1.408l-0.076,0.031
	c-4.221,0.46-8.42,1.059-12.574,1.885c-2.07,6.094-3.225,12.452-5.338,18.539c-4.855-0.352-8.974-3.587-13.873-3.624
	c-10.322-0.168-20.646,0.058-30.967-0.081c-10.594-0.559-19.791,5.585-29.363,9.153c0.195,3.188,0.521,6.379,1,9.553
	c3.264,0.395,6.545,0.676,9.82,1.096c0.243,3.792,0.412,7.601,0.748,11.397c3.17,2.335,6.397,4.592,9.602,6.899
	c-0.512,6.564-0.334,13.518-2.714,19.706c-5.612,5.017-12.354,8.605-18.287,13.234c0.532,3.166,0.496,6.682,2.326,9.451
	c0.003,0.003,0.006,0.005,0.008,0.008l0.132,0.449l0.527,2.688l-0.451,1.768l-0.902,1.447l-1.09,1.053l-1.113,0.834
	c-0.833,0.242-1.667,0.485-2.501,0.723c-1.517,3.373-3.009,6.76-4.728,10.041c-4.617-0.438-9.188-1.172-13.738-1.988
	c-0.814,4.072-2.767,8.038-2.646,12.235c2.967,9.095,8.7,17.058,11.511,26.214c-1.551,4.216-5.447,6.929-8.288,10.25
	c-1.521,1.898-4.249,3.558-3.729,6.355c0.293,4.795,1.875,9.452,1.817,14.285c-1.249,5.854-3.822,11.33-5.379,17.109
	c7.063,3.148,14.312,5.874,21.387,9.012c0.203,1.367,0.378,2.771,0.652,4.14l-0.65,5.631l-0.526,2.48l-1.202,0.902l-0.822,0.211
	c-5.475,0.409-10.998,1.69-16.44,0.762c-2.487-1.866-4.633-4.139-7.163-5.926c1.452,6.165,5.924,10.953,9.313,16.138
	c3.571,5.882,12.316,3.016,16.698,7.519c4.307,9.313,5.61,19.732,9.966,29.056c6.77-1.029,13.804-0.873,20.357-2.999
	c10.11-5.191,19.237-12.168,29.332-17.384c5.504-1.135,11.221-0.251,16.813-0.723c0.003-0.007,0.005-0.014,0.008-0.021l3.296,0.136
	l2.067,1.729l0.233,0.436c0.281,2.355,0.797,4.701,1.363,6.988c3.091,3.314,6.805,6.041,10.476,8.701
	c1.729,1.388,3.956,0.217,5.863-0.081c7.518-2.055,15.067-4.004,22.697-5.618c3.933,6.833,7.091,14.407,8.604,22.12
	c-3.396,5.258-8.108,9.5-11.839,14.516c2.33,2.41,4.842,4.646,7.351,6.891c2.055-0.914,4.039-2.075,6.279-2.511
	c5.615,0.802,10.953,2.95,16.589,3.771c2.877-4.89,4.401-10.487,7.61-15.17c2.83-1.519,6.193-0.939,9.282-1.348
	c10.63-0.986,21.271-1.923,31.89-3.057c3.969-0.112,6.08-3.819,8.285-6.561c4.711-6.667,10.355-12.708,14.499-19.746
	c0.993-6.791,0.31-13.724,0.458-20.564c0.677-5.531-4.987-8.376-7.035-12.843c-0.206-1.856,0.54-3.144,2.238-3.863
	c11.014-2.028,22.522-0.107,33.405-2.646c7.095-5.216,13.202-11.722,19.347-18.017c-3.05-1.541-8.869-1.56-8.352-6.238
	c2.147-4.562,6.551-7.509,9.811-11.234c-0.011-0.003-0.02-0.005-0.028-0.009l3.849-4.09l2.09-2.377
	c1.545-1.206,2.87-2.874,4.271-4.136c9.062-9.827,19.073-18.712,28.276-28.401c2.087-2.084,2.571-5.096,3.247-7.83
	c4.816-22.702,10.202-45.276,14.959-67.99C1436.115,1749.061,1438.793,1741.385,1437.58,1733.495z"/>
</svg>
