<?xml version="1.0" ?>
	<!-- Generator: Adobe Illustrator 15.0.2, SVG Export Plug-In . SVG Version: 6.00 Build 0)  -->
<!DOCTYPE svg
  PUBLIC '-//W3C//DTD SVG 1.1 Basic//EN'
  'http://www.w3.org/Graphics/SVG/1.1/DTD/svg11-basic.dtd'>
	<svg baseProfile="basic" height="2116px" id="svg2" inkscape:output_extension="org.inkscape.output.svg.inkscape" inkscape:version="0.46" sodipodi:docbase="/home/marnanel" sodipodi:docname="H1N1_United_Kingdom_Map - Region.svg" sodipodi:version="0.32" version="1.1" viewBox="0 0 1450.92 2116" width="1450.92px" x="0px" xml:space="preserve" xmlns="http://www.w3.org/2000/svg" xmlns:cc="http://creativecommons.org/ns#" xmlns:dc="http://purl.org/dc/elements/1.1/" xmlns:inkscape="http://www.inkscape.org/namespaces/inkscape" xmlns:rdf="http://www.w3.org/1999/02/22-rdf-syntax-ns#" xmlns:sodipodi="http://sodipodi.sourceforge.net/DTD/sodipodi-0.dtd" xmlns:svg="http://www.w3.org/2000/svg" xmlns:xlink="http://www.w3.org/1999/xlink" y="0px">
	

	<path class="region" d="M359.303,320.975l0.392-32.656  l13.995-22.936l1.164,14.384l-2.72,10.498l-6.221,6.998l1.554,12.051l2.721,8.94l-7.386,6.609L359.303,320.975z" fill="#CC3300" id="class:region|region:SCOTLAND|population:5156500|" population="5156500" region="SCOTLAND"/>
	

	<path class="region" d="M153.272,403l13.607-19.052  l11.273-1.163l4.665,12.828l-17.495,14.771L153.272,403z" fill="#CC3300" id="class:region|region:SCOTLAND|population:5156500| 1 " population="5156500" region="SCOTLAND"/>
	

	<path class="region" d="M231.019,530.117l-2.721-19.047  l3.89-3.498l30.321,2.722l-32.656,21.767L231.019,530.117z" fill="#CC3300" id="class:region|region:SCOTLAND|population:5156500| 2 " population="5156500" region="SCOTLAND"/>
	

	<path class="region" d="M259.01,502.517l16.326-15.161  l26.044-20.214l-4.276,20.604l-25.657,10.105L259.01,502.517z" fill="#CC3300" id="class:region|region:SCOTLAND|population:5156500| 3 " population="5156500" region="SCOTLAND"/>
	

	<path class="region" d="M446.381,787.853l-15.937-19.436  l4.662-15.161l-7.776-10.495l5.833-13.607l13.606-10.494l12.826,11.66l1.556,20.606l8.551,9.716l-5.055,29.933L446.381,787.853z" fill="#CC3300" id="class:region|region:SCOTLAND|population:5156500| 4 " population="5156500" region="SCOTLAND"/>
	

	<path class="region" d="M275.725,718.658l7.776-39.652  l15.549-5.055l32.264-12.051l3.888,18.271l8.938,40.43l-13.994,8.552l-22.55,15.939l-6.608-5.056l2.332-7.777l5.831-5.054  L303.32,713.6l3.889-7.386l6.999-8.941l-6.999-3.89l-8.162,2.33l-17.106,18.271L275.725,718.658z" fill="#CC3300" id="class:region|region:SCOTLAND|population:5156500| 5 " population="5156500" region="SCOTLAND"/>
	

	<path class="region" d="M333.26,670.842l10.883-8.551  l6.999-3.499l11.276-4.664l-11.659-1.557l4.666-13.216l22.934-15.937l13.607-10.495l4.665,9.329l-7.774,9.715l-14.775,25.659  l-24.884,41.981l-10.495-5.055L333.26,670.842z" fill="#CC3300" id="class:region|region:SCOTLAND|population:5156500| 6 " population="5156500" region="SCOTLAND"/>
	

	<path class="region" d="M301.381,557.718l38.098,1.942  l-11.663-7.773l11.663-27.212l-27.213-12.441l6.609-14.384l18.66-12.827l9.718,5.442l9.717,18.658l9.329,12.827l16.716,0.778  l15.938,8.94l4.664,6.218l-5.056,23.325l-19.048,8.939l-12.438-6.223l-52.866,17.105L301.381,557.718z" fill="#CC3300" id="class:region|region:SCOTLAND|population:5156500| 7 " population="5156500" region="SCOTLAND"/>
	

	<path class="region" d="M302.548,398.334l16.716,21.38  L332.867,403l-5.828-14.775h-8.167L302.548,398.334z" fill="#CC3300" id="class:region|region:SCOTLAND|population:5156500| 8 " population="5156500" region="SCOTLAND"/>
	

	<path class="region" d="M183.202,364.902l-6.61-31.874  l12.05-17.104l-3.887-10.886v-6.222l9.718-9.329l10.495,13.217l6.61,8.939l0.774,12.825l-9.33,12.44l0.78,34.209L183.202,364.902z" fill="#CC3300" id="class:region|region:SCOTLAND|population:5156500| 9 " population="5156500" region="SCOTLAND"/>
	

	<path class="region" d="M192.147,291.429l-5.443-5.831  l2.334-11.272l5.053-3.5l-1.168-12.438l-22.935-15.162l13.604-15.549l37.709-1.164l16.716,15.16L229.074,258l-24.104,36.541  l-3.889,3.109l-6.608-7.775l-3.889,1.556h1.562V291.429z" fill="#CC3300" id="class:region|region:SCOTLAND|population:5156500| 10 " population="5156500" region="SCOTLAND"/>
	

	<path class="region" d="M248.123,217.365l-17.492-21.382  l18.658-5.83l8.939-5.441l11.661-5.054l-14.77-10.105l-26.045-19.826l27.989-4.275l-17.496-14.385l0.393-16.716l12.052-15.162  l10.884,4.275l21.38,9.332l-4.272-26.437l33.042-20.212l41.201-25.659l5.443,38.097l-12.05,14.385l-10.108,15.161l-6.999,26.046  l-2.331,25.268l-17.104,18.66l-18.658,1.944l-1.558,7.776l-11.275,1.555l-0.39,10.494L248.123,217.365z" fill="#CC3300" id="class:region|region:SCOTLAND|population:5156500| 11 " population="5156500" region="SCOTLAND"/>
	

	<path class="region" d="M328.294,361.342l20.3-2.694  l7.119,13.76l9.908-14.337l8.849,4.908l-3.848,12.12l-9.907,21.454l13.18-4.427l8.754-7.697l13.275-22.512l10.969-6.637l8.757,0.575  l-21.937,32.998l12.027,10.486l-23.57,8.18l-12.123,26.457l25.882,1.06l-18.185,19.241l-11.547,5.483l-30.787,1.635l-7.696,12.697  l61.571,8.756l-25.879,7.12l-4.33,5.579l12.604,19.725l15.392,1.155l12.701,9.331l38.964-30.786l26.457-25.882l-16.547,27.513  L421.13,549.9l-13.179,31.943l7.698,26.362l-17.029,34.634l-12.606,21.456l8.755,8.273l9.334-2.214l-13.759,20.302l10.486,15.395  l-18.185,46.18l-0.479,31.942l-13.182,13.179l-3.369,21.934l30.789-2.693l7.694-8.854l17.03-88.993l21.454-12.697l-13.758-32.423  l-4.906-14.817l2.789-14.333l5.965,1.635l14.335-15.394L442.1,648.9l-4.425,18.086l3.847,14.336l13.757,12.122l23.571,26.361  l5.002-16.452l8.274-24.821l3.271-17.031l11.545-6.061l13.757,1.153l15.875,9.909l-13.181,0.479l-13.179-2.693l-7.697,7.697  l-3.849,19.819l5.481,20.878l-9.911,11.542l26.459,24.149l6.544,7.116l0.575,30.308l-13.18,10.392l-5.482,9.91l-6.639,11.547  l-9.911,28.093L475,863.249l-5.966,18.765l3.271,35.114l-12.124-24.729l-8.753,2.79l-1.154,13.759l3.37,18.664l19.722,23.09  l5.484,25.307l9.524,5.388l2.601,0.965l-11.495-44.839l16.75-9.343l20.24,15.697l4.711,3.561l35.778,26.387l7.71-30.237  l-14.817-14.912l8.18-4.907l17.605,12.604l26.938,15.393l15.971,4.429l19.239-10.393l6.544-15.392l25.305,1.634l2.789-28.573  l42.066,2.591c7.104-3.55,14.187-7.147,21.325-10.619c11.131-3.764,17.844-14.108,26.51-21.415  c10.076-10.312,21.564-19.29,30.777-30.389c9.514-6.71,17.049-15.774,25.763-23.448c8.479-8.438,17.503-16.304,25.947-24.784  c4.396-4.484,9.679-8.119,13.458-13.191c-0.575-4.75-3.529-8.819-5.281-13.202c-4.349-10.011-9.237-19.784-13.553-29.802  c-1.538-2.942,1.098-5.344,3.104-7.116c12.323-10.873,24.689-21.708,37.055-32.542c0.813-0.843,1.908-1.486,3.061-1.81l-4.056-7.664  l-11.065-12.026l-25.208-2.79l-11.546-12.122l-16.549-5.965l-7.119-13.276l-21.454,2.79l-11.546,18.184l-13.757,5.484l-16.453,0.48  l-14.334-7.118l-18.121,0.456l-34.137-5.575l-32.349-17.958l6.28-5.662l26.78,11.16l33.938,5.555l22.261-11.522l5.602-13.822  l27.527-19.516l15.783,8.548l30.854-22.384L774.77,572.83l8.143-6.968l1.928-11.921l-12.68-2.537l-36.896,15.458l12.726-16.203  l37.955-8.458l8.384,3.605l23.008-24.344l11.085-15.509l9.084-28.126l21.062-23.066l12.894-33.574l8.77-26.284l3.267-23.666  l4.426-13.758l15.972-27.993l19.241-20.396l-2.786-12.027l-6.062-26.455l-13.756-17.51l-29.152,2.115l-34.633,2.792l-23.09-4.427  l-29.633-5.483l-14.815,5.483l-15.396-0.481l-22.607-9.429l-19.245,0.578l-10.392,5l-13.757,6.544l-20.877,2.789l-11.547,10.392  l-12.698,5.483l-9.331-5.963l-9.911,13.661l-13.756,13.757l-6.544-1.058l14.241-20.876l13.756-25.304l32.42-41.754l-14.236,1.637  l-23.089,6.541l-11.549,1.156l20.877-19.817l0.576-15.974l18.089-7.694l2.792-12.027l27.53-21.441l16.453-11.542l9.904-13.757  l10.395-9.331l20.973-11.064l13.182-12.027l4.327-17.606l-13.66-4.425l15.876-39.061L714.186,15l7.118,12.121l-2.693,6.062  l-29.728-10.487l-27.421,9.333l-41.851,5.002l-27.998,6.059l-23.089-12.7l-13.759,6.641l-14.334-6.641l-23.571-14.815l-9.332,9.334  l-11.062,22.03l15.395,17.028l-14.237,3.851l-7.697,6.061l7.697,25.304l-25.305,6.541l-15.97,3.27l12.12,19.243l4.907,13.756H460.77  l-13.758-2.696l22.031,23.091l17.513,19.242l-26.941,1.061l-13.662,13.756l-18.762-12.604l-7.119,14.816l-13.182-2.789l-8.848,3.85  v23.666l15.97,9.333l-17.03,20.396l17.605,17.51l4.905,8.273l-7.115,1.153l-18.665-12.698l-5.004,14.336l-1.635,16.45l10.968,22.031  l23.09,1.637l-13.661,16.453l-22.032,7.693l-12.604-12.604l-14.913-10.967l-8.178-15.395l3.271-26.458l0.576-19.242l-18.185-32.423  l-14.333,11.545l1.154,21.455l8.753,16.452l-4.328,5.579l-8.274-8.275l-14.332-13.755l-10.97-4.428l-4.906,8.851l3.27,23.089  l-16.55-15.392l-5.483,10.967l2.79,18.186l12.121,11.545l8.756,2.117l9.333-15.875l12.699,13.18l-8.85,14.237L328.294,361.342z" fill="#CC3300" id="class:region|region:SCOTLAND|population:5156500| 12 " population="5156500" region="SCOTLAND"/>
	

	<path class="region" d="M1164.934,1691.771  c5.933-3.672,13.164-2.191,19.753-2.189c0.849,2.941,0.431,6.697,3.039,8.826c3.729,3.219,7.471,6.463,11.495,9.328  c1.815,1.625,4.271,0.588,6.371,0.238c7.273-1.766,14.396-4.338,21.9-5.021c2.072,5.156,4.18,10.309,5.907,15.604  c-3.367,4.863-7.907,8.805-11.097,13.787c-3.551,11.129-7.984,21.98-11.868,33.01c-1.62,5.318-6.047,9.521-11.071,11.633  c-5.007-0.76-9.08-4.389-13.817-6.055c-3.755,3.188-7.2,6.703-10.769,10.094c-2.393-3-4.536-6.174-6.651-9.35  c-2.934-0.369-5.87-0.623-8.79-0.967c-1.169-3.32-2.142-6.729-3.767-9.842c-4.431-0.252-6.377,5.154-9.433,7.697  c-0.158-3.338,1.659-7.805-1.856-9.947c-8.658-6.158-18.045-11.268-26.607-17.545c-0.614-6.014,3.938-11.301,4.291-17.25  c-1.042-4.443-3.069-8.564-4.393-12.912c6.909-1.473,14.166-1.074,20.927-3.197  C1147.608,1702.926,1156.022,1696.906,1164.934,1691.771z" fill="#CC3300" id="class:region|region:ENGLAND_London|population:7635285|" population="7635285" region="ENGLAND_London"/>
	

	<path class="region" d="M789.657,1706.441  c-0.899-10.09-0.97-20.221-1.271-30.334c-0.063-5.756,0.297-11.568-0.87-17.234c-0.233-2.172-2.429-3.145-3.909-4.367  c-7.905-5.402-15.57-11.148-23.478-16.539c-5.245-4.244-10.389,3.473-15.996,2.207c-1.234-1.178-2.155-2.607-2.945-4.078  c-6.395-12.555-12.938-25.031-19.119-37.688c-2.035-3.217-0.688-6.957,0.404-10.219c6.574-18.65,13.124-37.312,19.609-55.988  c-10.959-6.338-22.565-11.498-33.651-17.598c-2.497-0.986-3.863-4.553-1.338-6.301c8.536-6.699,17.592-12.736,26.062-19.529  c-3.357-2.115-7.27-3.207-10.511-5.49c-2.078-1.604-0.804-4.18-0.116-6.131c5.533-12.848,11.568-25.488,16.853-38.436  c1.168-2.289-1.047-4.037-2.668-5.221c-5.51-3.951-11.104-7.777-16.617-11.715c-1.989-1.457-4.193-3.139-4.526-5.762  c2.533-7.611,7.26-14.236,10.437-21.574c1.343-3.477,4.283-6.193,8.104-6.498c10.554-1.57,20.974-4.312,31.667-4.773  c3.271,4.008,5.354,8.773,8.03,13.168c2.312-0.863,4.691-1.645,6.816-2.932c1.666-3.969,0.103-8.334-0.48-12.373  c-4.487-1.135-9.137-1.711-13.464-3.387c-3.196-1.199-3.315-5.146-4.116-7.936c-1.709-6.863-2.126-14.09-4.7-20.701  c-3.626-3.811-9.291-5.049-13.101-8.721c-1.192-1.484-1.259-4.086,0.38-5.297c2.656-2.66,5.743-4.848,8.38-7.527  c-8.479-6.523-17.472-12.342-26.035-18.74c-2.208-1.576-3.43-3.883-4.374-6.342l-2.809-1.582l-22.787-20.598l-42.945,14.898  l-19.722-2.629l-15.775-8.324l1.314,12.707l-23.228,8.326l-19.302,3.277l-1.902-3.908l3.312-2.758l8.69-11.949l-23.663,0.438  l-6.137-12.27l-5.695-17.09l-39.439,3.506l-2.628,17.967l-17.091,3.066l13.146,18.404l8.768,0.877l14.897,19.281l12.529,8.613  l1.762,3.762l-0.326,0.281l-0.379,19.771l-29.799,22.35l-7.012,1.314l-31.113,34.619l3.943,2.189l21.911-7.012l10.956,9.201  l6.571-4.381l-0.438-8.766l17.967-14.023l46.451-5.258l-11.396,7.887l2.19,12.707l-2.19,9.643l13.584,18.404l-2.188,8.326  l-13.585,17.967l11.832,19.723l1.313,13.145l-14.463,40.316l-13.146,15.773l-21.035,9.645l-26.731,19.277l-21.473,0.439l-2.63,4.383  l-9.203-2.629l-5.259,10.955l-8.767,12.27l-12.271-2.189l-10.079,5.697l-6.135-7.014l-11.396,2.191l-1.753,13.586l-33.305,14.021  l-0.438,7.012l3.507,5.26l16.652-2.191l10.956,11.395v12.271l-12.271,1.754l-8.767,7.012l12.271,13.146l2.189-7.889l21.475,3.506  l-14.023,7.451l7.887,10.955l14.024,9.641l14.897-13.586l10.955,2.629l10.52-4.381l5.696-14.9l4.383-3.943l32.864,0.438  l10.956-7.012l-1.312,11.832l9.202,14.023l17.528-2.631l3.942,5.26l13.146,1.312l-15.339,7.449l-12.27-1.752l-6.573,6.135  l2.19,9.643l14.462,8.324l9.641-4.82l21.475,0.438l4.818-10.518l3.068-3.066l17.967-3.066l16.653,39.002l11.394,0.875l15.776,17.527  l33.741,2.629l24.103-3.064l0.438-11.832l28.047-23.227l15.773,4.381l23.228-11.393l11.715-13.055  C790.835,1708.998,790.015,1707.82,789.657,1706.441z" fill="#FF9999" id="class:region|region:WALES|population:2983112|" population="2983112" region="WALES"/>
	

	<path class="region" d="  M10.334,1005.938l18.473-4.68l7.882-12.808l23.152-0.739l2.462-5.419l15.024-9.854l-18.967-5.912l-0.983-4.926l-4.188-0.738  l-6.155-13.546h7.882l7.882-8.622l8.62,9.605l15.271-9.113l20.196-0.492l-4.926-4.434v-9.113l8.867-4.68l5.909-12.562l-1.971-7.143  l0.739-9.854l6.401-7.883l0.985-9.604l14.286-14.285h20.197l16.748,6.648l16.01-40.887l10.838,6.649l19.704,1.23l9.604-9.604  l15.766-1.23l12.312-9.604h15.271l20.441,11.822l13.793-6.649l13.3,14.285l-0.736,28.571l4.925-3.941l7.882,5.911l0.738,10.591  l-3.201,0.739l1.478,4.188l4.436,0.492l18.227,30.05l2.956,12.069l5.418,0.246l-4.68-10.837h5.666l10.591,14.284l0.493,11.574  l-5.419,4.683l-17.98,8.62l-10.591,18.473l0.492,5.665l6.404-4.926l13.055-11.822l30.788-0.247l6.896,18.474l5.665,3.694  l0.492,14.778l6.897,6.648l-5.175,38.179l-3.447-0.986l-11.329-11.575l0.738-6.896l3.939-2.708l-0.985-12.811l-3.446-10.098  l-2.71-0.493l-1.231-5.173l-6.401-3.448l-6.896-2.463l-1.23,9.359l4.188,5.664l5.173,8.129l1.231,6.648l-0.985,13.301l-10.099,10.1  l1.478,2.956l7.881-4.927l7.146-3.94l12.066,14.039l-20.688,27.339l-7.145-7.143l-18.227,0.738l-7.39,9.111l2.956,7.637  l-3.448,20.195l-27.34,18.475l-6.896-2.709l1.479-2.957h-7.391l-8.619-12.066l-18.229,0.984l-1.971,7.143l-16.994,0.986  l-21.183,7.635l-10.101-10.346l2.956-5.418l-2.463-4.928l6.403-9.604l-11.084-12.562l-5.665,7.635l-14.039-22.906l-6.896-3.939  l3.202-3.201l-0.985-13.302l-12.068-7.636l-13.054-7.144l-9.854,14.285l-6.157,2.71l-7.143,8.129l8.62,11.33v9.852l-14.532,4.436  l0.247,12.562l-12.315,13.055l-4.434-0.984l-12.315-11.33l-5.172,6.156l-14.532-0.244l-18.72-19.459l-16.995,0.984l-8.374-4.68  l-1.229-18.229l-11.084-2.217l-6.157-16.257l-6.65,2.956L10.334,1005.938z" fill="#FF6666" id="class:region|region:NORTHERN IRELAND|population:1767100|" population="1767100" region="NORTHERN IRELAND" sodipodi:nodetypes="ccccccccccccccccccccccccccccccccccccccccccccccccccccccccccccccccccccccccccccccccccccccccccccccccccccccccccccccccccccccccccccccccc"/>
	

	<path class="region" d="  M1180.248,1196.971c-13.193-24.92-26.511-49.775-39.816-74.631c-0.934-1.986-2.545-4.891-0.488-6.705  c5.084-4.312,11.255-7.115,16.432-11.33c-3.489-2.188-6.948-4.521-10.791-6.027l0.034-0.078l-5.264-1.701l-1.601-1.201  c-13.763-21.377-27.439-42.807-40.98-64.32c-2.663-3.999-4.625-8.854-8.977-11.347c-25.896-13.619-52.617-25.605-78.238-39.759  c-13.381,9.3-26.573,18.861-39.907,28.228c0.367,6.072-1.025,11.993-1.971,17.947c-6.273-1.235-13.55-2.438-17.611-7.913  c-2.617-2.892-4.424-6.604-7.66-8.864c-6.296-2.829-14.293-4.15-20.314-0.029c-1.502,2.27-2.273,4.922-3.357,7.396  c-3.144-0.354-6.273-1.236-9.446-0.932c-5.19,2.754-9.279,7.206-14.541,9.838c-4.218-0.096-6.926-5.785-11.464-4.58  c-8.836,1.702-17.608,3.729-26.387,5.699c-4.042,0.516-5.44,4.752-7.367,7.72c-2.111,4.005-5.035,7.688-6.265,12.093  c-0.594,8.149,1.232,16.249,1.314,24.393c-0.003,1.748-0.319,3.918-2.359,4.363c-5.713,2.186-11.979,2.705-17.53,5.326  c-4.924,6.607-8.237,14.289-12.44,21.367c3.038,6.539,6.614,12.83,10.704,18.771c4.945,0.104,9.91,0.039,14.839,0.619  c0.72,3.605,1.262,7.252,1.987,10.863c6.328,2.01,14.352,1.312,18.883,6.938c8.071,9.086,15.835,18.461,24.298,27.193  c0.013-0.014,0.024-0.025,0.038-0.041l2.39,4.047c-4.116,4.613-9.979,7.928-12.017,14.037c-1.686,4.834-3.632,9.578-5.157,14.469  c-1.231,3.729,1.119,7.312,2.332,10.73c4.155,0.736,9.896-1.117,12.317,3.41c5.685,8.08,11.287,16.225,16.758,24.457  c3.225,5.27,9.343,7.434,14.438,10.406c0.004-0.002,0.008-0.006,0.012-0.008l0.163,0.125l2.787,3.217  c-0.005,0.002-0.011,0.004-0.016,0.006c8.864,15.729,18.833,30.846,28.548,46.064c13.13-1.348,26.147-3.811,39.3-4.871  c5.896,1.191,11.087,4.594,16.702,6.682c6.583-8.018,11.058-17.42,16.896-25.938c2.638-4.59,9.388-2.787,12.21-7.076  c3.765-5.236,8.01-10.438,9.705-16.787c2.386-8.877,4.712-17.766,6.945-26.682l0.958-0.332l2.782-0.977l2.557-0.98l1.116-0.938  c4.364-2.949,8.594-6.104,12.757-9.334c3.077-2.32,6.118-5.051,10.068-5.688c13.554-3.062,27.428-4.893,40.613-9.422  c5.404-1.592,10.621-3.855,16.161-4.98c2.979-0.658,5.513,1.588,7.562,3.441c6.754,6.549,13.172,13.449,20.004,19.922  c2.213,2.221,5.433,2.664,8.417,2.961c6.556,0.641,13.092,1.541,19.677,1.908C1188.296,1210.664,1183.826,1204.02,1180.248,1196.971  z" fill="#FF6666" id="class:region|region:ENGLAND_Yorkshire and The Humber|population:5199610|" population="5199610" region="ENGLAND_Yorkshire and The Humber"/>
	

	<path class="region" d="M1007.616,976.497  c-4.507-4.755-8.866-9.654-13.751-14.027c-3.65-3.664-7.966-6.992-10.071-11.858c-2.953-6.939-4.1-14.638-8.117-21.113  c-0.004,0.006-0.006,0.012-0.011,0.018l-1.046-5.555c0.006-0.006,0.01-0.012,0.014-0.017c-4.854-14.538-9.656-29.096-14.636-43.593  c-0.003,0-0.003,0-0.004,0l-1.432-4.434l-0.026-0.006c-5.895-37.718-11.688-75.45-17.377-113.197  c-0.432-2.926-1.217-5.974-3.552-7.979c-17.786-17.856-35.332-35.986-53.58-53.374c-5.601,4.152-10.539,9.103-15.914,13.523  c-7.44,6.882-15.499,13.108-22.685,20.249c-0.243,2.388,1.163,4.522,2.014,6.663c4.604,9.672,8.938,19.468,13.514,29.149  c1.392,3.589,4.229,7.195,3.708,11.147c-3.436,5.062-8.396,8.846-12.728,13.107c-10.332,10.284-21.293,19.916-31.553,30.273  c-7.399,7.285-15.46,13.884-22.489,21.541c7.901,11.125,17.627,20.83,25.621,31.896c-3.672,7.239-9.014,13.53-12.415,20.896  c0.331,3.442,1.688,6.673,2.636,9.979c-2.066,3.883-5.511,7.271-6.544,11.562c2.384,5.676,5.766,10.889,8.854,16.206  c6.647-3.713,11.765-9.989,19.188-12.27c3.544,4.572,6.885,9.304,10.428,13.884l4.061,7.859l-0.029,0.586  c-1.689,6.167-5.669,11.51-8.057,17.431c2.178,4.274,6.432,7.113,9.574,10.687c-1.386,3.002-2.944,5.916-4.47,8.851  c5.278,7.139,12.028,12.996,17.592,19.895c3.661,4.094,2.94,9.937,3.701,14.988c6.365-0.323,12.427-2.474,18.704-3.325  c3.304,0.563,5.838,3.142,8.75,4.674c4.199-2.902,8.184-6.114,12.464-8.896c2.61-1.797,5.889-0.544,8.807-0.554  c1.78-6.72,8.979-8.583,14.913-9.896c5.001,1.06,10.127,2.178,14.702,4.536c4.114,3.214,6.294,8.278,10.248,11.685  c2.13,1.352,4.618,1.957,6.974,2.827c1.035-5.093,2.544-10.188,1.752-15.438c3.769-1.566,7.375-3.51,10.646-5.965  C986.456,991.467,997.27,984.303,1007.616,976.497z" fill="#FF6666" id="class:region|region:ENGLAND_North East|population:2565541|" population="2565541" region="ENGLAND_North East"/>
	

	<path class="region" d="M883.435,1285.939  l0.701-3.057c0.98-1.32,1.551-2.928,2.328-4.367c-1.14-1.854-2.277-3.701-3.373-5.561c5.712-9.436,12.128-18.424,17.734-27.918  c-6.051-8.674-11.979-17.428-17.966-26.141c-1.656-2.188-3.356-5.145-6.5-5.049c-0.43-0.082-0.827-0.107-1.209-0.107l0.002-0.01  l-0.877-0.064l-1.702-0.158l-1.676-0.359l-1.728-0.557l-0.918-0.602l-0.812-0.85l-0.531-1.236l-0.426-1.25l-0.013-0.014  c-0.733-2.574-1.903-5.176-2.206-7.742c1.164-6.408,4.335-12.248,6.225-18.459c1.493-5.402,6.235-8.76,9.813-12.73  c-5.958-8.045-13.105-15.111-19.502-22.793c-2.167-2.455-4.174-5.154-6.909-6.996c-5.22-2.277-11.114-2.23-16.386-4.33  c-2.269-2.842-1.022-7.248-2.907-10.418c-4.365-0.723-8.811-0.451-13.207-0.611c-4.671-7.238-10.008-14.492-12.636-22.703  c2.988-7.068,7.522-13.375,10.719-20.359c-0.003,0-0.006,0.002-0.008,0.002l1.114-1.914l1.648-2.445l1.282-1.094  c5.955-1.465,11.918-2.91,17.78-4.697c-0.32-8.346-1.606-16.651-1.524-25.004c0.801-4.571,3.951-8.277,6.042-12.324  c2.225-3.43,3.685-7.564,6.943-10.186c3.396-1.513,7.137-1.959,10.747-2.728c-0.301-4.293,0.396-9.015-1.794-12.899  c-5.86-7.99-14.004-14.112-19.429-22.438c-0.721-3.203,2.458-6.072,3.564-9.021c-2.916-3.456-7.015-6.154-8.929-10.294  c1.291-6.947,5.967-12.744,8.818-19.137c-3.953-5.68-7.674-11.522-12.031-16.901c-6.556,4-12.116,9.479-19.02,12.923  c-3.805-5.409-6.765-11.332-9.996-17.078c-0.942-1.923-2.195-3.825-2.312-6.015c1.521-3.933,4.651-6.958,6.357-10.794  c-0.02-4.296-3.706-8.711-1.142-12.812c3.437-5.949,7.506-11.511,10.903-17.486c-8.074-9.617-15.736-19.613-24.349-28.761  c-17.508,16.591-34.963,33.25-52.472,49.833c-3,1.798-6.906,1.282-10,3.055c-8.839,4.382-17.679,8.77-26.474,13.229  c-4.369,1.905-4.829,7.128-6.505,11.005c-3.358,8.489-5.349,17.812-11.462,24.895c-5.375,7.951-12.529,15.143-14.9,24.715  c-2.984,9.98-6.186,19.9-9.149,29.892c-0.986,2.317,0.693,4.446,1.603,6.479c9.593,17.449,19.035,34.982,28.572,52.465  c3.529,6.23,6.527,12.773,10.562,18.715c4.812-2.232,9.195-5.359,14.203-7.164c2.113,0.258,3.263,1.443,3.445,3.561  c-1.051,6.535-4.768,12.404-5.42,19.021c1.621,3.023,3.961,8.189,7.842,7.834c6.6-7.691,11.555-16.643,17.526-24.814  c1.466,0.229,2.913,0.561,4.344,0.986c3.012,3.557,4.646,8.057,7.639,11.646c3.945-3.018,7.538-7.078,12.43-8.465l3.393,3.779  c-0.005,0.002-0.011,0.002-0.016,0.002c2.054,4.898,4.812,9.451,7.126,14.227c0.805,1.66,1.522,4.217-0.438,5.41  c-4.543,3.26-9.648,5.629-14.422,8.525c1.263,6.643,5.273,12.283,7.278,18.666c1.124,2.771-1.499,4.943-3.675,6.072  c-6.707,3.539-13.595,6.729-20.232,10.404c-0.532,9.891-1.195,19.828-0.755,29.73c1.53,6.422,6,11.574,9.193,17.258l0.041,0.916  l-0.426,3.432l-0.688,2.791l-0.333,1.072c-0.006-0.018-0.009-0.033-0.015-0.053c-6.208,10.152-11.633,20.812-16.892,31.463  c1.72,8.834,6.812,16.723,8.382,25.598c-0.172,0.549-0.516,1.645-0.688,2.191c-6.522,4.252-13.979,6.805-20.946,10.223  c1.347,7.424,4.347,14.41,7.199,21.357l0,0l0.001,0.002c0.004,0.012,0.009,0.021,0.013,0.031c0.002-0.002,0.004-0.004,0.007-0.006  l2.854,3.908l0.182,0.016c8.564,7.439,18.552,13.023,27.333,20.188c2.019,1.107,2.158,4.062,0.449,5.535  c-2.572,2.709-5.618,4.902-8.377,7.412c4.363,3.736,11.863,5.113,12.896,11.635c1.618,7.736,3.027,15.525,5,23.191  c4.323,1.209,8.737,2.107,13.021,3.5c6.392,2.832,12.812-1.549,19.146-2.525c2.612,4.074,4.771,8.418,6.685,12.867  c7.999-3.699,15.97-7.648,23.423-12.348c2.563-3.902,1.106-9.365,3.112-13.604c5.539-4.715,12.906-6.568,18.69-10.947  c6.115-5.5,10.975-12.236,16.845-17.965c6.316-4.174,13.566-6.701,20.354-10.012c-1.042-10.869-4.449-21.383-7.219-31.92v-3.367  H883.435L883.435,1285.939z" fill="#FF6666" id="class:region|region:ENGLAND_North West|population:6868896|" population="6868896" region="ENGLAND_North West"/>
	

	<path class="region" d="M952.729,1754.711  c1.858-2.182,3.761-4.316,5.666-6.447c-8.685-16.678-15.85-34.064-23.814-51.082l-1.005-2.832l-0.585-3.031l-0.215-2.393  c2.555-23.156,5.797-46.24,7.844-69.445c-0.266-4.32,1.404-9.729-2.319-12.975c-4.402-4.662-8.771-9.354-13.332-13.85  c-4.759,2.178-9.512,4.395-13.996,7.102c2.973,4.125,6.515,7.826,9.258,12.127c-0.217,0.66-0.649,1.98-0.865,2.637  c-15.976,1.873-32.231,0.924-48.239,2.766c-7.521,2.127-14.414,6.02-21.871,8.367c-3.107-2.738-5.771-6.01-9.217-8.328  c-6.062-1.664-12.424-1.057-18.628-1.078c0.124,8.291,1.688,16.568,0.984,24.867c-1.581,2.062-3.984,3.26-6.127,4.646  c-7.56,4.371-15.096,8.779-22.497,13.412c0.615,13.527,0.611,27.09,1.526,40.604c5.823-3.859,9.092-10.482,15.15-14.066  c0.862,0.619,2.588,1.854,3.45,2.475c-1.244,6.357-6.596,10.637-9.677,16.094c-4.5,7.477-9.991,14.227-15.663,20.826l-0.83,0.615  l-6.168,6.434l-2.659,2.98l-1.328,1.436l-0.007,0.047c-11.983,13.018-23.918,26.078-35.835,39.156  c-1.174,1.396-2.837,2.814-2.588,4.865c0.104,7.625,2.747,15.088,2.128,22.74c-0.755,3.098-4.432,3.383-7.02,3.869  c-16.657,2.145-33.285,4.516-49.934,6.756c-3.921,0.365-8.15,1.135-11.854-0.619c-6.375-3.02-12.407-6.711-18.828-9.623  c-2.062-1.275-4.431-0.223-6.593,0.088c-4.935,1.164-9.814-0.727-14.654-1.521l-3.562-1.051l-3.005-0.533l-0.036,0.023  c-5.994-1.709-12.23-0.023-18.221,0.875c-16.819,2.934-33.716,5.412-50.525,8.404c-4.538,0.26-5.382,5.615-6.152,9.166  c0.885,5.914,5.646,10.51,6.563,16.455c-1.856,5.109-6.654,8.295-10.19,12.199c-3.544,3.146-6.33,7.521-10.834,9.346  c-9.394-0.598-18.148-4.697-27.456-5.9c-1.544,4.447-2.807,8.99-3.804,13.604l-0.175,0.141l-1.3,4.832c-0.004,0-0.007,0-0.011,0  c-0.566,9.682-0.603,19.385-0.668,29.082c0.05,2.682-0.624,5.596-2.904,7.291c-9.938,7.729-20.611,14.51-30.479,22.324  c-3.004,4.867,0.381,12.371-4.022,16.688c-5.841,3.607-12.505,5.635-18.688,8.594c-6.82,3.281-14.396,4.098-21.732,5.551  c-0.991,7.104,0.508,14.438-0.987,21.445c-6.395,8.182-14.927,14.396-22.256,21.707c-12.246,12.244-25.151,23.799-37.513,35.922  c-1.27,1.133-2.733,2.078-4.369,2.623c-3.904-1.082-6.943-3.963-10.278-6.111c-7.583,2.682-14.809,6.244-22.246,9.297  c-2.645,1.277-5.968,2.344-7.14,5.344c-1.729,4.432-3.168,8.99-4.384,13.602c-1.359,3.803,2.33,6.695,4.843,8.916  c5.284-0.283,10.561-1.848,15.411-3.92c5.074-4.184,7.163-11.029,12.454-14.975c4.729,0.113,8.839,2.85,13.176,4.434  c5.644,2.709,12.862,3.955,16.176,9.871c4.957,8.414,9.397,17.137,14.613,25.406c6.41-4.291,12.13-9.494,18.088-14.365  c-3.825-4.803-9.21-7.959-13.421-12.369c0.5-0.773,1.502-2.324,2.004-3.1c6.521-3.545,14.148-4.451,20.844-7.617  c5.291-4.043,5.779-12.127,11.587-15.703c6.646-2.439,14.294-1.408,20.622-4.742c5.107-8.197,7.069-18.146,12.729-25.979  c8.995-2.125,18.394,1.303,27.543,1.482c7.536,1.184,11.498-7.244,18.191-8.885c5.104-0.498,10.24-0.139,15.359-0.25  c3.35,0.119,7.215-0.504,9.92,1.98c4.66,4.104,8.769,8.811,13.441,12.92c1.596-1.426,3.219-2.838,4.575-4.479l0.99-0.617  l2.553-4.682l1.652-0.025c1.388,0.607,2.783,1.219,4.083,2.021c1.24,2.031,1.802,4.389,2.633,6.625  c8.146,1.604,16.396,2.633,24.538,4.248c8.468,1.518,8.494,13.898,17.026,15.232c8.475,1.898,16.946,3.857,25.547,5.148  c-0.095-4.926-0.873-9.781-1.324-14.66c-0.201-1.701,0.439-3.727,2.037-4.521c5.033-2.65,11.103-2.762,15.934-5.822  c2.144-3.578,3.172-7.68,4.523-11.578c-2.775-3.402-6.823-6.107-8.312-10.342c1.189-4.309,6.203-6.08,9.241-9.012  c-0.64-3.141-2.45-6.451-0.964-9.604c2.368-6.012,5.455-11.711,7.887-17.691c1.246-2.598,2.122-5.699,4.684-7.32  c4.6-1.826,9.746-0.805,14.438-2.184c5.177-3.85,7.74-11.105,14.396-12.828c6.138-1.812,12.46-2.883,18.664-4.432  c10.088-1.98,19.271-6.762,28.731-10.58c-0.001-0.01-0.001-0.018-0.002-0.025l0.444-0.143l2.604-0.4l2.766,0.082l0.629,0.143  c0.019,0.014,0.034,0.027,0.054,0.041c7.229,2.27,15.379,0.971,22.162,4.732c15.792,10.033,30.977,21.059,47.045,30.654  c1.297-3.855,2.172-7.875,3.979-11.527c2.103-1.529,4.797-1.156,7.223-0.971c21.613,2.443,43.105,6.031,64.743,8.188  c1.727-7.383,0.137-15.67,3.772-22.465c11.411-3.924,24.229-2.09,35.43-6.92c-1.46-2.057-2.812-4.273-4.917-5.711  c-2.127,0.203-4.198,0.75-6.283,1.145c-2.13-7.121-3.351-14.461-5.049-21.68c-2.345-0.326-4.69-0.646-7.018-0.971  c0.436-4.902,1.623-9.684,2.786-14.443c-2.3-0.293-4.588-0.617-6.866-0.938c-3.608-5.625-6.979-11.398-10.791-16.881  c-0.006,0.004-0.011,0.008-0.016,0.012l-0.479-1.299l-0.268-1.699l0.268-1.275l0.743-0.799l0.183-0.109  c3.12-0.918,6.633-0.793,9.797-1.434c3.954-0.357,8.256-2.104,12.012,0.008c8.217,4.152,15.952,9.211,24.265,13.211  c4.584-2.93,2.35-8.293,1.809-12.6c-2.475-16.844-4.987-33.682-7.679-50.486c7.402-3.912,15.679-5.781,23.12-9.6  c1.264-3,0.808-6.363,0.933-9.518C961.009,1774.674,955.145,1765.043,952.729,1754.711z" fill="#FF6666" id="class:region|region:ENGLAND_South West|population:5194440|" population="5194440" region="ENGLAND_South West"/>
	

	<path class="region" d="M1223.186,1311.129  c-7.951-17.41-15.861-34.838-23.625-52.33c-1.312-2.689-2.515-5.725-5.195-7.324c-3.777-2.311-7.98-3.916-11.398-6.785  c-6.311-4.955-13.957-8.078-19.611-13.863c-8.352-8.404-16.74-16.773-25.08-25.189c-1.627-1.414-3.225-3.561-5.654-2.965  c-8.41,0.643-16.714,2.232-25.061,3.367c-4.089,0.754-8.026-1.604-12.096-0.76c-5.975,1.139-11.992,2.16-17.842,3.811  c-8.963,4.395-15.25,13.586-25.302,15.85c-2.264,7.572-4.118,15.266-6.146,22.904c-0.157,0.512-0.278,1.029-0.383,1.547  l-0.021,0.057l-0.488,2.182l-1.24,4.078l-1.07,2.029l-1.334,1.807l-0.545,0.713l0.001,0.006c-2.4,3.125-4.522,6.451-6.914,9.582  c-2.821,4.266-9.58,2.48-12.144,7.039c-3.982,6.365-7.96,12.756-11.681,19.281c-0.211,0.311-0.365,0.623-0.495,0.936l-0.729,1.289  l-1.97,3.244l-1.382,1.914l-0.602,0.801c-5.443-1.584-10.584-3.975-15.715-6.35c-4.397-2.406-9.391-0.586-14.021-0.162  c-9.828,1.197-19.608,2.945-29.488,3.604c-3.028-0.217-4.232-3.799-5.876-5.902c-8.156-13.643-16.854-26.945-25.129-40.516  c-2.087-3.857-6.088-5.887-9.818-7.807c-5.592,7.496-10.357,15.561-15.492,23.365c4.051,6.791-3.229,13.41-1.069,20.426  c2.149,8.908,4.195,17.854,6.572,26.709c0.892,4.201,5.429,5.627,8.602,7.762c5.366,3.359,11.418,5.754,16.242,9.912  c2.488,11.654,3.218,23.689,4.606,35.531c0.904,4.764-4.733,6.006-7.657,8.352c-0.55,7.029-1.025,14.064-1.438,21.109  c12.234,5.662,25.27,9.369,37.676,14.641c-0.373,1.721-0.49,3.605-1.646,5.045c-5.046,7.211-11.416,13.434-16.072,20.914  c4.022,2.725,8.162,5.311,12.639,7.248l0.201,0.248l2.244,1.754l1.727,1.186c-0.002,0.008-0.004,0.014-0.005,0.02  c2.278,1.635,4.579,3.254,6.878,4.891c-0.432,4.371-1.876,8.613-2.025,13.016c8.16,13.646,25.29,16.594,37.17,25.818  c5.257,7.803,8.602,16.752,13.64,24.715l-0.003,0.033l1.239,1.822l1.62,1.893c0.261,2.133,0.496,4.273,0.779,6.422  c-1.465,1.197-2.928,2.395-4.389,3.604c2.223,5.602,0.897,11.701-0.355,17.369c-0.834,3.402-4.398,4.932-6.811,7.088  c0.862,4.006,1.825,8.021,1.972,12.148c-4.065,0.209-10.812,0.539-9.534,6.436c3.186,5.68,8.376,9.977,11.322,15.852  c-3.297,1.965-6.771,3.602-10.248,5.205c2.607,7.254,4.867,14.633,7.486,21.891c5.783-1.426,11.264-3.809,16.807-5.949  c0.007-3.24-0.038-6.477,0.019-9.701c8.857-3.412,17.939-6.656,27.27-8.438c3.41,3.08,5.015,7.566,7.602,11.295  c2.83-3.006,5.368-6.26,7.896-9.516c-2.353-3.721-4.92-7.301-7.02-11.162c9.294-7.893,20.179-13.713,29.497-21.52  c2.089-6.344,4.271-12.654,6.124-19.068c4.871,0.344,9.662,1.373,14.533,1.805c1.678-4.381,2.873-9.627,7.959-11.154  c-0.798-4.738-2.647-9.436-2.281-14.271c5.734-5.367,12.972-8.814,18.844-14.002c1.532-4.746,1.678-9.793,2.285-14.703  c-3.027-2.396-6.159-4.646-9.327-6.828c-0.266-3.447-0.432-6.896-0.737-10.324c-3.171-0.336-6.341-0.588-9.491-0.959  c-0.812-4.037-1.42-8.107-2.173-12.145c-0.009,0.018-0.016,0.031-0.021,0.047l0.084-0.449l0.15-2.48l0.978-1.689l0.482-0.307  c10.133-2.635,19.061-10.084,29.95-9.189c7.729,0.059,15.467,0.059,23.203,0.045c7.227,0.043,14.625-0.633,21.62,1.662  c1.704-5.477,1.709-11.982,5.485-16.504c6.459-2.057,13.57-1.662,19.765-4.705c3.771-3.715,6.64-8.246,9.832-12.449  c-11.435-7.229-23.739-12.996-35.151-20.23c-3.109-1.6-1.854-5.826,0.322-7.689c11.682-13.229,23.584-26.256,35.315-39.434  c1.71-1.975,3.178-4.307,3.159-7.01c0.485-7.363,1.386-14.695,1.795-22.061C1226.084,1317.182,1224.541,1314.082,1223.186,1311.129z  " fill="#FF6666" id="class:region|region:ENGLAND_East Midlands|population:4413206|" population="4413206" region="ENGLAND_East Midlands"/>
	

	<path class="region" d="M997.32,1535.877  c2.826-3.062,6.537-5.107,9.647-7.855c-4.4-8.982-9.299-17.711-13.779-26.648c-2.046-4.857-7.509-6.332-11.623-8.889  c-10.669-6.004-23.614-10.746-29.062-22.619c0.157-3.867,1.32-7.598,2.105-11.359c-2.104-1.484-4.229-2.938-6.375-4.33  c-0.003,0.008-0.006,0.016-0.009,0.021l-0.995-0.844l-3.046-1.689l-0.633-0.377c0-0.008,0.001-0.014,0.002-0.02  c-4.253-2.969-8.925-5.352-12.881-8.713c-0.847-2.68,1.424-4.818,2.817-6.807c4.836-5.818,9.631-11.67,14.151-17.738  c-11.626-5.99-24.534-8.941-36.319-14.584c0.018-7.848,0.894-15.656,1.194-23.488c-0.115-4.449,4.854-5.842,7.803-8.029  c-0.687-10.088-2.337-20.07-3.28-30.131c0.069-5.09-5.448-6.541-8.903-8.898c-5.003-2.562-9.533-6.262-14.961-7.84  c-4.567,1.498-8.739,3.973-13.188,5.77c-11.786,4.172-16.3,17.418-26.514,23.762c-5.044,2.715-10.245,5.127-15.208,7.992  c-0.481,3.227-1.016,6.459-1.09,9.73l-0.521,1.641l-1.165,2.293l-2.066,1.918l-1.431,0.752l-0.043,0.037  c-8.549,4.061-16.584,9.137-25.314,12.828c-2.576-4.252-4.72-8.734-6.803-13.23c-4.449,0.664-8.81,1.818-13.049,3.312  c-0.014,4.771,1.659,9.957-0.227,14.482c-3.934,3.521-9.146,5.627-14.217,6.936c-4.716-3.369-6.302-9.393-9.477-14.018  c-7.791,0.975-15.513,2.412-23.257,3.68c-3.006,0.596-6.838,0.895-8.17,4.182c-3.128,6.166-6.772,12.113-9.135,18.641  c7.945,6.51,16.876,11.703,24.725,18.346c-1.59,7.572-5.546,14.316-8.456,21.418c-3.356,8.084-7.513,15.85-10.277,24.174  c4.511,2.098,9.209,3.746,13.72,5.859c-0.477,1.75,0.051,4.143-1.579,5.389c-8.494,6.922-18.19,12.367-26.094,20.016  c10.907,5.77,21.85,11.512,32.999,16.809l0.396,0.668l0.677,2.07l-0.226,2.141l-0.939,2.406l0.014,0.227  c-0.086,0.229-0.173,0.457-0.241,0.697c-5.731,16.562-11.502,33.115-17.386,49.627c-0.982,3.006-2.316,5.998-2.428,9.215  c1.434,4.664,4.104,8.826,6.281,13.174c4.574,8.455,8.427,17.291,13.26,25.609c3.711-1.207,7.271-3.066,11.19-3.512  c3.259,0.967,5.911,3.246,8.687,5.135c8.744,6.471,17.803,12.508,26.501,19.043c8.47-4.709,16.764-9.729,25.038-14.766  c0.562-9.129-1.5-18.205-0.705-27.312c5.466-0.426,10.951-0.324,16.431-0.533l1.155,0.242l2.873,0.426l3.03,0.904l1.705,0.875  c2.5,2.057,4.806,4.355,7.111,6.631c5.646-1.705,10.965-4.275,16.438-6.439c5.689-2.484,12.023-1.479,18.038-2.062  c9.86-0.85,19.793-0.377,29.631-1.543c-2.866-3.973-6.417-7.482-8.684-11.854c3.776-4.605,10.16-5.896,15.089-9.008  c-0.007-0.006-0.014-0.01-0.02-0.014l4.515-2.479l0.069,0.016c3.341,2.336,6.438,4.98,9.041,8.258  c3.475,4.297,8.393,7.504,10.859,12.559c0.646,5.219,0.104,10.502,0.21,15.756c4.325-2.533,9.134-4.562,12.705-8.16  c4.743-9.715,6.203-20.812,11.438-30.322c4.253,0.951,8.439,2.172,12.679,3.219c3.354-6.115,4.384-13.221,8.164-19.123  c1.268-2.859,4.86-2.486,7.389-3.4c-0.85-3.301-1.622-6.615-2.293-9.939c2.488-2.049,5.513-3.562,7.502-6.15  c1.204-3.338,1.125-6.955,1.404-10.439C1001.508,1538.762,996.276,1539.91,997.32,1535.877z" fill="#8B0000" id="class:region|region:ENGLAND_West Midlands|population:5393394|" population="5393394" region="ENGLAND_West Midlands"/>
	

	<path class="region" d="M1402.672,1801.137  c-1.855-8.869-3.957-17.684-5.766-26.555c-1.578-6.959,3.449-12.98,4.936-19.506c-11.215,1.352-22.07,4.641-33.215,6.395  c-8.629,1.289-17.142,4.758-25.922,4.115c-7.778-4.596-12.692-13.312-21.576-16.125c-9.189-3.24-18.025-7.58-27.607-9.59  c-7.761-1.67-15.389-3.908-23.157-5.492c-1.922-0.072-4.854-1.242-5.852,1.115c-2.442,3.797-3.095,8.994-7.056,11.641  c-5.66-0.447-10.919-2.945-16.514-3.725c-2.729,0.412-4.996,2.295-7.715,2.779c-3.397-1.625-5.854-4.617-8.641-7.047  c-3.942,10.438-7.543,21.004-11.587,31.402c-1.79,4.338-6.582,6.26-9.336,9.805l-1.526,0.795l-1.43,0.527l-1.578,0.074l-2.405-0.752  l-2.03-1.055l-0.625-0.154c-2.595-1.527-5.531-2.576-8.229-3.809c-2.521,2.506-4.979,5.078-7.529,7.555  c-1.553,1.279-3.141,3.688-5.409,2.332c-2.995-2.924-4.896-6.707-7.208-10.135c-3.117-0.402-6.237-0.723-9.346-1.062  c-1.098-2.426-2.116-4.873-3.164-7.295c-3.862,3.436-6.137,9.49-11.854,10.047c-0.149-4.588,0.495-9.125,0.688-13.686  c0.192-1.832-1.818-2.652-2.971-3.602c-7.498-4.809-14.941-9.699-22.438-14.5c-0.001,0-0.001,0.002-0.002,0.002l-0.489-0.471  l-1.58-0.902l-1.354-1.09l-0.338-1.504l0.301-3.311l0.6-2.158c0.16-0.393,0.319-0.781,0.479-1.172  c-0.013-0.004-0.025-0.008-0.037-0.012l0.312-0.682l1.092-2.934v-0.162c0.701-2.451,1.609-4.865,1.888-7.4  c-1.312-5.609-4.505-10.555-5.966-16.104c-1.987-9.49-5.141-18.688-8.21-27.863c-4.66-1.451-9.949-1.562-14.146-4.053  c-4.504-5.939-8.765-12.117-12.674-18.461c-2.604-3.643,1.948-6.605,4.89-7.84c4.72-1.322,5.662,6.311,10.226,6.168  c3.595,0.164,7.174-0.434,10.741-0.875c0.251-2.111,0.51-4.213,0.733-6.311c-7.571-3.145-15.377-5.783-22.625-9.645  c1.425-6.291,4.05-12.211,5.784-18.398c1.088-6.273-2.518-12.516-1.32-18.756c3.309-4.891,7.824-8.785,11.608-13.287  c-2.95-7.006-6.143-13.908-9.729-20.605c-9.265,6.326-18.598,12.572-27.577,19.299c1.919,3.422,5.189,6.422,5.749,10.412  c-1.644,4.158-5.039,7.318-7.664,10.871c-1.782,1.834-3.614,5.268-6.646,3.863c-2.687-3.859-4.623-8.164-7.044-12.176  c-7.236,2.043-14.483,4.104-21.54,6.715c0.138,1.84,0.295,3.689,0.471,5.555c0.021,0.004,0.041,0.004,0.062,0.008l-0.249,2.455  l-0.978,2.559l-0.211,0.139c-7.651,1.58-14.616,5.943-22.309,7.578c-4.144-9.271-7.314-19.029-9.912-28.812  c1.661-3.215,5.782-3.691,8.681-5.396c-2.364-3.361-4.989-6.525-7.784-9.521c-1.835,3.938-3.558,7.932-5.376,11.879  c-4.455-0.385-8.771-1.584-13.031-2.854c-3.359,8.182-5.699,16.729-8.779,25.018c-1.503,5.553-7.679,7.225-11.905,10.203  c-2.562,1.898-6.718,3.086-6.916,6.836c-2.23,17.105-3.937,34.279-6.283,51.373c-0.281,3.459-1.177,7.203,0.489,10.48  c4.863,10.57,9.487,21.26,14.521,31.76c0.008-0.004,0.017-0.008,0.023-0.014l0.104,0.287l2.896,6.131l0.029,0.018  c2.421,5.707,5.819,10.973,7.917,16.84c-1.979,2.246-3.993,4.465-5.961,6.73c3.337,5.547,3.188,12.326,6.256,17.957l0.293,1.842  l0.338,3.23l-0.074,2.33l0.038,0.127c-0.337,5.457,0.424,11.006-0.711,16.369c-7.14,3.777-15.019,5.918-22.373,9.236  c2.217,15.801,4.883,31.533,7.064,47.344c0.446,3.893,1.636,7.783,1.236,11.73c-1.752,2.834-4.834,4.428-7.445,6.355  c-9.102-4.221-17.349-10.064-26.418-14.309c-5.021-0.908-10.091,1-15.096,1.451c2.469,4.996,5.55,9.65,8.546,14.348  c3.034-0.023,6.068-0.084,9.114,0.002c-0.44,4.465-1.327,8.873-2.252,13.27c1.625,1.07,3.437,1.945,4.834,3.361  c2.017,5.596,2.794,11.562,4.295,17.32c6.684,1.592,9.681,8.707,15.864,11.217c3.983,1.641,8.264,2.379,12.456,3.326  c2.07-3.248,3.248-7.416,6.485-9.697c7.605-3.15,16.015-3.555,23.868-5.889c3.185-1.217,4.895-4.432,6.892-6.977  c-1.905-5.256-5.566-9.773-6.868-15.23c0.926-1.287,1.938-2.492,3.042-3.615c11.667,7.961,22.062,17.789,33.947,25.373  c9.041,0.428,18.222-0.18,27.291-0.652c0.004-0.021,0.009-0.041,0.013-0.062l1.07,0.105l1.382-0.16l2.129-0.957l0.339,0.074  c8.91,3.547,16.222,10.018,24.995,13.812c2.037-4.34,3.863-8.773,6.152-12.982c24.465-4.857,49.091-8.875,73.584-13.592  c0-0.004,0-0.01-0.001-0.014l0.562-0.02l1.541-0.377l2.479-0.846h0.255c0,0.002,0,0.004,0,0.004  c13.384,5.471,27.432,9.191,41.059,14.041c9.744,2.73,19.141,7.211,29.155,8.676c5.925-5.596,10.106-12.727,15.603-18.705  c2.317-2.436,5.716-3.232,8.79-4.279c10.268-2.99,20.508-6.086,30.764-9.125c11.733-3.256,17.771-16.648,30.033-18.58  c-0.007-0.01-0.016-0.018-0.021-0.027l1.165-0.014l1.86-0.338l2.011,0.037l2.5,0.375l0.736,0.213  c4.025,2.021,8.659,2.891,13.133,3.178c-0.028-4.838-1.594-10.014,0.775-14.537c2.152-4.684,4.569-9.232,6.84-13.854  c1.343-2.473,2.682-5.426,5.557-6.398c7.052-2.604,15.021-2.637,21.524-6.709c9.065-5.49,18.033-11.15,26.99-16.816  C1403.962,1806.803,1402.994,1803.443,1402.672,1801.137z" fill="#CC3300" id="class:region|region:ENGLAND_South East|population:8332007|" population="8332007" region="ENGLAND_South East"/>
	

	<path class="region" d="M1437.579,1483.215  c-0.291-1.678-0.426-3.584-0.878-5.324l0.046-0.342l-1.017-5.338l-0.714-4.098l-0.127-0.24c0.009,0.002,0.017,0.002,0.024,0.002  c-1.82-11.959-3.865-23.885-5.846-35.812c-0.52-4.51-4.629-7.088-7.714-9.85c-13.989-11.752-27.786-23.729-41.764-35.484  c-4.934-4.789-12.257-4.258-18.491-5.811c-13.863-2.018-27.516-6.385-41.646-5.695c-18.438,0.092-36.877-0.068-55.312,0.055  c-2.852-0.512-4.094,2.346-5.013,4.463c-5.585,13.354-11.11,26.736-16.835,40.033c-1.314,2.16-2.049,5.928-5.256,5.625  c-4.498-1.393-8.377-4.227-12.697-6.039c-4.297,4.922-8.16,10.199-12.438,15.135l-1.628,0.854l-1.391,0.469l-1.692,0.074h-1.407  l-0.076,0.031c-4.222,0.461-8.42,1.059-12.574,1.885c-2.07,6.094-3.225,12.453-5.338,18.539c-4.855-0.352-8.975-3.586-13.873-3.623  c-10.322-0.168-20.646,0.057-30.967-0.082c-10.595-0.559-19.791,5.586-29.363,9.154c0.194,3.188,0.521,6.379,1,9.553  c3.264,0.395,6.545,0.676,9.819,1.096c0.243,3.791,0.412,7.602,0.748,11.396c3.171,2.336,6.397,4.592,9.603,6.898  c-0.512,6.564-0.334,13.52-2.714,19.707c-5.612,5.018-12.354,8.605-18.287,13.234c0.532,3.166,0.496,6.682,2.326,9.451  c0.003,0.002,0.006,0.004,0.008,0.008l0.132,0.449l0.527,2.688l-0.451,1.768l-0.902,1.447l-1.09,1.053l-1.113,0.834  c-0.833,0.242-1.667,0.484-2.501,0.723c-1.517,3.373-3.009,6.76-4.728,10.041c-4.617-0.438-9.188-1.172-13.738-1.988  c-0.813,4.072-2.767,8.039-2.646,12.236c2.967,9.094,8.699,17.057,11.511,26.213c-1.551,4.217-5.447,6.93-8.288,10.25  c-1.521,1.898-4.249,3.559-3.729,6.355c0.293,4.795,1.875,9.451,1.817,14.285c-1.249,5.854-3.822,11.33-5.379,17.109  c7.063,3.148,14.312,5.873,21.387,9.012c0.203,1.367,0.378,2.771,0.652,4.141l-0.65,5.631l-0.525,2.479l-1.202,0.902l-0.822,0.211  c-5.475,0.41-10.998,1.691-16.439,0.762c-2.487-1.865-4.634-4.139-7.163-5.926c1.452,6.166,5.924,10.953,9.312,16.139  c3.571,5.881,12.316,3.016,16.698,7.52c4.307,9.312,5.609,19.73,9.966,29.055c6.771-1.029,13.804-0.873,20.357-2.998  c10.109-5.191,19.236-12.168,29.332-17.385c5.504-1.135,11.221-0.25,16.812-0.723c0.003-0.008,0.005-0.014,0.008-0.021l3.296,0.137  l2.067,1.729l0.233,0.436c0.281,2.355,0.797,4.701,1.363,6.988c3.091,3.314,6.805,6.041,10.476,8.701  c1.729,1.389,3.956,0.217,5.863-0.08c7.518-2.055,15.066-4.004,22.696-5.619c3.934,6.834,7.092,14.408,8.604,22.121  c-3.396,5.258-8.108,9.5-11.839,14.516c2.33,2.41,4.842,4.646,7.351,6.891c2.056-0.914,4.039-2.074,6.279-2.512  c5.615,0.803,10.953,2.951,16.589,3.771c2.877-4.889,4.401-10.486,7.61-15.17c2.829-1.52,6.192-0.939,9.281-1.348  c10.63-0.986,21.271-1.924,31.891-3.057c3.969-0.113,6.08-3.82,8.285-6.561c4.711-6.668,10.354-12.709,14.499-19.746  c0.992-6.791,0.31-13.725,0.458-20.564c0.677-5.531-4.987-8.377-7.035-12.844c-0.206-1.855,0.54-3.145,2.237-3.863  c11.015-2.027,22.522-0.105,33.405-2.645c7.095-5.217,13.202-11.723,19.348-18.018c-3.051-1.541-8.869-1.561-8.353-6.238  c2.147-4.562,6.551-7.51,9.812-11.234c-0.012-0.002-0.021-0.004-0.028-0.008l3.849-4.09l2.091-2.377  c1.545-1.207,2.869-2.875,4.271-4.137c9.062-9.828,19.073-18.713,28.276-28.4c2.087-2.084,2.57-5.098,3.246-7.83  c4.816-22.703,10.202-45.277,14.959-67.99C1436.115,1498.781,1438.793,1491.105,1437.579,1483.215z" fill="#CC3300" id="class:region|region:ENGLAND_East|population:5888140|" population="5888140" region="ENGLAND_East"/>
	

	</svg>
