<?xml version="1.0" encoding="utf-8"?>
<!-- Generator: Adobe Illustrator 15.0.2, SVG Export Plug-In . SVG Version: 6.00 Build 0)  -->
<!DOCTYPE svg PUBLIC "-//W3C//DTD SVG 1.1//EN" "http://www.w3.org/Graphics/SVG/1.1/DTD/svg11.dtd">
<svg version="1.1" id="Ebene_1" xmlns="http://www.w3.org/2000/svg" xmlns:xlink="http://www.w3.org/1999/xlink" x="0px" y="0px"
	 width="100px" height="100px" viewBox="0 0 100 100" enable-background="new 0 0 100 100" xml:space="preserve">
<circle fill="#B2B2B2" cx="50" cy="50" r="50"/>
<path fill="#1D1D1B" d="M84.14,24.67c0,0-1.046-0.814-1.141-1.944c-0.102-1.229-0.945-2.023-0.945-2.023s-18.601,0-19.742,0
	c-1.14,0-1.558,2.109-1.835,2.777c-0.278,0.667-1.558,1.107-1.558,1.107s-41.014,0-41.738,0c-0.723,0-1.139,2.03-1.195,2.335
	c-0.056,0.306-0.612,0.306-0.612,0.306l0.139,50.163h68.654L84.14,24.67z M61.067,54.769c-0.881-0.377-0.711-1.648-1.677-1.954
	c-0.211,0.205,0.19,0.655-0.263,0.753c-0.725-0.545-0.004-1.177-0.176-1.804c-0.173-0.626-2.137-1.618-2.646-2.104
	c-0.295-0.283-0.45-0.626-0.706-0.901c-0.665-0.72-1.532-1.272-1.852-2.104c-0.928,0.461-2.117,0.698-2.644,1.503
	c0.405,0.631,0.481,1.43-0.354,1.802c1.071,0.665,0.848,2.432,2.027,3.005c-0.24,1.235,0.812,2.554-0.175,3.607
	c-0.213-0.046-0.402-0.107-0.706-0.075c-0.143-0.255-0.227-0.559-0.441-0.751c-0.483-0.062-0.271,0.472-0.53,0.601
	c-0.822,0.168-1.816,0.629-2.645,0.15c-0.621,1.098-1.083,2.633-0.882,4.435c0.035,0.283,0.286,0.581,0.353,0.9
	c0.375,1.767-0.521,3.784-0.617,5.485c-0.093,1.68,1.325,3.448,0.265,5.034c-0.101-0.014-0.155,0.017-0.177,0.074
	c-0.813,0.001-1.031-0.682-1.146-1.203c-0.175-0.783-0.484-1.953-0.351-2.704c0.05-0.288,0.355-0.497,0.439-0.751
	c0.492-1.478-0.601-3.32-0.706-4.659c-0.041-0.521,0.163-1.07,0.088-1.576c-0.149-1.008-0.56-1.536-0.529-2.255
	c0.029-0.672,0.129-1.683,0.353-2.554c0.16-0.627-0.105-1.053-0.442-1.656c-0.383-0.1-0.187,0.292-0.527,0.228
	c-0.022-0.357-0.524-0.307-0.707-0.526c-0.212-0.181,0.214-0.198,0.088-0.527c-0.815,0.344-1.129-0.363-1.674-0.674
	c0.123-0.369,0.576-0.46,0.439-1.052c-0.432-0.069-0.335,0.315-0.705,0.299c0.032-0.546,0.65-0.599,0.794-1.051
	c-0.316-0.239-0.768,0.044-0.97,0.15c-0.35-0.255,0.276-0.789-0.265-1.052c0.256-0.083,0.596-0.094,0.617-0.375
	c-0.297-0.225-0.69,0.107-1.057,0.075c-0.464-0.081-0.508-0.521-0.97-0.603c-0.093-0.279,0.297-0.146,0.352-0.3
	c0.01-0.409-0.626-0.268-0.704-0.601c-0.036-0.28,0.548-0.034,0.615-0.228c-0.061-0.195-0.191-0.337-0.528-0.298
	c0.43-0.335,1.334-0.266,1.939-0.452c-0.037-0.269-0.458-0.211-0.794-0.227c0.172-0.177,0.586-0.152,0.97-0.149
	c-0.039-0.667-0.769-0.747-1.321-0.978c0.057-0.077,0.203-0.078,0.175-0.226c-0.268-0.173-0.696-0.208-1.057-0.299
	c0.124-0.304,0.578-0.255,0.441-0.601c0.513,0.074,0.947,0.137,1.411,0.075c-0.356-0.475-1.188-0.543-1.677-0.902
	c0.324-0.149,0.843,0.181,1.236,0.226c0.174-0.297-0.388-0.458,0-0.825c-0.099-0.318-0.636-0.262-0.707-0.602
	c0.494-0.071,0.567,0.217,0.97,0.226c0.262-0.302-0.031-0.773-0.175-0.978c0.354-1.026-1.318-1.853-1.676-3.007
	c-0.481-1.548-0.062-2.859-0.44-4.582c-0.257-0.208-0.431-0.484-0.883-0.525c-0.143-0.549-0.467-1.232,0.263-1.428
	c0.17-1.036-0.66-2.251,0.089-2.854c0.544,0.121,0.808,0.79,0.971,1.201c0.474,1.201,0.512,2.387,0.792,3.907
	c0.198,1.077,0.873,2.079,1.236,3.082c0.396,1.103,0.519,2.267,1.411,2.93c0.564-0.238,0.567,0.204,1.057,0.226
	c0.36,0.003,0.38-0.279,0.353-0.604c0.484,0.101,0.56,0.017,0.971-0.074c0.668,0.632,0.616,1.878,1.765,2.104
	c0.616-0.289,0.676-1.644,0.528-2.404c-0.106-0.542-0.592-1.054-0.794-1.577c-0.443-1.15-0.643-2.417-1.147-3.608
	c-0.516-1.223-0.923-2.42-1.143-3.604c-0.444-0.45-1.082-0.733-1.235-1.428c-0.167-0.21-0.703-0.104-0.708-0.452
	c0.252-0.061,0.23,0.108,0.441,0.075c0.046-0.438-0.307-0.539-0.352-0.9c0.011-0.353,0.129,0.081,0.352,0c0-0.152,0-0.302,0-0.452
	c0.339,1.331,1.963,2.054,2.645,3.532c0.251,0.537,0.433,1.116,0.794,1.727c0.761,1.287,0.908,2.81,1.675,4.209
	c0.227,0.411,0.701,0.818,0.97,1.276c0.447,0.754,0.551,1.875,1.677,1.804c1.418-0.092,1.004-2.004,1.146-2.856
	c-2.011-0.688,0.239-3.26,1.587-1.729c1.299-0.425,2.315,0.343,2.734,1.128c-0.214,1.858-0.709,2.884-2.029,3.981
	c-0.35,0.049-0.354-0.199-0.705-0.149c-0.831,0.755,0.437,1.659,0.439,2.629c0.989,0.525,1.117,1.202,1.502,2.102
	c0.43,1.017,1.729,1.521,2.554,2.405c0.657,0.7,0.777,1.455,1.411,2.105c0.119,0.151,0.292,0.252,0.53,0.299
	c0.224,1.314,1.083,2.083,1.675,3.08c-0.332-0.017-0.372-0.282-0.706-0.298C60.562,54.336,61.337,54.563,61.067,54.769z"/>
</svg>
