<?xml version="1.0" encoding="utf-8"?>
<!-- Generator: Adobe Illustrator 15.0.2, SVG Export Plug-In . SVG Version: 6.00 Build 0)  -->
<!DOCTYPE svg PUBLIC "-//W3C//DTD SVG 1.1//EN" "http://www.w3.org/Graphics/SVG/1.1/DTD/svg11.dtd">
<svg version="1.1" id="Ebene_1" xmlns="http://www.w3.org/2000/svg" xmlns:xlink="http://www.w3.org/1999/xlink" x="0px" y="0px"
	 width="100px" height="100px" viewBox="0 0 100 100" enable-background="new 0 0 100 100" xml:space="preserve">
<circle fill="#B2B2B2" cx="50" cy="50" r="50"/>
<path id="path14267" d="M42.733,12.997l-1.54,0.472l-1.196-0.268l-0.943,0.401l-1.133-0.268l-2.412,0.401L34.51,14.27l-0.731,0.133
	l-1.006,0.535h-0.668l-0.07-0.331l-1.4,0.204l-0.471-0.612l-0.401,0.134l-1.069,1.541l-2.342,1.274l-0.732,1.005l-0.204,1.196
	l-0.07,0.07l-0.534,0.668l-1.337,0.936l-1.195,0.274L21.404,22.5l-0.802,0.464l-0.668,1.4l-0.928,0.753l-1.414,2.061l-0.331,0.936
	l0.19-0.331l0.408,0.929l-0.464,0.872l0.126,1.611l-0.802,2.068l-0.936,0.943l0.739,0.858l-0.071,0.542l0.81-0.133l-0.669,0.267
	l-0.274-0.197l-0.204,0.865h0.478l-0.478,0.197l0.668,0.07l-0.331,0.268l0.401,0.07l-0.133,0.261l0.936-0.261l-0.535,0.204
	l0.401,0.19l-0.464,0.274l0.204,0.331l0.26-0.126l-0.126,0.26l0.331-0.204l0.134,0.943l0.401,0.197l0.401,0.204l-0.204,0.331
	l0.338,0.134l0.063,0.872l0.337-0.063l-0.464,0.134l0.732,0.732l-0.063,0.401l1.133,0.598l2.209,2.075l1.14,0.472l1.336-0.668
	l2.076-0.268l1.934,0.535l2.005-0.936l1.407-0.542l2.477-0.527l-0.409,0.267l1.006,0.07l0.668,0.598l0.338-0.205l-0.338,0.275
	l0.471,0.063l-0.337,0.063l0.141,0.204l0.331-0.204l-0.331,0.401l0.668,0.943l0.732-0.07v-0.268l0.134,0.268l-0.063-0.337
	l0.198,0.337l0.133-0.401l0.267,0.268l0.943-0.071l-0.07-0.394l0.33,0.464l0.338-0.268l0.331,0.802l0.541-0.134l0.127,0.268h-0.261
	l0.395,0.802l-0.669,2.005l0.408,0.07l-0.07,0.668l-0.338-0.07l0.669,0.337l-0.465,0.134l-0.204-0.267l-0.204,1.069H40.06
	l1.006,1.808l2.209,2.139l0.464,1.337l0.535,0.268l-0.465,0.133l1.203,2.406l-0.401,0.668l0.465,0.943l0.464,1.062l-0.189,1.28
	l-1.146,1.196l-0.732,2.483l0.133,2.139l2.744,4.474l0.471,3.609l2.139,3.418l0.928,1.534l0.071,0.731l-0.401,0.274l0.471,1.267
	l0.337-0.197l1,0.668l2.272-0.73l1.941,0.196l1.941-0.535l2.878-2.005l0.935-1.203l0.401-0.471l1.062-0.872l0.872-2.265
	l-0.134,0.189l-0.268-0.331l2.947-1.737l0.261-1.871l-0.598-1.604l0.063-0.872l0.204,0.204l1.47-1.006l0.605-0.999l3.011-1.407
	l0.134-0.267l0.928-1.337l-0.189-1.941l0.189-0.204l-0.133-1.471l0.337-0.669l-0.598-0.464l-0.274-0.204v-0.062l-0.26-1.744
	l0.197-0.465h-0.269l0.401-0.872l-0.738-0.999l0.472-1.407l0.802-1.674l0.204-0.401l0.802-0.465l-0.204-0.33h0.541l2.14-2.821
	l2.265-1.801l1.675-2.138l2.208-5.15v-0.605l-0.062-0.338l0.464-0.126h-0.331l0.064-1.4l-0.472-0.204l-1.062,0.668l-1.814,0.204
	l-0.796,0.464l-0.604-0.204l-1.069,0.535l-1.4-1.273l-0.604,0.07l0.802-0.464l-0.133-0.471l-2.21-2.209l-0.936-0.331l-0.203-0.338
	l-0.198-0.197l-0.062,0.401l-1.407-3.011l-1.209-0.809l-0.528-2.265l0.197,0.127l-0.527-1l-1.211-0.872l-0.331-0.936h0.261
	l-0.668-0.535l-1.801-3.144l-1.006-1.069l-0.239-0.802c-0.003-0.004-0.005-0.01-0.007-0.014c-0.014-0.022-0.028-0.049-0.035-0.077
	c-0.046-0.184-0.155-0.376-0.155-0.612c0-0.033,0-0.065,0-0.099c0-0.101-0.013-0.206-0.028-0.31l-0.337,0.049l-0.197-0.408
	l-0.802-0.07l-1.611,0.668l-1.864-0.528l-1.611-0.07l-0.267-0.401l-1.471-0.197l-0.204-0.408l-1.203-0.26l-1.406,0.668v1.196h-0.063
	l-0.942,0.479l-0.999-0.542l-1.871-0.464l-0.472-0.872l-1.604-0.464l-0.928,0.063l-1.815-0.802l-0.134-0.408l1.077-0.858
	l-0.534-0.809l0.534-0.802l-0.534,0.33L42.733,12.997L42.733,12.997z M19.005,25.118l0.056-0.085l-0.204,0.204L19.005,25.118z
	 M30.085,14.122l0.014,0.021l0.035-0.021C30.118,14.123,30.101,14.122,30.085,14.122z M22.206,20.158l-0.472,0.338l0.338-0.141
	L22.206,20.158z M21.734,20.559l-0.668,0.668l0.401-0.134L21.734,20.559L21.734,20.559z M19.934,20.756l-0.668,0.204l0.063,0.337
	L19.934,20.756z M20.13,21.093l-0.133,0.268l0.331-0.063L20.13,21.093z M63.803,25.033l0.338,1.077l-0.936,0.204l-0.873,1.133
	l0.535-1.07l0.802-0.197L63.803,25.033L63.803,25.033z M18.794,32.258l0.668,0.542l0.471,0.999l-1.14-1.47l-1.533,0.063
	L18.794,32.258z M71.365,33.06l0.063,0.274l0.4,0.063l-0.4-0.338H71.365z M27.686,33.264l0.338,0.401l-0.268,0.063L27.686,33.264
	L27.686,33.264z M45.351,35.009l0.189,0.668l0.408-0.204v0.33l0.936,0.134l-1.203,0.605l-0.739-1.407L45.351,35.009L45.351,35.009z
	 M69.354,36.675l-0.127,0.732l-0.338-0.528L69.354,36.675z M35.649,37.682l0.598,0.464l-0.197,0.936v0.141l-0.063-0.141
	l-0.204-0.401l0.394-0.535L35.649,37.682z M30.303,40.024l1.062,1.266l0.07,0.134l0.204-1.273l-0.274,2.94v-0.331l-0.063-0.063
	l-0.738-0.337l0.668,0.204l0.07-0.141l0.134-0.527l-0.134-0.204l-0.204-0.07h-0.464l0.599-0.197l-0.668-0.338l-0.134-0.598h-0.739
	l0.675-0.071L30.303,40.024L30.303,40.024z M37.788,40.489l0.401,0.872l-0.401,2.469l0.337-2.54L37.788,40.489z M26.019,41.023
	l-0.267,0.732l0.133,0.204l0.26-0.204l-0.127,0.535l-0.401-0.464L26.019,41.023z M68.487,44.632l0.465,2.413l-0.802-1.336
	L68.487,44.632L68.487,44.632z M40.334,45.574l-0.542,0.395v0.07l0.267,0.134L40.334,45.574z M50.029,46.975l-0.471,3.011
	l0.738-1.541l0.873-0.464l0.731-0.401l0.197-0.141l2.195-0.176l0.084-0.014l0.015,0.007l0.119-0.007l2.209,1.526l-2.328-1.52
	l-0.099,0.007l-2.393,0.513l-0.731,0.204l-0.942,0.668l0.07,0.865l-2.342,2.272l-0.07,0.942l-0.064-0.872l1.674-1.871L50.029,46.975
	L50.029,46.975z M63.803,47.045l-0.204,0.731l-0.731,0.668l-0.07-0.464L63.803,47.045z M65.878,47.776l-0.4,0.141l0.133,0.331
	l-0.668-0.204L65.878,47.776z M65.744,48.979l0.134,0.337l0.472-0.063l0.261,0.668l0.478-0.274l0.126,0.204l-0.802,0.267
	l-0.062,0.999l-0.803,0.534l0.668,0.204l-0.471,0.338l-0.471-0.134l0.069,0.464l-0.267,0.204l0.062-0.534l-0.598-0.268l-0.4,0.598
	l-0.205-0.872l0.401-2.068l0.669-0.331l0.337,0.197L65.744,48.979L65.744,48.979z M62.199,49.648l-0.535,0.535l0.134-0.464
	L62.199,49.648z M41.397,50.387l0.337,0.133l-0.337,0.204V50.387z M50.366,51.188l-0.274,0.408l0.338,0.127l-0.401,0.604
	l-0.142-1.006L50.366,51.188z M61.333,51.188l0.331,0.464l-0.535,0.472L61.333,51.188z M61.594,53.06l0.605,2.547l-0.269,0.464
	l0.866,0.732l0.541,1.878l-0.668-0.268l-0.338-1.273l-0.936-1.203l0.063-2.146l-0.197,0.274L61.594,53.06z M71.492,55.536L71.365,56
	l0.33,0.338l-0.133-0.534L71.492,55.536z M64.141,57.471l0.604,0.541l-0.604-0.133V57.471z M61.868,58.413l0.394,0.063l-0.668,0.401
	L61.868,58.413L61.868,58.413z M61.263,58.547l-0.471,0.872l-0.394,0.063l0.062-0.472L61.263,58.547L61.263,58.547z M66.146,59.482
	l0.465,0.472l0.337,1.534l-0.337,0.998l0.407,2.012l-0.605-0.267l-0.471-1.936l0.408-0.604l-0.268-1.737l-0.07-0.274h0.07
	L66.146,59.482L66.146,59.482z M61.931,60.889h0.071v0.401l-0.338,0.134L61.931,60.889L61.931,60.889z M74.974,61.424l-0.133,0.331
	l0.196,0.204L74.974,61.424L74.974,61.424z M80.257,62.021l-0.534,0.465l-0.07,0.942l-0.527,0.464l-0.274-0.196v0.669h-0.204
	l-0.395,0.801l0.063-0.4L77.851,65.3l0.127,0.269l-0.26,0.133l0.07-0.401l-0.479,0.338v0.464l-0.26-0.267l-1.605,0.472l-0.668,1.337
	l0.134,2.476l-1.076,1.266l-0.394,1.007l0.133,2.61l0.732,0.394l1.871-0.464l3.278-6.62l0.197-0.999l0.407-0.338v-1.337l0.261-0.069
	l0.141,0.533l0.331-0.533l-0.135-2.47l-0.533-0.738L80.257,62.021L80.257,62.021z M75.909,62.092l-0.196,0.134l0.261,0.197
	L75.909,62.092L75.909,62.092z M60.792,66.707l-0.929,0.268l-1.14,1.14l0.865-1.14L60.792,66.707z M85.61,70.119l-0.273,0.534
	l0.337-0.274L85.61,70.119z M83.936,70.991l-0.33,0.127l0.33,0.337V70.991L83.936,70.991z M57.45,77.203l-0.204,0.401l-0.358-0.113
	h-0.015l0.239,0.184l-0.33-0.134l0.091-0.05l-0.021-0.014l0.036,0.014L57.45,77.203L57.45,77.203z"/>
</svg>
