<?xml version="1.0" encoding="utf-8"?>
<!-- Generator: Adobe Illustrator 15.0.2, SVG Export Plug-In . SVG Version: 6.00 Build 0)  -->
<!DOCTYPE svg PUBLIC "-//W3C//DTD SVG 1.1//EN" "http://www.w3.org/Graphics/SVG/1.1/DTD/svg11.dtd">
<svg version="1.1" id="Ebene_1" xmlns="http://www.w3.org/2000/svg" xmlns:xlink="http://www.w3.org/1999/xlink" x="0px" y="0px"
	 width="100px" height="100px" viewBox="0 0 100 100" enable-background="new 0 0 100 100" xml:space="preserve">
<circle fill="#B2B2B2" cx="50" cy="50" r="50"/>
<path d="M81.241,30.242c1.272-5.326-5.133-8.526-5.133-8.526c-1.307-3.226-5.608-3.847-5.608-3.847c0.1-4.536-7.227-5.83-7.227-5.83
	c-3.395-4.166-7.431-2.031-7.431-2.031c-4.327-5.716-8.355-0.126-8.355-0.126c-4.602-3.016-7.148,0.545-7.148,0.545
	c-5.615-2.029-7.355,4.341-7.355,4.341c-5.077-0.155-6.632,2.597-6.632,2.597c-6.807,0.761-6.228,7.549-6.228,7.549
	c-3.857,2.153-3.163,6.043-3.163,6.043c-1.608,3.292,0.166,7.293,0.166,7.293c-0.562,1.943,4.202,5.157,4.202,5.157
	c0.479,4.232,3.936,4.222,3.936,4.222l21.82,30.903l-5.253,0.259l0.678,13.776l13.775-0.678l-0.677-13.776l-4.756,0.234
	l22.858-27.775c2.431-0.661,3.769-3.07,3.769-3.07c6.466-0.978,5.419-8.542,5.419-8.542C85.43,33.761,81.241,30.242,81.241,30.242z
	 M67.369,52.107L50.303,78.373l-0.105,0.006l11.713-25.676C61.911,52.703,66.406,53.222,67.369,52.107z M61.605,52.731
	L50.192,78.379l-0.091,0.004l7.004-25.504C58.422,53.62,61.605,52.731,61.605,52.731z M56.793,52.969l-6.861,25.423l-0.04,0.002
	l3.568-24.856C55.229,54.021,56.793,52.969,56.793,52.969z M50.361,53.02c0.846,0.633,2.871,0.373,2.871,0.373l-3.388,25.003
	l-2.297,0.113c-0.014-0.02-0.022-0.031-0.022-0.031l1.07-25.376L50.361,53.02z M48.354,53.077L47.49,78.512l-0.038,0.002
	l-3.155-26.093C46.907,53.597,48.354,53.077,48.354,53.077z M44.047,52.516l3.307,25.718l-9.986-26.217
	C38.648,53.117,44.047,52.516,44.047,52.516z M37.066,51.986L47.341,78.52h-0.013L31.519,50.51
	C33.886,52.268,37.066,51.986,37.066,51.986z M25.572,47.599c1.413,1.599,5.659,2.761,5.659,2.761l15.964,28.167l-0.031,0.001
	L25.572,47.599z M50.518,78.363l-0.068,0.003l17.189-26.23c0,0,3.347,1.069,5.612-1.52L50.518,78.363z"/>
</svg>
