<?xml version="1.0" encoding="utf-8"?>
<!-- Generator: Adobe Illustrator 15.0.2, SVG Export Plug-In . SVG Version: 6.00 Build 0)  -->
<!DOCTYPE svg PUBLIC "-//W3C//DTD SVG 1.1//EN" "http://www.w3.org/Graphics/SVG/1.1/DTD/svg11.dtd">
<svg version="1.1" id="Ebene_1" xmlns="http://www.w3.org/2000/svg" xmlns:xlink="http://www.w3.org/1999/xlink" x="0px" y="0px"
	 width="100px" height="100px" viewBox="0 0 100 100" enable-background="new 0 0 100 100" xml:space="preserve">
<circle fill="#B2B2B2" cx="50" cy="50" r="50"/>
<path d="M41.966,27.609c-1.658,0.2-3.363,0.419-4.371,0.593c-2.447,0.419-3.285-0.07-3.494,1.747
	c-0.21,1.818,0.069,4.264,0.418,4.543c0.351,0.28,3.916,0.7,3.916,0.7l3.405,0.529l5.194,0.319c0,0-0.213,7.574-0.072,7.667
	c0,0-0.21,21.588-0.21,23.566c0,0.406-0.008,0.837-0.018,1.278c-0.031,1.485-0.111,3.007-0.526,4.442
	c-0.209,0.721-0.466,1.339-0.847,1.861c-0.351,0.48-0.807,0.88-1.428,1.202c-0.557,0.29-1.178,0.442-1.8,0.507
	c-0.962,0.1-1.932-0.025-2.856-0.3c-0.175-0.052-0.35-0.141-0.526-0.183c-0.871-0.212-1.759-0.55-2.624-1.05
	c-3.494-2.028-6.081-5.173-6.15-5.592c-0.07-0.42,1.048,0.35,2.447-0.14c1.397-0.49,1.816-0.91,1.816-0.91s-3.774-1.746-5.591-4.682
	c-1.817-2.936-3.005-6.57-3.005-6.57s-2.726,6.64-2.167,10.554c0.559,3.915,2.306,6.71,2.656,6.78
	c0.349,0.07,1.188-2.936,1.468-2.936c0.279,0,2.796,5.872,6.779,8.248c0,0,0.743,0.581,1.864,1.363l1.928,1.282
	c0.984,0.62,2.067,1.248,3.129,1.757c3.354,1.608,6.15,3.355,7.128,4.193c0.978,0.84,2.795,3.356,2.795,3.356
	s1.742-2.592,2.682-3.474s3.652-2.755,6.931-4.513c3.277-1.76,6.711-4.715,6.711-4.715c3.873-2.555,6.118-8.535,6.397-8.548
	c0.279-0.014,1.254,2.951,1.601,2.865c0.346-0.085,1.964-2.959,2.344-6.894c0.381-3.936-2.646-10.444-2.646-10.444
	s-1.021,3.684-2.703,6.7c-1.682,3.016-5.372,4.932-5.372,4.932s0.438,0.401,1.856,0.825c1.419,0.426,2.501-0.394,2.45,0.029
	c-0.05,0.421-2.49,3.681-5.889,5.865c-3.399,2.185-7.338,1.734-8.851,0.823c-1.51-0.91-1.979-5.087-2.117-8.089
	c-0.01-0.222-0.027-0.585-0.054-1.062l-1.152-20.34c-0.316-5.488-0.569-9.863-0.569-9.863s0.629-0.028,2.514-0.114
	c1.885-0.087,6.11-1.048,6.11-1.048s3.542-0.581,3.877-0.877c0.337-0.295,0.504-2.751,0.213-4.558
	c-0.292-1.805-1.108-1.278-3.57-1.586c-2.464-0.309-9.06-0.706-9.06-0.706l-0.043-0.978c0,0,5.944-1.6,5.082-8.208
	c-0.928-7.124-7.385-7.209-8.489-7.173c0,0-7.658-0.283-8.318,7.549c-0.26,3.079,0.895,5.014,2.206,6.206
	c0,0,0.978,1.407,3.668,1.608l0.067,1.211L41.966,27.609z M49.582,14.281c2.551-0.07,4.369,2.272,4.369,4.158
	c0,1.888-1.294,2.377-1.294,2.377s-1.256-1.259-3.075-1.153c-1.804,0.104-2.813,1.238-2.828,1.255l-0.002,0.003
	c0,0-0.14,0.314-0.768,0.245c-0.15-0.017-0.364-0.078-0.56-0.317c-0.261-0.319-0.49-0.956-0.49-2.234
	C44.934,16.378,47.031,14.351,49.582,14.281z"/>
</svg>
