<?xml version="1.0" encoding="utf-8"?>
<!-- Generator: Adobe Illustrator 15.0.2, SVG Export Plug-In . SVG Version: 6.00 Build 0)  -->
<!DOCTYPE svg PUBLIC "-//W3C//DTD SVG 1.1//EN" "http://www.w3.org/Graphics/SVG/1.1/DTD/svg11.dtd">
<svg version="1.1" id="Ebene_1" xmlns="http://www.w3.org/2000/svg" xmlns:xlink="http://www.w3.org/1999/xlink" x="0px" y="0px"
	 width="100px" height="100px" viewBox="0 0 100 100" enable-background="new 0 0 100 100" xml:space="preserve">
<circle fill="#B2B2B2" cx="50" cy="50" r="50"/>
<path fill="#13110C" d="M62.534,47.201c0,0-3.357-10.082-5.037-11.343c0,0,0.699-3.778-2.384-3.778c0,0-2.098-3.221-4.197-1.965
	c0,0-1.683,0.144-1.959-1.116c0,0,0.232-2.736-0.278-3.38l5.738-9.216c0.279-0.702,1.82-0.702,1.82-0.702
	c1.26,0.418,5.599,5.876,5.599,5.876c0-1.818-5.46-7.556-5.46-7.556c0-1.122-1.819-1.821-1.819-1.821
	c-2.94-2.103-7.143-3.084-7.143-3.084S46.436,9.26,47.698,9.26c1.259,0,5.457,3.78,5.457,3.78c0.141,0.418-0.14,2.242-0.14,2.242
	l-6.07,9.946c-0.503,0.011-0.934,0.171-0.934,0.691c0,0-0.275,0.144-0.417,0.981c0,0-0.686,0.195-0.329,1.086l-0.996,1.631
	c-0.369-0.472-2.45-2.96-5.116-2.579c0,0-4.337,1.401-2.522,5.465c0,0,0.219,1.144,0.702,1.796c-0.175,0.385-0.354,0.811-0.51,1.253
	c-0.545,1.542,0.43,0.635,0.43,0.635l1.013-1.126c0.376,0.508,1.103,1.423,1.31,1.218c0,0,0.213,0.064,0.54,0.158l-2.16,3.529
	c-0.222,0.131-0.406,0.372-0.483,0.79c0,0-0.702,0.424-0.702,1.265c0,0-1.258,1.536,1.264,1.82c0,0,0,1.536,1.118,2.098
	c0,0,2.38,1.4,3.922,0.98c0,0,2.519-1.118,2.519-2.24c0,0,1.962,3.5,2.661,4.337c0,0,0.978,2.522,0.978,4.063
	c0,0,0.702,4.623,1.122,5.461c0,0,0.138,2.936,0.138,3.779c0,0-0.558,10.223,0.423,12.461c0,0,2.099,3.92,2.099,4.896
	c0,0,0,1.547-1.534,2.383c0,0-3.086,2.803,0.975,2.381l2.101-1.262c0,0,0.557,2.799,0,3.637c0,0-0.838,1.824-2.94,1.963
	c0,0-3.221,1.961-0.421,2.104c0,0,4.345-0.562,5.042-0.143c0,0,5.321,0,5.321-1.676l-0.701-2.525c0,0-0.141-11.34-1.261-12.596
	c0,0,0-7.139-0.7-8.264c0,0,4.48-8.682,4.34-9.656C63.236,56.023,64.914,49.863,62.534,47.201z M40.833,42.441h-1.255
	c0,0,0.978-1.848,0.067-2.306l2.087-3.35c0.23,0.035,0.455,0.054,0.644,0.054C42.375,36.84,40.696,40.338,40.833,42.441z
	 M45.737,30.962l-0.246-0.221l0.917-1.468c0.31,0.23,0.671,0.458,1.006,0.567l0.561,0.839L45.737,30.962z"/>
</svg>
