<?xml version="1.0" encoding="utf-8"?>
<!-- Generator: Adobe Illustrator 15.0.2, SVG Export Plug-In . SVG Version: 6.00 Build 0)  -->
<!DOCTYPE svg PUBLIC "-//W3C//DTD SVG 1.1//EN" "http://www.w3.org/Graphics/SVG/1.1/DTD/svg11.dtd">
<svg version="1.1" id="Ebene_1" xmlns="http://www.w3.org/2000/svg" xmlns:xlink="http://www.w3.org/1999/xlink" x="0px" y="0px"
	 width="100px" height="100px" viewBox="0 0 100 100" enable-background="new 0 0 100 100" xml:space="preserve">
<circle fill="#C6C6C6" cx="50" cy="50" r="50"/>
<path fill="#1F3E91" d="M22.979,72.512l10.834,0.027c0.07,0,0.147-0.035,0.231-0.104c-0.136-0.346-0.273-0.518-0.411-0.518h-2.084
	c-0.052,0-0.155-0.064-0.31-0.205h-1.003c-0.085,0-0.137-0.043-0.155-0.129c0.035-0.055,0.061-0.094,0.078-0.129v-2.574h1.956
	c0.104-0.172,0.215-0.266,0.335-0.281c0.858-0.053,1.466-0.076,1.828-0.076l6.665-0.18c0.516,0,0.772-0.141,0.772-0.412
	c0-0.035-0.008-0.096-0.026-0.184c0-0.084,0-0.145,0-0.182c0-0.17,0.112-0.256,0.335-0.256c0.035,0,0.111,0.008,0.231,0.025
	c0.122,0.016,0.198,0.023,0.231,0.023c0.035,0,0.13-0.021,0.283-0.062c0.154-0.043,0.25-0.064,0.284-0.064
	c0.086,0,0.155,0.062,0.206,0.184c-0.104,0.139-0.154,0.299-0.154,0.486c0,0.293,0.094,0.439,0.282,0.439
	c0.035,0,0.108-0.107,0.219-0.322c0.113-0.215,0.247-0.322,0.398-0.322c0.173,0,0.293,0.07,0.36,0.207
	c0.07,0.14,0.139,0.283,0.208,0.439c0.12-0.035,0.274-0.07,0.462-0.105c0.052-0.016,0.266-0.024,0.644-0.024
	c0.462,0,0.747,0.041,0.85,0.13c0.412,0.309,0.823,0.627,1.234,0.95l2.009-0.694c0.188,0.035,0.3,0.146,0.333,0.336
	c0.035,0.188,0.069,0.358,0.104,0.517c0.207,0,0.315,0.01,0.333,0.024c0.447,0.272,0.791,0.498,1.029,0.67
	c0.104,0.033,0.354,0.049,0.746,0.049h7.336c0.018,0,0.086-0.032,0.207-0.102c0.309-0.037,0.516-0.054,0.615-0.054
	c0.02,0,0.073,0.024,0.168,0.08c0.096,0.049,0.16,0.073,0.194,0.073c0.033,0,0.181-0.012,0.437-0.039
	c0.26-0.024,0.404-0.034,0.438-0.034c0.123,0,0.225,0.041,0.309,0.127v0.644c-0.084,0.067-0.205,0.104-0.356,0.104
	c-0.035,0-0.14-0.02-0.31-0.055c-0.174-0.031-0.274-0.051-0.311-0.051c-0.033,0-0.186,0.021-0.451,0.064
	c-0.265,0.043-0.416,0.064-0.449,0.064c-0.225,0-0.412-0.025-0.565-0.078l-7.929,0.053c-0.442,0.189-0.787,0.369-1.026,0.539
	c-0.019,0.018-0.119,0.027-0.31,0.027l-2.059-0.055c-0.136-0.033-0.249,0.104-0.334,0.412c-0.085,0.311-0.146,0.533-0.18,0.67
	c0.344,0.053,1.072,0.078,2.187,0.078c0.292,0,0.46-0.049,0.503-0.145c0.043-0.094,0.245-0.143,0.604-0.143l3.783,0.053
	c0.172,0.033,0.266,0.115,0.283,0.244c0.02,0.129,0.137,0.193,0.36,0.193c0.117,0,0.201-0.039,0.244-0.115
	c0.043-0.078,0.146-0.117,0.317-0.117c0.035,0,0.322,0.02,0.861,0.053c0.543,0.033,0.83,0.053,0.865,0.053
	c-0.02,0,0.133-0.062,0.449-0.182c0.316-0.121,0.604-0.182,0.859-0.182c0.327,0,0.672,0.08,1.032,0.232
	c0.771,0.309,1.089,0.463,0.949,0.463c0.067,0,0.14-0.066,0.207-0.205c0.444,0,0.78-0.01,1.004-0.027c0.239,0,0.336,0,0.28,0
	c0.154,0,0.229,0.121,0.224,0.361c-0.01,0.242,0.062,0.361,0.22,0.361c0.016,0,0.145-0.119,0.383-0.361
	c0.02,0.018,0.045,0.035,0.08,0.051c0.03,0.018,0.061,0.035,0.076,0.053c-0.054,0.154-0.07,0.258-0.054,0.311
	c0.054,0,0.129,0.008,0.229,0.023c0.105,0,0.164,0,0.183,0c0.053,0,0.162-0.018,0.334-0.051c0.172-0.035,0.267-0.053,0.282-0.053
	c0.086,0,0.55,0.189,1.39,0.568c0.054,0.205,0.112,0.322,0.183,0.355c0.516,0.242,0.905,0.414,1.172,0.518
	c0.266,0.104,0.426,0.153,0.477,0.153c0.066,0,0.129-0.024,0.182-0.075v-1.598c0-0.066,0.016-0.094,0.049-0.077l0.054-0.332
	c0.086-0.069,0.153-0.104,0.206-0.104c0.066,0,0.146,0.078,0.23,0.234c-0.121,0.342-0.027,0.6,0.281,0.771v1.026
	c0.275,0.293,0.422,0.438,0.439,0.438c0.065-0.188,0.059-0.336-0.027-0.438c0.086-0.086,0.258-0.129,0.516-0.129
	c0.309,0,0.488,0.043,0.541,0.129c-0.018,0.172-0.045,0.293-0.076,0.36c0.238,0.377,0.324,0.687,0.258,0.927
	c0.259,0.188,0.468,0.317,0.627,0.387c0.164,0.068,0.351,0.127,0.556,0.181c0.242-0.498,0.403-0.886,0.49-1.16h0.151
	c0.433,0.207,0.646,0.354,0.646,0.438c0,0.065-0.012,0.095-0.027,0.076c-0.051,0.053-0.088,0.096-0.117,0.131
	c-0.022,0.033-0.049,0.09-0.076,0.166c-0.022,0.078-0.034,0.133-0.034,0.168c0,0.068,0,0.111,0,0.127
	c0.103,0.121,0.18,0.207,0.229,0.259c0.172,0.312,0.258,0.517,0.258,0.618c0,0.205-0.937,1.099-2.806,2.677
	c-1.407,1.2-2.118,1.802-2.137,1.802c-0.582,0.465-0.937,0.694-1.058,0.694c-0.033,0-0.272-0.009-0.719-0.024
	c-0.447,0-0.688,0-0.721,0c-0.568,0-0.852,0.094-0.852,0.282c0,0.103,0.043,0.229,0.129,0.386c-0.019,0.055-0.033,0.094-0.053,0.129
	c-0.033,1.133-0.488,2.069-1.361,2.807c-0.807,0.671-1.717,1.003-2.729,1.003c-0.907,0-1.752-0.308-2.522-0.927
	c-0.873-0.687-1.338-1.553-1.389-2.598c-0.035-0.037-0.06-0.062-0.076-0.08c-0.021-0.359,0.006-0.652,0.076-0.873
	c0-0.088-0.097-0.129-0.283-0.129c-0.121,0-0.226,0.018-0.31,0.051v1.262c0,0.035-0.021,0.105-0.063,0.22
	c-0.045,0.11-0.062,0.185-0.062,0.22c-0.07,0.444-0.361,0.95-0.875,1.521c-0.518,0.563-1.006,0.907-1.469,1.028
	c-0.102,0.033-0.172,0.06-0.205,0.074c-1.082,0.12-1.52,0.182-1.312,0.182c-0.533,0-1.031-0.086-1.494-0.256
	c-0.583-0.242-1.01-0.49-1.286-0.746c-0.377-0.448-0.618-0.758-0.721-0.93c-0.258-0.529-0.41-0.908-0.463-1.132
	c-0.017-0.153-0.025-0.291-0.025-0.409c-0.034-0.037-0.051-0.062-0.051-0.08c-0.019-0.479,0-0.771,0.051-0.873
	c-0.069-0.052-0.119-0.095-0.155-0.129H46.09l-0.102,0.102c0,0.035,0.018,0.089,0.051,0.154c0.018,0.104,0.005,0.312-0.04,0.619
	c-0.042,0.309-0.071,0.53-0.089,0.67c-0.187,0.994-0.695,1.782-1.518,2.364c-0.721,0.517-1.526,0.772-2.419,0.772
	c-1.149,0-2.136-0.409-2.96-1.235c-0.908-0.907-1.294-2.022-1.158-3.347c-0.034-0.051-0.05-0.084-0.05-0.102h-0.31l-0.079,0.051
	v1.312c0,0.068-0.024,0.104-0.076,0.104c-0.068,0.463-0.291,0.994-0.669,1.596c-0.309,0.464-0.831,0.865-1.568,1.212
	c-0.568,0.271-1.15,0.409-1.751,0.409c-0.6,0-1.175-0.129-1.725-0.385c-0.341-0.156-0.617-0.32-0.824-0.49
	c-0.565-0.465-0.933-0.918-1.104-1.362c-0.054-0.14-0.086-0.25-0.105-0.336c-0.206-0.377-0.292-0.694-0.257-0.951l-0.078-0.075
	V82.83h-2.728c-0.138,0-0.381-0.156-0.734-0.477c-0.35-0.318-0.534-0.484-0.553-0.502c-0.532-0.088-0.925-0.127-1.183-0.127
	c-0.155-0.07-0.231-0.189-0.231-0.361c0-0.223,0.163-0.428,0.489-0.619c0-0.102,0.012-0.273,0.039-0.514
	c0.025-0.24,0.038-0.367,0.038-0.387c0-0.035-0.013-0.076-0.038-0.128c-0.026-0.052-0.039-0.089-0.039-0.104
	c0-0.377,0.008-0.651,0.026-0.823c-0.018-0.55-0.061-0.892-0.129-1.028c-0.085,0.291-0.147,0.506-0.181,0.643
	c-0.154,0.07-0.274,0.104-0.359,0.104c-0.222,0-0.471-0.194-0.747-0.592c0.155-0.17,0.248-0.256,0.283-0.256
	c0.053,0,0.163,0.053,0.334,0.153V77.76c-0.136-0.359-0.206-0.564-0.206-0.617c0-0.24,0.078-0.388,0.232-0.438
	c0.205-0.064,0.317-0.119,0.334-0.152c-0.325-0.154-0.582-0.207-0.772-0.154c-0.085-0.068-0.128-0.258-0.128-0.566
	c0-0.41,0.164-0.607,0.489-0.592v-0.334c0-0.035-0.093-0.387-0.282-1.057c-0.188-0.666-0.283-1.021-0.283-1.057
	C22.929,72.678,22.945,72.58,22.979,72.512z M31.729,70.195c0.173-0.428,0.257-0.67,0.257-0.719v-0.336c-0.016,0-0.18,0-0.489,0
	v1.055H31.729z M30.803,70.195c0.19,0,0.335-0.025,0.438-0.074v-0.955c-0.103-0.051-0.24-0.076-0.412-0.076
	c-0.187,0-0.325,0.035-0.411,0.104v0.953C30.521,70.18,30.648,70.195,30.803,70.195z"/>
<path fill-rule="evenodd" clip-rule="evenodd" fill="#1D1D1B" d="M82.111,23.708l-0.264,0.37l-6.971,0.089l-0.51-1.371h-0.721
	l-0.879,1.107H62.82c0,0,0.055-1.038-1.527-1.038h-5.027l-0.982-0.123l-1.077,1.832c-0.255,0.059-0.235-0.29-0.566-0.308
	c-0.179,0.168-0.163,0.53-0.472,0.566c-0.346,0-0.691,0-1.039,0c-0.097-0.163-0.248-0.126-0.379-0.283
	c-0.098-0.12-0.105-0.36-0.188-0.472c-0.196-0.27-0.446-0.443-0.565-0.755c-0.188-0.499-0.175-1.083-0.188-1.794
	c0.296-0.214,1.011-0.21,1.133-0.755c0.043-0.198-0.278-0.799-0.472-1.228c-0.194-0.427-0.399-0.892-0.566-1.226
	c-0.307-0.609-0.925-1.832-1.322-2.172c-0.484-0.413-1.502-0.589-1.983-0.754c-0.377,0-0.756,0-1.133,0
	c-0.545,0.102-1.646,0.378-2.266,0.566c-0.745,0.226-2,1.066-2.36,1.794c-0.083,0.169-0.125,0.405-0.188,0.566
	c-0.345,0.869-0.438,1.884-0.378,3.304c0.026,0.623,0.26,1.294-0.094,1.889c-0.686,0.367-1.739,0.076-2.455,0.283
	c-0.457,0.131-1.139,0.724-1.604,1.133c-0.246,0.215-0.401,0.252-0.662,0.472c-0.027,0.022-0.069,0.177-0.094,0.188
	c-0.193,0.087-0.253,0.12-0.472,0.378c-0.5,0.594-1.527,1.986-1.605,2.927c-0.031,0.384,0.105,0.719,0.189,1.132
	c0.065,0.317,0.205,0.733,0.189,1.038c-0.031,0.595-0.53,1.214-0.755,1.889c-0.11,0.328-0.188,0.688-0.283,1.038
	c-0.349,1.263-0.792,2.952-0.85,4.438c-0.011,0.273,0.317,0.708-0.095,0.944c-0.645,0.078-1.063-0.069-1.038-0.661
	c-0.315-0.203-0.975-0.3-1.322-0.188c-0.393,0.234-0.395,0.862-0.377,1.509c0.027,0.406-0.444,0.311-0.472,0.662
	c-0.495,0.48-0.657,1.293-0.943,1.983c0,0.157,0,0.314,0,0.471c0.344,0.32,0.267,0.646,0.188,1.039
	c-0.132,0.662-0.127,1.446,0,2.172c0.094,0.53,0.462,0.956,0.755,1.415c0.337,0.529,0.593,0.928,1.039,1.134
	c0.307,0.141,0.666,0.218,0.944,0.377c0.045,0.027,0.131,0.146,0.188,0.189c0.27,0.202,0.621,0.294,0.661,0.661
	c-0.248,0.602-0.502,1.198-0.85,1.7c0.087,0.342,0.441,0.475,0.661,0.754c0.222,0.285,0.405,0.512,0.472,0.945
	c0.089,0.568-0.021,0.643-0.189,1.131c-0.091,0.266-0.117,0.527-0.189,0.756c-0.159,0.506-0.351,0.982-0.472,1.416
	c-0.318,1.143,0.272,3.453,0.566,4.438c0.157,0.525,0.297,1.139,0.472,1.322c0.312,0.326,0.617,0.678,1.133,1.037
	c0.53,0.373,1.181,0.746,1.793,0.85c0.473,0,0.944,0,1.417,0c1.014-0.209,1.998-0.516,2.548-1.227
	c0.127-0.164,0.315-0.621,0.378-0.754c0.298-0.627,0.794-1.25,1.038-1.793c0.157-0.352,0.202-0.586,0.284-0.947
	c0.008-0.033,0.175-0.23,0.188-0.281c0.529-2.096,0.47-4.225,1.511-5.947c2.711-0.822,4.972-2.41,6.797-3.965
	c0.079-0.068,0.107-0.215,0.188-0.284c0.109-0.092,0.283-0.103,0.379-0.188c0.164-0.151,0.319-0.333,0.472-0.472
	c0.213-0.195,0.38-0.307,0.566-0.474c0.289-0.26,0.529-0.833,1.037-0.755c-0.24,0.698-0.366,1.457-0.473,2.172
	c-0.124,0.843-0.324,1.731-0.188,2.549c0.072,0.439,0.435,0.809,0.473,1.227c0.026,0.307-0.122,0.82-0.189,1.229
	c-0.072,0.432-0.098,0.895-0.188,1.227c-0.189,0.684-0.583,1.27-0.661,1.982c-0.049,0.441,0.036,0.924,0,1.416
	c0.451,0.533,1.664,0.508,2.36,0.754c0.214,0.076,0.42,0.279,0.659,0.379c1.133,0.463,2.297,0.848,3.305,0.943
	c0.988,0.096,2.549,0.143,2.645-0.564c0.037-0.287-0.387-0.65-0.662-0.85c-0.352-0.258-0.74-0.314-1.037-0.475
	c-0.211-0.424-0.809-0.695-1.039-0.943c-0.061-0.064-0.033-0.217-0.094-0.283c-0.41-0.428-0.898-0.729-1.133-1.322
	c-0.255-0.643-0.257-2.182,0-2.736c0.246-0.537,0.596-0.893,0.848-1.322c0.223-0.375,0.426-0.814,0.568-1.227
	c1.201-3.465,1.303-7.893,1.51-12.273c0.846-0.099,1.668-0.398,2.359-0.754c0.662-0.341,1.611-0.958,1.889-1.511
	c0.207-0.409,0.324-0.962,0.566-1.51c0.203-0.458,0.504-0.875,0.754-1.322c0.246-0.438,0.512-0.872,0.756-1.322
	c0.197-0.362,0.42-0.736,0.566-1.038c0.217-0.438,0.174-0.889,0.379-1.322c0.176-0.369,0.586-0.69,0.943-1.039
	c0.752-0.729,1.287-1.163,2.172-1.7c0.377-0.229,0.879-0.587,1.227-0.661l0.242-0.718l2.881-0.21l0.828-1.16l7.504-0.211
	l0.152-1.039L82.111,23.708z M31.832,40.317c-0.208-0.22,0.131-0.425,0.283-0.567C32.512,39.871,32.123,40.315,31.832,40.317z
	 M51.185,39.183c-0.405-0.605-0.028-1.864,0-2.644c0-0.094,0-0.189,0-0.283c0.063,0,0.126,0,0.189,0
	c0.813,0.351,1.442,0.886,2.076,1.417C52.867,38.35,51.898,38.639,51.185,39.183z M64.967,28.799
	c-0.225,0.34-0.875,1.026-1.32,1.321c-0.469,0.312-1.004,0.981-1.51,1.417c-0.344,0.295-0.705,0.58-1.133,0.85
	c-0.068,0.041-0.211,0.039-0.285,0.094c-0.135,0.101-0.285,0.239-0.66,0.378c-0.324,0.121-1.398,0.496-1.793,0.473
	c-0.553-0.034-2.156-1.079-2.268-1.7c-0.059-0.343,0.182-0.879,0.285-1.227c0.098-0.331,0.182-0.719,0.377-1.039
	c0.762-0.07,1.23,0.153,1.982,0.095c0.021,0.703,0.014,0.137,0.096,2.077c0.92-0.15,1.795-0.343,2.643-0.566
	c0.07-2.007,0.084-1.491,0.094-2.266c1.449-0.501,0.926-0.425,4.438-1.416C65.938,27.877,65.27,28.345,64.967,28.799z
	 M73.453,24.009l0.281-0.721l0.352-0.018l0.211,0.686L73.453,24.009z"/>
</svg>
