<?xml version="1.0" encoding="utf-8"?>
<!-- Generator: Adobe Illustrator 15.0.2, SVG Export Plug-In . SVG Version: 6.00 Build 0)  -->
<!DOCTYPE svg PUBLIC "-//W3C//DTD SVG 1.1//EN" "http://www.w3.org/Graphics/SVG/1.1/DTD/svg11.dtd">
<svg version="1.1" id="Ebene_1" xmlns="http://www.w3.org/2000/svg" xmlns:xlink="http://www.w3.org/1999/xlink" x="0px" y="0px"
	 width="100px" height="100px" viewBox="0 0 100 100" enable-background="new 0 0 100 100" xml:space="preserve">
<circle fill="#B2B2B2" cx="50" cy="50" r="50"/>
<path fill-rule="evenodd" clip-rule="evenodd" fill="#231F20" d="M32.884,9.389c0.029,0.074-0.073,0.122-0.111,0.168
	c-0.731-0.002-1.459,0.057-2.189,0.111c-0.161,0.19-0.373,0.401-0.234,0.661c-0.697,0.108-1.522,0.263-1.802,1.006
	c-0.091,0.247,0.191,0.344-0.462,0.789c-0.487,0.332-0.483,0.577-0.324,1.142c0.173,0.611,0.444,1.104,0.267,1.742
	c-0.147,0.546,0.144,0.978,0.375,1.446c-0.16,0.192-0.121,0.424-0.078,0.651c0.03,0.159,0.059,0.098,0.189,0.239
	c0.267,0.305-0.234,0.678-0.356,1.032c-0.326,0.002-0.607-0.235-0.939-0.155c-0.435,0.781-0.472,1.687-0.545,1.815l-3.581,3.285
	c-0.434,0.402-1.758,1.662-2.056,2.147c-0.646,1.034-0.49,2.323-0.481,3.48c0.013,1.232,0.331,2.423,0.465,3.643
	c0.122,1.119,0.493,3.145,0.704,4.302c0.058,0.293,0.298,1.656,0.357,1.836c0.149,0.431,0.752,0.84,1.129,1.061
	c0.743,3.428,0.962,7.21,1.883,10.496c0.584,0.32,1.385,0.371,1.852,0.757l0.047,0.044l0.101,1.53
	c0.172,2.06,0.491,4.128,1.174,6.09c0.123,0.361,0.079,0.276,0.086,0.697c0.072,2.998-0.056,6.01,0.193,9.002
	c0.083,0.954,0.132,1.926,0.027,2.884c-0.031,0.288,0.032,0.223,0.055,0.557c0.014,0.429-0.062,0.791,0.028,1.228
	c0.245,1.273-0.018,3.788,0.183,4.339c0.211,0.578,0.892,1.133,0.491,1.785c-0.21,0.348-0.744,0.984-0.385,1.395
	c0.195,0.224,0.292,0.521,0.541,0.691c-0.525,0.626-0.439,0.517,0.09,1.33c-0.192,0.62-0.521,1.321-0.177,1.955
	c0.168,0.313,1.182,0.178,1.329,0.248l0.341,0.21c0.752,0.41,1.604,0.63,2.343,1.079c0.208,0.131,0.208,0.143,0.486,0.169
	c0.673,0.056,1.34-0.089,1.977-0.272c0.254-0.077,0.333-0.04,0.39-0.268c0.106-0.417-0.22-0.822-0.117-1.243
	c0.034-0.111-0.065-0.262-0.109-0.365c-0.324-0.718-0.956-1.3-1.455-1.885l0.418-0.529c-0.106-0.367-0.229-0.717-0.444-1.032
	c0.247-0.307,0.622-0.65,0.451-1.084c-0.156-0.386-0.096-0.376-0.379-0.821c-0.196-0.323-0.44-0.62-0.669-0.923
	c0.546-3.463,0.632-6.983,0.844-10.48c0.1-1.688,0.166-1.775-0.08-3.489c-0.059-0.368-0.086-0.289,0.011-0.635
	c0.316-1.264,0.667-2.519,0.867-3.81c0.147,0.348,0.104,0.303,0.139,0.693c0.212,2.098,0.505,4.266,1.513,6.154l0.106,0.189
	l-0.052,2.238c-0.017,2.143,0.02,4.328,0.517,6.42c0.065,0.31,0.077,0.197-0.028,0.486c-0.85,2.229-0.355,4.666-0.188,6.972
	c0.038,0.547-0.052,0.522,0.377,0.729c0.384,0.179,0.089,0.368,0.362,0.872c0.308,0.565,1.213,0.315,1.723,0.464
	c0.51,0.146,1.07,0.297,1.489-0.136c1.58,0.201,3.154,0.664,4.761,0.568c0.379-0.024,0.328,0.116,1.171,0.003
	c0.347,0.346,0.712,0.774,1.228,0.846c0.192,0.022,0.142-0.069,0.385-0.112c0.461-0.079,0.884,0.376,1.293-0.152
	c0.412-0.526,0.991-0.938,0.978-1.661l-0.027-1.633c0.141-0.089,0.29-0.119,0.452-0.12c-0.154-3.464-0.695-6.951-0.291-10.421
	c0.059-0.515,0.035-0.375,0.006-0.926c-0.243-3.901-0.211-7.701-0.01-11.604c0.074-1.473,0.125-2.946,0.082-4.425
	c0.288,0.248,0.19,0.161,0.33,0.468c0.657,1.422,1.845,2.613,1.567,4.298l-0.028,0.426c0.021,1.187-0.033,2.398,0.202,3.572
	l0.105,0.642c0.115,0.686,0.611,2.155,0.496,2.843c-0.036,0.191-0.142,0.468-0.195,0.862c-0.301,1.972,0.304,3.924,0.411,5.886
	c0.028,0.658,0.167,1.455,0.23,2.135c0.181,1.828,0.258,3.706-0.117,5.52c-0.045,0.228-0.071,0.189,0.007,0.411
	c0.158,0.464,0.164,0.441,0.591,0.435c-0.104,1.037-0.249,2.103-0.029,3.136c0.704,0.311,1.438,0.487,2.193,0.587
	c0.565,0.077,0.395,0.033,0.723-0.292c0.08-0.078,0.155-0.052,0.262-0.047c1.033,0.028,2.011,0.481,3.042,0.567
	c0.938,0.075,2.194,0.211,3.136,0.072c0.574-0.089,0.605-0.345,0.611-0.776c0.005-0.189-0.041-0.402-0.272-0.398
	c-0.188,0.004-1.852-0.513-2.188-0.652c-0.8-0.334-1.512-0.804-2.027-1.515c-0.195,0.016-0.276,0.073-0.387,0.218
	c-0.216-0.161-0.421-0.313-0.528-0.558c0.346-0.134,0.752-0.075,0.951-0.457c0.052-0.112-0.14-1.351,0.011-2.068
	c0.166-0.766-0.207-2.236,0.152-3.439l-0.115-0.146l0.258-9.151c0.071-4.219-0.004-7.681-0.394-11.888
	c0.395-0.355,0.853-0.213,1.288-0.036c0.225,0.093,0.203,0.075,0.463,0.085c0.644,0.021,1.296,0.028,1.944-0.075
	c0.168,0.263,0.401,0.039,0.592,0.167c0.104,0.069,0.182,0.224,0.57,0.378c0.842,0.323,0.871,0.203,1.599-0.235l0.529,0.406
	c0.021,1.303,0.55,2.558,0.395,3.867c-0.036,0.235,0.019,0.241,0.035,0.472c0.061,1.021-0.76,1.673-0.489,2.787
	c0.089,0.357,0.013,0.282,0.184,0.712c0.147,0.37,0.254,0.613-0.023,0.939c0.446,1.667,0.267,3.417,0.408,5.117
	c0.037,0.49,0.078,0.224-0.171,0.632c-0.912,1.511-0.357,3.418-1.145,4.972c-0.527,1.036-0.724,2.207-0.555,3.362
	c0.036,0.256,0.043,0.236-0.021,0.479c-0.306,1.208-1.059,2.694-0.18,3.845c0.12,0.157,0.104,0.126,0.129,0.313
	c0.129,0.889-0.125,2.197,0.911,2.633c0.615,0.26,0.996,0.335,1.668,0.354c0.266,0.006,0.298,0.002,0.526-0.102
	c0.938-0.413,0.279-1.364,0.266-2.234c0.865-0.451,0.657-1.417,0.932-2.21l0.382-1.804c0.132-0.589,0.395-1.654,0.453-2.212
	l0.142-2.346l0.248-0.263c1.088-1.344,0.105-3.467,0.886-4.965l0.086-0.15c0.366,1.261,0.071,2.565-0.331,3.779
	c-0.101,0.304-0.087,0.304-0.057,0.616c0.089,0.85,0.38,1.74,0.132,2.586c-0.063,0.206-0.049,0.643-0.074,0.889
	c-0.115,1.131-0.459,2.462-0.244,3.597c0.112,0.598-0.058,1.428,0.559,1.802c0.083,0.055,0.119,0.13,0.182,0.217
	c-0.142,0.447-0.653,1.503-0.146,1.89c0.194,0.146,0.622,0.226,0.704,0.296c0.09,0.069,0.282,0.673,1.351,0.875
	c0.448,0.075,0.903,0.081,1.354,0.073c0.284-0.004,0.195-0.017,0.432-0.11c0.377-0.158,0.658-0.331,0.576-0.801
	c-0.105-0.517-0.699-0.803-0.588-1.389c0.032-0.167,0.201-0.224,0.268-0.346c0.044-0.107,0.201-1.306,0.22-1.503
	c0.15-1.404,0.185-2.805,0.139-4.219c-0.018-0.622-0.026-0.252,0.217-0.827c0.618-1.46,0.137-3.139,0.601-4.649l0.39-1.364
	c0.367-1.153,0.791-2.315,0.714-3.542c-0.046-0.795-0.147-2.054,0.034-2.83c0.077-0.282,0.194-0.53,0.346-0.771
	c-0.182-0.085,0.072-0.177,0.038-0.272l-0.43-0.441l1.049-4.558c0.768-0.419,0.644-0.565,0.519-1.43
	c0.616-0.156,0.529-0.073,0.517-0.817c0.479-0.209,1.114-0.478,1.122-1.088c0.011-1.002-0.454-1.661-0.658-2.605
	c-0.327-1.473-1.467-2.345-2.233-3.575c-0.098-0.162-0.122-0.154-0.267-0.265c-0.978-0.757-1.46-1.899-2.595-2.52
	c-0.098-0.872-0.554-0.566-0.923-0.762l-0.107-0.094c0.346-0.358,0.087-1.149,0.779-1.16c0.079-0.158,0.165-0.308,0.142-0.493
	c0.755-0.25,0.273-1.027,0.942-1.375c-0.163-0.413,0.111-0.582,0.135-0.841c0.033-0.373-0.458-1.352-0.465-2.111
	c0.012-0.146-0.085-0.202-0.073-0.343c0.243-0.111,0.252-0.427,0.094-0.566c-0.173-0.153-0.212-0.142-0.146-0.434
	c0.073-0.311,0.066-0.289-0.189-0.512c-1.11-0.955-2.624-1.074-4.013-1.094c-0.369-0.004-0.415,0.007-0.663,0.243
	c-0.168-0.105-0.584-0.087-0.636-0.011c-0.166,0.269,0.22,0.571-0.287,0.659c-0.407,0.07-0.792,1.028-0.467,1.349
	c-0.396,0.355-0.365,0.894-0.247,1.375c-0.369,0.253-0.325,0.526-0.251,0.937l0.056,0.309c0.04,0.081,0.156,0.106,0.072,0.321
	c-0.07,0.232-0.03,0.32,0.009,0.568c0.099,0.517,0.273,1.047,0.747,1.337c0.03,0.561,0.176,1.138,0.63,1.517
	c0.117,0.093,0.125,0.086,0.106,0.253c-0.037,0.331-0.517,0.311-0.825,0.568c-0.676,0.562-1.667,0.561-2.493,0.599
	c-0.707,0.993-1.45,1.966-2.094,3.007c-0.197,0.319-0.071,0.162-0.464,0.334c-0.327,0.137-0.448,0.295-0.586,0.614
	c-0.089,0.218,0,0.415-0.238,0.557c-0.383-0.14-0.493,0.232-0.639,0.505c-0.103,0.208-0.02,0.104-0.083,0.329
	c-0.164,0.602-1.201,0.354-1.67,0.567l-0.162,0.026c0.019-0.758,0.279-1.509,0.068-2.259c0.109-0.027,0.453-0.055,0.519-0.141
	c0.102-0.119,0.274-0.849,0.303-1.031c0.179-1.004,0.129-2.033,0.282-3.04c0.377-2.56,0.385-5.304,0.412-7.897
	c0.036-3.334-0.97-6.368-0.92-9.563c0.003-0.419,0.008-0.59-0.155-0.979c-0.436-1.039-1.675-1.672-2.613-2.14
	c-0.302-0.144-0.243-0.094-0.53-0.125c-1.435-0.144-2.426-1.461-3.737-1.937c-0.175-0.061-0.225-0.103-0.315-0.264
	c-0.147-0.275-0.146-0.652-0.17-0.954c-0.027-0.369,0.46-0.352,0.619-0.603c0.283-0.432,0.188-0.806,0.653-1.022
	c0.058-0.371,0.037-0.765-0.188-1.069c0.737-0.3,0.511-0.932,0.703-1.517c0.129-0.394-0.029-0.845,0.256-1.187
	c0.05-0.061,0.049-0.114,0.048-0.192c-0.021-0.349-0.315-0.592-0.55-0.805c0.215-0.948-0.382-1.567-0.961-2.246
	c-0.282-0.336-0.215-0.302-0.641-0.507c-0.307-0.147-0.675-0.219-0.991-0.037c-0.568-0.498-0.98-0.274-1.684-0.306
	c-0.602-0.025-1.152,0.162-1.552,0.612c-0.225-0.021-0.319,0.119-0.391,0.316c-0.036,0.128,0.087,0.25-0.093,0.346
	c-0.214,0.124-0.406,0.166-0.673,0.354c-0.364,0.258-0.663,0.602-1.073,0.796c-0.133,0.069-0.154,0.082-0.234,0.224
	c-0.327,0.613,0.199,1.311-0.042,1.936c-0.236,0.568-0.595,0.993-0.279,1.617c0.24,0.497,0.923,0.833,0.82,1.474
	c-0.1,0.651,0.739,0.829,0.918,1.369c0.12,0.364,0.735,0.213,0.742,0.637l0.008,0.486c-0.833,0.498-0.807,1.189-1.318,1.897
	c-1.84-0.125-3.442,0.473-4.85,1.648l-0.395-0.47c1.11-1.279,1.987-2.586,2.019-4.333c0.789-0.625,1.385-1.44,1.129-2.483
	c-0.224-0.863-1.157-1.415-1.801-1.919l-0.798,0.18l-0.429-0.554c0.089-0.672-0.304-1.23-0.861-1.571
	c0.037-0.605,0.34-0.301,0.444-0.296l0.188-0.003l0.086-0.116c-0.166-0.547-0.634-0.979-0.92-1.479
	c0.068,0.045,0.193-0.078,0.251-0.107c-0.261-0.439-0.691-0.695-1.11-0.951c-0.258-0.158-0.498-0.226-0.772-0.339
	c0.055-0.157,0.185-0.387,0.026-0.529c-0.068-0.067-0.238-0.018-0.327-0.016c-0.724,0.012-1.446-0.082-1.999,0.48
	c-0.327-0.015-0.727-0.002-0.978,0.248c-0.19,0.184,0.081,0.438-0.876,0.874c-0.342,0.158-0.706,0.332-0.848,0.716
	c-0.092,0.265,0.247,0.16,0.368,0.18c0.059,0.304-0.368,0.709-0.058,0.956c0.227,0.181,0.058,1.596,0.417,2.248
	c0.427-0.33,0.331,0.247,0.508,0.478l0.359,0.655c-0.423,0.387-0.807,0.741-1.098,1.232c-1.071-0.348-1.264-0.014-1.554,0.903
	l-0.107-0.027c0.04,0.039,0.107,0.03,0.108,0.102c-0.249-0.053-0.479-0.23-0.562-0.474c0.777-0.016,0.203-0.831,0.377-1.259
	c0.056-0.143-0.055-0.135,0.155-0.5c0.1-0.189,0.091-0.275-0.015-0.454c0.104-0.026,0.333-0.066,0.346-0.212
	c0.004-0.131-0.178-0.366,0.327-0.56c0.734-0.289,0.596-0.439,0.208-1.309c-0.31-0.688-0.117-0.84-0.028-1.672
	c0.07-0.769,0.063-1.553-0.092-2.314c0.112-0.105,0.443-0.288,0.426-0.461l-0.188-0.565c0.591-0.17,0.566-1.224,0.044-1.403
	c-0.271-0.095-0.417-0.224-0.855-0.174c-0.429,0.054-0.132,0.222-0.781-0.41c-0.477-0.468-0.534,0.147-1.103-0.088
	C33.609,9.228,33.267,8.722,32.884,9.389"/>
</svg>
