<?xml version="1.0" encoding="utf-8"?>
<!-- Generator: Adobe Illustrator 15.0.2, SVG Export Plug-In . SVG Version: 6.00 Build 0)  -->
<!DOCTYPE svg PUBLIC "-//W3C//DTD SVG 1.1//EN" "http://www.w3.org/Graphics/SVG/1.1/DTD/svg11.dtd">
<svg version="1.1" id="Ebene_1" xmlns="http://www.w3.org/2000/svg" xmlns:xlink="http://www.w3.org/1999/xlink" x="0px" y="0px"
	 width="100px" height="100px" viewBox="0 0 100 100" enable-background="new 0 0 100 100" xml:space="preserve">
<circle fill="#B2B2B2" cx="50" cy="50" r="50"/>
<path fill="#010202" stroke="#010202" stroke-width="0.2625" stroke-linejoin="round" d="M71.081,22.259
	c-0.575-0.239-0.526-1.342-0.526-1.342h-6.613c0.105,0.282,0.121,0.573,0.094,0.708l0.431,6.163l0.15,5.101l-0.024,0.888
	c0,0-0.08,1.225-1.148,1.512c-0.938,0.301-1.385-0.394-1.385-0.394s-0.287-0.327-0.291-0.839c-0.027-0.645-0.242-8.831-0.242-8.831
	l-0.057-1.124c0,0,0.268-0.245,0.28-0.121c0.062,0.239,0.058,1.535,0.058,1.535l0.159,5.419l0.082,3c0,0,0.165,0.982,0.627,1.053
	c0.407,0.191,0.994,0.035,1.313-0.389c0.271-0.44,0.304-0.696,0.304-0.696l-0.001-2.45l-0.089-2.445l-0.214-3.369l-0.26-3.63
	c0,0,0.063-0.651-0.178-1.091h-1.326h-0.291H25.042v59.171l43.233,0.12c0,0,0-0.479,0.264-0.526
	c0.266-0.049,2.016-0.406,2.016-1.031c0-0.623,0-35.973,0-35.973s-0.049-1.102,0.526-1.342c0.575-0.239,2.603-0.669,2.603-2.219
	c0-0.982,0-6.325,0-6.325v-4.005c0,0,0-3.325,0-4.308C73.684,22.927,71.656,22.499,71.081,22.259z M42.418,53.364
	c0,0.005-0.003,0.01-0.003,0.017h0.003l-0.037,1.292c0.022,0.054,0.037,0.108,0.037,0.165c0,0.001,0,0.004,0,0.006
	c0,0.005-0.003,0.01-0.003,0.017h0.003l-0.046,1.579c-0.139,0.077-0.287,0.15-0.442,0.22l-0.025,0.885
	c0.102,0.11,0.161,0.227,0.16,0.347c0,0.002,0,0.004,0,0.005c0,0.007-0.004,0.012-0.004,0.018h0.002l-0.046,1.579
	c-0.111,0.062-0.231,0.118-0.352,0.176l-0.014,0.467c0.413,0.202,0.652,0.437,0.65,0.687c0,0.004,0,0.006,0,0.007
	c0,0.007-0.003,0.012-0.003,0.018h0.003l-0.038,1.291c0.023,0.055,0.038,0.109,0.038,0.165c0,0.002,0,0.005,0,0.007
	c0,0.006-0.003,0.011-0.003,0.017h0.003l-0.045,1.579c-2.282,1.274-6.759,1.382-9.635-0.067l-0.022-1.53c0-0.002,0-0.004,0-0.005
	s0-0.003,0-0.007c0,0,0-0.001,0-0.002l0-0.038h0.007c0.002-0.022,0.006-0.046,0.013-0.069l-0.016-1.061
	c-0.209-0.086-0.414-0.175-0.61-0.274l-0.022-1.529c0-0.001,0-0.003,0-0.005s0-0.003,0-0.005c0-0.001,0-0.002,0-0.004l0-0.036h0.008
	c0.019-0.179,0.156-0.35,0.395-0.505l-0.011-0.714c-0.036-0.019-0.075-0.033-0.11-0.051l-0.022-1.53c0-0.001,0-0.002,0-0.004
	s0-0.004,0-0.005s0-0.003,0-0.004l0-0.037h0.007c0.003-0.025,0.007-0.049,0.014-0.075l-0.018-1.212
	c-0.08-0.038-0.163-0.07-0.24-0.11l-0.022-1.528c0-0.002,0-0.003,0-0.004c0-0.003,0-0.005,0-0.007l0-0.002l0-0.037h0.008
	c0.01-0.095,0.054-0.185,0.126-0.273l-0.019-1.315c0-0.002,0-0.003,0-0.005c0-0.001,0-0.004,0-0.006c0-0.001,0-0.001,0-0.003
	l0-0.037h0.007c0.02-0.179,0.156-0.349,0.394-0.504l-0.011-0.715c-0.035-0.018-0.074-0.032-0.109-0.051l-0.022-1.529
	c0-0.001,0-0.003,0-0.004c0-0.002,0-0.004,0-0.006c0-0.001,0-0.002,0-0.003l0-0.037h0.008c0.002-0.026,0.006-0.05,0.014-0.075
	l-0.018-1.214c-0.08-0.037-0.163-0.069-0.24-0.109l-0.021-1.529c0-0.001,0-0.002,0-0.004c0-0.002,0-0.004,0-0.006
	c0-0.001,0-0.001,0-0.002l0-0.038h0.007c0.081-0.74,2.222-1.332,4.854-1.33c2.679,0.002,4.847,0.618,4.841,1.376
	c0,0.002,0,0.004,0,0.006c0,0.006-0.002,0.011-0.003,0.017h0.002l-0.027,0.935c0.183,0.146,0.288,0.302,0.286,0.464
	c0,0.002,0,0.004,0,0.007c0,0.006-0.003,0.011-0.003,0.017h0.003l-0.04,1.362c0.024,0.055,0.04,0.111,0.04,0.169
	c0,0.002,0,0.004,0,0.006c0,0.006-0.003,0.012-0.003,0.018h0.003l-0.031,1.051c0.102,0.111,0.161,0.228,0.16,0.348
	c0,0.002,0,0.003,0,0.006c0,0.006-0.002,0.011-0.002,0.017h0.002l-0.045,1.58c-0.11,0.062-0.23,0.119-0.353,0.175l-0.013,0.466
	c0.413,0.203,0.652,0.438,0.65,0.688C42.418,53.359,42.418,53.361,42.418,53.364z M53.824,67.404c0,0.006-0.004,0.012-0.004,0.019
	h0.004l-0.048,1.647c-2.38,1.328-7.05,1.439-10.05-0.071l-0.019-1.286c-0.218-0.086-0.431-0.18-0.636-0.284l-0.023-1.594
	c0-0.001,0-0.004,0-0.006s0-0.003,0-0.006c0-0.001,0-0.003,0-0.003l0-0.039h0.008c0.02-0.187,0.163-0.363,0.411-0.525l-0.011-0.746
	c-0.038-0.019-0.077-0.032-0.114-0.052l-0.023-1.594c0-0.001,0-0.004,0-0.005c0-0.002,0-0.005,0-0.007c0,0,0-0.001,0-0.004l0-0.038
	h0.008c0.003-0.027,0.007-0.053,0.015-0.078l-0.007-0.465c-0.177-0.077-0.347-0.158-0.504-0.246l-0.045-1.578h0.004
	c0-0.008-0.004-0.012-0.004-0.018c0-0.002,0-0.004,0-0.006c0-0.057,0.015-0.11,0.038-0.165l-0.038-1.292h0.001
	c0-0.006-0.003-0.011-0.003-0.017c0-0.002,0-0.004,0-0.006c-0.001-0.197,0.148-0.381,0.409-0.55l-0.008-0.507
	c-0.056-0.027-0.114-0.049-0.169-0.077l-0.023-1.594c0-0.002,0-0.004,0-0.004c0-0.003,0-0.005,0-0.008c0-0.001,0-0.002,0-0.003
	V56.16h0.007c0.003-0.029,0.016-0.061,0.025-0.089l0-0.039h0.003c0-0.007-0.003-0.011-0.003-0.017c0-0.003,0-0.005,0-0.007
	c-0.001-0.12,0.058-0.236,0.16-0.347l-0.03-1.052h0.003c0-0.006-0.003-0.012-0.003-0.018c0-0.002,0-0.004,0-0.006
	c0-0.058,0.015-0.114,0.04-0.169l-0.04-1.363h0.003c0-0.006-0.003-0.011-0.003-0.016c0-0.003,0-0.005,0-0.007
	c-0.001-0.163,0.103-0.319,0.286-0.464l-0.027-0.936h0.003c0-0.006-0.003-0.012-0.003-0.017c0-0.002,0-0.005,0-0.006
	c-0.005-0.759,2.162-1.375,4.842-1.376c2.632-0.002,4.773,0.59,4.854,1.331h0.008l-0.001,0.037l0.001,0.002c0,0.002,0,0.004,0,0.007
	c0,0.001-0.001,0.003-0.001,0.004l-0.022,1.529c-0.077,0.039-0.16,0.071-0.239,0.109l-0.018,1.213
	c0.007,0.025,0.011,0.049,0.014,0.075h0.008l-0.001,0.037l0.001,0.002c0,0.002,0,0.004,0,0.007c0,0.001-0.001,0.002-0.001,0.004
	l-0.017,1.152c0.175,0.146,0.274,0.301,0.273,0.464c0,0.002,0,0.004,0,0.007c0,0.006-0.003,0.011-0.003,0.017h0.002l-0.03,1.062
	c0.012,0.032,0.022,0.065,0.027,0.098h0.007l-0.001,0.037c0,0.001,0.001,0.002,0.001,0.003c0,0.002,0,0.004,0,0.006
	s-0.001,0.003-0.001,0.005v0.001c0.122,0.123,0.19,0.254,0.188,0.389c0,0.002,0,0.004,0,0.006c0,0.006-0.003,0.012-0.003,0.018
	h0.003l-0.048,1.647c-0.041,0.023-0.089,0.044-0.133,0.067c0.028,0.062,0.047,0.123,0.047,0.186c0,0.004,0,0.006,0,0.008
	c0,0.006-0.003,0.011-0.003,0.018h0.003l-0.028,0.976c0.19,0.151,0.299,0.314,0.298,0.483c0,0.003,0,0.004,0,0.007
	c0,0.007-0.004,0.011-0.004,0.017h0.004l-0.041,1.422c0.023,0.059,0.041,0.117,0.041,0.177c0,0.002,0,0.005,0,0.006
	c0,0.007-0.004,0.013-0.004,0.019h0.004l-0.031,1.097c0.105,0.115,0.167,0.236,0.166,0.362c0,0.002,0,0.004,0,0.006
	c0,0.007-0.002,0.011-0.003,0.018h0.003l-0.048,1.647c-0.115,0.064-0.241,0.124-0.366,0.182l-0.015,0.486
	c0.431,0.212,0.681,0.456,0.68,0.715C53.824,67.399,53.824,67.403,53.824,67.404z M64.023,46.212c0,0.005-0.003,0.01-0.003,0.016
	h0.003l-0.045,1.562c-0.094,0.051-0.193,0.098-0.293,0.145l-0.037,1.26c-0.11,0.062-0.229,0.118-0.348,0.173l-0.014,0.462
	c0.407,0.2,0.646,0.432,0.644,0.68c0,0.002,0,0.004,0,0.006c0,0.006-0.003,0.011-0.004,0.017h0.004l-0.047,1.562
	c-0.058,0.032-0.122,0.061-0.184,0.092c0.041,0.07,0.067,0.144,0.067,0.218c0,0.003,0,0.005,0,0.007
	c0,0.006-0.003,0.011-0.004,0.017h0.004l-0.047,1.562c-0.05,0.029-0.108,0.053-0.161,0.08l-0.02,0.685
	c0.308,0.18,0.484,0.381,0.483,0.595c0,0.002,0,0.004,0,0.006c0,0.006-0.003,0.01-0.003,0.017h0.003l-0.045,1.562
	c-0.094,0.05-0.193,0.098-0.293,0.145l-0.037,1.26c-0.11,0.062-0.229,0.118-0.348,0.174l-0.014,0.462
	c0.407,0.199,0.646,0.432,0.644,0.68c0,0.002,0,0.004,0,0.006c0,0.007-0.003,0.01-0.004,0.017h0.004l-0.047,1.562
	c-2.256,1.259-6.683,1.365-9.526-0.067l-0.018-1.217c-0.207-0.084-0.408-0.173-0.602-0.271l-0.022-1.513
	c0-0.002-0.001-0.004-0.001-0.005c0-0.002,0-0.004,0-0.006c0,0,0.001-0.001,0.001-0.002l-0.001-0.037h0.008
	c0.019-0.177,0.153-0.346,0.39-0.498l-0.011-0.864c0-0.002-0.001-0.003-0.001-0.004c0-0.002,0-0.004,0-0.006
	c0-0.001,0.001-0.002,0.001-0.003l-0.001-0.037h0.007c0.018-0.162,0.135-0.316,0.335-0.459l-0.01-0.724
	c-0.148-0.064-0.296-0.129-0.438-0.2l-0.022-1.512c0-0.001-0.001-0.003-0.001-0.005c0-0.001,0-0.003,0-0.005
	c0-0.001,0.001-0.002,0.001-0.003l-0.001-0.036h0.008c0.014-0.126,0.084-0.247,0.209-0.361l-0.015-0.995
	c0-0.002-0.001-0.004-0.001-0.005c0-0.002,0-0.004,0-0.005c0-0.002,0.001-0.002,0.001-0.004l-0.001-0.037h0.009
	c0.012-0.113,0.08-0.225,0.186-0.329c-0.003-0.001-0.006-0.002-0.008-0.003l-0.018-1.217c-0.207-0.084-0.409-0.174-0.603-0.271
	l-0.022-1.513c0-0.001,0-0.002,0-0.004c0-0.002,0-0.003,0-0.006c0-0.001,0-0.001,0-0.002v-0.037h0.007
	c0.02-0.177,0.154-0.345,0.391-0.499l-0.013-0.863c0-0.001,0-0.003,0-0.004s0-0.004,0-0.005c0-0.001,0-0.002,0-0.002v-0.037h0.007
	c0.018-0.162,0.135-0.317,0.335-0.459l-0.01-0.724c-0.148-0.064-0.297-0.128-0.438-0.2l-0.022-1.512
	c0-0.001-0.001-0.002-0.001-0.004c0-0.002,0-0.003,0-0.005c0-0.001,0.001-0.001,0.001-0.003l-0.001-0.037h0.008
	c0.014-0.125,0.084-0.247,0.209-0.361l-0.015-0.996c0-0.001-0.001-0.002-0.001-0.004c0-0.002,0-0.003,0-0.005
	c0-0.001,0.001-0.002,0.001-0.003l-0.001-0.037h0.008c0.08-0.731,2.198-1.316,4.799-1.315c2.65,0.001,4.794,0.61,4.788,1.36
	c0,0.001,0,0.004,0,0.006c0,0.006-0.003,0.011-0.003,0.017h0.003l-0.046,1.562c-0.051,0.029-0.108,0.054-0.161,0.081l-0.021,0.684
	c0.31,0.18,0.485,0.381,0.483,0.594C64.024,46.204,64.024,46.206,64.023,46.212z"/>
</svg>
