<?xml version="1.0" encoding="utf-8"?>
<!-- Generator: Adobe Illustrator 15.0.2, SVG Export Plug-In . SVG Version: 6.00 Build 0)  -->
<!DOCTYPE svg PUBLIC "-//W3C//DTD SVG 1.1//EN" "http://www.w3.org/Graphics/SVG/1.1/DTD/svg11.dtd">
<svg version="1.1" id="Ebene_1" xmlns="http://www.w3.org/2000/svg" xmlns:xlink="http://www.w3.org/1999/xlink" x="0px" y="0px"
	 width="100px" height="100px" viewBox="0 0 100 100" enable-background="new 0 0 100 100" xml:space="preserve">
<circle fill="#B2B2B2" cx="50" cy="50" r="50"/>
<path d="M82.915,59.72l-1.325-0.526V46.321h1.963l-0.248-1.733l-1.371-10.992H81.74v-4.765l0.193-0.109v-1.41h-0.836v-0.811h-1.52
	v0.757h-0.686v1.407l0.192,0.219v4.494H64.654l-7.457-8.23l-0.783,0.866l-11.78-11.589L19.703,41.554l-0.725,0.058l0.099,0.499
	l3.706,2.041v13.859l-8.357,1.712v0.498l0.2,0.162l0.9,0.061v0.552h0.35v0.937h2.551v0.828l0.226,0.248v12.508h-0.166v1.365h-0.333
	v1.51h0.279v2.315h13.093v0.619h13.123v0.491l-0.238,0.266v0.354h0.211v0.709h-0.307v0.432h21.203v-0.432h-0.309v-0.709h0.21v-0.354
	l-0.235-0.266v-0.491h14.641v-1.86h0.439v-0.38h0.934V62.041l0.015-1.062h0.317l0.031-0.537l1.599,0.019l0.415-0.291V59.72H82.915z
	 M23.596,71.398h-3.632v-8.189l0.273-0.3v-0.72h2.888v7.914h0.471V71.398z M35,72h-6.25v-8H35V72z M35,55.5h-6.5v-8.75H35V55.5z
	 M52.25,71.75H45.5v-8h6.75V71.75z M52.75,56h-7v-9.5h7V56z"/>
</svg>
