<?xml version="1.0" encoding="utf-8"?>
<!-- Generator: Adobe Illustrator 15.0.2, SVG Export Plug-In . SVG Version: 6.00 Build 0)  -->
<!DOCTYPE svg PUBLIC "-//W3C//DTD SVG 1.1//EN" "http://www.w3.org/Graphics/SVG/1.1/DTD/svg11.dtd">
<svg version="1.1" id="Ebene_1" xmlns="http://www.w3.org/2000/svg" xmlns:xlink="http://www.w3.org/1999/xlink" x="0px" y="0px"
	 width="100px" height="100px" viewBox="0 0 100 100" enable-background="new 0 0 100 100" xml:space="preserve">
<circle fill="#B2B2B2" cx="50" cy="50" r="50"/>
<g>
	<path fill="#010202" stroke="#010202" stroke-width="0.2625" stroke-linejoin="round" d="M61.257,76.375l0.031-1.064
		c0.274-0.127,0.551-0.258,0.804-0.398l0.104-3.604h-0.008c0.002-0.014,0.008-0.025,0.008-0.039c0-0.004,0-0.009,0-0.014
		c0.002-0.273-0.133-0.539-0.364-0.793l0.069-2.398h-0.008c0-0.014,0.008-0.026,0.008-0.039c0-0.004,0-0.01,0-0.014
		c0-0.131-0.037-0.26-0.09-0.387l0.09-3.109h-0.008c0-0.014,0.008-0.024,0.008-0.039c0-0.004,0-0.009,0-0.014
		c0.002-0.371-0.235-0.727-0.652-1.059l0.062-2.135h-0.008c0-0.013,0.008-0.025,0.008-0.039c0-0.004,0-0.008,0-0.013
		c0-0.14-0.041-0.274-0.104-0.409c0.096-0.051,0.2-0.095,0.293-0.146l0.104-3.604h-0.006c0-0.014,0.006-0.026,0.006-0.039
		c0-0.004,0-0.01,0-0.014c0.004-0.295-0.146-0.579-0.412-0.85v-0.002c0-0.004,0.002-0.006,0.002-0.01s0-0.009,0-0.013
		c0-0.002-0.002-0.004-0.002-0.008l0.002-0.08h-0.017c-0.008-0.071-0.032-0.144-0.059-0.213l0.067-2.322H61.18
		c0-0.014,0.008-0.024,0.008-0.039c0-0.004,0-0.009,0-0.013c0.002-0.355-0.215-0.696-0.599-1.016l0.037-2.521
		c0-0.003,0.001-0.006,0.001-0.009c0-0.004,0-0.009,0-0.013c0-0.002-0.001-0.004-0.001-0.006l0.001-0.081h-0.018
		c-0.006-0.055-0.014-0.11-0.029-0.164l0.038-2.655c0.175-0.081,0.356-0.153,0.524-0.239l0.049-3.345
		c0-0.003,0.002-0.006,0.002-0.009c0-0.005,0-0.009,0-0.013c0-0.002-0.002-0.004-0.002-0.006l0.002-0.082h-0.016
		c-0.179-1.618-4.863-2.914-10.623-2.91c-5.862,0.004-10.604,1.352-10.593,3.011c0,0.004,0,0.009,0,0.013
		c0,0.013,0.006,0.024,0.007,0.037h-0.007l0.059,2.046c-0.4,0.317-0.629,0.658-0.626,1.015c0,0.005,0,0.009,0,0.014
		c0,0.013,0.007,0.024,0.007,0.037h-0.007l0.087,2.98c-0.053,0.121-0.088,0.245-0.087,0.371c0,0.004,0,0.009,0,0.013
		c0,0.013,0.007,0.025,0.007,0.038h-0.007l0.067,2.301c-0.223,0.243-0.352,0.497-0.35,0.76c0,0.004,0,0.008,0,0.014
		c0,0.012,0.006,0.023,0.006,0.037h-0.006l0.002,0.085c-0.021,0.063-0.048,0.129-0.055,0.194h-0.017l0.001,0.084
		c0,0.002-0.001,0.004-0.001,0.006c0,0.006,0,0.01,0,0.015c0,0.003,0.001,0.007,0.001,0.01l0.051,3.488
		c0.12,0.062,0.248,0.11,0.37,0.169l0.016,1.109c-0.569,0.369-0.896,0.772-0.893,1.201c0,0.006,0,0.01,0,0.014
		c0,0.012,0.007,0.025,0.008,0.037H38.59l0.082,2.826c-0.05,0.119-0.082,0.237-0.082,0.36c0,0.004,0,0.011,0,0.015
		c0,0.012,0.007,0.022,0.008,0.037H38.59l0.1,3.454c0.344,0.192,0.716,0.369,1.103,0.537l0.015,1.017
		c-0.017,0.057-0.025,0.113-0.032,0.172h-0.017l0.001,0.084c0,0.004-0.001,0.006-0.001,0.008c0,0.004,0,0.009,0,0.014
		c0,0.004,0.001,0.008,0.001,0.01l0.051,3.488c0.081,0.041,0.168,0.074,0.25,0.113l0.024,1.633c-0.544,0.354-0.856,0.742-0.9,1.15
		h-0.017l0.001,0.084c0,0.002-0.001,0.005-0.001,0.007c0,0.005,0,0.01,0,0.014c0,0.003,0.001,0.007,0.001,0.011l0.051,3.488
		c0.447,0.227,0.914,0.432,1.392,0.623l0.04,2.811c6.563,3.308,16.782,3.062,21.987,0.156l0.104-3.604h-0.008
		c0-0.014,0.008-0.025,0.008-0.039c0-0.005,0-0.01,0-0.014C62.745,77.371,62.199,76.837,61.257,76.375z"/>
	<path fill="#010202" stroke="#010202" stroke-width="0.2625" stroke-linejoin="round" d="M36.366,45.717l0.029-1.02
		c0.266-0.124,0.529-0.248,0.771-0.384l0.1-3.455H37.26c0-0.013,0.006-0.024,0.006-0.037c0-0.005,0-0.009,0-0.013
		c0.002-0.263-0.127-0.517-0.35-0.76l0.067-2.301h-0.007c0-0.013,0.007-0.025,0.007-0.038c0-0.004,0-0.009,0-0.013
		c0.001-0.126-0.034-0.25-0.087-0.371l0.087-2.98h-0.007c0-0.013,0.007-0.024,0.007-0.037c0-0.005,0-0.009,0-0.014
		c0.003-0.356-0.226-0.697-0.626-1.015l0.059-2.046H36.41c0.001-0.013,0.007-0.024,0.007-0.037c0-0.004,0-0.009,0-0.013
		c0.012-1.659-4.73-3.007-10.593-3.011c-5.758-0.004-10.443,1.292-10.621,2.91h-0.016l0.001,0.082c0,0.002-0.001,0.004-0.001,0.006
		c0,0.004,0,0.008,0,0.013c0,0.003,0.001,0.006,0.001,0.009l0.048,3.345c0.169,0.086,0.351,0.158,0.525,0.239l0.039,2.655
		c-0.017,0.054-0.025,0.109-0.031,0.164h-0.016l0.001,0.081c0,0.002-0.001,0.004-0.001,0.006c0,0.004,0,0.009,0,0.013
		c0,0.003,0.001,0.006,0.001,0.009l0.048,3.347c0.077,0.039,0.162,0.071,0.24,0.109l0.023,1.564c-0.521,0.34-0.82,0.712-0.863,1.103
		h-0.016l0.001,0.081c0,0.003-0.001,0.005-0.001,0.007c0,0.004,0,0.009,0,0.013c0,0.003,0.001,0.006,0.001,0.01l0.042,2.879
		c-0.159,0.192-0.254,0.392-0.277,0.596h-0.016l0.001,0.082c0,0.002-0.001,0.004-0.001,0.006c0,0.004,0,0.008,0,0.013
		c0,0.003,0.001,0.006,0.001,0.009l0.048,3.345c0.169,0.086,0.351,0.157,0.525,0.239l0.039,2.654
		c-0.017,0.055-0.025,0.109-0.031,0.164h-0.016l0.001,0.081c0,0.002-0.001,0.005-0.001,0.007c0,0.004,0,0.008,0,0.012
		s0.001,0.007,0.001,0.01l0.048,3.347c0.077,0.039,0.162,0.071,0.24,0.109l0.023,1.563c-0.521,0.34-0.82,0.713-0.863,1.104h-0.016
		l0.001,0.081c0,0.003-0.001,0.005-0.001,0.007c0,0.004,0,0.009,0,0.013c0,0.003,0.001,0.007,0.001,0.011l0.048,3.345
		c0.428,0.216,0.875,0.413,1.334,0.598l0.034,2.323c-0.015,0.051-0.023,0.102-0.029,0.152h-0.016l0.001,0.082
		c0,0.002-0.001,0.004-0.001,0.006c0,0.006,0,0.01,0,0.014c0,0.003,0.001,0.006,0.001,0.01l0.049,3.346
		c6.292,3.172,16.089,2.938,21.08,0.149l0.1-3.455H37.53c0-0.013,0.007-0.024,0.007-0.037c0-0.004,0-0.009,0-0.013
		c0.001-0.123-0.032-0.243-0.082-0.361l0.082-2.826H37.53c0.001-0.013,0.007-0.024,0.007-0.037c0-0.004,0-0.008,0-0.014
		c0.004-0.549-0.52-1.062-1.423-1.504l0.029-1.02c0.265-0.125,0.528-0.248,0.771-0.385l0.1-3.455H37.01
		c0-0.013,0.007-0.023,0.007-0.037c0-0.004,0-0.008,0-0.012c0.002-0.264-0.127-0.518-0.35-0.761l0.056-1.935
		c0.338-0.15,0.662-0.312,0.967-0.48l0.1-3.455h-0.008c0.001-0.013,0.008-0.024,0.008-0.037c0-0.004,0-0.009,0-0.013
		c0-0.123-0.032-0.243-0.082-0.361l0.082-2.826h-0.008c0.001-0.013,0.008-0.025,0.008-0.038c0-0.004,0-0.008,0-0.013
		C37.793,46.672,37.27,46.159,36.366,45.717z"/>
	<path fill="#010202" stroke="#010202" stroke-width="0.2625" stroke-linejoin="round" d="M85.062,31.564
		c0.004-0.467-0.383-0.906-1.059-1.3l0.044-1.496c0.116-0.06,0.243-0.114,0.354-0.177l0.1-3.416h-0.007
		c0.001-0.013,0.007-0.024,0.007-0.037c0-0.005,0-0.01,0-0.014c0.012-1.641-4.677-2.973-10.475-2.976
		c-5.691-0.004-10.324,1.277-10.5,2.877H63.51l0.002,0.081c0,0.002-0.002,0.004-0.002,0.006c0,0.004,0,0.008,0,0.012
		c0,0.003,0.002,0.006,0.002,0.009l0.031,2.179c-0.273,0.25-0.426,0.515-0.456,0.789H63.07l0.002,0.081
		c0,0.002-0.002,0.004-0.002,0.006c0,0.004,0,0.008,0,0.012c0,0.003,0.003,0.006,0.003,0.009l0.047,3.308
		c0.31,0.156,0.633,0.297,0.958,0.437l0.021,1.583c-0.439,0.312-0.695,0.651-0.733,1.006H63.35l0.002,0.08
		c0,0.002-0.002,0.004-0.002,0.006c0,0.004,0,0.008,0,0.012c0,0.003,0.002,0.006,0.002,0.009l0.026,1.889
		c-0.517,0.336-0.812,0.704-0.854,1.091h-0.016l0.001,0.08c0,0.002-0.001,0.004-0.001,0.006c0,0.004,0,0.008,0,0.012
		c0,0.003,0.002,0.006,0.002,0.009l0.049,3.31c0.424,0.213,0.864,0.408,1.317,0.591l0.039,2.663
		c0.005,0.002,0.011,0.004,0.017,0.007c-0.231,0.23-0.379,0.471-0.406,0.721h-0.018l0.001,0.081c0,0.002-0.001,0.004-0.001,0.006
		c0,0.004,0,0.008,0,0.012c0,0.003,0.002,0.006,0.002,0.009l0.031,2.179c-0.273,0.25-0.426,0.515-0.456,0.789h-0.017l0.002,0.081
		c0,0.002-0.002,0.004-0.002,0.006c0,0.004,0,0.008,0,0.012c0,0.003,0.002,0.006,0.002,0.009l0.048,3.309
		c0.31,0.155,0.633,0.297,0.958,0.437l0.021,1.583c-0.439,0.312-0.695,0.65-0.734,1.006h-0.016l0.002,0.08
		c0,0.002-0.002,0.004-0.002,0.006c0,0.004,0,0.008,0,0.012s0.002,0.006,0.002,0.01l0.026,1.889
		c-0.517,0.336-0.812,0.704-0.854,1.091h-0.016l0.001,0.08c0,0.002-0.001,0.004-0.001,0.007c0,0.004,0,0.008,0,0.012
		c0,0.002,0.002,0.006,0.002,0.009l0.049,3.31c0.424,0.213,0.864,0.408,1.317,0.592l0.039,2.662
		c6.222,3.135,15.907,2.904,20.842,0.148l0.101-3.416h-0.008c0.002-0.014,0.008-0.023,0.008-0.037c0-0.004,0-0.008,0-0.014
		c0.004-0.543-0.515-1.049-1.407-1.486l0.028-1.01c0.262-0.122,0.521-0.245,0.762-0.379l0.08-2.756
		c0.219-0.104,0.438-0.207,0.642-0.318l0.099-3.417h-0.006c0-0.013,0.006-0.024,0.006-0.036c0-0.005,0-0.009,0-0.014
		c0.004-0.467-0.384-0.906-1.059-1.3l0.044-1.496c0.116-0.06,0.243-0.114,0.354-0.177l0.1-3.416h-0.007
		c0.001-0.013,0.007-0.024,0.007-0.037c0-0.005,0-0.01,0-0.014c0.001-0.163-0.057-0.322-0.145-0.478
		c0.133-0.067,0.274-0.129,0.401-0.2l0.101-3.416h-0.008c0.002-0.013,0.008-0.024,0.008-0.037c0-0.004,0-0.008,0-0.014
		c0.004-0.542-0.515-1.049-1.407-1.486l0.028-1.01c0.262-0.122,0.521-0.245,0.762-0.379l0.08-2.756
		c0.219-0.104,0.438-0.206,0.642-0.318l0.099-3.417h-0.006c0-0.013,0.006-0.024,0.006-0.036
		C85.062,31.573,85.062,31.569,85.062,31.564z"/>
</g>
</svg>
