<?xml version="1.0" encoding="utf-8"?>
<!-- Generator: Adobe Illustrator 15.0.2, SVG Export Plug-In . SVG Version: 6.00 Build 0)  -->
<!DOCTYPE svg PUBLIC "-//W3C//DTD SVG 1.1//EN" "http://www.w3.org/Graphics/SVG/1.1/DTD/svg11.dtd">
<svg version="1.1" id="Ebene_1" xmlns="http://www.w3.org/2000/svg" xmlns:xlink="http://www.w3.org/1999/xlink" x="0px" y="0px"
	 width="100px" height="100px" viewBox="0 0 100 100" enable-background="new 0 0 100 100" xml:space="preserve">
<circle fill="#B2B2B2" cx="50" cy="50" r="50"/>
<path d="M85.14,59.013c-0.264-2.117-3.564-8.186-3.564-8.186l-0.397-8.736c0,0-0.142-6.509-5.305-6.907
	c-1.869-0.144-8.048-0.235-15.466-0.294v-1.366h-2.762l0.063-2.15h1.584c0-5.318-4.311-9.628-9.629-9.628
	c-5.318,0-9.628,4.311-9.628,9.628h1.201l0.064,2.15h-2.616v1.272c-7.5-0.014-13.118-0.009-13.118-0.009s-5.945,0.155-6.541,4.721
	c-0.519,3.998-0.769,8.697-0.74,9.709c0.005,0.145,0,0.53,0,0.53l-0.132,0.529c0,0-3.298,5.912-3.298,7.699
	c0,1.786,2.635,17.586,2.635,17.586s-0.004,3.001,3.523,2.667c4.421-0.417,57.187,0,57.187,0s2.814-0.24,3.176-1.786
	C81.831,74.503,85.286,60.162,85.14,59.013z M41.802,33.524l-0.063-2.15h0.896c0-3.883,3.147-7.03,7.029-7.03
	c3.883,0,7.031,3.147,7.031,7.03h0.513l-0.062,2.15h-2.544v1.327c-3.365-0.019-6.815-0.032-10.11-0.042v-1.286H41.802z"/>
</svg>
