<?xml version="1.0" encoding="utf-8"?>
<!-- Generator: Adobe Illustrator 15.0.2, SVG Export Plug-In . SVG Version: 6.00 Build 0)  -->
<!DOCTYPE svg PUBLIC "-//W3C//DTD SVG 1.1//EN" "http://www.w3.org/Graphics/SVG/1.1/DTD/svg11.dtd">
<svg version="1.1" id="Ebene_1" xmlns="http://www.w3.org/2000/svg" xmlns:xlink="http://www.w3.org/1999/xlink" x="0px" y="0px"
	 width="100px" height="100px" viewBox="0 0 100 100" enable-background="new 0 0 100 100" xml:space="preserve">
<circle fill="#B2B2B2" cx="50" cy="50" r="50"/>
<g>
	<path d="M32.476,29.959c-0.153-0.109-0.271-0.184-0.366-0.258l0.01-0.008l-0.02-0.016l-0.01,0.01
		c-0.214-0.164-0.321-0.318-0.53-0.795l-0.055-0.114l-0.02-0.037l-0.036-0.063l-0.022-0.037l-0.031-0.05l-0.024-0.031l-0.034-0.042
		l-0.021-0.026l-0.035-0.036l-0.02-0.022l-0.037-0.032l-0.015-0.013l-0.098-0.062L31.1,28.318l-0.03-0.012l-0.015-0.005l-0.026-0.01
		l-0.015-0.003l-0.02-0.005h-0.015l-0.022-0.002l-0.005,0H30.93h-0.005h-0.013l-0.021,0.003c-0.154-0.245-0.396-1.221-0.396-1.221
		c0.519-1.218,0.182-3.841,0.182-3.841c-0.883-3.442-3.412-3.442-3.627-3.289c-0.213,0.151-0.643,0.06-0.643,0.06
		c-1.737-0.123-2.649,2.043-2.832,2.62c-0.184,0.58,0.52,2.043,0.52,2.166l0.364,0.64c0,0.091,0.211,0.274,0.211,0.426
		c0,0.152,0.154,0.883,0.186,0.976c0.03,0.091,0.365,0.457,0.365,0.642c0,0.181,0.184,0.912,0.245,1.003l0.272,0.642
		c0,0.548,0.916,0.426,0.916,0.426c0.426-0.062,0.58,0.974,0.58,0.974s-0.154,0.458-0.277,0.609c-0.12,0.153-0.729,0.58-1.248,0.611
		c-0.517,0.03-1.769,0.609-1.95,0.792c-0.183,0.183-1.739,1.858-1.892,2.013c-0.15,0.152-1.523,2.62-2.285,3.109
		c-0.762,0.485-1.007-1.159-1.066-1.25l-0.021-0.038l-0.002-0.005l-0.03-0.062c-0.12-0.266-0.373-0.912-0.373-1.114
		c0-0.243,0.181-1.005-0.247-1.433c-0.427-0.426-0.453-0.489-0.453-0.489c0.605-0.456-1.769-1.371-1.769-1.371
		c1.735-0.122,0.184-0.733,0.184-0.733c-0.278-0.09-0.858,0.243-0.858,0.243c-0.332,0.094-0.03,0.765-0.03,0.765
		c-0.211,0.09,0.095,0.547-0.181,0.699l-0.042,0.028c-0.232,0.186-0.232,0.733-0.232,0.733c-0.213,0.213,0.124,0.61,0.124,0.61
		c-0.183,0.245,0.577,1.341,0.879,1.523c0.271,0.162,0.802,1.438,0.965,1.862l0.045,0.119c0.06,0.184,0.456,1.189,0.456,1.189
		s-0.124,1.373,0.46,2.651c0.576,1.28,2.314,1.129,3.074,1.097c0.763-0.03,1.586-0.792,1.891-1.28
		c0.305-0.486,0.486-0.701,0.396-0.12c-0.092,0.578,0.457,2.987,0.824,4.207c0.068,0.227,0.125,0.421,0.174,0.588l0.005,0.013
		l0.038,0.132l0.027,0.103l0.01,0.026l0.089,0.312c0.068,0.241,0.083,0.319,0.083,0.319s0.034,1.28-0.154,1.736
		c-0.182,0.459,0.091,7.163,0.188,7.59c0.089,0.427,0.761,2.285,0.789,3.323c0.031,1.036,0.183,4.235,0.46,5.273
		c0.272,1.035,1.185,6.704,1.31,7.771c0.12,1.068,1.764,6.34,2.101,7.041c0.337,0.702,0.397,1.86,0.397,1.951l-0.305,0.702
		c-0.122,0.09-0.639,1.065-0.761,1.249S27.385,84,27.233,84c-0.154,0-1.036,0.305-1.402,0.549s-1.13,0.639,0.059,1.311
		c1.189,0.67,4.117-0.456,4.543-0.609c0.428-0.151,0.7-0.396,1.007-0.396c0.301,0,1.704-0.243,2.101-0.305
		c0.398-0.061,0-1.492,0-1.797c0-0.307-0.061-1.495-0.061-1.495s0.397,1.584,0.397,1.89c0,0.307,0.244,0.916,0.244,0.916
		l0.302,0.212c0,0.121-0.059,1.189-0.119,1.525c-0.062,0.335-0.033,1.311-0.033,1.311c0.275,0.761,2.684,0.426,2.684,0.426
		c2.042-0.609,0.671-3.688,0.671-3.688c0.152,0,0.241,0.092,0.395-0.763c0.153-0.852-0.272-5.059-0.395-7.225
		c-0.125-2.162-1.189-7.069-1.919-8.412c-0.734-1.34-0.337-7.985,0.184-10.026c0.517-2.044-0.704-9.754-0.704-9.754
		s0.105-0.448,0.095-1.098l-0.001-0.153c-0.033-0.729,0-0.854,0.273-0.823c0.274,0.03,1.127-0.03,1.127-0.03s1.098-0.09,2.045-0.12
		c0.941-0.03,1.309-1.344,1.372-1.678c0.06-0.336,0.213-1.371,0.213-1.371c0.456-1.159-1.921-7.406-2.259-8.718
		C37.718,32.368,32.994,30.325,32.476,29.959z"/>
	<path d="M83.412,52.938c-0.042-0.066-0.058-0.049-0.095-0.078c-0.077-0.052-0.034-0.13-0.196-0.138
		c-0.132-0.01-0.963,0.002-1.103,0c-0.089-0.004-0.146-0.02-0.141-0.108c0.011-0.216,0.02-2.488,0.02-2.641
		c0-0.149,0.045-3.979,0.056-4.099c0.01-0.119,0.065-5.289,0.075-5.419c0.011-0.13,0.13-7.126,0.141-7.224s0.13-6.079,0.142-6.198
		c0.01-0.119,0.086-5.699,0.086-5.818c0-0.12-0.012-0.811-0.012-0.898c0-0.085,0.022-0.216,0.141-0.172
		c-0.021,0-0.01,0.055,0.087,0.064c0.098,0.01,0.141,0,0.194,0c0.056,0,0.109,0.01,0.141-0.075c0.034-0.086,0.076-0.37,0.021-0.542
		c-0.023-0.078-0.004-0.16-0.194-0.205c-0.063-0.016-0.162,0.01-0.194,0.043c-0.146,0.027-0.292,0.021-0.433,0.01
		c-0.142-0.01-9.333-0.075-9.506-0.075c-0.172,0-7.509-0.076-7.605-0.076s-0.113-0.061-0.008-0.082c0.123,0,0.138-0.037,0.173-0.08
		s0.138-0.246,0.166-0.456c0.029-0.208-0.037-0.245-0.187-0.309c-0.152-0.066-0.635-0.052-0.672-0.052
		c-0.035,0-0.071,0.008-0.071-0.037c0-0.042-0.014-0.086-0.072-0.086c-0.058,0-0.136,0.009-0.136,0.065
		c0,0.058,0.021,0.073-0.059,0.065c-0.051-0.005-0.288,0.037-0.341,0.044c-0.05,0.006-0.295,0.034-0.235,0.302
		c0.057,0.266,0.092,0.323,0.122,0.382c0.028,0.059,0.015,0.087,0.094,0.13c0.078,0.043,0.137,0.108,0.007,0.108
		s-5.09-0.093-5.19-0.101c-0.103-0.007-5.603-0.108-5.724-0.108c-0.123,0-0.462-0.002-1.068-0.015
		c-0.584-0.009-5.473-0.064-5.688-0.109c-0.216-0.043-0.433-0.215-0.454,0.065c-0.022,0.282-0.022,0.347,0,0.499
		c0.021,0.151-0.033,0.261,0.194,0.171c0.237-0.042,0.182-0.052,0.357-0.052c0.194,0,0.14,0.076,0.14,0.292
		c0,0.303,0.033,2.173,0.033,2.302c0,0.132,0.021,6.414,0.021,6.524c0,0.106-0.021,5.524-0.01,5.654
		c0.01,0.13-0.033,6.576-0.033,6.674c0,0.099-0.074,7.116-0.074,7.226c0,0.106-0.065,3.958-0.065,4.012s0.031,0.097-0.087,0.107
		c-0.119,0.011-0.52-0.021-0.616-0.011c-0.065-0.054-0.336-0.03-0.421-0.02c-0.086,0.01-0.076,0.027-0.238,0.235
		c-0.203,0.261-0.351,0.785-0.056,1.168c0.217,0.283,0.25,0.336,0.25,0.336s0.226,0.022,0.379,0.022
		c-0.012-0.031,0.855-0.022,0.995-0.01c0.14,0.01,6.964,0.072,7.116,0.072c0.153,0,7.841,0.057,7.959,0.057
		c0.12,0,2.033,0.032,2.12,0.032c0.086,0,0.119,0.086,0.108,0.184c-0.011,0.099-0.022,1.122-0.022,1.22
		c0.004,0.021-0.041,0.089,0.057,0.083c0.109-0.008,0.124,0.042,0.118,0.136c-0.012,0.152-0.012,1.774-0.012,2.12
		s-0.032,8.502-0.032,8.652c0,0.152-0.022,7.247-0.022,7.397v3.852c0,0.106,0.011,0.215-0.194,0.215s-0.194,0.021-0.4,0.152
		c-0.205,0.13-2.454,1.537-2.616,1.634c-0.161,0.097-8.821,5.439-8.954,5.505c-0.044,0.021-0.119,0.106-0.142,0.075
		c-0.022-0.032-0.054-0.054-0.13,0c-0.075,0.054-0.322,0.207-0.389,0.249c-0.217,0.139-0.146,0.242,0.012,0.422
		c0.227,0.261,0.22,0.287,0.583,0.054c0.144-0.092,0.228-0.114,0.228-0.215c0.162-0.1,6.262-3.863,6.338-3.907
		c0.074-0.042,0.086-0.095,0.26,0c0.171,0.098,4.502,1.977,4.637,2.035c0.135,0.06,0.05,0.013,0.099,0.141
		c0.021,0.054,0.118,0.086,0.151,0.15c0.032,0.065,0.064,0.131,0.151,0.142c0.086,0.011,0.173-0.033,0.238-0.011
		c0.064,0.021,0.249,0.053,0.334,0.043c0.087-0.011,0.185-0.021,0.261,0c0.075,0.021,0.173,0.054,0.216,0
		c0.042-0.055,0.194-0.195,0.194-0.229c0-0.03,0.01-0.121,0.131-0.161c0.355-0.118,1.037-0.432,1.177-0.495
		c0.142-0.067,2.266-1.005,2.38-1.063c0.174-0.085,0.185-0.097,0.324,0.045c0.223,0.222,3.741,3.312,3.882,3.429
		c0.141,0.118,1.018,0.908,1.082,0.962c-0.031,0.055-0.043,0.119,0.065,0.206c0.146,0.117,0.194,0.151,0.26,0.193
		c0.064,0.044,0.193,0.132,0.367,0.055c0.173-0.075,0.355-0.335,0.27-0.486c-0.128-0.227-0.258-0.26-0.345-0.323
		c-0.092-0.069-0.141-0.152-0.216-0.12c-0.088-0.054-0.574-0.498-0.64-0.551c-0.063-0.053-7.839-6.88-7.928-6.977
		c-0.085-0.098-0.93-0.919-1.058-0.931c-0.086-0.007-0.162-0.021-0.14-0.323c0.021-0.323-0.013-3.384,0-3.494
		c0.009-0.106,0.02-6.651,0.02-6.781s0.022-5.766,0.033-5.949c0.009-0.166,0.033-5.579,0.036-5.699
		c0.003-0.096-0.018-0.141,0.069-0.146c0.088,0.007,0.086,0.009,0.086-0.093c0-0.101,0.004-0.604,0.004-0.712
		c0-0.107,0.01-0.399,0-0.466c-0.013-0.063-0.033-0.216,0.129-0.205c0.163,0.009,1.342,0.022,1.482,0.009
		c0.141-0.009,5.505,0.046,6,0.056c0.499,0.011,7.755,0.044,8.155,0.056c0.4,0.01,2.671,0.053,2.736,0.053
		c0.064,0,0.14,0,0.151-0.053c0.01-0.056,0.001,0.012,0.106-0.12C83.575,54.041,83.77,53.532,83.412,52.938z M63.777,78.935
		c0,0.075-0.024,4.569-0.024,4.774s-0.021,0.271-0.098,0.279c-0.075,0.014-0.228,0-0.303-0.021
		c-0.076-0.021-0.141-0.033-0.173-0.118c-0.032-0.088,0.044-0.075-0.173-0.152c-0.065-0.022-3.926-1.731-4.121-1.786
		c-0.195-0.053-0.184-0.095,0.034-0.236c0.057-0.037,3.946-2.444,4.033-2.499c0.087-0.054,0.578-0.366,0.672-0.389
		C63.836,78.766,63.777,78.824,63.777,78.935z M64.387,19.02c0-0.036,0-0.093,0-0.179c0.087-0.081,0.057,0.021,0.059-0.124
		c-0.002-0.05-0.008-0.106-0.008-0.217c-0.001-0.05-0.021-0.085,0.059-0.079c0.034,0.004,0.302-0.015,0.387-0.006
		c0.088,0.007,0.191,0.002,0.281,0.028c0.094,0.026,0.131,0.116,0.109,0.26c-0.01,0.064-0.05,0.237-0.101,0.339
		c-0.05,0.102-0.138,0.072-0.194,0.072c-0.058,0-0.396-0.006-0.519-0.014C64.338,19.092,64.387,19.056,64.387,19.02z M63.788,19.005
		c-0.021-0.044-0.029-0.1-0.093-0.31c-0.065-0.208,0.122-0.246,0.179-0.252c0.059-0.008,0.173-0.015,0.297-0.021
		c0.122-0.007,0.072,0.051,0.072,0.093c0,0.044,0.007,0.144,0.007,0.202c0,0.057-0.028,0.086,0.021,0.101
		c0.051,0.014,0.028,0.057,0.036,0.093c0.008,0.038,0,0.05,0.008,0.108c0.01,0.094-0.044,0.094-0.108,0.094
		c-0.065,0-0.224-0.014-0.274-0.014C63.824,19.1,63.811,19.049,63.788,19.005z M65.137,79.562c0.054,0.065,2.779,2.425,2.976,2.61
		c0.193,0.185,0.085,0.15-0.045,0.215c-0.086,0.044-3.082,1.365-3.146,1.387c-0.064,0.02-0.248,0.075-0.26,0.128
		c-0.011,0.056-0.056,0.1-0.13,0.118c-0.229,0.066-0.141-0.183-0.107-0.28c0.032-0.096,0.519-2.052,0.551-2.182
		s0.062-0.24,0.094-0.391c0.032-0.152,0.059-0.087,0.133,0.075c0.029,0.061,0.498,1.026,0.542,1.124
		c0.042,0.099-0.022,0.054,0.031,0.15c0.056,0.098,0.119,0.098,0.184,0.107c0.066,0.013,0.163,0.023,0.261,0.034
		c0.184,0.012,0.151-0.13,0.161-0.228c0.013-0.097-0.031-0.172-0.076-0.259c-0.041-0.087-0.085-0.087-0.129-0.173
		c-0.044-0.089-0.922-1.947-1.171-2.423S65.083,79.497,65.137,79.562z M64.46,79.731c0.101,0.219,0.195,0.399,0.276,0.548
		c0.055,0.099,0.055,0.14,0.043,0.228c-0.008,0.065-0.274,1.002-0.379,1.449c-0.093,0.404-0.066-0.062-0.066-0.14
		c0-0.08-0.012-1.735-0.001-2.103C64.342,79.4,64.364,79.534,64.46,79.731z M71.214,41.675c-1.504,2.601-4.312,4.351-7.532,4.351
		c-3.219,0-6.027-1.75-7.532-4.351c-0.74-1.278-1.166-2.763-1.166-4.349c0-1.584,0.426-3.068,1.166-4.348
		c1.505-2.599,4.313-4.35,7.532-4.35v8.698l7.532-4.348c0.74,1.28,1.166,2.764,1.166,4.348
		C72.38,38.912,71.954,40.396,71.214,41.675z M64.908,35.203v-8.698c3.219,0,6.027,1.75,7.531,4.35L64.908,35.203z"/>
</g>
</svg>
