<?xml version="1.0" encoding="utf-8"?>
<!-- Generator: Adobe Illustrator 15.0.2, SVG Export Plug-In . SVG Version: 6.00 Build 0)  -->
<!DOCTYPE svg PUBLIC "-//W3C//DTD SVG 1.1//EN" "http://www.w3.org/Graphics/SVG/1.1/DTD/svg11.dtd">
<svg version="1.1" id="Ebene_1" xmlns="http://www.w3.org/2000/svg" xmlns:xlink="http://www.w3.org/1999/xlink" x="0px" y="0px"
	 width="100px" height="100px" viewBox="0 0 100 100" enable-background="new 0 0 100 100" xml:space="preserve">
<circle fill="#B2B2B2" cx="50" cy="50" r="50"/>
<path fill="#1D1D1B" d="M67.415,30.879c-0.263-0.957-0.525-0.825-0.659-0.793c-0.131,0.034-0.56-0.297-0.856-0.363
	c-0.297-0.068-0.891-0.068-0.891-0.068s-1.45-0.559-2.374-0.593c-0.164-0.527-1.256-1.022-1.256-1.022s-0.081-0.125-0.223-0.343
	c0,0.001,0,0.002,0,0.005c-0.233-0.359-0.63-0.973-1.063-1.674c0.1-1.648-0.593-3.232-0.593-3.232s-0.297-0.627-0.33-0.991
	c-0.032-0.36-0.496-0.691-0.594-0.757c-0.022-0.015-0.062-0.075-0.11-0.153c-0.034-0.058-0.07-0.122-0.11-0.195
	c-0.015-0.025-0.028-0.055-0.042-0.081c-0.028-0.055-0.058-0.109-0.084-0.162c-0.014-0.025-0.027-0.054-0.041-0.078
	c-0.034-0.067-0.063-0.126-0.087-0.173c-0.009-0.02-0.017-0.035-0.022-0.05c-0.016-0.029-0.032-0.064-0.032-0.064l0.002-0.002l0,0
	c0-0.003,0.198-0.396,0.362-0.823c0.164-0.43-0.166-0.727-0.198-0.825c-0.034-0.099,0.032-0.397,0.262-0.463
	c0.231-0.066,0.464-0.395,0.496-0.89c0.031-0.494-0.56-0.957-1.024-1.583c-0.46-0.625-1.748-0.989-1.748-0.989
	s-0.23-0.66-0.331-0.792c-0.1-0.133-0.163-0.033-0.625,0.363c-0.461,0.396-0.496,0.659-0.496,0.659s-0.33,0.034-0.593,0.068
	c-0.265,0.032-0.858,0.032-0.858,0.032s-0.23,0.13-0.462,0c-0.231-0.132-0.495-1.914-0.495-1.914s0-0.101,0.099-0.101
	c0.102,0,0.362-0.593,0.464-0.955c0.099-0.363,0.099-1.288,0.064-1.684C52.934,9.8,52.67,9.37,52.67,9.37l-0.233-1.418
	c0,0-0.229-1.419-1.318-2.605c-1.09-1.19-3.299-1.553-4.486-1.222c-1.187,0.332-2.572,1.946-2.837,2.772
	c-0.264,0.822-0.199,2.111-0.199,2.111c-0.625,0.523-0.814,0.823-0.941,1.209c-0.273,0.476-0.24,1.089-0.238,1.117l0.098-0.005
	c0-0.002-0.005-0.123,0.01-0.296c0.077,0.327,0.398,0.455,0.741,0.381c0.462-0.099,0.726-0.824,0.726-0.824l0.009,0.042V10.63
	l0.685,3.125c0.494,1.75,1.879,3.167,1.879,3.167s0,0-0.133,0.033c-0.13,0.033-0.197,0.198-0.098,0.495
	c0.098,0.296,0.331,0.626,0.331,0.923s0.066,0.594,0.23,0.826c0.167,0.23,0.263,0.428,0.263,0.428s-0.131,1.122-0.131,1.22
	c0,0.1-0.396,0.661-0.792,1.122c-0.396,0.462-0.495,0.495-0.891,1.287c-0.397,0.792-0.364,1.616-0.496,1.914
	c-0.131,0.296-0.197,1.583-0.163,1.847c0.031,0.264-0.068,1.813-0.133,2.244c-0.066,0.429-0.165,1.055-0.363,1.782
	c-0.199,0.726-0.397,1.914-0.528,2.639c-0.133,0.726-0.296,1.386-0.296,1.386s-0.627-0.067-1.024-0.1
	c-0.396-0.032-0.89-0.263-1.188-0.131c-0.297,0.131-0.757-0.198-0.757-0.198s-0.991-0.331-1.552-0.331s-1.155,0.396-1.155,0.396
	l-0.395-0.33l0.265-0.494l0.263-6.499l-6.928-4.485l-0.231,0.362l-1.154,0.528l-0.33-0.166v1.562v0.088l-0.758,0.263l-0.329-0.164
	l-0.265,6.564c0,0,0.923,0.66,0.825,0.66c-0.098,0-0.494,0.23-0.494,0.397c0,0.163,0.429,0.459,0.726,0.559
	c0.296,0.1,0.856,0.133,0.856,0.133s0,0-0.032,0.132c-0.033,0.131,0.263,0.824,0.33,0.99c0.066,0.162,0.396,0.363,0.396,0.363
	s0.032,0.13,0.229,0.231c0.199,0.098,0.858,0.098,0.858,0.098s-0.032,0.496,0.198,0.594c0.231,0.1,1.155-0.098,1.155-0.098
	s1.847,1.648,2.045,1.648c0.199,0,1.418-0.562,1.418-0.562l0.198,0.66l0.297,0.298l0.198,0.363c0,0,0.592,0.295,0.759,0.362
	c0.165,0.066,1.252,1.023,1.353,1.188c0.099,0.165,1.32,0.364,1.32,0.364l1.649,0.461l0.132,0.33c0,0-0.33,2.606-0.429,2.97
	c-0.099,0.363-0.263,2.011-0.263,2.439c0,0.429,0.23,0.496,0.825,1.387c0.593,0.89,1.979,1.155,1.979,1.155l0.133,0.43l-0.331,0.595
	c0,0-0.528,2.243-0.528,2.342c0,0.098-0.296,2.178-0.296,2.275c0,0.099-0.165,3.034-0.165,3.034s0,1.156-0.033,2.541
	c-0.033,1.387-0.396,2.539-0.66,3.168c-0.264,0.625,0,0.922,0,1.549c0,0.626-0.397,1.582-0.56,2.739
	c-0.166,1.152,0.428,1.848,0.626,2.274c0.198,0.431-0.099,0.462-0.364,0.824c-0.264,0.363-0.065,0.924-0.032,1.782
	c0.032,0.858,0,1.682-0.099,2.872c-0.099,1.187,0.395,3.264,0.825,5.013c0.429,1.75,0.296,2.31-0.099,2.771
	c-0.396,0.461-0.331,0.593-0.396,1.188c-0.066,0.594,0.132,1.219,0.033,1.319c0,0-1.089,1.021-1.583,1.285s-2.276,0.758-2.276,0.758
	s-0.428,0-1.484-0.098s-1.75,0.957-1.518,2.145c0.231,1.187,2.111,2.309,6.465,2.54c4.357,0.23,5.873-0.099,6.237-0.596
	c0.362-0.492,0.329-0.955,0.329-0.955l0.165-0.331c0,0,0.133-0.559,0.133-0.988c0-0.429,0.329-4.024,0.429-5.971
	c0.098-1.949,0.231-8.248,0.164-9.173c-0.066-0.924,0-1.979-0.032-2.87c-0.034-0.889-0.034-1.35-0.067-2.144
	c-0.031-0.792,0.032-3.003,0.032-3.003s0.626,1.419,0.793,1.914c0.165,0.494,0.923,1.583,1.022,1.749
	c0.099,0.165,0.165,0.595,0.432,1.551c0.263,0.958,1.616,3.794,1.616,3.794l3.331,9.501c0,0-1.252-0.23-1.582-0.23
	s-0.826,0.395-1.122,1.021c-0.297,0.628,0,0.991,0.265,1.716c0.262,0.725,3.299,1.483,3.299,1.483l2.539,1.155
	c0,0,2.243,1.582,3.168,1.387c0.923-0.198,1.518-0.825,1.615-1.287c0.101-0.462-0.034-0.858-0.034-0.858s-0.229-1.418-0.296-1.815
	c-0.065-0.395-0.692-0.824-0.692-0.824l-0.362-1.286c0,0-1.089-3.759-1.847-6.103c-0.76-2.342-2.245-6.498-3.53-10.161
	c-1.286-3.662-2.309-5.476-2.408-5.805c-0.101-0.331,0.031-0.362,0.031-1.057c0-0.691,0.068-2.672,0.068-2.672l0.032-0.625
	l0.363-0.298c0,0,0.23,0.067,0.395-0.031c0.166-0.101,0.232-0.43,0.232-0.43l0.032-1.452l0.297,1.52c0,0,0.132,0.394,0.331,0.329
	c0.198-0.067,0.362-0.429,0.428-0.759c0.066-0.33,0.032-0.727,0-1.187c-0.034-0.465-0.065-1.519-0.065-1.519l0.164-1.288
	l0.495-1.088c0,0,0.43,0.362,0.889,0.264c0.462-0.1,1.649-2.408,1.649-2.408s0.017-0.009,0.021-0.012c0,0,0,0,0,0.002
	c0.051-0.028,0.206-0.111,0.398-0.222c0.021-0.011,0.036-0.021,0.057-0.033c0.06-0.034,0.119-0.069,0.183-0.109
	c0.034-0.021,0.068-0.04,0.104-0.061c0.055-0.034,0.106-0.068,0.164-0.105c0.041-0.026,0.078-0.052,0.119-0.079
	c0.051-0.033,0.096-0.068,0.145-0.101c0.04-0.03,0.083-0.06,0.123-0.089c0.046-0.036,0.087-0.07,0.128-0.105
	c0.029-0.025,0.065-0.052,0.091-0.077c0.062-0.059,0.116-0.113,0.153-0.166c0.295-0.428,1.712-2.572,2.671-4.09
	c0.956-1.518,1.154-3.069,1.55-4.916c0.396-1.846,0.43-2.243,0.626-3.3c0.2-1.055,0.363-3.727,0.363-4.485
	C67.846,31.868,67.681,31.835,67.415,30.879z"/>
</svg>
