<?xml version="1.0" encoding="utf-8"?>
<!-- Generator: Adobe Illustrator 15.0.2, SVG Export Plug-In . SVG Version: 6.00 Build 0)  -->
<!DOCTYPE svg PUBLIC "-//W3C//DTD SVG 1.1//EN" "http://www.w3.org/Graphics/SVG/1.1/DTD/svg11.dtd">
<svg version="1.1" id="Ebene_1" xmlns="http://www.w3.org/2000/svg" xmlns:xlink="http://www.w3.org/1999/xlink" x="0px" y="0px"
	 width="100px" height="100px" viewBox="0 0 100 100" enable-background="new 0 0 100 100" xml:space="preserve">
<circle fill="#B2B2B2" cx="50" cy="50" r="50"/>
<g>
	<path d="M45.435,49.3v8.954c0,7.94-0.507,13.094-3.632,16.135h22.469v5.828H32.595l-0.591-4.562
		c5.491-4.393,6.504-9.038,6.504-17.739V49.3h-6.42v-5.66h6.42v-9.123c0-9.545,5.322-17.57,14.951-17.57
		c4.14,0,7.519,0.845,11.15,2.365l-1.857,5.66c-2.873-1.437-5.576-2.027-8.363-2.027c-6.082,0-8.954,4.73-8.954,11.741v8.954h9.546
		v5.66H45.435z"/>
</g>
</svg>
