<?xml version="1.0" encoding="utf-8"?>
<!-- Generator: Adobe Illustrator 15.0.2, SVG Export Plug-In . SVG Version: 6.00 Build 0)  -->
<!DOCTYPE svg PUBLIC "-//W3C//DTD SVG 1.1//EN" "http://www.w3.org/Graphics/SVG/1.1/DTD/svg11.dtd">
<svg version="1.1" id="Ebene_1" xmlns="http://www.w3.org/2000/svg" xmlns:xlink="http://www.w3.org/1999/xlink" x="0px" y="0px"
	 width="100px" height="100px" viewBox="0 0 100 100" enable-background="new 0 0 100 100" xml:space="preserve">
<circle fill="#B2B2B2" cx="50" cy="50" r="50"/>
<path fill-rule="evenodd" clip-rule="evenodd" d="M28.803,35.5c0.092,0.025,0.197,0.057,0.27,0.079
	c0.073,0.426,0.183,1.05,0.292,1.948c0.174,1.41,1.385,1.246,1.385,1.246s0.216,0.554,0.216,0.702c0,0.147,0.017,0.199,0.045,0.571
	c0.025,0.372,0.553,1.194,0.553,1.194s-0.233,0.269-0.364,0.658c-0.13,0.39,0.036,1.222,0.234,1.819
	c0.2,0.598,0.614,1.316,0.614,1.316s-0.147,0.19-0.163,0.337c-0.01,0.083,0.068,0.192,0.163,0.303
	c-0.065,0.045-0.112,0.141-0.119,0.269c-0.01,0.155-0.079,1.308-0.079,1.472c0,0.165,0.198,0.114,0.373,0.008
	c0.172-0.102,0.172-0.198,0.164-0.337c-0.006-0.104-0.063-0.806-0.09-1.14c0.203,0.258,1.044,1.634,1.536,3.167
	c0.51,1.593,1.108,2.883,1.498,3.341c0.39,0.46,0.952,0.373,1.039,0.416c0.418,0.21,0.796,0.476,1.514,0.129
	c0.72-0.346,1.229-0.788,1.229-0.788s0.036,0.314,0.036,0.452s0.06,0.233,0.06,0.233s-0.286,1.056-0.32,1.43
	c-0.034,0.369-1.472,5.175-1.655,5.703c-0.181,0.529-0.916,2.458-1.219,3.056c-0.304,0.598-0.347,1.395-0.417,2.096
	c-0.07,0.701-0.242,1.835-0.336,2.259c-0.096,0.425,0.087,0.33,0.225,0.425c0.138,0.096,0.658,0.156,0.658,0.156
	s-0.088,1.887-0.069,2.233c0.018,0.347,0.26,0.319,0.304,0.338c0.042,0.018,0.181,0.043,0.198,0.224
	c0.018,0.183,0.224,0.485,0.224,0.485c-0.415,0.944-0.259,1.932-0.233,2.605c0.027,0.677,0,1.16,0,1.16s-0.276,0.037-0.32,0.218
	c-0.043,0.182-0.077,0.458-0.077,0.458s-0.208,0.052-0.252,0.338c-0.042,0.287-0.276,0.398-0.657,0.771
	c-0.382,0.372-0.374,0.65-0.374,0.65c-0.086-0.044-0.225,0.154-0.233,0.355c-0.009,0.198-0.295,1.506-0.346,1.53
	c-0.144,0.072-0.158,0.71-0.088,1.23c0.069,0.52,0.701,1.09,0.797,1.194c0.095,0.104,0.624,0.588,0.762,0.614
	c0.138,0.026,0.234-0.208,0.363,0.053c0.606,1.211,1.723,2.294,2.459,2.727c0.735,0.432,3.047,0.476,3.92,0.094
	c0.876-0.38,0.997-0.716,1.048-1.133c0.052-0.415-0.217-0.616-0.217-0.616c-0.095-0.707-0.832-1.4-0.994-1.521
	c-0.167-0.121-0.953-0.684-0.969-0.857c-0.018-0.173-0.435-0.777-0.686-0.833c-0.25-0.05-0.25-0.18-0.25-0.284
	c0-0.104,0.182-0.252,0.155-0.397c-0.025-0.147-0.268-0.252-0.536-0.632c-0.268-0.382-0.294-0.251-0.294-0.251
	c-0.096-0.062-0.034-0.174-0.044-0.261c-0.009-0.087-0.009-0.294,0.051-0.407c0.233-0.43-0.051-0.849-0.154-0.856
	c-0.104-0.009-0.096-0.096-0.096-0.173c0-0.079-0.113-0.182-0.113-0.182l0.52-1.378c0.157,0.035,1.213,0.842,1.402,0.875
	c0.191,0.035,0.157-0.155,1.559-0.849c1.402-0.692,4.502-0.485,8.155-0.312c3.653,0.174,4.519-0.087,4.519-0.087
	s0.018,0.52,1.558,3.359c1.542,2.841,1.991,5.566,1.991,5.566c-0.155,0.243,0.071,0.33,0.071,0.33s0.164,0.734,0.31,1.013
	c0.148,0.276,0.121,0.874,0.121,0.874s-0.146,0.087-0.146,0.347c0,0.259,0.217,1.548,0.371,1.834
	c0.158,0.287,0.399,0.745,0.33,0.808c-0.18,0.156-0.104,0.424,0.018,0.519c0.122,0.094,0.226,0.424,0.242,0.571
	c0.018,0.146,0.562,0.39,0.96,0.371c0.399-0.018,1.499-0.042,1.922-0.147c0.426-0.104,0.46-0.614,0.539-0.71
	c0.075-0.095,0.164-0.173,0.372-0.216c0.207-0.043,1.072,0.121,1.868,0.036c0.798-0.089,1.818-0.591,3.438-1.682
	c1.62-1.09,1.696-1.523,1.748-1.635c0.054-0.112-0.079-0.27-0.249-0.493c-0.175-0.227-0.226-0.166-0.226-0.166
	c-0.329-0.391-1.213-0.44-1.646-0.391c-0.433,0.053-1.238,0.062-1.446-0.05c-0.207-0.113-0.795-0.234-0.979-0.139
	c-0.181,0.096-0.604,0.043-0.604,0.043s-0.062-0.035-0.156-0.44c-0.097-0.408-0.269-0.408-0.364-0.538
	c-0.095-0.13-0.838-0.477-0.969-0.545c-0.131-0.069-0.217-0.104-0.312-0.026c-0.094,0.078-0.399,0.286-0.545,0.208
	c-0.148-0.077-0.139,0.105-0.139,0.252c0,0.146-0.146,0.174-0.146,0.174s-0.123-0.071-0.123-0.227s-0.172-0.294-0.328-0.329
	c-0.155-0.034-0.484-0.813-0.502-1.092c-0.017-0.275-0.208-0.379-0.208-0.379c-0.536-4.97-1.549-8.789-1.549-8.789
	c0.087-0.111,0.111-0.284,0.224-0.337c0.114-0.052,0.062-0.199,0.027-0.442c-0.034-0.241-1.472-6.067-1.394-6.491
	c0.077-0.424-0.199-1.065-0.242-1.144c-0.044-0.077-0.184-0.146-0.184-0.632c0-1.379-0.345-3.352-0.578-3.921
	c-0.234-0.572-0.226-0.528-0.183-0.745c0.166-0.835-0.414-4.13-0.414-4.13c0.275-0.053,0.604-0.754,0.709-0.883
	c0.104-0.13,0.579-0.735,0.562-0.9c-0.018-0.164-0.105-1.144-0.105-1.144c0.121,0.053,0.329-0.094,0.416-0.181
	c0.088-0.087,0.235-0.104,0.364-0.208c0.129-0.104,0.567-0.572,0.651-0.657c0.016,0.128,0.188,0.69,0.197,0.762
	c-0.033,0.064-0.104,0.381-0.035,0.683c0.07,0.303,0.452,0.407,0.511,0.296c0.097-0.021,0.009-0.408,0.096-0.581
	c0.088-0.174,0.088-0.32,0.096-0.605c0.009-0.286,0.017-1.378-0.122-1.637s-0.241-0.771-0.226-0.865
	c0.019-0.096-0.033-0.46-0.051-0.72c-0.017-0.258-0.243-0.745-0.425-1.835c-0.183-1.089-0.276-1.42-0.328-1.488
	c-0.053-0.07-0.097-0.295-0.097-0.295s0.078-0.095,0.062-0.303c-0.018-0.208-0.234-0.321-0.234-0.321
	c0.043-0.354-1.695-2.276-1.695-2.276c0.085-0.433-0.07-0.469-0.139-0.658c-0.07-0.19-0.441-2.131-0.408-2.347
	c0.034-0.217-0.13-4.268-0.416-5.064c-0.284-0.797-0.467-1.923-0.483-2.347c-0.018-0.424-0.433-1.462-0.433-1.462
	s0.173,0.095,0.241,0.008c0.07-0.086,0.147-0.086,0.217-0.103c0.068-0.017,0.13-0.122-0.018-0.294
	c-0.146-0.173-0.51-0.997-0.717-1.837c-0.209-0.839-0.384-1.418-0.719-1.852c-0.339-0.432-1.369-1.064-1.369-1.064
	c0.112-0.589,0.32-0.641,0.425-0.986c0.103-0.348,0.527-0.703,0.821-0.894c0.295-0.19,1.938-0.788,2.691-1.23
	c0.755-0.441,0.277-1.67,0.226-1.792c-0.052-0.12,0.035-0.303,0.087-0.484c0.053-0.182-0.068-0.502-0.154-0.588
	c-0.088-0.087-0.279-0.087-0.279-0.165c0-0.077,0.131-0.286,0.263-0.424c0.128-0.14,0.05-0.451-0.142-0.658
	c-0.189-0.208-0.249-0.624-0.249-0.624c0.224-0.173,0.191-0.433,0.191-0.588c0-0.155,0.033-0.241-0.123-0.416
	c-0.155-0.173-0.728-0.434-0.952-0.52c-0.225-0.086-0.311-0.121-0.346-0.226c-0.01-0.027-0.017-0.062-0.022-0.098
	c0.087-0.065,0.16-0.162,0.16-0.162s-0.077,0.053-0.175,0.057c-0.016-0.081-0.032-0.167-0.066-0.247
	c-0.069-0.155-0.011-1.149-0.087-1.333c-0.066-0.156-0.277-0.258-0.437-0.762c-0.187-0.586-1.195-2.06-1.771-2.934
	c-0.013-0.021-0.033-0.041-0.049-0.063c0.756,0.3,1.663,1.144,2.151,1.681c-0.507-0.557-1.419-1.456-2.193-1.74
	c0,0-0.002-0.002-0.005-0.003c-0.176-0.211-0.42-0.385-0.686-0.523c0.021-0.008,0.043-0.016,0.068-0.023
	c0.127-0.037,0.309-0.07,0.539-0.052c0.458,0.031,1.134,0.228,1.881,1.006c-0.752-0.785-1.408-1.014-1.878-1.047
	c-0.188-0.013-0.462,0.01-0.66,0.092c-0.275-0.138-0.567-0.236-0.832-0.304c0.057,0,0.089,0.002,0.089,0.002
	s-0.057-0.016-0.156-0.019c-0.377-0.09-0.685-0.118-0.783-0.092c-0.147,0.036-1.3,0.144-2.328,0.25
	c-0.678-0.123-1.958,0.048-3.134,0.317c-0.09,0.021-0.179,0.042-0.269,0.063c-0.506,0.039-0.831,0.282-0.928,0.362
	c-0.866,0.452-1.895,1.334-2.036,1.585c-0.182,0.324-0.155,0.684-0.298,0.738c-0.148-0.019-0.361-0.037-0.604-0.031
	c-0.439,0.013-0.933,0.133-1.25,0.468c0.306-0.323,0.814-0.417,1.25-0.427c0.192-0.006,0.366,0.004,0.503,0.019
	c-0.641,0.173-1.571,1.486-1.775,2.836c-0.053,0.352-0.042,0.739,0.01,1.128c0.026,0.797,0.105,1.605,0.242,2.217
	c0.062,1.14,0.234,2.232,0.532,2.663c-0.254-0.366-0.383-1.289-0.441-2.314c0.022,0.073,0.046,0.142,0.071,0.205
	c0.008,0.093,0.016,0.177,0.021,0.245c0.022,0.281,0.088,0.487,0.152,0.625c0.027,0.359,0.06,0.681,0.098,0.911
	c-0.037-0.225-0.066-0.538-0.088-0.886c0.068,0.146,0.132,0.217,0.133,0.218c0,0-0.046-0.072-0.099-0.214
	c-0.014-0.038-0.028-0.08-0.041-0.125c-0.011-0.187-0.02-0.382-0.026-0.577c0.047,0.247,0.106,0.465,0.171,0.648
	c0.059,0.414,0.122,0.793,0.184,1.051c-0.06-0.249-0.118-0.611-0.168-1.01c0.025,0.065,0.05,0.125,0.078,0.179
	c0.078,0.82,0.221,1.545,0.431,1.924c0.001,0.014,0.001,0.028,0.002,0.042c-0.035,0.239-0.065,0.452-0.086,0.597
	c-0.088,0.594,0.089,0.908,0.089,0.908s-0.028-0.076-0.047-0.228c-0.02-0.153-0.028-0.378,0.016-0.671
	c0.012-0.09,0.03-0.208,0.049-0.341c0.013,0.114,0.033,0.228,0.055,0.34c0.006,0.367,0.113,0.563,0.113,0.563
	s-0.029-0.079-0.046-0.23c-0.004-0.029-0.007-0.063-0.01-0.098c0.039,0.146,0.086,0.276,0.138,0.378
	c0.026,0.407,0.05,1.011-0.014,1.218c0.063-0.203,0.068-0.716,0.06-1.135c0.007,0.013,0.016,0.026,0.022,0.037
	c0.015,0.021,0.03,0.047,0.046,0.073c0.063,0.304,0.122,0.585,0.159,0.763c0.121,0.587,0.396,0.821,0.399,0.825
	c0,0-0.056-0.065-0.125-0.201c-0.072-0.137-0.156-0.348-0.215-0.636c-0.028-0.136-0.07-0.33-0.116-0.55
	c0.18,0.389,0.341,0.938,0.449,1.196c0.35,0.833,1.151,1.271,1.151,1.271h0.007c0.089,0.071,0.208,0.158,0.353,0.238
	c0.209,0.116,0.465,0.217,0.729,0.229c0.092,0.184,0.186,0.36,0.28,0.522c-0.015,0.126-0.006,0.232-0.006,0.232
	c-0.17-0.021-0.298,0.107-0.298,0.107c-0.28-0.973-1.21-0.879-1.367-0.879c-0.154,0-1.298,0.251-1.514,0.156
	c-0.217-0.096-0.702,0.043-1.109,0.232c-0.294,0.139-1.28,0.426-1.87,0.573c-0.221-0.224-0.918-0.916-1.055-0.944
	c-0.166-0.034-0.235-0.078-0.261-0.164c-0.026-0.087-0.182-0.14-0.312-0.105c-0.129,0.036-0.769,0.304-1.21,0.443
	c-0.441,0.138-0.59,0.164-0.735,0.294c-0.148,0.13-0.53,0.562-0.478,1.15c0.034,0.386,0.097,0.829,0.136,1.093
	c-0.38,0.099-0.506,0.275-0.673,0.396c-0.251,0.182-1.644,0.668-2.026,0.736c-0.381,0.069-1.748,0.45-2.043,0.571
	c-0.294,0.121-0.727,0.208-0.909,0.459c-0.183,0.25-0.277,0.527-0.277,0.527s-0.25,0.071-0.485,0.581
	c-0.157,0.345-0.145,1.024-0.113,1.541c-0.067,0.145-0.19,0.421-0.215,0.546C28.698,35.172,28.647,35.458,28.803,35.5z
	 M41.079,18.572c-0.065-0.424-0.106-0.919-0.131-1.437c0.033,0.154,0.07,0.304,0.111,0.449c0,0.183,0.003,0.373,0.007,0.563
	C41.068,18.289,41.073,18.43,41.079,18.572z M41.388,19.254c0-0.037-0.002-0.075-0.002-0.11c0.036,0.226,0.079,0.436,0.126,0.622
	c0.017,0.127,0.034,0.254,0.051,0.38C41.49,19.902,41.432,19.598,41.388,19.254z M41.325,19.519
	c0.019,0.037,0.037,0.071,0.059,0.102c0.009,0.153,0.019,0.304,0.029,0.453c-0.034-0.129-0.066-0.287-0.082-0.48
	C41.33,19.572,41.327,19.544,41.325,19.519z M41.141,18.058c0.036,0.415,0.079,0.911,0.108,1.268
	c-0.025-0.076-0.051-0.158-0.073-0.248C41.158,18.741,41.147,18.397,41.141,18.058z M41.22,18.097
	c-0.002,0.054-0.002,0.104-0.002,0.153c-0.005-0.074-0.012-0.144-0.019-0.212C41.206,18.059,41.213,18.077,41.22,18.097z
	 M41.265,18.624c0.028,0.277,0.065,0.544,0.107,0.787c0.003,0.07,0.008,0.14,0.012,0.209c-0.021-0.032-0.04-0.067-0.059-0.107
	c-0.021-0.25-0.053-0.632-0.085-1.015C41.247,18.545,41.255,18.586,41.265,18.624z M41.371,18.55
	c0.029,0.281,0.065,0.603,0.105,0.929c-0.042-0.256-0.076-0.545-0.104-0.85C41.372,18.604,41.371,18.575,41.371,18.55z
	 M41.46,19.085c0.024,0.087,0.052,0.162,0.08,0.224c0.022,0.292,0.049,0.562,0.078,0.776c-0.033-0.104-0.064-0.219-0.091-0.346
	C41.503,19.519,41.48,19.298,41.46,19.085z M41.529,19.157c-0.023-0.094-0.048-0.206-0.064-0.332
	c0.016,0.08,0.035,0.152,0.056,0.214C41.524,19.079,41.526,19.118,41.529,19.157z M41.59,18.979
	c-0.002-0.008-0.004-0.016-0.006-0.024c0.002,0.005,0.003,0.007,0.005,0.009C41.589,18.97,41.589,18.975,41.59,18.979z
	 M41.591,19.353c-0.003-0.007-0.004-0.011-0.007-0.017c-0.013-0.038-0.027-0.08-0.041-0.126c-0.003-0.037-0.005-0.074-0.006-0.113
	c0.016,0.07,0.033,0.141,0.049,0.211C41.588,19.323,41.59,19.336,41.591,19.353z M41.598,19.36
	c-0.001-0.006-0.001-0.012-0.002-0.016l0.001,0.003C41.598,19.352,41.598,19.355,41.598,19.36z M41.64,20.146
	c-0.007-0.02-0.013-0.041-0.021-0.061c-0.028-0.209-0.05-0.469-0.069-0.754c0.016,0.035,0.031,0.064,0.046,0.09
	c0.001,0.021,0.004,0.041,0.006,0.062C41.611,19.707,41.625,19.929,41.64,20.146z M41.664,20.412
	c-0.029-0.062-0.057-0.129-0.082-0.206c-0.013-0.106-0.026-0.215-0.039-0.326c0.026,0.085,0.053,0.164,0.081,0.238
	c0.003,0.034,0.009,0.068,0.015,0.099c-0.006-0.031-0.011-0.064-0.015-0.098c0.005,0.016,0.01,0.033,0.019,0.048
	C41.649,20.25,41.657,20.332,41.664,20.412z M41.7,19.392c-0.006-0.012-0.014-0.027-0.024-0.047c-0.001,0-0.001-0.004-0.001-0.004
	c-0.001-0.062-0.002-0.123-0.005-0.184c0.008,0.056,0.016,0.11,0.024,0.165C41.696,19.344,41.698,19.368,41.7,19.392z
	 M41.706,19.463c-0.007-0.025-0.014-0.053-0.021-0.079c0.006,0.007,0.011,0.014,0.016,0.019
	C41.702,19.423,41.704,19.443,41.706,19.463z M41.865,19.649c-0.024-0.106-0.049-0.211-0.073-0.316
	c0.023,0.068,0.046,0.143,0.068,0.231C41.862,19.593,41.863,19.621,41.865,19.649z M41.885,20.106
	c-0.013-0.058-0.024-0.119-0.037-0.186c0.011,0.045,0.022,0.094,0.034,0.139C41.883,20.076,41.883,20.09,41.885,20.106z
	 M41.886,20.151c-0.031-0.111-0.062-0.227-0.092-0.341c-0.005-0.062-0.01-0.126-0.017-0.19c0.012,0.055,0.025,0.109,0.039,0.164
	c0.008,0.037,0.016,0.073,0.026,0.109c0.014,0.078,0.028,0.148,0.043,0.214C41.886,20.122,41.886,20.136,41.886,20.151z
	 M41.899,20.411c0.012,0.212,0.026,0.425,0.04,0.629c-0.034-0.128-0.065-0.287-0.081-0.48c-0.009-0.102-0.021-0.238-0.034-0.39
	c0.013,0.04,0.025,0.079,0.037,0.118c0.004,0.015,0.007,0.031,0.01,0.046c-0.003-0.015-0.006-0.029-0.01-0.046
	C41.874,20.331,41.887,20.37,41.899,20.411z M41.953,20.025c-0.018-0.07-0.034-0.14-0.051-0.209c0-0.027,0-0.052-0.001-0.078
	c0.016,0.066,0.029,0.136,0.043,0.208C41.948,19.972,41.95,19.998,41.953,20.025z M42.024,20.611
	c-0.038-0.117-0.073-0.238-0.108-0.361c-0.001-0.021-0.002-0.045-0.002-0.068c0.034,0.132,0.068,0.264,0.105,0.394
	C42.021,20.587,42.022,20.599,42.024,20.611z M42.066,20.744c-0.004-0.012-0.008-0.024-0.012-0.039c0,0-0.001-0.011-0.002-0.015
	c0.005,0.015,0.01,0.03,0.015,0.046V20.744z M42.109,21.18c-0.01-0.083-0.021-0.169-0.029-0.255c0.003,0.01,0.005,0.02,0.01,0.029
	C42.096,21.031,42.103,21.106,42.109,21.18z M42.117,21.932c-0.019,0.121-0.026,0.262-0.021,0.411
	c-0.186-0.348-0.296-1.022-0.359-1.801c-0.006-0.068-0.011-0.138-0.016-0.208c0.018,0.032,0.036,0.062,0.056,0.091
	c-0.02-0.029-0.038-0.06-0.056-0.092c-0.015-0.211-0.026-0.428-0.035-0.646c0.018,0.067,0.036,0.132,0.056,0.2
	c0.022,0.27,0.042,0.517,0.058,0.677c0.021,0.281,0.086,0.486,0.15,0.627c0.027,0.357,0.06,0.68,0.099,0.909
	c-0.038-0.225-0.067-0.537-0.089-0.885c0.07,0.146,0.131,0.215,0.133,0.217c0,0-0.048-0.072-0.1-0.215
	c-0.012-0.036-0.027-0.079-0.041-0.125c-0.011-0.197-0.021-0.403-0.028-0.61c0.043,0.13,0.087,0.255,0.131,0.378
	c0.023,0.159,0.044,0.315,0.066,0.465C42.136,21.585,42.138,21.803,42.117,21.932z M59.103,51.767
	c0.079-0.008,0.32-0.294,0.32-0.294c0.033,0.053,0.086,0.053,0.086,0.053c-0.113,0.027-0.372,0.337-0.372,0.337L59.103,51.767z
	 M46.249,9.985c0.446-0.071,0.969-0.155,1.308-0.21C47.226,9.857,46.781,9.952,46.249,9.985z M46.176,9.938
	c1.212-0.281,2.51-0.509,3.187-0.413c-0.483,0.05-0.935,0.098-1.243,0.139c-0.118-0.005-0.258,0.001-0.417,0.027
	C47.377,9.745,46.709,9.852,46.176,9.938z M45.236,26.719c0.004,0.001,0.009,0.002,0.013,0.006l0.002,0c0,0-0.008,0-0.013-0.002
	L45.236,26.719z M44.442,26.527c0.08,0.042,0.162,0.078,0.25,0.105c0.098,0.064,0.201,0.117,0.31,0.151
	C44.807,26.73,44.615,26.638,44.442,26.527z M44.481,26.466c0.03,0.028,0.062,0.054,0.094,0.08c-0.06-0.022-0.116-0.05-0.168-0.08
	H44.481z M44.551,26.466c0.047,0.048,0.115,0.088,0.195,0.123c0.011,0.008,0.025,0.014,0.039,0.021
	c-0.031-0.005-0.059-0.011-0.089-0.019c-0.057-0.038-0.11-0.08-0.158-0.125H44.551z M44.627,26.466
	c0.009,0.023,0.025,0.045,0.047,0.066c-0.038-0.021-0.069-0.042-0.096-0.066H44.627z M44.925,26.503
	c0.039,0.049,0.096,0.096,0.164,0.138c-0.005,0-0.012-0.001-0.017-0.001c-0.034,0.002-0.073-0.002-0.11-0.005
	c-0.071-0.017-0.142-0.038-0.207-0.065c-0.05-0.031-0.087-0.067-0.107-0.104l0.202,0.002C44.874,26.482,44.9,26.492,44.925,26.503z
	 M45.019,26.501c-0.026-0.009-0.052-0.02-0.076-0.032l0.024,0.001C44.983,26.481,45.001,26.492,45.019,26.501z M45.118,26.635
	c-0.058-0.035-0.11-0.072-0.148-0.111c0.035,0.015,0.071,0.023,0.106,0.034C45.089,26.585,45.104,26.61,45.118,26.635z
	 M45.159,26.711c-0.05-0.009-0.102-0.019-0.152-0.034c0.023,0.001,0.046,0.003,0.068,0.002c0.012,0,0.022,0.001,0.03,0.001
	c0.014,0.002,0.029,0.004,0.042,0.008C45.15,26.695,45.154,26.704,45.159,26.711z M45.171,26.733
	c0.007,0.015,0.017,0.028,0.026,0.042c0.003,0.007,0.006,0.013,0.01,0.019c-0.021-0.004-0.043-0.01-0.063-0.014
	c-0.109-0.018-0.226-0.062-0.336-0.123c0.042,0.009,0.083,0.015,0.125,0.019C45.012,26.702,45.095,26.721,45.171,26.733z
	 M45.255,26.617c-0.007-0.007-0.015-0.012-0.022-0.017c0.005,0.001,0.011,0.003,0.016,0.004
	C45.251,26.609,45.253,26.613,45.255,26.617z M45.272,26.655c-0.015-0.002-0.03-0.004-0.044-0.007
	c-0.007-0.006-0.014-0.013-0.019-0.019L45.2,26.638c-0.008-0.017-0.017-0.036-0.024-0.053l0.004,0
	c0.003,0.001,0.008,0.003,0.014,0.003c0.022,0.021,0.048,0.043,0.076,0.064C45.272,26.654,45.272,26.655,45.272,26.655z
	 M45.281,26.751c0.025,0.027,0.05,0.054,0.074,0.079c0.002,0.001,0.002,0.002,0.003,0.002c-0.012,0.001-0.023,0.002-0.035,0.002
	c-0.011-0.005-0.022-0.009-0.032-0.014c-0.012-0.02-0.026-0.041-0.038-0.063c-0.001-0.003-0.003-0.008-0.004-0.013
	c0.01,0.003,0.019,0.003,0.03,0.007C45.279,26.751,45.28,26.751,45.281,26.751z M45.304,26.771c0.013,0.011,0.026,0.022,0.039,0.034
	c0.004,0.005,0.007,0.012,0.009,0.018C45.336,26.807,45.32,26.789,45.304,26.771z M45.293,26.7c-0.003,0-0.006-0.001-0.009-0.001
	C45.284,26.699,45.29,26.699,45.293,26.7L45.293,26.7z M45.304,26.725c0,0-0.002-0.001-0.003-0.004l0.002,0.001
	C45.304,26.724,45.304,26.725,45.304,26.725z M45.41,26.684c-0.023-0.005-0.043-0.009-0.065-0.013
	c-0.006-0.015-0.012-0.027-0.02-0.043c0.024,0.009,0.048,0.019,0.072,0.03C45.401,26.667,45.404,26.675,45.41,26.684z M45.54,26.987
	c0.007,0.015,0.014,0.03,0.02,0.046c-0.021-0.021-0.044-0.043-0.067-0.066c-0.001-0.004-0.003-0.006-0.005-0.01
	C45.505,26.966,45.522,26.977,45.54,26.987z M45.499,26.918c0.003-0.001,0.005-0.001,0.008-0.002c0,0.002,0.002,0.003,0.002,0.003
	c0.002,0.002,0.004,0.004,0.004,0.004C45.508,26.923,45.504,26.921,45.499,26.918z M45.485,26.82
	c-0.001-0.005-0.004-0.011-0.006-0.015c0.011,0.002,0.02,0.006,0.031,0.011C45.502,26.817,45.493,26.819,45.485,26.82z
	 M45.465,26.774c0,0,0-0.005-0.002-0.008c0.021,0.007,0.042,0.012,0.064,0.019c0.016,0.006,0.029,0.012,0.044,0.016l-0.003,0.001
	C45.534,26.792,45.499,26.783,45.465,26.774z M45.468,26.823c-0.012,0.002-0.022,0.004-0.032,0.004
	c-0.008-0.004-0.017-0.011-0.026-0.018c-0.005-0.01-0.011-0.021-0.016-0.032c0.005,0.001,0.01,0.004,0.015,0.005
	c0.013,0.003,0.032,0.01,0.046,0.016C45.462,26.807,45.465,26.815,45.468,26.823z M45.383,26.752
	c-0.001-0.001-0.002-0.003-0.003-0.004c0,0-0.001-0.003-0.001-0.005c0.022,0.006,0.042,0.011,0.063,0.019
	c0.001,0.002,0.002,0.005,0.004,0.008c-0.017-0.004-0.034-0.008-0.049-0.012C45.392,26.756,45.386,26.753,45.383,26.752z
	 M45.367,26.719c-0.001-0.001-0.001-0.001-0.003-0.004c0.004,0.001,0.009,0.002,0.012,0.002c0.008,0.003,0.015,0.008,0.022,0.011
	C45.388,26.725,45.378,26.721,45.367,26.719z M45.468,26.702c-0.012-0.003-0.024-0.008-0.037-0.011
	c-0.002-0.006-0.004-0.012-0.006-0.016C45.439,26.683,45.454,26.692,45.468,26.702z M45.568,26.777
	c-0.013-0.004-0.025-0.008-0.036-0.011c-0.018-0.007-0.036-0.014-0.056-0.022c0.03,0.009,0.058,0.021,0.088,0.029
	C45.564,26.774,45.566,26.776,45.568,26.777z M45.574,26.779L45.574,26.779c-0.003-0.001-0.003-0.002-0.005-0.005
	c0.002,0.001,0.002,0.002,0.004,0.002C45.574,26.778,45.574,26.778,45.574,26.779z M45.629,26.885
	c0.013,0.023,0.023,0.045,0.035,0.067c-0.035-0.013-0.068-0.03-0.101-0.049C45.585,26.899,45.608,26.891,45.629,26.885z
	 M45.695,26.875c-0.007-0.004-0.015-0.007-0.022-0.011l-0.003-0.011c0.001,0.001,0.004,0.002,0.006,0.002
	C45.682,26.861,45.69,26.867,45.695,26.875z M45.748,26.936c-0.013-0.012-0.025-0.021-0.037-0.033
	c0.007,0.001,0.015,0.006,0.02,0.011C45.739,26.921,45.744,26.928,45.748,26.936z M45.777,26.995c-0.03-0.009-0.06-0.02-0.09-0.032
	c-0.014-0.028-0.027-0.055-0.042-0.082c0.005-0.001,0.007-0.001,0.011-0.004c0.017,0.008,0.035,0.016,0.05,0.022
	c0.016,0.014,0.029,0.026,0.043,0.038C45.764,26.957,45.774,26.977,45.777,26.995z M45.739,27.068
	c-0.008-0.017-0.016-0.034-0.024-0.05c0.017,0.006,0.037,0.009,0.056,0.014C45.765,27.045,45.757,27.056,45.739,27.068z
	 M45.717,27.056c-0.059-0.041-0.121-0.08-0.183-0.118c0,0-0.001-0.002-0.002-0.003c0.052,0.029,0.108,0.054,0.163,0.074
	C45.702,27.023,45.708,27.04,45.717,27.056z M45.636,27.179c-0.017-0.041-0.035-0.082-0.053-0.123
	c0.02,0.019,0.039,0.037,0.058,0.053c-0.019-0.016-0.038-0.036-0.058-0.053c-0.007-0.019-0.015-0.037-0.023-0.056
	c0.049,0.031,0.098,0.062,0.146,0.095C45.679,27.118,45.656,27.147,45.636,27.179z M45.621,27.171
	c-0.041-0.058-0.083-0.125-0.126-0.202c0.023,0.022,0.044,0.046,0.065,0.065C45.581,27.08,45.601,27.125,45.621,27.171z
	 M45.607,27.239c-0.07-0.073-0.154-0.174-0.244-0.306c0.015,0,0.029-0.003,0.044-0.004c0.068,0.122,0.137,0.223,0.203,0.299
	C45.609,27.231,45.608,27.236,45.607,27.239z M45.563,27.389c-0.055-0.101-0.107-0.206-0.161-0.316
	c0.07,0.083,0.135,0.146,0.191,0.194C45.581,27.307,45.57,27.348,45.563,27.389z M37.063,28.297
	c0.215-0.468,0.258-0.744,0.258-0.744s0.614,0.234,0.762,0.295c0.106,0.043,0.339,0.15,0.46,0.205
	c-0.183,0.081-0.386,0.22-0.564,0.453c-0.346,0.449-0.553,0.943-0.553,0.943s-0.036,0.073-0.424,0.107
	C36.96,29.263,36.901,28.646,37.063,28.297z M32.022,47.214c0.006-0.061,0.018-0.177,0.043-0.203
	c0.026-0.026,0.084-0.058,0.125-0.078c0.045-0.022,0.057,0.066,0.069,0.207c0.014,0.143-0.091,0.189-0.181,0.226
	C31.983,47.404,32.017,47.278,32.022,47.214z M32.14,45.863c0.039,0,0.034,0.132,0.022,0.169c-0.012,0.034-0.058,0.042-0.096,0.042
	c-0.037,0-0.027-0.07-0.021-0.116C32.052,45.892,32.101,45.863,32.14,45.863z M28.777,35.211c0-0.127,0.09-0.235,0.209-0.259
	c0.004,0.026,0.006,0.051,0.007,0.072c0.007,0.111,0.03,0.257,0.062,0.447c-0.004,0.001-0.01,0.004-0.015,0.004
	C28.895,35.475,28.777,35.356,28.777,35.211z"/>
</svg>
