<?xml version="1.0" encoding="utf-8"?>
<!-- Generator: Adobe Illustrator 15.0.2, SVG Export Plug-In . SVG Version: 6.00 Build 0)  -->
<!DOCTYPE svg PUBLIC "-//W3C//DTD SVG 1.1//EN" "http://www.w3.org/Graphics/SVG/1.1/DTD/svg11.dtd">
<svg version="1.1" id="Ebene_1" xmlns="http://www.w3.org/2000/svg" xmlns:xlink="http://www.w3.org/1999/xlink" x="0px" y="0px"
	 width="100px" height="100px" viewBox="0 0 100 100" enable-background="new 0 0 100 100" xml:space="preserve">
<circle fill="#B2B2B2" cx="50" cy="50" r="50"/>
<path fill="#1D1D1B" d="M65.937,85.858c-0.812-0.443-2.659-2.291-3.694-2.512c-0.96-0.443-1.403-0.296-1.403-0.296
	s-1.034-0.665-0.517-5.688c0.369,0,0.591-0.371,0.517-1.035c-0.073-0.664,0-4.434,0.369-4.876c0.37-0.443,0.592-0.887-0.073-2.291
	c-0.665-1.403,1.183-1.699,0.738-2.954c-0.442-1.256-0.738-3.472-0.738-5.614c0-1.36-0.654-3.817-1.17-5.472l8.269,2.28l1.513-6.499
	l-7.387-1.5c0.473-0.036,0.355-0.498-0.089-0.689c-0.453-0.193-1.373-1.896-2.11-2.427c-0.462-0.332-1.571-2.34-2.636-4.419
	c0.008-1.421-0.008-2.782,0.064-3.217c0.147-0.885,0.443-5.171,0.221-6.648c-0.221-1.478-0.886-4.875-1.255-5.836
	c-0.369-0.96-0.665-0.886-0.665-1.108c0-0.221,0.812-2.142,1.034-2.364c0.369,0.074,2.512,0.517,2.216-0.812
	c-0.073-0.296-0.073-0.296-0.073-0.296s0.665-0.147,0.295-0.738c-0.073-0.148,0.518-0.297,0.296-0.813
	c0.147-0.074,1.108,0.074,0.812-0.961c-0.296-1.034-0.665-1.182-0.369-1.403c0.296-0.222,0.296-1.035,0.369-1.7
	s0.296-1.477-0.073-1.699c0,0,1.921-1.92-2.512-2.659c-1.699-0.295-2.513-0.517-3.251-0.442c-0.739,0.073-2.068,0.369-2.659,0.517
	c-0.592,0.148-2.365,3.99-2.365,4.728c0,0.739,0.443,1.182,0.074,1.404c-0.369,0.222,0,1.331,0.148,1.848s1.405,1.256,1.405,1.256
	s0.959,0.591,0.664,0.665c-0.124,0.031-0.914,0.169-1.831,0.462c-0.022,0.002-0.043,0.003-0.065,0.005
	c-0.543,0.061-1.11,0.349-1.639,0.727c-0.458,0.267-0.854,0.589-1.125,0.97c-0.648,0.651-1.109,1.271-1.177,1.406
	c-0.147,0.296-2.019,2.315-2.019,2.315s-0.197-0.591-1.035-0.394c-0.837,0.196-3.496,5.072-3.596,5.564
	c-0.098,0.492-0.246,0.1-0.886,0.394c-0.64,0.295,0.296,1.379-0.049,1.231s-0.197-0.197-0.443,0.345
	c-0.247,0.542-0.443,2.019-0.689,1.329c-0.247-0.69-0.492-0.542-0.492,0.148c0,0.689,0,2.906-0.542,4.137
	c-0.542,1.231-0.197,4.728-0.098,5.566c0.099,0.836,0.098,1.773,0.196,2.56c0.099,0.789-0.689,2.02-1.625,3.203
	c-0.936,1.182-2.807,1.182-2.807,1.182s0,0,0.542,0.443s0.936,0.197,2.167-0.346c1.33-0.64,2.118-4.087,2.118-4.087
	s0.492,1.182,0.689,1.625c0.198,0.443,1.034,0.787,2.167,1.527c1.132,0.739,2.019,0.788,2.758,0.541c0,0.394-1.281,1.183-1.43,1.183
	c-0.146,0,0,0.246,0.346,0.443c0.689,0.147,1.477-0.984,1.674-1.281c0.08-0.118,0.183-0.141,0.301-0.136
	c-0.062,0.684-0.047,1.15,0.093,1.22c0.591,0.295,0.887,0.887,1.108,1.034c0.221,0.147,1.181,2.883,1.181,2.883
	s-1.107,3.692-0.96,5.022c0.148,1.33,0.295,2.438-0.443,2.66c-0.739,0.221-2.955,1.477-3.546,2.954
	c-0.591,1.478-2.291,3.842-2.364,4.137c-0.074,0.297,0,0.517,0,0.517s-1.477,1.699-2.364,1.922c-0.369-0.073-0.296-0.148-0.96,0.073
	s-2.068,0.519-2.512,0.593c-0.443,0.073-2.29,0.811-2.29,1.551c0,0.737,0.443,1.994,0.96,3.251c0.517,1.255,1.551,5.022,3.029,5.983
	c1.477,0.96,3.472,2.216,4.285,0.221c0.074-0.738-0.147-1.847-0.665-2.217c-0.295-0.146,0.148-0.294,0.148-0.294
	s0.148-2.955,0.517-3.474c0.369-0.516,1.256-1.254-0.369-1.477c-0.296-0.073,2.142-3.25,3.62-3.768
	c0.961,0.148,3.472,0.812,3.915,0.887c0.444,0.073,5.467-5.541,5.911-6.575c0.444-1.034,0.518,2.216,1.035,2.585
	c0.517,0.369,0.59,3.473,0.886,4.286c0.296,0.812,1.33,1.328,1.847,1.182c0.296,0.443,1.256,2.955,0.665,5.172
	c-0.369,0-0.738,0.295-0.886,0.959c-0.148,0.665,0.073,3.842-0.148,4.285c-0.074,0.296,0.222,0.147,0.813,0.222
	c0.59,0.074,5.909,0.222,7.018,0.295c1.107,0.074,5.91,0.592,5.467-1.551C67.783,86.744,67.34,85.784,65.937,85.858z"/>
</svg>
