<?xml version="1.0" encoding="utf-8"?>
<!-- Generator: Adobe Illustrator 15.0.2, SVG Export Plug-In . SVG Version: 6.00 Build 0)  -->
<!DOCTYPE svg PUBLIC "-//W3C//DTD SVG 1.1//EN" "http://www.w3.org/Graphics/SVG/1.1/DTD/svg11.dtd">
<svg version="1.1" id="Ebene_1" xmlns="http://www.w3.org/2000/svg" xmlns:xlink="http://www.w3.org/1999/xlink" x="0px" y="0px"
	 width="100px" height="100px" viewBox="0 0 100 100" enable-background="new 0 0 100 100" xml:space="preserve">
<circle fill="#B2B2B2" cx="50" cy="50" r="50"/>
<g>
	<path fill-rule="evenodd" clip-rule="evenodd" d="M55.073,85.769c-0.014-0.086,0.122-0.203,0.061-0.142
		c-0.041,0.041-0.121,0.061-0.195,0.091C55.001,85.774,55.079,85.814,55.073,85.769z"/>
	<path fill-rule="evenodd" clip-rule="evenodd" d="M83.404,48.247c-0.185-0.525-0.392-0.953-0.392-0.953s0.085-0.037,0.183-0.098
		s0.062-0.256-0.012-0.403c-0.074-0.146-0.44-0.061-0.686-0.221c-0.244-0.159-0.684-1.026-0.818-1.149
		c-0.135-0.122-0.379-0.343-0.6-0.489c-0.22-0.147-0.685-0.343-1.174-0.624c-0.489-0.282-1.565-1.211-1.883-1.603
		c-0.317-0.392-0.587-0.88-0.928-1.222c-0.344-0.342-0.553-0.513-0.992-0.991c-0.44-0.476-1.479-1.381-2.152-2.31
		c-0.673-0.931-1.675-2.116-2.567-3.131c-0.893-1.015-2.006-1.92-2.274-2.188s-0.5-0.562-0.562-0.77
		c-0.062-0.208-0.281-0.71-0.464-1.174c-0.184-0.464-0.245-0.587-0.343-0.709c-0.098-0.123-0.293-0.318-0.269-0.477
		c0.023-0.159,0.049-0.136-0.122-0.306c-0.172-0.171-0.22-0.625-0.22-1.028s0.085-0.624,0.134-0.954s-0.062-0.269-0.147-0.562
		c-0.086-0.294-0.232-0.71-0.367-1.381c-0.133-0.673-0.244-0.82-0.451-1.163C66.09,24,65.82,23.805,65.332,23.487
		c-0.489-0.317-0.673-0.416-1.37-0.612c-0.696-0.195-0.893-0.28-1.491-0.451c-0.6-0.171-2.238-0.575-2.238-0.575
		s0.049-0.134,0.184-0.55c0.136-0.416,0.208-0.563,0.404-1.002c0.194-0.441,0.221-0.906,0.221-0.906s0.088-0.078,0.174-0.105
		c0.085-0.029,0.217-0.14,0.396-0.302c0.179-0.164,0.158-0.613,0.147-0.836c-0.013-0.224,0.023-0.746,0.089-0.876
		c0.064-0.13,0.217-0.449,0.212-0.514c-0.004-0.065-0.062-0.211-0.062-0.211s0.025,0.053,0.074,0.081
		c0.048,0.029,0.121,0.037,0.121,0.037s-0.098-0.142-0.109-0.346s0.004-0.273-0.065-0.363c-0.069-0.089-0.072-0.265-0.072-0.265
		s0.028,0.09,0.068,0.135c0.041,0.045,0.094,0.09,0.094,0.09s-0.044-0.07-0.057-0.208s0.013-0.175,0.053-0.261
		c0.041-0.085,0.016-0.146,0-0.236c-0.017-0.089-0.077-0.269-0.077-0.269s0.045,0.105,0.109,0.138s0.122,0.024,0.122,0.024
		s-0.044-0.008-0.089-0.065c-0.045-0.057-0.004-0.114-0.033-0.232c-0.028-0.119-0.049-0.208-0.057-0.252s-0.065-0.215-0.065-0.215
		s0.061,0.077,0.09,0.117c0.029,0.042,0.053,0.15,0.053,0.15s0.036-0.15,0.013-0.301c-0.024-0.152-0.013-0.103-0.078-0.224
		c-0.064-0.123-0.044-0.236-0.044-0.236s0.024,0.093,0.068,0.158c0.045,0.065,0.111,0.118,0.111,0.118s-0.021-0.028-0.041-0.102
		c-0.021-0.074-0.029-0.107-0.021-0.257c0.008-0.15-0.016-0.212-0.07-0.265c-0.052-0.053-0.133-0.138-0.133-0.138
		s0.061,0.037,0.121,0.041c0.062,0.005,0.147-0.008,0.147-0.008s-0.14-0.033-0.204-0.095c-0.064-0.061-0.09-0.24-0.09-0.24
		s0.033,0.103,0.086,0.135c0.052,0.033,0.134,0.053,0.134,0.053s-0.058-0.045-0.09-0.102c-0.032-0.057,0.013-0.139,0.008-0.289
		c-0.003-0.152-0.02-0.167-0.052-0.208c-0.033-0.042-0.213-0.086-0.213-0.086s0.074-0.025,0.147-0.008
		c0.073,0.017,0.134,0.094,0.134,0.094s-0.061-0.114-0.117-0.171c-0.059-0.058-0.192-0.058-0.192-0.058s0.127-0.011,0.2,0.005
		c0.073,0.017,0.146,0.07,0.146,0.07s-0.09-0.151-0.146-0.184c-0.039-0.022-0.177-0.037-0.258-0.044
		c-0.04-0.001-0.064-0.005-0.064-0.005s0.028,0.002,0.064,0.005c0.038,0.001,0.09-0.001,0.151-0.013
		c0.127-0.024,0.143-0.086,0.143-0.086s-0.106,0.037-0.167,0.037c-0.062,0-0.285-0.089-0.285-0.089s0.192,0.037,0.346-0.012
		c0.155-0.049,0.168-0.103,0.168-0.103s-0.053,0.028-0.131,0.028c-0.077,0-0.077-0.032-0.175-0.064s-0.437-0.053-0.437-0.053
		s0.126,0.008,0.266-0.012c0.139-0.021,0.143-0.102,0.143-0.102s-0.041,0.02-0.103,0.028c-0.061,0.008-0.094-0.033-0.19-0.049
		c-0.099-0.016-0.277-0.008-0.277-0.008s0.068-0.074,0.176-0.081c0.104-0.009,0.146,0.032,0.146,0.032s-0.061-0.061-0.118-0.085
		c-0.058-0.025-0.272,0.044-0.272,0.044s0.171-0.114,0.31-0.09c0.068,0.013,0.102,0.032,0.118,0.05
		c-0.018-0.034-0.047-0.086-0.073-0.111c-0.042-0.035-0.062-0.035-0.196-0.057c-0.135-0.021-0.202-0.159-0.202-0.159
		s0.1,0.064,0.161,0.078c0.061,0.011,0.163,0.007,0.163,0.007s-0.089-0.015-0.158-0.068c-0.069-0.054-0.062-0.123-0.166-0.168
		c-0.072-0.03-0.202-0.05-0.284-0.06c-0.042-0.004-0.076-0.009-0.076-0.009s0.034,0.004,0.076,0.009
		c0.034,0.004,0.075,0.007,0.107,0.007c0.068,0,0.163-0.065,0.163-0.065s-0.098,0.007-0.248-0.025
		c-0.152-0.032-0.078-0.072-0.245-0.097c-0.073-0.011-0.134-0.007-0.183,0c-0.002,0.001-0.002,0.003-0.006,0.004
		c-0.053,0.016-0.097,0.021-0.097,0.021s0.04-0.015,0.103-0.024c0.047-0.02,0.061-0.069,0.061-0.069s-0.082,0.037-0.175,0.028
		c-0.094-0.009-0.14-0.078-0.14-0.078s0.107,0.028,0.217,0.028c0.11,0,0.122-0.04,0.122-0.04s-0.082-0.004-0.167-0.037
		s-0.09-0.098-0.253-0.074c-0.164,0.025-0.351,0.147-0.351,0.147s0.187-0.179,0.22-0.297c0.033-0.118,0.029-0.237,0.029-0.237
		s-0.118,0.147-0.2,0.208c-0.081,0.061-0.216,0.029-0.216,0.029s0.081-0.044,0.139-0.086c0.058-0.041,0.098-0.126,0.098-0.126
		s-0.139,0.042-0.249,0.042s-0.224-0.061-0.224-0.061s0.094-0.021,0.146-0.013s0.123,0.037,0.123,0.037s-0.057-0.065-0.176-0.103
		c-0.118-0.036-0.17-0.011-0.261-0.011c-0.09,0-0.231-0.062-0.231-0.062s0.088,0.017,0.153,0.017c0.066,0,0.147-0.033,0.147-0.033
		s-0.135-0.004-0.229-0.065c-0.092-0.062-0.219-0.11-0.358-0.057c-0.102,0.039-0.108,0.095-0.104,0.122
		c-0.005-0.016-0.01-0.044-0.013-0.084c-0.004-0.058,0.032-0.127,0.032-0.127s-0.05,0.056-0.07,0.093
		c-0.019,0.036-0.048,0.143-0.048,0.143s-0.036-0.109-0.081-0.175s-0.156-0.11-0.156-0.11s0.082,0.068,0.123,0.126
		c0.041,0.058,0.033,0.176,0.033,0.176s-0.095-0.176-0.146-0.233c-0.054-0.056-0.245-0.096-0.245-0.096s0.11,0.064,0.158,0.102
		c0.05,0.037,0.119,0.203,0.119,0.203s-0.114-0.134-0.236-0.211c-0.122-0.078-0.367-0.123-0.367-0.123s0.11,0.094,0.18,0.192
		c0.069,0.097,0.086,0.208,0.086,0.208l-0.118-0.02c0,0-0.127-0.049-0.225-0.11c-0.099-0.061-0.273-0.061-0.273-0.061
		s0.106,0.07,0.172,0.135c0.064,0.064,0.064,0.146,0.064,0.146s-0.041-0.032-0.094-0.073s-0.208-0.044-0.334-0.085
		c-0.126-0.042-0.191-0.082-0.191-0.082s0.072,0.098,0.154,0.131c0.082,0.033,0.118,0.126,0.099,0.106
		c-0.021-0.021-0.123-0.037-0.191-0.049c-0.07-0.013-0.181-0.046-0.181-0.046s0.058,0.09,0.181,0.103
		c0.122,0.012,0.125,0.083,0.125,0.083s-0.081-0.005-0.212-0.029c-0.129-0.024-0.182,0.041-0.236,0.044
		c-0.053,0.003-0.309,0.024-0.387,0.017c-0.077-0.008-0.269-0.008-0.269-0.008s0.049,0.032,0.09,0.04
		c0.041,0.009,0.17,0.042,0.146,0.045c-0.023,0.004-0.122-0.004-0.235,0c-0.114,0.004-0.233,0.089-0.233,0.089s0.082,0,0.152,0.009
		c0.068,0.009,0.203,0.012,0.203,0.012s-0.046,0.062-0.139,0.094c-0.094,0.033-0.217,0.049-0.318,0.073
		c-0.102,0.025-0.26,0.038-0.26,0.038s0.065,0.024,0.134,0.024c0.069,0,0.176-0.016,0.176-0.016s-0.054,0.033-0.143,0.057
		c-0.09,0.024-0.273,0.057-0.375,0.052c-0.103-0.003-0.2-0.044-0.2-0.044s0.077,0.09,0.134,0.126
		c0.058,0.037,0.086,0.041,0.086,0.041s-0.024,0.013-0.069,0.033c-0.045,0.021-0.108,0.033-0.179,0.042
		c-0.069,0.007-0.204,0.102-0.204,0.102s0.041-0.017,0.069-0.024c0.029-0.007,0.171-0.004,0.171-0.004s-0.041,0-0.089,0.021
		c-0.05,0.02-0.168,0.089-0.249,0.164c-0.082,0.072-0.199,0.162-0.216,0.187s-0.172,0.086-0.302,0.134
		c-0.13,0.049-0.391,0.221-0.391,0.221s0.112-0.037,0.171-0.053c0.057-0.017,0.183,0.021,0.183,0.021s-0.183,0.281-0.322,0.391
		c-0.138,0.11-0.208,0.216-0.208,0.216s0.07,0.021,0.143-0.024c0.074-0.045,0.2-0.11,0.2-0.11s-0.081,0.134-0.109,0.195
		c-0.029,0.061-0.036,0.171-0.074,0.269c-0.036,0.098-0.117,0.232-0.183,0.335c-0.065,0.1-0.065,0.28-0.065,0.28
		s0.032-0.078,0.061-0.114c0.028-0.037,0.099-0.098,0.099-0.098s-0.094,0.179-0.155,0.359c-0.062,0.179-0.053,0.301-0.062,0.407
		c-0.007,0.106-0.048,0.298-0.085,0.396c-0.037,0.098-0.135,0.201-0.135,0.201s0.041-0.021,0.081-0.053
		c0.041-0.033,0.086-0.037,0.086-0.037s-0.065,0.221-0.106,0.326c-0.04,0.105-0.121,0.204-0.121,0.204s0.049-0.049,0.097-0.073
		c0.049-0.025,0.115-0.033,0.115-0.033s-0.107,0.146-0.147,0.292c-0.041,0.147-0.097,0.253-0.097,0.253s0.024-0.042,0.089-0.082
		s0.064-0.131,0.064-0.131s0.009,0.14,0,0.213c-0.007,0.074-0.024,0.195-0.024,0.195s-0.456,0-0.48,0.489
		c-0.012,0.236,0.114,0.261,0.139,0.824c0.024,0.562-0.049,1.125,0.024,1.328c0.073,0.204,0.294,0.407,0.448,0.48
		c0.155,0.074,0.416,0.008,0.416,0.008s0.032,0.213,0.041,0.327c0.008,0.114,0.09,0.856,0.105,1.1
		c0.017,0.245,0.114,0.725,0.114,0.725s-0.106-0.008-0.244,0.049c-0.139,0.057-0.302,0.408-0.343,0.449
		c-0.041,0.041-0.172,0.122-0.359,0.154c-0.187,0.033-0.455,0.212-0.545,0.277c-0.091,0.066-0.287,0.18-0.587,0.285
		c-0.303,0.106-1.639,0.521-1.973,0.587c-0.335,0.065-1.044,0.333-1.525,0.497c-0.481,0.163-1.549,0.823-1.67,0.888
		c-0.123,0.066-0.213,0.196-0.238,0.383c-0.024,0.188-0.17,0.195-0.17,0.195s-0.237,0.042-0.432,0.213
		c-0.196,0.17-0.303,0.326-0.498,0.44c-0.196,0.114-0.506,0.407-1.167,0.953c-0.66,0.546-1.573,1.411-1.736,1.574
		c-0.163,0.163-0.488,0.595-0.57,0.677c-0.082,0.081-0.22,0.22-0.261,0.367c-0.041,0.147-0.285,0.269-0.383,0.293
		c-0.098,0.025-0.253,0.009-0.391,0.132c-0.139,0.121-0.318,0.375-0.392,0.439s-0.351,0.221-0.668,0.424
		c-0.318,0.204-0.84,0.539-1.264,0.873c-0.424,0.333-0.839,0.538-0.839,0.538s0.065,0.131,0.098,0.146
		c0.033,0.018-0.66,0.458-1.712,0.954c-1.051,0.498-2.543,1.387-3.741,2.356c-1.199,0.97-3.938,3.268-5.258,4.378
		c-1.32,1.107-2.829,2.29-3.644,2.794c-0.815,0.506-1.541,0.931-1.728,1.199c-0.188,0.27-0.253,0.897-0.244,1.353
		c0.007,0.457-0.164,1.305-0.074,1.508c0.09,0.204,0.571,0.465,0.718,0.677c0.146,0.212,0.456,0.286,0.66,0.326
		c0.204,0.041,0.374-0.057,0.473-0.196c0.097-0.137-0.367-0.481-0.391-0.553c-0.024-0.073,0.448-0.057,0.758-0.155
		c0.31-0.099,0.807-0.343,0.979-0.482c0.171-0.138,0.204-0.726,0.163-0.985c-0.041-0.262,0.089-0.212,0.309-0.326
		c0.221-0.114,0.792-0.522,0.987-0.783c0.196-0.261,0.375-0.839,0.684-1.288c0.311-0.448,1.321-0.799,2.52-1.419
		c1.198-0.619,3.073-1.467,4.141-1.923c1.068-0.457,2.323-1.687,2.861-2.046c0.538-0.358,1.288-0.994,1.443-1.06
		c0.155-0.065,0.929-0.146,1.419-0.326c0.488-0.179,1.377-0.464,1.377-0.464s0.082,0.057,0.44,0.261
		c0.358,0.203,0.701,0.367,0.987,0.374c0.285,0.009,0.358-0.489,0.7-0.888c0.343-0.399,0.686-0.538,1.402-0.718
		c0.718-0.179,1.769-0.22,2.087-0.179c0.318,0.041,0.334,0.921,0.407,1.295c0.074,0.376,0.294,0.719,0.318,1.142
		c0.024,0.425-0.269,0.383-0.293,0.522c-0.025,0.139,0.049,0.457,0.057,0.751c0.007,0.293-0.229,0.317-0.229,0.317
		s-0.146,0.229-0.179,0.35c-0.033,0.124-0.09,0.22-0.237,0.457c-0.146,0.237-0.473,0.53-0.644,0.725
		c-0.171,0.196-0.187,0.293-0.252,0.686c-0.065,0.392-0.22,1.182-0.253,1.337c-0.032,0.154-0.032,0.211-0.098,0.415
		c-0.064,0.205-0.188,0.734-0.318,1.077c-0.13,0.342-0.334,0.815-0.546,1.182c-0.212,0.368-0.156,0.652-0.245,0.93
		c-0.09,0.276-0.301,0.512-0.448,0.888c-0.146,0.375-0.13,0.677-0.31,1.125c-0.179,0.449-0.408,1.019-0.554,1.272
		c-0.147,0.253-0.302,0.757-0.302,0.897c0,0.138-0.082,0.195-0.269,0.545c-0.188,0.351-0.262,0.44-0.277,0.555
		c-0.017,0.114-0.098,0.033-0.416,0.123c-0.317,0.089-0.521,0.359-0.579,0.423c-0.057,0.065-0.057,0.058-0.212,0.244
		c-0.154,0.188-0.333,0.416-0.579,0.76c-0.244,0.342-0.611,0.847-0.709,1.026c-0.098,0.179,0.041,0.414-0.236,0.928
		c-0.277,0.515-0.351,0.629-0.684,1.167c-0.334,0.538-0.375,1.206-0.383,1.41c-0.009,0.203-0.18,0.603-0.213,0.685
		c-0.032,0.082,0,0.293-0.114,0.538c-0.114,0.243-0.081,0.538-0.09,0.75c-0.007,0.213-0.073,0.155-0.211,0.496
		c-0.14,0.343-0.034,0.809-0.034,0.809s-0.252-0.253-0.416-0.4c-0.163-0.146-0.097-0.016-0.244-0.049s-0.473-0.392-1.125-0.782
		c-0.652-0.391-1.369-0.562-1.842-0.635c-0.473-0.074-1.321,0-1.972,0.04c-0.652,0.041-1.426,0.015-2.113-0.024
		c-0.684-0.042-1.809,0.09-2.2,0.131c-0.391,0.041-1.32,0.089-1.679-0.024c-0.359-0.115-0.245-0.025-0.562,0
		c-0.318,0.024-0.644-0.082-0.783-0.122c-0.138-0.042-0.155-0.018-0.383,0.048c-0.229,0.064-0.424-0.058-0.579-0.163
		c-0.154-0.105-0.041-0.399-0.212-0.75c-0.171-0.351-0.407-0.399-0.847-0.611s-0.644-0.099-0.62-0.253
		c0.025-0.154-0.032-0.203-0.163-0.318c-0.13-0.113-0.276-0.121-0.521-0.081c-0.244,0.042-0.399,0.278-0.628,0.213
		c-0.228-0.066-0.424-0.066-0.578-0.066c-0.156,0-0.44,0.384-0.562,0.514c-0.122,0.131-0.163-0.049-0.31-0.065
		c-0.146-0.015-0.603,0.295-0.684,0.416c-0.082,0.122-0.188,0.073-0.269,0.058c-0.082-0.017-0.188,0.072-0.351,0.261
		s-0.88,0.253-1.043,0.253s-0.131-0.106-0.285-0.253c-0.155-0.147-0.677,0.162-0.954,0.27c-0.278,0.105-1.134,0.668-1.248,0.718
		c-0.114,0.048-0.26-0.164-0.407-0.197c-0.146-0.032-0.424,0.254-0.481,0.343c-0.057,0.09,0.032,0.351-0.041,0.433
		c-0.073,0.081-0.554,0.595-0.684,0.676c-0.131,0.081-0.138-0.163-0.301-0.18c-0.163-0.016-0.416,0.336-0.433,0.571
		c-0.016,0.235,0.008,0.864-0.065,0.971c-0.074,0.105-0.114-0.009-0.204-0.147c-0.09-0.138-0.147-0.195-0.261-0.146
		s-0.146,0.171-0.097,0.497c0.049,0.327-0.065,0.896-0.057,1.02c0.009,0.122,0.04,0.17,0.285,0.383
		c0.245,0.212,0.57,0.326,0.961,0.357c0.392,0.033,1.452-0.204,2.096-0.193c0.644,0.007,2.307-0.336,3.056-0.377
		c0.75-0.041,1.786-0.072,2.527-0.081c0.742-0.008,1.386-0.016,1.858,0.162c0.474,0.181,1.142,0.058,1.712-0.015
		c0.57-0.074,0.326-0.074,0.513,0.041c0.188,0.113,0.106,0.146,0.31,0.27c0.204,0.122,0.839,0.292,1.166,0.374
		c0.326,0.081,1.809,0.529,2.331,0.7c0.521,0.172,1.312,0.457,1.532,0.58c0.221,0.121,0.327,0.064,0.766,0.146
		c0.44,0.08,0.734,0.236,0.929,0.333c0.196,0.099,0.334,0,0.693,0.009c0.358,0.007,0.611,0.09,0.84,0.228
		c0.228,0.139,0.872,0.335,0.986,0.375c0.114,0.041,0.106,0.091,0.22,0.244c0.114,0.156,0.497,0.204,0.652,0.312
		c0.154,0.105,0.229,0.138,0.562,0.219c0.334,0.082,0.489,0.14,0.539,0.188c0.048,0.049,0.13,0.211,0.309,0.327
		c0.179,0.112,0.286,0.007,0.286,0.007s0.718,0.13,0.93,0.252c0.211,0.122,0.408,0.253,0.798,0.351
		c0.392,0.099,1.296,0.163,1.565,0.302c0.269,0.14,0.937,0.285,1.459,0.376c0.521,0.09,1.06-0.025,1.671-0.393
		c0.612-0.367,0.839-0.854,1.067-1.237c0.228-0.385,0.66-1.102,1.06-1.42c0.399-0.317,0.742-0.88,0.896-1.067
		c0.154-0.187,0.472-0.604,0.579-0.691c0.105-0.091,0.164-0.368,0.392-0.612c0.228-0.245,0.498-0.432,1.124-0.669
		c0.628-0.235,1.892-1.044,1.892-1.044s0.064,0.375,0.146,0.694c0.081,0.317,0.196,0.505,0.334,0.848
		c0.139,0.342,0.407,0.904,0.473,1.026c0.064,0.123,0.073,0.416,0.098,0.571c0.024,0.154,0.237,0.251,0.344,0.586
		c0.105,0.335,0.203,0.652,0.194,0.831c-0.008,0.18,0.049,0.433,0.236,0.979c0.188,0.547,0.305,0.676,0.341,0.878
		c0.036,0.201,0.104,0.715,0.25,0.869c0.146,0.151,0.282,0.091,0.667,0c0.385-0.093,1.877-0.483,2.391-0.612
		c0.513-0.127,1.021-0.183,1.076-0.073c0.054,0.111,0.165,0.508,0.128,0.644c-0.037,0.133-0.074,0.116-0.201,0.158
		c-0.129,0.043-0.227,0.287-0.25,0.379c-0.026,0.093-0.099,0.018-0.221,0.141c-0.123,0.122-0.355,0.292-0.562,0.36
		c-0.208,0.067-0.49,0.152-0.581,0.274c-0.093,0.123-0.312,0.093-0.343,0.221c-0.03,0.128-0.141,0.093-0.135,0.171
		c0.007,0.08,0.007,0.093-0.109,0.233c-0.117,0.14-0.765,0.63-1.175,0.837c-0.41,0.208-0.959,0.575-1.117,0.654
		c-0.16,0.079-0.398,0.213-0.874,0.605c-0.479,0.391-0.562,0.605-0.778,1.015c-0.213,0.409-0.679,1.168-1.301,1.822
		c-0.625,0.654-2.184,1.986-2.3,2.065c-0.116,0.079-0.116,0.049-0.312,0.056c-0.195,0.006-0.36,0.264-0.483,0.361
		c-0.122,0.098-0.184,0.035-0.329,0.208c-0.147,0.171-1.29,1.473-1.914,2.041c-0.624,0.569-2.061,1.626-2.061,1.626
		s-0.263-0.195-0.391-0.189s-0.085,0.221-0.116,0.38c-0.031,0.157-0.33,0.477-0.648,0.922c-0.318,0.447-0.336,0.759-0.379,1.003
		c-0.043,0.245-0.104,0.954-0.066,1.095c0.036,0.142,0.115,0.489,0.152,0.63c0.036,0.142,0.085,0.312,0.085,0.312
		s0.03-0.093,0.037-0.16c0.005-0.066,0.06-0.207,0.06-0.207s0.019,0.329,0.061,0.452c0.044,0.122,0.08-0.03,0.08-0.056
		c0-0.023,0.042-0.141,0.049-0.208c0.006-0.066,0.048-0.245,0.048-0.245s-0.012,0.08,0,0.179c0.013,0.098,0.081,0.227,0.081,0.227
		s-0.006-0.185,0.012-0.27c0.018-0.086,0.067-0.221,0.067-0.221s0.006,0.165,0.086,0.33s0.189,0.245,0.189,0.245
		s0.037-0.135,0.037-0.185c0-0.048,0.03-0.226,0.03-0.226s0,0.104,0.012,0.159c0.013,0.056,0.074,0.142,0.074,0.142
		s-0.013-0.215-0.006-0.245c0.006-0.031,0.061-0.165,0.061-0.165s0.019,0.208,0.049,0.293c0.03,0.086,0.14,0.104,0.14,0.104
		s0.013-0.129,0.037-0.232c0.024-0.104,0.062-0.158,0.062-0.158s0.024,0.158,0.048,0.286s0.08,0.146,0.08,0.146
		s0.116,0.043,0.177-0.071c0.062-0.118-0.019-0.245-0.019-0.245s0.043,0.066,0.049,0.127c0.006,0.062,0.025,0.232,0.025,0.232
		s0.031-0.098,0.061-0.208c0.03-0.109-0.018-0.201-0.018-0.201s0.067,0.098,0.079,0.209c0.012,0.108,0.031,0.165,0.031,0.165
		s0.025-0.075,0.049-0.179c0.025-0.104,0-0.159,0-0.159s0.073,0.109,0.073,0.239c0,0.128,0.073,0.079,0.073,0.079
		s0.013-0.116,0-0.164c-0.011-0.05,0.006-0.238,0.006-0.238s0.037,0.14,0.068,0.201c0.03,0.061,0.116,0.237,0.116,0.237
		s-0.006-0.158-0.018-0.219c-0.013-0.062-0.074-0.19-0.074-0.19s0.122,0.141,0.172,0.209c0.048,0.066,0.127,0.184,0.127,0.184
		s-0.025-0.142-0.061-0.229c-0.037-0.085-0.079-0.2-0.079-0.2s0.092,0.146,0.189,0.213c0.098,0.067,0.245,0.147,0.245,0.147
		s-0.177-0.27-0.22-0.33s-0.153-0.275-0.153-0.275s0.22,0.208,0.336,0.318c0.116,0.11,0.281,0.299,0.281,0.299
		s-0.042-0.183-0.042-0.244c0-0.061-0.019-0.226-0.019-0.226s0.055,0.104,0.073,0.202c0.019,0.096,0.091,0.183,0.091,0.183
		l-0.012-0.159l-0.067-0.231c0,0,0.104,0.151,0.128,0.231s0.091,0.208,0.091,0.208s0.025-0.091,0.025-0.159
		c0-0.066-0.025-0.251-0.025-0.251s0.068,0.104,0.092,0.221c0.025,0.117,0.043,0.203,0.043,0.203s0.043-0.123,0.048-0.154
		c0.006-0.03-0.012-0.245-0.012-0.245s0.098,0.313,0.085,0.403c-0.012,0.092,0.141,0.043,0.141,0.043s0.061-0.122,0.054-0.178
		c-0.007-0.073,0.105,0.239,0.105,0.239s-0.012-0.074-0.025-0.146c-0.012-0.073-0.042-0.233-0.036-0.257
		c0.006-0.024,0.067,0.135,0.171,0.201c0.104,0.067,0.128,0.086,0.128,0.086s0-0.165,0-0.208s0.024-0.237,0.037-0.281
		c0.012-0.043,0.006,0.087,0.019,0.166c0.011,0.077,0.109,0.269,0.109,0.269s-0.024-0.183-0.031-0.244
		c-0.006-0.062,0.014-0.288,0.02-0.324c0.005-0.037,0.018,0.128,0.036,0.202c0.018,0.072,0.14,0.256,0.14,0.256
		s-0.048-0.227-0.048-0.317c0-0.092-0.025-0.263-0.031-0.3c-0.006-0.037,0.104,0.171,0.139,0.337
		c0.038,0.164,0.086,0.349,0.086,0.349s-0.025-0.264,0.006-0.367c0.031-0.105,0.129-0.307,0.129-0.307s-0.032,0.238-0.006,0.392
		c0.023,0.152,0.109,0.336,0.091,0.293c-0.018-0.043,0.098-0.226,0.184-0.33c0.085-0.104,0.166-0.366,0.166-0.392
		c0-0.023,0.017,0.19-0.043,0.368c-0.061,0.176-0.091,0.269-0.091,0.269l0.159-0.11c0,0-0.044,0.093-0.083,0.172
		c-0.028,0.06-0.052,0.109-0.052,0.109l0.22,0.037c0,0,0.122-0.037,0.122-0.123c0-0.085-0.011-0.343-0.011-0.343l0.122,0.429
		c0,0-0.012-0.231-0.024-0.392s0.036-0.488,0.036-0.488s0.037,0.317,0.049,0.403c0.012,0.085,0.11,0.293,0.11,0.293
		s-0.011-0.195,0.024-0.27c0.037-0.072,0.074,0.136,0.111,0.233c0.036,0.097,0.073-0.037,0.109-0.122
		c0.038-0.087,0.123-0.122,0.172-0.061c0.049,0.061,0.011,0.279,0.085,0.316c0.073,0.037,0.159,0.086,0.221,0.061
		c0.061-0.023,0-0.133,0-0.269c0-0.135,0.109-0.023,0.109,0.062c0,0.085,0.135,0.243,0.148,0.158c0.011-0.085,0.047-0.11,0.134-0.11
		c0.085,0,0.036-0.073,0.036-0.147c0-0.071,0.062-0.108,0.085-0.061c0.024,0.05,0.086,0.061,0.099-0.011
		c0.012-0.074,0.134,0.156,0.134,0.156s0.171-0.011,0.244,0.015c0.074,0.023,0.293,0.17,0.293,0.17s0.049-0.072,0.074-0.158
		c0.023-0.086,0.086-0.074,0.123-0.012c0.036,0.061,0.048,0.183,0.097,0.206c0.048,0.025,0.195,0.014,0.195,0.014s0-0.234,0-0.367
		c0-0.135,0.111,0,0.135,0.11c0.024,0.11,0.062,0.158,0.111,0.22c0.049,0.061,0.097,0.049,0.134,0
		c0.037-0.048,0.146-0.085,0.219-0.085c0.074,0,0.086-0.098,0.123-0.172c0.037-0.073,0.098,0.049,0.171,0.122
		c0.073,0.073,0.183,0.073,0.354,0.135c0.171,0.061,0.318,0.281,0.306,0.158c-0.011-0.121,0.097,0.013,0.097,0.013
		s0.111,0.05,0.134-0.023c0.026-0.074,0.026-0.27,0.026-0.393c0-0.122,0.097,0.294,0.097,0.294s0.098-0.062,0.122-0.123
		c0.025-0.061,0.086,0.21,0.086,0.21l0.232,0.269c0,0,0.073-0.136,0.122-0.221s0.049-0.343,0.049-0.343l0.098,0.367
		c0,0,0.049-0.05,0.049-0.122c0-0.073,0.098,0.085,0.11,0.183c0.012,0.098,0.123,0.146,0.185,0.111
		c0.061-0.037,0.048-0.062,0.036-0.196c-0.013-0.135,0.048-0.025,0.097,0.037c0.05,0.061,0.062,0.184,0.122,0.208
		c0.062,0.024,0.087-0.122,0.159-0.258c0.074-0.134-0.024-0.33-0.024-0.33s0.185,0.38,0.171,0.466
		c-0.011,0.085,0.123,0.122,0.172,0.108c0.049-0.011,0.086-0.146,0.098-0.268c0.013-0.124,0.05,0.011,0.073,0.073
		c0.024,0.061,0.135,0.232,0.135,0.232s0.037-0.159,0.062-0.257s0.159-0.196,0.159-0.196s0.036,0.061,0.012,0.184
		s0.061,0.281,0.099,0.33c0.036,0.05,0.22,0.073,0.243,0.024c0.024-0.049-0.012-0.306-0.012-0.306s0.196,0.294,0.269,0.379
		c0.074,0.086,0.343,0,0.343-0.073s0.122-0.28,0.146-0.354c0.025-0.074,0.184,0.146,0.233,0.245
		c0.048,0.098,0.183,0.171,0.159,0.109c-0.025-0.062,0.048-0.28,0.048-0.33s0.098,0.122,0.258,0.269
		c0.158,0.147,0.33,0.11,0.391,0.135c0.062,0.024,0.207-0.109,0.307-0.171c0.097-0.061,0.342-0.232,0.391-0.22
		c0.048,0.012-0.196,0.22-0.171,0.354c0.023,0.136,0.158-0.098,0.244-0.17c0.027-0.023,0.062-0.041,0.098-0.056
		c-0.056-0.05-0.102-0.114-0.062-0.144c0.087-0.062,0.049-0.024,0.147,0v-0.243c0,0,0.34-0.731-1.853-1.316
		c-2.192-0.584-3.947-2.436-3.751-2.534c0.195-0.096,0.585-0.535,0.585-0.535l0.097-0.438c1.607-0.538,5.558-4.016,5.558-4.016
		s0.146-0.294,0.33-0.478c0.184-0.183,0.514-0.562,0.795-0.733c0.28-0.171,0.733-0.488,0.819-0.574c0.084-0.085,0.084,0,0.243,0.037
		c0.16,0.036,0.245-0.086,0.466-0.147c0.22-0.061,0.379-0.22,0.452-0.403s0.062-0.269,0.244-0.526
		c0.184-0.256,0.123-0.294,0.343-0.428c0.221-0.134,0.146-0.208,0.416-0.428c0.269-0.22,0.317-0.231,0.476-0.392
		c0.159-0.158,0.196-0.391,0.196-0.391s0.111-0.146,0.404-0.453c0.293-0.306,0.672-0.709,0.941-0.917
		c0.269-0.207,0.525-0.427,0.965-0.807c0.44-0.378,0.526-0.66,0.637-0.978c0.11-0.318,0.195-0.685,0.208-1.542
		c0.012-0.854,0.037-1.185-0.05-2.029c-0.086-0.844-0.158-1.075-0.158-1.075s0.158-0.306,0.257-0.637
		c0.098-0.329,0.098-0.342,0.062-0.758c-0.038-0.416,0.023-0.477-0.086-0.831c-0.11-0.354-0.221-1.051-0.245-1.248
		c-0.024-0.194-0.109-0.708-0.171-1.051c-0.061-0.343-0.147-0.294-0.27-0.428c-0.122-0.136-0.146-0.318-0.257-0.624
		c-0.109-0.306-0.354-0.819-0.55-1.014c-0.196-0.196-0.269-0.367-0.354-0.809c-0.086-0.439-0.342-0.758-0.575-0.917
		c-0.231-0.158-0.231-0.379-0.403-0.525c-0.171-0.146,0.012-0.318-0.024-0.513c-0.035-0.196-0.184-0.185-0.256-0.355
		c-0.074-0.171-0.037-0.231-0.196-0.329c-0.159-0.099-0.269-0.16-0.221-0.281c0.05-0.123,0.184-0.209,0.172-0.318
		c-0.012-0.11-0.074-0.16-0.074-0.16s-0.098-0.244-0.135-0.329c-0.036-0.085,0-0.307-0.121-0.55
		c-0.122-0.245-0.122-0.171-0.036-0.366c0.085-0.196,0.221-0.184,0.157-0.516c-0.06-0.329-0.121-0.366-0.292-0.549
		c-0.171-0.184,0.306-0.147,0.391-0.294c0.085-0.147-0.135-0.268-0.317-0.354c-0.184-0.085,0-0.342,0.122-0.697
		c0.122-0.354,0.012-0.391,0.097-0.66c0.087-0.27,0.295-0.819,0.587-1.26c0.295-0.44,0.417-1.173,0.453-1.369
		c0.037-0.195,0.122-0.453,0.135-0.906c0.013-0.453-0.074-0.256,0-0.562c0.073-0.306,0.257-0.489,0.391-0.697
		c0.135-0.207,0.196-0.415,0.135-1.038c-0.061-0.624,0.037-1.321,0.037-1.822c0-0.501,0.159-1.48,0.208-1.933
		c0.049-0.452,0.184-0.807,0.33-1.492c0.146-0.684,0.318-1.223,0.415-1.711c0.098-0.49,0.905-2.03,0.942-2.091
		c0.036-0.062,0.231-0.233,0.429-0.172c0.194,0.062,0.341,0.331,0.586,0.624c0.244,0.293,1.211,1.553,1.858,2.189
		c0.648,0.635,3.631,3.228,4.5,3.863c0.868,0.636,2.629,1.834,3.447,2.457c0.819,0.625,1.407,1.296,1.517,1.505
		c0.11,0.208,0.331,0.77,0.502,1.063c0.171,0.294,0.464,0.527,0.855,0.807c0.391,0.281,1.173,0.71,1.455,0.893
		c0.281,0.183,0.257,0.342,0.391,0.538c0.135,0.196,0.404,0.832,0.587,1.113c0.184,0.28,0.429,0.501,0.636,0.428
		c0.208-0.074,0.245-0.268,0.221-0.428s-0.514-1.333-0.611-1.541c-0.099-0.208-0.024-0.184,0.086-0.16
		c0.109,0.025,0.294,0.099,0.294,0.099s0.231,0.574,0.463,0.965c0.233,0.392,0.808,1.676,0.906,1.786
		c0.098,0.109,0.269,0.183,0.269,0.183s0.343,0.355,0.647,0.197c0.306-0.16,0.208-0.795,0.208-0.795s0.232,0.123,0.477,0.037
		c0.245-0.085,0.209-0.22,0.258-0.477C83.721,49.152,83.587,48.773,83.404,48.247z"/>
	<circle fill-rule="evenodd" clip-rule="evenodd" cx="63.258" cy="80.702" r="5.652"/>
</g>
</svg>
