<?xml version="1.0" encoding="utf-8"?>
<!-- Generator: Adobe Illustrator 15.0.2, SVG Export Plug-In . SVG Version: 6.00 Build 0)  -->
<!DOCTYPE svg PUBLIC "-//W3C//DTD SVG 1.1//EN" "http://www.w3.org/Graphics/SVG/1.1/DTD/svg11.dtd">
<svg version="1.1" id="Ebene_1" xmlns="http://www.w3.org/2000/svg" xmlns:xlink="http://www.w3.org/1999/xlink" x="0px" y="0px"
	 width="100px" height="100px" viewBox="0 0 100 100" enable-background="new 0 0 100 100" xml:space="preserve">
<circle fill="#B2B2B2" cx="50" cy="50" r="50"/>
<path d="M87.052,30.364c-1.526-0.792-3.23-1.18-3.314-1.245c-1.449-1.133-2.433-1.14-2.548-1.142
	c-1.556-0.034-8.509,0.871-8.509,0.871s-0.298-0.324-0.347-0.319c-0.048,0.004-0.178-0.008-0.143,0.045
	c0.038,0.054,0.126,0.316,0.013,0.332c-7.968,1.117-12.042,2.49-12.124,2.499c-5.016,0.571-5.715,0.83-5.906,0.78
	c-0.309-0.079-7.053-1.786-7.16-1.801c-0.107-0.016-0.7,0.049-0.765-0.006c-0.123-0.104-2.917-1.361-3.054-1.349
	c-0.081,0.008-1.279,0.035-1.16,0.134c0.552,0.455,1.495,1.739,1.784,1.698c0.289-0.042,1.629,0.587,1.629,0.587l0.458,0.042
	c0,0-0.428,0.119-0.2,0.132c0.23,0.012,2.829,1.288,2.814,1.289c-0.115,0.007-8.339,1.071-8.339,1.071s-0.084-0.232-0.214-0.221
	c-0.129,0.012-0.108,0.254-0.108,0.254s-0.436,0.031-0.727,0.064c-0.611,0.071-2.516-0.136-2.881-0.397
	c-0.267-0.191-10.892-6.701-11.168-6.887c-0.219-0.148-2.592,0.211-3.796,0.381c0.963,1.519,4.642,7.936,4.642,7.936
	c-1.127-0.063-2.511,0.115-2.624,0.125c-0.218,0.019,0.013,0.146,0.013,0.146s1.507,0.886,1.455,0.913
	c-0.132,0.069-0.161,0.49-0.161,0.49l-0.108,0.009l0.054,0.626l0.13-0.013c0.053,0.377,0.697,0.711,1.174,0.738
	c0.138,0.007,2.358,0.171,2.888,0.205c0.328,0.022,7.532,0.565,7.532,0.565L36.203,39.1c0.263,0.061,0.368-0.145,0.368-0.145
	c0.399,0.005,5.362,0.405,6.889,0.474c1.36,0.062,4.294-0.166,4.294-0.166l-0.022,0.206c0.185-0.017,0.314-0.232,0.314-0.232
	l2.109-0.227l0.018,0.374c0.103-0.018,0.314-0.403,0.314-0.403c0.062-0.013,0.442-0.039,0.442-0.039l0.031,0.348
	c0,0,0.271-0.049,0.391-0.002c0.116,0.046,2.136,0.235,2.136,0.235v0.113l-0.153,0.096l2.285-0.17l0.039,0.167l0.153-0.03
	l0.004,0.155c-0.482,0.521-0.514,0.631-0.493,0.767c0.057,0.353,0.212,0.437,0.394,0.501c0.142,0.054,0.207,0.042,0.335,0.019
	c0.294-0.05,0.574-0.496,0.574-0.496s0.135-0.076,0.162-0.015c0.07,0.156,0.188,0.15,0.333,0.173
	c0.099,0.018,0.214,0.002,0.327-0.052c0.124-0.06,0.739-0.659,0.712-0.964c-0.042-0.486-0.495-0.479-0.502-0.535
	c-0.015-0.169,0.566-0.594,0.566-0.594v-0.365l0.402-0.054l0.056,0.629c-0.155,0.023-0.338,0.876-0.327,0.989
	c0.009,0.112,0.034,0.575,0.034,0.575c-0.086,0.04-0.262,0.176-0.238,0.444c0.051,0.564,0.472,0.557,0.594,0.548
	c0.363-0.023,0.637-0.423,0.617-0.641c-0.01-0.12-0.038-0.293,0.019-0.26c0.137,0.077,0.246,0.036,0.399,0.022
	c0.211-0.019,0.523-0.429,0.507-0.622c-0.006-0.082-0.015-0.245-0.069-0.319c-0.132-0.184,0.046-0.233,0.224-0.249
	c0.313-0.028,0.469-0.488,0.551-0.471c0.084,0.018,1.382,0,1.382,0l0.038,0.232l-0.185,0.034l0.019,0.128
	c0,0,1.613-0.156,1.759-0.17c2.016-0.203,2.032-0.465,2.032-0.465l-0.022-1.372c0.232-0.021,3.929-0.719,3.929-0.719l-0.034,0.352
	c0.29-0.025,0.354-0.431,0.409-0.441c0.823-0.162,5.027-0.704,5.261-0.725c1.68-0.148,5.435-1.039,5.435-1.039l0.073,0.506
	l-0.326,0.371l0.023,0.16l0.404-0.018c0,0,0.182,0.585,0.119,0.598c-0.065,0.014-0.57,0.189-0.524,0.713
	c0.04,0.444,0.577,0.469,0.66,0.462c0.45-0.041,0.657-0.487,0.641-0.673c-0.022-0.243-0.248-0.323-0.219-0.429
	c0.08-0.292-0.231-0.875-0.231-0.875l0.115-0.083l-0.043-0.395l0.453-0.219l-0.057-0.426c3.551-1.134,4.744-2.169,5.004-2.392
	c0.445-0.381,0.655-0.594,0.625-0.933C87.699,30.706,87.18,30.432,87.052,30.364z"/>
<path d="M80.112,66.872l-0.046-0.211l-0.148,0.006V66.32h0.05l-0.05-0.207v-0.176h-0.051c-0.041-0.109-0.108-0.231-0.206-0.369
	l-0.066-0.094h-0.003c-0.075-0.098-0.149-0.183-0.2-0.238v-0.944c0,0-0.253-0.001-0.263-0.001v-1.197
	c0-0.311-0.032-0.567-0.062-0.739c0.218-0.1,0.271-0.319,0.162-0.644c-0.06-0.21-0.38-1.267-0.742-1.535l-0.133-0.099l-0.044,0.03
	l-0.003-0.013c-0.084-0.016-0.435-0.061-0.919-0.123c-1.192-0.155-3.188-0.416-4.063-0.595l-0.038-0.008l-0.182,0.023l0.004-0.064
	c-0.101-0.025-0.133-0.04-0.133-0.04c-0.291-0.17-5.75-2.814-8.844-3.851l-0.094-0.03l-0.01,0.006l-0.001-0.01
	c-0.559-0.184-1.006-0.299-1.329-0.345c-2.229-0.314-6.375-0.651-8.991-0.651c-2.695,0-7.51,0.192-9.773,0.621
	c-0.398,0.076-0.893,0.219-1.47,0.423l0,0.007l-0.007-0.004l-0.309,0.113l0,0.005l-0.005-0.003l-0.095,0.035
	c-3.445,1.312-8.51,4.224-9.834,5.472c-0.054-0.002-0.272-0.011-0.272-0.011s-0.085,0.043-0.103,0.051l-0.01-0.055
	c-0.22-0.007-0.485-0.013-0.732-0.013c-0.129,0-13.375,1.401-14.115,3.324h-0.002l-0.192,0.546h-0.266l-0.062,0.046
	c-0.064,0.049-0.112,0.111-0.147,0.201h-0.007l-0.092,0.383h0.005l-0.083,0.358H16.12l-0.025,0.176l-0.046,0.207h0.055
	c0.02,0.068,0.055,0.129,0.105,0.18l0.068,0.068h0.02c-0.024,0.013-0.054,0.03-0.089,0.05c-0.072,0.041-0.162,0.092-0.253,0.148
	l0.011,0.039l-0.071-0.002l-0.062,0.042c-0.24,0.161-0.387,0.311-0.458,0.465l-0.048,0.002v0.145l-0.067,0.241l0.067-0.003v1.461
	c0,0.131,0.039,0.33,0.25,0.449c-0.083,0.057-0.134,0.15-0.134,0.262c0,0.071,0.021,0.136,0.059,0.188
	c-0.073,0.076-0.114,0.18-0.114,0.29c0,0.129,0.055,0.248,0.151,0.325l0.063,0.052h0.146c-0.1,0.118-0.126,0.289-0.066,0.437
	c0.058,0.142,0.185,0.233,0.337,0.249c-0.01,0.035-0.013,0.068-0.013,0.097c0,0.771,5.672,1.053,6.68,1.095v0.007l0.383-0.001
	v-0.003l0.37-0.021c0.395-0.021,0.772-0.048,1.098-0.073c0.795,1.431,2.322,2.4,4.071,2.4c1.814,0,3.39-1.044,4.157-2.562
	c0.262,0.123,0.512,0.184,0.857,0.207v0.006l0.371,0.013v0.002l0.176-0.005h0.207v-0.007c0.396-0.024,1.032-0.104,1.754-0.194
	c1.042-0.13,2.224-0.277,2.889-0.277l18.767-0.077c0.575,0,1.2,0.183,1.702,0.328c0.269,0.079,0.507,0.149,0.701,0.18v0.02
	l0.177-0.002l0.206,0.012V72.5c0.109-0.01,0.187-0.029,0.248-0.063l0.121-0.064v-0.111h0.831c0.757,1.548,2.348,2.617,4.185,2.617
	c1.908,0,3.552-1.155,4.27-2.803h0.968c0.075,0.075,0.177,0.132,0.302,0.168v0.019l0.166,0.017l0.216,0.039v-0.026l0.195-0.005
	c0,0,0.089-0.055,0.108-0.067l0.017,0.057c0.08-0.007,0.165-0.016,0.256-0.027l-0.002,0.004l0.303-0.046
	c1.868-0.284,5.222-1.206,6.269-1.661l-0.009-0.053c0.013,0.001,0.105,0.011,0.105,0.011l0.062-0.032
	c0.34-0.176,0.349-0.597,0.29-0.878c0.155-0.28,0.414-0.852,0.561-1.511h0.003l0.028-0.162l0.045-0.221H80.1
	c0.021-0.168,0.034-0.332,0.034-0.488C80.134,67.095,80.126,66.982,80.112,66.872z"/>
</svg>
