<?xml version="1.0" encoding="utf-8"?>
<!-- Generator: Adobe Illustrator 15.0.2, SVG Export Plug-In . SVG Version: 6.00 Build 0)  -->
<!DOCTYPE svg PUBLIC "-//W3C//DTD SVG 1.1//EN" "http://www.w3.org/Graphics/SVG/1.1/DTD/svg11.dtd">
<svg version="1.1" id="Ebene_1" xmlns="http://www.w3.org/2000/svg" xmlns:xlink="http://www.w3.org/1999/xlink" x="0px" y="0px"
	 width="100px" height="100px" viewBox="0 0 100 100" enable-background="new 0 0 100 100" xml:space="preserve">
<circle fill="#B2B2B2" cx="50" cy="50" r="50"/>
<path stroke="#000000" stroke-width="0.2992" d="M76.741,49.222c0.07-0.076,0.08-0.144,0.028-0.204
	c-0.181,0.009-0.315,0.174-0.466-0.039c-0.103-0.142-0.184-0.303-0.373-0.328c-0.722-0.104-0.641,0.02-0.991-0.551
	c-0.065-0.103-0.017-0.521-0.067-0.561c-0.139-0.105-0.457,0.019-0.623-0.017c-0.251-0.055-0.292-0.402-0.202-0.601
	c0.087-0.193,0.245-0.05,0.331-0.143c0.03-0.031-0.163-0.223-0.217-0.222c-0.336,0.008-0.614,0.374-0.953,0.337
	c-0.538-0.058,0.914-0.775,0.854-0.662c0.14-0.257,0.075-0.481,0.361-0.673c0.224-0.15,0.809-0.339,0.821-0.673
	c0.018-0.454-1.798-0.286-1.404-0.846c0.218-0.309-0.291-0.499-0.509-0.536c-0.308-0.052-0.371,0.038-0.558,0.28
	c-0.232,0.301-0.467,0.604-0.783,0.822c-0.231,0.16-0.59,0.226-0.785,0.427c-0.201,0.204-0.931,1.057-1.026,0.448
	c-0.041-0.26-0.123-0.901-0.412-1.023c-0.076-0.033-0.654,0.553-0.699,0.352c-0.101-0.449,0.736-0.9,0.708-1.372
	c-0.019-0.293-0.82,0.068-0.793-0.131c0.019-0.136,0.145-0.275,0.199-0.398c0.094-0.218-0.034-0.417,0.035-0.615
	c0.121-0.347,1.019-0.257,1.06-0.731c0.038-0.439,0.625-0.358,0.325-0.948c-0.481-0.944-0.018-0.368,0.363-0.942
	c0.303-0.455-0.474-0.685-0.485-0.963c-0.02-0.447,1.136-0.101,0.88-0.741c-0.37-0.929-2.107,0.527-2.601,0.564
	c-0.137,0.01,0.259-0.737,0.288-0.805c0.256-0.604,0.412-1.01,1.21-0.791c0.713,0.195,0.898-2.119-0.294-0.925
	c-0.25,0.252-0.979,0.047-0.759-0.372c0.068-0.13,0.768-1.266,0.735-1.266c-0.338,0.008-0.455,0.528-0.686,0.666
	c0.099-0.059-0.667-0.5-0.687-0.515c-0.37-0.301,0.482-0.402,0.563-0.433c0.439-0.167,0.662-0.833,0.979-1.151
	c0.621-0.62-0.917,0.006-0.829-0.439c0.053-0.258,0.139-0.484,0.242-0.727c0.043-0.103,0.498-1.04,0.124-0.822
	c-0.359,0.209-0.21,0.084-0.427-0.12c-0.199-0.189-0.843,0.495-0.997,0.612c-0.179,0.137-0.614,0.597-0.845,0.618
	c-0.216,0.02-0.711-0.58-0.67,0.066c0.023,0.394,0.169,0.765,0.233,1.152c0.024,0.148-0.822-0.037-0.96,0.007
	c-0.562,0.179-0.645,0.21-1.235,0.09c-0.301-0.06-1.444,0.097-1.587-0.046c-0.246-0.245,1.112-0.859,0-0.907
	c-1.159-0.05-0.394-0.321,0.252-0.477c0.215-0.051,0.129-1.224,0.02-1.336c-0.293-0.299-1.657,0.886-1.553-0.026
	c0.105-0.938,0.919-0.517,1.319-0.969c0.037-0.041,0.179-0.454,0.239-0.429c0.351,0.143,0.236,0.379,0.679,0.292
	c0.312-0.062-0.193-1.72-0.268-1.893c-0.166-0.381-1.052-0.203-1.018-0.045c-0.053-0.246,0.06-0.56,0.269-0.706
	c0.226-0.159,0.398,0.063,0.615,0.125c0.21,0.061,0.856,0.274,1.028,0.096c0.142-0.148-0.063-0.456,0.102-0.649
	c0.517-0.594-0.62-0.709-0.948-0.875c-0.091-0.046-0.26-1.455-0.266-1.59c-0.023-0.536,0.915,0.569,1.01,0.653
	c0.163,0.146,0.379-0.558,0.53-0.802c0.065-0.105,0.448-0.867,0.169-0.912c-0.282-0.047-0.702,0.308-0.931,0.43
	c-0.699,0.373-0.954,0.05-1.202-0.621c0.055,0.146,0.688-0.068,0.763-0.134c0.386-0.341,0.507,0.184,0.779,0.049
	c0.32-0.16,0.132-0.517,0.575-0.321c0.169,0.075,0.946,0.56,1.041,0.475c0.272-0.244-0.487-1.129-0.643-1.226
	c-0.591-0.372,0.647-0.726,0.528-1.118c-0.038-0.127-0.987,0.116-1.181-0.219c-0.211-0.367,1.546-0.025,1.61-0.058
	c0.288-0.143,0.19-1.039-0.125-1.111c-0.291-0.066-1.574,0.229-1.69-0.047c-0.025-0.058,0.221-0.084,0.226-0.139
	c0.007-0.084-0.477,0.014-0.498-0.159c-0.064-0.52-0.495-0.472-0.888-0.341c-0.87,0.289-0.383-1.411-0.951-1.092
	c-0.229,0.127-1.356,0.45-0.69-0.016c0.26-0.182,2.068-0.668,2.053-0.683c-0.204-0.241-1.584-0.503-1.211-1.052
	c0.353-0.516,1.457-0.364,0.915-1.2c-0.072-0.11-0.498,0.368-0.579,0.409c-0.326,0.162-0.578-0.2-0.982-0.02
	c-0.751,0.337-0.82-0.936-1.26,0.165c-0.093,0.235-0.129,0.346-0.314,0.201c-0.178-0.135-0.312,0.623-0.619,0.506
	c-0.19-0.072-0.652-0.535-0.6-0.753c0.071-0.302,0.725-0.423,0.978-0.491c0.718-0.189-0.402-0.965-0.235-1.301
	c0.201-0.41,1.737,0.146,1.732,0.07c-0.024-0.332,0.104-0.587,0.146-0.909c0.055-0.403-0.546-0.171-0.747-0.151
	c-0.444,0.043-0.259-0.635-0.36-0.831c-0.057-0.11-0.191-0.102-0.272-0.177c-0.126-0.111,0.046-0.278,0.035-0.403
	c-0.016-0.183-0.527-0.034-0.626-0.034c-0.447,0.003-0.259-0.407-0.287-0.7c-0.039-0.381-0.479-0.081-0.44-0.438
	c0.012-0.1,0.053-0.716,0.049-0.715c-0.242,0.079-0.457-0.169-0.641,0.073c-0.141,0.187-0.306,0.914-0.572,0.949
	c-0.101,0.013,0.349-1.168,0.294-1.226c-0.006-0.005-0.79-0.151-0.823-0.145c-0.193,0.041-0.27-0.313-0.384-0.277
	c-0.095,0.031-0.197,0.343-0.256,0.417c-0.146,0.188-0.561,0.305-0.625,0.529c-0.044,0.149,0.179,0.346,0.214,0.484
	c0.155,0.608-0.228,0.349-0.351-0.043c-0.055-0.178-0.076-2.365-0.862-1.834c-0.113,0.076-0.276,0.31-0.433,0.287
	c-0.195-0.029-0.215-0.241-0.388,0.018c-0.14,0.208-0.779,1.427-0.779,0.459c0-0.65-1.08,0.341-1.265,0.031
	c-0.095-0.157-0.032-0.605-0.317-0.557c-0.299,0.052-0.395,0.331-0.561,0.534c-0.423,0.515-0.236-0.84-0.727-0.231
	c-0.144,0.178-0.339,0.421-0.595,0.417c-0.113-0.002-0.746-0.094-0.634-0.309c0.281-0.54,1.014-0.234,0.831-1.012
	c-0.124-0.535-0.507-0.654-1.028-0.818c-0.327-0.103-0.368,0.339-0.672,0.264c-0.219-0.054-0.477,0.174-0.539,0.364
	c-0.195,0.575-0.2,0.073-0.441-0.048c-0.113-0.057-0.131,0.533-0.258,0.608c-0.248,0.148-0.542,0.169-0.769,0.361
	c-0.291,0.244-0.321,0.667-0.587,0.94c-0.086,0.089-0.684,0.461-0.381,0.585c0.307,0.125,0.62-0.136,0.878,0.108
	c0.115,0.107,0.558,0.589,0.497,0.769c-0.291,0.853-0.755-0.073-1.1-0.124c-0.441-0.065-0.874,1.214-1.066,1.504
	c-0.301,0.453-1.817,0.453-1.702,0.934c0.085,0.352,0.27,0.056,0.436,0.015c0.198-0.05,0.864,0.33,0.893,0.529
	c0.037,0.267-0.117,0.773-0.32,0.955c-0.337,0.301-0.762-0.114-1.017-0.319c-0.333-0.267-0.57-1.307-1.075-0.898
	c-0.231,0.187-1.137,1.245-0.838,1.559c0.322,0.339,0.587-0.167,0.837-0.263c0.29-0.112,0.527,0.252,0.671,0.439
	c0.17,0.22,0.375,0.452,0.482,0.712c0.125,0.3-0.662-0.231-0.718-0.262c-0.597-0.331-0.59,0.309-0.716,0.722
	c-0.117,0.388-0.838,1.167-0.534,1.395c0.285,0.213,0.449,0.311,0.716,0.042c0.094-0.093,0.59-0.553,0.543-0.145
	c-0.02,0.175-0.295,1.315,0.213,0.549c-0.125,0.188-0.751,0.645-0.558,0.912c0.252,0.348,0.849-0.147,1.149,0.002
	c0.238,0.119-0.486,0.729-0.559,0.837c-0.217,0.321-0.735,0.093-1.064,0.259c-1.159,0.588,0.554,0.836,0.844,1.062
	c0.521,0.406-1.799,1.396-1.782,1.441c-0.033-0.094-0.325,0.136-0.422,0.062c-0.201-0.155-0.128-0.799-0.291-1.04
	c-0.135-0.2-0.512-0.08-0.718-0.242c-0.341-0.27-0.605-0.729-0.914-0.169c-0.363,0.662-0.662,0.469-1.282,0.24
	c-0.346-0.127-0.889-0.397-1.27-0.27c-0.182,0.061-0.115,0.16-0.261-0.062c-0.251-0.376-0.676,0.088-0.951,0.191
	c-0.553,0.208-0.486,0.205-0.594,0.766c-0.085,0.452-0.713,0.744-1.087,0.894c-0.441,0.177-0.666,0.762-0.687,1.203
	c-0.042,0.901,1.197-1.002,1.164-0.433c-0.031,0.531-0.582,1.689-1.249,1.623c-0.317-0.032-0.736-0.161-0.934,0.193
	c-0.283,0.507-0.666,0.237-1.116,0.205c-0.294-0.02-0.476-0.315-0.758-0.22c-0.349,0.118-0.664,0.393-0.931,0.637
	c-0.023,0.021-0.374,0.4-0.316,0.4c0.418,0,0.639,0.412,1.11,0.303c0.365-0.084,0.081,0.555,0.514,0.452
	c0.311-0.074,0.887,0.028,0.347,0.337c-0.607,0.347-0.939,0.676-0.844,1.412c0.081,0.625-0.118,0.957-0.481,1.458
	c-0.072,0.098-0.905,1.125-0.454,1.14c0.252,0.007,0.809-0.567,0.852-0.805c-0.388,2.113,0.748-0.44,1.177,0.095
	c0.006,0.008-1.116,1.369-1.196,1.604c-0.087,0.266,1.106-0.03,1.188-0.135c-0.265,0.338-0.199,1.044,0.168,0.529
	c0.121-0.167,0.079-0.41,0.302-0.51c0.278-0.123-0.03,0.523,0.087,0.543c0.18,0.032,0.53-0.381,0.765-0.425
	c0.442-0.084,0.853-0.72,1.249-0.706c0.165,0.007-0.004,0.81-0.045,0.904c-0.146,0.341-1.142,0.535-1.153,0.697
	c-0.027,0.361,1.617-0.317,1.399,0.224c-0.392,0.972-1.102,0.916-1.764,0.307c-0.701-0.645-0.415,0.109-0.678,0.482
	c-0.215,0.305-0.168,0.787,0.056,1.078c0.106,0.138,0.46,0.171,0.428,0.376c-0.048,0.263-0.058,1.622,0.436,0.975
	c0.48-0.649,1.251,0.434,1.485-0.172c0.071-0.184,0.793-1.432,0.803-1.069c0.007,0.243-0.054,0.484-0.047,0.729
	c0.009,0.257,0.223,0.439,0.149,0.707c-0.562-0.345-0.455,0.244-0.268,0.554c0.116,0.194-0.461,1.456-0.364,1.468
	c0.412,0.045,0.694-0.777,1.086-0.821c0.28-0.031-0.348,0.932-0.289,0.962c0.296,0.145,0.814-0.584,1.073-0.42
	c0.257,0.162-1.159,1.34-1.289,1.524c-0.207,0.297-0.025,0.466,0.194,0.662c0.3,0.269,0.313,0.493,0.715,0.044
	c0.8-0.892,0.129,0.95,1.108,0.495c0.37-0.172,0.616-0.404,0.831-0.753c0.419-0.684,0.325-0.373,0.857-0.107
	c0.692,0.347-0.315,0.539-0.66,0.779c-0.644,0.448-1.338,0.902-2.092,0.572c-0.921-0.403-1.385-0.656-1.404-1.77
	c-0.014-0.721-0.409-0.436-0.476,0.126c-0.509-0.379-0.504,0.136-0.852,0.31c-0.351,0.176-0.862-0.305-0.945-0.255
	c-0.1,0.06,0.343,0.661-0.07,0.489c-0.384-0.159-0.688-0.57-0.859-0.934c-0.28-0.59-0.834-2.23-0.275-2.769
	c0.415-0.398,0.344-0.423,0.08-0.889c-0.171-0.298-0.409,0.331-0.585,0.391c-0.416,0.138-0.308-0.717-0.148-0.877
	c0.331-0.33,0.039-0.782-0.417-0.7c-0.501,0.089-0.9,0.405-0.9-0.373c0-0.338-0.427-0.397-0.636-0.207
	c-0.305,0.279-0.113,0.755-0.558,0.979c-0.506,0.256-0.55,0.192-0.773,0.752c-0.157,0.393-0.339,0.318-0.091,0.774
	c0.14,0.259-0.08,0.52,0.146,0.773c0.315,0.351,0.828,0.054,1.062,0.606c0.161,0.381,0.039,1.299-0.342,1.555
	c-0.597,0.402-1.438-1.234-2.255-0.863c-0.23,0.105-0.78,0.506-0.566,0.833c0.109,0.167,0.647-0.173,0.505,0.11
	c-0.628,1.252,3.271,1.886,3.352,2.667c0.028,0.27-0.909,0.212-1.07,0.245c-0.479,0.1-1.32,1.726-0.681,1.875
	c0.375,0.087,0.279,0.039,0.46,0.391c0.181,0.355,0.595,0.374,0.938,0.397c0.509,0.036,0.21,0.542,0.376,0.854
	c0.244,0.457,0.939,0.73,1.357,0.998c0.185,0.118,0.378,0.218,0.534,0.375c0.535,0.541-0.78,0.34-0.88,0.39
	c-0.333,0.166-0.154,0.926-0.583,0.951c-0.57,0.033-0.367-0.877-0.975-0.024c-0.244,0.34-0.369,0.231-0.716,0.345
	c-0.242,0.08-0.795,0.601-0.233,0.654c0.351,0.033,0.471-0.339,0.684-0.017c0.071,0.107,0.265-0.078,0.334-0.085
	c0.136-0.015,0.276,0.354,0.32,0.418c0.551,0.774-2.923,1.153-3.354,1.223c-0.46,0.074-0.822,0.62-1.075,0.971
	c-0.047,0.067-0.609,0.979-0.371,0.977c0.685-0.008,1.352-1.094,2.033-1.064c0.31,0.017,0.066,0.45,0.043,0.64
	c-0.025,0.209,0.498-0.112,0.608-0.121c0.288-0.024,0.154-0.194,0.379-0.344c0.474-0.316,1.618,0.72,2.105,0.856
	c0.362,0.102,0.879,0.165,1.21-0.064c0.095-0.066,0.582-0.504,0.574-0.592c0.02,0.19-0.061,0.727-0.121,0.905
	c-0.098,0.294-0.592,0.3-0.812,0.466c-0.346,0.261,1.151,0.228,0.896,0.419c-0.208,0.155-0.476,0.19-0.507,0.508
	c-0.044,0.454,0.391,0.078,0.527-0.047c0.563-0.517,0.825,0.658,0.046,0.855c-0.527,0.134-1.009,0.177-1.547,0.066
	c-0.43-0.085-0.764,0.13-1.169,0.196c-0.895,0.147-1.969,0.496-2.428,1.338c-0.21,0.385,0.353,0.344,0.598,0.372
	c0.473,0.054,0.615,0.043,0.834-0.395c0.12-0.24,0.259-0.537,0.555-0.585c0.067-0.012,0.727-0.079,0.801,0.011
	c0.018,0.022-0.474,0.773-0.519,0.912c-0.158,0.468-0.807,1.26-0.282,1.71c0.322,0.278,0.863-1.34,0.999-1.564
	c0.261-0.431,0.905-1.013,1.412-1.08c-0.479,0.062-0.163,1.221-0.235,1.296c-0.347,0.359-0.677,0.756-1.045,1.094
	c0.208-0.191,0.188-0.067,0.326,0.107c0.149,0.19,1.086,0.283,0.812,0.504c-0.217,0.179-0.545,0.35-0.686,0.598
	c-0.251,0.438,0.094,0.729-0.266,1.142c-0.066,0.074-0.847,0.927-0.494,0.992c0.25,0.046,1.088-0.878,1.071-0.32
	c-0.015,0.491-0.695,0.711-0.8,1.163c-0.088,0.378,0.222,1.268-0.531,0.853c-0.407-0.226-0.699,0.472-0.953,0.677
	c-0.257,0.203-0.056-0.794-0.443-0.826c-1.32-0.111-0.636,1.346,0.009,1.84c0.298,0.228-0.983,1.199-0.781,1.289
	c0.293,0.13,0.612,0.05,0.827-0.17c0.144-0.148,1.042-0.913,1.029-1.028c0.005,0.047-0.609,1.053-0.125,0.936
	c0.596-0.142,1.162-0.557,1.673-0.873c-0.455,0.402-0.601,0.974-0.996,1.397c-0.321,0.344-0.857,0.579-1.094,0.991
	c-0.294,0.514-0.505,0.624-1.068,0.817c-0.245,0.086-0.64,0.196-0.799,0.421c-0.15,0.213,0.209,0.387,0.306,0.519
	c0.204,0.27,0.945-0.56,0.99-0.355c0.076,0.354-0.152,0.788-0.209,1.135c-0.107,0.641-0.598,0.933-0.862,1.468
	c-0.233,0.472,0.036,0.933,0.527,0.612c0.341-0.225,0.705-0.42,0.981-0.722c0.129-0.139,0.328-0.405,0.547-0.396
	c0.128,0.006,0.241,0.223,0.369,0.159c0.305-0.155-0.605-0.889-0.254-1.077c0.391-0.21,0.625-0.866,0.839-0.24
	c0.179,0.54,0.599,0.135,0.723-0.15c0.217-0.5,0.296-0.563,0.799-0.397c0.138,0.046,0.49-0.007,0.577,0.115
	c0.133,0.183-0.123,0.699-0.101,0.921c0.031,0.308-0.551,1.532-0.342,1.704c-0.144-0.119,0.542-0.133,0.461-0.105
	c0.487-0.167,0.929-0.792,1.264-1.151c0.362-0.388,0.457-0.669,0.878-0.417c0.158,0.094,0.39-0.142,0.546-0.17
	c0.251-0.043,0.77,0.142,0.961,0.281c0.148,0.106-0.394,1.114-0.038,0.939c0.592-0.289,0.735-1.148,1.298-1.438
	c0.474-0.243-0.181,0.885-0.251,0.99c-0.292,0.436-0.625,0.795-1.047,1.101c-0.853,0.618-1.897,0.669-2.685,1.351
	c-0.18,0.154-0.8,0.572-0.851,0.815c-0.1,0.477,0.639,0.72,0.987,0.716c0.308-0.003,1.285-0.894,1.424-0.631
	c0.18,0.34,0.09,1.14,0.763,0.891c0.49-0.183,0.798-0.734,0.967-1.193c0.033-0.093,0.734-1.404,0.918-1.292
	c0.042,0.026-0.229,2.852,0.108,2.729c0.124-0.046,0.266-1.723,0.361-1.948c0.152-0.356,0.138-0.975,0.342-1.262
	c0.102-0.144,0.803,0.183,0.839,0.321c0.089,0.344-0.22,0.892,0.058,1.181c0.292,0.302,0.739,0.252,0.811-0.22
	c0.015-0.101,0.061-0.968,0.253-0.743c0.081,0.096,0.567,1.019,0.693,0.932c0.014-0.009-0.23-0.713-0.238-0.781
	c-0.053-0.547,0.454-0.657,0.632-1.086c0.071-0.171,0.176-0.31,0.372-0.269c0.297,0.062,0.192-0.139,0.352-0.32
	c0.127-0.146,0.569,0.426,0.737,0.492c0.025-0.086,0.26-0.681,0.345-0.391c0.095,0.336,0.687-0.632,0.845-0.737
	c0.401-0.271,1.296,0.236,1.55-0.347c0.114-0.263-0.034-1.375,0.3-1.494c0.053-0.021,0.345,1.401,0.281,1.566
	c-0.126,0.335-1.226,0.681-1.534,0.728c-0.545,0.081-0.727,0.499-1.174,0.771c-0.525,0.319-0.946,0.948-1.286,1.455
	c-0.117,0.174-0.785,1.317-0.25,1.354c0.428,0.03,1.268-0.832,1.268-1.248c0-0.324,1.139-0.938,1.314-0.413
	c0.069,0.21,0.062,0.521,0.384,0.45c0.292-0.064,0.45-0.694,0.59-0.702c0.136-0.008,0.057,0.626,0.353,0.448
	c0.224-0.134,0.419-0.544,0.396-0.804c0.005,0.056-0.308,0.223-0.341,0.114c-0.033-0.108,1.041-1.151,1.18-0.464
	c0.183,0.905,0.09,1.853,0.263,2.762c0.182,0.956,0.777,1.74,1.034,2.668c0.228,0.828,0.528,1.693,0.692,2.53
	c0.296,1.496,0.17,3.229,0.12,4.75c-0.023,0.707-0.096,1.407-0.191,2.109c-0.066,0.482-0.063,1.452-0.533,1.714h3.607
	c-0.358-1.03-0.497-1.848-0.442-2.941c0.071-1.444-0.242-2.885-0.111-4.315c0.129-1.4,0.009-2.801,0.058-4.202
	c0.013-0.349,0.049-0.695,0.092-1.042c0.06-0.49,0.478-1.623,0.312-2.084c0.04,0.113,0.298,1.278,0.588,0.945
	c0.231-0.266-0.885-1.794-0.432-1.843c0.703-0.074,0.801,0.26,0.992,0.956c0.185,0.675,0.9-0.95,0.934-1.172
	c0.039-0.268,0.024-0.572,0.112-0.83c0.049-0.152,0.546-0.456,0.631-0.194c0.141,0.419-0.335,1.363-0.474,1.753
	c-0.178,0.498-0.16,0.86,0.526,0.597c0.378-0.144,0.581-0.463,0.683-0.842c0.025-0.098,0.206-1.122,0.072-1.173
	c0.179,0.069,0.354,1.303,0.447,1.517c0.303,0.697,0.409-0.934,0.445-0.91c0.496,0.358-0.378,0.822,0.523,0.869
	c0.559,0.028,0.79,1.303,1.065,1.637c0.457,0.552,0.821,0.887,0.952-0.035c0.06-0.418-0.311-1.268-0.144-1.607
	c0.021-0.048,0.274,0.431,0.279,0.442c0.203,0.483,0.194,1.055,0.42,1.519c0.131,0.271,0.334-0.167,0.402-0.267
	c0.071-0.104,0.253-0.218,0.297-0.332c0.07-0.181-0.04-0.389,0.017-0.583c0.078-0.278,0.244-2.59,0.934-1.353
	c0.244,0.439,0.343,1.789-0.348,1.89c0.5,0.212,1.119,0.436,1.508,0.829c0.281,0.281,0.114-0.854,0.142-0.906
	c-0.101,0.19,0.845-0.186,0.91-0.233c0.514-0.378,0.142-1.13-0.07-1.604c0.262,0.191,0.301-0.084,0.545-0.057
	c0.235,0.025,0.47,0.164,0.655,0.302c0.311,0.23,0.805,1.038,1.306,0.771c0.329-0.176,0.072-1.013,0.072-1.298
	c0-0.246,1.073,0.29,1.346,0.072c-0.205,0.164-0.973-1.051-1.036-1.216c-0.218-0.562-0.135-0.939,0.484-0.673
	c0.552,0.239,0.4-0.154,0.881-0.412c0.535-0.289,1.591,0.132,1.34,0.896c-0.117,0.363-0.936,0.28-1.212,0.213
	c-0.071-0.019-0.468,1.167,0.272,0.93c0.756-0.242,0.693-0.331,1.274,0.164c0.293,0.25,0.389-0.001,0.549-0.253
	c0.232-0.362,0.269-0.287,0.64-0.159c1.163,0.403-0.923-1.58,0.266-1.083c0.667,0.278,1.047,0.951,1.599,1.379
	c0.358,0.276,0.221-0.353,0.261-0.544c0.092-0.449,0.751-0.273,0.412-0.873c-0.151-0.267-0.367-0.484-0.544-0.731
	c-0.194-0.274-0.07-0.669-0.093-0.976c-0.029-0.443-1.134-0.175-1.396-0.269c-0.245-0.088-0.329-1.094-0.163-1.225
	c0.465-0.366,1.156,0.938,1.018-0.232c-0.026-0.228,0.196-0.32,0.331-0.466c0.272-0.297,0.228-0.622,0.25-0.993
	c0.029-0.521,3.208,0.19,3.203-0.216c0-0.018-0.319-0.096-0.349-0.111c-0.298-0.155,0.234-0.427,0.294-0.567
	c0.08-0.192-0.266-0.607-0.266-0.844c0-0.607-0.584-0.095-0.804,0.074c-0.232,0.176-0.481,0.408-0.659,0.067
	c-0.241-0.453-0.701-0.118-0.882-0.36c-0.158-0.21,0.615-1.076,0.766-1.188c0.036-0.027,1.138-0.268,0.841-0.506
	c-0.153-0.119-0.759,0.181-0.968,0.158c-0.357-0.041,0.246-0.429,0.328-0.54c0.067-0.092,0.582-0.625,0.574-0.644
	c-0.144-0.314-0.313-0.434,0.08-0.645c0.714-0.379,1.26-0.98,2.023-1.208c0.504-0.15,0.535-0.257,0.315-0.688
	c-0.209-0.408-0.08-0.669,0.371-0.681c1.505-0.03,0.136-0.473-0.055-1.131c-0.126-0.439-0.337-0.859-0.867-0.864
	c-0.318-0.002-0.629-0.408-0.972-0.513c-0.453-0.138-0.792-0.572-1.301-0.449c-0.312,0.076-0.885,0.682-1.192,0.527
	c-0.252-0.129-0.248-0.468-0.576-0.528c-0.378-0.068,0.129-0.331,0.213-0.498c0.167-0.336-0.147-0.515-0.177-0.798
	c-0.041-0.396,0.415-0.749,0.382-1.19c-0.034-0.453,0.343,0.053,0.389-0.285c0.028-0.21-0.414-0.757-0.52-0.97
	c-0.199-0.405-0.312-0.735,0.281-0.521c0.474,0.17,0.622-0.114,0.749-0.563c0.098-0.338-0.449-0.705-0.535-1.024
	c-0.095-0.346,0.323-0.127,0.5-0.125c0.396,0.004,0.543-0.757,0.919-0.502c0.209,0.143,0.457,0.951,0.756,0.844
	c0.386-0.141,0.255-0.646,0.714-0.524c0.196,0.051,0.283-0.264,0.418-0.354c0.43-0.284,1.689,0.216,2.165,0.228
	C77.248,50.173,76.568,49.656,76.741,49.222C76.938,48.734,76.547,49.709,76.741,49.222z M37.061,39.034
	c-0.271-0.269-0.68-0.652-0.537-1.073c0.092,0.062,0.906,0.334,0.903,0.246C37.434,38.478,37.191,38.808,37.061,39.034
	C36.914,38.888,37.061,39.034,37.061,39.034z M28.234,39.326c0.259-0.429,0.384-0.292,0.812-0.104
	c0.403,0.179,0.741,0.2,1.033,0.571c0.3,0.382,0.449,0.894,0.643,1.336c-0.628-0.367-1.261-0.724-1.899-1.073
	C28.37,39.809,27.979,39.758,28.234,39.326C28.382,39.082,28.09,39.57,28.234,39.326z M30.429,47.027
	c-0.074-0.042-0.103-0.098-0.086-0.167c0.142-0.056,0.587,0.208,0.604-0.113c0.02-0.358-0.44-0.759-0.703-0.933
	c-0.272-0.179-0.577-0.117-0.849-0.297c-0.408-0.27-0.743-0.673-1.034-1.062c-1.022-1.365,0.973-0.113,0.99-0.647
	c0.021-0.713,0.828-1.507,1.1-0.513c0.134,0.487-0.173,0.589-0.479,0.916c-0.418,0.446,0.42,0.252,0.636,0.287
	c0.246,0.039,0.636-0.231,0.746-0.203c0.512,0.128-0.037,0.797-0.165,1.074c-0.212,0.455,0.192,0.715,0.533,0.941
	c0.342,0.228,0.243,0.258,0.088,0.627c-0.125,0.3-0.253,0.702-0.494,0.933C31.139,48.041,30.533,47.145,30.429,47.027
	C30.088,46.638,30.773,47.418,30.429,47.027z M30.579,66.039c-0.467-0.064-0.921-0.344-1.391-0.18
	c0.576-0.346,1.187-0.559,1.875-0.405c0.126,0.028,1.386-0.095,1.381-0.071C32.355,65.717,30.882,66.083,30.579,66.039
	C30.233,65.991,30.918,66.089,30.579,66.039z M33.404,41.617c0.225-0.182,0.949,0.282,1.217,0.39
	c0.183,0.073,0.137,0.269,0.218,0.405c0.145,0.241,0.603,0.027,0.807,0.229c-0.601-0.015-1.458-0.105-2.002,0.195
	c-0.385,0.216-0.796,0.097-1.002-0.335C32.298,41.778,33.039,41.909,33.404,41.617C33.645,41.421,33.161,41.812,33.404,41.617z
	 M33.744,64.676c-0.257,0.338-0.272-0.408-0.297-0.483c0.03,0.09-0.308,0.371-0.425,0.284c-0.21-0.155-0.071-0.394-0.351-0.337
	c0.3-0.367,0.875-0.313,1.249-0.196c0.233,0.071,0.209,0.189,0.25,0.438C34.288,65.111,33.939,64.414,33.744,64.676
	C33.597,64.869,33.889,64.479,33.744,64.676z M35.354,67.844c-0.217-0.26-1.19-0.094-1.294,0.122c0.33-0.679,1.188-1.011,1.831-0.61
	L35.354,67.844L35.354,67.844z M42.178,32.501c0.187-0.189,0.718-0.295,0.902-0.075c0.14,0.168,0.275,0.04,0.423,0.14
	c0.124,0.082,0.109,0.456,0.137,0.568C43.359,33.123,41.8,32.866,42.178,32.501C42.275,32.402,42.079,32.597,42.178,32.501z
	 M40.423,61.749c-0.257-0.128-0.532,0.182-0.78,0.1c-0.016-0.006,0.783-0.55,0.919-0.593c0.193-0.06,0.072,0.203,0.219,0.285
	c0.102,0.056,0.55-0.322,0.664-0.376c-0.114,0.401-0.246,0.604-0.63,0.749C40.52,62.027,40.584,61.832,40.423,61.749
	C40.229,61.653,40.618,61.849,40.423,61.749z M41.106,65.113c0,0,1.413-0.146,1.558-0.049c0.027,0.585-0.773,0.583-1.212,0.693
	c-0.172,0.043-2.058,0.524-2.067,0.486c0.003,0.014,0.635-0.693,0.697-0.789c0.23,0.141,0.469,0.521,0.757,0.329
	C41.09,65.614,41.384,65.423,41.106,65.113L41.106,65.113z M40.07,64.7c-0.207,0.021-0.379,0.021-0.379,0.021
	c0.441-0.011,0.795-0.068,1.158-0.322c0.153-0.106,0.444-0.019,0.631-0.099c0.204-0.088,0.43-0.411,0.636-0.437
	c0.04-0.006-0.07,0.47,0.175,0.513c0.24,0.042,0.427-0.121,0.52-0.337c0,0,0.096,0.193,0.244,0.487L40.07,64.7
	C39.863,64.722,40.07,64.7,40.07,64.7z M42.567,34.987c0.179-0.111,0.36-0.222,0.536-0.342c0.343-0.226,0.46,0.384,0.34,0.585
	C43.177,35.08,42.864,35.05,42.567,34.987L42.567,34.987z M41.886,62.969c-0.243,1.121-0.292,0.146-0.585,0.242
	c0.097-0.135,0.806-1.251,0.712-1.321C42.175,62.011,41.914,62.842,41.886,62.969C41.643,64.09,42.13,61.849,41.886,62.969z
	 M41.35,42.104c0.083,0.417,0.153,0.945,0.33,1.329c0.13,0.281,0.395,0.652-0.036,0.815c-0.111-0.309-0.838-2.076-0.398-2.267
	C41.313,41.985,41.349,42.025,41.35,42.104C41.397,42.348,41.301,41.86,41.35,42.104z M40.081,38.642
	c0.147-0.145,0.343,0.147,0.439,0.392c-0.631-0.151-0.101,0.659-0.356,0.74c-0.229,0.073-0.739-1.182-0.802-1.307
	c-0.086-0.168-0.667-0.8-0.639-0.996c-0.036,0.253,1.04,0.395,1.152,0.543C39.981,38.156,39.458,39.274,40.081,38.642
	C40.229,38.498,39.935,38.791,40.081,38.642z M38.134,34.987c-0.045-0.295,0.416-0.297,0.594-0.358
	c0.519-0.177,0.138-0.414,0.395-0.537c0.22-0.107-0.028,0.328-0.012,0.312c0.278,0.331,0.686-0.131,0.765,0.083
	c0.12,0.324,0.115,0.921-0.036,1.23c-0.191-0.12-0.555-0.33-0.781-0.195c-0.197,0.119-0.175,0.329-0.441,0.195
	C38.328,35.573,38.175,35.301,38.134,34.987C38.082,34.645,38.177,35.329,38.134,34.987z M38.571,45.322
	c0.385-0.309,2.293-0.324,2.659,0.004c0.486,0.438,0.548,1.389,0.461,1.996c-0.425-0.214-0.861-0.43-1.256-0.699
	c-0.81-0.552,0.926-0.191,0.746,0.023c0.172-0.204-0.343-0.867-0.226-1.101c-0.058,0.114-1.037-0.068-1.323,0.001
	c-0.509,0.124-1.31,0.758-1.745,0.265C37.887,45.81,38.328,45.517,38.571,45.322C38.815,45.126,38.328,45.517,38.571,45.322z
	 M39.06,48.296c-0.245,0.536-0.389,0.731-0.389,0.731c-0.382,0-0.603-0.695-0.634-0.994c0.006,0.054,0.954,0.105,1.109,0.022
	C39.164,48.142,39.134,48.222,39.06,48.296C38.815,48.831,39.303,47.759,39.06,48.296z M37.986,53.364l0.632,0.295
	c-0.583,0.391-0.695,0.534-0.925-0.244L37.986,53.364L37.986,53.364z M36.864,64.627c0,0-0.583,0.146-0.78,0.146
	c0.376-0.346,0.613-0.386,0.462-0.877c-0.082-0.268-0.157-0.517,0.188-0.417c0.242,0.068,0.355-0.213,0.56-0.177
	c0.168,0.029-0.282,0.569-0.353,0.625C36.894,63.969,37.14,64.428,36.864,64.627L36.864,64.627z M38.718,65.795
	c-0.549,0.204-1.067,0.685-1.692,0.646c0.108,0.006,0.615-0.301,0.716-0.401c0.208-0.206,0.298-0.507,0.489-0.73
	c0.257-0.3,0.321-0.057,0.584-0.146L38.718,65.795L38.718,65.795z M40.032,69.111c-0.245,0.05-0.245,0.34-0.049,0.438
	c-0.208-0.023-0.934-0.32-1.072-0.484c0.051,0.06,0.408-0.331,0.448-0.37c-0.161,0.154,0.54,0.066,0.497-0.036
	c0.073,0.178,0.196,0.522,0.453,0.47C40.22,69.101,40.127,69.094,40.032,69.111C39.787,69.161,40.276,69.062,40.032,69.111z
	 M42.715,70.329c-0.265,0.195-0.591,0.34-0.883,0.347c-0.326,0.006-0.598-0.689-0.322-0.79c0.149-0.056,0.382,0.297,0.597,0.267
	c0.334-0.047,0.663-0.233,0.996-0.31C43.104,69.843,42.907,70.184,42.715,70.329C42.519,70.477,42.907,70.184,42.715,70.329z
	 M43.348,67.404c-0.382-0.445-0.497,0.382-0.739,0.141c-0.218-0.219-0.286-0.07-0.524,0.089c-0.393,0.262-0.251-0.122-0.497-0.231
	c-0.239-0.105-0.448,0.312-0.56,0.441c-0.175,0.204-0.437,0.03-0.633-0.058c-0.365-0.165-1.004-0.042-1.294-0.252
	c0.067,0.048,1.171-0.979,1.323-1.009c0,0.228-0.073,1.376,0.409,0.808c0.229-0.271,0.764-1.275,1.069-1.364
	c0.325-0.095-0.184,1.622,0.515,0.775c0.039-0.047,0.395-0.445,0.395-0.414c0,0.25,0.826-0.574,0.827-0.574
	C44.044,65.727,43.379,67.322,43.348,67.404L43.348,67.404z M44.613,30.502c-0.144,0.292-0.292,1.072-0.292,1.072
	c-0.15-0.45-0.615-1.098-0.401-1.535c-0.046,0.095,0.909,0.047,0.796-0.186C44.786,29.996,44.678,30.375,44.613,30.502
	C44.47,30.794,44.76,30.209,44.613,30.502z M56.804,31.039c-0.018-0.004,0.856,0.367,0.567,0.526
	c-0.277,0.153-0.967-0.15-1.251-0.234C56.417,31.086,56.608,30.99,56.804,31.039C56.998,31.086,56.608,30.99,56.804,31.039z
	 M56.021,58.776c0.055-0.035,0.038,0.46-0.242,0.581c-0.369,0.158-0.747,0.302-1.123,0.443c0.157-0.259,0.324-0.545,0.553-0.748
	C55.428,58.858,55.779,58.937,56.021,58.776C56.167,58.679,55.875,58.873,56.021,58.776z M55.584,35.231
	c0.211-0.253,0.031,0.461,0.016,0.503c-0.153,0.399-0.492,0.611-0.743,0.936c-0.299,0.391-0.442,0.985-0.636,1.436
	c0.175-0.439,0.027-0.967,0.195-1.355C54.642,36.228,55.223,35.668,55.584,35.231C55.826,34.938,55.342,35.522,55.584,35.231z
	 M54.026,25.238c0.095-0.489,0.242-0.536,0.242-0.536c0.164,1.37,0.439,0.062,0.893-0.115c0.136-0.054-0.004,0.476-0.015,0.504
	c-0.095,0.231-0.385,0.398-0.57,0.545c-0.377,0.297-0.574,0.745-0.796,1.161C53.78,26.796,53.929,25.724,54.026,25.238
	C54.121,24.749,53.929,25.724,54.026,25.238z M52.999,24.896c0.021-0.047,0.378-0.562,0.382-0.546
	c0.152,0.512,0.008,1.468,0.008,2.008C53.064,25.867,52.772,25.474,52.999,24.896C53.096,24.652,52.903,25.14,52.999,24.896z
	 M52.61,38.642c0.105-0.214,0.312-1.485,0.501-1.523c0.384-0.077,0.406-0.03,0.479,0.302c0.069,0.32-0.771,0.584-0.546,0.955
	c0.05,0.079,0.231-0.064,0.297-0.049c-0.045-0.01-0.142,0.539-0.152,0.608c-0.036,0.257-0.521,0.445-0.722,0.536
	C52.467,39.276,52.515,38.837,52.61,38.642C52.707,38.447,52.515,38.837,52.61,38.642z M48.859,19.095
	c0.137,0.198,0.311,0.473,0.532,0.583c0.155,0.079,0.544-0.093,0.624,0.067c0.097,0.191,0.079,0.46,0.107,0.666
	C49.644,20.377,48.182,19.699,48.859,19.095L48.859,19.095z M49.443,34.304c0.006-0.025,0.441-0.607,0.377-0.582
	c-0.127,0.049-0.338,2.16-0.429,2.483C49.392,35.595,49.277,34.892,49.443,34.304C49.516,34.052,49.347,34.645,49.443,34.304z
	 M47.833,19.631c0.097,0.194,0.39,0.39,0.39,0.39c0.009-0.127,0.061-0.487,0.243-0.487c0.234,0,0.198,0.687,0.292,0.83
	c-0.411-0.1-0.822-0.228-1.204-0.409c-0.263-0.124-0.442-0.315-0.684-0.466c-0.26-0.165-0.626-0.169-0.864-0.35
	c-0.153-0.116,0.897-0.338,1.067-0.154c0.091,0.099,0.076,0.33,0.13,0.454C47.305,19.669,47.639,19.242,47.833,19.631
	C47.929,19.825,47.736,19.437,47.833,19.631z M47.248,63.261c0.171-0.515-0.712-0.21-0.659-0.566
	c0.039-0.257-0.179-0.457-0.122-0.749c0.494,0.165,0.577,0.142,0.73,0.647c0.187,0.62,0.531,0.083,0.879,0.618
	c-0.17,0.058-0.39,0.078-0.496,0.229c-0.119,0.171-0.25,0.412-0.482,0.443c0.014-0.002-0.614-0.037-0.517-0.136
	C46.872,63.458,47.099,63.712,47.248,63.261C47.345,62.969,47.152,63.554,47.248,63.261z M46.03,49.611
	c-0.244-0.145-0.051-0.78-0.051-0.78c0.144,0.163,0.339,0.369,0.393,0.585c0.101,0.413,0.543,0.593,0.585,1.023
	c-0.259,0.1-0.522,0.229-0.793,0.146c-0.076-0.023-0.845-0.28-0.847-0.279C45.544,49.994,46.846,50.104,46.03,49.611
	C45.786,49.467,46.271,49.758,46.03,49.611z M46.76,57.509c0.354-0.538,0.464-0.334,0.584,0.146
	c0.064,0.247,0.397,0.084,0.488,0.195c0.108,0.132,0.097,0.49,0.097,0.633c-0.225-0.098-0.462-0.181-0.681-0.293
	c-0.145-0.072-0.118-0.264-0.309-0.306c-0.073-0.016-0.484,0.101-0.501,0.05C46.403,57.827,46.706,57.591,46.76,57.509
	C46.856,57.363,46.663,57.655,46.76,57.509z M47.981,56.729c-0.19-0.306-0.665-0.776-0.713-1.13
	c-0.007-0.048,0.671-1.055,0.736-0.723C48.136,55.547,48.076,56.058,47.981,56.729L47.981,56.729z M46.079,14.609
	c0.079,0.156,0.189,0.28,0.331,0.376c0.218,0.022-0.166-0.535-0.173-0.554c-0.034-0.075,0.581-0.073,0.668-0.113
	c0.258-0.12,0.556-0.13,0.832-0.293c-0.174,0.527-0.698,0.887-1.121,1.17c-0.731,0.722-0.934-0.663-0.651-0.684
	C46.003,14.544,46.041,14.577,46.079,14.609C46.271,14.903,45.884,14.316,46.079,14.609z M44.81,39.57
	c0.043,0.067,0.542,0.357,0.685,0.439c0.423,0.241,0.601,0.009,1.001-0.058c-0.37,0.062,0.061,0.672,0.19,0.75
	c0.242,0.145,0.192,0.284,0.223,0.576C46.047,40.898,45.343,40.352,44.81,39.57C44.714,39.421,44.91,39.715,44.81,39.57z
	 M45.884,44.347c0.394-0.13,0.558-0.08,0.78-0.488c0.001-0.003,0.374-0.8,0.407-0.778c0.581,0.387,0.082,0.975-0.263,1.217
	c-0.347,0.25,0.175,0.435,0.344,0.536c0.3,0.179-0.136,0.585-0.245,0.731c-0.186-0.146-1.719-0.982-1.714-1.007
	C45.221,44.437,45.789,44.378,45.884,44.347C46.322,44.201,45.446,44.493,45.884,44.347z M45.884,57.168l-0.633-0.196
	c0.221-0.187,0.446-0.381,0.691-0.536C46.239,56.247,45.936,57.062,45.884,57.168C45.884,57.168,45.979,56.972,45.884,57.168z
	 M47.688,77.057c-0.1,0.635-0.148,0.879-0.148,0.879c-0.695-1.603-0.99-3.223-1.316-4.925l0.244,0.928
	c0.009-0.108,0.073-0.991,0.227-0.95c0.246,0.062,0.166,0.979,0.191,0.972c0.191-0.052,0.382-0.32,0.51-0.459
	c-0.039,0.373-0.071,0.746-0.099,1.121c0.279,0.131,0.234-0.224,0.393-0.178C48.199,74.594,47.739,76.721,47.688,77.057
	C47.589,77.691,47.785,76.423,47.688,77.057z M48.273,66.724c-0.923-0.011-0.712-0.356-0.895-1.021
	c-0.072-0.26-0.955-0.704-1.203-0.833c0.473,0.223,0.853,0.131,1.252,0.422c0.108,0.078,0.44,0.107,0.395,0.273
	c-0.036,0.131-0.11,0.407,0.051,0.499c0.204,0.117,1.01-0.42,0.982-0.312C48.765,66.114,48.434,66.392,48.273,66.724
	C48.273,66.724,48.369,66.526,48.273,66.724z M48.71,42.201c-0.159-0.48-0.408-1.045-0.176-1.562
	c0.108-0.239,0.451-0.313,0.592-0.554c0.176-0.3,0.227-0.662,0.388-0.97C49.053,40.001,48.948,41.233,48.71,42.201
	C48.662,42.055,48.71,42.201,48.71,42.201z M49.54,58.143c-0.356-1.066,0.506-0.851,0.919-1.516
	c0.163-0.261,0.405-0.595,0.456-0.901c0.056-0.322-0.108-0.753-0.108-1.093c0.114,0.545,0.47,1.487,0.103,1.995
	C50.521,57.162,49.969,57.634,49.54,58.143C49.491,57.997,49.54,58.143,49.54,58.143z M49.833,59.508
	c0.14-0.265,0.281-0.529,0.421-0.793c0.095-0.181,0.614,0.214,0.748,0.257L49.833,59.508L49.833,59.508z M51.246,66.187
	c-0.028,0.189-0.181,0.742-0.459,0.733c-0.502-0.018-0.414,0.166-0.223,0.633c-0.433-0.055-0.651-1.62-0.366-1.767
	c0.225-0.113,0.431-0.033,0.485,0.192c0.171,0.723,0.456-0.017,0.713-0.272C51.324,65.777,51.255,66.104,51.246,66.187
	C51.196,66.526,51.293,65.845,51.246,66.187z M52.074,23.629c-0.338,0.73-0.584,2.242-0.584,2.242
	c-0.065-0.553-0.114-1.027-0.004-1.574c0.063-0.319-0.009-0.716,0.154-1.006c0.135-0.237,0.508-0.384,0.726-0.539
	C52.366,22.751,52.415,22.897,52.074,23.629C51.734,24.359,52.415,22.897,52.074,23.629z M52.467,45.81
	c0.113-0.317,0.214-0.639,0.384-0.933c0.099-0.134,0.179-0.28,0.238-0.437c0.01-0.04-0.041-0.284-0.023-0.312
	c0.109-0.163,0.644,0.439,0.747,0.454c0.378,0.049,0.307-0.895,0.749-0.821c0.991,0.166-0.618,1.323-0.771,1.214
	c0.084,0.059-0.199,0.754-0.35,0.802c-0.26,0.083-0.116-0.526-0.095-0.521C53.074,45.189,52.646,45.647,52.467,45.81
	C52.659,45.273,52.467,45.81,52.467,45.81z M52.854,62.677c0-0.275,0-0.553,0-0.828c0.355,0.076,0.657-0.556,0.877-0.78
	C53.518,61.754,53.25,62.082,52.854,62.677C52.854,62.677,52.953,62.529,52.854,62.677z M54.608,72.036
	c-0.251-0.112-0.606-0.268-0.673-0.56c-0.049-0.215-0.278-0.908-0.204-1.098c-0.116,0.344,0.447,0.748,0.701,0.84
	C54.755,71.337,54.658,71.78,54.608,72.036L54.608,72.036z M54.805,62.14c0.192,0.245,0.192,0.245,0.192,0.245l-0.924-0.195
	c0.24-0.32,0.346-1.285,0.773-1.264c0.569,0.029,0.471,0.121,0.622,0.608c0.152,0.495,0.548,0.928,0.741,1.418
	c-0.179-0.451-0.308-0.74-0.693-1.03c-0.136-0.102-0.292-0.332-0.473-0.362C54.695,61.504,54.652,61.95,54.805,62.14
	C54.997,62.385,54.608,61.896,54.805,62.14z M56.266,71.109c-0.259-0.232-0.918-0.737-0.756-1.146
	c-0.014,0.029,0.434,0.298,0.468,0.333C56.315,70.635,56.341,70.594,56.266,71.109C56.266,71.109,56.315,70.77,56.266,71.109z
	 M57.34,55.853c0,0-0.392,0.487-0.632,0.777c-0.33-0.209-0.634-1.158,0.041-1.059c0.448,0.062,0.759,0.176,0.679-0.464
	C57.461,55.362,57.436,55.613,57.34,55.853L57.34,55.853z M58.998,46.346c-0.196,0.633-1.077,2.584-1.077,2.584
	c-0.162-0.257-0.328-0.592-0.327-0.902c0.003-0.408,0.448-0.431,0.672-0.658c0.12-0.119,0.626-1.191,0.751-1.153
	C59.027,46.259,59.021,46.304,58.998,46.346C58.802,46.979,59.169,45.784,58.998,46.346z M69.039,44.298
	c-0.13,0.161-0.947,1.803-0.778,1.803c-0.333,0-0.384-0.708-0.659-0.813c-0.306-0.117-0.221-0.297-0.365-0.539
	c-0.088-0.146-0.465,0.229-0.481,0.079c-0.007-0.062,0.281-0.417,0.32-0.457c0.021-0.02,2.15-0.217,2.108-0.284
	C69.204,44.12,69.036,44.301,69.039,44.298C68.649,44.786,69.43,43.811,69.039,44.298z M66.699,43.665
	c0.604-0.55,1.271-1.068,1.921-1.549c0.021-0.015,0.209,0.205,0.18,0.278c-0.051,0.128-0.317,0.561-0.434,0.663
	C68.002,43.373,67.159,43.425,66.699,43.665L66.699,43.665z M68.721,41.655c0.297-0.252-0.048-0.505-0.123-0.815
	c-0.03-0.125,0.349-0.646,0.37-0.624c0.19,0.199,0.27,0.926,0.095,1.118c-0.323,0.349-0.683,0.587-1.086,0.819
	c-0.896,0.515-1.546,0.882-2.595,0.975c0.683-0.228,1.189-0.687,1.122-1.463c0.179,0.83,0.551,0.233,0.876-0.098
	c0.109-0.108,0.033-0.252,0.193-0.209C67.933,41.452,68.347,41.649,68.721,41.655C68.766,41.617,68.529,41.652,68.721,41.655z
	 M66.358,46.979c-0.636,0.181-0.864-0.946-1.073-1.366c0.134-0.185,0.544-0.574,0.812-0.469c0.214,0.083-0.063,0.707-0.086,0.807
	c-0.106,0.473,0.072,0.295,0.396,0.4c0.154,0.051,0.048,0.606,0.097,0.582C66.455,46.948,66.406,46.964,66.358,46.979
	C66.016,47.077,66.699,46.882,66.358,46.979z M65.285,48.296c-0.244,0.34-0.733,0.388-0.733,0.388
	c-0.105-0.249-0.199-0.917,0.251-0.803c0.505,0.13,0.206-0.52,0.582-0.575C65.523,47.286,65.372,48.174,65.285,48.296
	C65.043,48.637,65.529,47.954,65.285,48.296z M64.604,35.133c0.112-0.227,0.262-0.375,0.486-0.489
	c0.278-0.139,0.347,0.222,0.565,0.086c0.095-0.058,0.307-0.51,0.419-0.403c0.064,0.062,0.139,0.312,0.231,0.122
	c0.138-0.269,1.681-0.071,1.289,0.403c-0.363,0.443-0.8,0.834-1.188,1.254c-0.026,0.029-0.755,0.848-0.738,0.528
	C65.712,35.794,63.946,36.441,64.604,35.133C64.748,34.841,64.456,35.426,64.604,35.133z M63.191,37.717
	c0.037-0.076,0.506-1.175,0.51-0.865c0.002,0.156-0.46,0.53-0.123,0.587c0.509,0.085,1.104-0.231,1.578,0.081
	c0.113,0.075,0.205,0.178,0.324,0.247c0.127,0.072,0.86,0.086,0.906-0.089c-0.112,0.425-0.892,0.436-1.086,0.793
	c-0.191,0.351-0.826-0.102-1.155-0.058c-0.745,0.099-1.458,0.253-2.225,0.279C62.507,38.253,63.043,38.009,63.191,37.717
	C63.336,37.424,63.043,38.009,63.191,37.717z M62.263,56.826l-0.729,0.196C61.705,56.825,62.21,56.218,62.263,56.826L62.263,56.826z
	 M61.629,36.351c0.355-0.202,0.372-0.013,0.527,0.278c0.347,0.648,0.686-0.138,0.931-0.015c0.208,0.103-0.748,0.936-1.042,0.885
	c-0.358-0.063-1.156-0.274-1.223-0.717C60.727,36.146,61.305,36.539,61.629,36.351C61.97,36.157,61.289,36.547,61.629,36.351z
	 M60.313,29.187c-0.134-0.405,0.1-2.238,0.639-2.284c0.172-0.015-0.104,0.583,0.143,0.472C60.99,27.423,60.285,29.11,60.313,29.187
	C60.264,29.039,60.363,29.333,60.313,29.187z M62.166,66.526c-0.002-0.731-0.252-0.74-0.829-1.021
	c-0.338-0.166-0.666-0.468-0.974-0.684c0.338,0,0.409,0.396,0.671,0.469c0.183,0.17,0.478-0.144,0.738-0.03
	c0.248,0.105,0.541-0.141,0.541,0.245C62.314,65.848,62.248,66.194,62.166,66.526L62.166,66.526z M62.847,63.261
	c-0.021,0.069-0.61,0.178-0.506,0.306c-0.153-0.188-0.404-0.866-0.337-1.1c0.017-0.054,0.329,0.331,0.354,0.356
	c0.255,0.249,0.338-0.255,0.517-0.181C63.003,62.694,62.878,63.17,62.847,63.261C62.799,63.406,62.897,63.116,62.847,63.261z
	 M63.287,56.29c-0.088-0.242-0.289-0.479-0.065-0.663c0.353-0.293,0.71-0.389,1.139-0.486c0.274-0.061,0.568-0.099,0.472,0.253
	c-0.109,0.406,0.238,0.578,0.302,0.895c0.022,0.109-0.787-0.68-0.773-0.68c-0.281,0-0.457-0.153-0.587,0.195
	C63.689,56.028,63.514,56.208,63.287,56.29L63.287,56.29z M64.845,58.776c-0.189,0.154-0.17-0.669-0.215-0.738
	c-0.001-0.002-0.671,0.684-0.711,0.738c-0.185-0.463-0.222-0.879,0.209-1.2c0.117-0.09,0.479-0.591,0.627-0.523
	c0.137,0.061,0.325,0.266,0.495,0.182c-0.072,0.035,0.02,0.589,0.023,0.646C65.311,58.377,65.209,58.487,64.845,58.776
	C64.604,58.972,65.089,58.581,64.845,58.776z M67.188,62.969c-0.636,0.21-0.781,0.191-1.006-0.373
	c-0.101-0.257-0.811-0.403-1.04-0.651c-0.047-0.264-0.218-0.476,0.163-0.552c0.131-0.027,0.968-0.213,1.046-0.021
	c0.113,0.273-0.199,0.937,0.127,1.104c0.253,0.131,0.774,0.127,0.999,0.348C67.407,62.915,67.312,62.965,67.188,62.969
	C66.895,63.065,67.48,62.872,67.188,62.969z M70.212,63.504c-0.782,0.179-1.515,0.197-2.343,0.197c0.326,0,0.769-0.48,1.12-0.554
	c0.112-0.022,1.651-0.114,1.629-0.224C70.668,63.168,70.439,63.453,70.212,63.504C69.772,63.604,70.647,63.406,70.212,63.504z
	 M71.185,60.531c0.351-0.132,0.732,0.106,0.909-0.388c0.065-0.184,0.01-0.735,0.374-0.708c-0.038-0.004-0.115,0.037-0.146,0.056
	c0.271-0.152,0.637-0.229,0.848-0.472c0.261-0.302-0.458-0.375-0.57-0.486c0.127,0.124,0.755,0.174,0.974,0.295
	c0.385,0.217-0.63,0.745-0.774,0.876c-0.373,0.338-0.256,0.922-0.531,1.235c-0.44,0.498-1.229,0.501-1.816,0.324
	C70.647,61.068,70.795,60.678,71.185,60.531C71.572,60.384,70.795,60.678,71.185,60.531z M70.306,58.824
	c-0.071,0.406,0.085,0.445,0.271,0.843c0.207,0.434-0.456,1.019-0.343,1.198c-0.111-0.179-0.395-0.597-0.219-0.772
	c0.49-0.492-0.117-0.605-0.443-0.622c-0.751-0.037-1.656-0.113-2.385-0.303c0.164-0.062,0.781-0.055,0.874-0.221
	c0.091-0.168,0.353-0.271,0.332-0.394c0.011,0.063,0.434,0.315,0.508,0.413c0.146,0.193,0.403-0.034,0.562-0.104
	c0.216-0.094,0.279,0.127,0.451,0.074c0.156-0.049,0.224-0.261,0.374-0.3C70.347,58.679,70.354,58.741,70.306,58.824
	C70.212,59.361,70.403,58.289,70.306,58.824z"/>
</svg>
