<?xml version="1.0" encoding="utf-8"?>
<!-- Generator: Adobe Illustrator 15.0.2, SVG Export Plug-In . SVG Version: 6.00 Build 0)  -->
<!DOCTYPE svg PUBLIC "-//W3C//DTD SVG 1.1//EN" "http://www.w3.org/Graphics/SVG/1.1/DTD/svg11.dtd">
<svg version="1.1" id="Ebene_1" xmlns="http://www.w3.org/2000/svg" xmlns:xlink="http://www.w3.org/1999/xlink" x="0px" y="0px"
	 width="100px" height="100px" viewBox="0 0 100 100" enable-background="new 0 0 100 100" xml:space="preserve">
<circle fill="#B2B2B2" cx="50" cy="50" r="50"/>
<g>
	<path fill="#1D1D1B" d="M28.134,22.79c0,0-2.212,1.525-2.285,2.364c0,0-0.521,0.866-0.45,1.351c0,0-0.537,0.968-0.537,1.527
		l-1.008,2.308c0,0-2.451,0.076-2.666,0.262l-1.51,0.597c0,0-0.146,0.372,0.035,0.818c0,0-0.442,0.886-0.529,1.308
		c-0.011,0.059-0.016,0.109-0.011,0.146c0.036,0.298-0.433,0.672-0.433,0.672l-0.322,0.483l-0.182,0.521l-0.504,0.817l-0.143,0.748
		l-0.363,0.706l-0.538,0.895c0,0,0.108,2.756,0.179,2.867c0.073,0.111-0.537,1.005-0.537,1.005l-0.219,1.454l-0.394,3.091
		c0,0,1.726,2.198,2.732,1.378l-1.329,5.325c0,0,0.576,1.155,0.971,1.155c0,0,0.038,0.561,0,0.745l0.038,0.821l0.144,2.494
		l0.109,0.484l-0.218,0.669c0,0-0.104,1.713,0.072,2.312c0,0,0.361,1.302-0.072,2.01l-0.216,1.007l-0.574,1.303l-0.04,5.477
		l-0.214,0.147l-0.144,1.9c0,0,0.25,0.446,0.433,0.483l0.105,1.379l0.075,0.559c0,0-0.215,1.006-0.035,1.268l-0.18,0.854
		l-0.328,1.416l-0.25,0.745c0,0-0.829,1.305-0.646,1.677l0.14,0.26l2.703,0.112l0.071-0.596l0.829-0.148l0.143-1.901
		c0,0-0.107-1.49-0.254-1.638l-0.035-1.006l-0.069-0.858l0.104-0.893L20,74.961c0,0,0.829-0.036,1.117-0.447l0.539-1.974
		l-0.036-0.372l-0.034-0.634l-0.11-0.783l0.326-1.677l0.25-2.234c0,0,0.542-1.711,0.433-1.786c0,0,0.573-0.558,0.611-2.868
		c0,0,0.214-0.672,0.288-0.782c0.075-0.112,0.576-0.707,0.576-0.707l0.036-1.752l0.576-0.708c0,0-0.108,6.333,0.397,8.119
		l0.179,1.119c0,0,0,1.118,0.18,1.305l-0.036,1.638c0,0-0.326,1.638,0.215,3.577l-0.359,0.072l0.036,1.787
		c0,0-0.036,0.561,1.044,0.522l-0.145,1.712v1.119l-0.357,1.006c0,0-0.94,2.049-0.725,2.049c0,0,0.291,0.223,0.397,0.223
		c0.108,0,0.611,0.038,0.611,0.038h0.829l1.69,0.037l0.289-0.448l0.075,0.373l0.681,0.075l-0.071-1.976c0,0,0.217-1.079-0.108-1.229
		c0,0-0.537-2.271-0.502-2.979c0,0,0.646-0.372,0.79-0.745v-1.414l-0.18-0.15c0,0-0.323-5.587,0.071-6.518
		c0,0,0.612-1.044-0.286-2.234c0,0,0.286-1.9,0.25-2.608c0,0,0.938-6.184,1.622-6.704l0.54-0.223c0,0,0.43-3.354,0.18-4.283
		c0,0,0.179-1.639-0.07-2.46c0,0-0.328-1.414-0.254-1.711c0,0-0.074-2.907-0.109-3.092c0,0,0.179-0.856,0.722-0.893
		c0,0,1.295-1.676,1.51-2.608c0,0,0.25-0.93,0.323-1.191c0,0,0.11-0.262,0.215-1.042c0,0,0.183-1.566,0.218-2.124
		c0,0,0.105-1.752,0.037-2.085c0,0,0.069-0.67-0.394-0.821l-1.515-0.521l-0.648-0.598l-0.611-0.295c0,0-0.685-2.234-0.038-3.018
		l0.111-0.447c0,0,2.194-2.458,1.547-4.06C32.924,24.53,31.263,22.237,28.134,22.79z"/>
	<path fill="#1D1D1B" d="M44.187,23.046l-1.919-0.029c0,0-2.686,1.128-3.011,2.104l0.03,0.215c0,0-0.678,0.977-0.532,1.801v0.732
		c0,0-0.588,1.068-0.413,1.161c0,0,0.413,0.213,0.503,0.153c0,0-0.028,0.427-0.149,0.519l0.03,0.246l0.236,0.184l-0.058,0.212
		l0.088,0.335c0,0,0,1.069,0.443,1.1l0.293,0.306l-0.236,0.458c0,0-1.12,0.427-1.207,0.946l-0.209,0.671c0,0-4.1,5.681-4.129,6.81
		c0,0-1.625,5.092,0.946,11.114l-0.228,2.814l1.737,0.704c0,0-0.315,8.097-0.102,8.79c0,0,0.14,1.174,0.281,1.393
		c0,0,0.035,1.024,0.177,1.1l0.495,0.365c0,0-0.036,1.21,0.357,1.724c0,0-0.425,5.858-0.213,6.224l-0.105,0.807
		c0,0-1.1,1.685-0.957,2.308c0,0-1.064,1.354-1.026,1.501c0,0-1.238,0.879-1.419,0.879c0,0-3.111,0.293-0.599,1.574l1.311,0.146
		l2.935,0.111l2.337-0.111l0.777-0.036c0,0,1.629,0.221,1.771,0.147l0.246-0.44l0.071-0.44c0,0,1.416-10.51,0.497-13.951
		c0,0-0.073-0.881-0.179-0.916c0,0,0.179-0.476,0-0.623l-0.069-0.731v-1.832c0,0,0.814-6.848,1.062-7.142l0.354-0.622
		c0,0,1.275,0.219,1.559-0.365c0,0,0.211-1.356,0.604-2.125c0,0,0.281-2.563,0.281-2.747c0,0-0.249-1.318,0.212-1.978
		c0,0-0.356-0.842-0.356-1.025c0,0,0.64-2.527,0.64-4.249c0,0,0.67-6.774-0.249-8.496c0,0,0.671,0.183,0.53-1.904
		c0,0,0.671-0.512,0.461-1.283c0,0,1.203-0.952,1.026-1.464c0,0-0.034-1.171-2.76,0.256l-0.567-1.464c0,0,2.266-3.042-0.354-4.982
		c0,0-0.21,0-0.568-0.514C44.861,23.485,44.676,23.081,44.187,23.046z"/>
	<path fill="#1D1D1B" d="M75.15,21.241c0,0-1.618-0.244-3.054,0.243c0,0-1.747,1.835-1.59,2.08l-2.479,0.487
		c0,0-0.261,1.645,2.295,1.213l0.185-0.026c0,0-0.13,0.728-0.026,0.891c0,0-0.681-0.054-0.444,0.376c0,0,0.025,0.407,0.183,0.513
		c0,0-0.312,0.406-0.157,0.624c0,0,0.13,0.296,0.445,0.351c0,0,0.233,0.565,0.337,0.646l0.131,0.108l-0.076,0.136
		c0,0,0.206,0.243,0.206,0.434c0,0-0.261,1.187,0.707,1.078c0,0,0.729,0.81,1.539,0.893l-0.522,0.916l-0.079,0.621l-0.808,0.623
		l0.155,0.295c0,0-3.732,5.648-5.293,20.82c0,0,1.661,0.572,2.316,0.207c0,0-0.123,4.42,0.191,5.021c0,0-0.131,4.308,0.133,5.589
		c0,0,2.106,8.153,2.029,9.49c0,0-0.711,3.711,0.999,3.926c0,0-0.315,0.602-0.446,0.656c0,0-1.239,0.327-1.765,0.981
		c0,0-0.528,0.219-0.581,0.301c0,0-1.237-0.355-1.607,0.054c0,0-0.633,0.845-0.554,1.253c0,0,0.736,0.52,1.925,0.547l3.926,0.163
		h0.211l2.479-0.027h1.475l2.477,0.056l0.5-0.11l0.106-0.027l-0.027-0.626l0.185-0.11l-0.078-1.663c0,0,0.421-0.6,0-0.818
		c0,0,0.078-1.008-0.237-1.443v-1.065c0,0,0.052-1.198-0.314-2.372c0,0,0.499-3.846,0.265-4.745c0,0,0.92-9.518,0.447-11.208
		c0,0,0.973-1.01,1.104-6.846c0,0,0.347-0.052,0.503-0.191c0,0,0.291-4.769,0.291-4.988c0,0,1.422-1.256,1.527-5.346
		c0,0,0.026-1.417-0.606-3.026c0,0-0.396-1.992-0.29-2.783c0,0,0.053-1.444,0.026-1.771c0,0-0.314-2.155-1.634-3
		c0,0-2.688-2.102-2.794-2.127l-1.026-0.874c0,0,0.632-0.762,0-1.689l-0.107-0.165l0.055-0.708l-0.081-0.219l-0.106-0.543v-0.138
		c0,0-0.315-1.253-0.579-1.5l-1.422-1.172L75.15,21.241z"/>
	<path fill="#1D1D1B" d="M52.651,17.567c0,0,1.122-0.477,1.486-0.307c0,0,1.644-0.238,1.776,0.444l0.492,0.441
		c0,0,0.989-0.1,0.791,0.923c0,0,0.331,0.41,0.331,0.75c0,0,0.658,0.271,0.495,0.582c0,0,0.03,0.679-0.361,0.918
		c0,0,0.098,0.17-0.068,0.339c0,0,0.198,1.331-0.329,1.776c0,0,0.264,0.884,0.232,1.122c0,0,1.381,0.443,1.679,1.125l0.099,0.752
		c0,0,2.041,1.976,2.503,3.51c0,0-0.198,1.706-0.064,2.317c0,0,0.166,6.786,1.087,9.683c0,0,2.999,7.398,3.36,7.669
		c0,0-1.384,1.639-4.02,1.536v0.306l-0.792,0.102l-0.163,1.604l-0.361,0.271c0,0,0,1.703-0.463,2.012c0,0-0.758,0.272-0.196,1.602
		c0,0,0.359,2.046-0.067,3.137c0,0,0,0.853,0.364,1.297c0,0,0.821,4.363,0.724,5.386c0,0,0.494,4.637,0.527,4.772
		c0,0,1.218,7.159,0.428,8.318l-0.066,0.853l-0.131,0.305c0,0,0,0.547,0,0.683c0,0.138,0.131,0.478,0.131,0.478l-1.218,0.207
		l-1.481,0.17c0,0-0.463-0.036-0.596-0.036c-0.13,0-2.373,0.036-2.373,0.036l-1.713,0.033h-1.843l-0.396-0.308
		c0,0-1.154-0.374-0.856-1.057l0.79-0.647h0.889l1.517-0.75c0,0,0.527-0.852,1.286-0.785l0.228-0.58l-0.031-0.783
		c0,0-0.461-0.205-0.428-0.717l0.134-0.75c0,0-0.824-3.648-0.824-4.228c0,0-1.683-3.306-2.012-6.408c0,0-1.318-8.114-1.318-9.784
		c0,0-0.098-4.158-0.624-4.943c0,0-0.792-0.988-0.89-1.396l0.032-1.435l-0.096-0.475l0.064-1.706c0,0,0.098-0.238,0-0.75
		c-0.101-0.509-0.064-1.704-0.064-1.704l-0.067-3.24c0,0,0.163-1.227,0.326-1.43l0.329-0.988l0.234-0.617
		c0,0,0.261-0.509,0.261-0.783c0-0.271,0.133-0.612,0.133-0.612l0.296-0.512v-0.409c0,0-2.337-1.5-1.579-2.35l0.856-0.718
		l0.229-0.238c0,0-1.977-1.842-0.791-2.762c0,0,0.133-0.514,0.727-0.442c0,0,0.162-0.512,0.659-0.411c0,0,0.821-0.477,1.12,0.035
		c0,0,0.294,0.376,0.724,0.409l-0.199-0.579c0,0-0.524-0.648-0.689-0.886c0,0-1.319-0.171-1.088-1.16c0,0-1.022-1.191-0.657-2.932
		l0.064-0.273c0,0-0.194-0.271-0.299-0.647l-0.064-0.374c0,0-0.561-0.888-0.46-1.025c0,0,0.032-0.476,0.261-0.647
		c0,0-0.033-0.783,0.165-0.852c0,0,0.464-0.956,0.824-0.988C51.564,18.046,52.255,17.568,52.651,17.567z"/>
</g>
</svg>
