<?xml version="1.0" encoding="utf-8"?>
<!-- Generator: Adobe Illustrator 15.0.2, SVG Export Plug-In . SVG Version: 6.00 Build 0)  -->
<!DOCTYPE svg PUBLIC "-//W3C//DTD SVG 1.1//EN" "http://www.w3.org/Graphics/SVG/1.1/DTD/svg11.dtd">
<svg version="1.1" id="Ebene_1" xmlns="http://www.w3.org/2000/svg" xmlns:xlink="http://www.w3.org/1999/xlink" x="0px" y="0px"
	 width="100px" height="100px" viewBox="0 0 100 100" enable-background="new 0 0 100 100" xml:space="preserve">
<circle fill="#B2B2B2" cx="50" cy="50" r="50"/>
<g>
	<path d="M42.401,72.167c-0.048,0.108-0.048,0.373-0.048,0.433c0,0.061-0.18,0.757-0.193,0.864c-0.012,0.109-0.06,0.897-0.06,0.897
		S41.98,74.5,41.98,74.607c0,0-0.144,0.961-0.108,0.986c0.036,0.022,0.12,0.227,0.12,0.335c0,0.109,0,0.59-0.036,0.613
		s0.024,0.265,0.024,0.265s-0.024,0.864-0.072,0.912c-0.048,0.051-0.205,0.313-0.205,0.313l0.108,0.457l0.793-0.444
		c0,0-0.192-0.097-0.096-0.288c0.096-0.193,0.24-0.986,0.24-1.154s-0.048-0.205-0.096-0.241c-0.048-0.035-0.24-0.155-0.252-0.3
		c-0.012-0.145,0.181-0.648,0.24-0.734c0.061-0.084,0.132-0.239,0.132-0.239l0.217-1.081c0,0-0.036-0.193,0-0.229
		c0.036-0.036,0.276-0.806,0.252-0.89c-0.024-0.084-0.793-1.658-0.793-1.658S42.45,72.058,42.401,72.167z"/>
	<path d="M37.604,56.565c-0.052-0.488,0.263-0.946,0.361-1.066c0.098-0.121,0.285-0.136,0.285-0.136l-0.075-0.15l-0.63-0.209
		c0,0-0.608,2.05-0.316,3.318c0.293,1.269,1.165,1.291,1.165,1.291l0.052-0.503l0.127-1.351c0,0-0.465-0.167-0.593-0.271
		C37.852,57.384,37.657,57.054,37.604,56.565z"/>
	<path d="M37.677,53.51l-0.213,0.055c0,0,0.143,0.074,0.178,0.064C37.677,53.621,37.677,53.51,37.677,53.51z"/>
	<path d="M38.589,53.483c0.035-0.154,0.017-0.311,0.017-0.311s-0.047,0.082-0.148,0.112c-0.101,0.03-0.374,0.122-0.374,0.122
		l-0.136,0.3l0.406,0.136C38.354,53.843,38.553,53.639,38.589,53.483z"/>
	<path d="M38.235,55.987c0.022-0.037,0.044-0.061,0.044-0.083s-0.007-0.211-0.097-0.203c0,0-0.309,0.376-0.301,0.729
		c0.008,0.354,0.053,0.669,0.196,0.781c0.143,0.112,0.548,0.294,0.548,0.294l0.06-0.114L38.242,56.1
		C38.242,56.1,38.212,56.025,38.235,55.987z"/>
	<path d="M47.583,65.41c0,0-0.127-0.502-0.277-1.028c-0.151-0.525-0.542-1.426-0.542-1.426h-0.217c0,0-0.008,0.052-0.008,0.111
		c0,0.062-0.09,0.263-0.09,0.263s-0.045,0.158-0.007,0.264s-0.09,0.488-0.09,0.488l0.477,0.443l-0.144,0.325
		c0,0,0.115,1.034,0.086,1.513c-0.029,0.479-0.335,1.082-0.373,1.129c-0.038,0.048,0.038,0.278,0.038,0.278s0.326,0.623,0.44,1.023
		c0.115,0.403,0.058,1.321,0.039,1.408c-0.02,0.086-0.077,0.152-0.115,0.257c-0.039,0.106,0.019,0.317,0.095,0.365
		s0.058,0.249,0.058,0.277s0.019,0.229,0.038,0.259c0.02,0.028-0.019,0.306-0.067,0.372c-0.048,0.068,0.01,0.345,0.01,0.345
		c0.45-0.632,0.769-2.574,0.837-3.047c0.067-0.474,0.037-1.704,0.037-1.704l-0.045-0.016l-0.06-0.571l0.068-0.036l-0.15-0.82
		L47.583,65.41z"/>
	<path d="M75.112,19.612c-0.64-0.266-0.586-1.488-0.586-1.488h-7.333c0.116,0.312,0.135,0.635,0.103,0.785l0.479,6.835L67.94,31.4
		l-0.026,0.985c0,0-0.09,1.358-1.275,1.676c-1.039,0.334-1.534-0.436-1.534-0.436s-0.318-0.362-0.323-0.931
		c-0.031-0.715-0.268-9.793-0.268-9.793l-0.062-1.246c0,0,0.296-0.272,0.311-0.133c0.069,0.265,0.064,1.702,0.064,1.702l0.176,6.01
		l0.091,3.327c0,0,0.184,1.09,0.697,1.168c0.45,0.212,1.102,0.038,1.455-0.432c0.3-0.488,0.337-0.772,0.337-0.772v-2.717
		l-0.101-2.711l-0.236-3.736l-0.288-4.025c0,0,0.071-0.723-0.197-1.21h-1.471c0,0,0,0,0,0h-0.322c0,0,0.001,0,0.001,0H24.056v65.62
		l47.946,0.132c0,0,0-0.53,0.291-0.584c0.293-0.054,2.233-0.452,2.233-1.143c0-0.691,0-39.893,0-39.893s-0.054-1.223,0.586-1.489
		c0.637-0.266,2.885-0.742,2.885-2.461c0-1.089,0-7.015,0-7.015v-4.441c0,0,0-3.688,0-4.777
		C77.997,20.354,75.749,19.878,75.112,19.612z M51.165,49.025c0,0-0.082-0.006-0.057,0.064c0.025,0.07,0.063,0.153,0.044,0.204
		c-0.019,0.051-0.115,0.07-0.115,0.07l0.008,0.114l-0.071,0.014v5.092c0,0-0.025,1.008-1.237,1.34v0.242l-0.147,0.114v0.308h-0.307
		v0.465l0.135-0.089l0.179-0.007l0.069,0.076c0,0,0.052-0.236,0.186-0.3s0.339-0.013,0.415,0.262s0.013,0.76-0.243,0.805
		c-0.254,0.044-0.306-0.294-0.306-0.294l-0.115,0.025c0,0-0.191,0.007-0.211-0.013C49.372,57.5,49.372,57.5,49.372,57.5h-0.408
		l-0.083,0.082l-0.306,0.008c0,0-0.064,0.21-0.21,0.21c-0.147,0-0.261-0.121-0.261-0.121l-0.045,0.3c0,0-0.191,0.707-0.23,1.091
		c-0.039,0.382-0.146,1.454-0.127,1.8c0.019,0.344,0,0.918,0,0.918s0.996,1.998,1.29,4.053c0.292,2.056,0.204,3.676-0.333,5.425
		c-0.536,1.748-2.067,3.855-2.067,3.855s0,0.713-0.038,0.827c-0.039,0.116-0.141,0.384-0.141,0.384s0.319,0.255,0.281,0.676
		c-0.038,0.422-0.434,1.864-0.434,1.864V79.1c0,0-0.715,0.384-3.815,0.28c-0.32-0.009-0.664-0.024-0.664-0.024v0.204
		c0,0-2.706,0.217-4.084,0.191s-2.591-0.153-2.591-0.153s-0.191-0.293-0.166-0.433c0.025-0.142,0.293-0.358,0.6-0.422
		c0.306-0.063,0.74-0.142,0.74-0.142s0.868-0.549,0.97-0.587c0.103-0.038,0.128-0.113,0.128-0.113l0.217-0.346
		c0,0-0.141-0.165-0.191-0.522c-0.051-0.358-0.076-0.588,0.217-0.791c0.293-0.204,0.357-0.282,0.357-0.282l-0.064-0.574
		c0,0,0.039-0.127,0.102-0.203c0.064-0.077-0.089-1.175-0.089-1.175s-0.089-0.422-0.051-0.753s0.038-1.136,0.038-1.136
		s0.051-0.522,0.09-0.778c0.039-0.255,0.281-0.92,0.281-0.92s-0.255-0.293-0.269-0.433c-0.012-0.141-0.051-0.587-0.089-0.626
		c-0.038-0.038-0.127-0.408-0.14-0.663c-0.013-0.255,0.025-1.686,0.217-2.464c0.191-0.778,0.459-1.672,0.459-1.672l0.064-0.166
		c0,0-0.064-0.023-0.064-0.127c0-0.102-0.013-0.16,0.039-0.229c0.051-0.07,0.121-0.192,0.102-0.332
		c-0.02-0.141-0.026-0.523-0.026-0.523l-0.089-0.064c0,0-0.077-0.045-0.019-0.102c0.057-0.058,0.121-0.063,0.121-0.063
		s0.064-0.403,0.058-0.479c-0.007-0.076-0.02-0.3-0.02-0.3s-0.179,0.28-0.204,0.46c-0.026,0.177-0.02,0.477-0.02,0.477
		s-0.281-0.051-0.504-0.165c-0.223-0.113-0.243-0.147-0.23-0.229c0.013-0.082,0.141-0.549,0.141-0.549s0.166-0.331,0.255-0.504
		s0.217-0.307,0.217-0.307s-0.051-0.229,0.006-0.286c0.057-0.06,0.089-0.198,0.089-0.198s-0.076-0.104-0.076-0.142
		s0.108-0.555,0.108-0.555l-0.02-0.211c0,0-0.689-0.083-1.084-0.676c-0.396-0.593-0.492-1.441-0.485-2.023
		c0.007-0.58,0.211-1.511,0.211-1.511l0.197-0.829l-0.612-0.213l-0.146,0.059c0,0-0.064,0.121-0.089,0.108s-0.07-0.058-0.07-0.058
		s-0.153,0.114-0.198,0.104c-0.045-0.015-0.089-0.059-0.089-0.059l-0.115-0.013c0,0-0.312,0.529-0.645,0.561
		c-0.332,0.033-0.76,0.007-1.085-0.458c-0.326-0.466-0.274-0.837-0.274-0.837l-0.179,0.16c0,0-0.038,0.006-0.172-0.025
		c-0.134-0.033-0.313-0.071-0.313-0.071l-0.025,0.084l-0.408-0.104L32.8,54.104l-0.37-0.114l0.057-0.28l-0.581-0.236
		c0,0-0.052,0.102-0.077,0.102c-0.025,0-0.153-0.058-0.153-0.058l0.058-0.28l-0.555-0.198c0,0-0.102,0.063-0.23,0.038
		c-0.127-0.025-0.613-0.191-0.613-0.191l-0.152,0.039l-0.728-0.224c0,0-0.058-0.031-0.058-0.09c0-0.056,0.064-0.224,0.064-0.224
		s-0.006-0.081-0.14-0.045c-0.134,0.04-0.402,0.129-0.402,0.129l-0.249,0.019c0,0,0.07-0.211,0.127-0.382
		c0.058-0.173,0.364-0.971,0.332-1.009c-0.031-0.038,0.135,0.045,0.186,0.115s0.223,0.287,0.287,0.331
		c0.063,0.045,0.102,0.059,0.102,0.059l0.058-0.198c0,0,0-0.096,0.051-0.083c0.051,0.013,0.785,0.198,0.785,0.198
		s0.039,0.038,0.077,0.083c0.038,0.044,0.453,0.134,0.453,0.134s0.357,0.127,0.371,0.166c0.013,0.037,0.293,0.113,0.293,0.113
		l0.038-0.095h0.268c0,0,0.051-0.077,0.071-0.077c0.019,0,0.191,0.064,0.191,0.064l0.006,0.057l0.134,0.025v0.038h-0.076v0.051
		l0.389,0.109c0,0,0.09,0.013,0.122-0.013c0.031-0.025-0.077-0.153-0.077-0.153s-0.096-0.076-0.057-0.165
		c0.038-0.09,0.21-0.16,0.21-0.16s0.063-0.025,0.102,0c0.038,0.025,0.108,0.064,0.108,0.064s0.019-0.115,0.127-0.129
		c0.108-0.012,0.306-0.023,0.306-0.023l0.21,0.178c0,0,0.096-0.033,0.198-0.014s0.198,0.09,0.198,0.09l0.147,0.19
		c0,0,0.089-0.025,0.16-0.025c0.07,0,0.115,0.007,0.115,0.007l0.421-0.242l0.153-0.013c0,0,0.057-0.114,0.146-0.178
		s0.307-0.224,0.319-0.269s0.102-0.16,0.127-0.172c0.025-0.014,0.044-0.211,0.115-0.301c0.071-0.09,0.115-0.14,0.115-0.166
		s0.058-0.224,0.23-0.262s0.172-0.038,0.172-0.038l0.396-0.849c0,0-0.02-0.261,0.108-0.517c0.128-0.254,0.485-0.517,0.485-0.517
		s-0.095-0.121,0.083-0.446c0.179-0.325,0.44-0.593,0.44-0.593s0.434-0.613,0.492-0.702c0.057-0.09,0.127-0.275,0.127-0.275
		s0.153-0.268,0.242-0.357c0.09-0.089,0.179-0.178,0.179-0.178s-0.07-0.013-0.089-0.044s-0.032-0.083-0.032-0.083
		s-0.077-0.032-0.096-0.064c-0.02-0.032-0.02-0.032-0.02-0.032s-0.178,0.326-0.318,0.293c-0.141-0.032-0.275-0.057-0.728-0.562
		c-0.453-0.504-0.511-0.619-0.517-0.753c-0.005-0.109,0.077-0.191,0.115-0.21l0.134-0.114l0.058-0.02c0,0-0.013-0.07,0-0.09
		c0.013-0.019,0.217-0.186,0.217-0.186l0.058,0.014l0.076-0.045l0.249,0.243l0.141-0.109l0.063,0.051c0,0,0.038-0.057,0.051-0.077
		c0.013-0.019,0.127-0.14,0.191-0.172c0.064-0.032,0.16-0.134,0.16-0.134h-0.14c0,0-0.064-0.006-0.07-0.077
		c-0.006-0.07,0.006-0.204,0.006-0.204l0.077-0.045v-2.689l-0.769-0.039c0,0-0.156-0.009-0.156-0.076
		c0-0.067,0.277-0.409,0.277-0.409s-0.022-0.028,0-0.083c0.022-0.054,0.058-0.105,0.058-0.105s0.048-0.989,0.112-1.238
		c0.063-0.249,0.108-0.255,0.108-0.255s0.485-1.474,1.468-1.985c0.983-0.51,2.246-0.69,3.274,0.077
		c0.982,0.733,1.735,2.986,2.061,3.248c0,0,0.153,0.115,0.16,0.179c0.006,0.063-0.115,0.133-0.294,0.152
		c-0.179,0.02,0.645,0.179,1.621,1.143c0,0,0.032,0.069-0.051,0.153c-0.083,0.083-0.472,0.6-1.091,0.727
		c0,0-0.071,0.045,0.019,0.108c0.089,0.064,0.166,0.205,0.166,0.421c0,0.217-0.083,0.281-0.083,0.281s-0.083,0.109,0.019,0.172
		c0.103,0.063-0.038,0.243-0.038,0.243l0.166,0.205c0,0,0.376,0.146,0.479,0.242c0.102,0.096,0.338,0.268,0.338,0.268l0.357,0.16
		l0.019-0.198c0,0,0.032,0.166,0.077,0.185c0.044,0.019,0.21,0.198,0.223,0.262c0.013,0.063,0.096,0.261,0.096,0.261
		s-0.044,0.033-0.044,0.064s0.006,0.095,0.006,0.095l0.095,0.063c0,0,0.281-0.459,0.83-0.631c0.548-0.172,1.974-0.329,2.628,0.613
		c0.204,0.293,0.198,0.485,0.198,0.485l0.006,2.002h0.07v0.186h0.115v0.147h0.025V49.025z M66.478,58.174
		c0.234,0.311,0.312,3.358,0.312,3.358l-0.026,0.702l-0.757-0.052c-0.051-0.156-1.038-0.105-1.038-0.105l-0.574,4.711
		c0.13,1.383-1.225,3.907-1.225,3.907c-0.388,0.337-0.623,0.806-0.623,0.806c0.155,0.417-0.263,3.386-0.263,3.386
		c-0.129,0.209-0.076,0.859-0.076,0.859c0.521,0.204,0.859,1.793,0.859,1.793l0.338,0.368c0.156-0.028,0.989,0.363,0.989,0.363
		c0.962-0.053,1.327,0.78,1.327,0.78c0.157,0.494-2.654,0.677-2.654,0.677c-0.574-0.13-2.603-0.077-2.603-0.077
		c-0.494,0.077-1.484,0.103-1.484,0.103c-0.26,0-0.103-0.44-0.103-0.44l-0.938-0.025c-0.312,0-0.185-1.123-0.185-1.123
		c-0.311,0.054-0.206-1.013-0.206-1.013c0.052-0.599,0.206-4.868-0.026-5.648l-0.029-0.106c-0.159-0.786,0.342-2.004,0.342-2.004
		l0.285-1.484c0.055-0.701,0.366-1.508,0.366-1.508c-0.159-0.444-0.027-3.279-0.027-3.279c-0.493,0-1.066-0.34-1.066-0.34
		c-0.26,0-1.171-0.39-1.171-0.39c-0.523-0.236,0-0.938,0-0.938c-0.025-0.338,0.468-1.353,0.468-1.353
		c0.18-0.157,0.416-1.563,0.416-1.563c-0.34,0-0.391-0.442-0.391-0.442c-0.389,0.026-0.468-0.365-0.468-0.365
		c0-0.206-0.702-0.153-0.702-0.153c-0.365-0.027-0.392-0.312-0.392-0.312c0-0.233,0.262-0.13,0.262-0.13
		c-0.13,0-0.079-0.417-0.079-0.417c0.026-0.287,0.312-0.235,0.312-0.235l0.051-0.364c-0.413-0.13-0.623-1.12-0.623-1.12
		c-0.023-0.261-0.078-0.572-0.078-0.572c-0.337-0.44,0.365-1.145,0.365-1.145c-0.026-0.571,0.311-1.17,0.311-1.17
		c-0.025-0.442,0.626-1.12,0.626-1.12c-0.052-0.468,0.077-1.72,0.077-1.72c-0.754-0.729-0.154-1.562-0.154-1.562
		c0.104-0.262,0.104-0.625,0.104-0.625c-0.208-0.808,1.301-2.368,1.301-2.368s0,0.544,0.052,0.08c0.053-0.47,1.223-0.73,1.223-0.73
		c0.262-0.104,0.652-0.573,0.652-0.573l0.913-0.813l0.109-0.5c-0.022-0.003-0.046-0.001-0.068-0.006
		c-0.066-0.014-0.143-0.008-0.212-0.01c-0.088-0.017-0.182-0.054-0.269-0.062c-0.241-0.023-0.277-0.368-0.27-0.556
		c0.013-0.277,0.188-0.482,0.366-0.683c0.084-0.095,0.168-0.196,0.219-0.313c0.058-0.134,0.076-0.281,0.099-0.424
		c0.018-0.109,0.035-0.218,0.076-0.323c0.022-0.06,0.022-0.128,0.028-0.192c0.008-0.077,0.033-0.142,0.059-0.216
		c0.088-0.257,0.155-0.52,0.239-0.778c0.156-0.488,0.383-0.939,0.85-1.217c0.183-0.108,0.35-0.146,0.554-0.195
		c0.094-0.022,0.14-0.079,0.218-0.132c0.043-0.028,0.12-0.04,0.131-0.082s0.053-0.049,0.093-0.055
		c0.037-0.004,0.076-0.009,0.106-0.033c0.029-0.024,0.006-0.064,0.051-0.076c0.039-0.029,0.079,0.022,0.121-0.015
		c0.034-0.028,0.029-0.072,0.076-0.091c0.08-0.034,0.186,0.015,0.255,0.052c0.033,0.017,0.065,0.038,0.095,0.061
		c0.042,0.034,0.038,0.013,0.093,0.013c-0.002,0.045-0.015,0.054,0.032,0.075c0.033,0.017,0.068,0.033,0.103,0.05
		c0.047,0.023,0.034,0.034,0.031,0.082c0.031,0.01,0.062,0.022,0.091,0.035c0.031,0.014,0.062,0.028,0.094,0.042
		c-0.003,0.06,0.018,0.047,0.071,0.063c0.045,0.013,0.068,0.053,0.114,0.075c0.089,0.04,0.186,0.059,0.276,0.096
		c0.148,0.06,0.285,0.165,0.401,0.268c0.493,0.438,0.599,1.107,0.67,1.715c0,0.079-0.002,0.157-0.003,0.237
		c-0.001,0.076,0.018,0.143,0.025,0.219c0.018,0.156,0.001,0.313,0.015,0.47c0.027,0.313,0.245,0.491,0.496,0.661
		c0.079,0.053,0.198,0.093,0.24,0.18c0.012,0.023,0.016,0.048,0.014,0.073c-0.003,0.047-0.05,0.041-0.091,0.052
		c-0.103,0.025-0.205,0.051-0.308,0.078c-0.147,0.038-0.262,0.148-0.422,0.129c-0.066-0.008-0.143,0.003-0.219,0.021l-0.02,0.23
		l0.312,0.912c0.078,0.26-0.182,0.339-0.182,0.339l-0.312,0.103c0.104,0.132-0.077,0.496-0.077,0.496l-0.08,0.208
		c-0.104,0-0.026,0.338-0.026,0.338c0,0.496-0.729,0.573-0.729,0.573l-0.415,0.313c0.339,0.077,1.274,1.796,1.274,1.796l-0.548,0.13
		c0.287,0.312,1.406,3.045,1.406,3.045c0.444,0.209,0.702,2.553,0.702,2.553c-0.022,0.31-0.022,1.012-0.022,1.012
		c0.544,0.653,0.624,2.631,0.311,2.97l-0.04,0.051C66.406,56.938,66.478,58.174,66.478,58.174z"/>
	<path d="M48.562,56.287l-0.128-0.127l-0.006-0.211c0,0-0.849-0.172-1.206-0.874c0,0-0.051,0.542-0.122,0.618
		c0,0,0.217,0.147,0.313,0.684l0.606,0.063l0.032,0.293l-0.07,0.027l-0.02,0.229l0.089-0.02l0.039-0.063c0,0,0.032-0.153,0.134-0.16
		c0.103-0.006,0.255,0.02,0.255,0.02l0.026,0.09l0.063,0.02v0.057h0.3v-0.331h-0.306V56.287z"/>
</g>
</svg>
