<?xml version="1.0" encoding="utf-8"?>
<!-- Generator: Adobe Illustrator 15.0.2, SVG Export Plug-In . SVG Version: 6.00 Build 0)  -->
<!DOCTYPE svg PUBLIC "-//W3C//DTD SVG 1.1//EN" "http://www.w3.org/Graphics/SVG/1.1/DTD/svg11.dtd">
<svg version="1.1" id="Ebene_1" xmlns="http://www.w3.org/2000/svg" xmlns:xlink="http://www.w3.org/1999/xlink" x="0px" y="0px"
	 width="100px" height="100px" viewBox="0 0 100 100" enable-background="new 0 0 100 100" xml:space="preserve">
<circle fill="#B2B2B2" cx="50" cy="50" r="50"/>
<path d="M84.433,64.028c-0.349-0.524-0.853-0.925-1.385-1.25c-2.946-9.08-5.725-18.219-8.565-27.332
	c-0.463-1.252-0.33-2.636,0.118-3.872c1.502-0.292,3.893-0.833,3.749-2.786c-0.479-0.642-1.19-0.978-1.976-1.068
	c-0.781,0.438-1.454,1.061-2.276,1.42c-0.062-0.12-0.185-0.357-0.244-0.475c-0.246,0.251-0.532,0.566-0.913,0.349
	c-2.776-0.887-5.416-2.174-8.189-3.068c-3.837-1.438-7.848-2.481-11.893-3.048c0.327-1.194-0.633-2.128-0.846-3.231
	c0.081-0.81-0.004-1.615,0.233-2.402c-0.197-0.086-0.391-0.17-0.584-0.257c0.057-1.198,0.449-2.348,0.614-3.532
	c-0.091-0.171-0.238-0.306-0.359-0.453c-1.255-0.102-2.512-0.084-3.765,0.029c-0.061,0.106-0.179,0.315-0.239,0.42
	c0.214,1.123,0.524,2.231,0.595,3.376c-0.937,0.354-0.255,1.253-0.43,1.957c0.313,1.15-0.471,2.139-0.837,3.166
	c0.294,0.406,0.09,0.809-0.23,1.119c-0.602,0.02-1.215,0.095-1.801-0.087c-3.209,1.088-6.488,2.044-9.522,3.579
	c-2.275,1.015-4.497,2.156-6.689,3.337c-1.415,0.63-2.666-1.214-4.072-0.418c-1.213,0.37-1.295,1.838-1.008,2.861
	c0.528,0.863,1.551,1.228,2.475,1.503c-2.818,9.178-5.717,18.333-8.55,27.506c0.155,1.755,1.834,2.75,3.15,3.659
	c2.341,1.006,4.953,0.94,7.455,0.917c2.779-0.318,5.727-0.604,8.147-2.142c0.909-0.965,2.342-1.891,2.145-3.404
	c-3.31-8.663-6.625-17.328-9.94-25.993c-0.25-0.503,0.033-1.036,0.104-1.544c3.675-0.924,7.05-2.816,10.79-3.522
	c1.196-0.289,2.409-0.549,3.638-0.66c1.46,0.041,2.892-0.474,4.354-0.263c0.14,0.782,0.638,1.421,0.897,2.155
	c0.045,1.411,0.019,2.825-0.146,4.228c-0.182,5.45-0.07,10.913-0.118,16.368c-0.112,0.839-0.173,1.695,0.011,2.534
	c-0.188,0.137-0.372,0.276-0.555,0.416c-0.002,0.222-0.002,0.445-0.002,0.668c0.199,0.137,0.399,0.272,0.604,0.407
	c-1.351,2.563,0.266,5.462-0.104,8.154c-0.6,1.403-0.768,3.307,0.502,4.396c-0.349,1.613-1.372,3.164-1.198,4.901
	c-3.44,0.625-7.101,1.103-10.025,3.182c-1.046,0.447-2.094,1.414-1.885,2.665c-0.242,1.968,1.503,3.256,2.976,4.167
	c3.515,1.808,7.535,2.273,11.428,2.378c3.867-0.172,7.867-0.633,11.349-2.472c1.698-0.841,3.501-2.5,3.028-4.593
	c-0.603-1.661-2.23-2.615-3.707-3.407c-2.521-1.132-5.314-1.481-7.983-1.919c0.207-1.433-0.5-2.731-0.926-4.053
	c-0.661-1.134,0.949-1.924,0.755-3.085c0.249-1.199-1.054-2.12-0.624-3.291c0.21-1.376,0.412-2.752,0.471-4.141
	c0.32-0.886-0.04-1.822-0.408-2.634c-0.097-0.437,0.404-0.68,0.623-0.984c-0.191-0.325-0.441-0.604-0.68-0.892
	c-0.147-2.472,0.228-4.967-0.197-7.41c0.041-4.9,0.197-9.812-0.125-14.703c-0.071-1.164,0.617-2.202,1.096-3.215
	c0.669-0.116,1.347-0.013,2.018,0.041c4.079-0.229,8.076,0.876,11.986,1.913c2.071,0.758,4.227,1.232,6.406,1.511
	c0.286,1.643-0.926,3.058-1.496,4.528c-3.059,8.43-6.098,16.869-9.141,25.303c-0.231,0.337-0.546,0.607-0.824,0.905
	c-0.396,2.44,2.088,3.891,3.771,5.135c3.802,1.541,8.01,1.69,12.055,1.496c2.471-0.171,4.757-1.441,6.411-3.248
	C84.272,65.32,84.672,64.654,84.433,64.028z M30.023,41.028c2.311,6.024,4.604,12.058,6.92,18.08
	c0.052,0.168,0.075,0.347,0.104,0.522c-1.025-0.364-2.171-0.386-3.261-0.441c-0.556-3.587-1.684-7.079-2.291-10.66
	c-0.453-0.937-0.247-2.019-0.709-2.952c-0.459-1.5-0.659-3.068-1.089-4.576C29.779,41.007,29.942,41.021,30.023,41.028z
	 M31.833,55.743c0.211,1.062,0.584,2.097,0.608,3.188c-2.588-0.024-5.159,0.256-7.727,0.495c-1.734,0.287-3.534,0.502-5.11,1.335
	c-0.061-0.048-0.181-0.14-0.244-0.187c2.562-8.198,5.097-16.41,7.737-24.583c0.049,0.056,0.15,0.168,0.201,0.224
	C28.796,42.727,30.328,49.232,31.833,55.743z M72.902,54.109c-0.325,2.268-0.193,4.549-0.149,6.826
	c-2.42-0.375-4.849,0.01-7.272,0.08c-0.497,0.027-1.153,0.597-1.54,0.232c2.801-7.945,5.73-15.85,8.559-23.789
	c0.157-0.452,0.443-0.843,0.605-1.29C72.953,42.153,72.89,48.12,72.902,54.109z M73.959,60.959
	c-0.192-5.468,0.387-10.929,0.113-16.402c0.288-1.654,0.053-3.301,0.109-4.97l0.301,0.098c2.15,6.855,4.307,13.71,6.451,20.569
	c0.208,0.584,0.404,1.18,0.427,1.81C78.916,61.553,76.454,61.113,73.959,60.959z"/>
</svg>
