<?xml version="1.0" encoding="utf-8"?>
<!-- Generator: Adobe Illustrator 15.0.2, SVG Export Plug-In . SVG Version: 6.00 Build 0)  -->
<!DOCTYPE svg PUBLIC "-//W3C//DTD SVG 1.1//EN" "http://www.w3.org/Graphics/SVG/1.1/DTD/svg11.dtd">
<svg version="1.1" id="Ebene_1" xmlns="http://www.w3.org/2000/svg" xmlns:xlink="http://www.w3.org/1999/xlink" x="0px" y="0px"
	 width="100px" height="100px" viewBox="0 0 100 100" enable-background="new 0 0 100 100" xml:space="preserve">
<circle fill="#B2B2B2" cx="50" cy="50" r="50"/>
<path fill-rule="evenodd" clip-rule="evenodd" d="M76.268,56.97c0.666,0.033,0.748,0.563,1.41,0.599
	c-1.184-1.995-2.902-3.534-3.351-6.162c-0.474-0.094-0.824-0.296-1.059-0.6c-1.27-1.3-1.51-2.81-2.824-4.211
	c-1.65-1.767-4.248-2.776-5.11-4.81c-0.769-1.802-1.024-3.153-3.003-4.206c-0.006-1.94-2.541-3.749-0.878-5.26
	c0.702-0.101,0.711,0.396,1.411,0.299c2.639-2.193,3.633-4.246,4.058-7.963c-0.838-1.57-2.872-3.106-5.469-2.257
	c-2.696-3.064-7.196,2.082-3.175,3.458c-0.283,1.705,0.544,5.528-2.294,5.712c-2.25,0.145-2.458-2.099-3.354-3.608
	c-0.538-0.916-1.486-1.73-1.939-2.554c-1.535-2.795-1.83-5.843-3.35-8.417c-0.722-1.224-1.088-2.382-1.589-3.455
	c-1.365-2.958-4.613-4.404-5.291-7.066c0,0.301,0,0.601,0,0.904c-0.446,0.162-0.683-0.706-0.705,0
	c0.091,0.722,0.796,0.925,0.705,1.801c-0.424,0.065-0.381-0.272-0.883-0.149c0.011,0.695,1.082,0.482,1.416,0.903
	c0.306,1.391,1.583,1.954,2.471,2.855c0.44,2.371,1.253,4.764,2.287,7.211c1.008,2.384,1.408,4.917,2.294,7.217
	c0.405,1.046,1.376,2.07,1.588,3.156c0.298,1.521,0.176,4.232-1.056,4.809c-2.297-0.452-2.192-2.942-3.529-4.208
	c-0.821,0.181-0.974,0.351-1.942,0.15c0.055,0.648,0.014,1.211-0.705,1.204c-0.98-0.043-0.986-0.927-2.114-0.451
	c-1.783-1.329-2.029-3.656-2.822-5.863c-0.725-2.006-2.076-4.008-2.472-6.163c-0.561-3.042-0.637-5.412-1.586-7.814
	c-0.326-0.824-0.853-2.163-1.94-2.405c-1.498,1.208,0.161,3.639-0.178,5.71c-1.461,0.393-0.813,1.759-0.527,2.856
	c0.903,0.083,1.251,0.635,1.766,1.052c0.758,3.443-0.083,6.069,0.879,9.164c0.718,2.307,4.061,3.962,3.353,6.016
	c0.289,0.407,0.875,1.351,0.351,1.954c-0.804-0.017-0.952-0.592-1.94-0.45c0.142,0.68,1.215,0.567,1.413,1.203
	c-0.776,0.733,0.35,1.057,0,1.651c-0.787-0.091-1.824-0.75-2.472-0.452c0.979,0.717,2.642,0.855,3.353,1.804
	c-0.926,0.125-1.794-0.001-2.82-0.15c0.274,0.692-0.635,0.597-0.882,1.203c0.721,0.184,1.579,0.251,2.114,0.599
	c0.054,0.296-0.238,0.299-0.352,0.451c1.104,0.462,2.563,0.622,2.642,1.958c-0.767-0.007-1.594-0.057-1.939,0.297
	c0.674,0.031,1.515-0.085,1.588,0.454c-1.209,0.371-3.019,0.231-3.88,0.903c0.674-0.08,0.935,0.206,1.057,0.597
	c-0.133,0.388-1.303-0.107-1.23,0.454c0.156,0.667,1.429,0.381,1.409,1.202c-0.11,0.305-0.891,0.041-0.705,0.601
	c0.923,0.164,1.011,1.04,1.94,1.203c0.733,0.065,1.521-0.6,2.116-0.15c-0.042,0.563-0.723,0.585-1.235,0.751
	c1.082,0.525-0.17,1.594,0.529,2.104c0.405-0.213,1.309-0.779,1.94-0.301c-0.289,0.906-1.523,1.008-1.589,2.104
	c0.739,0.031,0.547-0.739,1.411-0.6c0.275,1.187-0.631,1.364-0.878,2.104c1.087,0.62,1.716,2.034,3.348,1.352
	c0.252,0.655-0.601,0.69-0.176,1.053c0.365,0.44,1.368,0.338,1.413,1.052c0.683,0.13,0.289-0.653,1.057-0.454
	c0.674,1.207,1.203,2.061,0.883,3.312c-0.447,1.744-0.648,3.763-0.705,5.108c-0.062,1.438,0.759,2.497,1.058,4.512
	c0.149,1.011-0.259,2.109-0.177,3.153c0.209,2.678,2.396,6.363,1.412,9.318c-0.168,0.507-0.78,0.926-0.879,1.504
	c-0.266,1.501,0.352,3.842,0.703,5.409c0.229,1.042,0.666,2.409,2.291,2.404c0.042-0.114,0.151-0.176,0.354-0.148
	c2.122-3.17-0.716-6.708-0.529-10.069c0.192-3.404,1.985-7.437,1.235-10.973c-0.133-0.641-0.636-1.233-0.706-1.802
	c-0.402-3.604,0.523-6.673,1.765-8.868c1.658,0.954,3.645,0.031,5.289-0.3c0.521-0.261,0.095-1.327,1.06-1.204
	c0.431,0.386,0.601,0.994,0.884,1.504c0.606-0.066,0.985,0.058,1.411,0.149c1.974-2.109-0.128-4.745,0.351-7.216
	c-2.359-1.146-1.912-4.681-4.056-6.01c1.671-0.747,1.519-2.344,0.707-3.607c1.055-1.608,3.434-2.083,5.288-3.004
	c0.641,1.663,2.373,2.767,3.705,4.207c0.512,0.552,0.82,1.237,1.412,1.805c1.019,0.973,4.948,2.955,5.294,4.207
	c0.343,1.253-1.099,2.518,0.351,3.607c0.906-0.197,0.105-1.096,0.527-1.504c1.931,0.609,1.591,3.155,3.353,3.908
	C77.159,57.91,75.61,57.453,76.268,56.97z"/>
</svg>
