<?xml version="1.0" encoding="utf-8"?>
<!-- Generator: Adobe Illustrator 15.0.2, SVG Export Plug-In . SVG Version: 6.00 Build 0)  -->
<!DOCTYPE svg PUBLIC "-//W3C//DTD SVG 1.1//EN" "http://www.w3.org/Graphics/SVG/1.1/DTD/svg11.dtd">
<svg version="1.1" id="Ebene_1" xmlns="http://www.w3.org/2000/svg" xmlns:xlink="http://www.w3.org/1999/xlink" x="0px" y="0px"
	 width="100px" height="100px" viewBox="0 0 100 100" enable-background="new 0 0 100 100" xml:space="preserve">
<circle fill="#B2B2B2" cx="50" cy="50" r="50"/>
<path id="path3397" fill="#FFCC00" d="M50,12.287l-1.225,3.771h-3.974l3.212,2.332l-1.226,3.783L50,19.842l3.212,2.332l-1.226-3.783
	l3.2-2.332h-3.962L50,12.287z M33.618,16.677l-1.226,3.783h-3.973l3.212,2.332l-1.225,3.771l3.2-2.333l3.212,2.333l-1.226-3.771
	l3.212-2.332h-3.961L33.618,16.677z M66.382,16.677l-1.225,3.783h-3.975l3.212,2.332l-1.225,3.771l3.212-2.333l3.212,2.333
	l-1.225-3.771l3.212-2.332h-3.973L66.382,16.677z M21.615,28.681l-1.226,3.771h-3.961l3.2,2.332l-1.225,3.771l3.212-2.332
	l3.211,2.332l-1.225-3.771l3.212-2.332H22.84L21.615,28.681z M78.375,28.681l-1.227,3.771h-3.962l3.199,2.32l-1.225,3.783
	l3.214-2.332l3.212,2.332l-1.227-3.771l3.212-2.332h-3.975L78.375,28.681z M17.225,45.062L16,48.833h-3.962l3.201,2.333
	l-1.226,3.771l3.224-2.331l3.201,2.331l-1.226-3.771l3.212-2.333H18.45L17.225,45.062z M82.764,45.062l-1.225,3.771h-3.962
	l3.199,2.333l-1.225,3.771l3.212-2.331l3.212,2.331l-1.227-3.759l3.214-2.344h-3.975L82.764,45.062z M21.615,61.444l-1.226,3.771
	h-3.961l3.2,2.333l-1.225,3.783l3.212-2.333l3.211,2.333l-1.225-3.783l3.212-2.333H22.84L21.615,61.444z M78.375,61.444
	l-1.227,3.771h-3.962l3.199,2.333l-1.225,3.783l3.214-2.333l3.212,2.333l-1.227-3.783l3.212-2.333h-3.975L78.375,61.444z
	 M33.618,73.437l-1.226,3.782h-3.973l3.212,2.332l-1.225,3.771l3.212-2.331l3.2,2.331l-1.226-3.771l3.212-2.332h-3.961
	L33.618,73.437z M66.382,73.437l-1.225,3.782h-3.975l3.212,2.321l-1.225,3.782l3.212-2.331l3.212,2.331l-1.225-3.782l3.212-2.321
	h-3.973L66.382,73.437z M50,77.826l-1.225,3.783h-3.974l3.212,2.32l-1.226,3.783L50,85.38l3.212,2.333l-1.226-3.783l3.2-2.32h-3.962
	L50,77.826z"/>
</svg>
