<?xml version="1.0" encoding="utf-8"?>
<!-- Generator: Adobe Illustrator 15.0.2, SVG Export Plug-In . SVG Version: 6.00 Build 0)  -->
<!DOCTYPE svg PUBLIC "-//W3C//DTD SVG 1.1//EN" "http://www.w3.org/Graphics/SVG/1.1/DTD/svg11.dtd">
<svg version="1.1" id="Ebene_1" xmlns="http://www.w3.org/2000/svg" xmlns:xlink="http://www.w3.org/1999/xlink" x="0px" y="0px"
	 width="100px" height="100px" viewBox="0 0 100 100" enable-background="new 0 0 100 100" xml:space="preserve">
<circle fill="#B2B2B2" cx="50" cy="50" r="50"/>
<path fill-rule="evenodd" clip-rule="evenodd" d="M52.435,89.643c-0.526,0.078-1.17-1.017-1.17-1.017s-0.341,0.039-0.604,0.303
	c-0.265,0.262-0.566,0.187-0.229-0.453c0.342-0.642,0.455-1.098,0.152-1.474c-0.303-0.38-0.756-0.982-1.019-1.548
	c-0.267-0.566-0.492-1.321-0.757-2.451c-0.262-1.135-0.376-1.93-0.641-3.398c-0.266-1.477-0.565-3.514-0.905-4.982
	c0,0-0.567-0.08-0.641-0.38c-0.077-0.304,0.527-0.605,0.527-0.605s0.113-0.565-0.226-0.941c-0.341-0.381-0.49-0.755-0.226-0.869
	c0,0,0.036-0.491-0.266-0.642c-0.303-0.148-0.227-0.797-0.227-0.797s-0.873,0.254-1.322,0.493c-0.489,0.263-1.508,0.565-2.491,0.606
	c-0.982,0.036-1.851-0.229-2.906-0.417c-1.058-0.189-2.001-0.306-3.021-0.452c-1.019-0.149-1.849-0.607-2.378-0.642
	c-0.528-0.038-0.982,0.113-1.51,0.034c-0.522-0.072-0.981-0.148-1.434-0.377c-0.454-0.224-1.057-0.677-1.7-0.714
	c-0.641-0.039-0.453-0.453-0.302-0.758c0.152-0.301,0.34-0.945,0.982-1.055c0,0-0.188-0.53-0.604-0.53
	c-0.415,0-0.756-0.152-0.982-0.488c-0.228-0.341-0.49-0.607-0.83-1.061c-0.341-0.452-0.793-0.869-1.131-0.869
	c-0.342,0-0.115-0.377,0-0.714c0.111-0.338,0.111-0.796,0.414-1.282c0.303-0.492,0.717-0.869,1.246-1.058
	c0.527-0.19,1.208-0.305,1.208-0.305s-0.15-0.376-0.492-0.376c-0.338,0-1.207-0.342-1.509-0.115
	c-0.302,0.229-0.679,0.115-0.942-0.112c-0.266-0.225-0.493-0.488-0.944-0.603c-0.454-0.111-0.227-0.567-0.604-0.83
	c-0.379-0.267-0.568-0.644-0.982-0.644c-0.415,0-0.453-0.529-0.151-0.603c0.303-0.074,0.339-0.566,0.339-0.566
	s-0.339-0.074-0.64-0.227c-0.303-0.149-0.53-0.379-0.944-0.604c-0.416-0.227-0.16-0.449,0.114-0.68
	c0.453-0.377,0.264-0.869,0.792-1.361c0.528-0.491,0.981-0.828,1.584-0.828c0.605,0,1.17-0.229,1.17-0.229s-0.753-0.188-1.321-0.263
	c-0.566-0.075-1.699-0.905-2.226-0.947c-0.53-0.033-0.152-0.524-0.53-0.865c-0.376-0.338-0.642-0.945-1.094-1.244
	c-0.454-0.303-0.378-0.678-0.718-0.944c-0.341-0.27,0-0.378,0.265-0.68c0.263-0.303,0.679-0.983,1.397-1.206
	c0.716-0.229,2-0.229,2-0.229s-0.604-0.606-1.132-0.943c-0.53-0.339-0.718-0.715-1.171-0.904c-0.453-0.189-0.227-0.795-0.717-1.212
	c-0.493-0.413-0.19-0.79-0.19-0.79s-0.338-0.264-0.452-0.606c-0.113-0.336-0.113-0.789-0.414-0.979
	c-0.304-0.189-0.039-0.644,0.376-0.794c0.415-0.148,0.64-0.526,1.811-0.417c0,0-0.414-0.298-0.603-0.527
	c-0.19-0.229-0.492-0.983-0.718-1.55c-0.227-0.564-0.414-1.132-0.15-1.28c0.265-0.15,0.678,0.039,0.678,0.039
	s-0.113-0.416-0.301-0.868c-0.188-0.454-0.188-0.984,0.078-1.323c0.262-0.342,1.094-0.228,1.621-0.152
	c0.53,0.079,1.246,0.416,1.66,0.719c0.417,0.303,0.644,0.681,0.644,0.681s0.338-0.457,0.49-0.834
	c0.151-0.377,0.68-0.413,0.905-0.074c0.229,0.343,0.755,0.305,1.247,0.83c0.491,0.531,0.566,0.909,0.944,1.284
	c0.377,0.378,0.68,0.871,0.68,0.871s0-1.665,0.112-2.042c0.114-0.378,0.454-0.869,0.794-0.869c0.339,0,0.641,0.303,1.02,0.491
	c0.377,0.191,0.829,0.872,0.829,0.872s0.416-0.378,0.756-0.228c0.339,0.152,0.453,0.375,0.867,0.87
	c0.416,0.489,0.868,0.489,1.058,0.982c0.188,0.492,0.188,0.828,0.529,1.206c0.341,0.378,0.907,0.872,1.247,1.362
	c0.338,0.487,0.527,1.397,0.831,1.62c0.301,0.229,0.413,0.909,0.717,1.096c0.302,0.188,0.792,1.321,0.792,1.321
	s0.037-0.984-0.227-1.475c-0.264-0.487-0.529-1.32-0.792-2.109c-0.265-0.797-0.907-1.815-0.907-2.53
	c0-0.719-0.679-1.402-0.754-2.267c-0.077-0.868-0.302-1.624-0.039-1.852c0.264-0.222,0.114-0.413-0.075-0.679
	c-0.188-0.264-0.264-1.244-0.303-2.076c-0.037-0.832,0.151-1.511,0.417-1.851c0.263-0.336,0-1.467,0.3-1.885
	c0.302-0.419,1.774-0.495,2.455-0.338c0.679,0.149,0.905,0.791,1.622,1.053c0.561,0.207,0.645,0.754,1.097,0.83
	c0,0,0.037-0.678-0.152-1.284c-0.188-0.6-0.489-1.846-0.453-3.132c0.039-1.283,0.34-3.054,0.528-3.737
	c0.189-0.68,0.189-1.509,0.604-1.509s0.868,0.188,1.36,0.525c0.491,0.341,0.828,1.212,1.32,1.509c0,0,0.228-0.675,0.038-1.281
	c-0.188-0.604-0.763-1.643-0.565-2.568c0.228-1.057,0.415-1.887,0.68-2.266c0.264-0.378,1.168,0.304,1.507,0.91
	c0,0-0.034-1.475-0.034-2.001c0-0.531,0.339-1.208,0.339-1.738c0-0.387,0.565-0.189,0.678,0.113
	c0.114,0.303,0.489,0.116,0.755,0.493c0,0-0.075-1.1,0.227-1.397c0.302-0.303,0.566-0.72,1.021-0.906
	c0.452-0.191,0.868-0.191,1.131-0.037c0.266,0.148,0.039,0.754,0.039,0.754s0.377,0.338,0.643,0.377
	c0.264,0.036,0.453,0.487,0.264,0.755c-0.191,0.263-0.492,0.487-0.529,0.944c-0.039,0.453,0,0.829,0,0.829s0.643,0,0.942-0.264
	c0.303-0.266,1.058-0.266,1.207-0.038c0.154,0.229-0.071,0.755,0,1.248c0.079,0.49-0.336,0.679-0.3,1.279
	c0.039,0.607-0.49,1.209-0.49,1.209s0.338,0.228,0.681-0.111c0.339-0.342,0.716-0.603,1.093-0.72
	c0.381-0.114,0.945-0.034,1.17,0.117c0.227,0.148-0.112,1.09,0.116,1.657c0.227,0.566-0.079,1.247-0.079,1.888
	c0,0.645-0.375,0.869-0.375,1.588c0,0.716-0.377,1.21-0.564,1.66c0,0,0.716-0.038,1.28-0.263c0.567-0.227,1.813-0.262,2.566-0.303
	c0.416-0.017,0.569,0.339,0.492,0.871c-0.073,0.525-0.226,1.544-0.073,2.074c0.15,0.527-0.38,1.283-0.228,1.586
	c0.15,0.303,0.263,0.716-0.039,0.904c-0.303,0.188-0.227,0.646-0.378,1.132c-0.15,0.491-0.866,1.173-0.94,1.626
	c0,0,1.092-0.378,1.585-0.791c0.488-0.417,3.131-0.493,3.699-0.493c0.564,0,0.904,0.149,0.754,0.792
	c-0.151,0.644,0.225,0.793,0.038,1.359c-0.189,0.568-0.792,0.795-0.906,1.284c0,0,0.982-0.265,1.358-0.225
	c0.378,0.035,0,0.641-0.15,0.867s-0.529,1.21-0.567,1.81c-0.037,0.605-0.565,0.945-0.641,1.551
	c-0.078,0.606-0.832,1.435-0.832,1.963c0,0.53-0.226,0.942-0.488,1.284c-0.265,0.339-0.53,1.019-1.021,1.544
	c-0.488,0.53-0.229,1.06-0.644,1.511c-0.413,0.454-0.641,0.641-0.828,1.206c-0.191,0.568-0.342,1.174-0.342,1.174
	s0.68-0.04,1.021-0.304c0.338-0.264,0.678-0.979,1.622-2.301c0.945-1.321,2.076-2.491,2.682-3.019
	c0.603-0.532,0.377-0.909,0.979-1.172c0.605-0.262,2.152-0.83,2.644-1.134c0.493-0.302,0.832-0.524,1.284-0.524
	s0.226,0.565,0.643,0.863c0.414,0.304,0.451,1.512,0.337,2.231c0,0,0.605-0.376,0.945-0.83c0.341-0.458,2.266-1.551,3.323-1.888
	c1.059-0.341,1.699-0.155,1.924,0.037c0.228,0.187,0,1.321-0.153,1.772c0,0,1.703-0.98,2.456-1.168
	c0.756-0.19,1.587-0.343,1.813-0.073c0.227,0.261-0.113,1.053-0.113,1.053s0.566-0.263,1.284-0.224
	c0.717,0.033,2.039,0.79,2.418,0.868c0.376,0.076,0.336,0.488,0.262,1.131c-0.074,0.643-0.867,1.169-0.829,1.622
	c0.037,0.455-1.098,1.134-1.098,1.134s0.792,0.34,0.116,0.793c-0.681,0.453-1.285,0.755-1.513,1.093
	c-0.226,0.341-1.396,0.04-1.396,0.04s0.228,0.417,0.567,0.566c0.341,0.148-0.491,0.418-0.073,0.606
	c0.414,0.188,0.751,0.602,0.716,1.053c-0.039,0.457-0.831,0.268-1.398,0.492c-0.567,0.229-1.322,0.605-1.546,0.983
	c-0.227,0.379-0.72,0.413-1.362,0.413c-0.639,0-0.942,0.496-1.509,0.53c0,0,0.945,0.566,1.398,0.643
	c0.45,0.073,0.377,1.057,0.717,1.509s0.378,1.322-0.113,1.396c-0.493,0.074-1.358,0.228-1.622,0.721
	c-0.267,0.486-0.982,1.131-1.663,1.47c-0.68,0.338-1.51,0.04-1.811,0.227c-0.304,0.19-1.625,0.111-2.154,0c0,0,0,0.454,0.604,0.489
	c0.604,0.039,1.964,0.342,2.643,0.832c0.681,0.49,1.209,1.134,1.398,1.547c0.187,0.417,0.226,1.358-0.189,1.474
	c-0.416,0.108-1.508,0.075-1.849,0.305c0,0,0.338,0.413,0.793,0.487c0.452,0.074-0.153,0.489-0.493,0.604
	c-0.339,0.116-0.678,0.529-0.904,0.869c-0.225,0.341-0.944,0.454-1.359,0.678c-0.415,0.228-0.831,0.457-1.548,0.49
	c0,0,0.504,0.229,0.755,0.344c0.415,0.189-0.075,0.338-0.491,0.298c-0.416-0.034-0.905,0.04-1.32,0.227
	c-0.416,0.192-0.87,0.042-1.322,0.042s-1.247-0.303-1.736,0.15c0,0,0.868,0.149,1.359,0.451c0.49,0.303,0.868,0.753,1.396,1.02
	c0.528,0.265,0.945,1.171,1.322,1.36c0.377,0.188,0.643,0.603,0.263,0.868c-0.377,0.264-0.074,0.379,0.189,0.6
	c0.266,0.23-0.15,0.456,0.076,0.835c0.227,0.378,0.149,0.832-0.076,0.981c-0.228,0.153-0.378-0.191-0.793-0.149
	c-0.414,0.033-0.49,0.411-0.904,0.451c-0.418,0.038-1.133,0.63-1.739,0.605c-0.942-0.04-1.658-0.567-2.075-0.494
	c0,0,0.114,0.494,0.342,0.791c0.226,0.304,0.036,0.724,0,1.175c-0.039,0.45-0.266,0.263-0.646,0.112
	c-0.374-0.153-0.98,0-1.283-0.073c-0.302-0.08-1.092-0.23-1.435-0.306c-0.336-0.074-0.866-0.639-0.866-0.639s0,0.603-0.303,0.486
	c-0.302-0.108-0.489-0.675-0.793-0.413c-0.302,0.265-0.528,0.115-0.867,0c-0.34-0.114-1.096-0.452-1.774-0.53
	c-0.681-0.073-1.019-0.604-1.549-0.486c-0.527,0.108-1.056-0.117-1.473-0.303c-0.416-0.19-0.754-0.566-1.359-0.605
	c-0.603-0.036-1.245-0.226-1.433-0.453c-0.191-0.229-0.341-0.529-0.793-0.529c-0.453,0-0.871-0.079-0.871-0.079
	s0.455,2.456,0.871,4.533c0.414,2.075,0.718,3.929,1.056,5.814c0.341,1.891,0.793,3.171,1.093,3.852
	c0.303,0.68,0.531,1.172,0.984,1.435c0.452,0.263,0.869,0.224,0.869,0.68c0,0.452,0.074,0.756,0.074,0.756s0.643,0.11,0.945,0.528
	c0.299,0.416,0.036,0.753-0.303,0.828C53.078,89.265,52.965,89.568,52.435,89.643z"/>
</svg>
