<?xml version="1.0" encoding="utf-8"?>
<!-- Generator: Adobe Illustrator 15.0.2, SVG Export Plug-In . SVG Version: 6.00 Build 0)  -->
<!DOCTYPE svg PUBLIC "-//W3C//DTD SVG 1.1//EN" "http://www.w3.org/Graphics/SVG/1.1/DTD/svg11.dtd">
<svg version="1.1" id="Ebene_1" xmlns="http://www.w3.org/2000/svg" xmlns:xlink="http://www.w3.org/1999/xlink" x="0px" y="0px"
	 width="100px" height="100px" viewBox="0 0 100 100" enable-background="new 0 0 100 100" xml:space="preserve">
<circle fill="#B2B2B2" cx="50" cy="50" r="50"/>
<g>
	<path d="M41.197,45.653c-0.084,1.352-0.084,2.788-0.084,4.224c0,1.014,0,1.943,0.084,2.872h16.641v5.407H41.535
		c1.267,10.98,5.322,18.246,12.84,18.246c2.703,0,5.49-0.761,9.039-2.619l1.857,5.913c-3.547,1.521-7.264,2.703-11.488,2.703
		c-12.417,0-18.499-10.052-20.02-24.243h-5.406v-5.407h4.984v-2.365c0-1.604,0-3.125,0.084-4.73h-5.068v-5.575h5.66
		c1.943-12.671,7.94-22.385,20.442-22.385c3.549,0,6.674,0.76,10.307,2.449l-1.943,6.082c-2.872-1.689-5.322-2.449-8.025-2.449
		c-7.349,0-11.572,5.997-13.093,16.303h16.134v5.575H41.197z"/>
</g>
</svg>
