<?xml version="1.0" encoding="utf-8"?>
<!-- Generator: Adobe Illustrator 15.0.2, SVG Export Plug-In . SVG Version: 6.00 Build 0)  -->
<!DOCTYPE svg PUBLIC "-//W3C//DTD SVG 1.1//EN" "http://www.w3.org/Graphics/SVG/1.1/DTD/svg11.dtd">
<svg version="1.1" id="Ebene_1" xmlns="http://www.w3.org/2000/svg" xmlns:xlink="http://www.w3.org/1999/xlink" x="0px" y="0px"
	 width="100px" height="100px" viewBox="0 0 100 100" enable-background="new 0 0 100 100" xml:space="preserve">
<circle fill="#B2B2B2" cx="50" cy="50" r="50"/>
<path d="M96.845,44.261l-0.033-0.649L83.411,44l-17.769,0.684c-0.138-0.967-1.648-0.871-1.648-0.871
	c-0.506-0.595-1.055-0.191-1.055-0.191c-0.649,0.498-0.73-1.021-0.73-1.021l-1.799-9.994c-0.276-1.77-1.099-2.979-1.099-2.979
	l-2.141,0.182l1.256,1.061l1.588,12.599l-1.825,0.248l0.021,0.5L40.124,45.39l-13.396,0.201l0.034,0.651l13.401-0.39L57.62,45.18
	l0.335,0.095c0.233,0.85,1.622,0.764,1.622,0.764c0.15,0.175,0.305,0.264,0.446,0.3l0.032,1.881l-3.61,0.186
	c-0.016-0.526-0.173-0.652-0.173-0.652l-1.062,0.062c-0.979-0.089-0.668,1.021-0.668,1.021l-1.703,0.066l-0.021-0.931
	c0.429,0.031,0.037-0.34,0.037-0.34l-1.273,0.094c-0.411,0.027,0.041,0.368,0.041,0.368l-0.062,1.028l-0.823,0.093
	c-0.508,0-0.551,0.744-0.551,0.744l-2.215,0.03v0.777l-0.488,0.245l-0.393-1.429l-0.766,0.283l0.236,1.426
	c-0.099,0.869-4.471,2.173-4.471,2.173l-11.65,1.863L26.855,55.7l-6.983-11.735c-0.233-0.343-0.077-0.59-0.077-0.59
	c0.47-0.214,0.351-1.36,0.351-1.36l5.218,2.731l0.431-2.643l-6.748-2.205c-0.586-0.156-0.412-1.206-0.412-1.206l1.925-8.259
	l-1.592-0.652l-1.118,8.071c-0.019,0.9-1.585,1.338-1.585,1.338l-0.042-0.498l-5.787-2.887L9.93,38.291l1.587,0.743l4.217,1.081
	l-1.159,0.251c-0.646,0-0.079,0.868-0.079,0.868l1.925,3.974l-1.511,5.498l1.173,0.462l0.843-5.026l0.452,0.867
	c0.374,0.718-0.041,1.086-0.041,1.086c-0.488,0.468-0.194,0.989-0.194,0.989l0.392,1.433l-0.41,0.122l1.707,3.851l-0.295,0.155
	l-0.276,2.425l2.744,0.213l-0.469,0.686c-0.569,0.685,0.137,1.271,0.137,1.271l9.161,2.92l0.644,1.895l0.16,0.089l0.019,0.502
	l-0.412,0.553l-0.06-0.401l-0.49,0.185l0.159,1.122l-0.217,0.307c-0.823-0.37-1.333,0.528-1.333,0.528
	c-0.411,2.236,0.863,2.109,0.863,2.109c1.079-0.152,0.59-2.264,0.59-2.264l2.686-3.848c1.194-0.527,6.275,0.371,6.275,0.371
	l0.312,1.146l0.355-1.211l3.273,0.47l0.076,1.458l0.629-0.03l0.1-1.335l4.413,0.403l4.845,0.773l5.449,0.188l6.587,0.278
	l0.042,0.688c-0.51,0.088-0.765,1.049-0.765,1.049c-0.645,3.139,1.154,3.17,1.154,3.17c1.608,0.277,1.257-2.826,1.257-2.826
	l0.512-0.591l0.156,0.026c-0.116,0.316,0.157,1.374,0.157,1.374c0.704,1.705,1.899,0.863,1.899,0.863
	c1.178-0.928,0.689-3.162,0.689-3.162l0.804-0.065l0.04,1.124l0.291,0.058v-1.053l0.179-0.036l0.019,0.994l0.297-0.061l0.018-0.993
	l0.214,0.032l0.02-0.499l2.219,0.126L74,66.379l0.645-0.714l0.099-0.341l2.664-0.345c0.805,1.706,1.925,1.46,1.925,1.46
	c0.901,0.159,0.824-1.796,0.824-1.796c-0.218-0.591,0.154-1.834,0.154-1.834c0.142-1.023-0.644-2.578-0.644-2.578l0.294-0.155
	c0.33-0.431-0.181-0.838-0.181-0.838l-1.173-0.061c-0.923-0.157-2.768-3.754-2.768-3.754c-1.117-2.611-2.861-2.177-2.861-2.177
	c-0.728-0.218-0.608-1.27-0.608-1.27c1.607,0-0.138-0.222-0.138-0.222l-0.413,0.439c-1.154-1.056-5.116-2.453-5.116-2.453
	c-0.451-0.124-0.197-0.373-0.197-0.373c1.53-1.616,0.215-0.745,0.215-0.745c-1.216,1.241-2.039,0.434-2.039,0.434l-0.896-0.865
	l-0.084-0.667l0.037-1.168l1.645-0.223l-0.021-0.501l18.087-1.172L96.845,44.261z M65.31,44.649l-1.255-0.248l-0.019-0.312
	C64.036,44.09,65.764,44.12,65.31,44.649z M58.468,44.185V44l1.351-0.095l0.061,0.28h-0.386c-0.114-0.021-0.192-0.038-0.192-0.038
	l-0.596,0.038H58.468z M58.193,45.343l1.341,0.38l0.002,0.039C59.536,45.763,58.136,45.736,58.193,45.343z M60.271,48.127
	l0.014-1.768c0.206-0.025,0.349-0.128,0.349-0.128c0.111-0.086,0.205-0.109,0.285-0.093l0.035,2.083L60.271,48.127z M61.092,48.221
	l0.073-1.852c0.168,0.329,0.197,0.882,0.197,0.882l0.024,0.134v0.836H61.092z M66.213,66.848c-0.136-0.534-0.963-0.81-0.963-0.81
	l-0.02-0.499h1.079l0.119,0.62C66.684,67.124,66.213,66.848,66.213,66.848z M65.104,45.667v0.185l-0.962,0.068
	c0.077-0.114,0.128-0.214,0.128-0.214l0.588-0.038H65.104z"/>
</svg>
