<?xml version="1.0" encoding="utf-8"?>
<!-- Generator: Adobe Illustrator 15.0.2, SVG Export Plug-In . SVG Version: 6.00 Build 0)  -->
<!DOCTYPE svg PUBLIC "-//W3C//DTD SVG 1.1//EN" "http://www.w3.org/Graphics/SVG/1.1/DTD/svg11.dtd">
<svg version="1.1" id="Ebene_1" xmlns="http://www.w3.org/2000/svg" xmlns:xlink="http://www.w3.org/1999/xlink" x="0px" y="0px"
	 width="100px" height="100px" viewBox="0 0 100 100" enable-background="new 0 0 100 100" xml:space="preserve">
<circle fill="#B2B2B2" cx="50" cy="50" r="50"/>
<path d="M73.141,5.83L68.25,20.007c-0.351-0.153-0.747-0.249-1.171-0.249c-0.549,0-1.054,0.152-1.468,0.403
	c-0.005-0.003-0.005-0.009-0.008-0.014L54.298,6.774c-0.093-0.112-0.214-0.166-0.265-0.123l-0.019,0.016l-5.609-6.634
	c-0.134,0.003-0.268,0.005-0.4,0.01l5.77,6.825l-0.019,0.015c-0.053,0.044-0.019,0.17,0.074,0.281l11.301,13.367
	c-0.303,0.308-0.5,0.687-0.535,1.105l0.03,0.035H23.367c-1.058,0-1.922,1.275-1.922,2.833v50.932c0,1.558,0.864,2.834,1.922,2.834
	h3.689c-0.009,0.022-0.017,0.045-0.017,0.07c0,0.045,0.014,0.093,0.045,0.14l0.384,0.629c0.059,0.095,0.162,0.179,0.281,0.238
	c0.12,0.06,0.257,0.096,0.389,0.098h0.663c0.132-0.002,0.27-0.038,0.391-0.098s0.223-0.144,0.281-0.238l0.384-0.629
	c0.029-0.047,0.045-0.095,0.045-0.14c0-0.025-0.009-0.048-0.019-0.07h40.358c-0.008,0.02-0.017,0.044-0.017,0.067
	c0,0.045,0.016,0.093,0.044,0.143l0.384,0.629c0.06,0.095,0.161,0.177,0.282,0.235c0.118,0.06,0.258,0.098,0.387,0.098h0.664
	c0.132,0,0.271-0.038,0.39-0.098c0.122-0.06,0.225-0.141,0.281-0.235l0.386-0.629c0.028-0.05,0.044-0.098,0.044-0.143
	c0-0.023-0.01-0.048-0.02-0.067h3.566c1.056,0,1.921-1.276,1.921-2.834V24.504c0-1.559-0.865-2.833-1.921-2.833h-7.109l0.031-0.035
	c-0.044-0.521-0.334-0.986-0.775-1.322L73.68,6.114C73.501,6.017,73.32,5.925,73.141,5.83z M69.529,27.105
	c4.937,4.037,4.299,32.105,0,35.315c0,0-1.274,1.419-19.711,1.419c-18.919,0-20.01-1.419-20.01-1.419
	c-4.49-3.749-4.34-31.565,0-35.315c0,0,0.472-0.932,20.01-0.932C69.06,26.173,69.529,27.105,69.529,27.105z"/>
</svg>
