<?xml version="1.0" encoding="utf-8"?>
<!-- Generator: Adobe Illustrator 15.0.2, SVG Export Plug-In . SVG Version: 6.00 Build 0)  -->
<!DOCTYPE svg PUBLIC "-//W3C//DTD SVG 1.1//EN" "http://www.w3.org/Graphics/SVG/1.1/DTD/svg11.dtd">
<svg version="1.1" id="Ebene_1" xmlns="http://www.w3.org/2000/svg" xmlns:xlink="http://www.w3.org/1999/xlink" x="0px" y="0px"
	 width="100px" height="100px" viewBox="0 0 100 100" enable-background="new 0 0 100 100" xml:space="preserve">
<circle fill="#B2B2B2" cx="50" cy="50" r="50"/>
<path fill-rule="evenodd" clip-rule="evenodd" d="M80.58,36.584c0.959-1.095,0.904-1.891,0.822-2.63
	c-0.082-0.74-0.3-2.659-3.18-3.454c0.138-0.492,0.164-1.232-0.795-0.794c0.055-0.329,0.219-0.548,0.74-0.685
	c0.521-0.137,0.959-0.328,1.616-0.958c0.658-0.63,0.961-1.756,1.099-2.769c0.137-1.013,0.054-1.754,0.054-1.754l-0.85,0.63
	c0,0,0.219,2.055-0.385,3.152c-0.603,1.095-0.629,1.232-1.231,1.479c-0.988,0.438-1.892,0.492-2.03,0.876
	c-0.136,0.384-0.246,0.082-0.41-0.135c-0.164-0.22-0.85-0.714-1.233-0.85c-0.385-0.138-0.878-0.248-1.288,0.165
	c-0.412,0.411-0.439,0.465-0.384,0.794c0,0-4.907-2.878-10.91-3.426c-6.002-0.548-10.39-0.521-19.352,1.726
	c-4.084,1.179-6.58,3.098-7.319,3.646c-0.74,0.547-2.028,1.452-2.439,1.67c-0.796-1.095-3.097-2.821-3.947-3.287
	c-0.85-0.466-2.22-1.179-3.729-0.96c-1.507,0.219-1.589,0.906-1.536,1.672c0.054,0.767,0.275,2.356,0.384,2.903
	c0.11,0.549,0.576,1.809,0.602,2.551c-1.151,0.573-2.63,1.999-3.371,2.958c-0.738,0.96-1.095,1.945-2.11,3.151
	c-1.015,1.204-2.001,1.809-2.494,1.973c-0.494,0.164-0.959,0.026-1.645,0.082s-0.712,0.137-1.043,0.165
	c-0.328,0.028-2.246,0-2.74,0.301c-0.494,0.304-0.904,1.206-0.521,4.166c0.384,2.96,1.152,3.343,2.192,4.193
	c0.22,0.166-0.164,0.602,0.302,1.123s0.712,0.385,1.344,0.822c0.629,0.438,1.453,0.74,3.289,2.111
	c1.835,1.369,2.933,1.506,4.112,2.107c1.18,0.604,2.002,1.396,3.646,2.086c1.645,0.684,3.508,0.654,5.565,1.176
	c0.328,0.084,0.575,0.275,0.575,0.275s0.384,0.492,0.904,0.684c0.247,0.109,0.631,1.342,0.878,3.453
	c0.247,2.111,0.219,2.494-0.082,4.961c-0.303,2.465-0.576,2.328-0.466,3.453c-0.056,0.246-0.027,0.271,0.192,0.438
	c0.219,0.164,0.3,0.246,0.657,0.328c0.357,0.084,1.015,0.166,2.769,0.219c1.754,0.057,2.96-0.191,2.769-0.629
	c0.438-0.166,0.438-0.385,0.438-0.385s0.439-0.301,0.686-0.602c0.493-0.273,0.63-0.33,1.26-1.453
	c0.632-1.123,1.672-3.918,2.413-5.592c0.302-0.684,0.795-1.34,0.795-1.34s1.809-0.193,3.59,0.109
	c0.412,0.082,1.317-0.084,2.358-0.109c1.04-0.027,1.81-0.027,2.55-0.082s2.741-0.248,4.028-0.357
	c1.289-0.107,2.385-0.164,4.415-0.412c2.026-0.246,2.302-0.135,2.466,0.74c0.163,0.877,0.191,2.191,0.163,3.07
	c-0.025,0.877,0,1.67,0.358,2.301c-0.63,0.055-0.083,0.604,0.108,0.686c0.193,0.084,0.549,0.219,0.823,0.191
	c0.028,0.631,0.082,2.303,0.74,3.041c-0.301,0.246,0.055,0.467,0.383,0.574c0.329,0.113,1.508,0.385,3.126,0.33
	c1.617-0.053,1.946-0.164,2.219-0.246c0.276-0.084,0.057-0.273,0.385-0.465c0.329-0.193-0.057-0.328-0.057-0.328
	s0.357-0.385,1.344-2.631c0.988-2.248,0.823-2.412,1.399-3.645c0.575-1.234,0.821-2.166,1.205-4.193
	c0.386-2.027,0.192-2.686,1.918-5.781c1.728-3.096,2.88-4.084,4.06-9.318C83.951,44.614,81.759,38.063,80.58,36.584z M73.975,30.034
	c-0.548-0.822,0.904-1.095,0.904-1.095c1.014,0.301,0.274,1.15,1.397,1.095c-0.657,0.328-1.808,0.357-1.808,0.357
	S74.221,30.227,73.975,30.034z M75.619,31.021c-0.33-0.083-0.493-0.356-0.081-0.438c0.409-0.084,0.82-0.112,0.82-0.112
	S76.276,30.773,75.619,31.021z M78.661,33.46c0,0-0.11-0.137-0.19-0.356c-0.084-0.218,0.244-0.109,0.244-0.109
	C79.045,33.267,78.661,33.46,78.661,33.46z"/>
</svg>
