<?xml version="1.0" encoding="utf-8"?>
<!-- Generator: Adobe Illustrator 15.0.2, SVG Export Plug-In . SVG Version: 6.00 Build 0)  -->
<!DOCTYPE svg PUBLIC "-//W3C//DTD SVG 1.1//EN" "http://www.w3.org/Graphics/SVG/1.1/DTD/svg11.dtd">
<svg version="1.1" id="Ebene_1" xmlns="http://www.w3.org/2000/svg" xmlns:xlink="http://www.w3.org/1999/xlink" x="0px" y="0px"
	 width="100px" height="100px" viewBox="0 0 100 100" enable-background="new 0 0 100 100" xml:space="preserve">
<circle fill="#B2B2B2" cx="50" cy="50" r="50"/>
<g>
	<path fill="#1D1D1B" d="M61.262,25.92c0.338-0.112,0.283-0.727,0.452-1.396c0.17-0.67,0.394-0.727,0.678-1.005
		c0.28-0.28,0.508-1.731-0.508-1.843c0,0-3.216-2.85-4.29-2.793c-1.074,0.055-2.935,0.726-3.5,1.285
		c-0.339,0.167-1.919-0.503-2.652,1.173c-0.734,1.676-0.847,4.078-1.581,4.581c-0.733,0.503-2.427,2.234-1.975,3.519
		c0.071,0.142,0.125,0.248,0.164,0.326c-0.32,0.261-0.643,0.572-0.955,0.959c-1.393,1.722-1.725,1.661-1.777,1.524
		c-0.278,0.426-2.671,2.219-3.302,2.219c-0.678,0-2.089,0.894-2.372,1.509c-0.282,0.615-1.128,1.62-1.241,2.401
		c-0.113,0.783,1.468,8.771,1.468,9.888s0.112,3.8,2.089,3.744c1.975-0.058,2.765,0,3.161,0.279
		c0.225,0.158,0.741-0.153,1.207-0.616c-0.321,1.421-0.584,2.825-0.531,3.353c0.114,1.117-0.395,3.743-0.45,4.413
		c-0.058,0.671,0.45,2.795,0.45,3.632s0,2.011-0.338,2.794c-0.338,0.782-1.186,6.089-1.072,6.312
		c0.113,0.224,0.451,0.112,0.451,0.112s0,1.453,0.227,2.96c0.226,1.509,0.395,4.973,0.226,5.755c-0.283,0.279-0.79,0.279-0.79,0.279
		s0,0.949-0.34,1.509c-0.338,0.559-1.071,2.793-0.45,2.904c0.62,0.112,6.321,0.449,7.225,0.56c0.902,0.112,3.668,0.225,4.289-0.838
		c0.45,0.111,2.313,0.278,2.879-0.896c0.51-0.893,0.564-1.395,0.226-1.395c-0.338,0-2.935-0.111-3.33-0.504
		c-0.396-0.392-1.298-1.396-1.863-1.563c-0.565-0.168-1.016-0.503-1.016-0.503s0.396-0.949-0.282-0.671
		c-0.226-0.111-0.225-3.688,0.339-5.363c0.339-1.117,0.339-1.117,0.339-1.117l1.637,0.057c0,0,0-1.174,0.509-1.117
		c0.507,0.055,1.975,0.504,2.201,0.055c0.226-0.446,1.298-8.657,1.468-10.559c0.168-1.898-0.734-10.055-0.734-10.669
		c0-0.615,0.338-0.839,0.564-0.783c0.226,0.056,0.959,0.391,0.903,0.671c-0.059,0.279-0.284,0.613,0.338,0.559
		c0.339-0.057,0.509,0.559,1.13-0.057c0.168-0.111,0.338,0.448,0.789-0.334c0.281-0.112,0.903,0,0.846-1.118
		c-0.225-1.062-2.2-3.352-2.482-3.742c-0.282-0.392-1.186-1.452-1.298-1.788c-0.113-0.335-0.565-5.139-0.395-6.424
		c0.167-1.286-0.789-5.364-1.072-5.978s-0.904-1.341-0.791-1.621c0.111-0.279,0.564-1.229,1.072-1.005
		c0.508,0.224,1.581,1.285,2.371,0.28c0.169-0.335,0.339-0.614,0.509-0.783c0.169-0.167,0.111-0.559,0.111-0.559
		s0.227,0.28,0.451-0.558c0.396,0,0.961-0.056,0.678-0.727C60.979,26.59,60.922,26.031,61.262,25.92z"/>
	<path fill="#1D1D1B" d="M45.317,32.249c0.02-0.032,0.031-0.057,0.028-0.072C45.327,32.106,45.293,32.185,45.317,32.249z"/>
</g>
<path fill="#1D1D1B" d="M45.102,35.026c-0.221-0.799-0.439-0.688-0.552-0.662c-0.108,0.028-0.467-0.249-0.715-0.304
	c-0.248-0.056-0.745-0.056-0.745-0.056s-1.211-0.467-1.983-0.496c-0.137-0.44-1.049-0.854-1.049-0.854s-0.066-0.105-0.187-0.287
	c0,0.001,0,0.002,0,0.004c-0.194-0.3-0.526-0.812-0.889-1.399c0.084-1.377-0.495-2.701-0.495-2.701s-0.248-0.524-0.275-0.828
	c-0.026-0.301-0.414-0.578-0.497-0.632c-0.018-0.012-0.051-0.062-0.091-0.128c-0.027-0.048-0.058-0.102-0.093-0.163
	c-0.013-0.021-0.023-0.045-0.035-0.068c-0.023-0.045-0.048-0.091-0.07-0.135c-0.012-0.021-0.022-0.044-0.033-0.065
	c-0.028-0.055-0.054-0.105-0.073-0.144c-0.007-0.017-0.014-0.029-0.02-0.042c-0.013-0.024-0.026-0.054-0.026-0.054l0.001-0.001l0,0
	c0-0.003,0.167-0.331,0.304-0.688c0.137-0.36-0.14-0.607-0.166-0.689c-0.028-0.083,0.026-0.332,0.22-0.387
	c0.193-0.055,0.387-0.331,0.414-0.744c0.026-0.413-0.468-0.8-0.856-1.323c-0.385-0.522-1.46-0.826-1.46-0.826
	s-0.193-0.552-0.277-0.661c-0.083-0.112-0.136-0.028-0.521,0.302s-0.416,0.551-0.416,0.551s-0.274,0.028-0.494,0.057
	c-0.221,0.026-0.718,0.026-0.718,0.026s-0.191,0.109-0.385,0c-0.193-0.11-0.414-1.598-0.414-1.598s0-0.084,0.082-0.084
	c0.085,0,0.303-0.496,0.387-0.798c0.083-0.304,0.083-1.076,0.055-1.407c-0.026-0.329-0.246-0.689-0.246-0.689l-0.195-1.185
	c0,0-0.191-1.186-1.102-2.177c-0.91-0.994-2.756-1.296-3.749-1.021c-0.992,0.277-2.149,1.625-2.371,2.316
	c-0.22,0.688-0.166,1.765-0.166,1.765c-0.522,0.438-0.68,0.688-0.786,1.01c-0.228,0.397-0.2,0.91-0.199,0.934l0.082-0.004
	c0-0.002-0.005-0.102,0.009-0.248c0.064,0.272,0.333,0.38,0.62,0.319c0.386-0.083,0.605-0.689,0.605-0.689l0.008,0.035v-0.001
	l0.572,2.612c0.413,1.462,1.569,2.646,1.569,2.646s0,0-0.11,0.027c-0.11,0.027-0.166,0.166-0.083,0.413
	c0.083,0.247,0.276,0.524,0.276,0.772c0,0.249,0.055,0.497,0.191,0.69c0.14,0.192,0.22,0.358,0.22,0.358s-0.11,0.938-0.11,1.02
	c0,0.083-0.331,0.552-0.661,0.937c-0.33,0.386-0.414,0.414-0.744,1.075c-0.331,0.662-0.303,1.351-0.415,1.6
	c-0.109,0.247-0.165,1.323-0.135,1.543c0.026,0.22-0.057,1.515-0.112,1.874c-0.056,0.359-0.138,0.882-0.302,1.489
	c-0.167,0.606-0.332,1.6-0.442,2.205c-0.112,0.606-0.248,1.158-0.248,1.158s-0.524-0.056-0.854-0.083
	c-0.332-0.027-0.745-0.22-0.993-0.11c-0.249,0.11-0.633-0.166-0.633-0.166s-0.828-0.276-1.297-0.276c-0.468,0-0.964,0.33-0.964,0.33
	l-0.33-0.275l0.221-0.413l0.22-5.43l-5.789-3.748l-0.193,0.302l-0.964,0.442l-0.276-0.138v1.306v0.073l-0.634,0.22l-0.274-0.137
	l-0.221,5.485c0,0,0.771,0.551,0.689,0.551c-0.082,0-0.413,0.193-0.413,0.332c0,0.136,0.358,0.384,0.607,0.467
	c0.247,0.083,0.716,0.11,0.716,0.11s0,0-0.027,0.111c-0.028,0.109,0.22,0.688,0.276,0.827c0.055,0.136,0.331,0.303,0.331,0.303
	s0.027,0.109,0.192,0.193c0.167,0.081,0.717,0.081,0.717,0.081s-0.028,0.415,0.165,0.497c0.193,0.083,0.965-0.082,0.965-0.082
	s1.543,1.377,1.708,1.377c0.166,0,1.185-0.469,1.185-0.469l0.166,0.551l0.248,0.249l0.166,0.303c0,0,0.495,0.247,0.633,0.302
	c0.139,0.056,1.046,0.855,1.131,0.993c0.083,0.138,1.102,0.304,1.102,0.304l1.378,0.385l0.11,0.275c0,0-0.276,2.178-0.359,2.481
	c-0.082,0.303-0.219,1.681-0.219,2.039c0,0.357,0.193,0.415,0.689,1.158c0.496,0.744,1.653,0.966,1.653,0.966l0.112,0.359
	l-0.276,0.496c0,0-0.44,1.874-0.44,1.956c0,0.083-0.248,1.82-0.248,1.903c0,0.082-0.138,2.535-0.138,2.535s0,0.965-0.027,2.123
	c-0.028,1.157-0.331,2.121-0.551,2.646c-0.221,0.522,0,0.771,0,1.295c0,0.521-0.333,1.321-0.47,2.289
	c-0.138,0.962,0.358,1.542,0.524,1.9c0.165,0.36-0.083,0.385-0.304,0.688c-0.22,0.303-0.055,0.771-0.027,1.489
	c0.027,0.717,0,1.404-0.083,2.398c-0.082,0.992,0.33,2.728,0.689,4.188c0.358,1.464,0.248,1.931-0.083,2.315
	c-0.331,0.387-0.276,0.497-0.331,0.994c-0.056,0.496,0.11,1.019,0.028,1.103c0,0-0.911,0.854-1.324,1.073
	c-0.413,0.221-1.901,0.633-1.901,0.633s-0.358,0-1.241-0.081c-0.882-0.083-1.462,0.8-1.269,1.792
	c0.192,0.991,1.764,1.929,5.402,2.123c3.64,0.192,4.906-0.083,5.211-0.497c0.302-0.413,0.275-0.8,0.275-0.8l0.138-0.277
	c0,0,0.109-0.467,0.109-0.825c0-0.357,0.275-3.362,0.359-4.987c0.082-1.629,0.193-6.893,0.136-7.665
	c-0.055-0.771,0-1.653-0.026-2.398c-0.028-0.742-0.028-1.129-0.056-1.791c-0.026-0.662,0.027-2.509,0.027-2.509
	s0.522,1.185,0.663,1.599c0.137,0.413,0.771,1.323,0.854,1.463c0.082,0.137,0.139,0.496,0.36,1.294
	c0.22,0.801,1.351,3.171,1.351,3.171l2.783,7.938c0,0-1.047-0.192-1.321-0.192c-0.276,0-0.689,0.33-0.938,0.854
	c-0.247,0.524,0,0.828,0.222,1.434c0.219,0.604,2.757,1.239,2.757,1.239l2.121,0.965c0,0,1.874,1.323,2.646,1.159
	c0.771-0.166,1.268-0.69,1.35-1.076c0.084-0.385-0.028-0.716-0.028-0.716s-0.19-1.186-0.247-1.517
	c-0.054-0.331-0.578-0.69-0.578-0.69l-0.303-1.073c0,0-0.911-3.142-1.544-5.1c-0.634-1.957-1.875-5.43-2.948-8.49
	c-1.075-3.061-1.93-4.576-2.013-4.851c-0.084-0.275,0.025-0.304,0.025-0.883c0-0.578,0.058-2.232,0.058-2.232l0.027-0.522
	l0.304-0.248c0,0,0.191,0.056,0.329-0.027s0.194-0.357,0.194-0.357l0.026-1.214l0.248,1.269c0,0,0.11,0.33,0.275,0.275
	c0.167-0.056,0.304-0.357,0.358-0.635c0.056-0.274,0.028-0.605,0-0.99c-0.028-0.389-0.055-1.269-0.055-1.269l0.138-1.076
	l0.413-0.909c0,0,0.359,0.303,0.743,0.221c0.386-0.084,1.379-2.013,1.379-2.013s0.013-0.008,0.017-0.009l0,0
	c0.042-0.022,0.172-0.093,0.333-0.186c0.017-0.009,0.029-0.018,0.047-0.027c0.05-0.027,0.1-0.057,0.153-0.091
	c0.028-0.018,0.056-0.033,0.085-0.051c0.047-0.028,0.091-0.057,0.138-0.087c0.034-0.022,0.065-0.044,0.1-0.065
	c0.042-0.028,0.081-0.058,0.12-0.087c0.034-0.022,0.07-0.048,0.104-0.072c0.039-0.03,0.072-0.059,0.106-0.088
	c0.024-0.021,0.056-0.044,0.077-0.063c0.053-0.049,0.096-0.096,0.127-0.139c0.247-0.358,1.431-2.149,2.232-3.417
	c0.799-1.269,0.964-2.565,1.295-4.108c0.331-1.542,0.359-1.874,0.523-2.757c0.167-0.882,0.303-3.114,0.303-3.747
	C45.461,35.853,45.323,35.825,45.102,35.026z"/>
<path d="M58.01,52.952c0.056,0.016,0.12,0.034,0.164,0.049c0.043,0.255,0.11,0.632,0.176,1.173c0.105,0.85,0.835,0.751,0.835,0.751
	s0.128,0.334,0.128,0.423c0,0.088,0.012,0.119,0.028,0.344c0.016,0.225,0.333,0.721,0.333,0.721s-0.139,0.161-0.219,0.396
	c-0.078,0.233,0.021,0.735,0.141,1.096c0.119,0.361,0.369,0.792,0.369,0.792s-0.088,0.115-0.098,0.204
	c-0.004,0.049,0.042,0.115,0.098,0.182c-0.038,0.028-0.066,0.086-0.07,0.163c-0.006,0.093-0.048,0.788-0.048,0.886
	c0,0.1,0.118,0.068,0.225,0.005c0.104-0.062,0.104-0.118,0.099-0.203c-0.004-0.062-0.037-0.486-0.055-0.687
	c0.124,0.155,0.629,0.984,0.928,1.907c0.305,0.961,0.666,1.738,0.902,2.015c0.233,0.277,0.573,0.225,0.626,0.251
	c0.251,0.126,0.478,0.287,0.911,0.078c0.435-0.21,0.741-0.476,0.741-0.476s0.021,0.188,0.021,0.272c0,0.083,0.035,0.139,0.035,0.139
	s-0.173,0.639-0.192,0.863c-0.02,0.222-0.888,3.119-0.996,3.437c-0.11,0.318-0.553,1.481-0.736,1.842
	c-0.184,0.359-0.209,0.84-0.25,1.263c-0.043,0.421-0.146,1.105-0.203,1.361c-0.058,0.257,0.053,0.198,0.136,0.257
	c0.083,0.056,0.396,0.093,0.396,0.093s-0.053,1.138-0.04,1.345c0.009,0.21,0.154,0.193,0.182,0.205
	c0.024,0.012,0.109,0.024,0.12,0.135c0.01,0.109,0.134,0.291,0.134,0.291c-0.25,0.568-0.156,1.166-0.14,1.57
	c0.016,0.407,0,0.7,0,0.7s-0.167,0.021-0.194,0.13C62.472,77.033,62.45,77.2,62.45,77.2s-0.125,0.031-0.151,0.204
	c-0.025,0.172-0.166,0.24-0.396,0.465s-0.225,0.392-0.225,0.392c-0.052-0.027-0.135,0.092-0.14,0.214
	c-0.007,0.119-0.179,0.907-0.21,0.922c-0.086,0.043-0.094,0.429-0.053,0.741c0.043,0.312,0.422,0.656,0.48,0.72
	c0.058,0.062,0.377,0.353,0.459,0.37c0.083,0.015,0.141-0.126,0.219,0.03c0.365,0.73,1.039,1.382,1.482,1.644
	c0.441,0.262,1.836,0.288,2.362,0.058c0.528-0.229,0.601-0.432,0.631-0.683s-0.13-0.371-0.13-0.371
	c-0.059-0.426-0.502-0.845-0.6-0.917c-0.1-0.073-0.574-0.412-0.584-0.517c-0.012-0.104-0.263-0.468-0.414-0.501
	c-0.15-0.031-0.15-0.109-0.15-0.172s0.11-0.152,0.094-0.24c-0.016-0.087-0.162-0.151-0.322-0.381
	c-0.162-0.229-0.178-0.15-0.178-0.15c-0.058-0.037-0.021-0.104-0.025-0.157c-0.006-0.052-0.006-0.177,0.029-0.245
	c0.141-0.26-0.029-0.512-0.093-0.517c-0.062-0.005-0.059-0.059-0.059-0.104c0-0.048-0.067-0.107-0.067-0.107l0.314-0.832
	c0.094,0.021,0.73,0.508,0.844,0.527c0.115,0.021,0.095-0.094,0.939-0.512c0.846-0.417,2.713-0.292,4.914-0.187
	c2.201,0.104,2.723-0.053,2.723-0.053s0.011,0.312,0.938,2.023c0.93,1.712,1.202,3.353,1.202,3.353
	c-0.095,0.146,0.042,0.199,0.042,0.199s0.1,0.443,0.186,0.611c0.091,0.166,0.074,0.526,0.074,0.526s-0.088,0.053-0.088,0.21
	c0,0.154,0.131,0.931,0.224,1.104c0.095,0.173,0.241,0.449,0.198,0.486c-0.107,0.093-0.062,0.256,0.012,0.314
	c0.072,0.054,0.136,0.253,0.145,0.343c0.012,0.087,0.339,0.235,0.579,0.223c0.24-0.011,0.903-0.024,1.159-0.088
	c0.255-0.062,0.277-0.37,0.324-0.427c0.045-0.058,0.099-0.104,0.225-0.131c0.125-0.026,0.645,0.073,1.125,0.021
	c0.481-0.054,1.094-0.355,2.07-1.015c0.977-0.655,1.023-0.916,1.054-0.983c0.032-0.068-0.047-0.163-0.15-0.298
	c-0.104-0.137-0.135-0.101-0.135-0.101c-0.198-0.235-0.731-0.265-0.993-0.235c-0.26,0.033-0.744,0.036-0.871-0.03
	c-0.125-0.067-0.479-0.14-0.589-0.084c-0.11,0.059-0.364,0.026-0.364,0.026s-0.037-0.021-0.094-0.265
	c-0.06-0.246-0.162-0.246-0.219-0.324c-0.059-0.079-0.506-0.288-0.586-0.329c-0.078-0.041-0.129-0.062-0.188-0.015
	c-0.055,0.047-0.24,0.172-0.328,0.126c-0.088-0.048-0.082,0.062-0.082,0.151c0,0.088-0.09,0.104-0.09,0.104
	s-0.074-0.042-0.074-0.136s-0.104-0.178-0.197-0.198s-0.291-0.491-0.303-0.658c-0.009-0.165-0.126-0.229-0.126-0.229
	c-0.321-2.993-0.933-5.296-0.933-5.296c0.053-0.066,0.068-0.172,0.136-0.203s0.038-0.12,0.015-0.267
	c-0.02-0.146-0.885-3.655-0.838-3.911c0.045-0.256-0.12-0.641-0.146-0.688c-0.025-0.049-0.111-0.09-0.111-0.382
	c0-0.831-0.209-2.021-0.348-2.363c-0.141-0.344-0.138-0.317-0.111-0.449c0.1-0.503-0.25-2.488-0.25-2.488
	c0.168-0.033,0.365-0.455,0.428-0.532c0.064-0.078,0.35-0.443,0.34-0.542c-0.012-0.099-0.064-0.69-0.064-0.69
	c0.072,0.033,0.199-0.055,0.25-0.108c0.054-0.052,0.144-0.062,0.222-0.125c0.076-0.063,0.341-0.343,0.392-0.396
	c0.01,0.078,0.111,0.416,0.118,0.458c-0.02,0.04-0.062,0.229-0.021,0.413c0.041,0.183,0.271,0.244,0.309,0.178
	c0.057-0.014,0.005-0.245,0.056-0.35c0.054-0.105,0.054-0.194,0.06-0.366c0.005-0.172,0.011-0.83-0.074-0.985
	c-0.084-0.156-0.145-0.465-0.136-0.522c0.011-0.056-0.021-0.276-0.03-0.432c-0.012-0.156-0.146-0.45-0.256-1.106
	c-0.112-0.657-0.167-0.855-0.197-0.896c-0.033-0.044-0.061-0.179-0.061-0.179s0.047-0.058,0.039-0.183
	c-0.012-0.125-0.143-0.193-0.143-0.193c0.025-0.214-1.021-1.372-1.021-1.372c0.053-0.261-0.041-0.281-0.084-0.396
	c-0.042-0.113-0.265-1.285-0.246-1.413c0.021-0.131-0.077-2.573-0.25-3.053c-0.17-0.48-0.281-1.158-0.29-1.413
	c-0.012-0.256-0.263-0.881-0.263-0.881s0.105,0.057,0.146,0.005c0.043-0.052,0.089-0.052,0.131-0.063
	c0.041-0.01,0.078-0.073-0.01-0.177c-0.089-0.104-0.309-0.601-0.433-1.107c-0.126-0.505-0.231-0.854-0.435-1.116
	c-0.203-0.261-0.824-0.641-0.824-0.641c0.067-0.354,0.191-0.386,0.257-0.594c0.062-0.209,0.317-0.424,0.493-0.539
	c0.179-0.114,1.169-0.475,1.621-0.741c0.456-0.266,0.169-1.006,0.138-1.08c-0.032-0.073,0.021-0.183,0.053-0.292
	c0.032-0.11-0.041-0.302-0.093-0.354c-0.053-0.053-0.169-0.053-0.169-0.1c0-0.046,0.079-0.172,0.159-0.256
	c0.077-0.084,0.03-0.271-0.086-0.396c-0.113-0.126-0.15-0.376-0.15-0.376c0.135-0.104,0.115-0.26,0.115-0.354
	c0-0.093,0.02-0.145-0.073-0.25c-0.095-0.104-0.44-0.262-0.573-0.313c-0.137-0.052-0.189-0.073-0.209-0.136
	c-0.008-0.017-0.012-0.037-0.015-0.058c0.054-0.04,0.098-0.098,0.098-0.098s-0.047,0.032-0.105,0.034
	c-0.011-0.048-0.019-0.101-0.041-0.148c-0.041-0.094-0.005-0.692-0.052-0.803c-0.04-0.095-0.168-0.156-0.264-0.46
	c-0.112-0.353-0.719-1.241-1.065-1.768c-0.009-0.013-0.021-0.024-0.03-0.038c0.457,0.181,1.002,0.689,1.295,1.013
	c-0.306-0.336-0.855-0.877-1.32-1.049c0,0-0.001-0.001-0.004-0.002c-0.105-0.127-0.252-0.231-0.414-0.314
	c0.014-0.005,0.026-0.01,0.043-0.014c0.076-0.023,0.185-0.042,0.324-0.032c0.275,0.019,0.684,0.137,1.134,0.606
	c-0.453-0.473-0.851-0.611-1.132-0.631c-0.114-0.007-0.278,0.007-0.396,0.056c-0.167-0.084-0.344-0.143-0.502-0.184
	c0.033,0,0.052,0.001,0.052,0.001s-0.033-0.009-0.093-0.011c-0.229-0.054-0.412-0.071-0.472-0.056
	c-0.089,0.022-0.784,0.087-1.403,0.151c-0.408-0.074-1.18,0.029-1.889,0.19c-0.055,0.013-0.107,0.025-0.161,0.038
	c-0.306,0.023-0.501,0.171-0.56,0.219c-0.521,0.272-1.141,0.804-1.227,0.955c-0.11,0.195-0.094,0.412-0.18,0.444
	c-0.089-0.011-0.217-0.021-0.363-0.018c-0.266,0.007-0.563,0.079-0.754,0.281c0.184-0.194,0.49-0.251,0.754-0.257
	c0.115-0.004,0.22,0.002,0.303,0.012c-0.387,0.104-0.948,0.895-1.07,1.708c-0.032,0.213-0.025,0.446,0.006,0.68
	c0.016,0.48,0.062,0.967,0.146,1.336c0.037,0.687,0.141,1.345,0.32,1.604c-0.153-0.221-0.23-0.777-0.266-1.395
	c0.012,0.044,0.027,0.085,0.042,0.124c0.005,0.057,0.011,0.107,0.014,0.147c0.013,0.169,0.054,0.294,0.091,0.376
	c0.016,0.217,0.037,0.411,0.061,0.549c-0.023-0.135-0.041-0.324-0.054-0.534c0.04,0.088,0.079,0.131,0.081,0.132
	c0,0-0.029-0.043-0.061-0.129c-0.01-0.022-0.018-0.048-0.025-0.075c-0.007-0.113-0.012-0.231-0.016-0.348
	c0.029,0.149,0.064,0.28,0.104,0.39c0.035,0.25,0.074,0.478,0.11,0.634c-0.035-0.15-0.071-0.368-0.102-0.608
	c0.017,0.039,0.03,0.075,0.047,0.108c0.047,0.494,0.134,0.931,0.261,1.159c0,0.009,0,0.017,0.002,0.025
	c-0.021,0.145-0.041,0.273-0.053,0.36c-0.053,0.357,0.054,0.547,0.054,0.547s-0.018-0.046-0.028-0.137
	c-0.013-0.093-0.017-0.228,0.01-0.405c0.006-0.054,0.018-0.125,0.028-0.205c0.009,0.068,0.021,0.137,0.034,0.205
	c0.004,0.222,0.067,0.339,0.067,0.339s-0.017-0.047-0.028-0.139c0-0.017-0.002-0.038-0.004-0.059
	c0.023,0.087,0.052,0.166,0.082,0.228c0.016,0.245,0.029,0.609-0.008,0.734c0.037-0.123,0.04-0.431,0.035-0.684
	c0.004,0.008,0.011,0.016,0.015,0.022c0.008,0.012,0.017,0.028,0.027,0.044c0.037,0.184,0.073,0.352,0.096,0.459
	c0.073,0.354,0.237,0.494,0.239,0.497c0,0-0.032-0.039-0.075-0.121c-0.042-0.083-0.093-0.209-0.13-0.383
	c-0.016-0.082-0.041-0.2-0.069-0.332c0.109,0.234,0.206,0.565,0.271,0.72c0.211,0.501,0.694,0.766,0.694,0.766h0.005
	c0.053,0.043,0.125,0.096,0.211,0.144c0.127,0.069,0.281,0.13,0.441,0.138c0.054,0.111,0.111,0.217,0.168,0.315
	c-0.01,0.075-0.004,0.139-0.004,0.139c-0.104-0.012-0.18,0.064-0.18,0.064c-0.168-0.586-0.73-0.53-0.824-0.53
	c-0.092,0-0.782,0.151-0.912,0.094c-0.13-0.058-0.424,0.026-0.668,0.14c-0.178,0.083-0.771,0.257-1.127,0.346
	c-0.134-0.136-0.553-0.552-0.637-0.569c-0.1-0.021-0.141-0.046-0.155-0.098c-0.017-0.053-0.11-0.085-0.188-0.063
	s-0.463,0.183-0.73,0.266c-0.265,0.083-0.355,0.1-0.441,0.177c-0.09,0.078-0.319,0.339-0.289,0.694
	c0.021,0.232,0.059,0.499,0.082,0.658c-0.229,0.06-0.305,0.167-0.405,0.239c-0.151,0.108-0.989,0.403-1.221,0.443
	c-0.229,0.04-1.054,0.271-1.231,0.343c-0.178,0.073-0.438,0.126-0.547,0.277c-0.111,0.151-0.167,0.319-0.167,0.319
	s-0.151,0.042-0.293,0.349c-0.094,0.207-0.087,0.616-0.067,0.929c-0.041,0.087-0.115,0.254-0.131,0.329
	C57.947,52.754,57.916,52.928,58.01,52.952z M65.407,42.753c-0.038-0.256-0.063-0.554-0.077-0.866
	c0.02,0.092,0.041,0.183,0.066,0.27c0,0.11,0.002,0.225,0.004,0.34C65.401,42.582,65.404,42.667,65.407,42.753z M65.594,43.164
	c0-0.022-0.001-0.045-0.001-0.067c0.021,0.137,0.047,0.263,0.076,0.375c0.011,0.077,0.02,0.153,0.031,0.229
	C65.656,43.554,65.621,43.371,65.594,43.164z M65.555,43.323c0.013,0.022,0.024,0.043,0.037,0.061
	c0.006,0.093,0.012,0.184,0.017,0.273c-0.021-0.077-0.039-0.173-0.05-0.289C65.559,43.355,65.557,43.338,65.555,43.323z
	 M65.445,42.442c0.021,0.25,0.047,0.55,0.064,0.764c-0.014-0.045-0.029-0.095-0.044-0.149
	C65.455,42.854,65.449,42.647,65.445,42.442z M65.492,42.466c-0.001,0.033-0.001,0.063-0.001,0.092
	c-0.003-0.044-0.008-0.086-0.011-0.127C65.483,42.443,65.488,42.454,65.492,42.466z M65.52,42.784
	c0.017,0.167,0.039,0.328,0.064,0.474c0.002,0.042,0.004,0.085,0.008,0.126c-0.012-0.019-0.024-0.04-0.037-0.064
	c-0.012-0.151-0.03-0.381-0.049-0.612C65.508,42.736,65.514,42.761,65.52,42.784z M65.583,42.739c0.019,0.169,0.04,0.364,0.064,0.56
	c-0.025-0.154-0.046-0.328-0.063-0.512C65.584,42.771,65.583,42.754,65.583,42.739z M65.637,43.062
	c0.016,0.053,0.032,0.098,0.049,0.135c0.014,0.176,0.029,0.339,0.046,0.468c-0.02-0.062-0.038-0.132-0.054-0.208
	C65.663,43.323,65.65,43.19,65.637,43.062z M65.68,43.105c-0.016-0.057-0.029-0.125-0.04-0.201c0.011,0.049,0.021,0.092,0.034,0.129
	C65.676,43.058,65.678,43.082,65.68,43.105z M65.715,42.998c-0.001-0.005-0.002-0.01-0.004-0.015
	c0.002,0.003,0.002,0.004,0.004,0.006C65.715,42.992,65.715,42.995,65.715,42.998z M65.716,43.223
	c-0.002-0.003-0.003-0.006-0.005-0.01c-0.006-0.023-0.015-0.048-0.024-0.076c-0.001-0.021-0.003-0.044-0.003-0.068
	c0.01,0.042,0.021,0.085,0.029,0.127C65.714,43.205,65.715,43.213,65.716,43.223z M65.721,43.228c0-0.004,0-0.008-0.001-0.01
	l0.001,0.001C65.721,43.223,65.721,43.224,65.721,43.228z M65.746,43.701c-0.005-0.012-0.008-0.025-0.014-0.037
	c-0.017-0.126-0.029-0.283-0.041-0.454c0.01,0.021,0.018,0.039,0.028,0.054c0.001,0.013,0.003,0.024,0.003,0.037
	C65.729,43.437,65.736,43.57,65.746,43.701z M65.76,43.861c-0.018-0.037-0.033-0.078-0.049-0.124
	c-0.008-0.064-0.016-0.13-0.024-0.197c0.017,0.051,0.033,0.099,0.049,0.143c0.003,0.021,0.006,0.042,0.01,0.061
	c-0.004-0.019-0.007-0.039-0.01-0.06c0.003,0.01,0.007,0.021,0.013,0.029C65.752,43.764,65.756,43.813,65.76,43.861z M65.781,43.246
	c-0.002-0.006-0.008-0.016-0.014-0.028c-0.001,0-0.001-0.002-0.001-0.002c-0.001-0.038-0.001-0.074-0.003-0.111
	c0.005,0.033,0.01,0.066,0.016,0.1C65.78,43.218,65.781,43.232,65.781,43.246z M65.785,43.29c-0.004-0.015-0.008-0.032-0.012-0.048
	c0.004,0.004,0.007,0.008,0.008,0.012C65.782,43.265,65.783,43.277,65.785,43.29z M65.882,43.401
	c-0.015-0.064-0.029-0.127-0.045-0.19c0.015,0.042,0.028,0.086,0.042,0.139C65.88,43.368,65.881,43.384,65.882,43.401z
	 M65.893,43.677c-0.008-0.035-0.013-0.071-0.021-0.112c0.008,0.027,0.013,0.056,0.02,0.083
	C65.892,43.659,65.892,43.667,65.893,43.677z M65.895,43.704c-0.019-0.067-0.039-0.137-0.057-0.206
	c-0.003-0.037-0.006-0.076-0.009-0.114c0.006,0.034,0.015,0.066,0.023,0.099c0.003,0.022,0.009,0.044,0.015,0.065
	c0.01,0.047,0.017,0.089,0.025,0.129C65.895,43.687,65.895,43.695,65.895,43.704z M65.902,43.86
	c0.006,0.128,0.016,0.256,0.023,0.379c-0.02-0.077-0.039-0.173-0.049-0.289c-0.005-0.062-0.014-0.143-0.021-0.235
	c0.008,0.024,0.017,0.047,0.024,0.071c0.002,0.009,0.003,0.019,0.005,0.028c-0.002-0.009-0.003-0.018-0.005-0.028
	C65.887,43.812,65.895,43.836,65.902,43.86z M65.934,43.628c-0.01-0.042-0.02-0.084-0.029-0.126c0-0.016,0-0.031,0-0.046
	c0.008,0.039,0.017,0.082,0.025,0.125C65.932,43.596,65.932,43.612,65.934,43.628z M65.978,43.981
	c-0.022-0.071-0.045-0.144-0.066-0.218c0-0.013-0.001-0.027-0.001-0.041c0.021,0.08,0.042,0.159,0.064,0.237
	C65.976,43.967,65.977,43.974,65.978,43.981z M66.003,44.062c-0.003-0.007-0.005-0.015-0.007-0.024c0,0-0.002-0.006-0.002-0.009
	c0.003,0.009,0.006,0.018,0.01,0.028L66.003,44.062L66.003,44.062z M66.029,44.324c-0.006-0.05-0.014-0.102-0.02-0.153
	c0.002,0.006,0.004,0.012,0.007,0.017C66.021,44.234,66.025,44.28,66.029,44.324z M66.032,44.777
	c-0.011,0.072-0.015,0.158-0.012,0.247c-0.112-0.209-0.179-0.615-0.216-1.085c-0.004-0.041-0.007-0.083-0.01-0.125
	c0.012,0.019,0.021,0.037,0.034,0.055c-0.013-0.018-0.022-0.036-0.034-0.056c-0.01-0.127-0.016-0.258-0.021-0.389
	c0.01,0.041,0.021,0.08,0.033,0.12c0.014,0.164,0.025,0.312,0.035,0.409c0.014,0.168,0.053,0.293,0.09,0.378
	c0.018,0.215,0.037,0.409,0.061,0.547c-0.023-0.136-0.04-0.323-0.054-0.533c0.043,0.088,0.079,0.129,0.08,0.13
	c0,0-0.029-0.043-0.062-0.129c-0.006-0.022-0.016-0.048-0.023-0.075c-0.006-0.119-0.013-0.243-0.018-0.368
	c0.026,0.079,0.053,0.154,0.08,0.228c0.014,0.096,0.027,0.19,0.039,0.28C66.045,44.568,66.047,44.699,66.032,44.777z M76.268,62.756
	c0.047-0.006,0.194-0.178,0.194-0.178c0.02,0.03,0.05,0.03,0.05,0.03c-0.067,0.018-0.225,0.204-0.225,0.204L76.268,62.756z
	 M68.522,37.578c0.269-0.042,0.585-0.093,0.789-0.126C69.112,37.501,68.843,37.559,68.522,37.578z M68.479,37.55
	c0.731-0.17,1.514-0.307,1.92-0.249c-0.29,0.03-0.562,0.059-0.748,0.084c-0.071-0.003-0.156,0-0.252,0.016
	C69.203,37.434,68.801,37.499,68.479,37.55z M67.912,47.661c0.002,0.001,0.006,0.002,0.008,0.004h0.002c0,0-0.006,0-0.009-0.001
	L67.912,47.661z M67.436,47.546c0.047,0.025,0.097,0.047,0.15,0.062c0.058,0.039,0.121,0.071,0.186,0.092
	C67.654,47.668,67.537,47.613,67.436,47.546z M67.459,47.509c0.018,0.018,0.035,0.033,0.055,0.048
	c-0.035-0.013-0.07-0.029-0.102-0.048H67.459z M67.5,47.509c0.028,0.029,0.068,0.054,0.117,0.074
	c0.006,0.005,0.016,0.009,0.023,0.013c-0.019-0.003-0.035-0.006-0.054-0.012c-0.034-0.022-0.066-0.048-0.096-0.075H67.5z
	 M67.545,47.509c0.006,0.015,0.016,0.027,0.029,0.04c-0.023-0.013-0.041-0.025-0.059-0.04H67.545z M67.725,47.531
	c0.023,0.029,0.059,0.059,0.1,0.084c-0.004,0-0.008-0.001-0.012-0.001c-0.02,0.001-0.043-0.001-0.065-0.004
	c-0.042-0.01-0.085-0.022-0.124-0.039c-0.031-0.018-0.053-0.04-0.064-0.062l0.122,0.001C67.694,47.519,67.711,47.525,67.725,47.531z
	 M67.782,47.53c-0.017-0.005-0.032-0.012-0.046-0.02l0.014,0.001C67.762,47.518,67.771,47.525,67.782,47.53z M67.841,47.61
	c-0.034-0.021-0.065-0.042-0.089-0.066c0.021,0.01,0.043,0.014,0.063,0.021C67.824,47.581,67.834,47.596,67.841,47.61z
	 M67.865,47.657c-0.029-0.005-0.061-0.012-0.091-0.021c0.013,0.001,0.028,0.002,0.04,0.002c0.008,0,0.015,0,0.02,0
	c0.008,0.002,0.018,0.003,0.025,0.006C67.861,47.646,67.861,47.652,67.865,47.657z M67.873,47.67
	c0.005,0.01,0.012,0.017,0.016,0.024c0.002,0.006,0.004,0.01,0.006,0.012c-0.012-0.001-0.025-0.005-0.037-0.008
	c-0.066-0.011-0.137-0.037-0.202-0.074c0.025,0.006,0.05,0.009,0.075,0.012C67.777,47.651,67.828,47.663,67.873,47.67z
	 M67.924,47.601c-0.004-0.005-0.01-0.008-0.013-0.011c0.002,0.001,0.006,0.002,0.009,0.003
	C67.922,47.595,67.922,47.598,67.924,47.601z M67.936,47.623c-0.01-0.001-0.02-0.003-0.027-0.005
	c-0.004-0.003-0.01-0.008-0.012-0.011l-0.006,0.006c-0.004-0.011-0.01-0.021-0.014-0.033h0.002c0.002,0.001,0.006,0.001,0.009,0.001
	c0.013,0.013,0.028,0.026,0.046,0.039C67.936,47.622,67.936,47.623,67.936,47.623z M67.939,47.681
	c0.016,0.016,0.03,0.033,0.045,0.047c0.002,0.001,0.002,0.002,0.002,0.002c-0.007,0-0.014,0-0.022,0
	c-0.005-0.003-0.013-0.005-0.019-0.009c-0.008-0.012-0.015-0.024-0.023-0.037c0-0.002-0.002-0.005-0.002-0.008
	c0.006,0.002,0.012,0.002,0.018,0.004C67.938,47.681,67.938,47.681,67.939,47.681z M67.954,47.693
	c0.009,0.007,0.015,0.013,0.022,0.021c0.003,0.003,0.006,0.007,0.007,0.011C67.973,47.715,67.963,47.704,67.954,47.693z
	 M67.946,47.65c-0.001,0-0.003-0.001-0.005-0.001C67.941,47.649,67.945,47.649,67.946,47.65L67.946,47.65z M67.954,47.665
	c0,0-0.001,0-0.003-0.002L67.954,47.665C67.954,47.665,67.954,47.665,67.954,47.665z M68.018,47.641
	c-0.014-0.003-0.026-0.006-0.039-0.009c-0.004-0.008-0.008-0.015-0.013-0.025c0.015,0.006,0.028,0.012,0.044,0.019
	C68.012,47.631,68.013,47.635,68.018,47.641z M68.096,47.823c0.004,0.009,0.009,0.018,0.013,0.027
	c-0.014-0.012-0.026-0.025-0.042-0.04c0-0.003-0.002-0.004-0.003-0.005C68.074,47.811,68.086,47.817,68.096,47.823z M68.07,47.782
	c0.002,0,0.004,0,0.006-0.001c0,0.001,0.001,0.001,0.001,0.001c0.001,0.002,0.003,0.003,0.003,0.003
	C68.076,47.785,68.074,47.784,68.07,47.782z M68.062,47.722c0-0.003-0.002-0.006-0.003-0.008c0.005,0.001,0.011,0.004,0.019,0.006
	C68.072,47.721,68.066,47.722,68.062,47.722z M68.051,47.694c0,0,0-0.002-0.002-0.004c0.014,0.003,0.025,0.007,0.039,0.011
	c0.01,0.004,0.018,0.007,0.025,0.01v0.001C68.092,47.706,68.07,47.7,68.051,47.694z M68.053,47.725
	c-0.008,0.001-0.015,0.002-0.02,0.002c-0.005-0.002-0.011-0.007-0.016-0.011c-0.004-0.007-0.006-0.012-0.01-0.02
	c0.004,0.001,0.005,0.003,0.008,0.004c0.009,0.001,0.021,0.006,0.029,0.009C68.049,47.715,68.051,47.719,68.053,47.725z
	 M68.001,47.681C68,47.681,68,47.68,67.999,47.68c0,0-0.001-0.002-0.001-0.003c0.014,0.003,0.025,0.006,0.039,0.011
	c0,0.001,0.001,0.003,0.001,0.005c-0.009-0.002-0.021-0.005-0.028-0.008C68.007,47.684,68.004,47.682,68.001,47.681z M67.991,47.661
	c-0.001,0-0.001,0-0.003-0.003c0.004,0.001,0.006,0.002,0.008,0.002c0.006,0.002,0.011,0.005,0.015,0.008
	C68.004,47.665,67.998,47.663,67.991,47.661z M68.053,47.651c-0.008-0.002-0.015-0.005-0.021-0.007
	c-0.002-0.003-0.004-0.007-0.005-0.01C68.035,47.641,68.043,47.645,68.053,47.651z M68.113,47.696
	c-0.008-0.003-0.016-0.004-0.023-0.006c-0.01-0.005-0.021-0.009-0.032-0.014c0.018,0.005,0.034,0.013,0.054,0.017
	C68.111,47.694,68.112,47.695,68.113,47.696z M68.115,47.697L68.115,47.697c-0.002,0-0.002-0.001-0.002-0.003
	c0,0,0,0.001,0.002,0.001C68.115,47.697,68.115,47.697,68.115,47.697z M68.149,47.762c0.009,0.013,0.013,0.026,0.021,0.041
	c-0.021-0.009-0.04-0.018-0.06-0.03C68.123,47.77,68.137,47.765,68.149,47.762z M68.188,47.756
	c-0.003-0.002-0.008-0.004-0.013-0.007l-0.002-0.006c0,0,0.003,0,0.004,0C68.182,47.747,68.188,47.751,68.188,47.756z
	 M68.221,47.792c-0.008-0.008-0.014-0.012-0.022-0.02c0.005,0,0.011,0.004,0.013,0.007C68.215,47.784,68.219,47.788,68.221,47.792z
	 M68.238,47.828c-0.018-0.006-0.036-0.012-0.053-0.02c-0.01-0.017-0.018-0.033-0.025-0.049c0.002-0.001,0.002-0.001,0.004-0.002
	c0.012,0.005,0.023,0.009,0.031,0.012c0.011,0.009,0.018,0.016,0.026,0.023C68.231,47.806,68.238,47.817,68.238,47.828z
	 M68.215,47.871c-0.004-0.009-0.008-0.02-0.014-0.03c0.011,0.003,0.021,0.005,0.034,0.009
	C68.231,47.858,68.227,47.865,68.215,47.871z M68.202,47.865c-0.036-0.025-0.072-0.049-0.11-0.072c0,0-0.001,0-0.002-0.001
	c0.032,0.018,0.066,0.033,0.099,0.045C68.193,47.844,68.197,47.855,68.202,47.865z M68.154,47.939
	c-0.012-0.025-0.021-0.05-0.033-0.074c0.014,0.011,0.023,0.022,0.035,0.032c-0.012-0.009-0.021-0.021-0.035-0.032
	c-0.004-0.011-0.008-0.022-0.013-0.034c0.029,0.019,0.058,0.037,0.087,0.057C68.18,47.902,68.164,47.919,68.154,47.939z
	 M68.145,47.934c-0.025-0.036-0.051-0.075-0.076-0.122c0.015,0.014,0.026,0.027,0.04,0.04C68.12,47.88,68.133,47.906,68.145,47.934z
	 M68.137,47.976c-0.043-0.044-0.094-0.105-0.148-0.185c0.01,0,0.019-0.002,0.026-0.002c0.042,0.073,0.083,0.133,0.123,0.18
	C68.138,47.97,68.137,47.973,68.137,47.976z M68.11,48.065c-0.034-0.06-0.065-0.124-0.099-0.19c0.043,0.05,0.082,0.088,0.115,0.117
	C68.12,48.015,68.113,48.041,68.11,48.065z M62.988,48.613c0.129-0.282,0.156-0.448,0.156-0.448s0.369,0.141,0.457,0.177
	c0.064,0.026,0.205,0.091,0.277,0.124c-0.109,0.049-0.23,0.132-0.339,0.273c-0.21,0.271-0.334,0.568-0.334,0.568
	s-0.021,0.044-0.256,0.064C62.925,49.195,62.891,48.822,62.988,48.613z M59.95,60.011c0.004-0.038,0.012-0.106,0.026-0.121
	c0.014-0.018,0.051-0.036,0.075-0.047c0.026-0.015,0.034,0.039,0.04,0.125c0.01,0.084-0.053,0.112-0.107,0.135
	C59.927,60.125,59.947,60.049,59.95,60.011z M60.021,59.196c0.023,0,0.02,0.08,0.014,0.102c-0.008,0.022-0.035,0.026-0.059,0.026
	c-0.021,0-0.016-0.042-0.012-0.07C59.967,59.215,59.998,59.196,60.021,59.196z M57.995,52.777c0-0.075,0.055-0.141,0.126-0.154
	c0.002,0.016,0.004,0.029,0.004,0.043c0.005,0.066,0.018,0.155,0.037,0.269c-0.003,0.001-0.005,0.003-0.008,0.003
	C58.065,52.938,57.995,52.866,57.995,52.777z"/>
</svg>
