<?xml version="1.0" encoding="utf-8"?>
<!-- Generator: Adobe Illustrator 15.0.2, SVG Export Plug-In . SVG Version: 6.00 Build 0)  -->
<!DOCTYPE svg PUBLIC "-//W3C//DTD SVG 1.1//EN" "http://www.w3.org/Graphics/SVG/1.1/DTD/svg11.dtd">
<svg version="1.1" id="Ebene_1" xmlns="http://www.w3.org/2000/svg" xmlns:xlink="http://www.w3.org/1999/xlink" x="0px" y="0px"
	 width="100px" height="100px" viewBox="0 0 100 100" enable-background="new 0 0 100 100" xml:space="preserve">
<circle fill="#B2B2B2" cx="50" cy="50" r="50"/>
<g>
	<path fill="#1D1D1B" d="M60.49,16.512c0.425-0.141,0.355-0.912,0.567-1.753c0.213-0.842,0.495-0.912,0.851-1.262
		c0.354-0.351,0.638-2.173-0.638-2.313c0,0-4.037-3.576-5.384-3.506c-1.348,0.069-3.684,0.912-4.394,1.612
		c-0.425,0.21-2.408-0.631-3.329,1.473s-1.062,5.119-1.984,5.75c-0.92,0.631-3.046,2.804-2.479,4.417
		c0.09,0.178,0.157,0.311,0.207,0.409c-0.402,0.328-0.806,0.718-1.198,1.204c-1.748,2.162-2.165,2.084-2.231,1.913
		c-0.349,0.535-3.353,2.785-4.145,2.785c-0.85,0-2.621,1.122-2.976,1.894c-0.354,0.771-1.417,2.033-1.559,3.014
		c-0.142,0.982,1.842,11.008,1.842,12.411s0.141,4.768,2.621,4.698s3.472,0,3.968,0.351c0.281,0.199,0.93-0.192,1.515-0.772
		c-0.403,1.783-0.733,3.545-0.666,4.207c0.142,1.402-0.496,4.697-0.566,5.539c-0.071,0.842,0.566,3.507,0.566,4.559
		c0,1.05,0,2.522-0.425,3.506c-0.424,0.981-1.487,7.642-1.346,7.921c0.142,0.281,0.566,0.142,0.566,0.142s0,1.823,0.283,3.715
		c0.284,1.894,0.496,6.241,0.284,7.223c-0.354,0.351-0.992,0.351-0.992,0.351s0,1.191-0.425,1.894
		c-0.425,0.701-1.346,3.506-0.566,3.646c0.779,0.142,7.934,0.562,9.067,0.702s4.604,0.281,5.383-1.052
		c0.566,0.14,2.904,0.35,3.614-1.123c0.638-1.121,0.707-1.752,0.282-1.752c-0.424,0-3.684-0.14-4.179-0.632
		c-0.497-0.491-1.629-1.752-2.338-1.962c-0.709-0.211-1.275-0.632-1.275-0.632s0.497-1.191-0.354-0.842
		c-0.284-0.14-0.282-4.629,0.425-6.73c0.425-1.402,0.425-1.402,0.425-1.402l2.055,0.07c0,0,0-1.473,0.638-1.401
		c0.638,0.068,2.479,0.631,2.762,0.068c0.284-0.561,1.631-10.866,1.844-13.252c0.21-2.383-0.922-12.62-0.922-13.391
		c0-0.771,0.425-1.053,0.709-0.982c0.282,0.07,1.202,0.491,1.133,0.841c-0.072,0.351-0.355,0.771,0.425,0.701
		c0.425-0.071,0.638,0.701,1.417-0.071c0.212-0.14,0.425,0.562,0.991-0.42c0.354-0.141,1.134,0,1.062-1.403
		c-0.284-1.333-2.764-4.207-3.117-4.697c-0.354-0.492-1.488-1.823-1.629-2.244c-0.142-0.42-0.709-6.45-0.495-8.063
		c0.211-1.613-0.991-6.731-1.347-7.503c-0.354-0.771-1.135-1.683-0.991-2.033c0.141-0.351,0.707-1.543,1.345-1.262
		s1.984,1.612,2.977,0.351c0.212-0.421,0.425-0.771,0.638-0.982c0.212-0.21,0.141-0.701,0.141-0.701s0.284,0.351,0.566-0.701
		c0.497,0,1.206-0.07,0.851-0.911C60.137,17.354,60.064,16.652,60.49,16.512z"/>
	<path fill="#1D1D1B" d="M40.479,24.455c0.026-0.039,0.04-0.071,0.035-0.09C40.491,24.276,40.448,24.375,40.479,24.455z"/>
</g>
</svg>
