<?xml version="1.0" encoding="utf-8"?>
<!-- Generator: Adobe Illustrator 15.0.2, SVG Export Plug-In . SVG Version: 6.00 Build 0)  -->
<!DOCTYPE svg PUBLIC "-//W3C//DTD SVG 1.1//EN" "http://www.w3.org/Graphics/SVG/1.1/DTD/svg11.dtd">
<svg version="1.1" id="Ebene_1" xmlns="http://www.w3.org/2000/svg" xmlns:xlink="http://www.w3.org/1999/xlink" x="0px" y="0px"
	 width="100px" height="100px" viewBox="0 0 100 100" enable-background="new 0 0 100 100" xml:space="preserve">
<circle fill="#B2B2B2" cx="50" cy="50" r="50"/>
<g>
	<g>
		<path d="M34.128,64.969c-3.987,0.002-7.219,3.232-7.219,7.221s3.231,7.219,7.219,7.221c3.988-0.002,7.22-3.232,7.221-7.221
			C41.348,68.201,38.116,64.971,34.128,64.969z M37.088,76.629l-1.954-3.746c0.036-0.053,0.067-0.111,0.096-0.17l4.223-0.18
			c-0.085,1.338-0.658,2.537-1.551,3.43C37.653,76.211,37.381,76.434,37.088,76.629z M30.355,75.963
			c-0.892-0.893-1.466-2.092-1.552-3.43l4.225,0.18c0.027,0.059,0.059,0.117,0.096,0.168l-1.955,3.748
			C30.876,76.436,30.604,76.211,30.355,75.963z M31.169,67.748l1.955,3.75c-0.036,0.053-0.068,0.109-0.096,0.168l-4.225,0.18
			c0.086-1.338,0.66-2.537,1.552-3.43C30.604,68.168,30.876,67.945,31.169,67.748z M34.128,66.854c0.853,0,1.654,0.199,2.366,0.553
			l-2.268,3.564c-0.032-0.002-0.065-0.004-0.098-0.004c-0.034,0-0.065,0.002-0.099,0.004l-2.268-3.564
			C32.476,67.053,33.276,66.854,34.128,66.854z M34.822,72.189c0,0.383-0.311,0.693-0.693,0.693c-0.384,0-0.694-0.311-0.694-0.693
			s0.311-0.693,0.694-0.693C34.512,71.496,34.822,71.807,34.822,72.189z M34.03,73.408c0.032,0.002,0.064,0.004,0.099,0.004
			c0.032,0,0.065-0.002,0.099-0.004l2.267,3.564c-0.712,0.354-1.514,0.553-2.366,0.553c-0.852,0-1.652-0.199-2.365-0.553
			L34.03,73.408z M35.229,71.666c-0.027-0.059-0.059-0.115-0.095-0.17l1.954-3.746c0.293,0.195,0.565,0.418,0.813,0.666
			c0.893,0.893,1.466,2.092,1.551,3.43L35.229,71.666z"/>
	</g>
	<g>
		<path d="M69.604,39.064c-11.141,0-20.172,9.031-20.172,20.172S58.464,79.41,69.604,79.41c11.142,0,20.173-9.033,20.173-20.174
			S80.746,39.064,69.604,39.064z M87.087,58.15l-0.95-0.039c-0.354-5.264-3.159-9.852-7.288-12.631l0.438-0.841
			C83.727,47.589,86.741,52.508,87.087,58.15z M69.921,55.324c-0.104-0.01-0.209-0.018-0.316-0.018
			c-0.105,0-0.211,0.008-0.314,0.018l-6.289-9.891c1.998-0.958,4.237-1.496,6.604-1.496c2.368,0,4.607,0.537,6.605,1.496
			L69.921,55.324z M66.377,57.012c-0.117,0.172-0.218,0.354-0.308,0.541l-11.713,0.502c0.286-3.754,1.922-7.126,4.431-9.636
			c0.665-0.665,1.393-1.266,2.169-1.8L66.377,57.012z M66.069,60.92c0.089,0.189,0.19,0.371,0.308,0.543l-5.421,10.393
			c-0.776-0.535-1.503-1.137-2.169-1.801c-2.509-2.51-4.145-5.881-4.431-9.637L66.069,60.92z M69.289,63.15
			c0.104,0.01,0.21,0.018,0.315,0.018c0.107,0,0.213-0.008,0.317-0.018l6.288,9.889c-1.999,0.959-4.237,1.496-6.605,1.496
			c-2.366,0-4.604-0.537-6.604-1.496L69.289,63.15z M72.835,61.463c0.117-0.172,0.219-0.354,0.309-0.543l11.711-0.502
			c-0.287,3.756-1.923,7.127-4.432,9.637c-0.665,0.664-1.392,1.266-2.168,1.799L72.835,61.463z M73.143,57.555
			c-0.09-0.189-0.19-0.373-0.309-0.543l5.421-10.393c0.776,0.534,1.503,1.135,2.168,1.8c2.509,2.51,4.145,5.882,4.432,9.636
			L73.143,57.555z M69.604,41.719c2.805,0,5.453,0.663,7.803,1.834l-0.51,0.801c-2.2-1.081-4.675-1.689-7.293-1.689
			c-2.617,0-5.091,0.608-7.292,1.688l-0.509-0.8C64.153,42.381,66.802,41.719,69.604,41.719z M59.923,44.639l0.438,0.841
			c-4.129,2.779-6.933,7.368-7.287,12.629l-0.95,0.041C52.47,52.508,55.484,47.589,59.923,44.639z M52.124,60.322l0.95,0.041
			c0.354,5.262,3.159,9.852,7.288,12.631l-0.439,0.842C55.484,70.885,52.47,65.965,52.124,60.322z M69.604,76.756
			c-2.803,0-5.451-0.664-7.801-1.834l0.509-0.801c2.201,1.08,4.676,1.689,7.292,1.689c2.618,0,5.093-0.609,7.293-1.689l0.51,0.801
			C75.058,76.092,72.409,76.756,69.604,76.756z M79.287,73.836l-0.438-0.842c4.129-2.779,6.934-7.369,7.286-12.631l0.952-0.041
			C86.741,65.965,83.727,70.885,79.287,73.836z"/>
	</g>
	<g>
		<path d="M81.284,20.59h-5.521c-0.233,0-0.425,0.19-0.425,0.425h-3.185c-1.643,0-2.973,1.331-2.973,2.973v4.247h-2.548v-0.377
			c0-0.469-0.381-0.849-0.85-0.849H44.057c-0.47,0-0.85,0.38-0.85,0.849v0.377h-1.844c-1.643,0-2.972,1.332-2.973,2.972v3.823
			h-0.212v14.227h0.212v0.849h-2.395c-0.581,0.006-1.102,0.212-1.571,0.506c-0.467,0.298-0.883,0.693-1.174,1.193L21.668,72.195
			l0.554,0.314l-6.587-3.342l-0.318,0.314l-1.199-0.607l0.192-0.379l-2.462-1.25l-0.192,0.379l-0.568-0.287l-0.864,1.705
			l0.568,0.287l-0.097,0.189l2.462,1.248l0.097-0.189l0.631,0.32l-0.159,0.158l9.469,4.803l0.096-0.189l0.568,0.289l0.864-1.705
			l-0.567-0.289l0.191-0.377L23.17,72.99l3.16-5.564l0.785,0.398l0.836-1.648l-0.707-0.357l5.909-10.404h5.237v4.672h-0.212v-1.061
			h-0.021c-0.1-0.486-0.526-0.85-1.041-0.85c-0.513,0-0.941,0.363-1.04,0.85h-0.021v1.061h-1.273v1.699h1.273v7.818l-2.548,1.312
			c-0.703,0-1.274,0.57-1.274,1.273v0.213c0,0.703,0.571,1.273,1.274,1.273l7.008-3.609c0.703,0,1.274-0.57,1.274-1.273V68.58
			c0-0.703-0.571-1.273-1.274-1.273l-2.336,1.203v-6.725h0.212h0.85h37.372v0.309h2.606c0.319,0,0.579-0.26,0.579-0.578v-1.158
			c0-0.32-0.26-0.58-0.579-0.58h-2.606v0.309H70.88V49.257h0.424V35.03H70.88v-5.945v0v-5.097c0.001-0.703,0.57-1.272,1.273-1.273
			l3.185-0.001v0.001c0,0.234,0.191,0.424,0.425,0.424h0.213c0-0.234,0.19-0.424,0.425-0.424s0.425,0.19,0.425,0.424h0.212
			c0-0.234,0.19-0.424,0.425-0.424s0.425,0.19,0.425,0.424h0.212c0-0.234,0.19-0.424,0.425-0.424s0.425,0.19,0.425,0.424h0.213
			c0-0.234,0.189-0.424,0.425-0.424c0.234,0,0.424,0.19,0.424,0.424h0.212c0-0.234,0.19-0.424,0.425-0.424
			c0.235,0,0.426,0.19,0.426,0.424h0.212c0.234,0,0.425-0.19,0.425-0.424v-1.699C81.709,20.781,81.519,20.59,81.284,20.59z
			 M38.391,54.354h-4.634l0.968-1.705c0.112-0.199,0.35-0.439,0.609-0.604c0.258-0.168,0.539-0.246,0.662-0.24h2.395V54.354z
			 M40.089,49.257h8.494v1.94l-0.465,0.607h-8.029V49.257z M40.089,60.086v-7.008h9.229l1.663,1.275l0.977-1.275h4.893l1.222,7.008
			H40.089z M50.07,50.981v-1.724h6.114l0.443,2.548h-5.482L50.07,50.981z M57.262,49.257h7.51l0.445,2.548h-7.511L57.262,49.257z
			 M59.148,60.086l-1.22-7.008h7.51l1.221,7.008H59.148z M69.181,60.086h-1.443l-1.222-7.008h2.665V60.086z M69.181,51.805h-2.887
			l-0.444-2.548h3.331V51.805z M69.181,35.03H40.09v-3.823c0.001-0.702,0.57-1.272,1.273-1.273l27.817,0V35.03z"/>
	</g>
</g>
</svg>
