<?xml version="1.0" encoding="utf-8"?>
<!-- Generator: Adobe Illustrator 15.0.2, SVG Export Plug-In . SVG Version: 6.00 Build 0)  -->
<!DOCTYPE svg PUBLIC "-//W3C//DTD SVG 1.1//EN" "http://www.w3.org/Graphics/SVG/1.1/DTD/svg11.dtd">
<svg version="1.1" id="Ebene_1" xmlns="http://www.w3.org/2000/svg" xmlns:xlink="http://www.w3.org/1999/xlink" x="0px" y="0px"
	 width="100px" height="100px" viewBox="0 0 100 100" enable-background="new 0 0 100 100" xml:space="preserve">
<circle fill="#B2B2B2" cx="50" cy="50" r="50"/>
<g>
	<path d="M60.811,61.36c-0.666,0-0.055,0.559,0.277,0.568C61.17,61.708,61.133,61.36,60.811,61.36
		C60.66,61.36,60.906,61.36,60.811,61.36z"/>
	<path d="M62.865,61.524C62.607,62.774,63.01,61.524,62.865,61.524C62.865,61.524,63.014,61.524,62.865,61.524z"/>
	<path d="M60.707,53.472c-0.037-0.394-0.244-0.518-0.613-0.391v0.521C60.363,53.716,60.568,53.671,60.707,53.472L60.707,53.472z"/>
	<path d="M66.969,33.256l0.043,0.233c0.139,0.047,0.348,0.041,0.477-0.087c-0.125-0.121-0.104-0.207,0.068-0.235
		c-0.023-0.157-0.129-0.269-0.291-0.324C67.104,32.944,66.996,33.087,66.969,33.256L66.969,33.256z"/>
	<path d="M69.078,32.566c0.453-0.343,0.352-0.524-0.268-0.52c-0.111,0.157-0.154,0.297-0.133,0.547
		C68.814,32.614,68.947,32.604,69.078,32.566L69.078,32.566z"/>
	<path d="M80.201,33.965c0.096,0.202,0.365,0.224,0.537,0.162C80.475,33.243,80.002,33.808,80.201,33.965
		C80.256,34.082,80.186,33.952,80.201,33.965z"/>
	<path d="M65.861,31.259c0.264,0.129,0.477,0.043,0.605-0.234c-0.205-0.232-0.477-0.317-0.787-0.259
		c-0.018,0.168-0.002,0.332,0.045,0.493H65.861L65.861,31.259z"/>
	<path d="M66.547,30.549c0.703-0.429,0.443-0.454-0.309-0.259C66.32,30.404,66.424,30.49,66.547,30.549L66.547,30.549z"/>
	<path d="M91.316,39.562h-0.061l-0.02,0.234l-0.049-0.233C91.057,40.201,91.113,40.154,91.316,39.562L91.316,39.562z"/>
	<path d="M78.367,49.588c0.221,0.729,0.494,0.309,0.754-0.187l-0.32-0.336c-0.188,0.078-0.191,0.218-0.012,0.418
		C78.604,49.408,78.463,49.443,78.367,49.588L78.367,49.588z"/>
	<path d="M93.723,37.094c-0.156-0.052-0.242-0.143-0.178-0.309l-0.299-0.041l0.018-0.033c-0.166,0.057-0.293,0.018-0.377-0.116
		c-0.828-0.472-2.197-0.925-3.287-1.064c-0.277-0.101-0.605-0.13-0.914-0.083v0.075c-0.684,0.071-1.334,0.106-2.096,0.113
		c-1.365-0.441-3.18-1.223-4.475-1.931c0.109,0.019,0.191-0.021,0.25-0.115l-0.004-0.003c0.141,0.055,0.275,0.043,0.371-0.076v0.024
		c0.514,0.221,1.074,0.233,1.547-0.027l-0.18-0.224l0.107-0.105c-0.205-0.21-0.631-0.238-0.896-0.212v-0.068
		c-0.246-0.137-0.398-0.132-0.459,0.016c-0.658-0.229-1.277-0.339-1.99-0.355c0.037,0.164-0.039,0.212-0.229,0.146v0.123
		c-0.904,0.393-0.266,0.718,0.578,0.965l-0.043,0.066c0.213,0.148,0.217,0.329,0.121,0.502c-0.166,0.181-0.344,0.345-0.514,0.47
		c-0.465,0.08-0.791-0.006-0.982-0.394c-0.24,0.178-0.418,0.385-0.547,0.633c-0.037-0.083-0.086-0.111-0.148-0.087l0.088-0.086
		c-0.098-0.146-0.119-0.318-0.043-0.457c-0.443-0.499-1.006-0.735-1.686-0.749c-0.193,0.431-0.502,0.549-0.928,0.335
		c-0.48-0.121-1.156-0.285-1.615-0.393c0.318-0.216,0.459-0.541,0.398-0.929h-0.135c-0.025-0.074-0.104-0.109-0.184-0.11
		c-0.318-0.301-0.752-0.402-1.236-0.304c-0.01-0.148-0.072-0.27-0.174-0.354c-0.045,0.011-0.082-0.002-0.111-0.039
		c-0.016,0.034-0.041,0.047-0.074,0.038c0.207-0.165,0.127-0.32-0.135-0.446c0.01-0.165-0.1-0.281-0.264-0.293l-0.014-0.115
		c-0.342-0.185-0.682-0.229-1.068-0.106c-0.268-0.255-0.443-0.422-0.41-0.587c-0.447-0.506-0.975-0.621-1.568-0.402l0.033-0.063
		c-0.309-0.051-0.617-0.078-0.932-0.083v0.581h0.402c0.033,0.097,0.031,0.187-0.008,0.271l-0.037-0.04l-0.209,0.202
		c0.229,0.239,0.404,0.319,0.662,0.347c0,0.066,0.039,0.13,0.078,0.17c0.451,0.166,0.92,0.268,1.453,0.314l-0.182,0.139
		c0.166,0.302,0.416,0.395,0.707,0.249c-0.129,0.279-0.373,0.409-0.695,0.372v0.112c-0.033-0.014-0.061-0.007-0.078,0.021
		c-0.02-0.076-0.064-0.103-0.139-0.079c-0.279-0.486-0.479-0.592-0.475,0.05c-0.123,0.003-0.242,0.015-0.365,0.034v0.024
		c-0.75,0.202-1.578,0.495-2.244,0.789l-0.051,0.007v0.007c-0.273,0.058-0.465,0.171-0.449,0.378
		c-0.297-0.032-0.545,0.071-0.701,0.312c-0.178-0.035-0.338,0.019-0.484,0.147v-0.237h-0.07l0.018-0.027
		c-0.059-0.043-0.131-0.102-0.172-0.138c-0.295-0.005-0.561,0.096-0.789,0.29l0.014,0.01l-0.109,0.11
		c-0.037-0.048-0.082-0.066-0.135-0.056l-0.021-0.224c-0.242-0.126-0.496-0.131-0.715,0c0.072,0.039,0.102,0.099,0.09,0.18
		c-0.609,0.346-0.979,0.997-0.971,1.725l-0.037,0.002c-0.502-0.285-1.291-0.507-1.875-0.53c-0.102-0.209-0.244-0.396-0.404-0.542
		c0.004-0.162,0.092-0.281,0.264-0.357l-0.025-0.035c0.115-0.043,0.279-0.294,0.352-0.397c0,0.001-0.004,0.002-0.008,0.004
		c0.07-0.214,3.857-1.88,2.201-1.88l0.01,0.233l-0.059-0.233c-0.395,0.13-0.77,0.266-1.148,0.415v-0.004
		c-0.008,0-0.012-0.005-0.012-0.016c-0.863,0.224-1.592,0.339-2.104,0.984c-0.008,0.191-0.156,0.292-0.367,0.304
		c-0.285,0.479-0.408,0.95-0.352,1.497l0.176,0.062l-0.047,0.062c0.467,0.211,0.938,0.277,1.408,0.191
		c0.008,0.11,0.064,0.202,0.174,0.273c-0.262,0.117-0.52,0.182-0.807,0.203l-0.027-0.23c-0.621,0.324-0.715,0.073-1.1-0.093
		l-0.117,0.202l0,0l0.072-0.233c-0.555-0.351-0.979,0.6-0.482,0.686c-0.043,0.014-0.104,0.035-0.148,0.053l-0.021-0.046
		l-0.211,0.099c-0.014-0.512-0.479-0.597-1.139-0.395c0.27,0.247,0.324,0.483,0.229,0.801c-0.053-0.01-0.107-0.017-0.16-0.021
		c-0.008-0.261-0.139-0.454-0.377-0.55c-0.004,0.021-0.016,0.025-0.031,0.017l0.023-0.035c-0.064-0.063-0.125-0.13-0.184-0.199
		l-0.096,0.079c-0.014-0.016-0.033-0.026-0.053-0.034c-0.006,0.026-0.02,0.034-0.041,0.026c0.002,0.068-0.025,0.126-0.084,0.174
		c-0.002-0.079,0.025-0.142,0.086-0.187c-0.027-0.009-0.033-0.022-0.021-0.041c-0.371-0.261-0.809-0.416-1.256-0.445
		c-0.119-0.162-0.295-0.251-0.506-0.262l0.012-0.002c-0.105-0.212-0.338-0.344-0.631-0.381c-0.01-0.037-0.014-0.073-0.012-0.111
		c-0.211-0.038-0.428-0.002-0.602,0.105c-0.273-0.152-0.568-0.108-0.85,0.093c-0.193,0.151-0.432,0.212-0.701,0.183
		c-0.219,0.183-0.758,0.439-1.225,0.584l0.117,0.114c-0.018,0.016-0.012,0.03,0.016,0.045l-0.09-0.019v0.155
		c-0.108,0.11-0.25,0.182-0.398,0.198l-0.026,0.295c-0.128,0.08-0.273,0.191-0.383,0.295c0.052,0.041,0.046,0.098-0.016,0.171
		c-0.306,0.446-0.652,0.811-1.085,1.145l-0.002-0.038c-0.204-0.029-0.353,0.011-0.413,0.208h-0.074
		c-0.11,0.14-0.283,0.317-0.402,0.418c-0.039,0.117-0.015,0.226,0.085,0.295l-0.117,0.158l0.009,0.008l-0.008,0.005
		c0.042,0.092,0.082,0.216,0.106,0.323l-0.188,0.101c0.148,0.07,0.212,0.182,0.192,0.331h0.05c0.124,0.301,0.372,0.457,0.711,0.466
		c-0.033,0.025-0.052,0.054-0.061,0.095l-0.055-0.018c0.03,0.107-0.002,0.178-0.103,0.205l0.066,0.054l-0.062,0.067
		c0.117,0.064,0.131,0.137,0.028,0.211c0.044,0.05,0.028,0.092-0.05,0.126c0.168,0.079,0.242,0.198,0.232,0.354v0.007
		c-0.033,0.001-0.056,0.011-0.082,0.019l-0.012-0.037c-0.077,0.048-0.155,0.029-0.236-0.056v0.117
		c-0.057,0.007-0.064,0.013-0.166-0.005c-0.011,0.109-0.078,0.144-0.192,0.104c-0.057,0.167-0.155,0.327-0.283,0.453
		c-0.03,0.042-0.085,0.068-0.143,0.065c0.009,0.025,0,0.041-0.027,0.047c0.027,0.067-0.062,0.073-0.143,0.074
		c-0.009-0.007-0.019-0.015-0.029-0.022c0.012-0.016,0.023-0.035,0.035-0.056l-0.028-0.013l0.015-0.041l0.034,0.009
		c0.049-0.36-0.129-0.603-0.451-0.748c-0.075-0.264-0.264-0.616-0.48-0.891c0.242-0.302,0.249-0.568-0.08-0.779
		c0.09-0.171,0.073-0.339-0.048-0.498c0.046,0.047,0.103,0.067,0.167,0.059l0.005-0.109c0.373-0.053,0.397-0.199,0.104-0.401
		l0.047-0.084c-0.212-0.078-0.38,0.016-0.478,0.235c0.024,0.097,0.071,0.196,0.141,0.291c-0.087-0.015-0.188-0.017-0.272-0.007
		c-0.081,0.031-0.145,0.105-0.178,0.194l-0.151-0.095c-0.059,0.063-0.11,0.133-0.153,0.207c-0.44,0.007-0.653,0.397-0.652,0.973
		l0.281-0.039c0.033,0.035,0.033,0.065,0.002,0.092l0.007,0.009l-0.072-0.042c-0.357,0.233-0.654,0.47-0.949,0.761
		c0.159,0.084,0.155,0.206-0.015,0.367l0.163,0.038c-0.075,0.03-0.144,0.082-0.194,0.146c0.007,0.061-0.028,0.108-0.104,0.144
		l0.06,0.049l-0.153,0.199l0.136,0.024l-0.039,0.058c0.154-0.009,0.292,0.049,0.354,0.169c0.208,0.005,0.436-0.026,0.648-0.091
		l-0.001-0.016l0.134-0.019l-0.008-0.072c0.047,0.028,0.091,0.006,0.143-0.003L45.7,42.662l0.242,0.044l-0.084,0.098l0.01,0.01
		c-0.209,0.079-0.289,0.263-0.249,0.504c0.149-0.021,0.256-0.005,0.373,0.046c-0.109,0.173-0.107,0.378-0.013,0.579h0.045v0.062
		c0.228-0.017,0.411,0.046,0.53,0.179c0.217,0.166,0.268,0.423,0.149,0.691c-1.618-0.266-2.158,0.445-1.805,1.868
		c-0.061,0.226,0.106,0.343,0.268,0.398c0.005,0,0.006,0.001,0.005,0.006c0.006-0.002,0.008,0,0.008,0.006
		c0.115,0.036,0.247,0.028,0.348-0.026c-0.078,0.143-0.965,1.876-1.047,1.876l0,0c-0.06,0.035-0.166,0.108-0.226,0.156l-0.007-0.015
		c-0.334,0.162-0.657,0.48-0.777,0.842c-0.18,0.3-0.355,0.605-0.526,0.915l-0.018,0.002c0,0.149,0,0.3,0,0.45
		c0.074-0.008,0.127,0.033,0.161,0.104c-0.045,0.702-0.096,1.338-0.163,2.036c0.203-0.051,0.214,0.041,0.058,0.254l0.284-0.014
		c0,0.039,0.022,0.049,0.063,0.033c0.108,0.098,0.327,0.328,0.426,0.453c0.083,0.057,0.117,0.133,0.072,0.244
		c0.406,0.412,0.861,0.754,1.37,1.035l-0.001,0.07c0.157-0.012,0.313,0.002,0.466,0.041c0.143-0.229,0.463-0.293,0.723-0.203
		c1.09-0.309,1.978-0.273,2.915,0.131c0.33,0.424-0.016,1.191,0.381,1.811L49.64,57.39c0.309,0.16,0.43,0.402,0.335,0.73
		l0.089-0.018v0.117c0.363,0.646,0.279,1.473-0.171,2.26c0.018,0.143,0.015,0.285-0.007,0.426l0.043-0.002
		c0.145,0.496,0.936,1.199,0.743,1.777c0.153,0.65,0.423,1.24,0.814,1.785h-0.152c0.109,0.387,0.195,0.648,0.32,0.969l0.199-0.053
		c0.502,0.021,1.092-0.006,1.613-0.074l0.104,0.062c0.822-0.486,1.541-1.213,1.984-2.006c-0.023-0.162,0.002-0.318,0.072-0.467
		h-0.064c0.416-0.178,0.666-0.334,0.812-0.781h-0.178c0.01-0.172-0.004-0.342-0.047-0.51l-0.043,0.012
		c0.521-0.455,1.088-1.164,1.463-1.859h-0.133c-0.064-0.258-0.043-0.564,0.068-0.826c-0.174-0.072-0.256-0.211-0.246-0.414
		l-0.064,0.064c-0.061-0.396-0.055-1.326-0.111-1.389l0.17-0.068v0.021c0.238,0.055,0.414-0.047,0.523-0.299
		c1.213-1.062,2.939-5.314,0.416-3.238c-0.016-0.025-0.029-0.049-0.045-0.072c0.158-0.033,0.32-0.098,0.457-0.182
		c-0.008-0.055-0.002-0.107,0.018-0.16c0.223,0.154,0.566,0.065,0.877-0.189c-0.004-0.008,0-0.014,0.01-0.016v0.008
		c0.15-0.036,0.311-0.088,0.455-0.145l-0.086-0.221c0.227,0.131,0.439,0.087,0.752-0.072l-0.049-0.1
		c0.311-0.08,0.58-0.259,0.742-0.494c0.109-0.001,0.217-0.021,0.32-0.061c-0.012-0.106-0.021-0.212-0.025-0.317
		c0.48-0.343,0.605-0.73,0.213-1.13l-0.186,0.146l0.121-0.208c-0.031-0.028-0.064-0.054-0.1-0.075
		c0.137-0.03,0.279-0.016,0.396,0.039v0.016c0.332-0.003,0.689-0.019,1.027-0.042c-0.02-0.042-0.01-0.073,0.023-0.094l0.023,0.094
		c0.078-0.007,0.15-0.013,0.227-0.018c0.344,0.561,0.846,0.98,1.424,1.156c0.115,1.437,0.785,2.651,1.74,3.007
		c1.213,1.217,0.84-0.17,0.586-1.199l-0.232-0.04l0.236-0.013l-0.23-0.03c0-0.003,0-0.008,0-0.017l0.232-0.022
		c-0.016-0.139-0.029-0.27-0.039-0.409h0.201c0.426-0.41,1.076-1.063,1.465-1.473c0.207-0.049,0.42-0.052,0.607-0.008l0.113-0.115
		c0.066,0.103,0.145,0.214,0.219,0.315l-0.012,0.018c0.426,0.3,0.543,0.713,0.371,1.206c0.412,0.122,0.582-0.033,0.859-0.125
		c0.111,0.39,0.182,0.713,0.234,1.076c-0.037,0.199-0.074,0.424-0.107,0.639l0.014,0.002c0.086,0.195,0.275,0.467,0.473,0.666l0,0
		c0.023,0.127,0.057,0.26,0.092,0.383c-0.326-0.387-0.785-0.564-1.34-0.508c-0.074,0.354,0.055,0.596,0.348,0.768
		c-0.34,0.141-0.305,0.295,0.037,0.445l-0.045,0.029c0.338,0.57,0.65,0.912,0.996,0.785c0.25,0.504,0.711,0.953,1.197,1.174
		l-0.051,0.238c0.764,0.252,1.637,0.42,2.426,0.471v-0.051c0.129,0.141,0.289,0.236,0.482,0.293
		c-0.021-0.219,0.141-0.244,0.418-0.137v0.17c0.258,0.109,0.955,0.297,0.9-0.186c0.057-0.012,0.127-0.01,0.174,0.006
		c0.256,0.697,0.771,0.289,1.264-0.354l0.172-0.072c-0.184-0.371-0.465-0.477-0.83-0.359v0.119c-0.107-0.033-0.188,0-0.238,0.102
		c-0.275-0.057-0.754-0.053-1.064,0.008c-0.068-0.021-0.096-0.062-0.078-0.125h-0.57v0.014c-0.168,0.051-0.303,0.045-0.344-0.078
		h-0.256c-0.109-0.076-0.559-0.322-0.857-0.459c-0.318,0.293-0.633,0.215-0.92-0.109l-0.084,0.086
		c-0.01-0.068-0.014-0.143-0.008-0.211h0.74l-0.021-0.051c0.207-0.014,0.434,0.037,0.58,0.137h0.146v0.016
		c0.549,0.258,0.986,0.078,1.289-0.496l-0.096-0.096c0.08-0.008,0.135-0.045,0.186-0.145c-0.207,0.762-0.047,1.279,0.738,1.145
		c0.104,0.029,0.18,0.068,0.271,0.146c0.029-0.074,0.076-0.105,0.141-0.094c0.014-0.094,0.043-0.113,0.094-0.014
		c0.18-0.018,0.229-0.123,0.148-0.318l0.029-0.006c0.066-0.24,0.025-0.426-0.209-0.467v-0.096c0.133,0.047,0.271,0.068,0.424,0.062
		c0.428,0.445,1.086,0.533,1.652,0.227c0.014,0.205,0.152,0.346,0.383,0.346c0.096,0.814,0.295,0.729,0.539,0.045
		c0.254,0.016,0.396,0.129,0.373,0.383l0.059-0.02c-0.182,0.139-0.256,0.334-0.221,0.59c0.396-0.133,0.752-0.127,0.875,0.193
		c0.139,0,0.277,0,0.416,0c-0.121,0.219-0.229,0.439-0.334,0.688c0.115,0.244,0.092,0.641-0.062,0.953
		c-0.184-0.051-0.504-0.338-0.686-0.408c-0.102-0.131-0.062-0.219,0.119-0.229v-0.32h-0.016c0.09-0.176-0.088-0.445-0.15-0.594
		c-1.029-0.203-1.705-0.047-2.074,0.842c-0.143-0.16-0.322-0.289-0.525-0.381c0,0.209-0.102,0.277-0.309,0.201v0.127
		c-0.117,0.061-0.197,0.105-0.287,0.16c0.033,0.125-0.023,0.201-0.168,0.23l-0.041-0.072c-0.049,0.086-0.123,0.113-0.221,0.08
		c-0.045,0.24-0.227,0.535-0.4,0.643c-1.867,0.586-2.354,1.92-1.453,3.91h-0.139c0.352,0.879,1.117,0.965,1.889,0.686
		c0.791-0.576,1.854-0.816,2.783-0.582c0.141,0.176,0.244,0.506,0.422,0.645l-0.025,0.014c0.248,0.348,0.57,0.447,0.959,0.332
		c0.086,0.389,0.357,0.658,0.754,0.775l0.061-0.088c0.064,0.041,0.135,0.07,0.207,0.09c0.039,0.367,0.369,1.375,0.93,1.439
		l0.018-0.082l0.008,0.002l-0.012,0.084l0.219,0.031c0.092-0.184,0.242-0.365,0.383-0.473c0.006-0.098,0.004-0.193-0.004-0.289
		c0,0,0,0.002,0,0.004c-0.057-0.158-0.047-0.305,0.074-0.367c-0.031-0.037-0.021-0.07,0.023-0.098
		c-0.242-0.189-0.441-0.367-0.287-0.502c1.414-0.336,1.514-3.012,1.172-4.189l-0.129,0.197c-0.104-0.076-0.156-0.176-0.156-0.293
		h-0.102c-0.02-0.195-0.162-0.354-0.363-0.441l-0.008,0.014c-0.002-0.045-0.018-0.084-0.049-0.115l0.098-0.096
		c-0.252-0.199-0.479-0.336-0.727-0.441c-0.096-0.521-0.361-1.008-0.729-1.301c-0.061-0.287-0.098-0.482-0.141-0.762
		c-0.039,0.006-0.059-0.006-0.059-0.033c-0.021,0.004-0.043,0.002-0.062-0.006c0.109-0.061,0.213-0.156,0.279-0.248
		c-0.006-0.033,0.006-0.061,0.039-0.08c0.297,0.322,0.688,0.553,1.117,0.639v0.018c0.172,0.086,0.33,0.086,0.48,0.008
		c0.064-0.07,0.146-0.111,0.25-0.125l-0.068-0.068l0.129-0.164c-0.184-0.281-0.447-0.422-0.791-0.451
		c0.002-0.094-0.061-0.162-0.188-0.201c0.053-0.016,0.078-0.045,0.078-0.084c0.121,0.051,0.152,0.064,0.295,0.064l0.02-0.234l0,0
		l0.031,0.234c0.234-0.049,0.443-0.121,0.666-0.229c-0.055-0.234,0.059-0.105,0.18-0.246c-0.004,0.268,0.193,0.619,0.482,0.613
		l-0.047,0.031c0.127,0.141,0.266,0.27,0.416,0.387c0.096-0.029,0.264-0.057,0.365-0.064c-0.008,0.305,0.17,0.441,0.479,0.389
		c0.125,0.225,0.346,0.287,0.607,0.197c-0.033-0.51-0.32-0.916-0.832-1.135v0.027c-0.223-0.123-0.5-0.211-0.709-0.223
		c-0.092-0.203-0.242-0.256-0.295-0.477c-0.137-0.039-0.264-0.025-0.377,0.041c-0.871-0.783-1.449-0.271-0.779-0.133
		c-0.414,0.607-1.77-0.156-2.211-0.512c-0.369-0.133-0.783-0.227-1.133-0.252c-0.127-0.207-0.316-0.281-0.564-0.217v0.121
		c-0.148-0.334-0.992-0.307-1.244-0.256c0.021-0.311-0.066-0.572-0.293-0.795l-0.072,0.072l-0.014-0.031
		c-0.172,0.102-0.291,0.24-0.359,0.412c-0.543-0.027-1.094-0.004-1.664,0.064c-0.008-0.002-0.014,0.002-0.016,0.01
		c-0.004-0.092-0.059-0.115-0.166-0.068c-0.018-0.064-0.098-0.238-0.172-0.328c0.088-0.049,0.176-0.086,0.271-0.113
		c0.006-0.111,0.084-0.221,0.197-0.293c0.238,0.082,0.572,0.004,0.668-0.27c0.123,0.17,0.311,0.336,0.506,0.457
		c0.43-0.207,0.617-0.559,0.521-1.008h-0.035c-0.01-0.154,0.057-0.232,0.201-0.232c-0.084-0.279-0.201-0.381-0.354-0.307
		c0.049-0.301-0.049-0.546-0.293-0.715c0.031-0.163-0.018-0.266-0.178-0.238l-0.012-0.075h-0.154
		c-0.057-0.05-0.223-0.109-0.342-0.105c0.129-0.168,0.209-0.308,0.299-0.514c-0.189-0.149-0.23-0.367-0.135-0.63
		c-0.582-0.085-0.936,0.155-0.916,0.801c0.012,0.22-0.045,0.743-0.088,0.85v0.334c-0.355,0.496-0.754,0.973-1.186,1.416l0.025,0.084
		c-0.303,0.289-0.635,0.49-0.986,0.596v0.145c-0.082-0.025-0.145-0.082-0.188-0.17l-0.008,0.008l-0.004-0.004
		c-0.188,0.234-0.344,0.418-0.533,0.621c0.172,0.166,0.277,0.354,0.332,0.576c-0.33,0.041-0.529-0.035-0.781-0.244v-0.275h-0.135
		c0.074-0.602-0.15-1.223-0.635-1.666c-0.02,0.041-0.045,0.045-0.078,0.014c0.039-0.125-0.035-0.16-0.166-0.129
		c-0.018-0.211-0.117-0.408-0.277-0.547c0.031-0.074,0.059-0.152,0.08-0.229l-0.043-0.02c0.064-0.115,0.162-0.17,0.322-0.146
		l-0.006,0.008c0.135,0.145,0.229,0.314,0.279,0.502c0.127-0.025,0.184-0.014,0.27,0.027c-0.029,0.133-0.002,0.256,0.094,0.35
		l0.074-0.07c0.189,0.203,0.436,0.096,0.709-0.121v-0.15c0.785-0.387,0.887-1.034,0.371-1.776l-0.154,0.105
		c-0.006-0.066,0.027-0.121,0.1-0.161c-0.053-0.06-0.148-0.129-0.199-0.153l-0.012-0.024c0.166-0.003,0.309,0.054,0.426,0.18
		c0.061-0.133,0.156-0.185,0.285-0.153c-0.008-0.098,0.041-0.137,0.145-0.116c0.104-0.258,0.127-0.426,0.061-0.69
		c0.236-0.041,0.361-0.064,0.611-0.121l-0.014-0.059c0.277-0.064,0.535-0.169,0.82-0.229c0.09-0.175,0.229-0.309,0.424-0.419
		c-0.049,0.235,0.02,0.449,0.197,0.609c0.719-0.305,0.838-0.711,0.145-1.109c0.072-0.109,0.129-0.201,0.197-0.326l0.195,0.067
		c-0.049-0.202,0.014-0.366,0.18-0.499l-0.051-0.038c0.014-0.178,0.068-0.515,0.115-0.699c-0.221-0.361-0.396-0.637-0.629-0.986
		c0.439-0.169,0.68-0.415,0.666-0.875c-0.068,0.009-0.146,0.006-0.207-0.024c0.102-0.141,0.256-0.223,0.42-0.214
		c-0.146,0.339-0.008,0.548,0.379,0.592c0.004,0.186-0.049,0.352-0.156,0.456c0.098,0.101,0.109,0.208,0.031,0.32l0.047,0.03
		c-0.188,0.081-0.199,0.271-0.033,0.568c0.496-0.056,0.652-0.233,0.707-0.562c0.115,0.127,0.158,0.329,0.139,0.574h0.119
		c0.004,0.118-0.072,0.203-0.229,0.254c0.305-0.032,0.42,0.077,0.346,0.329c0.16-0.161,0.334-0.188,0.518-0.08l-0.012-0.065
		l0.025,0.011c0.064-0.153,0.111-0.312,0.141-0.473c0.096,0.082,0.182,0.058,0.258-0.075l0.029,0.057
		c0.146-0.037,0.254-0.114,0.32-0.227l0.26,0.129c0.127-0.248,0.326-0.378,0.584-0.378l0.174,0.171
		c0.17-0.265,0.418-0.439,0.729-0.524c-0.148-0.235-0.158-0.446-0.053-0.686h0.068c0.174-0.369,0.182-0.749,0.033-1.13
		c0.139,0.03,0.258,0.081,0.383,0.163c0.094-0.363,0.316-0.57,0.699-0.705l-0.037-0.038c0.166-0.08,0.324-0.183,0.469-0.301v0.065
		c0.279-0.094,0.445-0.212,0.609-0.402l-0.195-0.415c-0.445,0.168-0.906,0.415-1.24,0.663c-0.201-0.008-0.383-0.106-0.521-0.287
		c0.002-0.03,0.016-0.041,0.041-0.034v-0.015c0.354,0.121,0.439-0.089,0.318-0.52c-0.207,0.013-0.268-0.079-0.191-0.258
		c0.088,0.093,0.186,0.174,0.295,0.245c-0.006-0.517-0.045-1.173-0.107-1.765c-0.066-0.313-0.201-0.527-0.504-0.704
		c-0.27,0.091-0.348,0.214-0.238,0.367c-0.166-0.313-0.35-0.376-0.588-0.278l0.041-0.169c-0.094,0.002-0.127-0.041-0.096-0.13H81.16
		c0.838-0.613,1.133-1.202,2.262-0.983c0.125,0.023,0.281,0.012,0.404-0.03v-0.06c0.357,0.24,0.746,0.29,1.146,0.164
		c0.217-0.013,0.373-0.101,0.518-0.326l-0.213-0.213c0.357-0.205,0.439-0.416,0.795-0.472c0,0.282,0.107,0.362,0.305,0.38
		c-1.197,0.684-1.574,1.743-1.096,3.12c-0.344,0.434-0.189,0.508,0.361,0.255c0.24-0.148,0.455-0.407,0.57-0.689
		c0.314,0.151,1.059-1.521,1.082-1.608l0.191-0.29c0,0-0.27-0.138-0.289-0.149l0.287-0.117l-0.125-0.125
		c-0.006-0.02-0.004-0.045,0.018-0.054l0.049,0.071l0.219-0.088l0.002,0.018c0.479-0.334,0.908-0.335,1.299,0.148
		c0.254-0.549,0.729-0.891,1.352-0.978c0.225-0.168,0.541-0.251,0.803-0.241l0.059,0.057c0.203-0.193,0.217-0.431,0.09-0.698h-0.115
		c0.031-0.068,0.023-0.121-0.023-0.158c1.207-0.333,1.387,0.187,2.32-0.349l0.199,0.053c0.023-0.168,0.113-0.227,0.27-0.176
		c0.045-0.17,0.07-0.343,0.076-0.519H93.723L93.723,37.094z M86.783,58.782l-0.186,0.094C86.619,58.806,86.682,58.774,86.783,58.782
		L86.783,58.782z M81.49,43.914c0.162-0.104,0.145-0.178,0.213-0.313c0.027,0.381-0.029,0.868-0.137,1.215
		c-0.018,0-0.025,0.009-0.02,0.026l-0.105-0.034c-0.238,0.309-0.312,0.643-0.232,1.024l0.016,0.003
		c-0.053,0.194-0.043,0.161-0.117,0.369c0.111,0.069,0.082,0.165-0.018,0.265c-0.127-0.113-0.227-0.093-0.299,0.063l-0.072-0.048
		c-0.398,0.489-0.939,0.799-1.621,0.946l0.109-0.278c-0.086-0.183-0.195-0.408-0.301-0.616l0.039-0.039
		C79.387,45.797,80.393,44.779,81.49,43.914L81.49,43.914z M56.564,51.031c-0.088-0.151-0.316-0.387-0.377-0.526
		c0,0.003-0.002,0.005-0.002,0.007c0-0.067-0.029-0.094-0.086-0.076l0.014-0.073h0.021c0-0.167-0.148-0.356-0.225-0.511
		C56.213,50.232,56.428,50.616,56.564,51.031C56.551,51.009,56.564,51.031,56.564,51.031z M47.607,46.126
		c-0.007-0.001-0.015,0.001-0.022,0.004c0.029-0.025,0.059-0.049,0.09-0.072C47.662,46.111,47.639,46.134,47.607,46.126
		C47.606,46.126,47.608,46.126,47.607,46.126z M51.877,38.806c0.113-0.096,0.242-0.187,0.369-0.257
		c-0.02,0.188,0.004,0.387,0.064,0.568c-0.008,0.053-0.016,0.113-0.023,0.169l0.232,0.035c-0.209,0.01-0.412,0.003-0.627-0.021
		v0.045c-0.053-0.036-0.115-0.069-0.168-0.091c0.004-0.157,0.061-0.311,0.156-0.443L51.877,38.806L51.877,38.806z M56.936,45.332
		c0.107,0.039,0.207,0.097,0.285,0.166c-0.184,0.082-0.434,0.099-0.615,0.048c-0.07-0.015-0.146-0.014-0.221,0.004l0.012-0.03
		c-0.246-0.082-0.389-0.166-0.588-0.342c-0.342,0.111-0.799,0.246-1.15,0.341l0.008,0.235l-0.062-0.233
		c-0.264,0.003-0.35-0.083-0.166-0.275c0-0.228,0.037-0.416,0.225-0.255c0.045-0.189,0.096-0.317,0.184-0.47l-0.004-0.003
		c0.049,0.009,0.076-0.017,0.084-0.078c0.314,0.05,0.395,0.17,0.094,0.393c0.383,0.216,0.736,0.209,1.121,0.025
		C56.449,44.942,56.711,45.098,56.936,45.332L56.936,45.332z M59.33,49.176c-0.008-0.032-0.018-0.062-0.035-0.091
		c0.137-0.002,0.215,0.113,0.236,0.273C59.434,49.355,59.371,49.289,59.33,49.176L59.33,49.176z M51.785,40.219l0.023,0.008
		c-0.016,0.001-0.029,0.004-0.041,0.01C51.771,40.23,51.779,40.225,51.785,40.219C51.785,40.219,51.779,40.225,51.785,40.219z
		 M51.846,40.214c0.016-0.024,0.037-0.034,0.064-0.028L51.846,40.214L51.846,40.214z M51.359,41.173
		c0.018-0.012,0.031-0.026,0.037-0.046c0.068,0.043,0.113,0.018,0.145-0.054l0.012,0.073c0.533-0.233,0.707-0.569,0.432-0.993
		c0.041-0.244,0.176-0.348,0.41-0.317c-0.014-0.081,0.004-0.134,0.051-0.183c0.072,0.036,0.062,0.096-0.025,0.173h0.23l-0.312,0.142
		l0.047,0.085l-0.012,0.004c0.057,0.102,0.02,0.165-0.113,0.19l0.146,0.146c-0.123,0.151-0.203,0.317-0.236,0.496l0.098,0.008
		c-0.021,0.038-0.053,0.057-0.094,0.055c0.066,0.215,0,0.351-0.195,0.427c-0.188-0.147-0.42-0.154-0.641-0.033l0.074,0.226
		l-0.117-0.207C51.199,41.364,51.312,41.233,51.359,41.173L51.359,41.173z M55.188,47.529c0.107,0.107,0.287,0.06,0.4-0.023
		c-0.031-0.103,0.055-0.154,0.203-0.161c0.016,0.065,0.014,0.124-0.01,0.194l0.035-0.003c-1.18,1.611-2.012-0.338-3.424,0.356
		l-0.002-0.002c-0.242,0.053-0.564,0.32-0.455,0.615c-0.887-0.781-1.57-0.251-1.788-1.329c0.028-0.039,0.053-0.087,0.064-0.132
		c0.375,0.267,0.737,0.3,1.069,0.003l-0.016-0.014l0.07-0.079l-0.037-0.033c0.191-0.165,0.348-0.377,0.424-0.575h0.234l0.021-0.082
		c0.02,0.029,0.035,0.062,0.045,0.095c-0.078,0.042-0.148,0.116-0.096,0.19l-0.004,0.002c0.238,0.187,0.342,0.395,0.303,0.652
		c0.211,0.036,0.363,0.089,0.561,0.189c-0.012,0.088-0.008,0.176,0.012,0.264c0.215-0.078,0.385-0.057,0.426,0.098
		c0.061-0.005,0.1,0.035,0.115,0.121c0.098-0.141,0.225-0.177,0.379-0.11c0.189-0.108,0.293-0.269,0.299-0.529
		c0.135,0.021,0.211,0.052,0.324,0.127l0.002-0.002c0.197,0.093,0.41,0.062,0.572-0.087c0.098,0.081,0.23,0.159,0.326,0.195
		C55.234,47.471,55.156,47.5,55.188,47.529C55.205,47.548,55.168,47.51,55.188,47.529z M55.271,47.463
		c0.016-0.006,0.033-0.009,0.051-0.01C55.311,47.475,55.293,47.478,55.271,47.463L55.271,47.463z M53.695,47.164l0.061-0.061
		c-0.125-0.035-0.152-0.104-0.08-0.208c0.092,0.088,0.17,0.188,0.23,0.298l-0.033-0.004v-0.005L53.695,47.164L53.695,47.164z
		 M53.5,46.437c0,0.049-0.002,0.1-0.006,0.147c-0.068-0.075-0.131-0.166-0.178-0.255c-0.023,0.008-0.041-0.004-0.053-0.035
		c0.049-0.054,0.1-0.103,0.156-0.149c0,0.098,0.035,0.192,0.104,0.26L53.5,46.437L53.5,46.437z M53.092,47.047
		c-0.002-0.016,0.008-0.024,0.027-0.025c0.016,0.021,0.012,0.043-0.016,0.069L53.092,47.047L53.092,47.047z M53.451,46.092
		l-0.027,0.044C53.418,46.112,53.428,46.095,53.451,46.092L53.451,46.092L53.451,46.092z M50.91,45.206
		c0.071,0.02,0.147,0.05,0.211,0.086C51.039,45.297,50.957,45.263,50.91,45.206L50.91,45.206z M51.768,45.717
		c-0.143-0.069-0.252-0.161-0.342-0.29h0.029l0.01-0.04c0.156,0.074,0.285,0.203,0.34,0.349L51.768,45.717L51.768,45.717z
		 M53.07,47.246C53.07,47.247,53.07,47.247,53.07,47.246L53.07,47.246L53.07,47.246z M53.475,46.731l0.023-0.102
		c-0.014,0.054,0,0.094,0.043,0.121L53.475,46.731L53.475,46.731z M49.871,46.463c0.061-0.209,0.078-0.407,0.05-0.598l0.001-0.001
		c-0.016-0.082-0.039-0.147-0.082-0.215c0.047-0.012,0.058-0.046,0.031-0.104c0.402,0.244,0.776,0.55,1.046,0.857
		c-0.227,0.064-0.447,0.085-0.703,0.064c-0.065,0.224-0.199,0.302-0.413,0.188L49.871,46.463L49.871,46.463z M52.998,37.705
		c0.051-0.016,0.104-0.022,0.156-0.021C52.793,37.983,52.67,38.058,52.998,37.705L52.998,37.705z M59.619,49.534
		c-0.045-0.021-0.062-0.06-0.049-0.114c0.029,0.042,0.057,0.085,0.08,0.132C59.637,49.562,59.627,49.556,59.619,49.534
		L59.619,49.534z M60.086,50.183c0.053-0.162,0.01-0.322-0.117-0.456c0.166,0.143,0.336,0.229,0.537,0.267l0.055-0.12
		C60.529,50.129,60.359,50.231,60.086,50.183L60.086,50.183z M48.133,45.688c-0.038-0.355,0.083-0.401,0.329-0.185
		c0.28,0.007,0.506-0.062,0.707-0.201c-0.019,0.108-0.019,0.191-0.003,0.293c-0.058-0.002-0.115-0.003-0.172-0.005
		c-0.018,0.456,0.116,0.861,0.406,1.117c-0.72,0.251-1.58,0.068-2.395,0.383c0.158-0.058,0.275-0.16,0.331-0.325l-0.056-0.018
		c0.024-0.001,0.042-0.002,0.059-0.003c0.805-0.174,1.632-0.397,0.712-0.873c-0.057,0.017-0.113,0.032-0.17,0.049
		c0.101-0.046,0.176-0.13,0.212-0.239L48.133,45.688L48.133,45.688z M57.467,52.617c-0.283-0.098-0.451-0.327-0.473-0.656
		c-0.059-0.049-0.064-0.119-0.021-0.209c-0.525-0.069-0.27-0.288-0.389-0.662c0.381,0.437,0.723,1.017,0.91,1.557L57.467,52.617
		L57.467,52.617z M76.574,46.483l0.037,0.037c-0.045,0.033-0.078,0.023-0.107-0.028c0.053-0.058,0.109-0.125,0.152-0.182
		L76.574,46.483L76.574,46.483z M56.219,37.492c-0.092,0.061-0.16,0.145-0.203,0.246c-0.059-0.202,0.01-0.299,0.221-0.25
		L56.219,37.492L56.219,37.492z M46.238,43.252l0.005,0.003H46.22L46.238,43.252L46.238,43.252z M61.389,50.251l0.037,0.011
		c-0.025,0-0.053-0.009-0.072-0.025L61.389,50.251L61.389,50.251z M65.307,34.599h0.039l-0.047,0.014
		c0.002-0.008,0.002-0.016,0-0.022L65.307,34.599L65.307,34.599z M58.119,53.319l0.002-0.008l-0.002,0.01V53.319L58.119,53.319z
		 M61.543,50.287c-0.027,0.001-0.053-0.005-0.076-0.018c0.059-0.011,0.109,0,0.162,0.036L61.543,50.287L61.543,50.287z
		 M73.518,51.97c-0.207-0.195-0.211-0.374,0.039-0.528c-0.025,0.204-0.012,0.404,0.039,0.6
		C73.562,52.023,73.537,52.001,73.518,51.97C73.518,51.97,73.52,51.972,73.518,51.97z M73.643,51.369l0.025,0.021l-0.051,0.003
		L73.643,51.369L73.643,51.369z M78.887,47.679l0.062-0.03c-0.006,0.032-0.029,0.045-0.066,0.036L78.887,47.679L78.887,47.679z
		 M70.859,55.808c0.082,0.08,0.025,0.145-0.139,0.186L70.859,55.808L70.859,55.808z M73.936,57.06
		c0.027,0.012,0.035,0.027,0.021,0.051L73.936,57.06L73.936,57.06z M78.85,56.634l-0.018,0.014l0.02,0.018l-0.172,0.172
		c-0.031-0.096-0.025-0.182,0.02-0.262L78.85,56.634L78.85,56.634z M80.303,56.896c0.002,0.012,0.002,0.021-0.004,0.031
		l-0.012-0.014l-0.006,0.008C80.27,56.896,80.275,56.886,80.303,56.896L80.303,56.896z M78.664,56.853l-0.006-0.014h0.02
		L78.664,56.853L78.664,56.853z M76.254,56.505l-0.01,0.01c-0.041-0.035-0.051-0.066-0.043-0.107h0.094
		C76.303,56.448,76.291,56.481,76.254,56.505L76.254,56.505z M83.113,66.79l0.002-0.006l0.004,0.004
		C83.117,66.788,83.115,66.788,83.113,66.79C83.113,66.79,83.115,66.788,83.113,66.79z M82.695,66.521
		c0.131,0.086,0.25,0.178,0.369,0.283c-0.215,0.016-0.369-0.08-0.418-0.273L82.695,66.521L82.695,66.521z M77.957,56.333
		c0.068-0.156,0.125-0.25,0.236-0.393c-0.066,0.238-0.057,0.438,0.037,0.648l-0.086,0.014v0.211l0.021,0.002v0.076
		c0.006-0.227-0.078-0.316-0.25-0.273c-0.059-0.043-0.17-0.057-0.256-0.039C77.775,56.501,77.848,56.442,77.957,56.333
		L77.957,56.333z M76.633,55.087c-0.035-0.119-0.104-0.209-0.193-0.256l-0.002-0.043c-0.137-0.027-0.238-0.068-0.342-0.137
		l0.016-0.014l-0.074-0.074c0.062-0.07,0.133-0.092,0.238-0.061c0.158-0.184,0.469-0.582,0.434-0.838l0.098-0.029
		c-0.02,0.271,0.041,0.439,0.197,0.617c-0.09,0.072-0.129,0.215-0.191,0.281v0.186C76.656,54.72,76.596,54.845,76.633,55.087
		L76.633,55.087z M73.896,56.872v0.096l-0.072-0.166L73.896,56.872L73.896,56.872z M73.762,51.384l-0.086,0.006l0.094-0.093
		l0.043,0.035L73.762,51.384L73.762,51.384z"/>
	<path d="M49.651,31.181c0.132,0.474,0.399,0.835,0.731,1.052h0.014c0.098,0.268,0.268,0.392,0.5,0.355
		c0.168,0.289,0.43,0.367,0.788,0.233c-0.008-0.373,0.178-0.653,0.502-0.76v-0.076c0.006,0.212,0.109,0.406,0.35,0.366v0.142
		c0.459-0.062,0.807-0.164,1.264-0.364c-0.316-0.196-0.52-0.368-0.662-0.567h-0.166v-0.085c0.248-0.027,0.445-0.072,0.689-0.154
		c-0.16,0.412-0.027,0.486,0.383,0.232c0.08,0.048,0.25,0.159,0.371,0.246c0.27-0.159,0.279-0.354,0.137-0.56
		c-0.238-0.197-0.447-0.185-0.527,0.095c-0.047-0.136-0.119-0.181-0.217-0.136c0.592-0.544,0.18-0.782-0.494-0.904
		c-0.168,0.029-0.367,0.01-0.545-0.05c-0.027,0.04-0.068,0.048-0.123,0.024c0.01,0.024,0.018,0.146-0.049,0.146v-0.021
		c-0.25,0.013-0.455-0.087-0.609-0.293c-0.01,0.225-0.107,0.327-0.297,0.31c-0.057,0.104-0.141,0.149-0.213,0.058
		c-0.16,0.049-0.295,0.11-0.445,0.208l-0.139-0.142c-0.188,0.238-0.457,0.275-0.812,0.11v0.028
		c-0.237-0.021-0.407,0.119-0.512,0.422l0.085,0.085H49.651L49.651,31.181z"/>
	<path d="M51.902,34.059c0.299-0.16,0.396-0.404,0.293-0.732l-0.77,0.187L51.902,34.059L51.902,34.059z"/>
	<path d="M55.031,30.978c0.186,0.03,0.463,0,0.596-0.149c-0.109-0.437-0.352-0.487-0.695-0.295
		C55.031,30.666,55.064,30.814,55.031,30.978L55.031,30.978z"/>
	<path d="M58.27,30.691c0.045,0.006,0.055,0.035,0.035,0.087c0.209,0.119,0.811,0.354,1.059,0.106
		c0.389,0.216,0.852,0.15,1.223-0.126l0.023-0.005l-0.012,0.016c0.559,0.312,1.15,0.338,1.684,0.062l-0.029-0.026
		c0.785-0.116,1.475-0.272,0.793-0.919c-0.33-0.462-0.59-0.49-0.65,0.159l0,0c-0.1-0.118-0.277-0.159-0.439-0.144
		c0.084-0.099,0.098-0.219,0.041-0.36c-0.314-0.11-0.607-0.07-0.766,0.138c-0.223,0.091-0.461,0.163-0.729,0.221l0.031,0.067
		c-0.074,0.006-0.127,0.046-0.117,0.116l-0.162,0.013v0.125l-0.076-0.002v0.095c-0.074-0.053-0.148-0.104-0.223-0.155
		C59.193,29.921,58.096,30.691,58.27,30.691C58.271,30.691,58.26,30.691,58.27,30.691z M62.963,30.142L62.904,30.1
		C62.936,30.093,62.953,30.106,62.963,30.142L62.963,30.142z"/>
	<path d="M59.043,59.39c-0.012,0.027-0.02,0.057-0.02,0.088C59.023,59.446,59.033,59.419,59.043,59.39z"/>
	<path d="M59.783,59.966c0,0,0,0-0.002,0.002c-0.236-0.238-0.143-0.652-0.512-0.926c-0.098,0.102-0.174,0.219-0.227,0.348
		c0.035-0.076,0.111-0.131,0.199-0.131c-0.066,0.229-0.227,0.314-0.463,0.26c-0.574,0.607-0.943,1.283-1.154,2.104
		c0.029,0.77,0.764,2.26,1.465,0.877C59.113,62.435,59.836,59.966,59.783,59.966C59.783,59.966,59.785,59.966,59.783,59.966z"/>
	<path d="M90.904,65.827c-0.318,0.148-0.521,0.113-0.486-0.285h-0.174l0.018-0.016c-0.709-0.619-1.104-0.74-0.779,0.215
		c0.146,0.076,0.193,0.193,0.146,0.35h0.1c-0.043,0.043-0.066,0.098-0.062,0.17l-0.207,0.053c-0.082,0.182-0.059,0.318,0.068,0.412
		h-0.041v0.064c-0.326,0.109-0.682,0.406-0.967,0.789c0.01-0.004,0.027-0.014,0.045-0.018c-0.117,0.094-0.275,0.143-0.426,0.16
		c-0.029,0.178-0.145,0.295-0.277,0.342h-0.086v0.465l-0.029,0.006c-0.021,0.121,0.035,0.211,0.17,0.268
		c0.107,0.338,0.34,0.371,0.648,0.26v-0.141c0.219-0.059,0.393-0.125,0.584-0.225c-0.027-0.426,0.156-0.652,0.602-0.6
		c-0.066-0.342,0.051-0.602,0.346-0.699l0.02-0.234l0,0l0.027,0.234C90.527,67.38,91.35,66.024,90.904,65.827
		C90.904,65.827,90.994,65.866,90.904,65.827z"/>
	<path d="M83.297,56.671C82.771,57.423,83.102,56.95,83.297,56.671L83.297,56.671z"/>
	<path d="M79.201,58.616v-0.033c0.309,0.01,0.496-0.143,0.439-0.453l-0.105,0.031c-0.199-0.254-0.471-0.217-0.84-0.047v0.422
		C78.859,58.581,79.029,58.608,79.201,58.616L79.201,58.616z"/>
	<path d="M84.701,58.964c-0.148,0.014-0.262,0.111-0.324,0.264c0.252,0.352,0.512,0.352,0.754,0.006
		C85.041,59.015,84.898,58.927,84.701,58.964L84.701,58.964z"/>
	<path d="M27.842,41.08l0.048,0.048c0.051-0.051,0.031-0.093-0.02-0.121c-0.036,0.044-0.08,0.08-0.129,0.106
		C27.785,41.13,27.82,41.118,27.842,41.08L27.842,41.08z"/>
	<path d="M33.349,70.048c-0.407-0.176-0.854-0.131-1.245,0.113l0.024,0.023l-0.034,0.01c0.163,0.324,0.375,0.506,0.715,0.594
		c0.066-0.105,0.159-0.156,0.28-0.16c-0.004-0.064,0.05-0.09,0.161-0.074l-0.014-0.043C33.427,70.401,33.465,70.233,33.349,70.048
		L33.349,70.048z"/>
	<path d="M22.908,31.101C23.403,29.899,22.691,31.091,22.908,31.101C22.908,31.101,22.835,31.098,22.908,31.101z"/>
	<path d="M41.273,36.27l0.263-0.035l-0.008-0.104c0.134-0.06,0.206-0.104,0.316-0.19l-0.077-0.201
		c0.073-0.014,0.121,0.039,0.142,0.163c0.109-0.111,0.195-0.237,0.26-0.376h0c0.159-0.205,0.024-0.66-0.056-0.833
		c0.041-0.095,0.06-0.22,0.049-0.329c0.298-0.123,0.429-0.226,0.58-0.414l-0.022-0.033c0.339-0.254,0.539-0.349,0.577-0.835
		c-0.168-0.35-0.32-1.031-0.347-1.483l-0.22,0.222c-0.039-0.033-0.081-0.062-0.125-0.09c0.063-0.066,0.188-0.147,0.248-0.172
		c0.336-0.037,0.456-0.228,0.303-0.555c0.386-0.436,0.945-0.756,1.463-1.07c-0.015-0.083-0.045-0.16-0.091-0.231
		c-0.708-0.089-1.619-0.4-2.226-0.431c-0.128-0.186-0.311-0.294-0.537-0.32l-0.001,0.002c-1.083-0.866-3.466-0.567-4.553-0.216
		c-0.188,0.01-0.346-0.154-0.55-0.006c-0.355-0.075-0.69-0.003-0.859,0.195c0.018,0.013,0.028,0.03,0.035,0.051
		c-0.199-0.119-0.416-0.149-0.652-0.089l0.066,0.214c-0.78,0.101-1.561,0.192-2.486,0.291l-0.006,0.058
		c-0.127-0.136-0.466-0.389-0.748-0.342c-0.153-0.244-0.273-0.289-0.311,0.046l-0.028-0.235c-0.144-0.004-0.344-0.035-0.427-0.062
		c-0.39-0.006-0.775-0.037-1.158-0.096l0.001,0.234l0,0l-0.062-0.234c-0.848,0-1.714,0.08-2.562,0.104v0.06
		c-0.856,0.208-2.003,0.542-2.958,0.862l0.01,0.233c-0.014-0.034-0.026-0.069-0.039-0.104c0.007-0.002,0.014-0.004,0.021-0.005
		c-0.072-0.147-0.207-0.174-0.357-0.056l0.035,0.065c-0.273,0.114-0.495,0.336-0.576,0.597c-0.156,0.147-0.149,0.357-0.018,0.576
		c0.131,0.073,0.211,0.189,0.367,0.288c-0.42,0-0.814-0.165-1.126-0.172l-0.014,0.136c-0.013-0.047-0.029-0.088-0.034-0.138
		c-0.093-0.059-0.249-0.142-0.375-0.134c-0.726-0.256-1.349-0.15-0.935,0.682c-0.108,0.017-0.21,0.054-0.307,0.107
		c0.005,0.275,0.135,0.524,0.387,0.643c-0.056,0.067-0.053,0.139,0.003,0.212c-0.141-0.053-0.297-0.087-0.438-0.013
		c-0.053-0.224-0.25-0.525-0.532-0.427c0.579-0.672-0.656-1.07-0.93-0.619c-0.002,0.003,0.003,0.006,0.002,0.01
		c-0.221-0.101-0.651-0.108-0.657,0.242c-0.395-0.146-0.956,0.124-1.255,0.378l0-0.002c-0.154,0.059-0.257,0.166-0.412,0.218
		c-0.158,0.069-0.271,0.215-0.344,0.34c0.053,0.041,0.061,0.09,0.024,0.146c0.123,0.034,0.123,0.13,0.256,0.165l0.099-0.212
		l-0.054,0.23c0.175,0.057,0.419-0.026,0.62,0.025c-0.034-0.075-0.031-0.138,0.008-0.19c-0.009,0.205,0.092,0.318,0.29,0.327
		l0.017-0.235l0.051,0.234c0.179-0.027-0.049,0.083,0.24,0.187c-0.216,0.037-0.408,0.022-0.619-0.051
		c0.005,0.136-0.033,0.204-0.11,0.204l0.07-0.23c-0.295-0.175-0.958,0.003-1.266,0.115c0.14,0.276,0.138,0.531-0.082,0.694
		c0.007,0.965,0.545,1.314,1.513,1.043c-0.018-0.063-0.015-0.123,0.009-0.178c0.223,0.244,0.242,0.425,0.377,0.702
		c-0.411-0.177-0.842-0.257-1.291-0.231l-0.006-0.166c-0.225-0.045-0.411,0.02-0.554,0.19c-0.206-0.368-0.46-0.484-0.753-0.191
		c-0.364-0.027-0.84,0.047-1.12,0.263l-0.234-0.269c-0.086,0.275-0.272,0.418-0.556,0.426v0.082
		c-0.252-0.146-0.546-0.272-0.817-0.284l-0.004-0.028c-0.845-0.095-2.108-0.335-2.755-0.518c-0.202-0.017-0.411-0.02-0.608-0.008
		c-0.046-0.087-0.124-0.146-0.231-0.178c-0.09,0.09-0.159,0.069-0.194-0.052c-0.33-0.04-0.391,0.07-0.609,0.242
		c-0.343-0.004-0.634,0.084-0.906,0.26l0.003,0.066c-0.318,0.308-0.735,0.483-1.281,0.492c-0.205,0.761,0.269,0.537,0.567,0.991
		c-0.505,0.149-0.845,0.322-1.047,0.725c0.324,0.386,0.687,0.575,1.16,0.552l0,0.032c0.105-0.053,0.192-0.051,0.259,0.006
		c-0.484,0.093-0.83,0.401-1.054,0.886c0.276,0.124,0.328,0.304,0.125,0.52c0.22,0.062,1.054,0.331,1.054,0.484
		c0.042,0.002,0.077,0.026,0.102,0.071l0.007-0.014l0.057,0.229c0.107-0.003,0.394-0.11,0.39-0.112
		c0.123,0.06,0.241,0.121,0.367,0.193c-0.172,0.138-0.358,0.27-0.546,0.386c-0.769,0.607-0.394,0.745,0.357,0.687
		c0.317-0.265,0.968-0.665,1.022-0.681c0.055,0.009,0.076,0.041,0.064,0.095c0.194,0.055,0.382,0.077,0.592,0.067v-0.115
		c0.088-0.116,0.205-0.156,0.367-0.11c-0.081-0.256-0.007-0.447,0.223-0.573l-0.101-0.051c0.188-0.137,0.451-0.261,0.713-0.334
		c0.111,0.187,0.238,0.125,0.354-0.062c0.908-0.047,1.796,0.299,2.453,0.982c0.205,0.274,0.384,0.456,0.579,0.598
		c-0.046,0.092-0.023,0.183,0.063,0.248c-0.025,0.039-0.064,0.077-0.102,0.091c0.003,0.095,0.019,0.251,0.039,0.378
		c0.298,0.367,0.584,0.522,0.958,0.236c0.07,0.095,0.151,0.177,0.245,0.248h-0.025v0.578c0.272,0.003,0.445,0.136,0.465,0.382
		c0.188-0.005,0.29,0.022,0.427,0.097c-0.166,1.703,0.339,3.255,1.5,4.343c0-0.001-0.018-0.011-0.04-0.032
		c0.377,0.351,0.737,0.822,1.004,1.307l-0.061,0.011c0.329,0.672,2.197,1.949,1.626,1.042c1.656,1.081,2.519,2.595,4.713,3.124
		l0.04-0.092c0.212,0.018,0.379,0.102,0.518,0.264c0.032-0.086,0.083-0.135,0.154-0.143c-0.152,0.107-0.163,0.193-0.041,0.262
		l0.076-0.09c0.061,0.418,0.291,0.734,0.657,0.992c0.456,0.182,0.823,0.211,1.201,0.027c0.154,0.154,0.208,0.34,0.159,0.564
		c0.02,0.082,0.01,0.141-0.068,0.229l0.087,0.076c-0.126,0.092-0.262,0.189-0.376,0.275c-0.806,1.271-0.58,2.562,0.596,3.869
		l-0.083,0.021c1.865,1.469,1.982,3.746,0.946,5.779c-0.045,1.105-0.3,2.25-0.74,3.268c0.167,0.223,0.187,0.453,0.101,0.723
		l-0.031,0.008c0.032,0.414,0.09,0.775,0.189,1.172l0.122,0.006l-0.06,0.17c0.089,0.035,0.171,0.082,0.244,0.141l-0.019,0.027
		c0.086,0.098,0.087,0.098,0.168,0.193l0.079-0.066c0.008,0.043-0.006,0.076-0.043,0.102c0.056,0.031,0.069,0.08,0.04,0.148
		l0.197-0.041c0.808,0.461,1.642,0.418,2.089-0.262c-0.444,0.002-0.735-0.219-0.776-0.596c-0.374-0.553,0.173-0.283,0.173-0.736
		c0.485-0.422,0.671-0.85,0.078-1.162c0.424-0.305,0.766-0.768,0.949-1.283c0.305-0.084,1.005-1.125,1.521-1.125
		c0.155-0.16,0.209-0.375,0.159-0.594c0.141,0,0.37-0.037,0.492-0.135c0.066-0.047,0.126-0.102,0.182-0.164l-0.165-0.166
		l0.199,0.107c0.078-0.08,0.133-0.156,0.227-0.189c0.041-0.162,0.115-0.275,0.268-0.391l-0.009-0.004
		c0.98-0.783,0.602-1.502,1.591-2.01c-0.035-0.166,0.059-0.225,0.187-0.232c0.283,0.035,0.511-0.039,0.619-0.238
		c0.571-0.658,0.572-1.41,0.721-2.305c0.124-0.098,0.222-0.273,0.321-0.373c0.063-0.057,0.087-0.127,0.074-0.205
		c-0.013,0.061-0.09,0.145-0.204,0.145c1.237-1.416,0.504-2.262-1.412-2.625l0.01-0.094c-0.329-0.047-0.708-0.186-1.075-0.395
		c-0.145,0.188-0.134-0.035-0.414-0.059c-0.026-0.373-0.211-0.779-0.505-1.111l-0.006-0.104c-0.74-0.055-1.402-0.352-1.841-0.881
		c-0.306-0.014-0.414-0.232-0.382-0.584c-0.215,0.008-0.384,0.012-0.593,0.018l0.005,0.074c-0.208-0.047-0.264-0.248-0.594-0.117
		L31.377,53.7c-0.344-0.082-0.602-0.176-0.924-0.33c-0.082-0.183-0.218-0.243-0.415-0.165c-0.315,0.019-0.652,0.099-0.952,0.22
		l-0.068-0.066c-0.264,0.236-0.396,0.41-0.541,0.695c-0.287-0.285-0.687-0.26-1.013-0.049c-0.106-0.039-0.19-0.1-0.288-0.207
		l-0.004,0.004c-0.12-0.307-0.054-0.726,0.083-1.024c-0.049-0.139-0.129-0.26-0.238-0.357c-0.073-0.025-0.207-0.082-0.301-0.126
		l0.002-0.006c-0.177-0.054-0.366-0.055-0.542,0c0.004-0.001-0.089,0.003-0.106,0.002l0.003-0.009
		c-0.119-0.02-0.124-0.115-0.072-0.24c0.333-1.67-0.608-1.194-1.66-0.367c-0.576-0.318-0.81-0.895-0.542-1.442
		c-0.003-0.164-0.001-0.328,0.006-0.492c-0.096-0.105-0.001-0.221,0.116-0.305c0.103,0.021,0.232-0.044,0.291-0.108
		c0.41-0.288,0.494,0.009,0.924,0.009l0.004-0.043c0.197,0.102,0.417,0.108,0.622,0.018c0.017-0.095,0.019-0.188,0.005-0.282
		L26,49.094c0.164-0.017,0.443-0.008,0.74,0.022c0.036,0.052,0.08,0.099,0.13,0.135c-0.017,0.215,0.018,0.419,0.102,0.623
		l0.047,0.003l0.002,0.122h0.062l0.007,0.077c0.287,0.359,0.596,0.395,0.872-0.074l0.05,0.039c-0.11,0.228-0.06,0.439,0.123,0.615
		c-0.738-0.168-1.141-0.427-1.773,0.257c0.127,0.081,0.167,0.203,0.12,0.364c0.139-0.033,0.604-0.277,0.747-0.267
		c0.147,0.13,0.372,0.229,0.626,0.278c-0.003,0-0.007,0.001-0.011,0.003c0.073,0.026,0.143,0.111,0.195,0.174l-0.019,0.021
		l0.146,0.152c-0.32,0.795,0.726,0.648,0.752,0.386c0.025,0.088,0.084,0.06,0.162,0.096l-0.001,0.002
		c0.529,0.131,1.053,0.112,1.617-0.056c0.058,0.184,0.131,0.145,0.281,0.145c0,0,0,0-0.001,0c0.37,0.04,0.548-0.177,0.511-0.572
		c-0.232-0.018-0.517-0.02-0.722-0.007c-0.107-0.055-0.175-0.128-0.195-0.217h-0.195c-0.475-0.248-0.868-0.36-1.289-0.351
		c-0.161-0.059-0.419-0.123-0.55-0.253c-0.063-0.028-0.132-0.052-0.199-0.067c0.289-0.093,0.278-0.276,0.199-0.536l0.253,0.057
		c-0.027-0.234-0.067-0.438-0.123-0.617l-0.197,0.132l0.167-0.169c-0.087-0.123-0.212-0.181-0.362-0.164l-0.004,0.04
		c-0.108,0.021-0.195-0.026-0.26-0.141l-0.073,0.163c-0.099-0.273-0.191-0.54-0.295-0.821c0.258-0.445,0.731-0.802,1.27-0.97
		c-0.021-0.701,0.283-1.324,0.883-1.687l-0.018-0.082c0.031-0.009,0.051,0.006,0.061,0.045l-0.011-0.051
		c0.146-0.031,0.186-0.083,0.351-0.071v-0.008c0.258-0.098,0.323-0.282,0.154-0.524l-0.064,0.062
		c0.064-0.25,0.316-0.399,0.625-0.436l0.132,0.302c0.163,0.011,0.346,0.01,0.541-0.003c0.024-0.166,0.134-0.261,0.284-0.244
		c0.569-0.123,0.958-0.431,1.07-0.932c0.107-0.044,0.237-0.056,0.377-0.031l-0.125,0.203c-0.009-0.002,0.569,0.065,0.723-0.01
		l0.042,0.146c0.647-0.038,0.856-0.428,0.671-1.111l-0.03,0.016v-0.119l-0.153,0.05c-0.138-0.147-0.265-0.232-0.45-0.309
		l-0.112,0.104c-0.034-0.013-0.055-0.024-0.083-0.043l-0.007,0.007c0.14-0.111,0.201-0.216,0.193-0.395
		c-0.056,0.017-0.098-0.001-0.126-0.054c0.043-0.108,0.088-0.173,0.176-0.25c-0.222-0.496-0.601-0.899-1.092-1.173h-0.152
		l-0.01-0.138c-0.033,0.013-0.05,0.002-0.049-0.032c-0.21-0.159-0.469-0.644-0.579-1.103H32.05c-0.161-0.073-0.23-0.212-0.197-0.411
		c-0.096,0.007-0.163-0.043-0.21-0.125c0.134-0.11,0.183-0.267,0.146-0.47h-0.025c-0.034-0.161-0.002-0.253,0.091-0.276
		c0-0.029,0.009-0.058,0.027-0.085h-0.031c-0.074-0.137-0.19-0.478-0.189-0.519c-0.008-0.074,0.027-0.132,0.106-0.171l0,0
		c0.069-0.048,0.143-0.002,0.199,0.093c0.708-0.623,0.489-1.135-0.277-1.548c-0.201,0.027-0.371,0.018-0.559-0.029l0.147-0.016
		c-0.691-1.082-2.019-2.186-3.445-2.518c0.276-0.159,0.214-0.32,0.26-0.584l0.122-0.007c0.221-0.839,0.643-1.438,1.385-1.997
		c-0.004-0.033,0.008-0.062,0.035-0.088l0.024,0.088c0.325,0,0.706-0.314,0.93-0.521c0.088,0.214,0.27,0.342,0.473,0.359
		c-0.314-0.002-0.614,0.048-0.918,0.149l0.018,0.052c-0.498,0.007-0.84,0.215-1,0.669l0.289,0.122
		c-0.108,0.11-0.006,0.321,0.1,0.417l-0.024,0.037c-0.068-0.039,0.414,0.229,0.467,0.229l-0.084,0.084
		c0.893,0.307,1.719,0.416,2.564,0.355v0.178c0.3-0.133,0.477,0.038,0.582,0.354c0.283-0.016,0.307,0.12,0.051,0.404
		c0.363,0.026,0.432,0.122,0.193,0.287c0.1-0.011,0.149,0.011,0.149,0.065h-0.023l0.004,0.018l-0.077,0.028
		c0.103,0.067,0.128,0.163,0.077,0.285c-0.015,0.096,0.085,0.356,0.275,0.57H33.67c0.009,0.021,0.005,0.034-0.01,0.045
		c0.031,0.029,0.034,0.069,0.01,0.12h-0.045c0.093,0.149,0.087,0.273-0.018,0.37c0.105,0.155,0.369,0.421,0.567,0.388
		c-0.072,0.166-0.171,0.303-0.306,0.424l0.045,0.046l-0.211,0.22c0.294,0.028,0.348,0.122,0.144,0.283
		c0.275,0.322,0.506,0.646,0.67,0.938c-0.045,0.231,0.061,0.435,0.272,0.549c0.084,0.248,0.245,0.521,0.452,0.763
		c0.285,0.081,0.551,0.152,0.867,0.233l0.024,0.18c0.401,0.073,1.001-0.082,0.967-0.591c0.025-0.283,0.153-0.53,0.378-0.685
		l0.011-0.001c0.065-0.132,0.115-0.266,0.152-0.412l0.076-0.011c0.019-0.084,0.018-0.166-0.002-0.245l0.058-0.014
		c-0.019-0.087,0.014-0.151,0.093-0.185l0.004,0.021c0.151-0.003,0.289-0.022,0.433-0.058c0.407-0.133,0.787-0.38,1.094-0.712
		c0.016-0.153,0.124-0.244,0.289-0.244l0.015-0.11c0.045,0.022,0.063,0.06,0.055,0.111c0.188,0.023,0.348-0.002,0.537-0.094
		l-0.006-0.032C40.569,36.645,41.079,36.456,41.273,36.27C41.273,36.27,41.255,36.286,41.273,36.27z M28.746,51.74
		c-0.033-0.02-0.061-0.035-0.086-0.046c0.082,0.022,0.174,0.049,0.259,0.049c-0.036,0.042-0.043,0.092-0.025,0.146
		C28.854,51.821,28.791,51.771,28.746,51.74C28.713,51.721,28.791,51.771,28.746,51.74z M42.361,31.673
		c-0.013-0.011-0.026-0.013-0.038-0.006c0.007-0.04,0.026-0.033,0.052,0.006H42.361L42.361,31.673z M27.928,38.551l-0.174,0.023
		v-0.05c0.092,0.033,0.142,0.001,0.147-0.095C27.878,38.482,27.887,38.523,27.928,38.551L27.928,38.551z M24.788,40.178
		c-0.021-0.216-0.173-0.315-0.387-0.291c-0.007-0.042-0.012-0.085-0.014-0.129l-0.23-0.036l0,0c0.079-0.041,0.143-0.033,0.191,0.022
		c0.118-0.423,0.414-0.74,0.845-0.888c0.32-0.573,0.817-0.536,1.364-0.138l-0.079,0.11c0.354,0.359,0.707,0.326,1.022-0.062
		c-0.064,0.332,0.103,0.604,0.438,0.782L28,39.345c0.126,0.194,0.13,0.37-0.038,0.543l0.006,0.007
		c0.507,0.627,0.456,1.201-0.494,1.645c0.171,0.066,0.279,0.168,0.205,0.268c0.023,0.03,0.03,0.065,0.02,0.104
		c-0.078-0.078-0.074-0.127-0.189-0.112l-0.026,0.232c-0.024-0.3-0.046-0.582-0.07-0.892c-0.847-0.119-1.667-0.363-2.478-0.729
		c0.004,0.024-0.005,0.037-0.026,0.039C24.864,40.36,24.819,40.273,24.788,40.178C24.786,40.154,24.788,40.178,24.788,40.178z
		 M25.958,36.036c-0.089-0.078-0.169-0.144-0.264-0.217c0.144,0.089,0.3,0.138,0.488,0.139c0.064,0.144,0.026,0.238-0.132,0.253
		C26.057,36.141,26.027,36.083,25.958,36.036L25.958,36.036z M25.418,35.815c-0.062-0.096-0.151-0.144-0.265-0.13
		c-0.087-0.317-0.278-0.626-0.544-0.887c0.158-0.183,0.429-0.307,0.647-0.493c-0.245,0.64-0.184,1.119,0.413,1.489
		C25.598,35.772,25.496,35.781,25.418,35.815L25.418,35.815z M25.491,33.847c0.075-0.002,0.11,0.001,0.187,0.019
		c-0.082,0.046-0.163,0.101-0.238,0.17c0.014-0.065,0.002-0.134-0.034-0.197C25.433,33.843,25.462,33.846,25.491,33.847
		C25.491,33.847,25.463,33.847,25.491,33.847z M27.525,38.623l0.102-0.005l-0.102,0.1V38.623L27.525,38.623z M24.811,32.175
		c0.035,0.047,0.065,0.096,0.091,0.148c-0.083-0.004-0.236,0.071-0.299-0.013c0.114-0.098,0.177-0.163,0.161-0.319
		c0.022,0.009,0.04,0.012,0.048,0.014C24.796,32.062,24.795,32.118,24.811,32.175L24.811,32.175z M29.531,38.465
		c0.003,0.08,0.035,0.134,0.067,0.17c-0.303-0.08-0.522-0.102-0.824-0.087c-0.009-0.36,0.167-0.413,0.468-0.229l0.022-0.026
		l0.009,0.033C29.37,38.311,29.461,38.367,29.531,38.465C29.534,38.545,29.531,38.465,29.531,38.465z M27.819,42.225
		c0.005-0.023,0.001-0.045,0-0.066C27.831,42.291,27.847,42.481,27.819,42.225C27.824,42.201,27.819,42.225,27.819,42.225z
		 M27.771,42.002c0.021,0.006,0.03,0.03,0.028,0.059C27.79,42.039,27.782,42.02,27.771,42.002
		C27.771,42.002,27.782,42.02,27.771,42.002z M28.074,39.16c-0.011,0.027-0.029,0.062-0.046,0.091
		c0.003-0.051,0.017-0.067,0.043-0.098L28.074,39.16L28.074,39.16z M28.222,36.309c0.048-0.056,0.116-0.066,0.157,0.014
		c-0.049,0.033-0.093,0.073-0.13,0.119C28.279,36.39,28.271,36.346,28.222,36.309L28.222,36.309z M23.544,33.507
		c0.017,0.051,0.046,0.086,0.089,0.107c-0.035,0.054-0.002,0.104,0.098,0.15c-0.099-0.069-0.197-0.132-0.307-0.178
		C23.467,33.564,23.507,33.538,23.544,33.507C23.566,33.548,23.525,33.523,23.544,33.507z M26.105,43.787
		c0.018,0.043,0.048,0.075,0.092,0.099C26.066,43.976,26.049,43.925,26.105,43.787L26.105,43.787z M29.77,38.771l-0.005-0.027
		l0.08,0.027l-0.006,0.029L29.77,38.771L29.77,38.771z M29.275,36.897c-0.16,0.091-0.433,0.306-0.363,0.512
		c-0.241,0.034-1.479,0.088-0.843,0.745c-0.052,0.014-0.093,0.053-0.116,0.103c-0.077-0.081-0.131-0.202-0.137-0.334
		c-0.254-0.057-0.516-0.189-0.76-0.38c0.323-0.188,0.88-0.679,0.473-1.04c0.083-0.053,0.141-0.127,0.17-0.225
		c0.01,0.368,0.179,0.502,0.488,0.36c0.026,0.902,0.772,0.188,1.119,0.218C29.296,36.87,29.286,36.88,29.275,36.897
		C29.275,36.897,29.286,36.88,29.275,36.897z M24.303,31.74c0.005-0.026,0.002-0.049,0.001-0.071
		c0.032,0.04,0.056,0.064,0.108,0.087c-0.037,0-0.071,0.003-0.106,0.006C24.304,31.754,24.306,31.749,24.303,31.74
		C24.308,31.714,24.306,31.749,24.303,31.74z M23.703,32.841l0.031,0.013c-0.01,0.002-0.02,0.004-0.03,0.009
		C23.703,32.855,23.704,32.847,23.703,32.841C23.703,32.841,23.704,32.847,23.703,32.841z M18.823,35.927l0.013-0.009
		C18.833,35.925,18.829,35.928,18.823,35.927L18.823,35.927z M22.886,31.971l0.042,0.234c0.203-0.183,0.418-0.241,0.633-0.012
		c-0.077,0.03-0.125,0.104-0.14,0.191c-0.11-0.06-0.435-0.056-0.571-0.049l0.009-0.03c-0.218-0.05-0.423,0.021-0.575,0.191
		c-0.087-0.054-0.175-0.089-0.27-0.127c0.056-0.148-0.061-0.296-0.171-0.396l0.025-0.001l-0.015-0.207
		c0.068,0.029,0.091,0.098,0.069,0.205c0.025,0,0.057-0.003,0.091-0.009c0.301,0.439,0.452,0.242,0.861,0.242L22.886,31.971
		L22.886,31.971L22.886,31.971z M21.605,33.583c0.206,0.063,0.594,0.04,0.61-0.249c0.1,0.022,0.243,0.012,0.343,0.001l-0.05,0.185
		c0.204,0.131,0.438,0.161,0.657,0.076c-0.002,0.032,0.014,0.043,0.051,0.03c-1.135,0.264-1.404,0.754-0.451,1.469l0.159-0.171
		c-0.101,0.555,0.191,0.374,0.593,0.281c0.006,0.129,0.001,0.243-0.014,0.365c-0.147-0.066-0.323,0.003-0.435,0.053l-0.025,0.196
		c-0.053-0.001-0.103,0.014-0.15,0.047c-0.391-0.376-0.757-0.851-1.061-1.384c0.181-0.945-0.427-0.81-1.219-0.303
		c-0.062-0.037-0.157-0.058-0.214-0.067c-0.365,0.119-0.757,0.061-1.11-0.152c-0.084-0.118-0.23-0.242-0.39-0.339
		c0.376,0.069,0.637,0.409,1.074,0.275l-0.05-0.229l0.107,0.215c0.317-0.066,1.286-0.153,1.508-0.364L21.605,33.583L21.605,33.583z
		 M20.29,32.476c-0.159,0.083-0.2,0.164-0.141,0.331c-0.091-0.038-0.229-0.146-0.34-0.202c0.031-0.053,0.04-0.109,0.025-0.169
		c0.125,0.026,0.227-0.03,0.348-0.032l-0.006-0.234l0.062,0.234c0.044,0,0.089-0.002,0.134-0.007
		C20.344,32.414,20.313,32.438,20.29,32.476C20.266,32.487,20.313,32.438,20.29,32.476z M32.369,44.011v-0.036l0.088,0.09
		L32.369,44.011L32.369,44.011z M32.621,43.965c-0.118,0.01-0.164-0.044-0.136-0.162c-0.083-0.004-0.146,0.027-0.192,0.094
		l0.044,0.046c-0.034,0.014-0.064,0.012-0.088-0.005c-0.241,0.044-0.383,0.008-0.532-0.111c0.062-0.056,0.139-0.166,0.143-0.262
		c0.175,0.053,0.387,0.054,0.571,0.006v-0.319c0.223,0.009,0.317-0.094,0.497-0.186l0.004,0.008
		c0.001-0.001,0.004-0.003,0.005-0.003c-0.103,0.283-0.255,0.493-0.501,0.677l0.203,0.202L32.621,43.965L32.621,43.965z
		 M31.387,39.442l-0.072-0.061c-0.115,0.137-0.221,0.287-0.316,0.45l0.034,0.029c-0.101-0.006-0.103,0.039-0.16,0.135l-0.042-0.099
		c-0.318-0.055,0.043-0.219,0.287-0.338L30.7,39.145l-0.139,0.139c-0.142-0.091-0.419-0.248-0.546-0.309
		c0.1,0.048,0.175,0.037,0.228-0.03c0.185,0.072,0.758,0.313,0.937,0.247C31.191,39.294,31.279,39.393,31.387,39.442L31.387,39.442z
		 M15.843,42.532l0.009,0.04h-0.05L15.843,42.532L15.843,42.532z"/>
	<path d="M42.999,38.571c0.383-0.206,0.838-0.409,1.223-0.548c-0.048-0.098-0.04-0.172,0.023-0.224
		c-0.046-0.05-0.026-0.095,0.043-0.132c-0.077-0.044-0.1-0.112-0.067-0.203H44.01l0.037-0.037c-0.067-0.045-0.083-0.109-0.048-0.195
		h-0.07l-0.019-0.114c-0.297-0.138-0.443-0.174-0.87-0.174c0.025,0.062,0.013,0.109-0.037,0.142
		c-0.159-0.011-0.328-0.013-0.488-0.006c0.009,0.111-0.084,0.005-0.157-0.101c-0.28,0.104-0.548,0.097-0.925,0.016v0.104
		l-0.085,0.016c-0.13,0.349-0.163,0.57-0.143,1c0.613,0.198,0.264,0.059,0.804,0.34v0.049c0.086-0.023,0.15,0.005,0.193,0.087
		l0.02-0.02C42.436,38.638,42.751,38.644,42.999,38.571L42.999,38.571z"/>
</g>
</svg>
