<?xml version="1.0" encoding="utf-8"?>
<!-- Generator: Adobe Illustrator 15.0.2, SVG Export Plug-In . SVG Version: 6.00 Build 0)  -->
<!DOCTYPE svg PUBLIC "-//W3C//DTD SVG 1.1//EN" "http://www.w3.org/Graphics/SVG/1.1/DTD/svg11.dtd">
<svg version="1.1" id="Ebene_1" xmlns="http://www.w3.org/2000/svg" xmlns:xlink="http://www.w3.org/1999/xlink" x="0px" y="0px"
	 width="100px" height="100px" viewBox="0 0 100 100" enable-background="new 0 0 100 100" xml:space="preserve">
<circle fill="#B2B2B2" cx="50" cy="50" r="50"/>
<path fill="#231F20" d="M71.081,22.259c-0.575-0.239-0.527-1.342-0.527-1.342h-6.612c0.105,0.282,0.12,0.573,0.093,0.708
	l0.431,6.163l0.15,5.101l-0.024,0.888c0,0-0.081,1.225-1.149,1.512c-0.938,0.301-1.384-0.394-1.384-0.394s-0.288-0.327-0.292-0.839
	c-0.027-0.645-0.242-8.831-0.242-8.831l-0.056-1.124c0,0,0.267-0.245,0.28-0.121c0.062,0.239,0.058,1.535,0.058,1.535l0.159,5.419
	l0.082,3c0,0,0.165,0.982,0.627,1.053c0.407,0.191,0.994,0.035,1.313-0.389c0.271-0.44,0.304-0.696,0.304-0.696l-0.001-2.45
	l-0.089-2.445l-0.214-3.369l-0.259-3.63c0,0,0.063-0.651-0.178-1.091h-1.327c0,0,0,0,0,0h-0.291c0,0,0.001,0,0.001,0H25.042v59.171
	l43.234,0.12c0,0,0-0.479,0.263-0.527c0.266-0.048,2.015-0.406,2.015-1.03c0-0.623,0-35.973,0-35.973s-0.048-1.102,0.527-1.342
	c0.575-0.239,2.603-0.669,2.603-2.219c0-0.982,0-6.325,0-6.325v-4.005c0,0,0-3.325,0-4.308
	C73.684,22.927,71.656,22.499,71.081,22.259z"/>
</svg>
