<?xml version="1.0" encoding="utf-8"?>
<!-- Generator: Adobe Illustrator 15.0.2, SVG Export Plug-In . SVG Version: 6.00 Build 0)  -->
<!DOCTYPE svg PUBLIC "-//W3C//DTD SVG 1.1//EN" "http://www.w3.org/Graphics/SVG/1.1/DTD/svg11.dtd">
<svg version="1.1" id="Ebene_1" xmlns="http://www.w3.org/2000/svg" xmlns:xlink="http://www.w3.org/1999/xlink" x="0px" y="0px"
	 width="100px" height="100px" viewBox="0 0 100 100" enable-background="new 0 0 100 100" xml:space="preserve">
<circle fill="#B2B2B2" cx="50" cy="50" r="50"/>
<g>
	<path d="M47.96,69.189c0.171-0.675,1.051-0.197,0.639-0.875c0.33,0.588,0.713-0.255,0.644-0.584c0.143,0.307,0.253,1.01,0.76,0.815
		c0,0.882,0.078,1.768,0.292,2.625c0.118-0.997,0.595,1.476,0.47,1.417c0.31,0.146-0.167,1.808,0.113,1.329
		c-0.153,0.584-0.312,1.167-0.468,1.75c0.919-0.812,1.708,1.854,1.87,2.37c0.27,0.857,0.639,1.617,1.392,2.153
		c0.42,0.298,0.836,0.646,1.329,0.817c0.321,0.112,0.618-0.388,0.891-0.035c-0.864-1.261-0.616-3.072-2.145-3.86
		c-0.632-0.325-1.313-0.497-1.524-1.266c-0.123-0.451-0.271-1.293-0.938-1.055c-0.129-1.034,0.398-3.324,1.573-3.561
		c-0.038,0.233-0.077,0.466-0.115,0.699c0.455-0.03,0.905,0.086,1.27,0.364c0.545,0.417,0.512,1.263,1.18,0.863
		c-0.106,0.524,0.006,0.655,0.337,0.392c0.318-0.018,0.577,0.251,0.842,0.378c0.471,0.225,0.014,0.847-0.072,1.156
		c0.521,0.121,1.647-0.521,0.936-1.052c0.215,0.098,0.43,0.194,0.645,0.292c-0.108-0.163-0.227-0.318-0.353-0.468
		c1.287,0.808-0.676-0.39,0.584,0.061c-0.973-0.455,0.258,0.159-0.062-0.413c1.18,0.65,2.14-1.2,2.225-2.097
		c0.173-1.812-0.96-2.703-2.225-3.733c-0.49-0.4-1.189-1.021-1.072-1.737c0.035-0.212,0.516-1.262,0.842-1.184
		c-0.432-0.446,1.41-0.76,1.397-1.221c0.497,0.62,1.19-0.335,1.048,0.809c-0.024,0.192,0.317,0.863,0.508,0.506
		c0.152-0.286,0.024-0.665,0.024-0.969c0.102,0.322,0.733-0.021,0.882-0.101c0.575-0.31,0.581-0.695,1.215-0.537
		c-0.003-0.216-0.021-0.431-0.055-0.645c0.433,1.181-0.035-0.312,0.522,0.237c-0.077-0.253-0.154-0.507-0.231-0.76
		c0.292,0.213,0.583,0.425,0.875,0.638c-0.313-0.479,0.572-0.467,0.826-0.585c0.137-0.063,1.27-0.521,0.803-0.752
		c0.308-0.041,0.637-0.231,0.645-0.584c0.279,0.377,0.887-0.457,0.292-0.583c0.232-0.04,0.466-0.081,0.698-0.121
		c-0.173-0.252-0.073-0.435,0.237-0.347c-0.031-0.062-0.243-0.383-0.19-0.432c-0.024,0.021,0.622-0.114,0.651-0.098
		c-0.163-0.455-0.24-0.584,0.054-0.962c-0.023-0.063-0.072-0.082-0.134-0.077c0.065-0.073-0.126-0.196-0.211-0.242
		c0.658,0.323,1.167-1.021,0.583-1.344c0.253-0.097,0.507-0.194,0.76-0.291c-0.334-0.221,0.049-0.61-0.292-0.814
		c0.332-0.004,0.763-0.789-0.054-0.23c0.153-0.177,0.308-0.353,0.461-0.529c-0.496-0.16-1.027-0.113-1.513,0.061
		c0.389-0.312,0.778-0.624,1.167-0.936c-0.376-0.242-0.762-0.605-1.221-0.651c0.368-0.016,0.737-0.031,1.105-0.048
		c-0.47-0.324-0.966-0.636-1.148-1.213c-0.159-0.502-0.382-0.767-0.872-0.951c-1.312-0.495,0.612-1.026-0.082-1.567
		c0.487,0.058,0.176-0.452,0.502-0.624c0.163-0.086,1.142-0.407,1.145-0.609c0.014-1.06-2.279,0.341-2.461,0.528
		c-0.301-0.595-0.438-0.869-1.153-0.868c-0.572,0.001,0.152-0.837,0.307-0.971c0.56-0.483,0.997-1.743,1.73-1.951
		c0.312-0.088,0.5,0.197,0.478,0.484c-0.044,0.539-0.904,1.102,0.036,0.856c-0.136,0.233-0.271,0.466-0.407,0.699
		c0.425-0.444,0.851-0.888,1.275-1.332c0.37-0.385,0.95-0.163,1.404-0.182c-0.021,0.304-0.169,0.817,0.292,0.875
		c-0.312,0.047-0.531,0.327-0.523,0.638c0.106-0.014,0.497-0.185,0.292,0.122c0.636-0.358,1.194,0.111,1.52,0.639
		c-0.784-0.714-0.132,0.861-0.236,0.176c-0.01,0.234,0.115,0.514,0.407,0.407c-0.072,0.449-0.354,1.111,0.177,1.404
		c-0.355,0.006-0.15,0.202,0,0.292c0.124-0.205,0.261-0.735,0.528-0.292c-0.107-0.292,0.037-0.493,0.292-0.237
		c-0.404-0.569,0.102-0.277,0.346-0.23c-0.004-0.598,0.491-0.439,0.314-1.289c-0.195-0.94-0.759-1.495-1.52-2.031
		c-1.037-0.73-0.508-1.153,0.156-1.928c0.455-0.53-0.139-0.662-0.048-1.186c0.057-0.323,0.488-0.557,0.282-0.919
		c0.486,0.081,0.387-0.525,0.407-0.814c2.147,0.668,2.201-2.404,2.238-3.908c0.04-1.701-0.3-4.804-1.831-5.895
		c0.61,0.13-0.479-0.537-0.644-0.591c-0.675-0.221-0.739,0.525-0.991,0.943c-0.057-0.235-0.113-0.47-0.17-0.705
		c-0.037,0.215-0.077,0.43-0.121,0.644c-0.117-0.199-0.138-0.464-0.321-0.624c-0.257-0.224-0.636,0.269-0.841,0.033
		c-0.43-0.492,0.464-2.17,0.526-2.745c0.062-0.565,0.316-3.154,1.396-2.438c-0.087-0.581,1.194-0.469,0.698-1.112
		c0.389-0.077,0.778-0.154,1.167-0.231c-0.45,0.594,0.089,0.479,0.337,0.208c0.219-0.238,0.333-0.546,0.538-0.792
		c-0.175-0.148-0.329-0.13-0.462,0.055c-0.284-0.277-0.466-0.635-0.532-1.026c-0.109-0.644,0.067-1.316,0.355-1.891
		c0.388,0.534,0.638,0.494,0.93,0.875c-0.089-0.334-0.075-1.119-0.229-1.379c-0.145-0.244-0.805-0.777-0.117-0.833
		c-0.215,0.522,0.908,1.22,0.954,1.884c0.065,0.932,0.754,1.724,0.532,2.688c-0.206,0.895,0.727,1.606,1.259,2.171
		c0.902,0.955,1.93,1.778,2.913,2.646c-0.134-0.667-0.716-1.353-0.771-1.988c-0.042-0.475,0.462-0.514-0.092-0.908
		c-0.461-0.328-0.027-0.766-0.102-1.187c-0.08-0.453-1.185-0.704-0.611-1.224c-0.412-0.233-1.014-0.392-1.112-0.936
		c-1.106,1.061-1.189-1.829-1.337-2.273c0.155,0.114,0.309,0.229,0.462,0.346c-0.506-0.598-0.083-1.17,0.645-1.051
		c-0.872-0.505-1.497-2.038-1.057-2.984c0.428-0.919-0.795-0.901-1.422-1.011c0.166,0.047-0.338,0.051-0.438,0.033
		c0.143,0.268,0.038,0.431-0.231,0.522c0.152-0.434,0.418-1.003-0.016-1.379c-0.245-0.213-0.801-0.236-0.805-0.662
		c0.253,0.118,0.507,0.235,0.76,0.353c-0.009-0.667,0.065-0.424,0.594-0.474c0.199-0.019,0.606-0.1,0.281-0.347
		c0.143,0.135,0.247,0.145,0.313,0.031c-0.13-0.292-0.903-0.692-1.188-0.499c0.395-0.288-0.23-0.728-0.749-0.747
		c-0.961-0.036-0.059,0.714,0.342,0.808c-0.926-0.167-1.86,0.042-2.757,0.268c-0.298,0.075-0.636,0.091-0.877,0.31
		c-0.284,0.258-0.312,0.71-0.688,0.881c0.266,0.343,0.874,0.137,1.051,0.583c-0.34,0.162-0.751,0.216-1.105,0.061
		c0.349,0.592-0.955,0.781-0.468,1.397c-0.52-0.199-1.071-0.579-1.658-0.453c-0.493,0.106-0.649,0.688-1.113,0.847
		c-0.729,0.251-0.758-0.182-1.282-0.372c-0.364-0.132-0.558,0.631-0.438,0.853c-0.146-0.126-0.281-0.262-0.407-0.407
		c0.26,0.381,0.449-0.424-0.292,0.176c0.156-0.136,0.311-0.273,0.463-0.414c-0.486,0.118-0.974,0.235-1.46,0.353
		c0.267,0.197,0.151,0.409-0.054,0.583c0.316-0.23,0.502,0.271,0.698,0.407c-0.553-0.056-0.671,0.1-0.353,0.468
		c-0.481-0.121-1.27,0.228-1.628-0.061c0.038,0.312,0.077,0.624,0.115,0.936c-0.184-0.1-1.544-0.54-0.991-0.875
		c-0.631-0.16-0.128-0.324-0.685-0.49c-0.382-0.114-0.816-0.077-1.187-0.209c-0.139,1.859-1.773-0.286-2.504,0.929
		c-0.314-0.45-0.217-0.423-0.668-0.427c-0.506-0.004-0.435,0.35-0.092,0.196c-0.447,0.188-1.068,0.246-1.282,0.759
		c0.354-0.781,1.023-1.345,1.629-1.926c-0.124-0.131-0.26-0.249-0.408-0.352c0.757,0.417,0.208-0.405-0.151-0.477
		c-0.389-0.078-0.817,0.014-1.19,0.13c0.268-0.445-0.282-0.332-0.523-0.353c1.3-0.687-1.564-0.048-0.936,0.699
		c-0.278-0.308-0.66,0.018-0.93,0.121c0.209-0.32-0.438-0.358-0.542-0.128c0.071,0.063,0.155,0.086,0.25,0.067
		c-0.434,0.087-0.891,0.026-1.313,0.179c-0.228,0.082-0.595,0.742-0.729,0.344c0.039,0.253,0.077,0.506,0.115,0.759
		c-0.519-0.016-1.641-0.372-1.904,0.304c-0.163,0.417,0.123,0.673,0.288,1.014c-0.264-0.062-0.584-0.332-0.807-0.43
		c-0.554-0.246-0.348,0.165-1.017-0.067c0.116,0.271,0.231,0.542,0.347,0.814c-0.728-0.228-0.416-0.995-0.292-1.519
		c-0.078,0.463-0.617,0.5-0.879,0.807c-0.101,0.202-0.151,0.415-0.152,0.641c-0.108,0.399-0.408,0.696-0.658,1.008
		c0.251,0.042,0.516,0.169,0.724,0.341c-1.164-0.092-1.601,2.284-3.119,0.996c1.045,0.069,1.696-0.483,2.122-1.39
		c0.267-0.57,1.58-2.6,0.863-2.864c0.2-0.018,0.373-0.096,0.516-0.237c-0.652-0.133-1.062,0.571-1.464,0.945
		c-0.216,0.201-0.566,0.038-0.747,0.301c-0.221,0.32-0.447,0.637-0.645,0.972c0.747,0.167,0.083,0.876-0.237,1.106
		c-0.146-0.466-0.101-0.788-0.463-1.133c0.989,1.774-3.228,2.12-4.057,2.758c-1.071,0.824-1.732,2.148-2.699,3.094
		c-0.726,0.709-2.358,0.932-2.08,2.045c0.233,0.931-1.306,0.373-1.697,0.479c-0.36,0.098-0.454,0.719-0.261,0.993
		c0.221,0.314,0.762,0.289,1.092,0.379c1.007,0.274-1.068,1.087-0.425,1.869c0.172,0.209,0.634,0.877,0.449,1.161
		c-0.337,0.515-0.883-0.217-1.287,0.131c-0.237-1.094-1.762-2.174-2.79-2.426c-1.38-0.336-2.106,2.002-2.403,3.019l-0.008-0.001
		c0.276,0.25,0.92,0.625,0.571,1.078c-0.2,0.26-0.825,0.401-0.571,0.842c-0.239-0.166-0.407-0.548-0.753-0.523
		c-0.348,0.025-0.526,0.407-0.353,0.699c-0.145-0.167-0.301-0.324-0.468-0.468c-0.372,0.419-0.331,1.371-0.111,1.849
		c0.227,0.496-0.284,1.198-0.412,1.712c0.197-0.338,0.801-0.688,0.878-0.055c0.1,0.82-0.83,0.786-0.878,0.115
		c-0.275,0.307-0.553,0.666-0.528,1.106c-0.02-0.405,0.446-0.001,0.237,0.353c-0.192-0.26-0.323-0.118-0.407,0.115
		c0.547-0.081,0.171,0.757,0.073,0.968c-0.353,0.757-0.906,1.36-1.703,0.699c-0.601-0.498-0.989-1.401-0.736-2.171
		c0.193-0.59,0.82-1.633,1.59-1.298c-0.909-0.918-0.625-1.842-1.168-2.889c-0.695-1.336-1.204-2.778-1.42-4.271
		c0.021,0.856,0.371,1.715,0.163,2.571c-0.221,0.912-1.025,1.097-1.714,0.511c-0.267-0.227-0.492-0.551-0.63-0.872
		c-0.221-0.514,0.123-1.163-0.238-1.614c-0.572-0.714-1.332-0.377-1.799-1.317c-0.206,0.16-0.247,0.354-0.122,0.583
		c-0.128-0.266-0.282-0.284-0.461-0.054c-0.141-0.323-0.398-1.243-0.896-0.745c-0.212,0.212,0.089,0.315-0.026,0.54
		c-0.138,0.27-0.515,0.436-0.481,0.788c-0.096-0.147-0.115-0.303-0.055-0.468c-0.292,0.217-0.26,0.653-0.317,0.969
		c-0.018,0.168-0.086,0.313-0.204,0.433c-0.446,0.382,0.503,0.555-0.354,0.403c0.684,0.221,0.092,1.094,0.462,1.519
		c0.139-0.134,0.277-0.27,0.413-0.407c0.254,0.451,0.125,2.365,1.106,1.635c-0.049,0.295,0.152,0.563,0.468,0.523
		c-0.672,0.73-0.994,1.685-1.801,2.304c-0.748,0.574-1.42,0.979-1.665,1.949c0.078-0.644-0.161-1.933-0.549-1.278
		c-0.378,1.002-0.594,2.063-0.589,3.136c0.373-0.414,0.733-0.868,0.973-1.377c-0.277,0.723-0.68,1.339-0.727,2.174
		c-0.035,0.634,0.005,1.274-0.09,1.904c-0.087,0.578-0.376,1.05-0.199,1.647c0.309,1.04-0.223,2.079-0.283,3.131
		c-0.064,1.128,0.224,2.272,0.293,3.396c0.096,1.557-0.755,3.218-0.424,4.742c0.125,0.58,0.557,0.837,1.135,0.706
		c0.379-0.086,0.757,0.057,1.104,0.19c0.606,0.233,1.037,0.222,1.675,0.234c0.43,0.009,0.758,0.238,1.173,0.264
		c0.498,0.029,0.359-0.535,0.788-0.57c0.482-0.04,0.88,0.396,1.363,0.246c0.341-0.105,0.561-0.322,0.942-0.182
		c0.275,0.101,1.335-0.474,1.393-0.697c0.233-0.9,0.479-0.476,0.936-0.917c0.702-0.679,1.005-1.415,0.461-2.312
		c-0.567-0.936-1.416-2.015-0.544-3.056c-0.466,0.253-0.875,0.597-1.366,0.809c-0.756,0.327-1.001-0.335-1.695-0.254
		c-0.982,0.115,0.358-1.792-0.208-2.128c-0.154,0.33-0.308,0.66-0.462,0.99c-0.043-0.98-0.107-2.059,0.045-3.032
		c0.087-0.555,0.443-1.535-0.167-1.927c0.343,0.052,0.462-0.159,0.413-0.468c0.146,0.24,0.373,0.464,0.583,0.115
		c0.011,0.322,0.335,0.423,0.488,0.655c0.181,0.275,0.101,0.673,0.05,0.969c-0.151,0.88,0.148,1.549,0.51,2.333
		c0.42,0.911,0.623,1.221,1.645,1.244c0.751,0.017,0.415,1.262,0.805,1.741c0.543,0.667,1.341,1.152,2.121,1.491
		c0.928,0.404,2.023,0.399,2.917,0.811c0.509,0.234,0.699,0.893,0.796,1.396c0.033,0.171,0.079,0.604,0.328,0.634
		c0.726,0.086-0.282,0.74,0.719,0.277c-0.414,0.13-0.227,0.542-0.077,0.797c0.236,0.401,0.679,0.356,1.073,0.431
		c-0.249,0.469-0.835,0.219-1.227,0.17c0.37,0.592,0.485,1.68,1.235,1.948c0.84,0.301,1.105-1.438,1.743-0.952
		c-0.273,0.054-0.564,0.43-0.122,0.523c-0.481,0.199-0.496,2.492-0.442,2.929c0.189,1.544,0.472,3.079,0.915,4.571
		c0.421,1.417,0.607,2.91,1.232,4.262c0.143,0.309,0.447,0.911,0.896,0.686c0.603-0.304,0.406-0.6,1.19-0.664
		c-0.505-0.292,0.291-0.859,0.645-0.698c0-0.787,0.348-1.512,0.434-2.286c0.053-0.481-0.097-0.964-0.035-1.447
		c0.144-1.11,1.779-0.573,2.152-1.49c0.221-0.541,0.929-0.575,1.379-0.811c0.589-0.308,1.039-0.835,1.668-1.071
		c0.451-0.17,1.054-0.299,1.16-0.86c0.105-0.55,0.806-0.61,0.94-1.138c0.037,0.195,0.075,0.39,0.116,0.584
		c0.133-0.142,0.271-0.277,0.414-0.408c0.108,0.149,0.205,0.306,0.292,0.468c0-0.962,0.519,0.535,0.753-0.644
		c0.077,0.178,0.156,0.354,0.237,0.529c0.097-0.215,0.194-0.43,0.291-0.645c0.06,1.139,0.278,0.142,0.177-0.177
		c0.694,0.004,1.132,0.748,1.265,1.347c0.048,0.216,0.207,1.356,0.601,0.817c-0.264,0.571,1.621,1.232,0.292,1.045
		c0.257,0.469,0.347,0.765,0.583,0.061c0.104,0.49,0.167,0.989,0.172,1.49c0.006,0.508-0.509,1.744,0.174,1.251
		c-0.505,0.806,0.009-0.152,0.291,0.468C47.782,68.564,47.768,68.997,47.96,69.189z M44.691,22.985
		c-0.596-0.15-0.332-0.762-0.198-1.165c0.043,0.041,0.089,0.081,0.125,0.125C45.169,22.624,43.869,22.434,44.691,22.985z
		 M46.848,21.642c-0.505-0.434,0.483-1.247-0.291-0.699c0.211-0.23,0.423-0.46,0.635-0.69
		C47.352,20.722,46.996,21.218,46.848,21.642z"/>
	<path d="M68.69,12.503C68.666,12.517,68.654,12.523,68.69,12.503L68.69,12.503z"/>
	<path d="M68.902,13.243c-0.035-0.14-0.049-0.625-0.229-0.71c0.01-0.002,0.016-0.011,0.018-0.024
		c-0.009,0.006-0.017,0.012-0.025,0.018c-0.003-0.001-0.004-0.005-0.007-0.006c-0.007,0.003-0.004,0.002-0.013,0.007
		c0.008,0.005,0.01,0.002,0.015,0.003c-0.114,0.082-0.227,0.164-0.341,0.245C68.528,12.914,68.723,13.069,68.902,13.243z"/>
	<polygon points="68.69,12.503 68.692,12.502 68.692,12.502 	"/>
	<path d="M68.692,12.502c0.005-0.003,0.01-0.005,0.017-0.009l0.001,0C68.704,12.496,68.699,12.498,68.692,12.502
		c-0.001,0.002-0.002,0.004-0.002,0.007c0.011-0.008,0.022-0.016,0.034-0.024v0l0.001,0l-0.001,0.001l0,0c0,0,0,0,0.001-0.001
		c-0.022-0.012-0.028-0.001-0.031,0.012c-0.013,0.004-0.015,0.004-0.045,0.017c0.004,0.001,0.005,0.007,0.009,0.008
		C68.678,12.511,68.683,12.507,68.692,12.502L68.692,12.502z"/>
	<path d="M51.357,14.034c0.016-0.014,0.018-0.015,0.043-0.037C51.4,13.997,51.38,14.014,51.357,14.034L51.357,14.034z"/>
	<path d="M51.357,14.034C51.356,14.034,51.357,14.034,51.357,14.034c-0.239,0.202-0.479,0.404-0.717,0.607
		C51.222,15.115,51.796,14.577,51.357,14.034C51.26,14.116,51.307,14.077,51.357,14.034z"/>
	<path d="M51.4,13.997c-0.026,0.018-0.028,0.021-0.046,0.033c0,0,0,0,0,0c-0.008,0.007-0.015,0.013-0.023,0.021
		c0.001-0.001-0.001-0.003,0-0.004c-0.046,0.034-0.062,0.051-0.049,0.046c-0.031,0.027-0.014,0.014,0.074-0.06c0,0,0,0,0,0
		C51.371,14.021,51.386,14.009,51.4,13.997z"/>
	<path d="M51.336,14.002c0.013,0.014,0.005,0.03-0.005,0.045c0.007-0.005,0.015-0.011,0.023-0.017
		C51.347,14.021,51.345,14.012,51.336,14.002z"/>
	<path d="M50.586,14.756C50.565,14.835,50.586,14.756,50.586,14.756L50.586,14.756z"/>
	<path d="M50.993,14.872c-0.017-0.006-0.462-0.121-0.407-0.116c-0.021,0.079-0.04,0.158-0.061,0.237
		C50.696,15.01,50.853,14.97,50.993,14.872z"/>
	<path d="M51.518,14.806c-0.233,0.101-0.467,0.202-0.7,0.303c0.183,0.218,0.916,0.731,1.175,0.373
		c0.348-0.48-0.636-0.605-0.361-0.726C51.559,14.788,51.528,14.801,51.518,14.806z"/>
	<path d="M51.631,14.756C51.602,14.754,51.325,14.889,51.631,14.756L51.631,14.756z"/>
	<path d="M52.391,15.225c-0.001,0-0.003,0.006-0.006,0.012c0,0,0,0.001,0.001,0.001C52.388,15.233,52.389,15.23,52.391,15.225z"/>
	<path d="M52.386,15.238c-0.021,0.054-0.033,0.089-0.042,0.113c0,0-0.001,0.001-0.001,0.001c0,0.002-0.001,0.004-0.002,0.006
		c0.001-0.001,0.002-0.004,0.002-0.006c0.001,0,0,0,0,0c-0.003,0.008-0.004,0.011-0.003,0.008c-0.098,0.267-0.196,0.532-0.295,0.799
		c0.31-0.117,0.62-0.235,0.93-0.352c-0.109-0.218-0.292-0.472-0.52-0.179C52.452,15.573,52.415,15.289,52.386,15.238
		c0.002-0.005,0.003-0.007,0.005-0.014C52.389,15.229,52.387,15.234,52.386,15.238L52.386,15.238z"/>
	<path d="M52.344,15.352c-0.001-0.001,0-0.005,0.001-0.009C52.327,15.39,52.318,15.416,52.344,15.352z"/>
	<path d="M52.34,15.361c0.001-0.001,0.001-0.001,0.001-0.002C52.341,15.36,52.34,15.361,52.34,15.361z"/>
	<path d="M52.365,15.253c-0.013,0.05-0.019,0.076-0.021,0.089c0.014-0.039,0.03-0.084,0.04-0.105
		C52.377,15.226,52.37,15.225,52.365,15.253z"/>
	<path d="M69.078,15.455c-0.018-0.018-0.225-0.275-0.176-0.23c-0.077,0.059,0,0,0,0C68.544,15.412,68.603,15.489,69.078,15.455z"/>
	<path d="M62.35,15.291c0-0.013,0-0.026,0.007-0.038C62.328,15.298,62.234,15.3,62.35,15.291z"/>
	<path d="M62.37,15.294c-0.006,0.001-0.011,0.002-0.017,0.003c0.023-0.004,0.047-0.008,0.07-0.012
		c-0.011-0.001-0.035,0.001-0.062,0.005c-0.004,0-0.01,0-0.013,0.001l-0.001,0c-0.076,0.012-0.154,0.031-0.001,0.006c0,0,0,0,0,0
		C62.354,15.297,62.363,15.296,62.37,15.294z"/>
	<path d="M62.348,15.298c-0.052,0.009-0.07,0.012-0.067,0.011c-0.282,0.049-0.564,0.097-0.847,0.146
		c0.198,0.158,0.52,0.329,0.785,0.261C62.598,15.62,62.358,15.421,62.348,15.298c0.002,0,0.004-0.001,0.006-0.001
		C62.352,15.297,62.35,15.298,62.348,15.298L62.348,15.298z"/>
	<path d="M60.267,15.631c0.01,0.012,0.01,0.013,0.016,0.02C60.274,15.641,60.267,15.631,60.267,15.631z"/>
	<path d="M60.267,15.631c0.078,0.086,0.059,0.07,0.033,0.042c0.006,0.007,0.005,0.006,0,0
		C60.284,15.657,60.268,15.638,60.267,15.631c0.079,0.118,0.158,0.235,0.237,0.353c-0.234-0.06-0.47-0.119-0.705-0.176
		C59.559,17.31,63.065,15.631,60.267,15.631z"/>
	<path d="M60.3,15.674L60.3,15.674c-0.003-0.003-0.011-0.014-0.018-0.022C60.289,15.66,60.295,15.668,60.3,15.674z"/>
	<path d="M61.734,16.895c0.003-0.013,0.002-0.026-0.008-0.021c0.001,0.011,0.001,0.021,0.002,0.024
		C61.73,16.898,61.732,16.896,61.734,16.895z"/>
	<path d="M61.727,16.875c0-0.007-0.001-0.004-0.001-0.016c-0.003,0.008-0.003,0.018-0.006,0.026
		C61.722,16.883,61.726,16.875,61.727,16.875z"/>
	<path d="M61.72,16.885c-0.003,0.003-0.007,0.01-0.01,0.015c-0.003,0.007-0.005,0.013-0.007,0.019
		c0.003-0.004,0.008-0.005,0.011-0.009C61.717,16.902,61.717,16.894,61.72,16.885z"/>
	<path d="M61.726,16.859c-0.009,0.025-0.011,0.03-0.016,0.042l0,0C61.718,16.88,61.726,16.859,61.726,16.859z"/>
	<path d="M61.729,16.899c-0.005,0.003-0.01,0.007-0.015,0.011c-0.053,0.153-0.092,0.31-0.104,0.472
		c0.812-0.269,0.29-0.571,0.125-0.487C61.732,16.904,61.73,16.905,61.729,16.899z"/>
	<path d="M61.703,16.919L61.703,16.919C61.697,16.934,61.697,16.933,61.703,16.919z"/>
	<path d="M61.693,16.926c0.002-0.004,0.008-0.004,0.01-0.007c0.001-0.003,0.005-0.013,0.007-0.019
		C61.704,16.909,61.702,16.908,61.693,16.926z"/>
	<path d="M55.288,18.435C55.26,18.437,55.226,18.44,55.288,18.435L55.288,18.435z"/>
	<path d="M55.308,18.433C55.201,18.442,55.308,18.435,55.308,18.433L55.308,18.433z"/>
	<path d="M55.308,18.433c-0.137,0.011-0.272,0.031-0.407,0.061C55.078,18.692,55.214,18.671,55.308,18.433z"/>
	<path d="M76.426,21.703C76.198,21.933,76.426,21.703,76.426,21.703L76.426,21.703z"/>
	<path d="M76.426,21.703C76.42,21.7,76.146,21.986,76.426,21.703L76.426,21.703z"/>
	<path d="M76.548,22.341c-0.05-0.345-0.163-0.603-0.122-0.638C76.236,21.958,76.276,22.17,76.548,22.341z"/>
	<path d="M79.551,29.417c0,0-0.001-0.001-0.001-0.002c0.06-0.156,0.003,0.03-0.03-0.128c0.013,0.055,0.02,0.085,0.024,0.106
		c0.002,0.008,0.004,0.015,0.006,0.022l0,0C79.55,29.416,79.55,29.417,79.551,29.417L79.551,29.417
		c0.048,0.208,0.097,0.416,0.146,0.624C79.755,29.897,79.635,29.211,79.551,29.417z"/>
	<path d="M79.538,29.366C79.545,29.395,79.546,29.399,79.538,29.366L79.538,29.366z"/>
	<polygon points="79.548,29.42 79.55,29.417 79.55,29.415 	"/>
	<path d="M79.52,29.287c0.011,0.047,0.015,0.063,0.019,0.08C79.53,29.333,79.52,29.287,79.52,29.287z"/>
	<path d="M72.682,29.884C72.738,29.774,72.481,30.115,72.682,29.884L72.682,29.884z"/>
	<path d="M72.694,29.87c-0.038,0.06-0.053,0.083-0.064,0.101c0,0,0,0,0,0c-0.003,0.005-0.007,0.012-0.009,0.015
		c-0.006,0.01-0.003,0.004,0,0c-0.008,0.012-0.004,0.005,0.008-0.012c0-0.001,0.001-0.001,0.001-0.002
		C72.654,29.934,72.694,29.87,72.694,29.87z"/>
	<path d="M72.682,29.884c-0.009,0.017-0.024,0.044-0.052,0.086c0.012-0.018,0.028-0.045,0.064-0.101
		C72.688,29.877,72.688,29.878,72.682,29.884z"/>
	<path d="M72.629,29.974c-0.002,0.002-0.002,0.003-0.004,0.006c0.018-0.022,0.036-0.031,0.055-0.04
		c0.008-0.024-0.002-0.043,0.015-0.069C72.68,29.893,72.647,29.944,72.629,29.974z"/>
	<path d="M72.68,29.939c-0.079,0.245,0.254,0.385,0.422,0.454C73.061,30.337,72.854,29.861,72.68,29.939z"/>
	<path d="M72.786,30.739c0.001-0.001,0.001-0.001,0.002-0.002c0,0,0.001,0,0,0c0.091-0.099,0.162-0.156,0.226-0.195
		c0.03-0.05,0.044-0.101,0.088-0.149C72.996,30.508,72.892,30.624,72.786,30.739z"/>
	<path d="M77.069,36.227c-0.112-0.716-1.076-0.808-1.343-1.456c-0.235-0.57-0.032-1.273,0.699-0.938
		c-0.598-0.529-1.183-1.073-1.741-1.644c-0.336-0.342-0.661-0.693-0.975-1.056c-0.333-0.386-0.397-0.776-0.696-0.591
		c-0.468,0.782,0.737,1.714,1.185,2.214c1.005,1.126,1.523,2.566,2.228,3.878c-0.032-0.218-0.297-0.628-0.023-0.811
		C76.645,35.662,77.001,36.033,77.069,36.227z"/>
	<path d="M70.301,30.278c-0.001,0.015-0.002,0.019-0.002,0.026C70.3,30.291,70.301,30.278,70.301,30.278z"/>
	<path d="M70.299,30.304C70.297,30.321,70.296,30.329,70.299,30.304L70.299,30.304z"/>
	<path d="M70.301,30.278c-0.012,0.136-0.012,0.271,0,0.407C70.502,30.603,70.662,30.29,70.301,30.278z"/>
	<path d="M70.301,30.278C70.289,30.414,70.301,30.278,70.301,30.278L70.301,30.278z"/>
	<path d="M79.658,35.197c-0.008,0.005-0.007,0.004-0.019,0.01c-0.009,0.005-0.016,0.009-0.024,0.014l0,0
		c0.005-0.002,0.01-0.005,0.016-0.009c-0.004,0.002-0.012,0.007-0.016,0.009c0.012-0.017,0.027-0.03,0.032-0.053
		c-0.008,0-0.168,0.056-0.134,0.051c0.027-0.004,0.045,0.009,0.061,0.025c-0.031,0.018-0.058,0.032-0.104,0.058l0,0
		c-0.003,0.002,0,0,0,0c0.045-0.005,0.078-0.019,0.105-0.037c0.004-0.003,0.01-0.006,0.014-0.01c0,0.001,0,0.003,0.001,0.005
		c0.004-0.003,0.004-0.008,0.008-0.011c0.03-0.024,0.059-0.05,0.097-0.072l0,0c0.001,0,0.001,0,0.001,0
		C79.684,35.183,79.671,35.19,79.658,35.197z"/>
	<path d="M79.404,36.519c0.062-0.29,0.294-1.075,0.187-1.259c-0.003,0.002-0.011,0.002-0.015,0.005
		C79.216,35.569,79.377,36.072,79.404,36.519z"/>
	<path d="M79.661,35.195c-0.012,0.006-0.02,0.011-0.03,0.017c0.002-0.001,0.007-0.003,0.009-0.005
		C79.647,35.203,79.655,35.199,79.661,35.195z"/>
	<path d="M79.661,35.195c0.014-0.008,0.021-0.011,0.035-0.02C79.696,35.176,79.682,35.184,79.661,35.195z"/>
	<path d="M12.243,36.683c-0.005,0.048-0.005,0.023-0.001-0.021c-0.028,0.204-0.088,0.454,0.041,0.626
		c0.313,0.421,0.593-0.289,0.906-0.247c-0.179-0.088-0.335-0.218-0.515-0.307c-0.302-0.15-0.492,0.134-0.421-0.155
		C12.247,36.647,12.244,36.673,12.243,36.683z M12.247,36.645C12.241,36.716,12.243,36.692,12.247,36.645L12.247,36.645z"/>
	<path d="M12.241,36.662c0.004-0.027,0.009-0.057,0.011-0.082C12.247,36.593,12.244,36.629,12.241,36.662z"/>
	<path d="M12.243,36.683c0.002-0.021,0.005-0.045,0.009-0.104C12.246,36.605,12.239,36.708,12.243,36.683z"/>
	<path d="M79.112,37.57c0.03-0.243,0.225-0.61,0.086-0.848c-0.019-0.032-0.021-0.051-0.021-0.067
		C78.816,36.788,79.006,37.33,79.112,37.57z"/>
	<path d="M79.059,36.67c0.012-0.002,0.016-0.003,0.026-0.005C79.075,36.667,79.064,36.669,79.059,36.67L79.059,36.67z"/>
	<path d="M79.174,36.646c0.004-0.001,0.007-0.001,0.011-0.002c0.005-0.001,0.009-0.002,0.013-0.002
		C79.236,36.633,79.231,36.634,79.174,36.646c0.004-0.047,0.062-0.014-0.114,0.024c-0.005,0.001-0.006,0.001-0.011,0.002
		c0.004-0.001,0.008-0.001,0.011-0.002c0,0,0,0-0.001,0C79.086,36.665,79.134,36.654,79.174,36.646L79.174,36.646z"/>
	<path d="M79.059,36.67L79.059,36.67C79.038,36.675,79.033,36.676,79.059,36.67z"/>
	<path d="M79.229,36.634c0,0-0.014,0.003-0.031,0.007c-0.002,0-0.002,0-0.003,0c-0.003,0-0.007,0.001-0.01,0.002
		c-0.004,0.001-0.007,0.001-0.011,0.002l0,0c-0.021,0.004-0.054,0.011-0.089,0.019c0.02-0.004,0.05-0.011,0.089-0.019
		c0,0.002,0.003,0.007,0.003,0.01C79.195,36.649,79.208,36.639,79.229,36.634z"/>
	<path d="M76.62,37.187c-0.013-0.034-0.024-0.067-0.036-0.101l0,0C76.595,37.117,76.603,37.138,76.62,37.187z"/>
	<path d="M76.617,37.179C76.626,37.203,76.624,37.198,76.617,37.179L76.617,37.179z"/>
	<path d="M76.608,37.154c-0.008-0.021-0.016-0.043-0.024-0.068l0,0C76.595,37.115,76.603,37.137,76.608,37.154z"/>
	<path d="M76.58,37.09C76.535,37.148,76.629,37.271,76.58,37.09L76.58,37.09z"/>
	<path d="M76.608,37.154c0.004,0.011,0.007,0.018,0.009,0.025C76.615,37.174,76.611,37.163,76.608,37.154z"/>
	<path d="M76.548,36.986c0.001,0.002,0.001,0.002,0.001,0.004c-0.006-0.017-0.006-0.017,0.001,0.003
		c0.015,0.042,0.022,0.07,0.03,0.097c0.001-0.001,0.002-0.002,0.003-0.004c0.036,0.101,0.066,0.183,0.001,0l0,0
		c-0.004-0.01-0.009-0.024-0.012-0.032C76.563,37.029,76.56,37.019,76.548,36.986z"/>
	<path d="M77.592,39.41c0.336-0.254,0.771,0.047,1.113,0.087c0-0.659,0.254-1.285,0.639-1.811c-0.405,0.308-0.527-0.421-0.639-0.644
		c0.111,0.66-0.523,0.597-0.963,0.459c-0.312-0.098-0.61-0.232-0.904-0.374c-0.148-0.072-0.216-0.07-0.248-0.047
		c0.244,0.553,1.142,1.935,0.128,2.064c0.365,0.243-0.062,0.505-0.007,0.803c0.061,0.328,0.365,0.511,0.535,0.771
		c0.174-0.174,0.349-0.349,0.522-0.523c-0.295,0.024-0.735-0.08-0.699-0.468C77.459,39.961,77.364,39.582,77.592,39.41z"/>
	<path d="M76.584,37.086L76.584,37.086c-0.001-0.001-0.001-0.002-0.001-0.003C76.583,37.084,76.583,37.085,76.584,37.086
		c0.002-0.002,0.003-0.004,0.006-0.006c-0.014-0.03-0.033-0.069-0.042-0.094C76.56,37.02,76.572,37.053,76.584,37.086z"/>
	<path d="M78.061,40.426C77.938,40.472,78.061,40.426,78.061,40.426L78.061,40.426z"/>
	<path d="M79.328,42.495c-0.008-0.854-1.16-1.451-1.268-2.069c-0.115,0.059-0.231,0.118-0.347,0.177
		c0.132,0.14,0.268,0.275,0.407,0.407c-0.192-0.05-0.387-0.088-0.583-0.115c-0.051,0.733,0.455,1.33,0.572,2.028
		c0.151,0.902-0.311,1.717-0.633,2.523c-0.318-0.066-0.38-0.397-0.231-0.644c-0.682,0.336-0.04,1.1-0.093,1.62
		c-0.075,0.745-1.304,0.724-1.797,0.988c-0.462,0.247-0.964,0.955-1.074,1.458c-0.164,0.74,1.157,0.546,0.922-0.213
		c0.317,0.419,1.456-0.868,1.75-0.991c0.014,0.2,0.314,1.367,0.652,0.959c0.17-0.205,0.278-0.495,0.342-0.749
		c0.092-0.37-0.392-0.495-0.295-0.855c0.049,0.22,0.834,0.002,0.353,0.353c0.204-0.095,0.392-0.215,0.562-0.361
		c0.361-0.333,0.146-0.933,0.544-0.168c-0.247-0.684,0.338-0.4,0.177-1.167c0.354-0.021,0.314,0.421,0.291,0.644
		c0.274-0.643,0.073-1.34-0.253-1.92C78.771,43.417,79.335,43.377,79.328,42.495z"/>
	<path d="M76.462,48.251c-0.632,0.029-1.009,0.908-1.203,1.394c0.332-0.248,0.475,0.178,0.529,0.407
		c0.265-0.378,0.145-0.814,0.723-0.841C77.264,49.177,76.562,48.493,76.462,48.251z"/>
	<path d="M76.443,48.191c-0.002,0.007,0.008,0.023,0.01,0.033C76.655,48.252,76.44,48.207,76.443,48.191z"/>
	<path d="M76.454,48.225L76.454,48.225c-0.033-0.005-0.074-0.011-0.131-0.02c0.028,0.004,0.056,0.009,0.084,0.013
		C76.423,48.22,76.438,48.222,76.454,48.225C76.454,48.225,76.454,48.225,76.454,48.225z"/>
	<path d="M76.34,48.207C76.288,48.199,76.297,48.201,76.34,48.207L76.34,48.207z"/>
	<path d="M76.542,48.238c-0.029-0.004-0.059-0.009-0.088-0.014l0,0c0,0,0,0-0.001,0c-0.015-0.002-0.03-0.005-0.046-0.007
		c-0.026-0.004-0.049-0.008-0.067-0.011c0.022,0.003,0.061,0.01,0.114,0.018c0.002,0.008,0.004,0.017,0.008,0.027
		c0.046-0.002,0.091-0.011,0.14-0.004C76.602,48.248,76.575,48.244,76.542,48.238z"/>
	<polygon points="74.389,49.522 74.376,49.534 74.376,49.534 	"/>
	<path d="M74.445,49.469c-0.033,0.031-0.038,0.036-0.057,0.053C74.418,49.495,74.445,49.469,74.445,49.469z"/>
	<path d="M74.369,49.529c-0.009-0.008-0.019-0.013-0.027-0.021C74.37,49.533,74.317,49.571,74.369,49.529z"/>
	<path d="M74.445,49.469c-0.039,0.03-0.061,0.047-0.076,0.06c0.002,0.001,0.005,0.003,0.007,0.005
		C74.399,49.512,74.422,49.49,74.445,49.469z"/>
	<path d="M74.376,49.534C74.316,49.589,74.333,49.573,74.376,49.534L74.376,49.534c-0.248,0.232-0.497,0.463-0.745,0.695
		c0.075,0.082,0.165,0.146,0.25,0.216c-0.158-0.047,0.069,0.568,0.449,0.191c-0.246-0.155-0.285-0.349-0.116-0.583
		c0.245,0.295,0.137,0.858,0.168,1.209c0.038,0.413,0.576,1.186,0.47,0.134c0.029,0.217,0.067,0.432,0.116,0.645
		c0.398-0.343,0.491-1.011,0.423-1.5c-0.107-0.771-0.622-0.672-1.012-1.004c0.027-0.026,0.055-0.052,0.066-0.067
		C74.406,49.505,74.396,49.515,74.376,49.534L74.376,49.534z"/>
	<path d="M18.906,51.863C19.149,51.981,18.906,51.863,18.906,51.863L18.906,51.863z"/>
	<path d="M19.666,51.863c-0.244-0.059-0.489-0.065-0.736-0.021c0.014,0.014,0.03,0.024,0.044,0.037
		C19.205,51.974,19.435,51.977,19.666,51.863z"/>
	<path d="M19.021,51.919c-0.017-0.012-0.031-0.025-0.046-0.039c-0.003-0.001-0.006-0.001-0.009-0.002
		C18.979,51.891,18.993,51.905,19.021,51.919z"/>
	<path d="M18.965,51.878c-0.023-0.021-0.04-0.036-0.06-0.015C18.926,51.873,18.945,51.87,18.965,51.878z"/>
	<path d="M74.852,54.429c-0.118,0.114-0.23,0.234-0.346,0.352C74.759,54.861,74.786,54.581,74.852,54.429z"/>
	<path d="M74.852,54.429C74.852,54.429,74.733,54.543,74.852,54.429L74.852,54.429z"/>
	<path d="M69.334,58.998c-0.026,0.045-0.049,0.093-0.061,0.129C69.293,59.067,69.313,59.03,69.334,58.998z"/>
	<path d="M69.33,59.099c-0.629,1.21-1.099,1.694-0.021,2.859c0.148-0.803,0.553-1.574,0.451-2.41
		c-0.018-0.147-0.183-0.634-0.341-0.619c0.002-0.004,0.003-0.007,0.005-0.011c-0.002,0.005-0.003,0.006-0.005,0.011l0,0
		c0.001-0.004,0.005-0.011,0.005-0.011c-0.002,0.004-0.004,0.007-0.006,0.011c-0.02,0.002-0.038,0.017-0.058,0.036
		c0.017-0.023,0.032-0.05,0.051-0.063c-0.185,0.136-0.103,0.055-0.067,0.074c-0.003,0.005-0.007,0.017-0.011,0.022
		c0.005-0.007,0.01-0.011,0.015-0.018C69.361,58.992,69.359,59.027,69.33,59.099z M69.307,59.153
		C69.296,59.176,69.299,59.171,69.307,59.153L69.307,59.153z"/>
	<path d="M14.707,62.833C14.701,62.848,14.879,63.207,14.707,62.833L14.707,62.833z"/>
	<path d="M15.46,63.24c-0.28-0.15-0.729-0.344-0.753-0.407C14.84,63.123,15.134,63.316,15.46,63.24z"/>
	<path d="M70.743,64.885c-0.435,0.018-1.003-0.075-1.198,0.406c-0.229,0.565,0.042,1.217,0.057,1.795
		c-0.761-0.326-0.296,1.326,0.176,1.521c-0.054-0.172,0.053-0.611,0.306-0.286c0.172,0.221-0.08,0.543-0.129,0.754
		c0.33,0.111,0.51-0.14,0.777-0.261c0.382-0.174,0.649,0.254,0.912,0.437c-0.035-0.215-0.073-0.43-0.115-0.644
		c0.219,0.202,0.391,0.481,0.688,0.582c0.286,0.097,0.581-0.127,0.654,0.293c0.244-0.982-0.017-0.136-0.339-0.492
		c-0.165-0.183-0.055-0.43,0.162-0.499c-0.25-0.172-0.673-0.146-0.698,0.231c-0.106-0.344-0.887-0.53-0.699,0
		c-1.41-0.722-0.125-1.688-0.155-2.667c-0.011-0.354-0.234-0.726-0.304-1.073c-0.01-0.049-0.01-0.08-0.008-0.1
		c0.018-0.002,0.035-0.005,0.054-0.007c-0.016,0.002-0.022,0.003-0.036,0.005c0.021-0.003,0.036-0.005,0.036-0.005
		c-0.017,0.002-0.036,0.002-0.054,0.004C70.833,64.841,70.828,64.861,70.743,64.885z"/>
	<path d="M60.253,66.821c0.493-0.094,0.865-0.726,1.038-1.149c0.212-0.522-0.278-0.553-0.312-0.569
		c-0.463,0.081-0.949,0.196-1.278,0.533C59.292,66.055,59.604,66.944,60.253,66.821z"/>
	<path d="M61.021,65.096c0.018-0.003,0.034-0.006,0.052-0.009c0.068-0.012,0.139-0.024,0.205-0.035
		c-0.027,0.005-0.062,0.011-0.098,0.017c0.002,0,0.003,0,0.004-0.001c0.035-0.006,0.076-0.013,0.134-0.022
		c-0.029,0.005-0.06,0.01-0.089,0.015c0.052-0.009,0.104-0.018,0.156-0.026c-0.34,0.057-0.422,0.062-0.405,0.069
		c0.018-0.003,0.035-0.006,0.053-0.009C61.028,65.095,61.023,65.095,61.021,65.096z M61.11,65.08
		c0.042-0.007,0.068-0.012,0.097-0.017c-0.022,0.004-0.045,0.008-0.068,0.012C61.129,65.077,61.12,65.078,61.11,65.08z
		 M61.304,65.047C61.328,65.043,61.323,65.044,61.304,65.047L61.304,65.047z"/>
	<path d="M61.317,65.045c-0.013,0.002-0.027,0.005-0.04,0.007C61.3,65.048,61.317,65.045,61.317,65.045z"/>
	<path d="M73.69,69.208C73.689,69.208,73.689,69.208,73.69,69.208L73.69,69.208c-0.005,0.002-0.012,0.004-0.015,0.005l0,0
		c-0.209,0.069-0.419,0.139-0.628,0.208c0.27,0.204,0.936,1.027,0.115,0.82c0.033,0.482,0.411,0.821,0.699,1.167
		c0.102-0.376,0.03-0.754-0.099-1.112c0.207,0.021,0.413,0.042,0.62,0.061C74.233,69.904,74.115,69.481,73.69,69.208
		c0.027-0.009,0.056-0.019,0.056-0.019C73.713,69.2,73.706,69.202,73.69,69.208L73.69,69.208z M73.676,69.213
		c0.005-0.002,0.009-0.003,0.014-0.005C73.712,69.225,73.696,69.223,73.676,69.213z"/>
	<path d="M73.689,69.208C73.688,69.208,73.689,69.208,73.689,69.208C73.689,69.207,73.689,69.207,73.689,69.208
		C73.689,69.208,73.689,69.208,73.689,69.208c0.02-0.006,0.038-0.013,0.057-0.019c-0.113-0.013-0.102,0.007-0.077,0.021
		c-0.04,0.014-0.053,0.021,0.006,0.002c0,0.001,0.001,0.001,0.001,0.001C73.681,69.211,73.685,69.21,73.689,69.208z M73.686,69.204
		L73.686,69.204L73.686,69.204C73.686,69.204,73.687,69.204,73.686,69.204z"/>
	<path d="M70.77,69.994c0.136-0.955-0.742-0.254-1.053-0.628C69.883,69.466,70.673,70.671,70.77,69.994z"/>
	<path d="M69.717,69.366C69.717,69.367,69.889,69.47,69.717,69.366L69.717,69.366z"/>
	<path d="M69.717,69.366c0.027,0.017,0.033,0.02,0.047,0.027C69.74,69.38,69.717,69.366,69.717,69.366z"/>
	<path d="M69.764,69.394C69.796,69.413,69.811,69.422,69.764,69.394L69.764,69.394z"/>
	<path d="M72.871,70.126c-0.232-0.177-0.466-0.353-0.698-0.529c-0.013,0.192-0.003,0.038,0,0c-0.004,0.062-0.006,0.089-0.008,0.106
		c0.003-0.016,0.006-0.033,0.008-0.053c-0.01,0.177-0.012,0.354,0,0.53C72.33,69.9,72.667,69.905,72.871,70.126z"/>
	<path d="M72.165,69.703c-0.001,0.003-0.001,0.008-0.002,0.011C72.164,69.715,72.164,69.713,72.165,69.703z"/>
	<path d="M72.165,69.662c0.003-0.021,0.003-0.028,0.008-0.065C72.17,69.598,72.167,69.63,72.165,69.662z"/>
	<path d="M72.165,69.662c-0.007,0.057-0.007,0.075-0.002,0.052C72.162,69.712,72.163,69.692,72.165,69.662z"/>
	<path d="M71.138,70.558L71.138,70.558c0.072,0.36,0.144,0.721,0.215,1.081c0.339-0.316,0.971-0.599,0.874-1.167
		C72.125,70.562,71.289,70.646,71.138,70.558c0.006,0.025,0.009,0.043,0.012,0.056C71.146,70.598,71.143,70.578,71.138,70.558z
		 M71.151,70.622C71.156,70.649,71.155,70.645,71.151,70.622L71.151,70.622z"/>
	<path d="M71.121,70.472c0.006,0.032,0.01,0.052,0.015,0.073C71.128,70.507,71.121,70.472,71.121,70.472z"/>
	<polygon points="71.138,70.558 71.136,70.545 71.138,70.558 	"/>
	<path d="M71.121,70.472c0.006,0.028,0.012,0.058,0.017,0.086l0,0C71.133,70.529,71.127,70.5,71.121,70.472z"/>
	<path d="M71.155,70.645c-0.006-0.029-0.012-0.058-0.018-0.087c-0.01-0.006-0.025-0.01-0.029-0.018
		C71.14,70.605,71.019,70.551,71.155,70.645z"/>
	<path d="M72.951,70.648c0.01-0.033,0.02-0.065,0.035-0.116c-0.004,0.011-0.007,0.022-0.01,0.033
		C72.97,70.588,72.961,70.617,72.951,70.648z"/>
	<path d="M72.939,70.684c0.013-0.041,0.025-0.081,0.037-0.121C72.988,70.525,72.959,70.618,72.939,70.684z"/>
	<path d="M72.939,70.684c-0.154,0.514-0.305,1.029-0.476,1.538c0.155-0.425,0.42-0.799,0.535-1.242
		c0.202-0.772-0.181,0.099-0.012-0.447c-0.019,0.061-0.029,0.094-0.039,0.125c0.001-0.003,0.002-0.006,0.003-0.009
		c-0.001,0.003-0.002,0.007-0.003,0.01c-0.001,0.002-0.002,0.006-0.003,0.008c0.011-0.033,0.021-0.067,0.031-0.101
		c0.006-0.02,0.01-0.033,0.01-0.033c-0.003,0.01-0.006,0.02-0.01,0.03c-0.003,0.013-0.014,0.048-0.031,0.104
		C72.918,70.757,72.924,70.735,72.939,70.684z M72.922,70.745c0-0.001,0.001-0.002,0.001-0.003
		C72.923,70.743,72.922,70.744,72.922,70.745z"/>
	<path d="M72.537,71.645c0.006-0.136-0.189-0.639-0.268-0.636c-0.104,0.383-0.17,0.841-0.565,1.037
		c0.174,0.176,0.349,0.353,0.522,0.528C72.474,72.394,72.524,71.917,72.537,71.645z"/>
	<path d="M72.287,70.944L72.287,70.944C72.287,70.944,72.287,70.943,72.287,70.944z"/>
	<path d="M72.282,70.959c0.004-0.012,0.006-0.02,0.006-0.02C72.285,70.947,72.285,70.951,72.282,70.959z"/>
	<polygon points="72.236,71.116 72.236,71.115 72.236,71.115 	"/>
	<path d="M72.283,70.957C72.304,70.886,72.298,70.906,72.283,70.957L72.283,70.957z"/>
	<path d="M72.236,71.117c0.003-0.012,0.01-0.033,0.017-0.057c-0.006,0.02-0.009,0.031-0.017,0.055
		C72.236,71.116,72.236,71.116,72.236,71.117z"/>
	<path d="M72.253,71.058c0.001-0.002,0.002-0.005,0.003-0.007c0.004-0.014,0.008-0.027,0.012-0.041l0,0
		c0,0.001-0.001,0.002-0.001,0.002s0.001-0.001,0.001-0.002l0,0c0.006-0.02,0.011-0.037,0.016-0.053
		c-0.005,0.014-0.01,0.03-0.016,0.053c-0.019,0.004-0.031,0.029-0.031,0.105c0.004-0.013,0.008-0.025,0.012-0.039
		C72.25,71.069,72.252,71.064,72.253,71.058z M72.24,71.103c-0.001,0.003-0.001,0.004-0.002,0.007
		C72.237,71.113,72.237,71.111,72.24,71.103z M72.238,71.109c0.001-0.002,0.001-0.003,0.001-0.005
		C72.238,71.108,72.239,71.107,72.238,71.109z"/>
	<polygon points="72.253,71.061 72.257,71.045 72.253,71.058 	"/>
	<path d="M72.268,71.01c0.001,0,0.001-0.001,0.002-0.001c0.006-0.021,0.012-0.044,0.018-0.064
		C72.286,70.948,72.279,70.972,72.268,71.01z"/>
	<path d="M72.282,70.959c-0.004,0.013-0.009,0.031-0.015,0.051l0,0C72.272,70.994,72.276,70.979,72.282,70.959z"/>
	<path d="M72.268,71.01c0.011-0.038,0.018-0.062,0.02-0.065c0-0.002,0-0.003,0.001-0.005C72.281,70.963,72.274,70.986,72.268,71.01
		L72.268,71.01z"/>
	<path d="M72.257,71.045c0.004-0.012,0.008-0.025,0.011-0.035l0,0C72.265,71.02,72.261,71.033,72.257,71.045z"/>
	<path d="M68.963,71.699c0.049,0.119,0.065,0.233,0.068,0.346c0.04-0.094,0.062-0.181,0.086-0.269
		C69.079,71.771,69.033,71.752,68.963,71.699z"/>
	<path d="M69.139,71.312c0.005,0.021,0.01,0.039,0.012,0.048l0,0C69.146,71.345,69.142,71.328,69.139,71.312L69.139,71.312z"/>
	<path d="M69.15,71.357c0,0.001,0,0.002,0,0.003c0.005,0.018,0.005,0.02,0,0c0,0.001,0,0.001,0,0.002
		c0.005,0.017,0.008,0.029,0.015,0.054c-0.009-0.03-0.009-0.033-0.015-0.053c0.025,0.12,0.006,0.263-0.033,0.413
		C69.262,71.799,69.195,71.521,69.15,71.357z"/>
	<path d="M67.328,74.209c0.173-0.145,0.382-0.345,0.595-0.575C67.689,73.835,67.471,74.026,67.328,74.209z"/>
	<path d="M69.031,72.045c-0.219,0.517-0.673,1.116-1.108,1.589C68.451,73.176,69.049,72.66,69.031,72.045z"/>
	<path d="M69.15,71.347c-0.009-0.027-0.009-0.024-0.012-0.031c0.004,0.013,0.008,0.026,0.012,0.042
		C69.149,71.354,69.151,71.35,69.15,71.347z"/>
	<path d="M69.133,71.292c0.001,0.007,0.002,0.008,0.003,0.013c0,0.001,0.002,0.007,0.003,0.008
		C69.136,71.304,69.136,71.305,69.133,71.292z"/>
	<path d="M69.138,71.315c-0.001-0.004-0.001-0.006-0.002-0.011c-0.001,0-0.003-0.004-0.001,0.002
		c-0.021-0.066,0.031,0.149,0.003,0.012c0.003,0.008,0.008,0.028,0.013,0.045v-0.001C69.146,71.343,69.141,71.325,69.138,71.315z"/>
	<path d="M69.139,71.315c-0.002-0.008-0.004-0.018-0.006-0.023c0,0,0.003,0.011,0.006,0.021
		C69.139,71.313,69.139,71.314,69.139,71.315z"/>
	<path d="M74.798,72.282c0.151-0.462-0.221-0.709-0.584-0.874l0,0c-0.006-0.032-0.011-0.063-0.012-0.069
		c0.004,0.023,0.008,0.047,0.012,0.069c0.145,0.874-0.806,1.264-1.343,1.926c0.096-0.189,0.07-0.36-0.077-0.511
		c-0.316-0.241-0.61,0.271-0.764,0.438c-0.223,0.24-0.999,0.985-0.387,1.239c0.08-0.188,0.114-0.879,0.462-0.792
		c0.205,0.117,0.419,0.14,0.643,0.065c0.203-0.164,0.015-0.41,0.393-0.287c0.528,0.172-0.125,0.895,0.238,1.153
		c0.595,0.422,0.781-0.579,1.005,0.268c0.44-0.414-0.192-1.016,0.176-1.458c0.156,0.233,0.312,0.466,0.469,0.699
		C74.876,73.749,75.751,72.141,74.798,72.282z M74.235,71.534c0.003,0.02,0.005,0.029,0.009,0.054
		c-0.002-0.012-0.004-0.023-0.006-0.036C74.237,71.546,74.236,71.54,74.235,71.534z M74.221,71.452
		c0.001,0.002,0.001,0.003,0.001,0.005C74.227,71.484,74.227,71.482,74.221,71.452z M74.232,71.52
		C74.245,71.598,74.24,71.569,74.232,71.52L74.232,71.52z"/>
	<path d="M73.102,71.463C72.242,72.379,74.326,71.358,73.102,71.463L73.102,71.463z"/>
	<path d="M45.615,71.601c-0.118,0.134-0.195,0.216,0.012,0.391c0.051-0.265,0.001-0.41,0.055-0.469c-0.178,0.227-0.028,0.034,0,0
		C45.587,71.643,45.59,71.634,45.615,71.601z"/>
	<path d="M45.682,71.522c-0.014,0.01-0.047,0.051-0.066,0.078C45.637,71.575,45.658,71.552,45.682,71.522z"/>
	<path d="M34.19,72.574c0.136,0.098,0.271,0.194,0.407,0.292c-0.378-0.151-0.407,0.208-0.403,0.48
		c0.001,0.101-0.146,0.727-0.209,0.601c0.16,0.894,0.612,2.666,1.649,1.442C36.243,74.673,35.183,72.399,34.19,72.574z"/>
	<path d="M33.985,73.947c-0.009-0.054-0.019-0.104-0.026-0.151C33.963,73.883,33.973,73.924,33.985,73.947z"/>
	<path d="M71.86,74.672c0.001,0-0.402,0.006-0.332-0.002c-0.021,0.079-0.04,0.158-0.061,0.237
		C71.589,74.812,71.72,74.733,71.86,74.672z"/>
	<path d="M71.528,74.67C71.508,74.749,71.528,74.67,71.528,74.67L71.528,74.67z"/>
	<path d="M66.907,75.345c0.008-0.001,0.016-0.002,0.023,0.001c-0.003-0.008,0.002-0.017-0.003-0.024
		C66.919,75.327,66.915,75.338,66.907,75.345z"/>
	<path d="M69.078,79.69c-0.181-0.086-1.447-0.569-0.82-0.813c-0.31-0.292-0.62-0.583-0.93-0.875
		c0.214-0.036,0.426-0.076,0.638-0.122c-0.642-0.625,0.143-0.511,0.706-0.699c-0.699-0.559,0.021-0.6,0.583-0.931
		c-0.244-0.067-0.512-0.028-0.76-0.047c-0.646-0.046,0.011-0.517-0.76-0.073c0.29-0.483-0.48-1.056-0.644-0.407
		c-0.016-0.042-0.066-0.284-0.138-0.359c-0.006,0.012-0.012,0.025-0.017,0.037c-0.003,0.03-0.019,0.061-0.043,0.091
		c-0.232,0.541-0.412,1.274-1.085,1.344c0.508,0.244-0.419,0.52-0.591,0.569c-0.743,0.215-0.994,0.983-1.55,1.437
		c-0.469,0.383-1.189,0.494-1.404,1.135c-0.235,0.7-1.068,0.619-1.469,0.122c-0.305,0.327-1.367,2.099-0.062,2.103
		c-0.362-0.035,0.021,0.271-0.176,0.468c0.171-0.073,0.348-0.132,0.528-0.176c0.077,0.428,0.153,0.854,0.23,1.282
		c0.438-0.08,1.443-0.51,1.459,0.292c0.236-0.131,1.599-1.022,1.574-0.292c0.253-0.059,0.507-0.117,0.76-0.176
		c0.029,0.193,0.05,0.389,0.062,0.584c0.241-0.111,1.74-0.764,1.336-1.168c0.495,0.122,0.453-0.664,0.062-0.76
		c0.327-0.396,1.003-0.458,1.242-0.945c0.124-0.252-0.226-0.517-0.021-0.744c0.172-0.192,0.585-0.452,0.298-0.76
		C68.4,80.038,68.81,79.924,69.078,79.69z"/>
	<path d="M66.929,75.407C66.87,75.52,66.8,75.654,66.929,75.407L66.929,75.407z"/>
	<path d="M66.937,75.393c-0.025,0.048-0.051,0.097-0.076,0.146c0.019-0.016,0.022-0.031,0.034-0.047
		c0.014-0.031,0.028-0.061,0.043-0.091C66.938,75.397,66.936,75.395,66.937,75.393z"/>
	<path d="M66.954,75.363c0.008-0.016,0.015-0.033,0.022-0.049c-0.009,0.016-0.017,0.032-0.024,0.048
		C66.952,75.363,66.953,75.363,66.954,75.363z"/>
	<path d="M66.977,75.314c0,0-0.011,0.021-0.024,0.048l0,0C66.961,75.345,66.966,75.335,66.977,75.314z"/>
	<path d="M66.825,75.438c0.02-0.038,0.05-0.066,0.082-0.094C66.882,75.349,66.854,75.372,66.825,75.438z"/>
	<path d="M66.952,75.362c-0.001,0.002-0.002,0.003-0.003,0.005C66.95,75.365,66.951,75.363,66.952,75.362
		c-0.007-0.007-0.015-0.013-0.021-0.017c0.005,0.016,0.006,0.031,0.006,0.047c-0.003,0.005-0.006,0.01-0.008,0.015
		c0.002-0.005,0.005-0.011,0.008-0.015l0,0C66.941,75.383,66.946,75.372,66.952,75.362L66.952,75.362z"/>
	<path d="M46.265,76.307c0.039,0.117,0.078,0.234,0.116,0.352C46.566,76.474,46.25,76.303,46.265,76.307z"/>
	<path d="M46.271,76.323C46.279,76.348,46.288,76.377,46.271,76.323L46.271,76.323z"/>
	<path d="M77.069,76.421c-0.096,0.183-0.155,0.393-0.23,0.584C77.058,76.866,77.135,76.672,77.069,76.421z"/>
	<path d="M77.046,76.464c-0.027,0.052-0.059,0.112,0.023-0.043C77.049,76.424,76.975,76.594,77.046,76.464z"/>
	<path d="M77.042,76.473C77.029,76.498,77.025,76.505,77.042,76.473L77.042,76.473z"/>
	<path d="M77.042,76.473c0.013-0.023,0.027-0.052,0.027-0.052C77.054,76.451,77.049,76.46,77.042,76.473z"/>
	<path d="M76.602,76.89L76.602,76.89C76.643,76.797,76.662,76.754,76.602,76.89z"/>
	<path d="M76.521,77.069c0.022-0.051,0.045-0.102,0.08-0.18c-0.048,0.107-0.096,0.215-0.144,0.322
		c-0.006,0.013-0.005,0.012-0.009,0.021c-0.007,0.014-0.007,0.016-0.004,0.009c-0.041,0.091,0.086-0.193,0.155-0.35
		c0-0.001,0.001-0.001,0.001-0.002C76.602,76.89,76.562,76.979,76.521,77.069z"/>
	<path d="M77.186,77.181c-0.281,0.244-0.562,0.488-0.843,0.732c-0.021,0.497,0.144,0.966,0.666,1.255
		c-0.311-0.204-0.449-0.579-0.461-0.936c0.271-0.021,0.542-0.04,0.813-0.061c-0.198-0.066-0.393-0.144-0.583-0.231
		C77.062,77.807,77.258,77.5,77.186,77.181z"/>
	<path d="M76.311,77.94c0.011-0.009,0.021-0.019,0.032-0.027c0-0.001,0-0.003,0-0.004C76.329,77.919,76.325,77.932,76.311,77.94z"/>
	<path d="M76.602,76.89c0,0.001,0,0.001-0.001,0.002c-0.143,0.322-0.243,0.677-0.258,1.018
		C76.682,77.681,76.633,77.245,76.602,76.89z"/>
	<path d="M57.548,84.369c-0.086-0.445-0.988-1.169-1.252-0.468c0.033-0.132,0.071-0.261,0.114-0.39
		c-0.396,0.13-0.308-0.336-0.343-0.562c-0.076-0.491-0.776-0.329-1.105-0.404c0.154-0.232,0.308-0.466,0.462-0.698
		c-0.152-0.158-1.15-0.718-1.222-0.407c-0.214-0.185-0.428-0.368-0.642-0.553c-0.354-0.307-0.605-0.896-0.702-0.146
		c-0.446-0.447-0.901-0.901-1.46-1.21c-0.73-0.4-0.71-0.434-1.061-1.068c-0.281-0.51-0.872-0.657-1.407-0.713
		c-0.556-0.059-1.228-0.321-1.203,0.116c0.377,0.748,1.087,1.301,1.696,1.847c0.403,0.362,0.895,0.588,1.292,0.943
		c0.358,0.321,0.267,0.848,0.5,1.233c0.213,0.353,0.575,0.562,0.864,0.842c0.448,0.434,0.737,0.994,1.147,1.459
		c0.812,0.921,1.966,1.403,2.955,2.093c-0.09-0.47,0.895-0.145,0.99-0.061C57.285,85.616,57.67,85.006,57.548,84.369z"/>
	<path d="M47.609,77.648c0,0,0.024,0.062,0.053,0.138C47.644,77.74,47.632,77.708,47.609,77.648
		c0.023,0.062,0.047,0.123,0.071,0.185c-0.087-0.226-0.165-0.428,0.044,0.115c0.006,0.017,0.012,0.032,0.019,0.049
		c0.014,0.035,0.018,0.048,0.021,0.055c0.002,0.007,0.001,0.003,0,0.002c0.003,0.008-0.001-0.005-0.014-0.037
		c0.014,0.036,0.024,0.063,0.04,0.104c-0.04-0.104-0.058-0.187-0.062-0.254C47.691,77.793,47.639,77.728,47.609,77.648
		C47.57,77.548,47.553,77.502,47.609,77.648z M47.743,77.998c0,0.002,0.001,0.003,0.001,0.005
		C47.744,78.001,47.743,77.999,47.743,77.998z M47.697,77.879c-0.025-0.065-0.052-0.135-0.075-0.195
		C47.855,78.288,47.784,78.104,47.697,77.879z"/>
	<path d="M73.355,79.06c0.419-0.251,0.637-0.639,0.915-1.02c-0.03,0.041,0.088-0.102-0.019-0.022
		c-0.326,0.313-0.6,0.699-1.031,0.876c-0.701,0.286-1.485,0.152-2.22,0.181c-0.233,0.029-0.388,0.156-0.463,0.38
		c-0.157,0.309-0.144-0.126-0.334-0.006c-0.258,0.162-0.172,0.975-0.603,0.887c0.072,0.197,0.151,0.392,0.236,0.583
		c-0.187-0.19-1.654,2.712-0.353,2.042c-0.028,0.487-0.036,0.977-0.115,1.459c1.449-0.174,0.12-2.429,1.514-2.334
		c-0.25,0.695,0.585,0.887,0.292,1.397c0.477,0.135,0.774-0.38,1.167-0.522c-0.451-0.363-0.722-0.295-0.292-0.82
		c-0.33-0.253-0.66-0.507-0.99-0.76c0.574,0.16,0.982-0.294,1.352-0.729c0.074,0.304,0.437,0.1,0.528-0.081
		c-0.169,0.003-0.337,0.02-0.503,0.052c0.147-0.174,0.29-0.343,0.434-0.464c-0.479,0.129-1.036,0.163-1.427,0.503
		c-0.253,0.22-0.523,0.633-0.908,0.607c-0.683-0.046-0.481-1.146-0.104-1.423C71.227,79.264,72.486,79.581,73.355,79.06z"/>
	<path d="M74.141,78.109c0.059-0.053,0.085-0.072,0.111-0.092c0.026-0.025,0.051-0.053,0.078-0.077
		C74.267,77.997,74.204,78.053,74.141,78.109z"/>
	<path d="M74.291,77.976c-0.007,0.006-0.013,0.011-0.02,0.017C74.279,77.986,74.284,77.981,74.291,77.976z"/>
	<path d="M74.271,77.992c-0.025,0.023-0.054,0.049-0.075,0.067C74.212,78.046,74.237,78.023,74.271,77.992z"/>
	<path d="M74.33,77.94c0,0-0.018,0.016-0.039,0.035C74.305,77.963,74.312,77.956,74.33,77.94z"/>
	<path d="M74.196,78.06c-0.001,0.001-0.003,0.003-0.005,0.004C74.193,78.062,74.194,78.061,74.196,78.06z"/>
	<path d="M74.191,78.063C74.168,78.085,74.163,78.089,74.191,78.063L74.191,78.063z"/>
	<path d="M59.436,78.537C59.395,78.568,59.275,78.67,59.436,78.537L59.436,78.537c-0.009,0.009-0.017,0.015-0.028,0.024
		C59.415,78.555,59.422,78.549,59.436,78.537c0,0.001,0,0.002,0.001,0.002c0.006-0.005,0.009-0.01,0.016-0.015
		C59.414,78.499,59.418,78.509,59.436,78.537z"/>
	<path d="M59.437,78.539c-0.174,0.147-0.239,0.267-0.044,0.453C59.604,78.818,59.479,78.613,59.437,78.539z"/>
	<path d="M59.407,78.562C59.361,78.6,59.376,78.587,59.407,78.562L59.407,78.562z"/>
	<path d="M76.174,78.955c0.014,0.025,0.021,0.039,0.027,0.054c0.011-0.016,0.021-0.029,0.029-0.042
		C76.211,78.965,76.195,78.953,76.174,78.955z"/>
	<path d="M76.188,79.026c0.003-0.003,0.005-0.007,0.007-0.01c-0.037-0.05-0.1-0.128-0.045,0.064
		C76.163,79.062,76.176,79.045,76.188,79.026z"/>
	<path d="M76.188,79.026c-0.04,0.058-0.068,0.098,0.007-0.01c0.005,0.006,0.009,0.011,0.013,0.016
		c0.001-0.002,0.002-0.004,0.003-0.006c-0.002-0.004-0.007-0.014-0.01-0.018c0.009-0.012,0.02-0.027,0.029-0.042
		c0.003,0,0.005,0.001,0.008,0.001c0.009-0.015,0.007-0.021,0.018-0.037c0,0-0.011,0.016-0.025,0.036l0,0
		c-0.01,0.014-0.02,0.027-0.029,0.042l0,0c-0.002,0.002-0.004,0.005-0.006,0.008l0,0C76.193,79.02,76.191,79.023,76.188,79.026z"/>
	<path d="M76.208,79.032c-0.117,0.248,0.082,0.296,0.34,0.136c-0.078-0.133-0.185-0.191-0.31-0.2
		c-0.014,0.022-0.018,0.039-0.027,0.059C76.224,79.054,76.22,79.048,76.208,79.032z"/>
	<path d="M76.311,79.63c-0.059,0.098-0.118,0.194-0.177,0.292c0.2-0.013,0.395-0.051,0.584-0.116
		C76.635,79.725,76.271,79.622,76.311,79.63z"/>
	<path d="M48.015,79.866C48.015,79.87,48.326,80.008,48.015,79.866L48.015,79.866z"/>
	<path d="M48.015,79.866c0.253,0.115,0.506,0.231,0.76,0.347C48.47,79.962,48.095,79.901,48.015,79.866z M48.072,79.893
		C48.142,79.924,48.117,79.912,48.072,79.893L48.072,79.893z"/>
	<path d="M78.468,80.158c-0.091,0.021-0.182,0.04-0.272,0.061c0.069-0.016,0.114-0.025,0.157-0.035
		c0.02-0.004,0.035-0.008,0.052-0.012c-0.018,0.004-0.033,0.008-0.049,0.011c0.014-0.003,0.035-0.008,0.046-0.01
		C78.424,80.168,78.445,80.163,78.468,80.158c-0.002,0-0.004,0.001-0.006,0.001c0.001,0,0,0-0.001,0
		c-0.676,0.148-1.838,0.163-1.975,1.051c0.116-0.476,1.918-0.598,2.335-0.529C78.604,80.225,78.046,80.252,78.468,80.158z
		 M78.216,80.214c0.034-0.008,0.08-0.018,0.125-0.027C78.283,80.199,78.241,80.208,78.216,80.214z"/>
	<path d="M78.468,80.158c0,0-0.028,0.006-0.063,0.014C78.428,80.167,78.44,80.164,78.468,80.158z"/>
	<path d="M73.631,80.918c0.304-0.154,0.742-0.426,0.814-0.413C74.118,80.472,73.703,80.523,73.631,80.918z"/>
	<path d="M74.445,80.505C74.445,80.505,74.108,80.471,74.445,80.505L74.445,80.505z"/>
	<path d="M74.445,80.505C74.435,80.491,74.009,80.461,74.445,80.505L74.445,80.505z"/>
	<path d="M72.986,80.565c-0.01,0-0.019,0.003-0.027,0.003C72.961,80.587,72.967,80.6,72.986,80.565z"/>
	<path d="M72.941,80.56C72.899,80.555,72.912,80.557,72.941,80.56L72.941,80.56z"/>
	<path d="M72.959,80.562c0.011,0.001,0.011,0.001,0.027,0.003C72.986,80.565,72.974,80.564,72.959,80.562
		c-0.001-0.012-0.001-0.024-0.001-0.025c-0.003,0.008-0.009,0.016-0.013,0.023c-0.001,0-0.003,0-0.004-0.001
		c0.001,0.001,0.003,0.001,0.004,0.001c-0.001,0.003-0.003,0.007-0.005,0.01c0.006,0,0.013-0.002,0.019-0.002
		C72.959,80.565,72.959,80.564,72.959,80.562z"/>
	<path d="M49.535,80.918c-0.079,0.019-0.158,0.036-0.237,0.055c0.18,0.266,0.425,0.487,0.705,0.645
		C50.12,81.261,49.695,80.96,49.535,80.918z"/>
	<path d="M54.025,80.973c0.021,0.117,0.04,0.235,0.061,0.353C54.414,81.142,54.025,80.973,54.025,80.973
		C54.046,81.09,54.025,80.973,54.025,80.973z"/>
	<path d="M56.184,81.088c-0.019,0.007-0.023,0.008-0.031,0.011c0.004-0.001,0.009-0.003,0.013-0.004
		c-0.11,0.038-0.219,0.076-0.329,0.115C56.328,81.488,56.218,81.214,56.184,81.088z"/>
	<path d="M56.165,81.095c0.007-0.003,0.013-0.005,0.019-0.007C56.184,81.088,56.176,81.091,56.165,81.095z"/>
	<path d="M74.968,81.502c0.316,0.269,0.739,0.165,0.996-0.122c-0.163-0.132-0.393-0.19-0.41-0.198
		C75.357,81.288,75.163,81.396,74.968,81.502z"/>
	<path d="M75.559,81.145C75.545,81.141,75.54,81.141,75.559,81.145L75.559,81.145z"/>
	<path d="M75.559,81.145c0.015,0.004,0.028,0.013-0.013,0.034c0,0,0.007,0.002,0.008,0.003c0.019-0.011,0.038-0.021,0.058-0.032
		C75.578,81.147,75.568,81.146,75.559,81.145z"/>
	<path d="M56.536,82.2c-0.013-0.006-0.445-0.188-0.408-0.176C55.977,82.289,56.112,82.348,56.536,82.2z"/>
	<path d="M50.702,83.015c0.194,0.136,0.389,0.272,0.583,0.408c-0.07-0.155-0.283-0.565-0.292-0.585
		C50.896,82.896,50.799,82.956,50.702,83.015z"/>
	<path d="M50.993,82.838C50.993,82.838,50.896,82.896,50.993,82.838L50.993,82.838z"/>
	<path d="M72.394,83.112c-0.145,0.239-0.254,0.5-0.282,0.778c0.172-0.118,0.328-0.254,0.469-0.408
		C72.345,83.482,72.331,83.284,72.394,83.112z"/>
	<path d="M72.462,82.97c-0.006,0.009-0.013,0.017-0.019,0.024c0.004-0.006,0.015-0.019,0.021-0.026
		c0.014-0.017,0.011-0.014,0.037-0.046c-0.045,0.047-0.081,0.116-0.107,0.19c0.043-0.071,0.073-0.148,0.125-0.213
		C72.427,83.015,72.422,83.02,72.462,82.97z"/>
	<path d="M72.443,82.994C72.418,83.026,72.421,83.022,72.443,82.994L72.443,82.994z"/>
	<path d="M72.519,82.899C72.504,82.899,72.247,83.24,72.519,82.899L72.519,82.899z"/>
	<path d="M57.41,83.119L57.41,83.119C57.363,83.115,57.376,83.116,57.41,83.119z"/>
	<path d="M56.651,83.543c0.359-0.088,1.523,1.168,1.574,0.231c-0.19,0.031-0.787-0.444-0.815-0.645
		C57.103,83.125,56.76,83.215,56.651,83.543z"/>
	<path d="M57.5,83.128c0.01,0.001,0.015,0.002,0.026,0.003c-0.147-0.026-0.091-0.091-0.115-0.053
		c-0.007,0.011-0.001,0.027-0.001,0.041c0.011,0.001,0.023,0.003,0.041,0.004c-0.016-0.001-0.028-0.002-0.041-0.004
		c0,0.001,0,0.001,0,0.001c0.026,0.002,0.062,0.005,0.116,0.011C57.526,83.131,57.515,83.13,57.5,83.128z"/>
	<path d="M57.526,83.131c-0.011-0.001-0.022,0.001-0.033,0C57.507,83.131,57.519,83.132,57.526,83.131z"/>
	<path d="M57.41,83.124c0-0.001,0-0.003,0-0.004C57.328,83.113,57.356,83.118,57.41,83.124z"/>
	<path d="M57.493,83.131c-0.025-0.001-0.057-0.004-0.083-0.007c0,0.002-0.001,0.004,0,0.006
		C57.438,83.131,57.466,83.129,57.493,83.131z"/>
	<path d="M72.094,83.161c0.004-0.001,0.005-0.001,0.008-0.002C72.07,83.166,72.071,83.166,72.094,83.161z"/>
	<path d="M72.227,83.131c-0.024,0.006-0.073,0.017-0.11,0.025c0.013-0.003,0.032-0.008,0.058-0.014
		c-0.021,0.005-0.045,0.011-0.062,0.015c-0.006,0.001-0.014,0.003-0.019,0.004c0,0,0,0-0.001,0l0,0c-0.003,0.001-0.001,0,0,0
		c0.026-0.006,0.041,0,0.059,0.003C72.177,83.154,72.197,83.138,72.227,83.131z"/>
	<path d="M71.82,83.774c0.158-0.028,0.524-0.574,0.331-0.61C71.903,83.261,71.778,83.508,71.82,83.774z"/>
	<path d="M72.184,83.141c0.015-0.003,0.024-0.006,0.043-0.01c-0.009,0.001-0.011,0.001-0.019,0.002
		c-0.021,0.006-0.055,0.015-0.106,0.026c0.021-0.005,0.055-0.013,0.111-0.025C72.205,83.136,72.195,83.138,72.184,83.141z"/>
	<path d="M72.208,83.133C72.341,83.094,71.875,83.168,72.208,83.133L72.208,83.133z"/>
	<path d="M72.174,83.143c0.004-0.001,0.007-0.001,0.01-0.002C72.181,83.142,72.178,83.142,72.174,83.143z"/>
	<path d="M58.984,83.714c-0.017,0.001-0.014,0.005-0.002,0.009c-0.007,0.023-0.029,0.113,0,0c0,0,0,0.001,0.001,0.001
		C58.983,83.721,58.984,83.717,58.984,83.714z"/>
	<path d="M59.507,83.835c-0.028-0.01-0.458-0.085-0.523-0.111c-0.021,0.153-0.039,0.306-0.06,0.459
		C59.209,84.22,59.403,84.104,59.507,83.835z"/>
	<path d="M52.16,84.183c0.082,0.113,0.154,0.234,0.23,0.352C52.395,84.365,52.318,84.248,52.16,84.183z"/>
	<path d="M75.361,84.436c0.045-0.005,0.092-0.01,0.135-0.017C75.49,84.414,75.416,84.426,75.361,84.436z"/>
	<path d="M75.361,84.436c-0.296,0.035-0.629,0.059-0.74,0.391c0.335-0.155,0.769-0.393,0.875-0.407
		C75.248,84.46,75.285,84.45,75.361,84.436z M75.401,84.435c0.008-0.001,0.015-0.002,0.021-0.004
		C75.417,84.432,75.407,84.434,75.401,84.435z"/>
	<path d="M75.779,84.769c-1.057,0.388-2.909,0.848-3.261,2.1c0.666-0.068,1.244-0.415,1.755-0.826
		c0.312-0.251,0.604-0.524,0.905-0.787c0.237-0.207,1.185-0.701,0.141-0.316c0.156-0.058,0.312-0.115,0.469-0.173
		C76.01,84.684,75.929,84.714,75.779,84.769z M75.596,84.836c0.056-0.02,0.107-0.039,0.143-0.052
		C75.682,84.805,75.64,84.82,75.596,84.836z M75.345,84.929c0.017-0.006,0.033-0.013,0.05-0.019
		C75.326,84.936,75.293,84.947,75.345,84.929z"/>
	<path d="M74.038,85.057C74.034,85.051,73.691,85.061,74.038,85.057L74.038,85.057z"/>
	<path d="M74.038,85.057C73.771,85.06,74.038,85.057,74.038,85.057L74.038,85.057z"/>
	<path d="M73.394,85.409c0.348-0.031,0.443-0.353,0.645-0.353C73.76,85.059,73.545,85.176,73.394,85.409z"/>
	<path d="M73.394,85.294C73.296,85.332,73.394,85.294,73.394,85.294L73.394,85.294z"/>
	<path d="M73.394,85.294c-0.098,0.038-0.194,0.077-0.292,0.115C73.274,85.697,73.396,85.27,73.394,85.294z"/>
	<path d="M72.078,85.645c0.008-0.016,0.012-0.021,0.019-0.035c0.025-0.049,0.051-0.097,0.076-0.146
		c-0.029,0.056-0.044,0.084-0.067,0.127c0.037-0.07,0.067-0.127,0.067-0.127c-0.001,0.003-0.004,0.004-0.005,0.007
		c0.003-0.006,0.001-0.003,0,0c-0.514,0.956-1.841,0.512-2.621,1.045c0.597-0.022,1.238-0.214,1.803-0.392
		c0.198-0.062,0.416-0.145,0.61-0.255c-0.001,0.001-0.002,0.004-0.003,0.005c0.001-0.002,0.002-0.003,0.003-0.005
		c0.069-0.04,0.148-0.07,0.205-0.123C72.311,85.612,72.194,85.423,72.078,85.645z M71.985,85.819c0.009-0.016,0.02-0.038,0.03-0.058
		c0,0.001-0.001,0.002-0.002,0.003C72.002,85.788,71.993,85.805,71.985,85.819z"/>
	<path d="M63.887,86.713c-0.863-0.122-1.289-0.737-2.226-0.393c-0.855,0.315-1.416,0.261-2.273-0.021
		c-0.15-0.049-1.608-0.28-1.924-0.117c0.001-0.004,0.002-0.01,0.002-0.013c-0.001,0.006-0.002,0.008-0.003,0.014l0,0
		c0.002-0.008,0.003-0.014,0.003-0.014c-0.001,0.006-0.002,0.008-0.003,0.014h-0.001c0.001-0.006,0.003-0.008,0.004-0.014
		c-0.001,0.005-0.005,0.009-0.006,0.014c-0.046,0.025-0.068,0.058-0.056,0.102c-0.052-0.175-0.032,0.025,0.011,0.005
		c-0.119,0.286-0.393,0.485-0.702,0.518c0.623,0.063,0.819,0.244,1.372,0.452c0.585,0.22,1.316,0.016,1.926,0.025
		c0.762,0.013,1.522,0.135,2.285,0.108c0.917-0.032,1.84-0.232,2.754-0.057C65.051,86.672,64.343,86.777,63.887,86.713z
		 M57.454,86.221c0-0.003,0.001-0.004,0.001-0.007C57.455,86.217,57.454,86.219,57.454,86.221z M57.434,86.31
		C57.429,86.332,57.43,86.328,57.434,86.31L57.434,86.31z"/>
	<path d="M64.541,86.199c0.005,0,0.013-0.002,0.019-0.003c-0.003,0-0.006,0.001-0.009,0.002c0.008-0.002,0.017-0.004,0.024-0.005
		c0.014-0.003,0.034-0.007,0.056-0.011c-0.001,0-0.002,0.001-0.003,0.001c0.025-0.005,0.051-0.01,0.076-0.015
		c-0.061,0.012-0.121,0.022-0.182,0.034c0.001,0,0,0,0.001,0c0.009-0.002,0.019-0.004,0.027-0.005
		C64.546,86.199,64.545,86.199,64.541,86.199z"/>
	<path d="M64.596,86.255c-0.024,0.011,0.205-0.106-0.072-0.052c-0.349,0.065-0.698,0.132-1.047,0.197
		C63.861,86.434,64.237,86.411,64.596,86.255z"/>
	<path d="M64.704,86.169c-0.032,0.006-0.051,0.01-0.073,0.014C64.67,86.176,64.704,86.169,64.704,86.169z"/>
	<path d="M67.966,86.4c-0.317,0.143-0.22,0.26,0.292,0.353c-0.063-0.004-1.769,0.145-1.151,0.372
		c0.707,0.26,1.355-0.387,1.972-0.609C68.756,86.483,68.196,86.431,67.966,86.4z"/>
	<path d="M66.496,86.771c0,0,0.001,0,0.002,0c0.003-0.006,0.007-0.012,0.01-0.018C66.508,86.753,66.502,86.761,66.496,86.771z"/>
	<path d="M66.498,86.771c-0.074,0.13-0.146,0.26-0.221,0.39c0.301,0.092,0.635-0.059,0.645-0.407
		C66.952,86.756,66.568,86.784,66.498,86.771z"/>
	<path d="M66.495,86.771c0.006-0.008,0.006-0.008,0.013-0.018C66.479,86.762,66.481,86.767,66.495,86.771z"/>
	<path d="M66.496,86.771L66.496,86.771C66.452,86.831,66.477,86.797,66.496,86.771z"/>
	<path d="M65.463,86.868c0,0-0.019,0.001-0.037,0.001C65.437,86.869,65.44,86.869,65.463,86.868z"/>
	<path d="M65.463,86.868c-0.156,0.019-0.312,0.036-0.468,0.055c0.297,0.358,0.752,0.354,1.051,0
		C65.895,86.899,65.396,86.838,65.463,86.868z"/>
	<path d="M65.426,86.869C65.386,86.871,65.399,86.87,65.426,86.869L65.426,86.869z"/>
	<path d="M69.591,86.883c0.021-0.004,0.038-0.008,0.068-0.014c-0.027-0.011-0.054-0.02-0.081-0.03
		C69.62,86.855,69.612,86.871,69.591,86.883z"/>
	<path d="M69.591,86.883C69.418,86.92,69.541,86.911,69.591,86.883L69.591,86.883z"/>
	<polygon points="69.66,86.869 69.662,86.868 69.66,86.869 	"/>
	<path d="M69.659,86.869L69.659,86.869C69.618,86.869,69.35,86.973,69.659,86.869L69.659,86.869
		c0.002-0.001,0.002-0.001,0.003-0.001C69.661,86.868,69.661,86.868,69.659,86.869z"/>
	<path d="M69.66,86.869L69.66,86.869c-0.291,0.097-0.582,0.193-0.873,0.291c0.455,0.098,1.232,0.562,1.573,0
		C70.134,87.027,69.898,86.958,69.66,86.869C69.378,86.963,69.653,86.871,69.66,86.869z"/>
	<path d="M10.212,39.776c0.03-0.072,0.067-0.163,0.12-0.288c-0.021,0.049-0.034,0.082-0.051,0.123
		c-0.02,0.048-0.044,0.107-0.074,0.179c-0.071,0.171-0.124,0.298-0.002,0.006c-0.024,0.058-0.048,0.115-0.079,0.19
		c0.034-0.082,0.067-0.146,0.099-0.201c0.037-0.099,0.067-0.2,0.107-0.297C10.332,39.488,10.268,39.642,10.212,39.776z"/>
	<path d="M10.281,39.61C10.569,38.915,9.839,40.675,10.281,39.61L10.281,39.61z"/>
</g>
</svg>
