<?xml version="1.0" encoding="utf-8"?>
<!-- Generator: Adobe Illustrator 15.0.2, SVG Export Plug-In . SVG Version: 6.00 Build 0)  -->
<!DOCTYPE svg PUBLIC "-//W3C//DTD SVG 1.1//EN" "http://www.w3.org/Graphics/SVG/1.1/DTD/svg11.dtd">
<svg version="1.1" id="Ebene_1" xmlns="http://www.w3.org/2000/svg" xmlns:xlink="http://www.w3.org/1999/xlink" x="0px" y="0px"
	 width="100px" height="100px" viewBox="0 0 100 100" enable-background="new 0 0 100 100" xml:space="preserve">
<circle fill="#B2B2B2" cx="50" cy="50" r="50"/>
<path fill="#1D1D1B" d="M77.674,37.055l-3.893-2.356l-0.152-2.634c-0.146-2.547-0.216-2.662-2.105-3.456
	c-2.113-0.887-2.268-1.262-1.393-3.396c1.011-2.467,1.066-2.81,1.274-7.698c0.247-5.816,0.478-5.612-6.816-6.047
	c-2.869-0.171-9.674-0.65-15.124-1.065c-5.45-0.415-10.278-0.637-10.729-0.494c-0.708,0.226-8.76,16.167-11.665,23.096
	c-0.706,1.683-2.04,3.157-5.398,5.962c-2.454,2.049-4.541,3.974-4.638,4.278c-0.238,0.742,2.914,2.026,13.273,5.409
	c4.782,1.562,9.812,3.247,11.179,3.746s2.965,1.042,3.551,1.207c0.814,0.228,1.112,0.767,1.255,2.269
	c0.103,1.084,0.003,1.971-0.221,1.971c-0.962,0-27.469-9.142-27.75-9.57c-0.185-0.281-0.459-0.232-0.677,0.12
	c-0.559,0.904,0.112,1.312,4.961,3.015c2.459,0.863,5.59,2.073,6.956,2.689c1.366,0.614,3.602,1.479,4.968,1.92
	c9.013,2.907,8.889,2.8,9.119,7.862c0.152,3.346,0.066,3.939-0.515,3.583c-0.384-0.235-3.818-2.789-7.632-5.674
	s-8.009-5.979-9.323-6.875l-2.39-1.631l0.153,2.626l0.155,2.624l4.205,1.685c3.534,1.416,6.13,2.959,8.679,5.158
	c0.493,0.425-0.646,0.114-5.432-1.48c-4.902-1.635-6.072-2.254-5.8-3.071c0.214-0.639,0.131-0.648-0.578-0.063
	c-1.278,1.057-0.998,2.087,1.168,4.293l1.993,2.031l-1.388,1.329c-0.997,0.956-2.054,1.667-2.616,1.854l-0.183,0.903l3.017,1.533
	c1.66,0.843,3.255,1.533,3.544,1.533c0.904,0,7.21,2.677,9.154,3.886c1.02,0.634,2.074,1.018,2.343,0.851s1.34,0.132,2.38,0.662
	c1.041,0.531,2.939,1.122,4.218,1.315c1.279,0.19,2.647,0.604,3.04,0.915c0.705,0.562,1.473,5.784,0.851,5.784
	c-0.179,0-4.672-1.583-9.989-3.518c-5.316-1.935-11.062-3.993-12.77-4.572c-1.973-0.67-3.105-1.328-3.105-1.805
	c0-0.629-0.137-0.613-0.852,0.101c-0.748,0.748-0.763,0.94-0.125,1.579c0.687,0.687,26.489,10.704,27.554,10.697
	c0.274-0.002,2.51-2.178,4.971-4.834c2.459-2.657,7.05-7.519,10.205-10.804c3.154-3.284,6.693-7.089,7.866-8.454
	c1.174-1.367,2.841-2.825,3.706-3.24c1.535-0.737,1.573-0.838,1.573-4.089c0-2.896-0.147-3.438-1.12-4.116
	c-1.504-1.056-1.417-1.395,0.622-2.366l1.738-0.829v-5.413C82.971,39.836,83.365,40.501,77.674,37.055z M38.956,74.77
	c-1.34-1.213-4.513-4.176-7.051-6.584c-2.538-2.407-4.51-4.379-4.383-4.379s1.913,0.777,3.968,1.728
	c2.279,1.053,4.826,2.748,6.527,4.347c2.379,2.234,2.834,2.951,3.083,4.856l0.293,2.235L38.956,74.77z M60.459,46.126
	c-0.598-0.08-3.656-0.374-6.8-0.654v-0.001c-3.143-0.28-10.079-0.892-15.414-1.359l-9.701-0.848l0.014-3.426l0.012-3.426
	l1.988,0.279c2.027,0.284,19.635,1.947,26.827,2.534l3.976,0.324l0.092,3.36C61.541,46.1,61.49,46.261,60.459,46.126z"/>
</svg>
