<?xml version="1.0" encoding="utf-8"?>
<!-- Generator: Adobe Illustrator 15.0.2, SVG Export Plug-In . SVG Version: 6.00 Build 0)  -->
<!DOCTYPE svg PUBLIC "-//W3C//DTD SVG 1.1//EN" "http://www.w3.org/Graphics/SVG/1.1/DTD/svg11.dtd">
<svg version="1.1" id="Ebene_1" xmlns="http://www.w3.org/2000/svg" xmlns:xlink="http://www.w3.org/1999/xlink" x="0px" y="0px"
	 width="100px" height="100px" viewBox="0 0 100 100" enable-background="new 0 0 100 100" xml:space="preserve">
<circle fill="#B2B2B2" cx="50" cy="50" r="50"/>
<g>
	<path fill-rule="evenodd" clip-rule="evenodd" fill="#231F20" d="M56.469,36.246c-0.031,0.001-0.062,0.003-0.086,0.006
		c-0.026-0.145-0.106-0.211-0.214-0.269c-0.134-0.072-0.565-0.306-0.716-0.39c-0.095-0.053-0.156-0.03-0.189,0.028
		c-0.083-0.039-0.138-0.017-0.169,0.038c-0.082-0.039-0.137-0.017-0.168,0.038c-0.083-0.039-0.139-0.016-0.169,0.038
		c-0.083-0.039-0.138-0.017-0.169,0.038c-0.083-0.039-0.138-0.016-0.168,0.038c-0.084-0.039-0.139-0.017-0.169,0.037
		c-0.083-0.038-0.138-0.016-0.169,0.038c-0.083-0.039-0.139-0.016-0.168,0.038c-0.084-0.039-0.139-0.016-0.169,0.038
		c-0.083-0.039-0.138-0.016-0.169,0.038c-0.082-0.039-0.139-0.016-0.169,0.038c-0.083-0.039-0.138-0.016-0.168,0.037
		c-0.083-0.038-0.138-0.016-0.168,0.038c-0.084-0.038-0.14-0.016-0.17,0.039c-0.083-0.04-0.138-0.018-0.168,0.037
		c-0.137-0.063-0.197,0.039-0.197,0.174c0,0.07,0.001,0.215,0.001,0.346c-0.021,0.007-0.046,0.022-0.043,0.052
		C52.5,36.821,52.5,36.88,52.5,36.88l-0.068,0.022c-0.009-0.005-0.018-0.012-0.025-0.017c-0.057-0.044-0.153-0.084-0.253-0.055
		c-0.013,0.004-0.051,0.013-0.106,0.025c-0.03-0.025-0.097-0.035-0.097-0.035s0.037,0,0.033-0.062
		c-0.004-0.063-0.084-0.063-0.168-0.06c-0.083,0.004-0.066,0.151-0.091,0.164c-0.018,0.008-0.027,0.049-0.034,0.076l-0.103,0.023
		c-0.033-0.021-0.086-0.028-0.086-0.028s0.038,0,0.033-0.062c-0.004-0.064-0.084-0.064-0.167-0.059
		c-0.084,0.003-0.067,0.151-0.093,0.163c-0.015,0.006-0.024,0.037-0.029,0.064l-0.088,0.02c-0.033-0.022-0.088-0.029-0.088-0.029
		s0.037,0,0.033-0.063s-0.084-0.063-0.167-0.059c-0.084,0.004-0.067,0.151-0.092,0.163c-0.015,0.007-0.025,0.04-0.031,0.065
		l-0.093,0.021c-0.03-0.024-0.091-0.031-0.091-0.031s0.038,0,0.034-0.063s-0.084-0.063-0.168-0.059
		c-0.084,0.003-0.066,0.151-0.092,0.163c-0.016,0.008-0.025,0.041-0.031,0.067L50.3,37.253c-0.055-0.032-0.111-0.045-0.166-0.031
		c-0.006,0.001-0.013,0.003-0.019,0.005l-0.051,0.016c-0.023,0.006-0.047,0.017-0.066,0.032c-0.02-0.001-0.038,0-0.058,0.005
		c-0.006,0.001-0.013,0.003-0.019,0.005l-0.05,0.016l-0.012,0.003c-0.05-0.022-0.103-0.028-0.153-0.016
		c-0.008,0.001-0.015,0.004-0.021,0.007l-0.059,0.018c-0.073,0.019-0.132,0.073-0.17,0.152c-0.069-0.047-0.143-0.066-0.214-0.048
		c-0.007,0.001-0.015,0.003-0.022,0.006l-0.059,0.019c-0.135,0.034-0.219,0.192-0.223,0.392c-0.075,0.021-0.149,0.042-0.162,0.046
		c-0.027,0.009-0.072,0.028-0.099,0.006c-0.027-0.021-0.359-0.379-0.409-0.43c-0.05-0.05-0.116-0.123-0.184-0.11
		c-0.057,0.01-0.239,0.045-0.298,0.057c-0.006,0.001-0.012,0.002-0.019,0.004c-0.172,0.042-0.252,0.341-0.213,0.718
		c-3.406,0.007-9.211,0.021-9.402,0.026c-0.271,0.007-0.547,0.028-0.958,0.198c-0.338,0.138-0.594,0.351-0.674,0.422
		c-0.239-0.284-0.483-0.569-0.731-0.854c-5.708-6.566-11.814-10.686-13.281-9.41c-0.009,0.008-0.018,0.016-0.026,0.025l-0.711,0.646
		c-1.354,1.178,1.677,6.548,6.638,12.529c-0.106,0.05-0.188,0.087-0.21,0.097c-0.08,0.034-0.126,0.05-0.171,0.147
		c-0.018,0.04-0.371,0.666-0.795,1.408c-0.013-0.014-0.036-0.016-0.051-0.003l-0.054-0.058c-0.011-0.011-0.029-0.012-0.04-0.001
		l-0.192,0.18c-0.012,0.011-0.012,0.029-0.001,0.04l0.053,0.058l-0.025,0.024c-0.015,0.015-0.016,0.039-0.002,0.054l0.077,0.082
		c0.005,0.007,0.012,0.011,0.021,0.013c-0.589,1.039-1.219,2.147-1.231,2.172c-0.023,0.045-0.046,0.131,0.017,0.172
		c0.062,0.039,0.901,0.565,0.935,0.593c0.035,0.026,0.075,0.068,0.121,0.068h0.074c0.017,0.014,0.036,0.028,0.057,0.039
		c0.057,0.034,0.135,0.097,0.162,0.202c-0.192-0.007-0.359-0.013-0.39-0.013c-0.08,0-0.13,0-0.13,0.115
		c0,0.114,0.057,2.743,0.062,2.868c0.005,0.126,0.109,0.167,0.184,0.161c0.053-0.004,0.359,0,0.523,0.003l0.2,5.929l-0.623,1.115
		c0,0-0.103-0.009-0.264,0.339c-0.161,0.348-0.359,0.815-0.429,0.893c-0.07,0.076-0.171,0.393-0.188,0.48
		c-0.019,0.09-5.65,11.223-5.711,11.327c-0.061,0.105-0.084-0.025-0.249,0.301c-0.166,0.326-0.495,1.052-0.528,1.117
		c-0.032,0.065-0.069,0.11-0.037,0.254c0.01,0.044,0.029,0.077,0.05,0.104c-0.244,0.088-0.992,0.357-1.038,0.375
		c-0.054,0.021-0.092,0.067-0.092,0.142v0.378c0,0-0.323,0.146-0.398,0.188s-0.101,0.146-0.046,0.201
		c0.054,0.054,0.486,0.146,0.541,0.15c0.054,0.005,0.109-0.012,0.155,0c0.017,0.005,1.059,0.271,2.37,0.604l-1.21,3.24
		c0,0-0.17,0-0.293,0.297c-0.123,0.298-0.473,1.098-0.511,1.181c-0.027,0.055-0.037,0.18-0.042,0.258
		c-0.561,0.289-0.917,0.473-0.925,0.475c-0.038,0.019-0.101,0.06-0.101,0.114s0.017,0.812,0.017,0.9s-0.155,0.205-0.201,0.252
		c-0.046,0.045-0.39,0.23-0.423,0.246c-0.034,0.018-0.038,0.135-0.038,0.177c0,0.041,0.029,0.101,0.101,0.126
		c0.071,0.024,1.098,0.41,1.165,0.436s0.218,0.084,0.256,0.084h0.293c0.058,0,0.105-0.018,0.151-0.039
		c0.045-0.02,0.427-0.221,0.586-0.301s0.192-0.214,0.23-0.243c0.037-0.029,9-5.057,9.071-5.1c0.071-0.04,0.138-0.04,0.18-0.029
		c0.042,0.014,11.208,2.745,11.279,2.771c0.072,0.025,0.482,0.129,0.558,0.129c0.075,0,0.457,0.005,0.507,0.005
		c0.05,0,0.15-0.013,0.188-0.046c0.038-0.034,0.721-0.591,0.762-0.629c0.042-0.038,0.038-0.108,0.021-0.138
		c-0.017-0.029-0.083-0.15-0.101-0.185c-0.017-0.033-0.072-0.067-0.109-0.07c-0.038-0.005-0.453-0.047-0.49-0.047
		c-0.038,0-0.084-0.038-0.084-0.071c0-0.034-0.042-0.821-0.042-0.863s-0.009-0.088-0.038-0.092
		c-0.029-0.005-0.146-0.021-0.201-0.034c-0.054-0.012-0.088,0.005-0.088,0.005l-0.775-0.174c-0.003-0.044-0.009-0.09-0.021-0.107
		c-0.025-0.038-0.059-0.079-0.059-0.079s0.072-0.105-0.025-0.269c-0.096-0.163-0.984-1.655-1.039-1.722
		c-0.054-0.067-0.386-0.541-0.481-0.699c-0.097-0.16-7.86-14.26-7.886-14.306c-0.024-0.045-0.017-0.251-0.079-0.359
		c-0.042-0.072-0.341-0.604-0.556-0.984l0.02-0.031c0.631-1.019,1.713-2.338,2.955-2.519c1.839-0.268,5.727-0.097,7.001-1.608
		c0.174-0.207,0.363-0.436,0.562-0.677c0.096-0.041,0.168-0.076,0.213-0.101c0.085-0.047,0.166-0.122,0.241-0.214
		c0.417,0.057,0.749-0.008,0.976-0.205c0.01-0.009,0.018-0.017,0.027-0.024l0.71-0.646c0.336-0.291,0.421-0.848,0.284-1.61
		l0.292-0.541c0.085-0.077,0.149-0.128,0.183-0.145c0.253-0.126,0.396-0.52,0.46-0.713c0.015-0.045,0.083-0.177,0.182-0.363
		c0.098-0.185,0.224-0.415,0.352-0.651c0.254-0.472,0.521-0.977,0.589-1.183c0.13-0.399,1.203-2.387,1.333-2.548
		c0.063-0.08,0.334-0.654,0.61-1.256l0.986-1.824l0.113,0.075c0.105,0.07,0.211-0.087,0.105-0.159l-0.128-0.085l0.031-0.057
		c0.2-0.143,0.491-0.282,0.68-0.36c0.531-0.219,1.667-0.127,2.015-0.075c0.351,0.052,0.828,0.07,1.143,0.061
		c0.155-0.004,0.833-0.04,1.521-0.067c0.69-0.027,1.382-0.044,1.574-0.011c0.195,0.033,0.326,0.052,0.389,0.046
		c0.148-0.013,0.057-0.126-0.005-0.174c-0.035-0.028-0.22-0.14-0.479-0.294c1.341-0.502,2.453-2.562,1.295-3.726
		C56.749,36.306,56.681,36.238,56.469,36.246z M20.482,72.038c0.086-0.207,0.372-0.89,0.423-1.005
		c0.061-0.135,0.039-0.312,0.097-0.427l5.104-9.977l-4.365,11.705L20.482,72.038z M20.507,78.252
		c0.089-0.273,0.438-1.341,0.54-1.587c0.089-0.218,0.652-1.741,0.906-2.426l4.247,1.082C25.265,75.802,22.535,77.208,20.507,78.252z
		 M28.022,71.869c-0.05,0.102-0.876,1.346-0.914,1.405c-0.038,0.058-0.05,0.1-0.055,0.158c-0.002,0.03,0,0.1,0.002,0.158
		l-4.472-1.057c1.274-3.437,4.506-12.151,4.537-12.222c0.039-0.088,0.023-0.217,0.106-0.381c0.061-0.122,0.328-0.766,0.464-1.098
		L28.128,71.8C28.085,71.81,28.042,71.829,28.022,71.869z M49.42,39.819c0.043,0.011,0.096,0.008,0.138-0.045
		c0.087-0.11,0.21-0.347,0.21-0.347s0.045,0.033,0.076-0.027c0.031-0.062,0.114-0.228,0.135-0.255c0.021-0.028,0.3-0.312,0.373-0.43
		c0.074-0.118,0.054-0.255,0.062-0.306c0.008-0.051,0.002-0.217,0.002-0.217s0.072,0.015,0.075-0.049
		c0.001-0.026,0.003-0.07,0.006-0.111l0.437-0.127c0,0,0.571,0.347,0.625,0.381c0.054,0.034,0.14,0.044,0.209,0.04l0.035-0.003
		v0.244c0,0.071-0.028,0.146,0.048,0.186s0.583,0.336,0.679,0.393c0.097,0.056,0.144,0.06,0.197,0.039
		c0.052-0.021,0.523-0.189,0.545-0.201c0.008-0.004,0.014-0.012,0.019-0.022l0.215,0.124c0.021,0.013,0.041,0.014,0.058,0.007
		c0.26,0.151,0.601,0.35,0.946,0.551c0.301,0.177,0.604,0.355,0.859,0.506c-1.816,0.548-3.332-0.736-4.978-0.107
		c-0.288,0.11-0.582,0.166-0.897,0.296c-0.161,0.067-0.326,0.153-0.5,0.273L49.42,39.819z M37.435,38.883
		c0.264-0.153,0.472-0.219,0.78-0.212c0.226,0.005,6.256-0.042,9.434-0.066l-9.776,1.829c-0.311-0.395-0.632-0.793-0.961-1.192
		C37.053,39.136,37.271,38.979,37.435,38.883z M38.706,74.572c0.089,0.176,0.285,0.821,0.423,1.01c0,0-0.033,0.084,0.076,0.353
		c0.075,0.186,0.151,0.334,0.19,0.407l-7.434-1.666l5.229-2.896C37.354,72.08,38.624,74.407,38.706,74.572z M35.658,70.565
		l-4.722,2.415c-0.147-0.201-0.852-1.163-0.881-1.22c-0.034-0.063-0.109-0.284-0.176-0.294c-0.004,0-0.013,0-0.025,0.003
		l-0.39-12.822c0.102,0.167,0.287,0.472,0.314,0.523c0.038,0.07,0.117,0.101,0.117,0.101s0.021,0.176,0.063,0.226
		C29.997,59.545,35.208,69.688,35.658,70.565z M40.562,53.912c-1.242,1.475-5.14,1.314-6.942,1.576
		c-1.27,0.185-2.366,1.507-3.014,2.549c-0.084-0.15-0.147-0.263-0.162-0.291c-0.008-0.014-0.015-0.025-0.022-0.036
		c0.128-0.315,0.322-0.69,0.615-1.111c0.943-1.356,3.231-1.89,4.888-1.907c1.412-0.014,4.035-0.892,5.085-1.316
		C40.853,53.565,40.702,53.746,40.562,53.912z M41.137,53.219c-0.893,0.382-3.736,1.363-5.214,1.378
		c-1.661,0.018-3.994,0.55-4.965,1.948c-0.288,0.414-0.483,0.786-0.614,1.102c-0.006-0.001-0.01-0.001-0.01-0.001l-0.954-1.687
		l-0.179-5.894c0.211,0.002,0.489,0.002,0.542-0.005c0.085-0.012,0.121-0.051,0.121-0.138c0-0.085-0.052-2.693-0.052-2.806
		s-0.063-0.126-0.148-0.126h-0.429c0.026-0.106,0.086-0.292,0.183-0.319c0.137-0.039,0.188-0.034,0.228-0.114
		c0.02-0.04,0.074-0.158,0.125-0.266c0.358-0.067,1.015-0.192,1.16-0.225c0.2-0.046,0.216-0.109,0.341-0.222
		c0.114-0.104,0.37-0.374,0.416-0.422c3.935,4.16,7.648,7.026,9.685,7.508C41.293,53.027,41.215,53.124,41.137,53.219z
		 M41.363,53.113c-0.009,0.005-0.018,0.01-0.029,0.016l0.144-0.176c0.021,0.005,0.042,0.008,0.063,0.013
		C41.484,53.028,41.424,53.079,41.363,53.113z M45.615,46.87c-0.064,0.197-0.325,0.691-0.583,1.168
		c-0.127,0.237-0.253,0.468-0.352,0.651c-0.097,0.183-0.169,0.324-0.188,0.378c-0.068,0.205-0.202,0.552-0.413,0.658
		c-0.006,0.003-0.014,0.007-0.022,0.013l1.57-2.904C45.623,46.847,45.619,46.86,45.615,46.87z M48.338,40.845l-0.033-0.021
		c-0.105-0.07-0.211,0.087-0.105,0.158l0.045,0.031l-4.813,8.634c-0.684-2.154-2.589-5.388-5.315-8.9l9.734-1.749
		c0.121,0.179,0.258,0.277,0.376,0.248c0,0,0.164-0.034,0.238-0.083c0.074-0.05,0.144-0.189,0.141-0.249
		c-0.003-0.06,0.062-0.046,0.19-0.042c0.126,0.003,0.311-0.104,0.42-0.179l0.007-0.005c0.02,0.075,0.041,0.192,0.015,0.275
		c-0.04,0.13-0.166,0.342-0.215,0.422c-0.048,0.078-0.038,0.135,0.004,0.188c0.003,0.004,0.008,0.01,0.012,0.015L48.338,40.845z
		 M56.014,40.54l0.007,0.006c-0.062-0.004-0.167-0.021-0.316-0.046c-0.204-0.034-0.908-0.017-1.594,0.011
		c-0.687,0.027-1.363,0.063-1.52,0.067c-0.31,0.008-0.78-0.009-1.125-0.06c-0.346-0.052-1.507-0.149-2.065,0.082
		c-0.237,0.097-0.42,0.195-0.551,0.275l0.034-0.063c0.228-0.186,0.44-0.303,0.644-0.387c0.315-0.13,0.609-0.185,0.897-0.296
		c1.633-0.625,3.174,0.704,5.052,0.083C55.769,40.386,55.979,40.514,56.014,40.54z M55.547,40.087
		c-0.021,0.007-0.039,0.015-0.06,0.021c-0.271-0.161-0.604-0.357-0.932-0.548c-0.345-0.202-0.687-0.4-0.945-0.551
		c-0.003-0.02-0.014-0.035-0.036-0.048l-0.265-0.155c0.002-0.129,0.007-0.392,0.006-0.43c0-0.05,0.001-0.118-0.041-0.146
		c-0.028-0.021-0.172-0.115-0.3-0.202c0.115,0.028,0.209,0.051,0.229,0.051c0.054,0,0.088,0,0.088-0.1
		c0-0.021,0.003-0.037,0.008-0.049l0.033,0.015c0.136,0.061,0.271,0.115,0.326,0.022c0.074,0.021,0.136,0.018,0.169-0.036
		c0.073,0.019,0.136,0.016,0.168-0.039c0.073,0.021,0.136,0.017,0.169-0.038c0.073,0.021,0.135,0.017,0.169-0.038
		c0.073,0.021,0.136,0.018,0.168-0.037c0.074,0.019,0.136,0.017,0.169-0.038c0.073,0.02,0.136,0.017,0.169-0.038
		c0.072,0.019,0.136,0.017,0.168-0.038c0.074,0.019,0.136,0.018,0.17-0.039c0.073,0.021,0.136,0.018,0.168-0.038
		c0.073,0.02,0.136,0.018,0.168-0.037c0.074,0.02,0.136,0.017,0.17-0.038c0.073,0.02,0.135,0.018,0.168-0.038
		c0.073,0.02,0.135,0.017,0.169-0.038c0.073,0.02,0.135,0.017,0.169-0.038c0.109,0.03,0.194,0.009,0.194-0.165
		c0-0.252,0.004-0.622,0.009-0.855c0-0.011,0-0.022,0-0.033c0.204-0.031,0.269,0.004,0.43,0.167
		C57.933,37.629,56.826,39.619,55.547,40.087z"/>
	<path fill-rule="evenodd" clip-rule="evenodd" fill="#231F20" d="M78.114,79.586c-0.17-1.987-0.434-3.995-0.396-6.028
		c0.034,0,0.07,0,0.104,0c0.105,0.178-0.022,0.477,0.021,0.73c0.061,0.092,0.212,0.093,0.208,0.249
		c0.19-0.003,0.149-0.238,0.354-0.229c-0.043-1.73-0.012-3.534-0.021-5.299c-0.094-0.086-0.227-0.135-0.355-0.187
		c-0.079,0.024-0.013,0.196-0.166,0.146c-0.097-0.217-0.015-0.611-0.042-0.896c-0.149-0.039-0.325-0.051-0.397-0.167
		c-0.064,0.039-0.034,0.213-0.145,0.146c-0.086-0.124-0.066-0.352-0.084-0.544c0.228-0.029,0.45-0.064,0.688-0.083
		c-0.03-0.165-0.01-0.379-0.041-0.542c0.051-0.08,0.257-0.006,0.187-0.208c0.076,0.014,0.151,0.029,0.251,0.021
		c0.036-0.902,0.089-1.789,0.125-2.69c-0.022-0.062-0.187,0.019-0.208-0.043c0-0.166,0-0.333,0-0.5
		c-0.17-0.067-0.344-0.131-0.439-0.271c-0.13-0.012-0.22,0.016-0.334,0.021c0,0.737,0,1.474,0,2.211c-0.138,0-0.277,0-0.416,0
		c-0.254-3.916-0.607-7.653-0.855-11.515c-0.086-1.33,0.021-2.692-0.021-4.108c0.039-0.037,0.138-0.015,0.208-0.021
		c0.04-0.071,0.026-0.196,0.062-0.271c0.187,0.012,0.312-0.036,0.501-0.021c0.118,0.049,0.021,0.314,0.271,0.23
		c0.067-0.063,0.028-0.236,0.146-0.25c0.015-0.146-0.021-0.242-0.083-0.313c0-1.279,0-2.558,0-3.837
		c-0.048-0.117,0.128-0.012,0.104-0.105c0.096-0.407-0.406-0.31-0.292-0.667c-0.076,0-0.153,0-0.229,0
		c-0.087,0.003-0.014,0.167-0.084,0.188c-0.215,0-0.432,0-0.646,0c-0.016-1.415,0.029-2.767,0.021-4.172
		c0.072-0.113,0.171-0.064,0.208-0.167c0.055-0.152-0.283-0.315-0.042-0.48c-0.099-0.13-0.184-0.276-0.146-0.542
		c0.201-0.014,0.459,0.027,0.625-0.021c0.128,0.053,0.105,0.109,0.229,0.083c0.371-0.075-0.021-0.625,0.251-0.875
		c0.105,0.097,0.137,0.267,0.333,0.271c0.067-0.215,0.056-0.596,0-0.813c-0.233-0.03-0.224,0.283-0.396,0.146
		c-0.08-0.063-0.057-0.067-0.062-0.167c-0.017-0.23,0.013-0.516,0-0.73c0.176,0.037,0.228,0.25,0.396,0.354
		c0.381,0.238,0.901,0.022,1.001-0.333c0.241-0.866-1.105-1.308-1.335-0.396c-0.097-0.468-0.015-1.102-0.042-1.606
		c-0.176-0.052-0.296-0.013-0.333,0.125c-0.222,0.029-0.496,0.004-0.71,0.042c0-0.167,0-0.333,0-0.5
		c0.113-0.231,0.384-0.33,0.376-0.543c-0.007-0.18-0.219-0.168-0.229-0.292c-0.015-0.151,0.289-0.22,0.333-0.397
		c0.035-0.14-0.014-0.157-0.042-0.354c0.161,0.02,0.294,0.068,0.438,0.104c0.049-0.215,0.008-0.521,0.021-0.772
		c0.16,0.077,0.277,0.057,0.396-0.042c0-1.543,0-3.087,0-4.631c-0.138-0.142-0.304-0.062-0.417-0.02c0-0.209,0-0.418,0-0.626
		c-0.127-0.095-0.342-0.103-0.5-0.167c-0.015-0.605,0.027-1.265-0.021-1.835c-0.116,0.058-0.064,0.241-0.064,0.354
		c0,0.438,0,0.912,0,1.314c-0.164-0.074-0.144,0.146-0.229,0.083c-0.138-0.055-0.069-0.303-0.062-0.479
		c0.014-0.317-0.006-0.672,0.104-0.834c-0.129-0.316-0.033-0.856-0.062-1.273c0.037-0.09,0.111,0.119,0.208,0.105
		c0.177-0.122,0.095-0.42,0.105-0.647c0.016-0.389,0.024-0.819,0.041-1.168c0.104-0.015,0.331,0.05,0.354-0.083
		c0.034-0.189-0.181-0.035-0.188-0.208c-0.005-0.086,0.031-0.137,0.167-0.146c0.132-0.009,0.265,0.168,0.396,0.167
		c0.287-0.004,0.311-0.352,0.272-0.5c-0.03-0.114-0.193-0.337-0.355-0.334c-0.254,0.004-0.077,0.243-0.438,0.292
		c-0.092-0.406-0.028-1.016-0.021-1.46c0.032-0.036,0.066,0.029,0.083,0.041c0.11,0.078,0.312,0.151,0.48,0.147
		c0.933-0.026,0.736-1.716-0.188-1.461c-0.166,0.045-0.232,0.185-0.376,0.251c0.072-0.704-0.088-1.416-0.021-2.065
		c0.009-0.084,0.07-0.161,0.083-0.25c0.052-0.351,0-0.765,0-1.147c0-0.38,0.035-0.771-0.042-1.126
		c-0.096,0.677-0.015,1.518-0.041,2.232c-0.013,0.071-0.122,0.045-0.188,0.062c-0.014,0.647,0.027,1.349-0.021,1.961
		c-0.087,0.002-0.131-0.037-0.23-0.021c-0.014-0.445,0.028-0.946-0.021-1.356c-0.115,0.031-0.062,0.201-0.062,0.292
		c-0.007,0.376,0.004,0.786,0,1.126c0.055,0.083,0.113,0.164,0.083,0.334c-0.026,0.064-0.129,0.052-0.104,0.167
		c-0.123,0.011-0.17-0.054-0.293-0.042c-0.123,0.041-0.119,0.259-0.083,0.396c0.078,0.054,0.204,0.06,0.312,0.083
		c0,0.126-0.007,0.257,0.021,0.354c0.013,0.101,0.111-0.028,0.125,0.021c0.001,0.293,0.005,0.589-0.021,0.855
		c-0.188,0.054-0.431,0.167-0.584,0.188c-0.072-0.115,0.028-0.404-0.125-0.438c-0.093,0.038-0.089,0.206-0.104,0.313
		c-0.017,0.13-0.019,0.265-0.041,0.375c-0.116,0.009-0.213,0.038-0.167,0.209c-0.109-0.055-0.245-0.06-0.251,0.083
		c-0.8,0.014-1.566,0.061-2.377,0.062c-0.15-0.192-0.112-0.333-0.312-0.375c-0.15-0.032-0.305,0.182-0.459,0.146
		c-0.32-0.074-0.007-0.695-0.021-0.959c-0.006-0.099-0.086-0.187-0.104-0.292c-0.044-0.244-0.056-0.715,0-0.918
		c0.036-0.136,0.185-0.158,0.229-0.271c0.021-0.244-0.032-0.414-0.21-0.459c-0.014-1.147,0.029-2.351-0.02-3.463
		c-0.134-0.005-0.079,0.16-0.085,0.229c-0.046,0.723,0.036,1.503,0,2.19c0.001,0.084-0.147,0.019-0.166,0.083
		c0.013,0.348-0.027,0.751,0.021,1.064c-0.085,0.064-0.178-0.133-0.271-0.062c-0.12,0.172-0.078,0.64,0.042,0.771
		c0.115,0.04,0.135-0.126,0.187-0.083c-0.026,0.328,0.038,0.641,0,0.918c-0.015,0.116-0.099,0.22-0.104,0.313
		c-0.006,0.094,0.094,0.21,0.042,0.271c-0.117-0.022-0.067-0.211-0.125-0.292c-0.026-0.072-0.183-0.013-0.229-0.062
		c-0.022-1.288,0.064-2.577,0-3.838c0.018-0.115-0.139-0.057-0.188-0.104c0.097-0.876,0.245-1.702,0.334-2.586
		c-0.028,0-0.057,0-0.084,0c-0.053,0.434-0.123,0.917-0.188,1.397c-0.062,0.458-0.186,0.955-0.167,1.398
		c0.054,1.228,0.047,2.5,0.042,3.858c0.001,0.063-0.073,0.052-0.125,0.062c0.071,0.144,0.163,0.269,0.125,0.522
		c-0.002,0.067-0.095,0.043-0.146,0.062c0.104,0.118,0.178,0.266,0.146,0.521c0.02,0.096-0.112,0.04-0.146,0.083
		c0.123,0.105,0.145,0.314,0.125,0.562c0.007,0.071-0.091,0.035-0.125,0.063c0.101,0.128,0.151,0.307,0.125,0.563
		c-0.002,0.068-0.095,0.045-0.146,0.062c0.062,0.161,0.238,0.208,0.459,0.209c0,0.327,0,0.653,0,0.98
		c-0.062,0.027-0.166,0.014-0.229,0.042c0,0.111,0,0.223,0,0.333c-0.807-0.655-2.201-0.114-2.315,0.855c0,0.167,0,0.334,0,0.5
		c0.038,0.052,0.033,0.125,0.062,0.208c0.112,0.315,0.521,0.617,0.521,0.772c0,0.166-0.153,0.152-0.229,0.292
		c0,0.244-0.008,0.495,0.021,0.709c0.014,0.082-0.08-0.011-0.146,0.021c-0.01,0.123-0.098,0.165-0.229,0.167c0,0.125,0,0.25,0,0.375
		c0.075,1.329-0.048,2.857,0.062,4.151c0.088,0.065,0.228,0.079,0.334,0.125c-0.063,0.397,0.103,0.564,0.146,0.856
		c0.188,0.073,0.17-0.066,0.208-0.189c0.412-0.045,0.5,0.282,0.668,0.501c0.151,0.199,0.312,0.338,0.354,0.5
		c-0.13,0.031-0.245,0.076-0.354,0.125c-0.01,0.143-0.032,0.275-0.021,0.438c-0.049,0.089-0.181,0.097-0.25,0.167
		c0.01,1.275-0.037,2.494-0.021,3.775c0.11,0.091,0.292,0.111,0.438,0.168c0-0.195,0-0.39,0-0.585
		c0.048,0.036,0.147,0.021,0.188,0.063c0.059,0.22,0,0.68,0.021,1.001c0.261-0.025,0.53-0.04,0.813-0.042
		c-0.028,1.397-0.025,2.826-0.063,4.212c-0.09,0.002-0.187,0.008-0.249-0.02c-0.09-0.009-0.021-0.175-0.042-0.25
		c-0.1-0.015-0.144,0.023-0.229,0.02c-0.056,0.113-0.002,0.333-0.229,0.271c0,0.133,0,0.265,0,0.397
		c-0.003,0.036,0.163-0.042,0.188,0.02c0,0.084,0,0.167,0,0.25c-0.021,0.077-0.138,0.058-0.229,0.063
		c0.021,0.815-0.021,1.702-0.021,2.483c0,0.288,0.043,0.609,0,0.854c-0.052,0.306-0.205,0.477-0.188,0.793
		c0.036,0.662,0.562,1.003,1.043,1.377c-0.011,1.066,0.023,2.179-0.062,3.171c-0.132-0.026-0.038-0.168-0.063-0.313
		c-0.104-0.029-0.104,0.211-0.312,0.146c0.002-0.35-0.102-0.918,0.062-1.167c-0.172-0.107-0.474-0.021-0.416,0.167
		c-0.14-0.021-0.065-0.255-0.167-0.312c-0.089,0.049-0.1,0.177-0.292,0.125c0.002,0.523,0.04,0.992,0.062,1.543
		c0.021,0.485-0.035,1.039,0.146,1.251c0.025,0.414-0.014,0.892,0.334,0.981c0.003,0.08-0.016,0.183,0.042,0.208
		c0.128,0.084,0.115-0.13,0.271-0.083c0.006,0.078,0.046,0.121,0.146,0.104c-0.191,2.801-0.409,5.679-0.605,8.468
		c-0.027,0.396-0.04,0.793-0.146,1.168c0.034,1.239-0.194,2.571-0.25,3.859c-0.21,0.015-0.355-0.035-0.563-0.021
		c0-0.599,0-1.196,0-1.794c-0.133-0.01-0.176-0.028-0.208,0.083c-0.036-0.062-0.062-0.132-0.167-0.125
		c-0.112,0.048-0.08,0.24-0.313,0.166c0,1.815,0,3.63,0,5.444c-0.026,0.097,0.106,0.034,0.126,0.084c0,0.444,0.357,0.62,0.833,0.521
		c-0.257,3.763-0.508,7.528-0.75,11.306c3.261,0.049,6.612,0.007,9.908,0.021C78.439,83.57,78.286,81.585,78.114,79.586z
		 M76.802,35.658c-0.036,0.902,0.075,1.953-0.063,2.753c0.079,0.178,0.096,0.418,0.084,0.688c-0.25-0.014-0.438,0.036-0.688,0.021
		c0-0.773,0-1.543,0-2.315c0.043-0.034,0.138-0.015,0.188-0.042c-0.107-0.152-0.271-0.43-0.021-0.542
		c-0.106-0.144-0.204-0.295-0.187-0.562C76.342,35.658,76.571,35.658,76.802,35.658z M76.947,28.19
		c0.199,0.257,0.167,0.815,0.167,1.334c0,0.915,0.112,1.875,0.062,2.795c-0.003,0.046,0.047,0.191-0.062,0.188
		c-0.138,0.024-0.077-0.158-0.084-0.209c-0.068-0.549-0.042-1.276-0.042-1.875c0-0.73-0.032-1.482-0.041-2.17
		C76.947,28.232,76.947,28.211,76.947,28.19z M76.822,27.585c0.01,1.881,0.054,3.728,0.041,5.632
		c-0.141-0.012-0.211-0.095-0.354-0.104c-0.008-1.876-0.031-3.737-0.062-5.59C76.493,27.388,76.724,27.567,76.822,27.585z
		 M69.021,28.127c-0.014,0-0.027,0-0.041,0c-0.092-0.057-0.048-0.32,0.041-0.334C69.056,27.856,69.056,28.064,69.021,28.127z
		 M70.313,56.016c-0.17,0.024-0.244-0.414-0.229-0.75c0-0.021,0-0.043,0-0.063c0.078,0.047,0.164,0.086,0.229,0.146
		C70.313,55.57,70.313,55.793,70.313,56.016z M70.335,55.14c-0.027,0.087-0.127-0.089-0.208-0.084
		c-0.087-0.747-0.014-1.655-0.063-2.44c0.027-0.018,0.218,0.101,0.271,0C70.335,53.457,70.335,54.299,70.335,55.14z M70.522,54.117
		c0.018,0.095,0.062,0.452,0.021,0.605C70.443,54.591,70.564,54.329,70.522,54.117z M70.522,56.12
		c-0.051-0.261-0.005-0.783-0.021-1.147c0-0.021,0-0.042,0-0.062c0.028,0.007,0.034,0.036,0.063,0.04
		c0.022,0.198,0.011,0.456,0.021,0.688C70.593,55.811,70.683,56.046,70.522,56.12z M77.469,74.393
		c-0.13-0.079-0.237-0.181-0.376-0.251c-0.169-0.496,0.034-1.211,0-1.835C77.262,72.959,77.33,73.709,77.469,74.393z M77.469,65.632
		c0.014,0.069-0.027,0.192,0.021,0.229c-0.043,0.049-0.146,0.035-0.209,0.062c-0.07-0.082-0.139-0.167-0.21-0.25
		C77.17,65.624,77.321,65.631,77.469,65.632z M77.469,66.027c0,0.098,0,0.195,0,0.293c0.041,0.049,0.139,0.041,0.229,0.04
		c0.061,0.296-0.012,0.626,0,0.939c-0.146,0-0.254,0.038-0.396,0.042c-0.249-0.252-0.173-0.828-0.23-1.272
		C77.217,66.068,77.314,66.021,77.469,66.027z M77.052,69.073c-0.085,0.032-0.291-0.167-0.396-0.25
		c-0.045-0.541,0.001-1.092,0.041-1.606C76.834,67.816,76.934,68.454,77.052,69.073z M75.007,73.641
		c-0.01,0.191,0.01,0.352,0.021,0.522c-0.184,0.025-0.37,0.047-0.563,0.062c0-0.604,0-1.209,0-1.814
		c0.382,0.271,0.744,0.563,1.126,0.835c-0.245,0.053-0.566,0.03-0.834,0.062c0,0.083,0,0.167,0,0.25
		C74.814,73.611,74.937,73.601,75.007,73.641z M74.777,74.454c-0.071,0.145-0.184,0.248-0.271,0.376
		c-0.049-0.083-0.008-0.257-0.021-0.376C74.583,74.454,74.681,74.454,74.777,74.454z M74.444,70.429
		c0.033-0.104,0.333-0.296,0.458-0.396c0.48-0.385,1.043-0.848,1.439-1.189c-0.023,0.217,0.115,0.863,0.062,1.064
		c-0.048,0.184-0.584,0.474-0.751,0.604c-0.201,0.158-0.553,0.534-0.751,0.584c-0.147,0.037-0.385-0.03-0.479,0
		C74.474,70.876,74.372,70.654,74.444,70.429z M74.257,53.617c-0.103-0.023-0.051-0.2-0.063-0.312
		C74.306,53.317,74.238,53.51,74.257,53.617z M74.716,28.044c0.037-0.007,0.042,0.02,0.021,0.021
		c-0.147,0.242-0.345,0.434-0.501,0.667c-0.08-0.156-0.011-0.461-0.062-0.646C74.339,28.058,74.561,28.084,74.716,28.044z
		 M74.193,27.793c0.019-0.525,0.027-1.057,0.021-1.606c0.078,0.198,0.831,0.837,0.918,1.085
		C75.312,27.782,74.685,27.822,74.193,27.793z M75.361,52.74c-0.146-0.102-0.256-0.291-0.417-0.479
		c-0.121-0.144-0.369-0.317-0.396-0.48c-0.027-0.162,0.104-0.303,0.104-0.501c0.258-0.02,0.494-0.062,0.772-0.062
		C75.386,51.687,75.503,52.345,75.361,52.74z M75.842,23.456c0.149,0.393-0.069,0.812-0.083,1.23
		C75.714,24.296,75.487,23.639,75.842,23.456z M75.612,22.621c0.091,0.212,0.258,0.439,0.104,0.667
		C75.586,23.162,75.634,22.856,75.612,22.621z M74.674,66.508c-0.061,0.036-0.147,0.047-0.229,0.062c0-0.035,0-0.069,0-0.104
		C74.534,66.466,74.576,66.514,74.674,66.508z M74.527,66.277c0.093-0.053,0.22-0.072,0.354-0.083
		c-0.018,0.06,0.029,0.055,0.021,0.104C74.76,66.31,74.676,66.263,74.527,66.277z M75.445,68.052
		c0.241,0.197,0.464,0.347,0.646,0.521c0.111,0.308-0.197,0.411-0.396,0.563c-0.414,0.317-0.889,0.73-1.251,0.959
		c0.016-0.87-0.033-1.677-0.021-2.544C74.934,67.425,75.163,67.82,75.445,68.052z M74.423,67.425c0-0.098,0-0.194,0-0.291
		c0.096,0.063,0.154,0.164,0.251,0.229C74.629,67.422,74.493,67.391,74.423,67.425z M75.403,67.571c0.263-0.046,0.63-0.018,0.896,0
		c0.007,0.266,0.034,0.51,0.021,0.793C75.996,68.12,75.728,67.817,75.403,67.571z M75.132,67.363
		c-0.229-0.063-0.475-0.458-0.625-0.563c0.556-0.021,1.119-0.036,1.689-0.042c0.034,0.195,0.054,0.405,0.062,0.625
		C75.836,67.326,75.471,67.456,75.132,67.363z M75.111,65.84c-0.027-0.072,0.122-0.168,0.209-0.251
		c0.096-0.089,0.192-0.181,0.271-0.25c0.199,0.013,0.34-0.036,0.543-0.021c0.053,0.135,0.041,0.334,0.041,0.521
		C75.82,65.84,75.466,65.84,75.111,65.84z M76.196,66.049c0,0.055,0,0.11,0,0.167c-0.211-0.019-0.366-0.094-0.584-0.104
		C75.762,66.046,75.999,66.066,76.196,66.049z M76.238,60.021c-0.08-0.198-0.062-0.495-0.125-0.71
		c0.026-0.083,0.124-0.098,0.166-0.166C76.326,59.415,76.222,59.713,76.238,60.021z M76.134,65.131
		c-0.079,0.033-0.182,0.04-0.292,0.042c0.075-0.092,0.156-0.178,0.229-0.271C76.163,64.907,76.071,65.096,76.134,65.131z
		 M76.071,64.609c-0.056,0.22-0.479,0.362-0.585,0.542c-0.359-0.001-0.714-0.008-1.042-0.042c0.043-0.181,0.236-0.27,0.354-0.375
		c0.377-0.337,0.794-0.729,1.168-1.084C75.966,63.97,76.142,64.331,76.071,64.609z M75.925,54.617
		c-0.101-0.128-0.065-0.393-0.125-0.562c0.041-0.035,0.104-0.048,0.125-0.104C76.008,54.091,75.894,54.39,75.925,54.617z
		 M75.842,60.417c-0.24,0.108-0.519,0.177-0.897,0.146c-0.012-0.074,0.099-0.161,0.167-0.229c0.214-0.215,0.496-0.472,0.688-0.71
		C75.848,59.854,75.799,60.182,75.842,60.417z M75.842,60.751c0,0.055,0,0.11,0,0.167c-0.245,0.024-0.476,0.066-0.688,0.124
		c-0.057-0.026-0.061-0.105-0.125-0.124C75.279,60.842,75.567,60.803,75.842,60.751z M75.884,61.46
		c-0.008,0.537,0.124,1.129,0.041,1.605c-0.384-0.302-0.765-0.681-1.168-1.063c-0.156-0.147-0.421-0.255-0.375-0.542
		C74.882,61.46,75.383,61.46,75.884,61.46z M75.904,51.197c0.017,0.012,0.033,0.021,0.062,0.021
		c0.046,0.141,0.009,0.366,0.021,0.542C75.906,51.626,75.943,51.374,75.904,51.197z M75.925,50.342
		c0.094,0.06,0.017,0.29,0.042,0.418C75.878,50.694,75.946,50.473,75.925,50.342z M75.987,46.629
		c-0.002,0.195-0.014,0.41-0.021,0.083c-0.023-0.171-0.037-0.352-0.042-0.542c0.004-0.025-0.004-0.037-0.021-0.042
		c0.016-0.037,0.038-0.002,0.062,0C75.993,46.204,75.99,46.453,75.987,46.629z M75.653,42.917c-0.035-0.633,0.096-1.102,0.146-1.648
		c0.075,0.531,0.108,1.282,0.146,1.919C75.871,43.238,75.739,42.994,75.653,42.917z M75.862,43.855c0.046,0.22,0.019,0.547,0,0.772
		C75.694,44.501,75.633,43.957,75.862,43.855z M75.653,43.792c0-0.201,0-0.403,0-0.604C75.792,43.237,75.829,43.751,75.653,43.792z
		 M75.695,38.391c0.036,0.042,0.145,0.104,0.167,0.208c0.032,0.152-0.014,0.458-0.125,0.5
		C75.642,38.945,75.723,38.614,75.695,38.391z M75.653,37.806c0.007-0.528-0.05-1.12,0.126-1.481
		c0.084,0.507,0.11,1.071,0.104,1.669C75.839,38.059,75.715,37.86,75.653,37.806z M75.759,46.42
		c0.091,0.577,0.082,1.253,0.125,1.878c-0.15-0.051-0.192-0.211-0.293-0.313C75.566,47.383,75.723,46.961,75.759,46.42z
		 M75.695,48.339c0,0.112,0,0.223,0,0.334c-0.09-0.084-0.039-0.308-0.104-0.417C75.599,48.163,75.658,48.328,75.695,48.339z
		 M75.82,49.319c0,0.049,0,0.099,0,0.146c-0.063,0.015-0.075-0.021-0.125-0.021c-0.013-0.057,0.027-0.166-0.021-0.188
		C75.706,49.214,75.769,49.315,75.82,49.319z M75.779,51.739c0.064,0.52,0.099,1.068,0.146,1.606
		C75.528,53.052,75.731,52.275,75.779,51.739z M74.902,60.292c-0.153,0.146-0.254,0.333-0.542,0.25
		c0.062-0.304-0.039-0.581,0.042-0.813c0.054-0.156,0.444-0.474,0.584-0.605c0.269-0.254,0.477-0.426,0.667-0.625
		c0.074,0.274,0.074,0.621,0.146,0.897C75.545,59.667,75.226,59.984,74.902,60.292z M74.841,61.105
		c-0.094-0.046-0.188-0.091-0.293-0.125c0.036-0.048,0.16-0.009,0.229-0.021C74.772,61.033,74.841,61.035,74.841,61.105z
		 M74.507,51.051c-0.11-0.013-0.18,0.016-0.271,0.021c-0.031-0.245,0.063-0.359,0.292-0.293
		C74.539,50.89,74.49,50.938,74.507,51.051z M75.153,52.846c-0.047,0.064-0.185,0.038-0.188,0.145
		c-0.202-0.006-0.353,0.037-0.563,0.021c0.037-0.304,0.063-0.618,0.084-0.938C74.716,52.323,74.986,52.532,75.153,52.846z
		 M74.465,51.238c0.001,0.162-0.034,0.286-0.042,0.438c-0.077-0.132-0.216-0.2-0.188-0.438
		C74.312,51.238,74.389,51.238,74.465,51.238z M75.007,53.408c-0.181,0.084-0.42,0.108-0.625,0.166
		c0.014-0.075,0.029-0.15,0.021-0.249C74.611,53.346,74.789,53.396,75.007,53.408z M74.757,53.764
		c-0.117,0.118-0.251,0.22-0.354,0.354c-0.048-0.057-0.008-0.201-0.021-0.291C74.509,53.808,74.622,53.773,74.757,53.764z
		 M74.944,58.915c-0.218,0.209-0.355,0.403-0.542,0.501c0.003-0.859,0.003-1.714-0.021-2.545c-0.007-0.037,0.02-0.043,0.021-0.021
		c0.381,0.37,0.721,0.78,1.084,1.168C75.587,58.512,75.183,58.687,74.944,58.915z M74.423,54.431
		c0.045-0.135,0.242-0.292,0.376-0.438c0.216-0.238,0.343-0.408,0.584-0.564c0.006,0.29,0.108,0.577,0.042,0.834
		c-0.047,0.18-0.343,0.427-0.48,0.585c-0.185,0.211-0.343,0.422-0.521,0.542C74.395,55.094,74.337,54.691,74.423,54.431z
		 M74.736,50.904c-0.021-0.027-0.035-0.062-0.062-0.082c0.035-0.049,0.159-0.008,0.229-0.021c-0.001,0.036,0.017,0.055,0.042,0.063
		C74.893,50.895,74.818,50.903,74.736,50.904z M74.214,50.447c0.036-0.16,0.021-0.369,0.043-0.542
		c0.118,0.033,0.288,0.017,0.438,0.021C74.604,50.163,74.498,50.468,74.214,50.447z M74.402,47.734
		c0.091,0.132,0.01,0.436,0.062,0.605C74.341,48.241,74.429,47.931,74.402,47.734z M74.465,49.237
		c0.015,0.104-0.019,0.16-0.021,0.249c-0.07,0-0.139,0-0.209,0c-0.014-0.07,0.026-0.193-0.021-0.229
		C74.257,49.209,74.388,49.25,74.465,49.237z M74.652,49.341c-0.016-0.127,0.058-0.165,0.188-0.146c0,0.049,0,0.098,0,0.146
		C74.777,49.341,74.716,49.341,74.652,49.341z M74.444,45.106c0-0.056,0-0.111,0-0.167c0.114-0.011,0.196,0.013,0.292,0.021
		C74.644,45.015,74.609,45.125,74.444,45.106z M74.507,46.149c-0.018,0.137-0.048,0.259-0.042,0.417
		c-0.073-0.087-0.053-0.268-0.062-0.417C74.438,46.149,74.472,46.149,74.507,46.149z M74.257,44.126
		c-0.049-0.813-0.007-1.717-0.021-2.565c-0.006-0.038,0.02-0.043,0.021-0.021c0.328,0.319,0.623,0.67,0.938,1.001
		c0.123,0.502-0.244,0.731-0.459,1.001C74.557,43.767,74.432,43.977,74.257,44.126z M74.777,41.728
		c-0.184-0.205-0.409-0.396-0.542-0.647c0.018,0.004,0.02-0.008,0.021-0.021c0.312-0.095,0.815-0.023,1.168-0.021
		c-0.014,0.411,0.027,0.875-0.021,1.252C75.114,42.207,74.958,41.928,74.777,41.728z M74.318,36.533
		c0.058,0.04,0.106,0.088,0.146,0.146c-0.012,0.393,0.048,0.854-0.104,1.106C74.278,37.437,74.336,36.947,74.318,36.533z
		 M74.36,29.963c0.111,0.014,0.278-0.027,0.355,0.021C74.719,30.085,74.329,30.093,74.36,29.963z M75.236,30.359
		c-0.154,0.074-0.328,0.186-0.521,0.104c0.014-0.077-0.036-0.089-0.021-0.167C74.9,30.235,75.049,30.34,75.236,30.359z
		 M74.568,30.547c-0.044,0.064-0.117-0.02-0.187,0c-0.03-0.128-0.03-0.275,0.041-0.354C74.5,30.283,74.5,30.449,74.568,30.547z
		 M75.195,30.839c0.098,0.306,0.049,0.757,0.062,1.147c-0.053,0.031-0.173-0.123-0.25-0.209c-0.082-0.092-0.17-0.183-0.25-0.27
		c-0.163-0.181-0.38-0.37-0.417-0.626C74.609,30.853,74.934,30.877,75.195,30.839z M74.924,33.76c0.105-0.064,0.247,0.016,0.375,0
		c-0.009,0.283-0.079,0.505-0.375,0.5C74.911,34.095,74.94,33.861,74.924,33.76z M75.216,38.015c0.043,0.3-0.026,0.669,0,1.021
		c-0.114,0.004-0.225,0.003-0.313-0.02C74.562,38.601,75.061,38.322,75.216,38.015z M74.757,36.951
		c0.172,0.247,0.509,0.407,0.438,0.793c-0.043,0.228-0.307,0.337-0.376,0.562C74.776,37.876,74.775,37.405,74.757,36.951z
		 M75.195,35.991c0.049,0.341,0.007,0.772,0.021,1.147c-0.143-0.135-0.236-0.319-0.375-0.459
		C74.951,36.443,75.096,36.24,75.195,35.991z M74.486,33.384c-0.051-0.071-0.002-0.267-0.104-0.334
		c-0.035-0.493-0.017-1.039-0.021-1.564c0.267,0.29,0.561,0.552,0.814,0.855c0.082,0.385-0.132,0.543-0.313,0.751
		C74.744,33.226,74.614,33.475,74.486,33.384z M74.736,34.323c-0.113-0.016-0.17,0.025-0.271,0.021c0-0.188,0-0.376,0-0.563
		c0.083,0,0.168,0,0.251,0C74.74,33.942,74.737,34.134,74.736,34.323z M74.902,33.467c0.031-0.275,0.255-0.358,0.354-0.562
		c0.038,0.163,0.019,0.384,0.042,0.562C75.168,33.467,75.035,33.467,74.902,33.467z M74.986,30.151
		c0.099-0.082,0.235-0.127,0.334-0.208c0.097,0.043-0.011,0.218,0,0.313C75.225,30.206,75.082,30.201,74.986,30.151z M74.861,29.734
		c0.052-0.2,0.312-0.37,0.417-0.585c0.046,0.149,0.043,0.346,0.042,0.543C75.173,29.701,75.006,29.79,74.861,29.734z M74.548,29.816
		c-0.057,0.014-0.165-0.026-0.188,0.021c-0.034-0.202-0.015-0.53,0.042-0.709c0.26,0.01,0.489-0.011,0.729-0.021
		C74.96,29.366,74.737,29.574,74.548,29.816z M74.235,53.074c-0.084-0.355,0.016-0.888-0.021-1.335
		c0.068,0.051,0.101,0.138,0.168,0.188C74.317,52.295,74.304,52.711,74.235,53.074z M74.652,61.167
		c-0.041,0.085-0.173,0.077-0.271,0.104c0.009-0.071-0.009-0.116-0.021-0.166C74.451,61.132,74.534,61.168,74.652,61.167z
		 M74.382,61.939c0.459,0.403,0.92,0.805,1.355,1.23c-0.035,0.129,0.075,0.284,0.042,0.417c-0.048,0.189-0.564,0.499-0.709,0.626
		c-0.284,0.247-0.468,0.463-0.688,0.584C74.382,63.845,74.382,62.892,74.382,61.939z M74.402,65.36
		c0.306,0.006,0.562-0.037,0.876-0.021c0.017,0.07-0.134,0.188-0.229,0.271c-0.105,0.093-0.228,0.178-0.312,0.251
		c-0.111,0-0.223,0-0.334,0C74.402,65.694,74.402,65.527,74.402,65.36z M75.842,71.347c0.185-0.072,0.436-0.079,0.667-0.104
		c-0.002,0.086-0.004,0.171,0.021,0.229C76.286,71.445,76.087,71.372,75.842,71.347z M76.175,71.597
		c-0.126,0.091-0.358,0.072-0.5,0.146c-0.106-0.054-0.157-0.162-0.271-0.209C75.625,71.508,75.903,71.604,76.175,71.597z
		 M75.216,71.138c0.397-0.332,0.816-0.644,1.21-0.98c0.062,0.287,0.043,0.653,0.083,0.96C76.071,71.117,75.668,71.152,75.216,71.138
		z M76.468,64.567c0.021-0.088,0.135-0.088,0.166-0.167c0.075,0.168-0.04,0.5-0.041,0.73C76.532,64.962,76.517,64.749,76.468,64.567
		z M76.447,64.275c-0.048-0.112-0.055-0.267-0.064-0.417c0.08,0.094,0.161,0.188,0.21,0.312
		C76.527,64.188,76.478,64.223,76.447,64.275z M74.986,71.43c0.123,0.044,0.165,0.169,0.271,0.229c-0.146,0-0.382-0.09-0.562-0.125
		C74.781,71.489,74.898,71.475,74.986,71.43z M76.529,71.993c0.047,0.579,0.11,1.142,0.188,1.69
		c-0.668-0.501-1.493-1.135-2.106-1.69C75.251,71.993,75.891,71.993,76.529,71.993z M76.802,71.389
		c0.049-0.055,0.107,0.058,0.166,0.062c0.016,0.154-0.052,0.227-0.041,0.375C76.824,71.74,76.871,71.506,76.802,71.389z
		 M76.843,76.207c-0.096,0.028-0.141-0.113-0.209-0.188c-0.208-0.229-0.484-0.495-0.688-0.73c0.235-0.33,0.491-0.636,0.71-0.98
		C76.768,74.891,76.774,75.58,76.843,76.207z M76.802,71.138c-0.01-0.164-0.032-0.315-0.021-0.501
		c0.078,0.173,0.106,0.395,0.188,0.563C76.938,71.235,76.854,71.15,76.802,71.138z M76.78,69.532
		c-0.046-0.121-0.06-0.274-0.084-0.418c0.02,0.017,0.048,0.023,0.084,0.021C76.78,69.268,76.78,69.4,76.78,69.532z M75.529,74.434
		c0.031-0.245,0.034-0.521,0.041-0.793c0.1,0.017,0.134-0.032,0.229-0.021c0.007-0.048,0.032-0.078,0.021-0.146
		c0.241,0.135,0.462,0.289,0.688,0.438c0.054,0.394-0.164,0.563-0.334,0.792c-0.119,0.162-0.239,0.304-0.333,0.458
		c-0.211-0.241-0.437-0.467-0.626-0.729C75.32,74.434,75.425,74.434,75.529,74.434z M76.696,76.332
		c-0.346,0.005-0.645-0.037-1.001-0.021c-0.062-0.098-0.168-0.15-0.354-0.125c0.152-0.278,0.345-0.518,0.501-0.792
		C76.142,75.677,76.479,76.034,76.696,76.332z M76.843,76.437c-0.001,0.202,0.036,0.368,0.021,0.584
		c-0.388,0.013-0.715-0.036-1.104-0.021c0.015-0.204-0.034-0.342-0.021-0.542C76.105,76.449,76.456,76.425,76.843,76.437z
		 M76.05,77.208c0.304,0.005,0.567-0.03,0.855-0.041c0.035,0.36,0.035,0.757,0.083,1.104C76.7,77.989,76.293,77.536,76.05,77.208z
		 M76.802,78.501c-0.296,0.045-0.642-0.04-0.981-0.021c-0.005-0.397-0.022-0.785-0.041-1.169
		C76.14,77.688,76.454,78.112,76.802,78.501z M76.988,69.928c0.073,0.139-0.009,0.477,0,0.688
		C76.96,70.398,76.758,70.035,76.988,69.928z M76.426,60.334c0.041,0.126,0.043,0.471,0.062,0.688
		C76.337,60.858,76.416,60.596,76.426,60.334z M76.718,63.941c-0.075,0.031-0.121-0.107-0.188-0.188
		c-0.067-0.081-0.177-0.154-0.208-0.25c-0.159-0.492,0.095-1.324,0.021-1.878C76.487,62.379,76.592,63.171,76.718,63.941z
		 M76.113,45.545c-0.008-0.085,0.13-0.024,0.187-0.042c0.039-0.059,0.012-0.183,0.063-0.229c0.146,0,0.257-0.035,0.417-0.021
		c-0.015,1.259,0.021,2.468,0.021,3.712c-0.243,0.002-0.441,0.046-0.688,0.042C76.113,47.853,76.113,46.698,76.113,45.545z
		 M76.279,28.565c0,0.636,0.021,1.286,0.021,1.939c0,0.867,0.062,1.755-0.021,2.545c-0.186,0.014-0.144-0.186-0.146-0.333
		c-0.023-1.435-0.026-3.174-0.021-4.694c-0.002-0.029-0.004-0.059,0.021-0.062c0.028,0,0.056,0,0.083,0
		C76.331,28.088,76.279,28.341,76.279,28.565z M76.092,27.356c0.05,0.013,0.096,0.03,0.167,0.021
		c0.005,0.102-0.037,0.158-0.021,0.271c-0.054,0.009-0.097,0.029-0.125,0.063C76.064,27.633,76.105,27.467,76.092,27.356z
		 M76.321,58.623c-0.111-0.083-0.243-0.147-0.334-0.25c-0.005-0.541,0.007-1.064,0.042-1.565
		C76.144,57.396,76.216,58.026,76.321,58.623z M76.217,24.06c-0.115-0.083-0.056-0.274-0.062-0.417
		c-0.01-0.218-0.036-0.456-0.021-0.668c-0.012-0.046,0.039-0.029,0.041-0.062C76.271,23.212,76.189,23.691,76.217,24.06z
		 M75.612,21.787c0.201-0.077,0.42-0.136,0.604-0.229c0,0.25,0.08,0.549,0,0.75c-0.063,0.162-0.257,0.176-0.333,0.292
		C75.652,22.469,75.571,22.189,75.612,21.787z M75.759,26c0.057,0.514,0.057,1.083,0.104,1.606c-0.081,0.045-0.103,0.147-0.25,0.125
		C75.503,27.104,75.643,26.522,75.759,26z M75.612,56.202c0.018,0.566,0.068,1.101,0.083,1.67c-0.079,0.044-0.103-0.079-0.146-0.125
		c-0.354-0.378-0.798-0.815-1.147-1.21c-0.007-0.132,0.003-0.247,0.021-0.354C74.843,56.167,75.205,56.208,75.612,56.202z
		 M75.529,55.327c-0.268,0.025-0.55,0.034-0.813,0.062c-0.033-0.082,0.085-0.159,0.146-0.229c0.187-0.216,0.428-0.479,0.604-0.709
		C75.51,54.72,75.513,55.031,75.529,55.327z M75.028,50.321c-0.031,0.018-0.045,0.052-0.042,0.104
		c-0.105-0.001-0.172,0.036-0.292,0.021c0.053-0.169,0.155-0.29,0.208-0.459c0.189,0,0.313-0.064,0.501-0.063
		c0.017,0.164,0.062,0.299,0.062,0.479C75.327,50.37,75.173,50.35,75.028,50.321z M75.111,46.233
		c0.062,0.042,0.197,0.011,0.292,0.02c-0.014,0.425,0.026,0.903-0.021,1.294c-0.032,0.028-0.265-0.155-0.292-0.271
		C75.026,47.005,75.181,46.552,75.111,46.233z M75.111,48.193c-0.049-0.146-0.007-0.382-0.021-0.563
		C75.191,47.729,75.209,48.085,75.111,48.193z M75.403,48.235c0,0.161,0,0.321,0,0.48c-0.108-0.044-0.205-0.101-0.333-0.125
		C75.053,48.407,75.193,48.19,75.403,48.235z M75.278,49.299c-0.033,0.052-0.146,0.008-0.188,0c0-0.027,0-0.056,0-0.083
		c0.024-0.024,0.073-0.024,0.125-0.021C75.24,49.227,75.242,49.28,75.278,49.299z M75.425,45.106
		c-0.221-0.011-0.403,0.015-0.605,0.021c0.04-0.239,0.336-0.221,0.626-0.208C75.46,45.002,75.426,45.038,75.425,45.106z
		 M75.403,44.126c-0.051,0.186-0.273,0.257-0.333,0.376c-0.246-0.014-0.533,0.088-0.647-0.083c-0.053-0.358,0.214-0.502,0.418-0.751
		c0.189-0.232,0.314-0.438,0.458-0.584c0.021,0,0.042,0,0.062,0C75.375,43.374,75.487,43.818,75.403,44.126z M75.425,37.263
		c-0.171-0.019-0.089-0.207-0.084-0.333c0.01-0.253-0.008-0.594,0-0.835c-0.011-0.046,0.04-0.029,0.042-0.062
		C75.479,36.36,75.397,36.867,75.425,37.263z M75.383,28.044c0,0.222,0,0.444,0,0.667c-0.336-0.015-0.616,0.024-0.938,0.021
		c-0.016-0.098,0.155-0.222,0.25-0.333c0.104-0.122,0.191-0.266,0.292-0.354C75.119,28.044,75.251,28.044,75.383,28.044z
		 M75.216,27.773c0.029-0.054,0.07-0.097,0.104-0.146c0.036,0.019,0.046,0.065,0.041,0.125
		C75.335,27.781,75.271,27.773,75.216,27.773z M75.341,25.875c0.038,0.365,0.015,0.755,0,1.126
		c-0.354-0.356-0.726-0.804-1.001-1.169C74.653,25.825,75.137,25.677,75.341,25.875z M74.423,23.789
		c0.255,0.002,0.48,0.034,0.752,0.021c0.055,0.287-0.215,0.406-0.334,0.584c-0.185,0.025-0.274-0.046-0.396-0.083
		C74.45,24.124,74.407,23.986,74.423,23.789z M75.216,23.643c-0.214,0.019-0.567-0.002-0.813-0.021
		c0.002-0.393,0.372-0.438,0.772-0.376C75.177,23.39,75.184,23.529,75.216,23.643z M74.444,22.392
		c0.245,0.009,0.465-0.008,0.688-0.021c-0.008,0.258,0.054,0.448,0.043,0.709c-0.265,0-0.529,0-0.793,0
		C74.339,22.828,74.275,22.533,74.444,22.392z M72.357,25.812c-0.184,0.254-0.409,0.466-0.584,0.729
		c-0.049-0.181-0.007-0.451-0.02-0.667C71.947,25.847,72.153,25.831,72.357,25.812z M71.94,22.559c0.152-0.01,0.229,0.034,0.355,0
		c-0.006,0.334-0.047,0.634-0.042,0.98C72.072,23.289,71.868,23.061,71.94,22.559z M71.754,23.58c0.341,0.139,0.565,0.394,0.5,0.939
		c-0.102,0.002-0.22-0.011-0.292,0.021C71.757,24.354,71.724,24,71.754,23.58z M72.024,30.13c-0.111,0.178-0.292,0.162-0.521,0.104
		C71.513,29.999,71.823,30.183,72.024,30.13z M73.025,77.959c-0.083,0.032-0.094-0.086-0.124-0.125
		c-0.693-0.858-1.411-1.843-2.087-2.732c0.016-0.172,0.049-0.328,0.041-0.521c0.699-0.609,1.47-1.146,2.17-1.753
		C73.08,74.509,72.996,76.232,73.025,77.959z M70.544,76.311c-0.009-0.308,0.036-0.561,0.021-0.875
		c0.226,0.268,0.407,0.579,0.625,0.854C71.017,76.339,70.752,76.298,70.544,76.311z M71.148,76.52
		c-0.165,0.322-0.457,0.517-0.647,0.813c-0.055-0.264,0.047-0.553,0.021-0.854C70.749,76.474,70.965,76.48,71.148,76.52z
		 M70.586,71.18c-0.042,0-0.085,0-0.126,0c0.024-0.163,0.08-0.296,0.104-0.458C70.613,70.832,70.571,71.034,70.586,71.18z
		 M70.544,71.347c-0.003,0.061,0.011,0.137-0.021,0.167c-0.102-0.009-0.244,0.021-0.312-0.021c0-0.034,0-0.069,0-0.104
		C70.306,71.359,70.428,71.356,70.544,71.347z M70.377,71.951c0.05,0.033,0.092,0.075,0.124,0.126
		c-0.022,0.206-0.023,0.546-0.062,0.667c-0.016-0.248-0.033-0.495-0.062-0.73C70.377,71.993,70.377,71.973,70.377,71.951z
		 M70.46,77.709c0.043-0.154,0.318-0.403,0.459-0.563c0.205-0.236,0.376-0.403,0.521-0.584c0.179,0.238,0.344,0.49,0.521,0.73
		c-0.365,0.496-0.781,0.943-1.168,1.417c-0.128,0.033-0.269,0.053-0.396,0.085C70.496,78.404,70.367,78.036,70.46,77.709z
		 M71.253,78.459c0.255-0.313,0.558-0.694,0.813-1.021c0.315,0.289,0.529,0.68,0.813,1.001c0,0.104,0,0.209,0,0.312
		c-0.612,0-1.224,0-1.836,0C71.026,78.662,71.164,78.568,71.253,78.459z M73.025,72.557c-0.04,0.149-0.44,0.386-0.584,0.5
		c-0.585,0.469-1.238,1.005-1.794,1.419c0.104-0.406-0.064-0.81,0.042-1.147c0.03-0.094,0.275-0.243,0.396-0.333
		c0.433-0.325,0.938-0.708,1.313-0.981c0.202,0,0.403,0,0.605,0C72.952,72.173,73.071,72.39,73.025,72.557z M71.295,62.732
		c0.066-0.198,0.426-0.43,0.604-0.605c0.257-0.252,0.457-0.447,0.646-0.626c0.065,0.324,0.041,0.737,0.062,1.106
		c-0.3,0.013-0.664-0.039-0.876,0.062c-0.07,0.085,0.087,0.084,0.062,0.188c0,0.188,0,0.375,0,0.563
		c-0.176,0.178-0.387,0.433-0.563,0.541C71.338,63.529,71.176,63.087,71.295,62.732z M71.189,28.983
		c0.045,0.192,0.106,0.658,0.105,0.896c-0.028,0-0.057,0-0.084,0C71.124,29.666,71.228,29.286,71.189,28.983z M72.796,30.401
		c-0.148,0.27-0.58,0.051-0.855,0.021C72.214,30.3,72.578,30.14,72.796,30.401z M71.816,29.901c0-0.264,0-0.528,0-0.793
		c0.488-0.095,0.596,0.134,0.792,0.375c0.124,0.152,0.246,0.284,0.293,0.396C72.562,29.91,72.184,29.899,71.816,29.901z
		 M72.379,30.901c-0.181,0.25-0.396,0.467-0.584,0.709c-0.049-0.188-0.007-0.466-0.021-0.688
		C71.99,30.931,72.154,30.885,72.379,30.901z M71.795,31.882c0.035-0.141,0.249-0.32,0.376-0.479
		c0.164-0.208,0.282-0.384,0.416-0.522c0.14,0,0.278,0,0.418,0c0,0.258,0,0.515,0,0.771c-0.258,0.388-0.597,0.755-0.897,1.126
		c-0.092,0.114-0.156,0.293-0.312,0.313C71.818,32.665,71.701,32.25,71.795,31.882z M72.733,38.14
		c-0.061,0.079-0.015,0.263-0.188,0.229c-0.04-0.232-0.021-0.536,0-0.772c0.126-0.124,0.245-0.255,0.355-0.396
		c0.046,0.343,0.047,0.731,0.062,1.105C72.875,38.263,72.807,38.198,72.733,38.14z M72.942,38.494c0,0.167,0,0.334,0,0.5
		c-0.061,0.005-0.064-0.047-0.126-0.042c0-0.146,0-0.292,0-0.438C72.881,38.53,72.878,38.479,72.942,38.494z M72.629,39.204
		c-0.091-0.01-0.077-0.179-0.083-0.272c-0.008-0.135-0.009-0.283,0.021-0.375c0.033-0.002,0.08,0.01,0.084-0.021
		C72.735,38.687,72.688,39.059,72.629,39.204z M72.525,37.451c-0.063-0.446,0.028-0.917,0-1.397
		c0.183,0.016,0.308-0.025,0.479-0.021c-0.03,0.262-0.009,0.574-0.042,0.834C72.809,37.054,72.66,37.246,72.525,37.451z
		 M72.171,38.474c-0.129,0.061-0.109-0.083-0.168-0.146c0.047-0.073,0.094-0.145,0.125-0.229
		C72.216,38.15,72.149,38.355,72.171,38.474z M71.983,38.181c-0.198-0.241-0.271-0.932-0.105-1.272
		c0.137,0.086,0.203,0.242,0.313,0.354C72.159,37.607,72.132,37.956,71.983,38.181z M71.858,38.766
		c0.121,0.121,0.218,0.268,0.333,0.395c-0.084,0.049-0.257,0.008-0.375,0.021C71.84,39.054,71.854,38.914,71.858,38.766z
		 M72.128,38.64c0.064,0.015,0.062-0.036,0.126-0.021c0,0.063,0,0.125,0,0.188C72.197,38.766,72.154,38.712,72.128,38.64z
		 M71.962,36.679c-0.17-0.073-0.186-0.301-0.167-0.562c0.153,0,0.264-0.042,0.418-0.042C72.271,36.418,72.062,36.494,71.962,36.679z
		 M71.816,41.102c0.216,0.007,0.379-0.038,0.604-0.021c0.034,0.065-0.075,0.129-0.125,0.188c-0.158,0.185-0.342,0.439-0.501,0.625
		C71.779,41.69,71.795,41.339,71.816,41.102z M71.962,34.656c0.371-0.045,0.961-0.147,0.939,0.313
		c-0.198,0.016-0.255-0.108-0.355-0.188C72.312,34.779,72.157,34.697,71.962,34.656z M72.921,33.822c0,0.153,0,0.307,0,0.459
		c-0.333,0.056-0.395-0.323-0.604-0.459C72.473,33.784,72.764,33.792,72.921,33.822z M72.066,33.447
		c-0.036-0.351,0.23-0.553,0.416-0.793c0.18-0.229,0.342-0.398,0.46-0.584c0.039,0.408,0.028,0.946,0,1.356
		C72.627,33.41,72.376,33.458,72.066,33.447z M72.379,34.302c-0.194,0-0.389,0-0.584,0c-0.035-0.146-0.012-0.35-0.041-0.5
		C72.132,33.785,72.243,34.146,72.379,34.302z M71.754,45.336c0-0.098,0-0.195,0-0.293c0.381,0.006,0.717-0.032,1.084-0.042
		c0.039,0.099,0.149,0.15,0.083,0.292C72.554,45.33,72.137,45.317,71.754,45.336z M72.525,46.17
		c-0.241,0.315-0.515,0.597-0.752,0.918c-0.042-0.259,0.027-0.586,0-0.897C72.048,46.208,72.261,46.162,72.525,46.17z
		 M72.337,44.147c-0.164-0.228-0.444-0.387-0.354-0.793c0.035-0.158,0.321-0.425,0.458-0.584c0.213-0.248,0.386-0.422,0.521-0.605
		c0.049,0.772,0.007,1.634,0.021,2.441C72.609,44.736,72.506,44.379,72.337,44.147z M72.441,44.564
		c-0.204,0.053-0.466,0.048-0.709,0.063c-0.017-0.266,0.03-0.471,0.021-0.73c0.013,0,0.027,0,0.041,0
		C72.1,44.029,72.205,44.363,72.441,44.564z M71.754,47.358c0.045-0.193,0.339-0.416,0.5-0.604c0.206-0.24,0.349-0.621,0.73-0.605
		c-0.045,0.291,0.062,0.519,0,0.772c-0.047,0.19-0.452,0.595-0.585,0.751c-0.106,0.124-0.218,0.24-0.312,0.354
		c-0.097,0.118-0.165,0.292-0.333,0.312C71.807,47.961,71.679,47.676,71.754,47.358z M72.816,58.998
		c0.211,0.207,0.098,0.737,0.126,1.126c-0.045,0.062-0.205-0.11-0.292-0.146c-0.001-0.764-0.096-1.434-0.168-2.127
		c0.147-0.209,0.32-0.391,0.46-0.605c0.048,0.348,0.007,0.785,0.021,1.168c-0.071,0.006-0.1,0.053-0.188,0.042
		C72.929,58.509,73.044,58.938,72.816,58.998z M72.963,71.576c0.048,0.043,0.008,0.173,0.021,0.25c-0.091,0-0.182,0-0.271,0
		C72.773,71.72,72.902,71.683,72.963,71.576z M72.733,71.492c0-0.048,0-0.097,0-0.146c0.034,0,0.069,0,0.104,0
		c0,0.042,0,0.083,0,0.125C72.778,71.455,72.784,71.501,72.733,71.492z M72.88,70.741c-0.256-0.243-0.068-1.16-0.125-1.689
		c0.076,0,0.153,0,0.229,0c0.029,0.569,0.02,1.177,0.021,1.773C72.982,70.928,72.926,70.75,72.88,70.741z M72.942,64.88
		c0.034,0.085,0.043,0.194,0.042,0.313c-0.07,0-0.14,0-0.209,0c0.002-0.086,0.004-0.171-0.021-0.23
		C72.826,64.945,72.899,64.927,72.942,64.88z M72.755,64.797c-0.005-0.407,0.036-0.771,0.021-1.188c0.08,0.004,0.154,0,0.209-0.021
		c0.016,0.406-0.029,0.75-0.021,1.147C72.897,64.76,72.824,64.776,72.755,64.797z M72.796,66.528
		c0.046-0.065,0.11-0.112,0.146-0.188c0.039,0.05,0.045,0.136,0.042,0.229C72.925,66.552,72.854,66.546,72.796,66.528z
		 M72.963,67.425c-0.072-0.016-0.08,0.031-0.146,0.021c-0.011-0.206-0.033-0.397-0.041-0.605c0.05-0.013,0.151,0.026,0.167-0.021
		C72.99,66.981,72.949,67.23,72.963,67.425z M72.775,65.36c0.069,0,0.139,0,0.209,0c0,0.069,0,0.139,0,0.208
		C72.889,65.525,72.818,65.455,72.775,65.36z M72.775,68.885c0.059-0.412-0.126-1.128,0.209-1.23
		c-0.014,0.424,0.017,0.804,0.021,1.21C72.905,68.848,72.871,68.896,72.775,68.885z M72.984,63.421c-0.076,0-0.153,0-0.229,0
		c0-0.132,0-0.265,0-0.397c0.099,0.017,0.143-0.022,0.229-0.021C72.984,63.143,72.984,63.281,72.984,63.421z M72.963,62.857
		c-0.069,0-0.139,0-0.208,0c-0.014-0.063,0.026-0.18-0.021-0.209c0.038-0.086,0.146-0.104,0.188-0.188
		C72.985,62.544,72.957,62.717,72.963,62.857z M72.733,62.46c-0.047-0.028-0.008-0.145-0.021-0.208c0.069,0,0.139,0,0.208,0
		C72.871,62.334,72.784,62.379,72.733,62.46z M72.691,60.312c0.114,0.066,0.229,0.133,0.21,0.334c-0.063,0-0.126,0-0.188,0
		C72.729,60.512,72.688,60.435,72.691,60.312z M70.752,67.175c-0.004-0.114,0.015-0.251-0.021-0.334c0.021,0,0.041,0,0.062,0
		C70.77,66.942,70.845,67.143,70.752,67.175z M70.752,72.056c0.439,0.016,0.815-0.033,1.251-0.021
		c-0.405,0.338-0.866,0.732-1.271,1.001C70.73,72.701,70.767,72.404,70.752,72.056z M71.17,71.639c0.3-0.102,0.65-0.185,1.001-0.104
		c0.079,0.019,0.24,0.016,0.25,0.125C72.101,71.722,71.552,71.653,71.17,71.639z M70.836,71.159
		c0.013-0.529,0.044-1.041,0.083-1.544c0.523,0.402,1.032,0.818,1.543,1.23c-0.005,0.12,0.017,0.267-0.021,0.354
		C71.908,71.185,71.376,71.167,70.836,71.159z M70.877,65.923c-0.027,0-0.056,0-0.083,0c0.009-0.13,0.028-0.249,0.062-0.354
		C70.875,65.662,70.924,65.834,70.877,65.923z M71.044,67.696c-0.029-0.246,0.04-0.571,0.042-0.855c0.307-0.058,0.623,0.022,0.959,0
		C71.719,67.134,71.371,67.405,71.044,67.696z M72.379,66.841c0.072,0.137,0.031,0.387,0.042,0.584c-0.223,0-0.445,0-0.667,0
		c-0.02-0.068,0.146-0.185,0.249-0.271C72.131,67.049,72.284,66.962,72.379,66.841z M70.96,61.334c0.1,0.02,0.112,0.125,0.21,0.147
		c-0.038,0.269-0.074,0.537-0.084,0.833C70.988,62.044,71.004,61.66,70.96,61.334z M71.128,66.194c0-0.027,0-0.055,0-0.083
		c0.099-0.016,0.144,0.023,0.229,0.021C71.296,66.169,71.209,66.179,71.128,66.194z M71.106,65.966
		c0.021-0.195,0.049-0.383,0.063-0.585c0.215,0,0.431,0,0.646,0c0,0.188,0,0.376,0,0.563C71.584,65.956,71.305,65.92,71.106,65.966z
		 M70.94,60.959c0-0.027,0-0.056,0-0.083c0.076,0,0.153,0,0.229,0C71.135,60.951,71.017,60.987,70.94,60.959z M71.002,67.988
		c0.065-0.229,0.351-0.257,0.48-0.417c0.306,0,0.611,0,0.917,0c0.075,0.396-0.153,0.475-0.375,0.668
		c-0.324,0.281-0.594,0.544-0.918,0.812c-0.042,0.035-0.106,0.104-0.166,0.084C71.055,68.767,70.903,68.336,71.002,67.988z
		 M72.171,70.262c-0.31-0.24-0.691-0.507-0.981-0.771c-0.024-0.357,0.325-0.549,0.522-0.729c0.235-0.217,0.466-0.431,0.688-0.647
		c0.063,0.751,0.044,1.584,0.083,2.357C72.367,70.481,72.276,70.346,72.171,70.262z M71.378,66.36
		c0.39-0.105,0.852-0.127,1.251-0.02C72.365,66.677,71.815,66.388,71.378,66.36z M72.65,66.82c0.021,0.257,0.012,0.397-0.063,0.584
		c-0.043-0.172-0.033-0.396-0.062-0.584C72.566,66.82,72.608,66.82,72.65,66.82z M72.65,67.967c0.047,0.049,0.017,0.197,0,0.251
		c0,0.076,0,0.153,0,0.229C72.623,68.603,72.613,68.021,72.65,67.967z M72.65,65.923c-0.228-0.002-0.47,0.012-0.667-0.021
		c0-0.098,0-0.194,0-0.292c0.065,0.003,0.068-0.055,0.145-0.042C72.098,65.165,72.847,65.661,72.65,65.923z M72.629,63.587
		c-0.016,0.565,0.03,1.07,0.021,1.627c-0.152,0.021-0.161-0.103-0.251-0.146c0.032-0.49,0.056-0.988,0.062-1.502
		C72.541,63.551,72.562,63.592,72.629,63.587z M72.608,62.794c0.048,0.183,0.001,0.458,0.042,0.647c-0.056,0-0.111,0-0.168,0
		C72.49,63.19,72.434,62.878,72.608,62.794z M71.231,40.56c0.226,0.207-0.013,0.586,0,0.896
		C71.174,41.183,71.262,40.875,71.231,40.56z M71.253,32.216c-0.055-0.374,0.088-0.697,0.104-1.064
		C71.391,31.411,71.582,32.184,71.253,32.216z M71.544,32.32c0.016,0.196-0.021,0.34-0.021,0.522
		C71.405,32.803,71.323,32.314,71.544,32.32z M71.544,33.572c-0.091-0.005-0.161-0.034-0.271-0.021
		c-0.03-0.213-0.007-0.48-0.042-0.688C71.423,33.012,71.615,33.16,71.544,33.572z M72.128,53.45
		c0.267-0.062,0.553-0.188,0.835-0.167c-0.015,0.104-0.028,0.207-0.021,0.334C72.669,53.562,72.39,53.515,72.128,53.45z
		 M72.921,53.826c0,0.354,0,0.708,0,1.063c-0.041,0.022-0.158-0.109-0.229-0.188c-0.067-0.074-0.131-0.182-0.209-0.271
		c-0.146-0.169-0.461-0.409-0.416-0.584C72.286,53.739,72.626,53.869,72.921,53.826z M71.816,53.095
		c0.035-0.232-0.08-0.412-0.043-0.584c0.034-0.153,0.271-0.332,0.397-0.479c0.184-0.215,0.304-0.391,0.438-0.544
		c0.127,0.11,0.245,0.229,0.354,0.355c0.035,0.398-0.205,0.565-0.396,0.793c-0.137,0.163-0.258,0.314-0.396,0.438
		C72.082,53.111,71.936,53.09,71.816,53.095z M72.045,53.199c0.036,0.086-0.109,0.15-0.229,0.146
		c-0.013-0.068,0.014-0.098,0.021-0.146C71.906,53.199,71.976,53.199,72.045,53.199z M71.92,50.801
		c-0.043-0.012-0.067-0.044-0.104-0.062c-0.004-0.045,0.073-0.009,0.104-0.021C71.92,50.745,71.92,50.772,71.92,50.801z
		 M72.128,50.885c0.222-0.114,0.517-0.152,0.814-0.188c-0.007,0.049-0.033,0.078-0.021,0.146
		C72.686,50.999,72.394,51.038,72.128,50.885z M71.773,50.488c0-0.167,0-0.334,0-0.5c0.297,0.025,0.619-0.052,0.855-0.021
		c0.208,0.027,0.366,0.196,0.334,0.522C72.566,50.488,72.171,50.488,71.773,50.488z M71.732,49.591c0-0.097,0-0.194,0-0.292
		c0.132,0,0.264,0,0.396,0c0.105,0.063,0.142,0.192,0.229,0.271C72.191,49.619,71.935,49.577,71.732,49.591z M71.858,51.134
		c-0.01,0.047-0.112,0.018-0.126,0C71.758,51.071,71.804,51.157,71.858,51.134z M71.773,54.034c0.375,0.341,0.714,0.719,1.064,1.085
		c0,0.11,0,0.223,0,0.334c-0.369-0.014-0.728-0.038-1.084-0.063C71.736,54.915,71.784,54.503,71.773,54.034z M72.942,56.308
		c-0.035,0.278,0.049,0.491,0,0.688c-0.069,0.28-0.494,0.52-0.605,0.792c-0.163-0.155-0.232-0.406-0.417-0.542
		c0.259-0.354,0.573-0.65,0.835-1.002C72.821,56.262,72.859,56.307,72.942,56.308z M72.254,57.872
		c-0.205,0.289-0.48,0.507-0.688,0.793c0.027-0.358-0.048-0.823,0.042-1.105C71.762,57.073,72.146,57.603,72.254,57.872z
		 M72.546,59.833c-0.073,0.035-0.129-0.087-0.188-0.146c-0.18-0.18-0.432-0.394-0.604-0.585c-0.086-0.6,0.34-0.688,0.5-1.042
		C72.521,58.479,72.471,59.22,72.546,59.833z M71.503,51.28c0.003-0.023-0.005-0.037-0.021-0.042
		c0.019-0.056,0.046,0.048,0.083,0.042c0,0.111,0,0.223,0,0.334c0,0.056,0,0.112,0,0.167c-0.028,0.066-0.021-0.074-0.021-0.104
		C71.527,51.549,71.505,51.424,71.503,51.28z M71.253,48.861c-0.013-0.175-0.03-0.346-0.021-0.542
		c0.228-0.011,0.314,0.259,0.292,0.563C71.414,48.894,71.345,48.867,71.253,48.861z M71.44,49.612
		c0.004,0.018-0.008,0.02-0.021,0.021c-0.018-0.003-0.02,0.009-0.021,0.021c-0.042-0.02-0.045-0.08-0.042-0.146
		C71.396,49.531,71.401,49.589,71.44,49.612z M71.253,47.672c-0.062-0.31,0.104-0.74,0.104-1.126
		C71.41,46.89,71.586,47.599,71.253,47.672z M71.482,47.672c0.046,0.204,0.046,0.455,0.062,0.688
		C71.368,48.3,71.33,47.799,71.482,47.672z M71.461,50.738c0.078-0.016,0.046,0.079,0.104,0.084
		c-0.006,0.028-0.052,0.017-0.083,0.021C71.465,50.818,71.455,50.787,71.461,50.738z M71.586,50.362
		c-0.142-0.047-0.048-0.206-0.021-0.312C71.613,50.113,71.572,50.266,71.586,50.362z M71.544,46.483
		c-0.012-0.119-0.046-0.218-0.041-0.354c0.027,0.007,0.032,0.037,0.062,0.042C71.565,46.26,71.573,46.687,71.544,46.483z
		 M71.378,43.021c-0.007-0.209-0.015-0.418,0.104-0.501c0.062,0.174,0.057,0.416,0.083,0.626
		C71.496,43.111,71.434,43.07,71.378,43.021z M71.273,42.478c-0.16-0.358,0.092-0.743,0.104-1.126
		C71.406,41.729,71.564,42.314,71.273,42.478z M71.461,39.266c-0.109-0.029-0.071-0.189-0.083-0.271
		c-0.04-0.276-0.09-0.601-0.125-0.896c0.007-0.028,0.037-0.033,0.042-0.062C71.622,38.159,71.45,38.895,71.461,39.266z
		 M71.419,36.367c-0.007,0.328,0.257,0.935-0.166,0.959C71.302,37,71.376,36.699,71.419,36.367z M71.523,33.801
		c0,0.167,0,0.334,0,0.5C71.449,34.213,71.134,33.783,71.523,33.801z M71.419,37.41c0.053,0.003,0.066-0.032,0.084-0.062
		c0.049,0.181,0.007,0.451,0.021,0.667C71.387,37.916,71.436,37.63,71.419,37.41z M71.544,43.438
		c-0.042,0.374-0.024,0.809-0.083,1.169c-0.119-0.021-0.111-0.198-0.125-0.293c-0.05-0.344-0.092-0.753-0.146-1.105
		c-0.006-0.034,0.02-0.036,0.021-0.062C71.405,43.159,71.436,43.338,71.544,43.438z M71.314,45.273
		c-0.002,0.046-0.088,0.009-0.125,0.021c0-0.069,0-0.139,0-0.208C71.25,45.13,71.244,45.24,71.314,45.273z M71.253,45.711
		c0.122,0.331-0.035,0.725-0.063,1.043c-0.062-0.334,0.013-0.711,0-1.064C71.224,45.685,71.227,45.71,71.253,45.711z M71.189,49.653
		c0.028,0.16,0.095,0.573,0.063,0.793C71.068,50.355,71.252,49.915,71.189,49.653z M71.273,50.989
		c0.009,0.21-0.05,0.353-0.042,0.563c-0.034-0.119-0.022-0.465-0.042-0.668C71.246,50.891,71.228,50.972,71.273,50.989z
		 M71.356,51.656c0.005,0.286,0.3,1.112-0.083,1.168C71.188,52.481,71.358,52.053,71.356,51.656z M71.295,55.015
		c0-0.469,0-1.083,0-1.544c0.096,0.07,0.158,0.175,0.229,0.271c-0.023,0.546-0.009,1.131-0.083,1.627
		C71.234,55.396,71.295,55.15,71.295,55.015z M71.398,56.704c-0.037-0.157-0.02-0.37-0.042-0.542
		C71.518,56.253,71.413,56.503,71.398,56.704z M71.356,61.501c0.3,0,0.599,0,0.897,0c0.021,0.097-0.126,0.153-0.209,0.229
		c-0.233,0.219-0.506,0.562-0.75,0.709C71.296,62.108,71.359,61.837,71.356,61.501z M71.629,61.105
		c0.297-0.119,0.646-0.227,0.958-0.063C72.37,61.253,71.967,61.15,71.629,61.105z M71.419,60.646
		c0.003-0.457,0.055-0.865,0.063-1.314c0.018-0.004,0.02,0.008,0.021,0.021c0.191,0.129,0.357,0.292,0.542,0.438
		c0.168,0.133,0.418,0.239,0.48,0.479c-0.084,0.014-0.223-0.027-0.271,0.021c-0.042,0.195,0.224,0.082,0.312,0.146
		c0.013,0.042-0.025,0.136,0.021,0.145C72.232,60.639,71.823,60.64,71.419,60.646z M72.421,53.074
		c-0.014-0.079,0.113-0.214,0.208-0.334c0.107-0.135,0.233-0.255,0.313-0.396c0.042,0.223,0.044,0.484,0.042,0.75
		C72.776,53.108,72.631,53.06,72.421,53.074z M72.713,51.344c0.029-0.089,0.11-0.127,0.25-0.105
		c-0.013,0.153,0.036,0.242,0.021,0.396C72.888,51.544,72.774,51.47,72.713,51.344z M72.566,49.55
		c-0.057-0.088-0.12-0.173-0.188-0.251c0.16-0.048,0.41-0.007,0.605-0.02c0,0.083,0,0.167,0,0.25
		C72.854,49.544,72.72,49.557,72.566,49.55z M71.983,48.777c0-0.118,0-0.236,0-0.354c0.326-0.402,0.659-0.799,0.979-1.209
		c0.035,0.521,0.024,1.088,0.042,1.626C72.691,48.792,72.275,48.846,71.983,48.777z M72.525,56.224
		c-0.281,0.332-0.608,0.729-0.896,0.981c0.009-0.317,0.044-0.61,0.062-0.918C71.971,56.268,72.249,56.248,72.525,56.224z
		 M71.607,41.332c-0.007,0.129,0.011,0.445-0.021,0.271c-0.024-0.225-0.071-0.428-0.083-0.667c0.06,0.03,0.08,0.1,0.126,0.146
		C71.648,41.136,71.612,41.229,71.607,41.332z M71.607,31.131c0.004,0.067-0.037,0.088-0.021,0.167
		c0.006,0.037-0.02,0.042-0.021,0.021c-0.01-0.179-0.042-0.333-0.062-0.501c0.04,0.037,0.064,0.088,0.104,0.126
		C71.607,31.006,71.607,31.069,71.607,31.131z M71.44,29.63c-0.047-0.176-0.052-0.394-0.084-0.585
		c0.031,0.033,0.107,0.019,0.167,0.021C71.505,29.263,71.463,29.437,71.44,29.63z M71.482,28.607
		c-0.099-0.127-0.282-0.247-0.209-0.479c0.098,0,0.194,0,0.292,0C71.547,28.296,71.512,28.449,71.482,28.607z M71.211,31.277
		c-0.04-0.3-0.015-0.667-0.041-0.98C71.438,30.475,71.199,30.969,71.211,31.277z M71.253,56.016
		c-0.059,0.171-0.127,0.332-0.167,0.521c-0.034-0.159,0.021-0.41,0-0.626C71.155,55.933,71.183,55.994,71.253,56.016z
		 M71.795,64.547c-0.066,0.028-0.245-0.184-0.334-0.271c-0.067-0.388,0.141-0.498,0.334-0.625
		C71.859,63.931,71.773,64.241,71.795,64.547z M71.816,64.963c0,0.085,0,0.168,0,0.251c-0.209,0-0.418,0-0.627,0
		c0.03-0.227,0.009-0.507,0.042-0.729C71.428,64.643,71.623,64.802,71.816,64.963z M71.17,60.583c-0.1,0.017-0.144-0.022-0.229-0.02
		c-0.03-0.646-0.064-1.286-0.063-1.961C71.506,58.795,71.067,59.914,71.17,60.583z M70.772,63.212
		c0.032-0.031,0.089-0.037,0.104-0.084c0.083,0.19,0.051,0.493,0.063,0.751C70.738,63.761,70.765,63.542,70.772,63.212z
		 M70.855,66.152c-0.01,0.066,0.038,0.074,0.021,0.146c-0.11-0.008-0.163-0.073-0.251-0.104
		C70.683,66.16,70.78,66.168,70.855,66.152z M70.647,69.094c-0.099-0.046-0.171-0.121-0.271-0.167
		c0.037-0.129,0.012-0.321,0.041-0.459c0.067-0.016,0.124-0.043,0.168-0.083C70.639,68.588,70.606,68.877,70.647,69.094z
		 M72.984,62.064c-0.078-0.034-0.188-0.035-0.271-0.062c0-0.174,0-0.348,0-0.521c0.112,0.015,0.161-0.034,0.271-0.021
		C73.045,61.646,72.964,61.851,72.984,62.064z M72.984,41.957c-0.048,0.196-0.449,0.532-0.585,0.688
		c-0.221,0.254-0.391,0.479-0.583,0.646c0.024-0.378-0.094-0.724-0.021-1.043c0.037-0.164,0.281-0.408,0.418-0.584
		c0.193-0.251,0.351-0.432,0.5-0.605c0.09,0,0.181,0,0.271,0C72.934,41.416,73.055,41.671,72.984,41.957z M72.65,29.066
		c0.088-0.059,0.23,0.006,0.334,0c-0.006,0.132,0.003,0.248,0.021,0.354C72.865,29.324,72.778,29.173,72.65,29.066z M72.984,27.835
		c-0.267-0.001-0.506,0.022-0.752,0.042c-0.027-0.078,0.086-0.137,0.146-0.209c0.183-0.219,0.401-0.506,0.584-0.73
		C73.012,27.196,72.97,27.543,72.984,27.835z M72.984,28.107c0,0.236,0,0.473,0,0.709c-0.216-0.032-0.394,0.043-0.543,0
		c-0.123-0.037-0.191-0.198-0.271-0.292c-0.092-0.109-0.245-0.208-0.188-0.354C72.279,28.113,72.648,28.126,72.984,28.107z
		 M72.066,28.836c-0.091,0-0.181,0-0.271,0c0.011-0.081-0.037-0.102-0.021-0.187C71.937,28.601,72.022,28.708,72.066,28.836z
		 M71.586,29.859c-0.097-0.021,0.007-0.164,0-0.229C71.62,29.659,71.62,29.83,71.586,29.859z M71.607,26.25
		c-0.078-0.11-0.04-0.335-0.084-0.48C71.636,25.847,71.604,26.065,71.607,26.25z M71.565,27.898
		c-0.134-0.016-0.213,0.024-0.334,0.021c-0.004-0.067,0.037-0.088,0.021-0.167c0.086,0.017,0.107-0.031,0.188-0.02
		c-0.021-0.174-0.073-0.521,0.062-0.605C71.558,27.35,71.532,27.653,71.565,27.898z M71.398,26.021
		c0.043,0.4,0.188,1.042-0.167,1.106C71.265,26.734,71.348,26.394,71.398,26.021z M71.356,23.852
		c-0.075-0.334-0.1-0.721-0.167-1.064C71.439,22.949,71.301,23.498,71.356,23.852z M71.17,24.039
		c0.048,0.111,0.063,0.437,0.104,0.626C71.094,24.601,71.195,24.256,71.17,24.039z M71.148,25.166
		c0.206,0.134,0.075,0.522,0.083,0.813C71.108,25.804,71.158,25.455,71.148,25.166z M70.96,23.393
		c-0.048-0.424-0.007-0.939-0.02-1.397C71.071,22.359,70.96,22.958,70.96,23.393z M69.313,27.564
		c0.596,0.062,1.152-0.079,1.48-0.354c0.019,0.099,0.09,0.146,0.208,0.146c0.027,0.167,0.022,0.368,0.021,0.563
		c-0.118,0-0.222,0.015-0.312,0.042c-0.047,0.03-0.029,0.124-0.063,0.167c-0.466-0.038-1.052,0.18-1.355-0.021
		C69.276,27.903,69.321,27.76,69.313,27.564z M69.146,33.76c0-0.098,0-0.195,0-0.292c0.07,0.069,0.103,0.176,0.168,0.25
		C69.274,33.749,69.214,33.758,69.146,33.76z M69.438,33.509c-0.098-0.173-0.141-0.402-0.146-0.667
		c-0.029-0.092,0.125,0,0.125-0.063c0-1.453,0-2.905,0-4.359c0.567-0.062,1.078,0.025,1.564,0.104
		c-0.011,1.672,0.076,3.358,0.021,5.006C70.538,33.627,69.969,33.483,69.438,33.509z M70.877,34.135
		c-0.035,0.047-0.159,0.007-0.229,0.021c0-0.042,0-0.084,0-0.125C70.728,34.062,70.786,34.115,70.877,34.135z M69.73,34.01
		c0.164-0.011,0.46,0.025,0.667,0.042c0,0.236,0,0.473,0,0.709C70.166,34.52,69.974,34.24,69.73,34.01z M70.377,36.117
		c-0.134-0.083-0.062-0.369-0.084-0.563c0.021,0,0.042,0,0.063,0C70.434,35.645,70.456,36.006,70.377,36.117z M70.626,34.406
		c0.135-0.004,0.246-0.033,0.397-0.021c0.019,0.398,0.037,0.797,0.062,1.189c-0.071,0.028-0.168-0.121-0.25-0.209
		c-0.094-0.099-0.186-0.206-0.25-0.292C70.619,34.871,70.59,34.605,70.626,34.406z M70.647,36.157
		c-0.019-0.196-0.026-0.404-0.021-0.625c0.264,0.079,0.445,0.238,0.418,0.606C70.902,36.134,70.802,36.173,70.647,36.157z
		 M70.689,44.793c0.137-0.039,0.066,0.128,0.083,0.208c0.045,0.04,0.153,0.015,0.229,0.021c0.017,1.212-0.028,2.364-0.021,3.567
		c-0.089-0.024-0.198-0.025-0.312-0.021c0.015-1.28-0.033-2.498-0.021-3.775C70.662,44.793,70.675,44.793,70.689,44.793z
		 M70.127,48.61c0.116,0.036,0.077,0.229,0.104,0.354c0.044,0.062,0.189,0.02,0.167,0.146c0.056,0.013,0.165-0.027,0.188,0.021
		c0.064-0.04,0.037-0.171,0.187-0.125c-0.003,0.109-0.015,0.207-0.041,0.292c0.09,0,0.181,0,0.271,0
		c-0.016,0.399,0.027,0.737,0.021,1.126C70.412,50.146,69.887,49.48,70.127,48.61z M71.064,56.934
		c0.048,0.022,0.009,0.13,0.021,0.188c0.003,0.06,0.087,0.038,0.146,0.042c0.081,0.483-0.132,0.674-0.312,0.896
		C70.889,57.688,70.9,57.179,71.064,56.934z M70.836,53.908c0.036-0.011,0.122,0.026,0.124-0.021
		c0.031,0.26-0.034,0.604-0.062,0.877C70.791,54.565,70.853,54.198,70.836,53.908z M70.711,60.062
		c0.086,0.115,0.045,0.357,0.083,0.521c-0.024-0.018-0.056-0.027-0.104-0.02C70.664,60.442,70.725,60.239,70.711,60.062z
		 M70.647,61.001c0.24,0.096,0.111,0.365-0.021,0.48C70.579,61.349,70.661,61.166,70.647,61.001z M70.814,61.564
		c0.043,0.158,0.045,0.546,0.062,0.834c0.009,0.141,0.061,0.307,0.042,0.396c-0.048,0.236-0.322,0.327-0.396,0.459
		C70.618,62.688,70.462,61.872,70.814,61.564z M70.501,67.049c-0.005,0.103,0.151,0.803,0.085,1.044
		c-0.053,0.189-0.286,0.215-0.397,0.333C70.285,67.959,70.406,67.518,70.501,67.049z M70.626,69.364
		c-0.033,0.564-0.231,0.965-0.312,1.481c-0.07-0.59-0.092-1.229-0.146-1.836C70.329,69.121,70.495,69.226,70.626,69.364z
		 M70.022,70.554c0.052,0.081,0.058,0.387,0.104,0.543c-0.028,0-0.057,0-0.084,0C69.952,70.994,70.061,70.742,70.022,70.554z
		 M69.938,71.534c0.078,0.005,0.088,0.079,0.167,0.084c-0.064,0.297-0.146,0.576-0.188,0.896
		C69.875,72.222,69.961,71.877,69.938,71.534z M70.146,72.285c0.055,0.356,0.067,0.754,0.105,1.127
		c-0.086,0.131-0.248,0.182-0.354,0.292C69.927,73.261,70.061,72.741,70.146,72.285z M70.271,74.601
		c-0.068,0.058-0.187-0.185-0.271-0.25c0-0.16,0-0.319,0-0.479c0.085-0.055,0.183-0.098,0.251-0.167
		C70.3,73.961,70.259,74.309,70.271,74.601z M68.812,73.704c0.076,0,0.152,0,0.229,0c0.003,0.144-0.04,0.331,0.125,0.312
		c0.049-0.542,0.007-1.175,0.021-1.752c0.153-0.008,0.287,0.006,0.417,0.021c-0.034,0.619,0.001,1.308-0.146,1.814
		C69.125,74.166,68.798,74.054,68.812,73.704z M69.062,85.301c0.089-1.79,0.219-3.609,0.312-5.402
		c0.014-0.243-0.03-0.509,0.083-0.73c0.045,0.009,0.057-0.014,0.085-0.02c0.11,2.016,0.155,4.098,0.229,6.152
		C69.535,85.301,69.299,85.301,69.062,85.301z M69.646,72.098c-0.163,0.011-0.295-0.011-0.438-0.021
		c0.015-0.704-0.035-1.343-0.021-2.044c0.217-0.016,0.382,0.021,0.584,0.02C69.743,70.748,69.669,71.397,69.646,72.098z
		 M70.271,74.997c-0.067,0.439-0.115,0.899-0.166,1.356c-0.098,0-0.195,0-0.292,0c-0.009-0.619-0.031-1.221-0.021-1.857
		C69.959,74.656,70.098,74.845,70.271,74.997z M69.813,76.54c0.056-0.041,0.182-0.012,0.271-0.021
		c-0.091,0.459-0.182,0.917-0.251,1.397C69.785,77.5,69.827,76.992,69.813,76.54z M70.043,78.167
		c0.038,0.19,0.018,0.442,0.042,0.646c-0.084,0-0.168,0-0.251,0C69.805,78.464,69.818,78.274,70.043,78.167z M69.917,81.755
		c-0.019-0.772-0.024-1.561-0.062-2.315c0.062,0.034,0.169,0.025,0.229,0.062c-0.056,0.737-0.11,1.476-0.146,2.232
		C69.945,81.771,69.918,81.777,69.917,81.755z M70.063,85.322c0.157-1.881,0.291-3.783,0.438-5.674
		c0.814-0.006,1.615-0.026,2.4-0.062c0.116,0.056,0.062,0.23,0.062,0.312c0.01,1.754,0.085,3.634,0.083,5.424
		C72.052,85.322,71.058,85.322,70.063,85.322z M73.025,26.605c-0.042,0.167-0.447,0.59-0.563,0.73
		c-0.097,0.117-0.194,0.237-0.291,0.354c-0.102,0.121-0.226,0.267-0.417,0.209c0.08-0.426-0.068-0.79,0.02-1.147
		c0.031-0.124,0.222-0.302,0.334-0.438c0.166-0.199,0.291-0.341,0.418-0.48c0.166,0,0.333,0,0.5,0
		C72.978,26.11,73.092,26.344,73.025,26.605z M72.88,24.77c-0.089-0.008-0.215,0.021-0.271-0.021
		c0.016-0.211-0.031-0.358-0.021-0.563C72.703,24.362,72.929,24.429,72.88,24.77z M72.587,23.33c0.143-0.01,0.255,0.01,0.376,0.021
		c-0.004,0.331-0.002,0.655,0.021,0.96c-0.07,0.049-0.122-0.091-0.188-0.167c-0.06-0.071-0.162-0.138-0.188-0.229
		C72.561,23.744,72.621,23.533,72.587,23.33z M73.214,66.779c0.058,0.054,0.082,0.25,0.042,0.333
		C73.163,67.079,73.237,66.88,73.214,66.779z M73.214,68.99c0.105,0.346,0.084,0.931,0.062,1.334
		C73.188,69.946,73.251,69.418,73.214,68.99z M73.214,52.24c0.108,0.137,0.082,0.624,0.021,0.793
		C73.239,52.757,73.197,52.527,73.214,52.24z M73.234,67.654c0.112,0.33-0.013,0.78,0.021,1.169
		C73.171,68.522,73.214,67.989,73.234,67.654z M73.234,70.805c0.005-0.103-0.037-0.158-0.021-0.271c0.027,0,0.056,0,0.083,0
		C73.276,70.625,73.349,70.808,73.234,70.805z M73.275,51.761c-0.142-0.145,0.01-0.493-0.041-0.752
		c-0.012-0.046,0.04-0.028,0.041-0.062C73.345,51.123,73.284,51.524,73.275,51.761z M73.234,50.008
		c0.017,0.012,0.033,0.022,0.062,0.021c0,0.063,0,0.125,0,0.188C73.195,50.229,73.247,50.086,73.234,50.008z M73.275,49.55
		c-0.106-0.037,0.009-0.177-0.02-0.271c0.02,0,0.041,0,0.062,0C73.295,49.36,73.366,49.535,73.275,49.55z M73.275,38.181
		c-0.039-0.664-0.118-1.506-0.062-2.127c0.013,0,0.027,0,0.042,0c0.1,0.313,0.064,0.76,0.083,1.168
		C73.354,37.566,73.373,37.926,73.275,38.181z M73.422,34.197c-0.062,0-0.125,0-0.188,0c0.012-0.136-0.013-0.237-0.021-0.354
		C73.481,33.704,73.42,33.97,73.422,34.197z M73.756,48.214c-0.037-0.345-0.031-0.822,0-1.167c0.048,0,0.097,0,0.146,0
		c0.027,0.376,0.022,0.784,0.021,1.188C73.855,48.24,73.834,48.199,73.756,48.214z M73.923,48.401c0,0.113,0,0.224,0,0.335
		c-0.063,0-0.125,0-0.188,0c0-0.104,0-0.209,0-0.313C73.819,48.438,73.854,48.403,73.923,48.401z M73.505,46.859
		c-0.072-0.169,0.076-0.263,0.125-0.376c0.121,0.017,0.18-0.03,0.293-0.021c0,0.14,0,0.278,0,0.417
		C73.766,46.89,73.667,46.843,73.505,46.859z M73.505,49.528c0-0.09,0-0.181,0-0.271c0.015,0,0.028,0,0.042,0
		C73.634,49.272,73.66,49.572,73.505,49.528z M73.568,49.988c0,0.042,0,0.083,0,0.125c-0.035,0-0.07,0-0.104,0
		c0-0.042,0-0.083,0-0.125C73.498,49.988,73.533,49.988,73.568,49.988z M73.547,48.256c-0.13-0.07-0.048-0.333-0.042-0.48
		c0.011-0.217-0.007-0.459,0-0.667c0-0.021,0-0.042,0-0.062c0.015,0,0.028,0,0.042,0C73.646,47.382,73.557,47.889,73.547,48.256z
		 M73.881,44.939c0.016,0.104,0.028,0.208,0.021,0.334c-0.072-0.017-0.08,0.031-0.146,0.021c0-0.111,0-0.223,0-0.333
		C73.819,44.976,73.817,44.924,73.881,44.939z M73.756,44.522c0-0.062,0-0.125,0-0.188c0.042,0,0.083,0,0.125,0
		c0,0.063,0,0.125,0,0.188C73.839,44.522,73.798,44.522,73.756,44.522z M73.881,44.168c-0.207-0.002-0.125-0.365-0.125-0.563
		c0-0.238,0-0.484,0-0.668c0-0.021,0-0.042,0-0.062c0.049,0.006,0.078,0.033,0.146,0.021C73.888,43.312,73.93,43.786,73.881,44.168z
		 M73.651,34.156c0-0.132,0-0.264,0-0.396c0.063,0,0.125,0,0.188,0c0.022,0.117,0.024,0.252,0.021,0.396
		C73.791,34.156,73.721,34.156,73.651,34.156z M73.63,33.447c-0.023-0.171-0.006-0.383-0.04-0.542
		c0.098-0.016,0.143,0.023,0.229,0.02c0.038,0.157,0.022,0.366,0.062,0.522C73.798,33.447,73.715,33.447,73.63,33.447z
		 M73.839,32.737c-0.087-0.011-0.163-0.03-0.249-0.042c0.048-0.341-0.134-1.027-0.064-1.355c0.039-0.176,0.179-0.183,0.355-0.083
		C73.878,31.762,73.865,32.255,73.839,32.737z M73.651,30.13c0.087,0.01,0.155,0.04,0.229,0.062c0,0.084,0,0.167,0,0.25
		C73.803,30.339,73.628,30.334,73.651,30.13z M73.651,29.816c-0.039-0.316,0.198-0.357,0.292-0.542
		c0.032,0.151-0.023,0.394-0.021,0.585C73.824,29.853,73.762,29.812,73.651,29.816z M73.234,28.773c0-0.222,0-0.444,0-0.667
		c0.273,0.016,0.485-0.029,0.751-0.021c0,0.229,0,0.459,0,0.688C73.734,28.773,73.484,28.773,73.234,28.773z M73.798,29.192
		c-0.147,0.186-0.202,0.466-0.584,0.417c0-0.153,0-0.306,0-0.459C73.408,29.164,73.598,29.183,73.798,29.192z M73.38,30.317
		c-0.012,0.11,0.037,0.159,0.021,0.272c-0.056,0-0.111,0-0.167,0c-0.002-0.089-0.035-0.146-0.021-0.251
		C73.28,30.343,73.302,30.301,73.38,30.317z M73.339,31.528c0.044,0.511,0.076,1.147,0.083,1.626c-0.042,0-0.083,0-0.125,0
		c-0.108-0.163-0.051-0.444-0.062-0.709C73.218,32.079,73.173,31.734,73.339,31.528z M73.234,31.215c0-0.098,0-0.195,0-0.292
		c0.088-0.016,0.16-0.049,0.271-0.042C73.496,31.073,73.397,31.176,73.234,31.215z M73.464,48.401
		c0.065-0.009,0.081,0.03,0.126,0.042c-0.015,0.104,0.026,0.264-0.021,0.333C73.388,48.798,73.492,48.534,73.464,48.401z
		 M73.59,85.322c-0.109-1.771-0.088-3.756-0.126-5.632c-0.002-0.029-0.004-0.06,0.021-0.063c0.077,0,0.153,0,0.23,0
		c0.019,1.887,0.068,3.853,0.062,5.695C73.715,85.322,73.651,85.322,73.59,85.322z M73.525,64.567c0-0.021,0-0.042,0-0.063
		c0.02,0.018,0.048,0.023,0.084,0.021c0.021,0.156,0.062,0.505-0.02,0.626C73.449,65.076,73.562,64.746,73.525,64.567z
		 M73.609,65.339c0.065,0.006,0.036,0.104,0.042,0.168c-0.069,0-0.071,0.067-0.146,0.062c0-0.069,0-0.139,0-0.208
		C73.535,65.349,73.613,65.385,73.609,65.339z M73.651,70.533c0,0.091,0,0.181,0,0.271c-0.078-0.033-0.056-0.168-0.062-0.271
		C73.609,70.533,73.63,70.533,73.651,70.533z M73.525,69.031c0.018-0.018,0.058-0.012,0.064-0.041
		c0.069,0.389,0.054,0.974,0.04,1.377C73.505,70.012,73.588,69.449,73.525,69.031z M73.59,67.383
		c-0.078-0.036-0.063-0.32,0.02-0.334C73.649,67.125,73.644,67.334,73.59,67.383z M73.568,67.551
		c0.097,0.34,0.014,0.861,0.041,1.272c-0.127-0.324-0.045-0.859-0.104-1.252C73.534,67.573,73.564,67.574,73.568,67.551z
		 M73.818,53.012c-0.104-0.032-0.133-0.204-0.188-0.354c-0.077-0.21-0.221-0.548-0.125-0.896c0.039-0.143,0.214-0.245,0.418-0.208
		C73.939,52.09,73.872,52.545,73.818,53.012z M73.943,50.864c-0.039,0.036-0.138,0.015-0.209,0.021c0-0.084,0-0.167,0-0.251
		c0.098-0.014,0.134,0.033,0.209,0.042C73.943,50.738,73.943,50.801,73.943,50.864z M73.943,50.362
		c-0.091,0.015-0.117-0.035-0.209-0.021c-0.008-0.196,0.021-0.354,0.209-0.354C73.943,50.112,73.943,50.237,73.943,50.362z
		 M73.943,49.507c-0.093-0.016-0.125,0.028-0.209,0.021c-0.04-0.057-0.012-0.182-0.02-0.271c0.076,0,0.152,0,0.229,0
		C73.943,49.341,73.943,49.424,73.943,49.507z M73.776,42.708c-0.037-0.095-0.015-0.25-0.021-0.377
		c0.278-0.111,0.16,0.225,0.208,0.397C73.881,42.743,73.846,42.708,73.776,42.708z M73.985,42.125
		c-0.087,0.001-0.131-0.037-0.229-0.021c0.015-0.243-0.037-0.551,0.042-0.73c0.042-0.013,0.137,0.025,0.146-0.021
		C74.039,41.527,73.958,41.879,73.985,42.125z M73.964,27.835c-0.236,0-0.473,0-0.708,0c0.047-0.395-0.121-0.888-0.021-1.251
		c0.013-0.047,0.268-0.365,0.355-0.397c0.118-0.041,0.274,0.032,0.416,0C74.009,26.753,74.001,27.309,73.964,27.835z M73.505,26.062
		c-0.088,0.064-0.185,0.121-0.249,0.209c-0.022-0.113,0.012-0.349,0.02-0.501c0.109-0.011,0.155,0.04,0.25,0.042
		C73.498,25.875,73.505,25.971,73.505,26.062z M74.027,24.645c-0.134-0.016-0.213,0.024-0.334,0.021
		c-0.094-0.336,0.226-0.386,0.334-0.584C74.036,24.195,74.021,24.464,74.027,24.645z M73.776,24.081
		c-0.139,0.154-0.203,0.321-0.501,0.292c0.016-0.349-0.034-0.633-0.02-0.98c0.268-0.009,0.521-0.034,0.771-0.062
		C74.093,23.768,73.979,23.855,73.776,24.081z M73.256,23.184c-0.024-0.248,0.071-0.614-0.146-0.667
		c-0.071,0.179-0.03,0.47-0.084,0.667c-0.174,0.014-0.284-0.035-0.459-0.021c-0.049-0.172,0.029-0.475-0.146-0.521
		c0.026-0.099,0.033-0.217,0.062-0.313c0.452,0.02,0.963-0.021,1.419-0.021c0.114,0,0.34-0.062,0.355,0.105
		c-0.018,0.08-0.143,0.052-0.188,0.104c-0.004,0.217-0.033,0.411-0.021,0.646C73.763,23.149,73.524,23.183,73.256,23.184z
		 M74.444,85.322c-0.104,0-0.209,0-0.313,0c-0.006-1.892-0.059-3.737-0.062-5.632c-0.001-0.029-0.003-0.06,0.021-0.063
		c0.119,0,0.237,0,0.355,0C74.444,81.526,74.444,83.423,74.444,85.322z M74.902,71.784c-0.127,0.047-0.295,0.053-0.438,0.084
		c-0.013-0.044,0.025-0.137-0.021-0.146C74.574,71.684,74.749,71.777,74.902,71.784z M74.486,75.227
		c0.071-0.292,0.449-0.436,0.542-0.689c0.273,0.221,0.469,0.519,0.73,0.752c-0.209,0.291-0.432,0.569-0.647,0.855
		c-0.212,0.017-0.42,0.038-0.625,0.062C74.539,75.829,74.412,75.522,74.486,75.227z M74.841,76.479
		c0.023,0.124-0.24,0.314-0.313,0.479c-0.064-0.127,0.021-0.284,0-0.438C74.626,76.5,74.749,76.506,74.841,76.479z M74.507,77.333
		c0.066-0.317,0.432-0.511,0.5-0.793c0.192,0.135,0.362,0.292,0.522,0.459c0.007,0.507,0.054,0.976,0.062,1.481
		c-0.361,0-0.723,0-1.084,0C74.561,78.045,74.432,77.688,74.507,77.333z M74.861,85.322c-0.024-1.895-0.023-3.815-0.062-5.695
		c0.742-0.014,1.479-0.036,2.231-0.041c0.115,1.923,0.269,3.807,0.376,5.736C76.558,85.322,75.71,85.322,74.861,85.322z
		 M77.364,76.479c-0.1-0.667-0.178-1.353-0.25-2.045c0.057,0.02,0.089,0.064,0.146,0.084c-0.036,0.217,0.058,0.304,0.166,0.374
		C77.398,75.414,77.396,75.962,77.364,76.479z M77.802,84.57c-0.129-1.615-0.276-3.324-0.354-4.922c0.028,0,0.056,0,0.084,0
		c0.118,0.629,0.134,1.308,0.188,1.981C77.799,82.623,77.938,83.589,77.802,84.57z"/>
</g>
</svg>
