<?xml version="1.0" encoding="utf-8"?>
<!-- Generator: Adobe Illustrator 15.0.2, SVG Export Plug-In . SVG Version: 6.00 Build 0)  -->
<!DOCTYPE svg PUBLIC "-//W3C//DTD SVG 1.1//EN" "http://www.w3.org/Graphics/SVG/1.1/DTD/svg11.dtd">
<svg version="1.1" id="Ebene_1" xmlns="http://www.w3.org/2000/svg" xmlns:xlink="http://www.w3.org/1999/xlink" x="0px" y="0px"
	 width="100px" height="100px" viewBox="0 0 100 100" enable-background="new 0 0 100 100" xml:space="preserve">
<circle fill="#B2B2B2" cx="50" cy="50" r="50"/>
<path d="M22.611,46.03v1.279c0,0.328,0.275,0.604,0.639,0.679l0.235,2.259c-0.211,0.16-0.741,0.599-0.741,0.998
	c0,0.399,0.185,0.699,0.626,0.699c0.441,0,0.801-0.396,0.801-0.889c0-0.137-0.123-0.022-0.214,0.016
	c-0.117,0.852-0.951,0.607-0.896,0.076c0.04-0.396,0.547-0.444,0.692-0.861c0.188-0.535,0.022-1.468,0.022-2.313
	c0.332-0.092,0.571-0.354,0.571-0.662v-1.279c0-0.384-0.374-0.698-0.832-0.698h-0.01L22.905,26h-0.17l0.653,19.333
	C22.955,45.357,22.611,45.662,22.611,46.03z"/>
<path d="M21.695,59.561v0.072l-0.647,0.984c-0.031,0.014-0.052,0.045-0.051,0.08l0.067,4.572c0.002-0.15,0.009-0.252,0.021-0.252
	v1.614c0-0.005,0-0.018,0-0.022v0.043h5.681h0.263h0.35v-6.946v-0.146h-0.172l-3.39-6.401l-0.056-0.136l-0.025,0.007v-1.106h-0.196
	v1.025l-0.005-0.002l-1.715,6.613H21.695z M22.017,65.018H21.44l-0.088-3.999h0.665V65.018z M22.017,60.845h-0.669l-0.002-0.147
	l0.611-0.991h0.061V60.845z M26.764,65.018h-4.66v-3.999h4.66V65.018z M26.764,60.845h-4.66v-0.929l0.045-0.21h4.313l0.092,0.228
	l0.034-0.009L26.5,59.706h0.263L26.764,60.845L26.764,60.845z M22.104,59.75v-0.044h0.008L22.104,59.75z M27.167,59.561h-0.728
	l-2.488-6.072L27.167,59.561z M23.735,53.051l0.001,0.004h-0.001V53.051z M23.564,53.111h0.17v-0.033l0.049,0.096l2.618,6.387
	h-4.222L23.564,53.111z M23.532,53.096l-1.389,6.465h-0.288L23.532,53.096z"/>
<path d="M78.729,26.636l-5.332-0.235l-11.455-6.754l-0.426,0.083l-0.029,0.008l-0.006,0.053l-0.005,0.032
	c0,0-6.923,1.281-11.568,1.987c-4.024,0.61-15.028,2.225-17.904,2.648l-4.777-0.211l-9.778-0.426l-0.003,0.047l9.773,0.427
	l4.535,0.199l-0.448,0.066l1.027-0.041l16.083,0.71l0.004-0.049l-15.83-0.697c1.305-0.181,7.159-0.997,8.871-1.27
	c1.93-0.309,7.148-0.931,7.797-1.167c0.648-0.235,3.912-0.658,5.457-0.879c1.544-0.221,4.315-0.793,5.527-0.967l1.215-0.176
	l-0.021,0.2l-0.166,1.69l-0.062-0.003c-0.002,0.027-0.002,0.057-0.004,0.086l0.054,0.027l-0.021,0.214l-0.016,0.056l-0.036,0.132
	l-0.021,0.454l-0.004-0.003l-0.021,0.106l0.018,0.013v0.008l-0.403,0.086l0.356,0.922l-0.008,0.134h-0.021l0.016,0.078l-0.006,0.033
	l0.006,0.007l-0.028,0.611l-0.004-0.002l-0.021,0.104l0.019,0.013l-0.041,0.869l-0.385-0.016l-0.479-1.16l-0.013,0.322l0.071,0.176
	l-0.077-0.049l-0.006,0.188l0.014-0.002v0.002l-0.015,0.021l-0.007,0.179l0.147-0.203l0.177,0.42l-0.324-0.21l-0.007,0.1
	l0.281,0.166l-0.066,0.037l-0.178-0.009l-0.039-0.092l-0.004,0.09l-2.583-0.113l-9.78-0.428l-0.002,0.047l0.232,0.011l-0.073,0.005
	l-6.089-0.295l-0.107-0.031l-0.09-0.002l-0.206-0.018l-0.032,0.025l-2.805-0.136l-7.071-0.298l-0.11-0.026l-0.091-0.001
	l-0.203-0.016l-0.033,0.024l-2.806-0.128l-0.135-0.033h-0.092l-0.205-0.017l-0.041,0.029l-0.583-0.027v0.005l-5.677-0.258
	l-0.11-0.026l-0.092-0.001l-0.205-0.016l-0.032,0.024l-2.806-0.127l-0.136-0.032l-0.092-0.002l-0.203-0.015l-0.04,0.029
	l-0.382-0.019l-0.003,0.059l0.308,0.014l-0.066,0.046c-0.036-0.018-0.074-0.027-0.117-0.031c-0.043-0.002-0.085,0.002-0.129,0.016
	l-0.112,1.5c0.018-0.004,0.034-0.009,0.051-0.015c2.102,0.114,4.205,0.228,6.307,0.342l0.043,0.044l0.206,0.006l0.093,0.009
	l0.208-0.03c0.794,0.043,1.589,0.086,2.382,0.13c0.146,0.201,0.503,0.09,0.73,0.007c2.104,0.114,4.205,0.228,6.306,0.343
	l0.044,0.045l0.207,0.008l0.094,0.009l0.208-0.032c0.794,0.045,1.588,0.088,2.381,0.131c0.137,0.198,0.804,0.16,1.125,0.062
	c0.044-0.017,0.056-0.02,0.066-0.021c0.007-0.005,0.004-0.004,0.019-0.013c2.022,0.116,4.15,0.156,6.172,0.273l0.043,0.046
	l0.207,0.008l0.093,0.009l0.208-0.031c0.795,0.046,1.587,0.092,2.381,0.137c0.139,0.198,0.803,0.161,1.124,0.065l0.262,0.015
	l0.005-0.063l-0.136-0.008c0.006-0.003,0.013-0.008,0.017-0.013l5.821,0.315l0.043,0.045l0.207,0.006l0.095,0.01l0.207-0.031
	c0.795,0.044,1.588,0.086,2.381,0.13c0.146,0.201,0.504,0.09,0.733,0.006l2.442,0.133l0.326,0.769l0.066-0.076L60.467,28.3
	l0.254-0.068l0.114-0.029l0.056,0.125l-0.385-0.026l-0.14,3.653l0.364,0.025l-0.012,0.28c-0.015-0.001-0.027-0.001-0.043-0.001
	c-0.429-0.007-0.213,0.687-0.021,0.759c0.009,0.003,0.02,0.006,0.028,0.01c-0.026,0.656-0.056,1.312-0.081,1.967l-0.028,0.006
	c0,0,0.006,0.079,0.022,0.187c-0.009,0.207-0.017,0.412-0.022,0.617l-0.037-0.008l-0.019,0.108l0.049,0.015
	c-0.041,1.127-0.079,2.255-0.111,3.385l-0.025,0.005l0.006,0.107l0.019-0.002c-0.021,0.668-0.036,1.338-0.051,2.007
	c-0.049,0.052-0.076,0.109-0.078,0.172c-0.005,0.066,0.022,0.131,0.069,0.188c-0.008,0.458-0.015,0.916-0.025,1.373
	c-0.174,0.107-0.118,0.429-0.01,0.624c-0.007,0.457-0.016,0.914-0.022,1.371l-0.052,0.039l0.011,0.103l-0.004,0.046l0.041,0.072
	c-0.016,0.94-0.028,1.879-0.041,2.819c-0.023,0.025-0.036,0.052-0.038,0.081c-0.003,0.03,0.01,0.061,0.036,0.092
	c-0.019,1.328-0.034,2.656-0.055,3.984l-0.054,0.029l0.004,0.131l-0.006,0.059l0.051,0.127c-0.006,0.505-0.014,1.004-0.022,1.506
	c-0.249,0.102-0.083,0.322,0.039,0.462c-0.021,1.327-0.039,2.655-0.057,3.982l-0.057,0.029l0.004,0.131l-0.007,0.059l0.054,0.129
	c-0.006,0.503-0.013,1.005-0.021,1.506c-0.249,0.097-0.157,0.513-0.011,0.71c0.022,0.025,0.026,0.032,0.029,0.038
	c0.008,0.005,0.005,0.002,0.019,0.013c-0.026,1.278,0.054,2.619,0.027,3.897l-0.056,0.028l0.002,0.131l-0.009,0.06l0.055,0.129
	c-0.012,0.502-0.02,1.004-0.03,1.506c-0.251,0.096-0.161,0.513-0.016,0.71l-0.004,0.165h0.081l0.003-0.086
	c0,0.002,0.002,0.004,0.006,0.005c-0.015,1.134-0.029,2.268-0.045,3.402l-0.056,0.031l0.004,0.13l-0.006,0.059l0.051,0.129
	c-0.006,0.501-0.015,1.003-0.02,1.505c-0.253,0.1-0.086,0.32,0.036,0.462c-0.021,1.327-0.036,2.655-0.055,3.982l-0.058,0.03
	l0.004,0.129l-0.007,0.06l0.054,0.129c-0.006,0.504-0.015,1.004-0.022,1.506c-0.247,0.096-0.157,0.513-0.011,0.71
	c0.027,0.029,0.033,0.04,0.035,0.045c0.005,0.004,0.003,0.002,0.013,0.008c-0.025,1.28,0.053,2.617,0.026,3.897l-0.056,0.028
	l0.002,0.131l-0.006,0.059l0.053,0.13c-0.011,0.502-0.021,1.002-0.029,1.504c-0.25,0.096-0.161,0.515-0.018,0.71l-0.003,0.165h0.081
	l0.001-0.084c0.014,0.007,0.024,0.013,0.034,0.019c0.061,0.02,0.129,0.045,0.217,0.067h0.785c0.145-0.026,0.294-0.054,0.436-0.078
	v0.078h0.079l0.001-0.095c0.23-0.042,0.435-0.078,0.552-0.101v0.195h0.08v-0.21c0.018-0.005,0.026-0.006,0.026-0.006l-0.026-0.099
	l0.008-3.846l0.026-0.069l-0.004-0.059l0.009-0.129l-0.031-0.019l0.002-1.773l-0.049-4.462l0.026-0.07l-0.004-0.058l0.008-0.128
	l-0.032-0.021l-0.008-1.771l0.032-0.086l-0.003-0.06l0.007-0.127l-0.039-0.023l-0.002-0.368h-0.006l-0.016-3.586l0.026-0.069
	l-0.005-0.059l0.009-0.13l-0.031-0.018l-0.007-1.774l0.012-0.034l0.009-0.003l0.082-0.014l0.011-0.004l0.045,5.69l0.099,13.385
	h0.062L62.563,73.4l-0.053-6.173l0.069-12.688l-0.088-10.749l0.054-0.01l-0.056-0.215l-0.09-8.11
	c0.049-0.007,0.078-0.012,0.078-0.012l-0.08-0.207l-0.024-2.315l0.204-0.039l-0.131-0.501c0,0-0.029-0.003-0.079-0.01l-0.004-0.277
	l0.234,0.018l0.029-0.785l0.425,23.21l-0.016,6.513l-0.045,6.177l0.142,6.172l0.064,6.511l0.154,6.874h0.061l-0.152-6.874
	l-0.064-6.511l-0.142-6.172l0.045-6.177l0.034-6.513l-0.472-24.122l0.075-1.956l-0.13-0.01l-0.019-0.674l1.364,0.075l0.043,0.046
	l0.206,0.006l0.095,0.01l0.208-0.032c0.794,0.045,1.587,0.088,2.38,0.13c0.14,0.198,0.804,0.161,1.125,0.063
	c0.043-0.017,0.058-0.02,0.065-0.022c0.009-0.004,0.005-0.003,0.019-0.011c2.025,0.115,4.151,0.156,6.174,0.272l0.041,0.045
	l0.21,0.009l0.09,0.009l0.209-0.031c0.794,0.045,1.589,0.092,2.382,0.137c0.137,0.2,0.801,0.162,1.124,0.066l0.26,0.015l0.004-0.063
	l-0.133-0.007c0.011-0.009,0.022-0.017,0.03-0.026c0.036-0.043,0.079-0.095,0.118-0.161l0.045-0.605
	c-0.032-0.112-0.066-0.229-0.099-0.342l0.123,0.006l0.004-0.061l-0.147-0.009c-0.053-0.18-0.1-0.339-0.128-0.432l0.307,0.016
	l0.005-0.062l-0.333-0.016c-0.002-0.014-0.004-0.021-0.004-0.021l-0.161,0.013l-4.527-0.22l-0.206-0.122l5.241,0.231L78.729,26.636z
	 M24.574,24.336l-0.514,0.367l-0.189-0.008l-2.028-0.483L24.574,24.336z M21.336,24.188l0.19,0.01l2.021,0.479l-2.701-0.137
	L21.336,24.188z M21.015,24.175l-0.485,0.347l-1.931-0.458L21.015,24.175z M18.062,24.04l0.223,0.011l1.928,0.457l-2.315-0.117
	c-0.018-0.067-0.041-0.127-0.073-0.18L18.062,24.04z M19.895,24.551l-1.036,0.36l-0.59-0.441L19.895,24.551z M18.043,24.456
	l-0.132,0.047c-0.001-0.018-0.003-0.037-0.006-0.052L18.043,24.456z M17.889,24.836c0.02-0.086,0.028-0.168,0.028-0.245l0.21-0.074
	l0.589,0.443l-0.24,0.086l0.197,0.021l0.126-0.044l0.092,0.068h0.209l-0.161-0.118l1.068-0.37l0.663,0.499l-0.173,0.074
	l-0.948-0.047l-0.008-0.008l-0.242-0.014l0.01,0.011l-1.486-0.073C17.851,24.978,17.873,24.909,17.889,24.836z M17.482,25.486
	c0.091-0.059,0.175-0.148,0.244-0.257l0.508-0.067l-0.214-0.028l-0.259,0.032c0.012-0.019,0.023-0.042,0.034-0.064l1.572,0.077
	l0.397,0.431L17.482,25.486z M20.129,25.629l2.355-0.296c-0.182-0.009-0.364-0.02-0.547-0.027l-1.958,0.286l-0.372-0.401
	c0.776,0.039,1.554,0.077,2.33,0.115h0.002l0.547,0.027h-0.002c0.225,0.011,0.448,0.021,0.674,0.032l0.455,0.455
	C22.45,25.756,21.291,25.691,20.129,25.629z M20.893,25.11l0.908-0.397l0.763,0.374l-0.474,0.163l0.065,0.007l-1.435-0.071
	l0.041-0.017l0.008,0.007h0.208L20.893,25.11z M22.798,25.091l0.823-0.284l0.743,0.559l-0.956-0.047l-0.007-0.007L23.089,25.3
	l0.003,0.003l-0.789-0.04l0.365-0.125l0.243,0.156l0.278,0.008L22.798,25.091z M24.185,25.85l-0.256-0.015l-0.456-0.455
	c0.971,0.048,1.941,0.097,2.912,0.144L24.185,25.85z M26.583,25.946c-0.001,0.012-0.001,0.022,0,0.037
	c-0.684-0.039-1.371-0.076-2.056-0.113l2.116-0.313C26.621,25.666,26.601,25.792,26.583,25.946z M26.659,25.479
	c-0.625-0.031-1.254-0.062-1.881-0.094l1.218-0.421l0.667,0.502L26.659,25.479z M26.777,24.989
	c-0.016,0.106-0.047,0.208-0.083,0.342l-0.562-0.42l0.076-0.039l-0.251-0.013l-1.379,0.506l-0.818-0.614h-0.071l-0.131-0.015
	l-0.865,0.302l-0.787-0.385l-0.141,0.002l-0.072-0.004l-0.89,0.389l-0.637-0.478l3.948,0.201l0.181,0.014l0.006-0.004l2.493,0.125
	C26.786,24.932,26.783,24.96,26.777,24.989z M26.805,24.843l-2.427-0.124l0.514-0.368l1.922,0.457L26.805,24.843z M26.827,24.75
	l-1.624-0.386l1.694,0.079C26.898,24.442,26.865,24.6,26.827,24.75z M34.546,24.788l-0.514,0.381l-0.187-0.01l-2.029-0.496
	L34.546,24.788z M31.312,24.641l0.189,0.009l2.02,0.493l-2.7-0.137L31.312,24.641z M30.991,24.625l-0.487,0.363l-1.931-0.472
	L30.991,24.625z M28.036,24.49l0.222,0.011l1.928,0.472l-2.317-0.118c-0.017-0.07-0.041-0.133-0.072-0.188L28.036,24.49z
	 M29.869,25.018l-1.038,0.375l-0.589-0.458L29.869,25.018z M28.018,24.924l-0.133,0.048c-0.001-0.019-0.003-0.038-0.006-0.055
	L28.018,24.924z M27.861,25.316c0.019-0.088,0.029-0.174,0.029-0.253l0.212-0.077l0.588,0.459l-0.34,0.114l0.188,0.011l0.232-0.06
	l0.093,0.072h0.208l-0.159-0.125l1.066-0.385l0.662,0.515l-0.171,0.078l-0.949-0.046l-0.008-0.008l-0.243-0.015l0.01,0.011
	l-1.487-0.073C27.823,25.462,27.844,25.391,27.861,25.316z M27.197,24.634l0.013-0.18l0.504,0.022l-0.063,0.047
	c-0.036-0.019-0.075-0.029-0.117-0.031C27.421,24.485,27.302,24.54,27.197,24.634z M27.452,25.991
	c0.09-0.06,0.175-0.152,0.245-0.267l0.657-0.102l-0.289-0.014l-0.332,0.053c0.012-0.023,0.023-0.045,0.034-0.068l0.298,0.015l0,0
	l0.289,0.014h-0.001l0.984,0.048l0.396,0.446L27.452,25.991z M30.098,26.136l2.002-0.273l-0.215-0.029l-1.937,0.264l-0.369-0.416
	c1.184,0.06,2.368,0.117,3.549,0.175l0.453,0.471C32.421,26.262,31.261,26.2,30.098,26.136z M30.863,25.597l0.91-0.414l0.761,0.385
	l-0.472,0.17l0.065,0.007l-1.434-0.072l0.041-0.017l0.011,0.007h0.208L30.863,25.597z M32.771,25.575l0.826-0.297l0.741,0.577
	l-0.956-0.047L33.374,25.8l-0.311-0.012l0.003,0.004l-0.789-0.039l0.363-0.133l0.233,0.116l0.212-0.002L32.771,25.575z
	 M34.154,26.357l-0.256-0.013l-0.455-0.473c0.971,0.049,1.942,0.097,2.911,0.146L34.154,26.357z M36.554,26.454
	c-0.001,0.014-0.001,0.024,0,0.035c-0.686-0.037-1.372-0.075-2.057-0.113l2.117-0.326C36.592,26.161,36.572,26.292,36.554,26.454z
	 M36.632,25.968c-0.627-0.031-1.254-0.063-1.88-0.094l1.218-0.439l0.667,0.518L36.632,25.968z M36.75,25.46
	c-0.015,0.109-0.048,0.215-0.083,0.358l-0.562-0.438h-0.072l-0.13-0.013l-1.355,0.489l-0.816-0.636h-0.07l-0.131-0.013l-0.866,0.313
	l-0.786-0.397l-0.141,0.002l-0.072-0.005l-0.892,0.405l-0.635-0.494l3.948,0.2l0.18,0.015l0.005-0.004l2.493,0.126
	C36.76,25.4,36.756,25.431,36.75,25.46z M36.779,25.309l-2.429-0.123l0.515-0.383l1.921,0.468L36.779,25.309z M36.801,25.212
	l-1.625-0.398l1.707,0.109C36.883,24.924,36.84,25.057,36.801,25.212z M44.861,25.252l-0.514,0.381l-0.188-0.011l-2.028-0.502
	L44.861,25.252z M41.626,25.095l0.191,0.009l2.018,0.5l-2.7-0.146L41.626,25.095z M41.306,25.079l-0.487,0.36l-1.932-0.477
	L41.306,25.079z M38.351,24.936l0.223,0.01l1.928,0.478l-2.316-0.125c-0.016-0.07-0.039-0.134-0.072-0.185L38.351,24.936z
	 M40.184,25.469l-1.037,0.372l-0.59-0.459L40.184,25.469z M38.334,25.37l-0.132,0.047c-0.003-0.019-0.004-0.038-0.009-0.056
	L38.334,25.37z M38.175,25.76c0.019-0.088,0.028-0.173,0.029-0.253l0.212-0.075l0.587,0.46l-0.323,0.115l0.104,0.004L38.959,26
	l0.125-0.045l0.092,0.073h0.21l-0.159-0.125l1.067-0.383l0.663,0.518l-0.171,0.076l-0.95-0.048l-0.008-0.011l-0.242-0.014
	l0.01,0.012l-0.809-0.043l-0.147,0.01l0.043-0.016l-0.572-0.029C38.136,25.908,38.158,25.835,38.175,25.76z M37.783,24.938
	l-0.002-0.003l0.026,0.001C37.801,24.936,37.791,24.937,37.783,24.938z M37.998,24.944l-0.033,0.024
	c-0.029-0.015-0.061-0.026-0.091-0.031L37.998,24.944z M37.883,26.524c0.017-0.021,0.086-0.125,0.101-0.15l0.013-0.18l0.016-0.024
	l0.681-0.098h-0.386l-0.259,0.034c0.011-0.021,0.023-0.045,0.034-0.066l1.573,0.083l0.461,0.518L37.883,26.524z M40.337,26.64
	l2.225-0.368c-0.149-0.007-0.297-0.015-0.446-0.022l-1.852,0.3l-0.369-0.417c0.741,0.039,1.481,0.077,2.221,0.117l0.149-0.024
	l0.297,0.047c0.293,0.016,0.586,0.031,0.88,0.046l0.451,0.47C42.735,26.722,41.497,26.706,40.337,26.64z M43.084,26.033l0.826-0.296
	l0.74,0.581l-0.955-0.049l-0.008-0.009l-0.311-0.013l0.002,0.004l-0.787-0.042l0.365-0.131l0.231,0.119l0.213-0.004L43.084,26.033z
	 M42.375,26.196l0.064,0.006l-1.174-0.085L41.18,26.05l0.909-0.412l0.759,0.387L42.375,26.196z M44.468,26.822l-0.255-0.015
	l-0.454-0.472c0.971,0.049,1.942,0.101,2.91,0.151L44.468,26.822z M46.867,26.925c-0.001,0.013-0.001,0.025,0,0.036
	c-0.686-0.04-1.372-0.081-2.055-0.119l2.118-0.322C46.905,26.632,46.885,26.765,46.867,26.925z M46.943,26.44
	c-0.625-0.034-1.252-0.068-1.879-0.1l1.217-0.437l0.666,0.521L46.943,26.44z M47.063,25.932c-0.016,0.109-0.048,0.215-0.082,0.356
	l-0.564-0.438h-0.071l-0.13-0.015l-1.354,0.487l-0.815-0.639h-0.073l-0.131-0.015l-0.866,0.311l-0.786-0.399l-0.142,0.002
	l-0.072-0.005l-0.891,0.402l-0.635-0.496l3.949,0.212l0.179,0.014l0.007-0.003l2.493,0.135
	C47.074,25.872,47.069,25.902,47.063,25.932z M47.091,25.779l-2.425-0.131l0.513-0.379l1.922,0.476L47.091,25.779z M47.197,25.396
	c0,0-0.045,0.133-0.083,0.29l-1.624-0.403l1.939,0.095L47.197,25.396z M69.611,24.317l3.39,2.065l-0.28-0.011l-3.183-1.95
	L69.611,24.317z M62.344,20.242l10.163,6.12l-9.969-0.438l-0.062-2.205l0.157-0.059l-0.169-0.379v-0.014H62.46l-0.169-0.378
	c0,0-0.015-0.001-0.042-0.002l-0.003-0.67h0.003l-0.003-0.021v-0.01l-0.006-0.065l0.031-0.013l-0.043-0.104v-0.021h-0.006
	l-0.021-0.049c-0.019-0.238-0.091-0.873-0.158-1.416L62.344,20.242z M62.344,61.271v0.081l-0.033-0.021
	C62.326,61.312,62.337,61.293,62.344,61.271z M62.337,61.215h0.007v0.017C62.343,61.226,62.338,61.221,62.337,61.215z M62.3,60.647
	c0,0-0.174-0.022-0.38-0.038l0.415-1.039L62.3,60.647z M62.323,80.133l0.001,0.08l-0.034-0.02
	C62.309,80.173,62.319,80.152,62.323,80.133z M62.316,80.075h0.007v0.018C62.321,80.088,62.319,80.081,62.316,80.075z
	 M62.281,79.509c0,0-0.175-0.023-0.379-0.037l0.412-1.042L62.281,79.509z M61.762,65.533l-0.021,1.575
	c-0.041-0.003-0.079-0.005-0.117-0.005c-0.144-0.007-0.283-0.021-0.468-0.036l0.534-0.376l-0.004-0.043l0.009-0.082l-0.713-0.831
	l0.776-0.543l-0.004-0.044l0.011-0.083l-0.457-0.531l0.47-0.514l-0.013-0.087l0.002-0.045l-0.572-0.543l0.603-0.423l-0.032,2.495
	l-0.009,0.113L61.762,65.533z M61.016,80.866l0.065,0.075l-0.088,0.064l0.012,0.131l0.151-0.106l0.564,0.655l-0.63,0.44
	l-0.112-0.105l0.006-0.601l0.011-0.004l0.006-0.153l-0.014,0.006l0.004-0.516l-0.021-0.088l0.021,0.023l0.004-0.358
	c0.091,0.014,0.185,0.024,0.284,0.03c0.115,0.009,0.226,0.009,0.331,0.005l0.11,0.129l-0.56,0.392l-0.168-0.197l-0.002,0.063
	L61.016,80.866z M60.966,83.657l-0.005,0.002l0.007-0.495l0.19,0.221l-0.137,0.153l0.017,0.132l0.189-0.206l0.433,0.505
	l-0.704,0.495l0.005-0.605l0.01-0.004L60.966,83.657z M61.221,83.315l-0.25-0.291l-0.004,0.041l0.036-0.742l0.083-0.061l0.587,0.555
	L61.221,83.315z M61.708,77.763L61.7,77.878l0.008,0.004l-0.013,1.575c-0.038-0.002-0.078-0.004-0.114-0.006
	c-0.144-0.002-0.285-0.021-0.47-0.034l0.531-0.376l-0.005-0.045l0.01-0.081l-0.719-0.83l0.771-0.544l-0.003-0.045l0.011-0.081
	l-0.459-0.531l0.465-0.515L61.7,76.281l0.003-0.045l-0.579-0.541l0.601-0.424L61.708,77.763z M60.884,80.459l-0.06-0.162
	c0.027,0.009,0.058,0.015,0.088,0.021l-0.011,0.991l-0.642,0.316l0.009-1.411c0.027,0.01,0.167,0.048,0.201,0.057h0.236l0.031,0.011
	l0.17,0.421L60.884,80.459z M60.901,61.6l-0.061-0.162c0.03,0.007,0.061,0.014,0.088,0.02l-0.002,0.381v0.007v-0.003l-0.005,0.607
	l-0.645,0.316l0.011-1.41c0.028,0.009,0.167,0.048,0.201,0.056h0.235l0.033,0.009l0.169,0.422v-0.004L60.901,61.6z M60.781,54.925
	c0.027,0.007,0.058,0.014,0.09,0.019l-0.003,0.992l-0.554,0.271l0.021-1.441c0.085,0.054,0.209,0.102,0.361,0.141l0.173,0.408
	v-0.183L60.781,54.925z M60.893,48.058c-0.107,0.006-0.204,0.018-0.287,0.035l-0.189-0.51l0.479-0.241L60.893,48.058z
	 M60.917,42.774l-0.338-0.241l0.343-0.076L60.917,42.774z M60.863,70.125l-0.001,0.226c-0.001,0.181-0.001,0.36-0.002,0.541
	l-0.558,0.307c0.009-0.733,0.02-1.467,0.03-2.2l0.527,1.471l0.001-0.118c0-0.075,0-0.152,0-0.228l-0.492-1.22l0.498-0.251
	c-0.001,0.49-0.004,0.982-0.006,1.471L60.863,70.125z M60.859,71.092c-0.001,0.614-0.003,1.226-0.006,1.84l-0.558-1.369v-0.163
	L60.859,71.092z M60.337,68.768l0.011-0.895c0.047,0.017,0.101,0.032,0.163,0.048h0.36l-0.002,0.578L60.337,68.768z M60.852,67.046
	c-0.146-0.01-0.319-0.018-0.528-0.021c-0.017,0-0.029,0.001-0.045,0.003c0.01-0.435,0.018-0.867,0.026-1.301L60.852,67.046z
	 M60.311,65.51l0.002-0.161l0.587-0.307c-0.007,0.615-0.014,1.228-0.021,1.841L60.311,65.51z M60.294,71.778l0.535,1.315
	c-0.143-0.009-0.308-0.016-0.511-0.019c-0.016,0-0.028,0-0.044,0.002C60.281,72.644,60.288,72.211,60.294,71.778z M60.315,73.626
	c0.085,0.054,0.208,0.103,0.36,0.141l0.172,0.408l0.002-0.11v-0.073l-0.088-0.204c0.028,0.006,0.059,0.012,0.088,0.017v0.188v0.001
	v0.072l-0.002,0.732l-0.554,0.271L60.315,73.626z M60.905,64.285c-0.002,0.186-0.004,0.371-0.006,0.557l-0.583,0.307
	c0.017-0.733-0.042-1.512-0.026-2.245L60.905,64.285c0.001-0.094,0.002-0.187,0.002-0.281l-0.504-1.151l0.519-0.253
	c-0.006,0.47-0.01,0.938-0.015,1.404l0.041,0.093L60.905,64.285z M60.944,58.285l-0.003,0.002V57.79l0.193,0.223l-0.137,0.151
	l0.019,0.132l0.187-0.207l0.438,0.506l-0.703,0.496l0.002-0.606l0.01-0.004L60.944,58.285z M60.948,55.895l0.002-0.468l0.094,0.142
	l-0.089,0.063l0.013,0.132l0.152-0.107l0.566,0.655l-0.628,0.438l-0.11-0.103v-0.599l0.011-0.006l0.004-0.154L60.948,55.895z
	 M60.965,52.049L60.965,52.049l-0.004-0.062l-0.003,0.002v-0.102l0.003,0.1h0.001L60.965,52.049l0.247-0.256l0.423,0.504
	l-0.678,0.494l0.002-0.603l0.01-0.007L60.965,52.049z M60.968,49.598l0.002-0.938c0.087,0.014,0.178,0.025,0.273,0.031
	c0.11,0.007,0.218,0.01,0.317,0.005l0.108,0.13l-0.536,0.392L61.01,49.07l-0.017,0.125l0.065,0.077l-0.085,0.062l0.011,0.133
	l0.146-0.107l0.547,0.654l-0.605,0.441l-0.107-0.104l0.002-0.601l0.012-0.005l0.004-0.153L60.968,49.598z M60.977,47.148
	c0.002-0.663,0.004-1.326,0.008-1.99l0.777,0.75l-0.003,0.473l-0.004-0.003l-0.007,0.068L61.044,45.6l-0.017,0.125l0.683,0.818
	l-0.605,0.44l-0.113-0.111l-0.009,0.135l0.039,0.036l-0.008,0.006l0.012,0.132l0.078-0.058l0.572,0.552l-0.34,0.391
	c-0.023,0-0.046-0.002-0.068-0.004c-0.041-0.004-0.083-0.004-0.123-0.006l-0.144-0.172l-0.014,0.125l0.038,0.045
	c-0.02,0-0.034,0-0.055,0l0.006-0.754l0.027-0.016l0.005-0.152L60.977,47.148z M60.755,27.071l0.057,0.034L60.78,27.12l-0.078-0.004
	l-0.018-0.038l-0.04-0.097l0.084-0.115l0.223,0.175l-0.045,0.021l-0.186-0.121L60.755,27.071z M60.873,26.398l-0.142-0.342
	l0.284,0.013l-0.012,0.232L60.873,26.398z M60.916,26.852l-0.113-0.088l0.049-0.067L60.916,26.852z M60.579,26.589L60.579,26.589
	l-0.133-0.102l0.243,0.013l0.025,0.018L60.579,26.589z M60.768,26.644l-0.043,0.058l-0.058-0.043L60.768,26.644z M60.412,26.423
	l-0.007-0.017l0.089,0.021L60.412,26.423z M60.378,26.337l-0.015-0.031l0.081,0.046L60.378,26.337z M60.346,27.034l0.026,0.064
	l-0.037-0.001L60.346,27.034z M60.339,26.245L60.339,26.245l0.005,0.013L60.339,26.245z M60.294,26.14l-0.045-0.107l0.117,0.006
	L60.294,26.14z M60.314,26.959l-0.012-0.017l0.004-0.001L60.314,26.959z M60.323,27.159l0.078,0.004l0.039,0.092l-0.163,0.172
	L60.323,27.159z M60.479,27.345l0.054,0.131l-0.199,0.051L60.479,27.345z M60.502,27.579l0.071-0.011v0.006l-0.005,0.026
	l-0.124-0.006L60.502,27.579z M60.534,26.717l0.114,0.089L60.6,26.874L60.534,26.717z M60.922,26.511l0.069,0.004l-0.007,0.153
	L60.922,26.511z M60.993,28.163l0.043-0.011l-0.032-0.059l0.046-0.136l-0.041-0.102l0.002-0.059l0.261,0.156l-0.004,0.063
	l-0.077,0.042l-0.09,0.098l0.163-0.026l-0.004,0.143l-0.059,0.076l-0.217-0.014L60.993,28.163z M61.174,27.051l0.129-0.058
	l0.002,0.001l-0.007,0.151l-0.118-0.007l-0.008-0.018h0.088L61.174,27.051z M61.85,32.06l-0.003,0.27c-0.006,0-0.013,0-0.019,0
	c-0.173-0.006-0.344-0.03-0.622-0.049l0.011-0.265L61.85,32.06z M61.321,26.47l-0.195-0.009l0.183-0.135l0.019,0.017L61.321,26.47z
	 M61.426,28.212l0.125-0.169l-0.12-0.079l-0.079-0.052l0.002-0.092l0.021-0.112l0.104,0.005l0.397,0.276l-0.003,0.29l-0.346,0.092
	l-0.191-0.011l0.001-0.024L61.426,28.212z M61.343,28.158v-0.041l0.032-0.004L61.343,28.158z M62.223,34.722
	c-0.011-0.014-0.023-0.024-0.041-0.035l0.028,0.001l-0.026-0.121l-0.274-0.011l0.002-0.388l0.312,0.317V34.722z M62.227,35.485
	v0.306l-0.255-0.263C62.063,35.512,62.151,35.497,62.227,35.485z M61.984,34.681c-0.02,0.004-0.039,0.009-0.062,0.017l-0.013,0.004
	v-0.025L61.984,34.681z M62.227,35.908l0.007,1.118l-0.342-0.015l0.011-1.436L62.227,35.908z M62.233,37.143l0.003,1.101
	l-0.35-0.374l0.008-0.742L62.233,37.143z M62.434,27.199l-0.123-0.004l-0.005-0.443l0.197,0.1l0.009,0.292l-0.14,0.052
	L62.434,27.199z M61.697,71.584l-0.008,1.045l0.001,0.002l-0.001,0.158l-0.001-0.001l-0.002,0.37
	c-0.038-0.001-0.076-0.004-0.114-0.005c-0.137-0.006-0.272-0.021-0.45-0.036l0.513-0.375l0.054,0.046l0.001-0.159l-0.743-0.845
	l0.745-0.543l-0.004-0.044l0.008-0.083l-0.442-0.532l0.45-0.513l-0.013-0.088l0.002-0.045l-0.558-0.542l0.577-0.423l-0.017,2.494
	L61.69,71.58L61.697,71.584z M61.025,74.432l-0.09,0.062l0.013,0.132l0.152-0.107l0.566,0.654l-0.625,0.44l-0.113-0.105l0.003-0.599
	l0.01-0.005l0.003-0.156l-0.013,0.009l0.002-0.47h-0.002l0.002-0.08l0.002-0.39c0.088,0.013,0.183,0.026,0.283,0.032
	c0.113,0.007,0.225,0.008,0.329,0.005l0.112,0.129l-0.558,0.392l-0.167-0.208l-0.002,0.039v0.081L61.025,74.432z M60.956,75.812
	l0.082-0.061l0.593,0.556l-0.453,0.496l-0.251-0.29l-0.004,0.041l0.004-0.905l0.023,0.024l-0.009,0.008L60.956,75.812z
	 M60.944,70.908L60.944,70.908l-0.003-0.062l-0.002,0.003v-0.104l0.002,0.102L60.944,70.908l0.25-0.254l0.421,0.505l-0.678,0.493
	v-0.604l0.012-0.004L60.944,70.908z M60.972,69.515l0.08-0.06l0.57,0.554l-0.434,0.496l-0.242-0.289l-0.005,0.04l0.003-0.904
	l0.024,0.023l-0.01,0.006L60.972,69.515z M61.126,70.576l-0.187,0.158l0.002-0.382L61.126,70.576z M60.932,73.103
	c0.002-0.396,0.004-0.794,0.004-1.188l0.623,0.745l-0.61,0.444L60.932,73.103z M61.111,68.079l-0.122-0.147l-0.013,0.124
	l0.064,0.077l-0.086,0.062l0.012,0.131l0.146-0.106l0.545,0.655l-0.604,0.438l-0.109-0.104l0.004-0.601l0.01-0.005l0.004-0.156
	l-0.014,0.009l0.002-0.538h0.346l0.045-0.008L61.111,68.079z M61.594,67.867l0.127-0.022L61.714,68.8l-0.53-0.633L61.594,67.867z
	 M60.958,67.052c0.004-0.396,0.01-0.793,0.013-1.188l0.641,0.747l-0.633,0.443L60.958,67.052z M60.984,64.798l-0.004,0.001
	l0.007-0.496l0.188,0.222l-0.138,0.151l0.02,0.135l0.188-0.207l0.435,0.504l-0.706,0.496l0.007-0.606l0.011-0.004L60.984,64.798z
	 M61.242,64.455l-0.251-0.29l-0.004,0.041l0.036-0.743l0.081-0.06l0.588,0.556L61.242,64.455z M60.998,63.161l0.005-0.601
	l0.01-0.005l0.007-0.154l-0.016,0.007l0.005-0.513l-0.021-0.09l0.022,0.025l0.003-0.362c0.089,0.016,0.186,0.025,0.285,0.03
	c0.114,0.011,0.226,0.011,0.328,0.007l0.112,0.13l-0.561,0.391l-0.167-0.197l-0.001,0.065l0.026,0.109l0.065,0.076l-0.089,0.063
	l0.013,0.131l0.152-0.108l0.562,0.656l-0.629,0.442L60.998,63.161z M61.657,60.137l0.01-0.083l-0.719-0.83l0.771-0.545l-0.003-0.043
	l0.009-0.083l-0.459-0.529l0.467-0.516l-0.014-0.087l0.002-0.046l-0.577-0.542l0.601-0.424l-0.02,2.497l-0.006,0.113l0.006,0.003
	l-0.009,1.576c-0.04-0.003-0.08-0.005-0.119-0.005c-0.143-0.006-0.281-0.021-0.468-0.036l0.533-0.375L61.657,60.137z M60.966,52.926
	l0.746-0.545l-0.004-0.045l0.008-0.082l-0.441-0.531l0.446-0.514l-0.009-0.089v-0.045l-0.558-0.542l0.579-0.423l-0.018,2.494
	l-0.006,0.114l0.006,0.004l-0.006,1.049v0.156h-0.002l-0.003,0.369c-0.038-0.002-0.077-0.004-0.113-0.004
	c-0.139-0.007-0.273-0.021-0.45-0.037l0.513-0.375l0.054,0.047l0.002-0.156V53.77L60.966,52.926z M61.189,47.062l0.565-0.414
	l-0.008,1.027l-0.002-0.026l0.001-0.045L61.189,47.062z M61.747,47.747l-0.002,0.386c-0.088-0.021-0.185-0.04-0.286-0.053
	L61.747,47.747z M61.741,48.684v0.088l-0.068-0.081C61.697,48.688,61.719,48.686,61.741,48.684z M61.74,48.914l-0.006,1.027
	l-0.531-0.637L61.74,48.914z M61.755,54.981l-0.002,0.088l-0.069-0.08C61.708,54.986,61.731,54.984,61.755,54.981z M61.75,55.211
	l-0.005,1.028l-0.549-0.636L61.75,55.211z M61.253,62.114l0.558-0.39L61.8,62.752L61.253,62.114z M61.744,61.5
	c0.023-0.001,0.046-0.003,0.07-0.008l-0.002,0.09L61.744,61.5z M61.762,45.789l-0.653-0.63l0.657,0.058L61.762,45.789z
	 M61.77,44.287l-0.457-0.276c0.041-0.005,0.084-0.012,0.131-0.02c0.108-0.021,0.219-0.041,0.328-0.062L61.77,44.287z M61.795,52.568
	V52.45l0.498-1.3l0.009,1.723L61.795,52.568z M62.3,53.075l-0.471,1.231l-0.047-0.004l0.011-1.533L62.3,53.075z M61.124,39.72
	l0.674,0.031l-0.005,0.683L61.124,39.72z M62.291,50.951l-0.495,1.293l0.013-1.705l0.482,0.292V50.951z M61.819,48.673
	c0.086-0.013,0.163-0.031,0.229-0.054l0.233,0.143l0.001,0.141l-0.475,1.234L61.819,48.673z M61.812,37.788l-0.649-0.694
	l0.651,0.031L61.812,37.788z M61.928,48.188l0.35-0.913l0.005,1.285l-0.064-0.039c0.021-0.024,0.031-0.049,0.032-0.075
	C62.257,48.353,62.13,48.259,61.928,48.188z M62.284,49.101l0.006,1.526l-0.479-0.289L62.284,49.101z M62.289,32.33l-0.001-0.24
	h0.018l0.003,0.259L62.289,32.33z M62.306,26.64l-0.002-0.057l0.193,0.01l0.004,0.148L62.306,26.64z M62.304,26.52L62.3,26.224
	l0.188,0.046l0.009,0.261L62.304,26.52z M62.3,26.161v-0.034l0.185,0.007l0.002,0.072L62.3,26.161z M62.3,26.062l-0.002-0.103
	l0.182,0.007l0.002,0.105L62.3,26.062z M62.298,25.913l-0.024-2.118l0.146-0.054l0.059,2.178L62.298,25.913z M62.276,46.895v0.184
	l-0.419,1.086c-0.011-0.004-0.022-0.009-0.035-0.011l0.009-1.527L62.276,46.895z M61.841,33.318l-0.004,0.476l-0.378-0.206
	L61.176,33.3v-0.003L61.841,33.318z M61.18,33.175l0.002-0.059c0.104-0.001,0.222-0.012,0.36-0.038
	c0.099-0.019,0.2-0.038,0.301-0.057v0.177L61.18,33.175z M61.836,33.925v0.049l-0.106-0.11L61.836,33.925z M61.219,33.457
	l-0.045-0.024v-0.021L61.219,33.457z M61.486,33.732l0.335,0.343l-0.674,0.231c0.009-0.251,0.016-0.5,0.021-0.749L61.486,33.732z
	 M61.835,34.191l-0.003,0.364l-0.689-0.024l0.002-0.102L61.835,34.191z M61.834,46.428l0.002-0.445l0.438,0.421v0.29L61.834,46.428z
	 M61.837,45.863l0.006-0.639l0.427,0.038l0.004,1.022L61.837,45.863z M61.843,45.105l0.002-0.327l0.423-0.02l0.002,0.382
	L61.843,45.105z M61.845,44.667v-0.21l0.324,0.196L61.845,44.667z M61.847,44.334l0.003-0.419c0.154-0.028,0.296-0.057,0.411-0.079
	l0.005,0.753L61.847,44.334z M61.854,43.199l0.007-0.949l0.395-0.088l0.002,1.07C62.15,43.221,61.999,43.206,61.854,43.199z
	 M61.86,42.148v-0.073c0.197-0.054,0.34-0.144,0.392-0.255l0.003,0.243L61.86,42.148z M61.919,41.338l0.024-0.006l-0.006-0.043
	l0.017-0.076l-0.087-0.061l0.002-0.514l0.314,0.333l0.026-0.094l-0.341-0.363l0.007-0.761l0.368,0.016l0.006,1.846
	C62.203,41.511,62.083,41.413,61.919,41.338z M61.876,27.872l-0.214-0.147l0.215,0.012L61.876,27.872z M62.24,39.652l-0.363-0.018
	l0.011-1.643l0.335,0.355l0.015-0.063l0.008,1.388L62.24,39.652z M61.878,27.39v0.126l-0.101-0.112L61.878,27.39z M61.731,27.353
	l-0.116-0.128l0.264,0.012l-0.001,0.097L61.731,27.353z M61.708,25.887l-0.287-0.015l0.004-0.126l0.296,0.135L61.708,25.887z
	 M61.872,25.952l0.016,0.007v0.088l-0.07-0.004l-0.109-0.026l-0.035-0.002L61.872,25.952z M61.577,25.929l-0.16,0.049l0.002-0.057
	L61.577,25.929z M61.622,26.097l0.188,0.007l0.075,0.02l-0.002,0.375l-0.17-0.008l-0.305-0.196l0.001-0.041L61.622,26.097z
	 M61.884,26.56v0.039l-0.064-0.041L61.884,26.56z M61.89,25.829l-0.045,0.013l-0.412-0.298l0.011-0.284l0.446,0.325V25.829z
	 M61.417,23.694l-0.033,0.013l-0.131-0.646l0.183,0.138L61.417,23.694z M61.401,24.123v0.018h-0.048L61.401,24.123z M61.401,26.418
	l0.062,0.06l-0.064-0.004L61.401,26.418z M61.527,26.543l0.082,0.08h-0.213l0.002-0.087L61.527,26.543z M61.609,26.743l-0.222,0.101
	l0.005-0.101H61.609z M61.768,26.781l0.115,0.112l-0.004,0.28l-0.323-0.018l-0.172-0.188v-0.011L61.768,26.781z M61.443,27.152
	l-0.067-0.004l0.002-0.069L61.443,27.152z M61.504,27.218l0.133,0.148l-0.268,0.038l0.006-0.191L61.504,27.218z M61.684,27.417
	l0.193,0.214v0.041l-0.315-0.018l-0.197-0.135l0.002-0.059L61.684,27.417z M61.294,27.314l-0.055-0.035h-0.001l-0.032-0.075
	l0.092,0.002L61.294,27.314z M61.307,26.88h-0.002l-0.123-0.137h0.131L61.307,26.88z M61.199,27.538l0.043,0.1l-0.111-0.007
	L61.199,27.538z M61.268,27.704l0.011,0.023l-0.005,0.136l-0.213-0.137l0.025-0.033L61.268,27.704z M61.141,34.652l0.69,0.024v0.05
	c-0.153,0.043-0.34,0.089-0.519,0.127l-0.173-0.179L61.141,34.652z M61.219,34.874l-0.088,0.017l0.004-0.103L61.219,34.874z
	 M61.826,35.555l-0.005,0.619l-0.717-0.211l0.007-0.246C61.305,35.661,61.577,35.603,61.826,35.555z M61.757,36.268l-0.667,0.401
	c0.006-0.198,0.01-0.396,0.013-0.594L61.757,36.268z M61.82,36.349l-0.006,0.659l-0.733-0.034l0.005-0.186L61.82,36.349z
	 M61.811,37.911l-0.007,1.062l-0.754-0.534c0.009-0.438,0.019-0.873,0.027-1.311L61.811,37.911z M61.729,39.045l-0.691,0.14
	c0.006-0.207,0.008-0.416,0.012-0.622L61.729,39.045z M61.804,39.137L61.8,39.633l-0.768-0.034l0.006-0.304L61.804,39.137z
	 M61.793,40.557l-0.003,0.542l-0.771-0.537c0.004-0.274,0.006-0.547,0.013-0.819L61.793,40.557z M61.789,41.23v0.009l-0.084,0.021
	c-0.117-0.033-0.246-0.056-0.386-0.064c-0.107-0.008-0.211-0.008-0.308,0.002c0.001-0.169,0.004-0.338,0.008-0.504L61.789,41.23z
	 M61.285,42.125c0.182,0.014,0.352,0.002,0.499-0.03v0.071l-0.782,0.173l0.002-0.253C61.093,42.104,61.188,42.119,61.285,42.125z
	 M61.782,42.266l-0.005,0.928c-0.012,0-0.021,0-0.03,0c-0.085-0.002-0.173-0.011-0.269-0.02l-0.48-0.342l0.004-0.392L61.782,42.266z
	 M61.203,43.149c-0.062-0.004-0.131-0.009-0.206-0.014v-0.134L61.203,43.149z M61.136,44.027l0.632,0.382v0.262l-0.78,0.032
	l0.002-0.673C61.036,44.03,61.083,44.03,61.136,44.027z M61.766,44.781v0.316l-0.783-0.067l0.002-0.216L61.766,44.781z
	 M60.989,50.515L60.98,50.52l0.011,0.133l0.079-0.059l0.57,0.553l-0.435,0.497l-0.24-0.292l-0.005,0.043l0.002-0.905L60.989,50.515z
	 M61.146,51.713l-0.188,0.16l0.002-0.382L61.146,51.713z M61.577,53.799l-0.608,0.444l-0.019-0.002
	c0.001-0.396,0.004-0.792,0.005-1.188L61.577,53.799z M60.951,54.957c0.091,0.014,0.185,0.026,0.284,0.031
	c0.116,0.009,0.226,0.009,0.328,0.007l0.114,0.13l-0.558,0.393l-0.169-0.209V54.957z M60.972,56.811l-0.01,0.009l0.015,0.132
	l0.081-0.06l0.591,0.554l-0.45,0.498l-0.25-0.292l-0.007,0.041l0.003-0.905L60.972,56.811z M61.581,60.099l-0.631,0.442
	l-0.019-0.001c0.002-0.396,0.004-0.793,0.004-1.19L61.581,60.099z M60.922,77.347l0.01-0.004l-0.005-0.197l-0.004,0.002l0.001-0.497
	l0.194,0.222l-0.14,0.153l0.021,0.135l0.187-0.207l0.437,0.504l-0.703,0.495L60.922,77.347z M61.176,74.465l0.558-0.392
	l-0.009,1.028L61.176,74.465z M61.665,73.849c0.022-0.001,0.047-0.003,0.069-0.004l-0.001,0.086L61.665,73.849z M61.771,71.631
	l0.51,0.304l-0.473,1.231l-0.045-0.004L61.771,71.631z M61.787,77.929l0.525,0.306l-0.489,1.229l-0.048-0.002L61.787,77.929z
	 M61.788,77.729v-0.12l0.518-1.3l0.007,1.723L61.788,77.729z M61.79,77.404l0.012-1.707l0.502,0.293l0.002,0.119L61.79,77.404z
	 M61.804,75.497l0.494-1.236l0.006,1.527L61.804,75.497z M62.296,74.062l-0.492,1.235l0.011-1.465
	c0.091-0.014,0.17-0.031,0.237-0.054l0.246,0.144v0.14H62.296z M62.227,73.682c0.022-0.023,0.034-0.05,0.034-0.075
	c0.002-0.073-0.071-0.144-0.203-0.206h0.234l0.002,0.318L62.227,73.682z M62.288,73.203c0,0-0.207-0.015-0.403-0.031l0.398-1.039
	l0.006,1.225L62.288,73.203z M61.774,71.43v-0.118l0.499-1.301l0.008,1.725L61.774,71.43z M62.273,69.812l-0.498,1.292l0.013-1.705
	l0.485,0.293V69.812z M61.79,69.201l0.476-1.237l0.006,1.526L61.79,69.201z M62.263,67.763l-0.473,1.236l0.008-1.078h0.015v-0.093
	l0.45-0.083V67.763z M61.821,67.113l0.021-1.532l0.523,0.303l-0.497,1.23L61.821,67.113z M61.796,60.601l0.011-1.532l0.526,0.303
	l-0.49,1.231L61.796,60.601z M61.807,58.865l0.002-0.117l0.517-1.301l0.008,1.723L61.807,58.865z M62.324,57.249l-0.516,1.292
	l0.012-1.705l0.504,0.294V57.249z M61.822,56.637l0.492-1.236l0.009,1.526L61.822,56.637z M62.314,55.202l-0.492,1.233l0.01-1.465
	c0.092-0.012,0.172-0.03,0.238-0.052l0.244,0.142V55.202L62.314,55.202z M62.248,54.819c0.021-0.022,0.032-0.049,0.033-0.076
	c0.003-0.071-0.071-0.144-0.202-0.205h0.231l0.002,0.318L62.248,54.819z M62.306,54.342c0,0-0.206-0.013-0.4-0.029l0.398-1.041
	l0.005,1.225L62.306,54.342z M62.3,34.98v-0.416l0.013,0.015l0.019-0.099L62.3,34.45l-0.008-1.512l0.022-0.004l0.023,2.18
	C62.321,35.069,62.311,35.023,62.3,34.98z M62.311,27.333l0.097-0.014l-0.097-0.013v-0.046l0.206,0.01l0.013,0.441l-0.213-0.013
	L62.311,27.333z M62.212,32.247l-0.163-0.175l0.161,0.012L62.212,32.247z M62.162,26.678l0.024,0.013l0.002,0.103l-0.082-0.054
	h0.066L62.162,26.678z M62.141,26.056l-0.152-0.11l0.195,0.01v0.103L62.141,26.056z M62.184,26.122v0.012l-0.058-0.015
	L62.184,26.122z M62.036,25.901l0.147-0.048v0.055L62.036,25.901z M61.988,22.219l0.011-0.004h0.17l0.004,0.668
	c-0.058-0.001-0.123,0-0.188,0.004L61.988,22.219z M61.98,23.905l0.194-0.073l0.003,0.322l-0.003-0.015h-0.199L61.98,23.905z
	 M61.976,24.26l0.202-0.001l0.004,1.086l-0.21-0.235L61.976,24.26z M61.971,25.226l0.211,0.236l0.002,0.216l-0.217-0.157
	L61.971,25.226z M61.966,25.64l0.158,0.114l-0.159,0.049L61.966,25.64z M61.965,25.994l0.132,0.062l-0.133-0.006L61.965,25.994z
	 M61.964,26.142l0.222,0.054l0.001,0.319l-0.226-0.011L61.964,26.142z M61.961,26.564l0.226,0.012v0.004l-0.001-0.001l-0.142,0.002
	l-0.069-0.004l-0.014,0.005V26.564z M61.959,26.97l0.221,0.218l-0.223-0.011L61.959,26.97z M61.957,27.24l0.232,0.011v0.039
	l-0.235,0.031L61.957,27.24z M61.954,27.379l0.235-0.032l0.002,0.342l-0.164-0.007l-0.073-0.08V27.379z M62.192,27.753v0.115
	l-0.107-0.119L62.192,27.753z M61.954,27.74h0.021l0.21,0.236l0.007-0.041l0.002,0.157l-0.242-0.167L61.954,27.74z M61.952,28.043
	l0.226,0.155l-0.228,0.062L61.952,28.043z M61.948,28.381l0.246-0.067l0.001,0.105l-0.247-0.018V28.381z M61.927,32.065h0.004
	l0.272,0.291c-0.086-0.009-0.185-0.016-0.279-0.023L61.927,32.065z M61.919,33.007c0.108-0.018,0.207-0.039,0.297-0.056v0.26
	l-0.297-0.011V33.007z M62.216,33.332l0.007,1.038l-0.229-0.235l0.152-0.053l-0.006-0.039l0.022-0.073l-0.247-0.135l0.003-0.516
	L62.216,33.332z M61.912,34.043v-0.077l0.089,0.047L61.912,34.043z M61.561,21.966c0.022-0.006,0.053-0.016,0.088-0.028
	l-0.086-0.004c0.038-0.436,0.072-0.86,0.072-0.86s0.155-0.159,0.223,0.016c0.045,0.115,0.055,0.563,0.056,0.869h-0.001v0.137
	l-0.363,0.001L61.561,21.966z M61.545,22.217l0.366-0.002l-0.004,0.682c-0.009,0.002-0.018,0.006-0.023,0.013l-0.35-0.389
	L61.545,22.217z M61.531,22.633l0.329,0.364c-0.003,0.077,0.02,0.186,0.045,0.278v0.16l-0.39-0.296L61.531,22.633z M61.511,23.257
	l0.345,0.263l-0.36,0.143L61.511,23.257z M61.484,24.094l0.416-0.158l-0.002,0.203l-0.418,0.002L61.484,24.094z M61.476,24.26h0.423
	l-0.004,0.765l-0.428-0.474L61.476,24.26z M61.892,25.14v0.324l-0.445-0.322l0.017-0.48L61.892,25.14z M61.46,22.421l-0.001,0.015
	l-0.011-0.012C61.45,22.423,61.454,22.422,61.46,22.421z M61.271,22.341l0.184,0.207l-0.017,0.533l-0.196-0.149L61.271,22.341z
	 M61.396,24.261l-0.006,0.206l-0.185-0.206H61.396z M61.176,24.344l0.212,0.233l-0.019,0.512l-0.223-0.161L61.176,24.344z
	 M61.143,25.044l0.224,0.161l-0.013,0.284l-0.225-0.164L61.143,25.044z M61.115,25.602l0.232,0.108l-0.005,0.16l-0.24-0.01
	L61.115,25.602z M61.101,25.907l0.24,0.01l-0.002,0.088L61.29,26.02l-0.193-0.008L61.101,25.907z M61.094,26.072l0.028,0.001
	l-0.029,0.01L61.094,26.072z M61.086,26.204l0.077-0.024v0.002l-0.077,0.057V26.204z M61.072,26.52l0.248,0.013l-0.003,0.09h-0.249
	L61.072,26.52z M61.066,26.64l0.013,0.062l-0.007,0.035l0.159,0.178l-0.12,0.056l-0.054-0.131L61.066,26.64z M61.036,27.24
	l0.053,0.03l0.003,0.006l0.008,0.02l-0.031,0.018l-0.032-0.022V27.24z M61.03,27.436l0.036-0.004l0.015,0.011l-0.051,0.007V27.436z
	 M61.106,27.497l-0.087,0.119l0.006-0.108L61.106,27.497z M61.023,25.904l-0.004,0.103l-0.313-0.014l-0.043-0.105L61.023,25.904z
	 M60.549,25.962l0.008,0.024l-0.026-0.001L60.549,25.962z M60.582,26.05l0.156,0.375l-0.042-0.009l-0.327-0.213l0.116-0.16
	L60.582,26.05z M60.455,25.919l-0.044,0.061l-0.187-0.01l-0.007-0.013L60.455,25.919z M60.262,25.87l-0.056,0.062l-0.025-0.064
	L60.262,25.87z M60.152,26.575l0.026,0.06l-0.096,0.101l-0.008,0.161l0.14-0.17l0.055,0.128l-0.194,0.049l-0.002,0.097l0.208-0.054
	l-0.021,0.147l-0.434-0.021l-0.006-0.008l-0.242-0.015l0.01,0.011l-0.743-0.037h-0.003l-0.139-0.006l-0.604-0.03
	c0.027-0.068,0.05-0.139,0.068-0.215c0.018-0.088,0.026-0.173,0.026-0.254l0.212-0.075l0.587,0.458l-0.338,0.115l0.048,0.002
	l0.139,0.006l0.233-0.06l0.093,0.072h0.208l-0.158-0.125L60.152,26.575z M60.098,26.331l-0.002,0.071v0.005l-1.918-0.096
	c-0.016-0.072-0.041-0.134-0.071-0.187l0.239-0.178l0.222,0.012L60.098,26.331z M58.881,25.97l1.229,0.057l-0.012,0.242
	L58.881,25.97z M58.325,26.38l-0.131,0.047c0-0.02-0.002-0.038-0.007-0.056L58.325,26.38z M59.14,26.85l-0.589-0.458l1.559,0.079
	l0.009,0.024L59.14,26.85z M48.127,25.426l-0.029-0.002l-0.004-0.015l0.054,0.002L48.127,25.426z M48.075,25.346l-0.002-0.01
	l9.454,0.413l2.589,0.114l-0.004,0.103l-1.54-0.071l-0.135-0.033l-0.093-0.001l-0.204-0.016l-0.038,0.029l-0.584-0.026v0.005
	l-5.679-0.258l-0.109-0.027l-0.093-0.001l-0.204-0.018l-0.029,0.024l-2.807-0.128l-0.136-0.033h-0.06l0.004-0.049L48.075,25.346z
	 M51.646,25.645l0.19,0.008l2.019,0.479l-2.698-0.137L51.646,25.645z M50.84,25.978l-1.933-0.458l2.417,0.109L50.84,25.978z
	 M52.152,25.668l2.729,0.125l-0.512,0.366l-0.188-0.011L52.152,25.668z M48.369,25.495l0.223,0.01l1.929,0.459l-2.151-0.109
	l0.002-0.006l-0.148-0.007l-0.06-0.199L48.369,25.495z M49.618,26.571l-1.297-0.064l0.02-0.262c-0.02-0.071-0.04-0.144-0.062-0.217
	l0.157-0.056l0.591,0.444l-0.242,0.083l0.196,0.021l0.126-0.043l0.094,0.07h0.209l-0.161-0.119l1.068-0.371l0.663,0.5l-0.172,0.075
	l-0.948-0.046l-0.008-0.009l-0.244-0.016L49.618,26.571z M48.255,25.947l-0.012-0.04l0.11,0.005L48.255,25.947z M48.579,25.925
	l1.625,0.082l-1.035,0.36L48.579,25.925z M48.217,26.963c0.026-0.032,0.054-0.07,0.079-0.114l0.015-0.202l0.234-0.031l-0.212-0.028
	l-0.017,0.002l0.002-0.022l1.36,0.066l0.396,0.431L48.217,26.963z M50.437,27.084l2.357-0.297c-0.183-0.009-0.365-0.018-0.547-0.026
	l-1.961,0.287l-0.371-0.402c0.779,0.039,1.556,0.077,2.332,0.116h0.002l0.547,0.026h-0.004c0.225,0.012,0.45,0.022,0.674,0.033
	l0.453,0.454C52.76,27.211,51.6,27.148,50.437,27.084z M51.2,26.566l0.907-0.396l0.763,0.371l-0.473,0.163l0.066,0.007l-1.437-0.07
	l0.042-0.019l0.01,0.007l0.207,0.001L51.2,26.566z M53.402,26.757l-0.169-0.008l0.166,0.006l0,0l0.099,0.003l-0.391-0.21
	l0.823-0.285l0.744,0.559l-0.957-0.047l-0.006-0.008l-0.213-0.007L53.4,26.756L53.402,26.757z M53.221,26.749l-0.607-0.03
	l0.365-0.126L53.221,26.749z M54.492,27.307l-0.255-0.015l-0.457-0.455c0.974,0.047,1.943,0.094,2.914,0.144L54.492,27.307z
	 M56.893,27.403c-0.001,0.012-0.001,0.023,0,0.035c-0.687-0.038-1.37-0.075-2.056-0.114l2.115-0.312
	C56.929,27.121,56.91,27.249,56.893,27.403z M56.968,26.934c-0.626-0.03-1.253-0.062-1.881-0.092l1.216-0.423l0.667,0.502
	L56.968,26.934z M57.088,26.444c-0.018,0.105-0.05,0.208-0.084,0.343l-0.563-0.42l0.074-0.039l-0.251-0.014l-1.38,0.507
	l-0.818-0.613h-0.068l-0.13-0.015l-0.866,0.301l-0.788-0.385l-0.142,0.003l-0.07-0.003l-0.891,0.388l-0.635-0.477l3.946,0.2
	l0.181,0.013l0.006-0.002l1.658,0.084l0,0l0.252,0.013h-0.003l0.585,0.03C57.094,26.387,57.092,26.417,57.088,26.444z
	 M57.113,26.298l-2.427-0.123l0.514-0.367l1.921,0.456L57.113,26.298z M57.208,25.898c0,0-0.034,0.158-0.073,0.309l-1.623-0.385
	l1.94,0.088L57.208,25.898z M57.506,26.089l0.013-0.181l0.507,0.023l-0.066,0.047c-0.035-0.017-0.074-0.03-0.116-0.032
	C57.731,25.94,57.612,25.993,57.506,26.089z M57.76,27.448c0.093-0.06,0.176-0.154,0.246-0.267l0.656-0.102l-0.213-0.011
	l-0.072-0.004l-0.333,0.051c0.011-0.021,0.024-0.043,0.033-0.066l0.372,0.019l0.216,0.01h-0.003l0.986,0.048l0.395,0.446
	L57.76,27.448z M60.069,27.341l-0.009-0.021v0.012l-0.172-0.194l0.362,0.018l-0.049,0.337L60.069,27.341z M60.511,28.006
	l-0.041,0.29l-0.268-0.639l0.038-0.011l0.322,0.017L60.511,28.006z M60.631,27.708l0.084,0.202l-0.15,0.157L60.631,27.708z
	 M60.622,28.163l0.131-0.161l0.05,0.114L60.622,28.163z M60.728,27.18l0.228,0.011l0.005,0.004l-0.01,0.198l-0.062,0.064l0.06-0.009
	v0.011l-0.101,0.014L60.728,27.18z M60.872,27.527l0.072-0.008l-0.005,0.103l-0.031-0.002L60.872,27.527z M60.816,31.986
	l0.319,0.024l-0.01,0.266c-0.094-0.004-0.199-0.012-0.323-0.014L60.816,31.986z M60.771,33.057c0.083,0.026,0.19,0.052,0.331,0.057
	l-0.001,0.059l-0.064-0.001l0.019,0.081l-0.005,0.032l0.047,0.047l-0.003,0.058l-0.324-0.178l-0.008,0.021L60.771,33.057z
	 M60.758,33.333l0.333,0.182c-0.008,0.275-0.019,0.547-0.022,0.819l-0.358,0.124C60.726,34.083,60.741,33.709,60.758,33.333z
	 M60.708,34.581l0.358-0.123l-0.006,0.071l-0.082-0.002l0.02,0.08l-0.007,0.034l0.066,0.069l-0.005,0.2
	c-0.146,0.029-0.275,0.055-0.361,0.072L60.708,34.581z M60.667,35.553c0.048,0.187,0.115,0.335,0.205,0.263
	c0.029-0.024,0.084-0.048,0.16-0.074l-0.007,0.195l-0.366-0.108L60.667,35.553z M60.654,35.941l0.369,0.109
	c-0.007,0.222-0.012,0.444-0.018,0.667l-0.388,0.234C60.629,36.615,60.641,36.279,60.654,35.941z M60.613,37.071l0.391-0.234
	c-0.013,0.516-0.023,1.031-0.032,1.544l-0.322-0.229l-0.038,0.097l0.358,0.255c-0.004,0.231-0.009,0.465-0.013,0.698l-0.413,0.083
	C60.564,38.547,60.587,37.81,60.613,37.071z M60.539,39.395l0.417-0.083c-0.008,0.397-0.012,0.796-0.019,1.195l-0.409-0.288
	l-0.011,0.048C60.525,39.977,60.532,39.687,60.539,39.395z M60.518,40.344l0.42,0.293c-0.002,0.191-0.004,0.379-0.006,0.57
	c-0.181,0.023-0.332,0.074-0.438,0.144C60.5,41.014,60.508,40.678,60.518,40.344z M60.48,41.86c0.106,0.085,0.26,0.157,0.442,0.207
	l-0.002,0.291l-0.451,0.099C60.475,42.258,60.479,42.059,60.48,41.86z M60.467,42.623l0.449,0.322l-0.002,0.185
	c-0.111-0.004-0.24-0.009-0.386-0.013c-0.026,0-0.05,0.002-0.07,0.006L60.467,42.623z M60.444,43.884
	c0.021,0.02,0.038,0.033,0.06,0.041c0.095,0.035,0.219,0.083,0.404,0.099l-0.003,0.682l-0.474,0.021
	C60.434,44.446,60.44,44.165,60.444,43.884z M60.43,44.839l0.325-0.014l-0.33,0.257L60.43,44.839z M60.421,45.249l0.482-0.375
	l-0.004-0.055h0.006c-0.004,0.493-0.004,0.987-0.006,1.48l-0.48-0.892L60.421,45.249z M60.418,45.555l0.481,0.896l-0.005,0.739
	l-0.506,0.256C60.397,46.814,60.407,46.185,60.418,45.555z M60.387,47.695l0.152,0.414c-0.062,0.016-0.117,0.036-0.159,0.058
	L60.387,47.695z M60.373,48.465c0.083,0.056,0.204,0.103,0.35,0.142l0.116,0.32l0.023-0.137l-0.06-0.161
	c0.027,0.007,0.057,0.012,0.086,0.018l-0.003,0.993l-0.531,0.271L60.373,48.465z M60.353,50.138l0.527,1.47l0.002-0.345
	l-0.493-1.222l0.497-0.252c-0.002,0.748-0.004,1.494-0.006,2.242l-0.56,0.307C60.333,51.605,60.342,50.871,60.353,50.138z
	 M60.317,52.54l0.562-0.309c-0.001,0.613-0.005,1.227-0.006,1.841l-0.559-1.37L60.317,52.54z M60.312,52.918l0.535,1.316
	c-0.142-0.01-0.309-0.018-0.511-0.02c-0.015,0-0.03,0-0.043,0C60.301,53.784,60.305,53.352,60.312,52.918z M60.311,56.436
	l0.479,1.246l0.023-0.138l-0.464-1.203l0.518-0.254c-0.004,0.746-0.007,1.496-0.008,2.242l-0.579,0.305
	C60.29,57.902,60.301,57.171,60.311,56.436z M60.277,58.836l0.581-0.307c-0.002,0.612-0.005,1.228-0.007,1.84l-0.578-1.371
	L60.277,58.836z M60.251,60.515c0.007-0.434,0.013-0.866,0.019-1.3l0.557,1.314c-0.147-0.007-0.318-0.015-0.527-0.017
	C60.282,60.513,60.267,60.515,60.251,60.515z M60.292,75.297l0.479,1.247l0.024-0.138L60.333,75.2l0.515-0.251
	c-0.002,0.748-0.007,1.495-0.007,2.241l-0.579,0.306C60.27,76.764,60.281,76.031,60.292,75.297z M60.256,77.699l0.583-0.31
	c-0.002,0.613-0.005,1.228-0.008,1.841l-0.577-1.369L60.256,77.699z M60.233,79.376c0.005-0.436,0.012-0.866,0.021-1.3l0.553,1.317
	c-0.146-0.011-0.319-0.018-0.527-0.021C60.262,79.374,60.247,79.375,60.233,79.376z M60.305,85.887c-0.017,0-0.031,0-0.047,0.001
	c0.01-0.434,0.021-0.866,0.027-1.299l0.546,1.316C60.687,85.898,60.515,85.889,60.305,85.887z M60.86,85.742l-0.57-1.37l0.004-0.162
	l0.584-0.308C60.873,84.516,60.868,85.128,60.86,85.742z M60.886,83.144c-0.002,0.186-0.004,0.372-0.004,0.559l-0.583,0.307
	c0.015-0.733-0.043-1.512-0.028-2.245l0.615,1.383V83.144c0.003-0.094,0.003-0.187,0.003-0.28l-0.505-1.15l0.518-0.252
	c-0.005,0.468-0.009,0.936-0.013,1.402l0.04,0.093L60.886,83.144z M60.913,79.401c0.001-0.396,0.003-0.792,0.004-1.19l0.645,0.747
	l-0.628,0.443H60.913z M60.938,85.911c0.007-0.395,0.012-0.791,0.016-1.188l0.639,0.749l-0.633,0.441L60.938,85.911z M61.744,84.275
	l-0.007,0.115l0.005,0.004l-0.021,1.574c-0.038-0.001-0.077-0.002-0.116-0.004c-0.142-0.004-0.283-0.021-0.469-0.036l0.533-0.373
	l-0.002-0.047l0.009-0.081l-0.713-0.831l0.777-0.544l-0.005-0.044l0.01-0.083l-0.455-0.53l0.469-0.513l-0.013-0.088l0.002-0.045
	l-0.574-0.543l0.603-0.423L61.744,84.275z M61.779,81.611l-0.548-0.634l0.561-0.393L61.779,81.611z M61.793,80.442l-0.068-0.08
	c0.022-0.002,0.047-0.004,0.07-0.006L61.793,80.442z M61.804,85.974l0.019-1.534l0.526,0.305l-0.497,1.231L61.804,85.974z
	 M62.347,86.168l-0.041-0.146c0,0-0.174-0.022-0.378-0.039l0.421-1.038L62.347,86.168z M62.349,84.545l-0.525-0.305l0.003-0.12
	l0.527-1.3L62.349,84.545z M62.354,82.622l-0.524,1.292l0.022-1.705l0.502,0.293V82.622z M62.354,82.3l-0.498-0.292l0.5-1.235
	L62.354,82.3z M62.355,80.434v0.14l-0.5,1.236l0.021-1.465c0.089-0.012,0.168-0.029,0.236-0.054L62.355,80.434z M62.364,67.308
	l-0.038-0.148c0,0-0.175-0.021-0.381-0.037l0.421-1.042L62.364,67.308z M62.368,65.684l-0.525-0.307l0.002-0.116l0.525-1.301
	L62.368,65.684z M62.371,63.76l-0.524,1.294l0.022-1.706l0.502,0.294V63.76z M62.371,63.438l-0.496-0.29l0.5-1.235L62.371,63.438z
	 M62.375,61.713l-0.499,1.235l0.021-1.464c0.09-0.014,0.168-0.032,0.235-0.054l0.246,0.143L62.375,61.713z M62.52,54.537
	l-0.04,12.69h-0.03l-0.004,0.38l0.007-3.846l0.027-0.068l-0.004-0.061l0.009-0.127l-0.032-0.021l0.004-1.771l-0.052-4.464
	l0.028-0.068l-0.004-0.058l0.008-0.129l-0.034-0.021l-0.006-1.771l0.033-0.088l-0.005-0.058l0.009-0.129l-0.04-0.022v-0.368h-0.008
	l-0.016-3.586l0.026-0.07l-0.005-0.057l0.009-0.129l-0.032-0.019l-0.009-1.773l0.034-0.087l-0.004-0.06l0.009-0.128l-0.039-0.024
	l-0.006-1.529l0.047-0.118l-0.004-0.06l0.006-0.129l-0.049-0.03l-0.003-0.261l0.005,0.004l0.027-0.094l-0.032-0.032l-0.006-1.091
	l0.058,0.004l-0.021-0.119l-0.036-0.004v-0.391h0.009l-0.007-0.039l0.032-0.061l-0.034-0.023l-0.007-0.812l0.095-0.02L62.52,54.537z
	 M62.427,43.327l-0.02-0.076c0,0-0.027-0.005-0.071-0.01l-0.004-1.154l0.019-0.046l-0.02,0.004l-0.027-6.574l0.039-0.005
	L62.427,43.327z M62.324,28.428l-0.01-0.667l0.215,0.011l0.02,0.673L62.324,28.428z M62.544,26.138l2.312,0.107l-0.515,0.379
	l-0.188-0.008l-1.609-0.395V26.138z M62.549,26.286l1.28,0.313l-1.274-0.065L62.549,26.286z M62.565,26.882l0.279,0.14l-0.273,0.1
	L62.565,26.882z M63.08,27.03l0.824-0.298l0.742,0.578l-0.957-0.047l-0.007-0.006l-0.311-0.012l0.004,0.002l-0.791-0.039
	l0.364-0.131l0.234,0.118l0.211-0.004L63.08,27.03z M62.585,27.712l-0.011-0.442l0.862,0.043l0.453,0.469L62.585,27.712z
	 M64.464,27.815L64.207,27.8l-0.453-0.472c0.972,0.047,1.94,0.097,2.91,0.144L64.464,27.815z M66.861,27.909
	c-0.001,0.013-0.001,0.024,0,0.037c-0.685-0.038-1.369-0.075-2.055-0.114l2.117-0.328C66.901,27.615,66.881,27.749,66.861,27.909z
	 M66.938,27.425c-0.625-0.031-1.252-0.063-1.881-0.095l1.219-0.439l0.667,0.519L66.938,27.425z M67.061,26.916
	c-0.016,0.109-0.049,0.216-0.083,0.356l-0.563-0.436h-0.071l-0.129-0.015l-1.356,0.49l-0.816-0.635h-0.07l-0.131-0.013l-0.864,0.312
	l-0.414-0.206l-0.005-0.174l1.84,0.092l0.179,0.015l0.01-0.004l2.491,0.126C67.069,26.856,67.065,26.886,67.061,26.916z
	 M67.088,26.764l-2.428-0.123l0.516-0.383l1.92,0.469L67.088,26.764z M67.108,26.668l-1.623-0.397l1.705,0.108
	C67.19,26.38,67.147,26.513,67.108,26.668z M68.092,26.394l-0.001-0.003l0.025,0.001C68.107,26.393,68.101,26.393,68.092,26.394z
	 M68.192,27.98c0.017-0.022,0.085-0.125,0.1-0.151l0.016-0.182l0.015-0.023l0.681-0.099h-0.387l-0.258,0.034
	c0.012-0.022,0.022-0.045,0.032-0.067l1.572,0.083l0.463,0.519L68.192,27.98z M68.182,26.395l0.126,0.004l-0.034,0.023
	C68.246,26.409,68.213,26.399,68.182,26.395z M71.127,26.896l-1.93-0.479l2.417,0.118L71.127,26.896z M71.936,26.552l0.188,0.008
	l2.021,0.5l-2.701-0.147L71.936,26.552z M70.811,26.88l-2.316-0.125c-0.018-0.071-0.043-0.134-0.072-0.188l0.237-0.175l0.223,0.011
	L70.811,26.88z M70.493,26.925l-1.038,0.371l-0.587-0.459L70.493,26.925z M68.642,26.826l-0.133,0.047
	c0-0.021-0.003-0.039-0.005-0.056L68.642,26.826z M68.485,27.216c0.02-0.088,0.026-0.172,0.028-0.253l0.21-0.075l0.587,0.46
	l-0.319,0.113l0.106,0.005l0.17-0.012l0.125-0.045l0.094,0.072h0.207l-0.159-0.123l1.068-0.383l0.66,0.517l-0.172,0.077
	l-0.947-0.049l-0.007-0.008l-0.243-0.015l0.01,0.011l-0.806-0.043l-0.151,0.011l0.045-0.016l-0.573-0.029
	C68.444,27.363,68.469,27.292,68.485,27.216z M70.645,28.095l2.222-0.368c-0.149-0.007-0.297-0.015-0.445-0.023l-1.85,0.301
	l-0.37-0.416c0.738,0.039,1.479,0.076,2.22,0.115l0.153-0.025l0.297,0.047h-0.004c0.296,0.016,0.59,0.031,0.886,0.046l0.45,0.472
	C73.044,28.177,71.807,28.163,70.645,28.095z M73.393,27.49l0.823-0.295l0.744,0.579l-0.956-0.051l-0.007-0.007l-0.312-0.013
	l0.003,0.004l-0.789-0.042l0.364-0.131l0.232,0.118l0.214-0.002L73.393,27.49z M72.685,27.652l0.064,0.006l-1.174-0.085
	l-0.087-0.068l0.909-0.411l0.762,0.386L72.685,27.652z M74.777,28.277l-0.257-0.014l-0.452-0.474
	c0.969,0.052,1.939,0.103,2.909,0.154L74.777,28.277z M77.176,28.383c0,0.011-0.002,0.022,0,0.033
	c-0.684-0.041-1.37-0.078-2.057-0.119l2.119-0.319C77.215,28.088,77.194,28.221,77.176,28.383z M77.253,27.895
	c-0.626-0.034-1.255-0.067-1.881-0.099l1.219-0.436l0.664,0.522L77.253,27.895z M77.373,27.386
	c-0.017,0.109-0.049,0.217-0.085,0.358l-0.561-0.439h-0.07l-0.131-0.015l-1.355,0.487l-0.815-0.638l-0.072-0.001l-0.127-0.013
	l-0.869,0.311l-0.786-0.4l-0.14,0.002l-0.071-0.004l-0.892,0.4l-0.636-0.494l3.949,0.211l0.18,0.016l0.005-0.005l2.493,0.135
	C77.382,27.328,77.377,27.358,77.373,27.386z M77.738,26.833l-0.234,0.018c0,0-0.043,0.134-0.081,0.29l-1.624-0.402L77.738,26.833z
	 M77.41,27.199l-0.009,0.036l-2.426-0.13l0.515-0.382L77.41,27.199z M73.805,26.642l1.363,0.066l-0.512,0.38l-0.189-0.01
	l-2.028-0.502L73.805,26.642z M73.545,26.566l-1.415-0.067l-0.11-0.027l-0.092-0.002l-0.204-0.015l-0.03,0.025l-2.809-0.137
	l-6.343-0.269L62.54,25.97l10.545,0.464L73.545,26.566z"/>
</svg>
