<?xml version="1.0" encoding="utf-8"?>
<!-- Generator: Adobe Illustrator 15.0.2, SVG Export Plug-In . SVG Version: 6.00 Build 0)  -->
<!DOCTYPE svg PUBLIC "-//W3C//DTD SVG 1.1//EN" "http://www.w3.org/Graphics/SVG/1.1/DTD/svg11.dtd">
<svg version="1.1" id="Ebene_1" xmlns="http://www.w3.org/2000/svg" xmlns:xlink="http://www.w3.org/1999/xlink" x="0px" y="0px"
	 width="100px" height="100px" viewBox="0 0 100 100" enable-background="new 0 0 100 100" xml:space="preserve">
<circle fill="#B2B2B2" cx="50" cy="50" r="50"/>
<path d="M69.12,23.843c0.183-4.821-3.391-15.358-11.241-13.234c-5.44,1.472-5.328,2.97-14.026,1.003
	c-8.695-1.969-13.012,4.932-12.95,11.694c0,0-0.713,7.502,4.786,14.125c1.551,1.865,0.631,4.098,0.316,6.306
	c-0.259,0.943-1.948,9.796-2.312,12.512c-2.333,17.096,1.086,33.08,5.147,33.414c4.054,0.339,3.275-14.415,5.874-30.533
	c1.075-6.678,3.188-9.75,5.832-9.454c2.316,0.495,3.949,3.167,4.987,9.352c2.707,16.108,2.065,30.855,6.124,30.493
	c4.064-0.367,7.113-15.115,4.94-32.22c-0.842-6.624-2.546-14.894-2.627-15.875c-0.211-1.788,0.109-2.825,1.156-4.626
	C68.408,31.167,68.966,27.969,69.12,23.843z"/>
</svg>
