<?xml version="1.0" encoding="utf-8"?>
<!-- Generator: Adobe Illustrator 15.0.2, SVG Export Plug-In . SVG Version: 6.00 Build 0)  -->
<!DOCTYPE svg PUBLIC "-//W3C//DTD SVG 1.1//EN" "http://www.w3.org/Graphics/SVG/1.1/DTD/svg11.dtd">
<svg version="1.1" id="Ebene_1" xmlns="http://www.w3.org/2000/svg" xmlns:xlink="http://www.w3.org/1999/xlink" x="0px" y="0px"
	 width="100px" height="100px" viewBox="0 0 100 100" enable-background="new 0 0 100 100" xml:space="preserve">
<circle fill="#B2B2B2" cx="50" cy="50" r="50"/>
<path d="M67.266,31.84h-0.047v-0.266h-0.208v-0.336h-0.127l-0.012-3.635c0,0,0.012-0.347-0.358-0.88
	c-1.188-1.708-3.774-1.424-4.77-1.111c-0.996,0.312-1.506,1.146-1.506,1.146l-0.174-0.116c0,0-0.012-0.116-0.012-0.173
	c0-0.059,0.082-0.116,0.082-0.116s-0.15-0.359-0.174-0.475s-0.324-0.44-0.406-0.475c-0.08-0.035-0.139-0.336-0.139-0.336
	l-0.035,0.359l-0.647-0.289c0,0-0.429-0.313-0.614-0.486c-0.185-0.173-0.867-0.44-0.867-0.44L56.95,23.84
	c0,0,0.255-0.325,0.069-0.44c-0.186-0.116-0.035-0.312-0.035-0.312s0.151-0.116,0.151-0.509s-0.14-0.648-0.302-0.765
	c-0.161-0.115-0.034-0.196-0.034-0.196c1.123-0.232,1.829-1.169,1.979-1.32c0.15-0.151,0.093-0.278,0.093-0.278
	c-1.771-1.748-3.265-2.038-2.94-2.072c0.324-0.034,0.544-0.162,0.533-0.277c-0.012-0.116-0.29-0.324-0.29-0.324
	c-0.591-0.475-1.956-4.562-3.739-5.893c-1.864-1.392-4.156-1.065-5.939-0.139c-1.783,0.926-2.663,3.6-2.663,3.6
	s-0.081,0.012-0.197,0.463s-0.203,2.246-0.203,2.246s-0.064,0.092-0.104,0.191c-0.041,0.099,0,0.15,0,0.15s-0.504,0.62-0.504,0.741
	c0,0.121,0.284,0.139,0.284,0.139l1.395,0.069v4.88l-0.139,0.081c0,0-0.023,0.243-0.012,0.37c0.012,0.127,0.127,0.139,0.127,0.139
	h0.255c0,0-0.173,0.186-0.289,0.243c-0.116,0.059-0.324,0.278-0.348,0.313c-0.023,0.035-0.092,0.139-0.092,0.139l-0.116-0.092
	l-0.254,0.197l-0.452-0.44l-0.139,0.081l-0.104-0.023c0,0-0.37,0.301-0.394,0.336c-0.023,0.035,0,0.162,0,0.162l-0.104,0.035
	l-0.243,0.208c-0.069,0.035-0.218,0.183-0.208,0.382c0.012,0.243,0.116,0.452,0.938,1.366c0.822,0.915,1.065,0.96,1.32,1.019
	c0.254,0.058,0.579-0.532,0.579-0.532s0,0,0.035,0.058c0.035,0.058,0.174,0.116,0.174,0.116s0.023,0.092,0.058,0.15
	s0.163,0.081,0.163,0.081s-0.163,0.163-0.325,0.324c-0.162,0.162-0.439,0.648-0.439,0.648s-0.127,0.336-0.232,0.498
	c-0.104,0.162-0.892,1.273-0.892,1.273s-0.475,0.487-0.798,1.077c-0.325,0.59-0.151,0.81-0.151,0.81s-0.648,0.475-0.88,0.938
	c-0.231,0.462-0.197,0.937-0.197,0.937l-0.718,1.54c0,0,0,0-0.312,0.069s-0.417,0.429-0.417,0.475c0,0.046-0.081,0.138-0.208,0.301
	c-0.128,0.162-0.162,0.521-0.208,0.544c-0.046,0.023-0.208,0.231-0.232,0.312c-0.022,0.081-0.417,0.371-0.579,0.486
	c-0.162,0.116-0.266,0.324-0.266,0.324l-0.278,0.023l-0.764,0.44c0,0-0.081-0.012-0.208-0.012c-0.127,0-0.29,0.047-0.29,0.047
	l-0.266-0.347c0,0-0.174-0.128-0.359-0.162c-0.186-0.035-0.359,0.023-0.359,0.023l-0.382-0.325c0,0-0.358,0.024-0.555,0.047
	c-0.197,0.023-0.232,0.231-0.232,0.231s-0.127-0.07-0.197-0.116c-0.069-0.046-0.185,0-0.185,0s-0.313,0.127-0.382,0.29
	s0.104,0.301,0.104,0.301s0.197,0.232,0.14,0.278c-0.058,0.047-0.22,0.023-0.22,0.023l-0.707-0.196v-0.093h0.139v-0.069
	l-0.243-0.046l-0.011-0.104c0,0-0.313-0.116-0.348-0.116s-0.127,0.139-0.127,0.139h-0.486l-0.069,0.173c0,0-0.509-0.139-0.532-0.208
	c-0.023-0.069-0.672-0.3-0.672-0.3s-0.752-0.163-0.822-0.244c-0.069-0.081-0.139-0.15-0.139-0.15s-1.332-0.336-1.424-0.359
	c-0.092-0.023-0.092,0.15-0.092,0.15l-0.104,0.359c0,0-0.07-0.023-0.185-0.104c-0.116-0.082-0.428-0.475-0.521-0.603
	s-0.394-0.278-0.336-0.208c0.058,0.069-0.498,1.517-0.602,1.829c-0.104,0.313-0.231,0.695-0.231,0.695l0.452-0.035
	c0,0,0.486-0.162,0.729-0.231c0.243-0.07,0.255,0.081,0.255,0.081s-0.116,0.301-0.116,0.406c0,0.104,0.104,0.162,0.104,0.162
	l1.32,0.405l0.278-0.069c0,0,0.88,0.301,1.112,0.347c0.231,0.047,0.417-0.069,0.417-0.069l1.007,0.359l-0.104,0.51
	c0,0,0.231,0.104,0.278,0.104s0.139-0.186,0.139-0.186l1.054,0.429l-0.104,0.509l0.671,0.208l0.012,0.116l0.741,0.185l0.046-0.15
	c0,0,0.324,0.069,0.567,0.127c0.243,0.059,0.313,0.046,0.313,0.046l0.324-0.29c0,0-0.093,0.671,0.498,1.517
	c0.59,0.845,1.366,0.892,1.968,0.833c0.602-0.058,1.169-1.019,1.169-1.019l0.208,0.023c0,0,0.081,0.081,0.162,0.104
	c0.081,0.023,0.359-0.186,0.359-0.186s0.081,0.081,0.127,0.104c0.046,0.023,0.163-0.197,0.163-0.197l0.266-0.104l1.111,0.382
	l-0.359,1.505c0,0-0.371,1.69-0.382,2.744c-0.011,1.053,0.163,2.594,0.88,3.67c0.718,1.077,1.968,1.228,1.968,1.228l0.035,0.382
	c0,0-0.197,0.938-0.197,1.007s0.139,0.255,0.139,0.255s-0.058,0.255-0.162,0.358c-0.104,0.105-0.012,0.521-0.012,0.521
	s-0.231,0.243-0.394,0.556s-0.463,0.915-0.463,0.915s-0.231,0.845-0.254,0.995s0.012,0.209,0.417,0.417
	c0.405,0.208,0.915,0.301,0.915,0.301s-0.012-0.544,0.035-0.868s0.37-0.834,0.37-0.834s0.023,0.405,0.035,0.544
	c0.012,0.14-0.104,0.869-0.104,0.869s-0.116,0.012-0.22,0.116c-0.104,0.104,0.035,0.185,0.035,0.185l0.162,0.116
	c0,0,0.012,0.694,0.046,0.949c0.035,0.254-0.093,0.475-0.185,0.602c-0.093,0.127-0.07,0.231-0.07,0.417s0.116,0.231,0.116,0.231
	l-0.116,0.301c0,0-0.486,1.621-0.833,3.033c-0.348,1.412-0.417,4.006-0.394,4.469c0.023,0.464,0.185,1.135,0.254,1.205
	c0.07,0.068,0.139,0.879,0.162,1.134c0.023,0.255,0.486,0.787,0.486,0.787s-0.44,1.204-0.509,1.667
	c-0.069,0.464-0.162,1.413-0.162,1.413s0,1.458-0.069,2.061c-0.069,0.602,0.092,1.366,0.092,1.366s0.278,1.991,0.162,2.13
	s-0.185,0.371-0.185,0.371l0.116,1.041c0,0-0.116,0.14-0.648,0.51c-0.533,0.37-0.486,0.787-0.394,1.436
	c0.093,0.648,0.348,0.949,0.348,0.949l-0.394,0.625c0,0-0.046,0.14-0.231,0.209c-0.185,0.069-1.759,1.064-1.759,1.064
	s-0.788,0.14-1.343,0.255c-0.556,0.116-1.042,0.51-1.088,0.765c-0.046,0.255,0.301,0.787,0.301,0.787s2.2,0.231,4.7,0.278
	c2.5,0.046,7.41-0.348,7.41-0.348v-0.371c0,0,0.624,0.027,1.204,0.047c5.627,0.186,6.924-0.51,6.924-0.51v-0.417
	c0,0,0.717-2.616,0.787-3.38c0.069-0.765-0.51-1.228-0.51-1.228s0.186-0.486,0.254-0.695c0.07-0.208,0.07-1.504,0.07-1.504
	s2.779-3.821,3.751-6.992c0.973-3.173,1.134-6.113,0.603-9.841c-0.533-3.729-2.34-7.353-2.34-7.353s0.035-1.042,0-1.667
	c-0.034-0.625,0.162-2.57,0.232-3.265c0.069-0.694,0.416-1.98,0.416-1.98l0.082-0.544c0,0,0.208,0.221,0.475,0.221
	c0.266,0,0.382-0.382,0.382-0.382l0.556-0.011l0.15-0.15h0.741c0,0,0,0,0.034,0.034c0.035,0.035,0.383,0.023,0.383,0.023
	l0.207-0.046c0,0,0.094,0.614,0.557,0.533c0.463-0.082,0.579-0.961,0.439-1.459c-0.139-0.498-0.51-0.59-0.752-0.474
	c-0.244,0.115-0.336,0.544-0.336,0.544l-0.127-0.139l-0.324,0.011l-0.244,0.163v-0.845h0.557v-0.556l0.266-0.208v-0.44
	c2.2-0.602,2.246-2.431,2.246-2.431v-9.239l0.127-0.023l-0.012-0.208c0,0,0.175-0.035,0.209-0.127
	c0.035-0.092-0.034-0.243-0.08-0.371c-0.047-0.127,0.104-0.116,0.104-0.116V31.84z M43.533,41.687c0,0,0.495-0.166,0.679-0.22
	c0.183-0.054,0.269-0.205,0.269-0.205s0.032,0.286-0.032,0.565s-0.426,0.651-0.426,0.651l-0.737-0.248L43.533,41.687z
	 M42.795,41.875c0,0,0,0.2-0.064,0.215c-0.064,0.016-0.323-0.119-0.323-0.119L42.795,41.875z M44.188,52.036l-0.095,0.913
	c0,0-1.581-0.042-2.112-2.344s0.572-6.021,0.572-6.021l1.144,0.381l0.136,0.272c0,0-0.34,0.027-0.518,0.246
	c-0.177,0.217-0.75,1.049-0.654,1.934s0.449,1.485,0.681,1.675c0.231,0.191,1.076,0.491,1.076,0.491L44.188,52.036z M44.515,49.12
	c0,0-0.736-0.327-0.995-0.531c-0.259-0.204-0.341-0.776-0.354-1.417s0.545-1.322,0.545-1.322c0.164-0.014,0.177,0.327,0.177,0.368
	c0,0.041-0.041,0.082-0.082,0.149c-0.041,0.068,0.014,0.205,0.014,0.205l0.804,2.343L44.515,49.12z M52.436,78.646
	c-0.066,0.064,0,0.414,0,0.414l-0.393,1.963c0,0-0.131,0.283-0.24,0.436s-0.458,1.069-0.438,1.33
	c0.023,0.262,0.372,0.48,0.459,0.545c0.088,0.065,0.174,0.132,0.174,0.437c0,0.306-0.261,1.745-0.436,2.094
	c-0.174,0.349,0.175,0.523,0.175,0.523l-1.439,0.807l-0.197-0.828c0,0,0.284-0.48,0.371-0.567s0.131-1.657,0.131-1.657
	s-0.109-0.437-0.043-0.479c0.065-0.044,0.065-0.916,0.065-1.112s-0.153-0.567-0.218-0.61c-0.065-0.044,0.196-1.788,0.196-1.788
	c0-0.196,0.218-0.445,0.218-0.445s0.087-1.432,0.108-1.628c0.022-0.195,0.35-1.461,0.35-1.569c0-0.109,0-0.589,0.086-0.785
	c0.088-0.196,0.088-1.701,0.088-1.701s1.396,2.857,1.439,3.01C52.937,77.184,52.5,78.58,52.436,78.646z M61.108,65.809l-0.122,0.068
	l0.108,1.036l0.081,0.027c0,0,0.055,2.233-0.067,3.092s-0.702,4.383-1.519,5.528c0,0-0.104-0.503-0.018-0.625
	c0.087-0.121,0.156-0.625,0.122-0.677c-0.035-0.053-0.069-0.417-0.069-0.469s0.034-0.417-0.104-0.504
	c-0.14-0.087-0.243-0.469-0.173-0.66c0.068-0.19,0.173-0.312,0.207-0.469c0.035-0.156,0.14-1.823-0.068-2.553
	c-0.209-0.729-0.799-1.857-0.799-1.857s-0.139-0.418-0.07-0.504c0.07-0.087,0.625-1.182,0.678-2.05s-0.156-2.743-0.156-2.743
	l0.26-0.591l-0.865-0.805c0,0,0.232-0.695,0.164-0.886s0.014-0.477,0.014-0.477s0.163-0.368,0.163-0.478
	c0-0.108,0.014-0.204,0.014-0.204h0.396c0,0,0.708,1.635,0.98,2.589s0.504,1.866,0.504,1.866l0.068,0.857L61.108,65.809z
	 M63.098,48.083h-0.544v-0.104l-0.116-0.035l-0.045-0.163c0,0-0.279-0.046-0.465-0.035c-0.185,0.012-0.242,0.29-0.242,0.29
	l-0.07,0.116l-0.161,0.035l0.034-0.416l0.127-0.046l-0.057-0.533l-1.1-0.116c-0.174-0.972-0.568-1.239-0.568-1.239
	c0.128-0.138,0.221-1.123,0.221-1.123c0.648,1.273,2.188,1.586,2.188,1.586l0.012,0.381l0.231,0.232v0.567h0.556V48.083z"/>
</svg>
