<?xml version="1.0" encoding="utf-8"?>
<!-- Generator: Adobe Illustrator 15.0.2, SVG Export Plug-In . SVG Version: 6.00 Build 0)  -->
<!DOCTYPE svg PUBLIC "-//W3C//DTD SVG 1.1//EN" "http://www.w3.org/Graphics/SVG/1.1/DTD/svg11.dtd">
<svg version="1.1" id="Ebene_1" xmlns="http://www.w3.org/2000/svg" xmlns:xlink="http://www.w3.org/1999/xlink" x="0px" y="0px"
	 width="100px" height="100px" viewBox="0 0 100 100" enable-background="new 0 0 100 100" xml:space="preserve">
<circle fill="#B2B2B2" cx="50" cy="50" r="50"/>
<g>
	<path d="M23.172,54.312c-0.1-0.015-0.174-0.027-0.181-0.037C23.042,54.351,23.105,54.345,23.172,54.312z"/>
	<path d="M28.232,72.761c0.006,0.03,0.016,0.053,0.031,0.064C28.252,72.816,28.242,72.781,28.232,72.761z"/>
	<path d="M31.073,71.375c-0.06-0.019-0.153-0.148-0.251-0.299C30.832,71.213,30.901,71.322,31.073,71.375z"/>
	<polygon points="22.248,41.822 22.243,41.828 22.243,41.83 	"/>
	<path d="M24.073,48.258c0.002,0.002,0.002,0.003,0.004,0.006C24.225,48.432,24.146,48.342,24.073,48.258z"/>
	<path d="M83.045,56.471C83.111,56.304,83.078,56.386,83.045,56.471c0.127-0.324-1.037-0.292-1.136-0.488
		c-0.074-0.147-0.13-0.692-0.249-0.692c-0.396,0-0.774-0.476-0.266-0.508c0.009-0.001-0.074-0.146-0.111-0.155
		c-0.104-0.024-0.729,0.355-0.752,0.176c-0.05-0.388,0.626-0.217,0.673-0.461c0.09-0.468,0.507-0.439,0.758-0.774
		c0.225-0.298-0.844-0.397-0.968-0.545c-0.135-0.16,0.236-0.406-0.266-0.504c-0.37-0.073-0.456,0.243-0.682,0.491
		c-0.233,0.257-0.678,0.336-0.864,0.593c-0.239,0.328-0.608,0.656-0.711,0.125c-0.221-1.147-0.522,0.011-0.739-0.302
		c-0.113-0.163,0.466-0.74,0.484-0.94c0.024-0.251-0.535,0.041-0.549-0.099c-0.012-0.124,0.13-0.553,0.159-0.7
		c0.05-0.251,0.71-0.195,0.737-0.521c0.022-0.247,0.396-0.221,0.272-0.553c-0.104-0.162-0.181-0.335-0.23-0.52
		c0.042-0.203,0.425-0.067,0.462-0.307c0.028-0.178-0.377-0.589-0.354-0.627c0.139-0.227,0.799-0.113,0.583-0.521
		c-0.22-0.416-1.811,0.29-1.82,0.386c0.024-0.243,0.332-0.972,0.561-1.059c0.219-0.083,0.536,0.099,0.72-0.015
		c0.129-0.08,0.285-0.703,0.188-0.816c-0.164-0.192-0.759,0.319-1.036,0.2c-0.437-0.188,0.564-1.097,0.433-1.147
		c-0.192-0.073-0.4,0.496-0.505,0.462c-0.189-0.062-0.82-0.728-0.164-0.647c0.323,0.041,0.854-1.027,0.846-1.029
		c-0.182-0.046-0.697,0.193-0.644-0.084c0.034-0.166,0.377-1.107,0.339-1.107c-0.436,0-0.58-0.004-1.02,0.335
		c-0.181,0.14-0.419,0.387-0.637,0.467c-0.095,0.035-0.468-0.406-0.466-0.001c0.002,0.289,0.117,0.563,0.164,0.845
		c0.019,0.116-0.526-0.019-0.59-0.011c-0.4,0.047-0.504,0.165-0.93,0.079c-0.354-0.071-0.746,0.055-1.076-0.021
		c-0.094-0.021,0.33-0.455,0.295-0.551c-0.092-0.246-0.688,0.056-0.792-0.166c-0.116-0.246,0.73-0.168,0.741-0.355
		c0.017-0.277,0.068-0.97-0.348-0.827c-0.315,0.109-1.273,0.356-0.644-0.343c0.245-0.272,0.348-0.159,0.641-0.27
		c0.193-0.072,0.122-0.303,0.253-0.371c-0.01,0.005,0.339,0.232,0.49,0.202c0.197-0.04-0.036-0.713-0.053-0.786
		c-0.053-0.22-0.082-0.78-0.449-0.717c-0.029,0.005-0.381,0.135-0.384,0.143c0.15-0.458,0.137-0.521,0.607-0.384
		c0.65,0.189,0.737,0.031,0.892-0.545c0.076-0.287-0.627-0.392-0.753-0.44c-0.068-0.025-0.219-1.174-0.172-1.218
		c0.14-0.126,0.646,0.577,0.753,0.621c-0.108-0.044,0.753-1.306,0.358-1.243c-0.358,0.057-0.629,0.447-1.004,0.449
		c-0.169,0.001-0.402-0.605-0.423-0.595c0.175-0.091,0.31,0.112,0.525-0.081c0.289-0.255,0.333,0.136,0.541,0.034
		c0.1-0.05,0.141-0.367,0.304-0.27c0.18,0.109,0.6,0.392,0.789,0.385c0.127-0.004-0.172-0.647-0.21-0.688
		c-0.624-0.682,0.175-0.209,0.157-0.934c-0.003-0.095-0.847,0.146-0.83-0.2c0.022-0.48,1.385,0.542,1.214-0.438
		c-0.078-0.45-1.324-0.442-1.348-0.37c0.009-0.024,0.172-0.077,0.155-0.096c0.04,0.048-0.661-0.418-0.592-0.412
		c-0.439-0.042-0.653,0.358-0.737-0.241c-0.091-0.664-0.22-0.392-0.691-0.247c-0.33,0.102-0.173-0.155-0.005-0.251
		c0.386-0.224,1.027-0.102,1.349-0.364c0.099-0.08-0.551-0.34-0.602-0.368c-0.917-0.52,1.138-0.936,0.38-1.279
		c-0.141-0.063-0.319,0.441-0.573,0.324c-0.345-0.159-0.548,0.083-0.888-0.121c-0.437-0.262-0.643,0.413-0.985,0.671
		c-0.184,0.138-0.544-0.33-0.552-0.472c-0.015-0.308,0.727-0.267,0.829-0.571c0.087-0.264-0.633-0.517-0.244-0.776
		c0.328-0.218,0.795,0.255,1.121,0.156c-0.037,0.011,0.1-0.576,0.069-0.495c0.159-0.451-0.2-0.297-0.475-0.27
		c-0.328,0.034-0.31-0.913-0.433-1.017c-0.111-0.095-0.375,0.05-0.513,0.004c-0.275-0.092,0.057-0.479-0.168-0.619
		c-0.34-0.213-0.146-0.224-0.193-0.64c-0.036-0.314-0.985,0.538-0.866,0.689c-0.149-0.191,0.311-0.627,0.225-0.835
		c0.039,0.092-0.836-0.303-0.828-0.3c0.051,0.012-0.613,0.629-0.616,0.637c-0.003,0.006,0.254,0.744,0.062,0.639
		c-0.477-0.26-0.12-1.2-0.485-1.563c-0.443-0.444-1.062,0.793-1.26,0.782c-0.185-0.012-0.055-0.345-0.214-0.41
		c-0.236-0.097-0.683,0.404-0.803,0.125c-0.12-0.276-0.287-0.562-0.525-0.091c-0.254,0.511-0.265-0.163-0.41-0.203
		c0.128,0.035-1.1,0.855-1.021,0.251c0.049-0.361,0.711-0.174,0.603-0.661c-0.128-0.567-0.269-0.254-0.622-0.57
		c-0.293-0.26-1.021,0.604-1.092,0.571c-0.051-0.086-0.11-0.166-0.18-0.238c-0.093,0.014-0.087,0.411-0.305,0.487
		c-0.509,0.178-0.478,0.555-0.834,0.88c-0.127,0.116-0.5,0.384-0.054,0.391c0.478,0.007,0.486,0.127,0.774,0.508
		c0.092,0.122-0.255,0.327-0.338,0.337c-0.183,0.023-0.315-0.613-0.614-0.236c-0.244,0.309-0.346,0.714-0.602,1.013
		c-0.226,0.264-1.108,0.173-1.121,0.496c-0.017,0.357,1.175-0.083,0.863,0.789c-0.403,1.125-1.046-0.436-1.364-0.596
		c-0.326-0.164-1.116,1.084-0.732,1.202c0.411,0.126,0.513-0.526,0.9,0c0.04,0.052,0.453,0.641,0.372,0.641
		c-0.4,0-0.76-0.711-0.937,0.005c-0.077,0.313-0.137,0.763-0.447,0.941c-0.264,0.15,0.198,0.36,0.272,0.405
		c0.14,0.085,0.328-0.194,0.406-0.256c0.474-0.377,0.028,0.556,0.137,0.576c0.089-0.038,0.167-0.09,0.236-0.159
		c-1.182,0.737,0.445,0.65,0.446,0.683c0.047,0.713-1.052,0.533-1.303,0.822c-0.533,0.615,1.202,0.403,0.68,0.896
		c-0.251,0.236-0.561,0.398-0.867,0.541c-0.104-0.233-0.119-0.66-0.195-0.724c-0.096-0.082-0.322,0.043-0.441,0.003
		c-0.236-0.079,0.049-0.413-0.145-0.533c-0.291-0.184-0.125-0.192-0.166-0.551c-0.024-0.211-0.523,0.188-0.694,0.437
		c-0.021,0.004-0.042,0.007-0.063,0.01c0.048-0.185,0.262-0.435,0.205-0.572c0.019,0.043-0.192-0.037-0.39-0.119
		c0.125-0.373,0.265-0.788,0.237-0.788c-0.526,0-0.7-0.004-1.23,0.405c-0.045,0.035-0.094,0.077-0.144,0.119
		c-0.021-0.045-0.046-0.088-0.081-0.123c-0.258-0.259-0.583,0.143-0.82,0.428c-0.145-0.087-0.286-0.136-0.285,0.138
		c0,0.035,0.013,0.068,0.016,0.103c-0.147-0.02-0.044-0.294-0.18-0.349c-0.203-0.083-0.587,0.348-0.69,0.107
		c-0.104-0.238-0.247-0.483-0.452-0.078c-0.219,0.439-0.229-0.141-0.354-0.175c0.11,0.03-0.946,0.736-0.879,0.217
		c0.043-0.311,0.613-0.15,0.52-0.569c-0.11-0.488-0.231-0.219-0.535-0.491c-0.076-0.067-0.187-0.042-0.304,0.018
		c-0.055-0.02-0.117-0.026-0.2,0.002c-0.381,0.132-1.536,0.429-0.776-0.414c0.295-0.329,0.42-0.192,0.773-0.325
		c0.233-0.087,0.146-0.366,0.305-0.447c-0.012,0.006,0.409,0.28,0.592,0.243c0.237-0.047-0.044-0.86-0.064-0.948
		c-0.063-0.266-0.099-0.941-0.542-0.865c-0.035,0.006-0.459,0.163-0.463,0.173c0.182-0.552,0.165-0.629,0.733-0.463
		c0.784,0.229,0.89,0.038,1.075-0.658c0.093-0.346-0.756-0.473-0.908-0.531c-0.082-0.031-0.264-1.417-0.207-1.47
		c0.168-0.152,0.779,0.696,0.908,0.749c-0.131-0.053,0.908-1.575,0.433-1.499c-0.433,0.069-0.759,0.54-1.211,0.542
		c-0.204,0.001-0.485-0.73-0.511-0.717c0.211-0.11,0.373,0.135,0.634-0.098c0.349-0.308,0.402,0.165,0.652,0.041
		c0.12-0.061,0.17-0.443,0.367-0.326c0.217,0.132,0.723,0.473,0.952,0.465c0.152-0.005-0.208-0.78-0.254-0.831
		c-0.753-0.823,0.211-0.252,0.189-1.127c-0.003-0.115-1.021,0.176-1.001-0.241c0.027-0.58,1.671,0.654,1.465-0.529
		c-0.095-0.543-1.599-0.534-1.626-0.446c0.01-0.029,0.207-0.093,0.188-0.116c0.048,0.059-0.798-0.504-0.715-0.497
		c-0.529-0.051-0.788,0.432-0.889-0.29c-0.11-0.801-0.266-0.473-0.835-0.298c-0.398,0.123-0.208-0.187-0.006-0.303
		c0.466-0.27,1.239-0.123,1.628-0.439c0.118-0.097-0.665-0.41-0.727-0.444c-1.106-0.626,1.373-1.129,0.459-1.542
		c-0.17-0.076-0.386,0.532-0.691,0.391c-0.416-0.191-0.661,0.1-1.071-0.146c-0.527-0.316-0.775,0.498-1.189,0.81
		c-0.221,0.167-0.656-0.398-0.665-0.569c-0.019-0.371,0.876-0.321,1-0.689c0.105-0.319-0.763-0.624-0.294-0.937
		c0.395-0.264,0.959,0.307,1.353,0.188c-0.046,0.014,0.118-0.695,0.083-0.596c0.192-0.544-0.241-0.359-0.572-0.326
		c-0.396,0.041-0.373-1.101-0.521-1.227c-0.135-0.114-0.453,0.061-0.619,0.005c-0.332-0.11,0.068-0.579-0.202-0.747
		c-0.41-0.256-0.176-0.27-0.233-0.772c-0.044-0.379-1.189,0.649-1.045,0.832c-0.181-0.23,0.375-0.757,0.271-1.007
		c0.046,0.111-1.007-0.365-0.999-0.363c0.062,0.015-0.739,0.759-0.744,0.769c-0.004,0.007,0.308,0.897,0.075,0.771
		c-0.576-0.313-0.146-1.448-0.586-1.886c-0.534-0.536-1.281,0.957-1.519,0.943c-0.223-0.014-0.066-0.416-0.258-0.494
		c-0.286-0.117-0.823,0.488-0.969,0.15c-0.144-0.333-0.345-0.677-0.633-0.11c-0.306,0.616-0.319-0.197-0.495-0.245
		c0.154,0.042-1.327,1.031-1.23,0.303c0.058-0.436,0.857-0.209,0.726-0.797c-0.153-0.684-0.324-0.307-0.75-0.688
		c-0.353-0.313-1.232,0.728-1.316,0.689c-0.061-0.104-0.133-0.2-0.217-0.287c-0.112,0.017-0.104,0.495-0.369,0.588
		c-0.612,0.215-0.576,0.669-1.005,1.062c-0.153,0.14-0.603,0.463-0.065,0.472c0.576,0.009,0.587,0.154,0.934,0.613
		c0.111,0.146-0.306,0.395-0.407,0.407c-0.22,0.028-0.381-0.74-0.741-0.285c-0.294,0.373-0.417,0.861-0.726,1.222
		c-0.271,0.318-1.336,0.209-1.353,0.598c-0.019,0.431,1.419-0.099,1.042,0.952c-0.486,1.358-1.263-0.526-1.646-0.719
		c-0.394-0.197-1.347,1.308-0.883,1.45c0.495,0.152,0.618-0.635,1.086,0c0.048,0.063,0.546,0.773,0.449,0.773
		c-0.484,0-0.917-0.858-1.13,0.007c-0.093,0.377-0.165,0.92-0.54,1.135c-0.318,0.182,0.239,0.435,0.328,0.488
		c0.169,0.103,0.396-0.234,0.491-0.309c0.572-0.455,0.035,0.67,0.164,0.695c0.107-0.045,0.203-0.108,0.286-0.191
		c-1.426,0.89,0.537,0.784,0.539,0.824c0.056,0.86-1.27,0.643-1.573,0.992c-0.642,0.742,1.45,0.486,0.82,1.08
		c-0.452,0.426-1.073,0.676-1.583,0.9c-0.356,0.158-0.291-0.493-0.367-0.692c-0.136-0.355-0.587-0.22-0.854-0.528
		c-0.57-0.658-0.543,0.552-1.102,0.44c-0.225-0.045-1.773-0.389-1.753-0.365c-0.281-0.343-0.396-0.2-0.75-0.013
		c-0.66,0.351-0.318,0.295-0.672,0.834c-0.274,0.409-0.754,0.437-1.077,0.76c-0.079,0.079-0.547,1.16-0.256,1.085
		c0.263-0.067,0.585-0.784,0.835-0.722c0.343,0.084-0.424,1.121-0.54,1.214c-0.327,0.263-0.392,0.251-0.786,0.228
		c-0.447-0.026-0.485,0.523-0.902,0.472c-0.489-0.061-0.937-0.425-1.374-0.155c-0.617,0.38-1.07,0.631-0.29,0.971
		c0.197,0.086,0.598-0.117,0.598,0.177c0,0.419,0.536-0.007,0.736,0.286c0.073,0.111-0.75,0.576-0.82,0.713
		c-0.112,0.217-0.097,0.512-0.065,0.749c0.104,0.774-0.563,1.187-0.866,1.83c-0.301,0.642,0.679-0.27,0.782-0.391
		c-0.028,0.033-0.247,0.783-0.011,0.726c0.061-0.016,1.046-0.738,1.003-0.598c-0.146,0.483-0.815,0.735-1.003,1.29
		c-0.073,0.225,0.974-0.021,1-0.123c-0.326,1.311,0.162-0.13,0.458,0.022c0.02,0.151,0.016,0.301-0.014,0.45
		c0.098,0.106,1.619-0.993,1.725-0.929c0.53,0.317-0.704,1.491-0.982,1.376c0.462,0.191,1.604-0.349,0.872,0.509
		c-0.522,0.6-1.655-0.337-1.677-0.295c-0.522,0.99,0.393,1.542,0.293,2.494c-0.052,0.425,0.881-0.183,1.26,0.083
		c0.465,0.324,0.776-1.299,0.993-1.09c0.093,0.09,0.066,1.119,0.109,1.293c-0.541-0.205-0.345,0.197-0.204,0.5
		c0.062,0.134-0.414,1.177-0.324,1.188c0.16,0.019,0.872-0.773,0.94-0.669c0.17,0.257-0.248,0.507-0.292,0.733
		c-0.031,0.152,0.911-0.361,0.931-0.27c0.143,0.634-1.275,0.836-1.177,1.499c0.161,1.081,0.911,0.006,1.11,0.055
		c0.558,0.136-0.11,1.178,0.929,0.548c0.206-0.122,0.56-0.916,0.753-0.881c0.07,0.013,0.615,0.391,0.636,0.468
		c0.028,0.101-0.835,0.518-0.983,0.617c-0.576,0.385-1.03,0.589-1.679,0.306c-0.707-0.31-1.003-0.523-1.058-1.354
		c-0.038-0.569-0.373-0.562-0.399,0.03c-0.487-0.305-0.45,0.214-0.843,0.306c-0.173,0.04-0.659-0.13-0.669-0.221
		c0.061,0.116,0.095,0.239,0.103,0.369c-0.302,0.501-1.176-1.776-1.2-2.019c-0.035-0.353-0.178-0.817,0.122-1.094
		c0.139-0.128,0.392-0.948-0.066-0.804c-0.173,0.055-0.185,0.342-0.377,0.407c-0.356,0.12-0.248-0.608-0.124-0.732
		c0.705-0.702-0.819-0.4-0.9-0.422c0.038,0.01-0.752-1.483-0.85-0.393c-0.034,0.382-0.285,0.607-0.652,0.652
		c-0.362,0.046-0.209,0.595-0.489,0.733c-0.095,0.047,0.13,1.064,0.248,1.15c0.262,0.192,0.575,0.016,0.778,0.35
		c0.272,0.448,0.014,0.839-0.129,1.271c-0.207,0.603-1.335-0.643-1.648-0.66c-0.329-0.018-0.838,0.29-0.838,0.66
		c0,0.35,0.336,0.018,0.465,0.096c-0.044-0.026,0.113,0.609,0.205,0.703c0.491,0.502,1.19,0.824,1.817,1.115
		c1.537,0.715,0.204,0.42-0.274,0.817c-0.225,0.186-0.982,1.267-0.458,1.463c0.412,0.154,0.459,0.573,0.936,0.653
		c0.772,0.126,0.238,0.42,0.697,0.884c0.38,0.384,0.938,0.565,1.359,0.898c0.671,0.529-0.512,0.357-0.634,0.418
		c-0.258,0.129-0.165,0.495-0.324,0.691c-0.308,0.384-0.357-0.29-0.593-0.271c-0.285,0.024-0.37,0.469-0.597,0.582
		c-0.182,0.09-0.381,0.024-0.578,0.148c-0.743,0.468,0.519,0.367,0.57,0.444c0.017,0.026,1.082,0.169,0.472,0.705
		c-0.299,0.263-0.896,0.241-1.268,0.288c-0.77,0.098-3.019,0.657-2.719,1.897c0.012,0.049,1.58-0.741,1.746-0.85
		c0.213-0.14,0.042,0.598,0.064,0.605c0.751,0.24,0.739-0.909,1.636-0.186c0.376,0.303,0.951,0.506,1.432,0.506
		c0.569,0,0.564-0.379,0.975-0.618c0.116-0.067-0.333,1.125-0.658,1.289c0.272,0.039,0.747,0.098,0.647,0.197
		c-0.008,0.008-0.774,0.608-0.36,0.63c0.264,0.014,0.589-0.707,0.766-0.24c0.128,0.34,0.08,0.601-0.292,0.704
		c-1.024,0.285-2.007,0.095-3.053,0.447c-0.52,0.175-0.951,0.336-1.26,0.816c-0.3,0.468,0.628,0.569,0.897,0.412
		c0.258-0.151,0.279-0.536,0.503-0.729c0.068-0.059,0.894-0.186,0.881-0.062c-0.054,0.537-1.371,1.569-0.677,2.164
		c0.271,0.234,0.715-1.102,0.817-1.276c0.241-0.41,0.733-0.784,1.178-0.924c-0.396,0.138-0.09,0.987-0.199,1.1
		c-0.279,0.289-0.614,0.568-0.854,0.891c0.153-0.206,0.934,0.59,1.018,0.445c-0.213,0.366-0.748,0.354-0.698,0.906
		c0.046,0.512-0.783,1.019-0.648,1.385c0.106,0.332,0.677-0.378,0.773-0.399c0.506-0.117-0.485,1.193-0.481,1.283
		c0.013,0.259,0.102,0.911-0.386,0.616c-0.33-0.2-0.92,0.642-0.978,0.555c-0.27-0.408,0.032-0.46-0.356-0.751
		c-0.273-0.209-0.629,0.556-0.535,0.779c0.081,0.19,0.729,0.771,0.658,0.885c-0.059,0.094-0.671,0.987-0.689,0.966
		c0.39,0.455,1.461-0.731,1.583-0.956c-0.712,1.312,0.761,0.367,1.3,0.035c-0.762,0.675-1.228,1.954-2.114,2.486
		c-0.191,0.114-1.43,0.365-1.191,0.724c0.326,0.487,1.05-0.103,1.069-0.072c0.503,0.794-1.059,1.95-0.896,2.688
		c0.093,0.425,1.003-0.29,1.155-0.443c0.147-0.146,0.298-0.4,0.515-0.457c0.152-0.039,0.244,0.189,0.367,0.127
		c0.126-0.064-0.486-1.07,0.318-1.378c0.169-0.064,0.189,0.722,0.619,0.44c0.161-0.108,0.239-0.83,0.528-0.732
		c0.913,0.302,0.608,0.123,0.692,0.978c0.046,0.456-0.433,0.979-0.295,1.41c0.093,0.291,1.789-1.441,1.941-1.521
		c-0.043,0.022,0.792-0.008,0.803-0.006c0.172,0.024,0.682,0.124,0.759,0.302c0.032,0.074-0.408,0.767-0.143,0.736
		c0.568-0.066,0.69-1.247,1.254-1.247c0.262,0-0.737,1.369-0.774,1.426c-0.211,0.322-0.75,0.593-1.077,0.773
		c-0.499,0.275-2.252,0.562-2.303,1.386c-0.026,0.421,0.629,0.688,0.977,0.57c0.867-0.293,0.806-0.902,1.166,0.022
		c0.463,1.188,1.772-1.796,2.08-1.855c-0.168,0.033-0.119,1.87,0.053,2.214c-0.09-0.438,0.668-2.655,0.718-2.647
		c0.865,0.15,0.445,0.614,0.625,1.248c0.642,0.902,0.679-0.716,0.851-0.8c0.064-0.031,0.236,0.27,0.396,0.515
		c-0.031-0.423,0.528-1.117,0.588-1.263c0.141-0.34,0.467-0.072,0.532-0.326c0.106-0.438,0.521,0.1,0.688,0.245
		c0.02-0.11,0.104-0.338,0.207-0.396c0.149-0.084,0.212,0.302,0.445-0.176c0.259-0.509,0.568-0.37,1.024-0.406
		c0.594-0.048,0.629-0.26,0.687-0.775c0.001-0.009,0.087-0.818,0.201-0.724c0.155,0.128,0.28,1.122,0.211,1.305
		c-0.099,0.262-0.881,0.477-1.105,0.561c-0.908,0.341-1.599,1.027-2.193,1.848c-1.201,1.658,0.809,1.154,0.809,0.148
		c0-0.245,0.898-0.707,1.055-0.443c0.446,0.747,0.322,0.341,0.845-0.106c0.027-0.022,0.111,0.421,0.258,0.39
		c0.203-0.043,0.396-0.7,0.378-0.7c0.029,0-0.358,0.198-0.27,0.065c1.243-1.883,1.097,1.602,1.24,2.16
		c0.354,1.387,1.073,2.665,1.387,4.088c0.254,1.151,0.15,2.515,0.121,3.69c-0.023,0.92,0.105,2.926-0.615,3.525
		c1.005,0,2.01,0,3.015,0c-0.288-0.822-0.419-1.474-0.376-2.348c0.062-1.257-0.199-2.512-0.083-3.758
		c0.106-1.14,0.008-2.282,0.043-3.425c0.002-0.074,0.016-0.148,0.021-0.223c0.001,0.033-0.009,0.068,0.001,0.1
		c0.066,0.209,1.277-1.027,1.385-1.084c-0.031,0.015,0.565-0.007,0.573-0.006c0.123,0.018,0.487,0.09,0.542,0.216
		c0.022,0.054-0.292,0.546-0.102,0.526c0.405-0.049,0.493-0.892,0.895-0.892c0.187,0-0.526,0.978-0.552,1.018
		c-0.15,0.23-0.536,0.424-0.769,0.553c-0.356,0.197-1.607,0.4-1.644,0.989c-0.019,0.299,0.449,0.491,0.697,0.407
		c0.619-0.209,0.575-0.645,0.832,0.015c0.331,0.848,1.265-1.281,1.484-1.323c-0.127,0.025-0.082,1.515,0.061,1.626
		c-0.165-0.13,0.452-1.942,0.49-1.936c0.618,0.107,0.318,0.439,0.446,0.892c0.458,0.644,0.484-0.512,0.607-0.572
		c0.046-0.021,0.168,0.192,0.281,0.366c-0.021-0.302,0.377-0.796,0.42-0.899c0.101-0.243,0.333-0.052,0.38-0.233
		c0.076-0.312,0.372,0.072,0.491,0.175c0.015-0.079,0.074-0.24,0.148-0.282c0.107-0.059,0.151,0.217,0.318-0.124
		c0.185-0.363,0.405-0.265,0.731-0.291c0.424-0.034,0.448-0.186,0.489-0.554c0-0.001,0.002-0.021,0.006-0.048
		c0,0,0-0.001,0.001-0.001c0.095,0.056,0.193,0.114,0.293,0.172c0.011,0.133,0.011,0.247-0.005,0.292
		c-0.071,0.188-0.628,0.34-0.789,0.4c-0.648,0.244-1.142,0.733-1.565,1.318c-0.856,1.184,0.578,0.824,0.578,0.106
		c0-0.175,0.642-0.505,0.753-0.316c0.318,0.533,0.229,0.242,0.603-0.076c0.018-0.017,0.08,0.3,0.184,0.278
		c0.144-0.03,0.282-0.5,0.27-0.5c0.021,0-0.256,0.142-0.192,0.047c0.886-1.343,0.783,1.143,0.884,1.541
		c0.253,0.99,0.766,1.901,0.99,2.917c0.181,0.822,0.107,1.796,0.086,2.635c-0.016,0.656,0.075,2.087-0.439,2.516
		c0.717,0,1.434,0,2.151,0c-0.203-0.587-0.299-1.053-0.268-1.677c0.043-0.896-0.142-1.792-0.059-2.68
		c0.075-0.814,0.005-1.63,0.029-2.445c0.02-0.634,0.239-1.265,0.239-1.892c0,0.128,0.12,0.582,0.292,0.582
		c0.209,0-0.264-0.925-0.266-1.039c0-0.007,0.003-0.009,0.003-0.015c0.062-0.033,0.118-0.067,0.165-0.101
		c0.164,0.073,0.394,0.316,0.416,0.369c0.172,0.411,0.309,0.329,0.416,0.084c0.146-0.023,0.315-0.19,0.488-0.412
		c-0.056,0.185-0.122,0.365-0.205,0.531c-0.129,0.256,0.428,0.119,0.496,0.081c0.402-0.228,0.366-0.757,0.361-1.15
		c0,0.104,0.222,0.921,0.341,0.998c0.012,0.029,0.022,0.064,0.036,0.075c-0.011-0.008-0.009-0.042-0.014-0.061l0,0
		c0.156-0.041,0.084-0.523,0.145-0.641c-0.072,0.145,0.037,0.531,0.279,0.501c0.363-0.046,0.518,0.732,0.668,0.941
		c0.883,1.212,0.574-0.935,0.514-0.95c0.379,0.101,0.162,1.134,0.459,1.226c0.4,0.126,0.457-1.464,0.494-1.572
		c0.195-0.587,1.041,0.883,0.232,1.134c0.131,0.056,0.912,0.553,0.967,0.521c0.115-0.062,0.025-0.454,0.018-0.557
		c0.014,0.161,0.48-0.108,0.514-0.13c0.34-0.23,0.125-0.671-0.012-0.977c0.15,0.112,0.377-0.056,0.602,0.073
		c0.305,0.176,0.424,0.502,0.818,0.545c0.281,0.03,0.117-0.653,0.117-0.785c0-0.229,0.727,0.308,0.812,0.029
		c-0.01,0.035-1.439-1.56-0.238-1.068c0.071,0.028,0.148-0.021,0.23-0.086c0.099,0.579,0.102,1.351,0.158,1.571
		c0.294,1.149,0.89,2.209,1.149,3.389c0.21,0.954,0.125,2.085,0.1,3.06c-0.019,0.762,0.087,2.425-0.51,2.922
		c0.833,0,1.666,0,2.499,0c-0.237-0.682-0.348-1.222-0.312-1.946c0.051-1.042-0.164-2.082-0.068-3.114
		c0.088-0.945,0.006-1.893,0.035-2.839c0.022-0.736,0.277-1.47,0.277-2.197c0,0.148,0.139,0.675,0.339,0.675
		c0.229,0-0.241-0.945-0.298-1.166c-0.002-0.024,0.001-0.043-0.004-0.071c0.033-0.373,0.632,0.231,0.672,0.326
		c0.449,1.077,0.694-0.758,0.812-1.114c0.102-0.308,0.484-0.245,0.402,0.103c-0.097,0.414-0.211,0.866-0.402,1.248
		c-0.149,0.296,0.497,0.139,0.575,0.094c0.469-0.264,0.426-0.879,0.42-1.337c0.001,0.13,0.294,1.208,0.422,1.176
		c0.183-0.046,0.099-0.607,0.168-0.743c-0.084,0.168,0.043,0.617,0.324,0.582c0.422-0.053,0.602,0.852,0.777,1.093
		c1.024,1.408,0.666-1.085,0.597-1.104c0.438,0.117,0.188,1.317,0.533,1.425c0.464,0.146,0.53-1.702,0.572-1.827
		c0.229-0.681,1.211,1.026,0.271,1.316c0.151,0.064,1.059,0.643,1.124,0.606c0.134-0.072,0.029-0.528,0.02-0.647
		c0.016,0.188,0.559-0.124,0.597-0.149c0.396-0.269,0.145-0.78-0.015-1.135c0.177,0.131,0.439-0.065,0.699,0.085
		c0.355,0.203,0.493,0.582,0.951,0.634c0.327,0.035,0.136-0.761,0.136-0.913c0-0.265,0.845,0.358,0.944,0.033
		c-0.013,0.042-1.672-1.81-0.277-1.24c0.222,0.091,0.485-0.413,0.812-0.442c0.335-0.03,0.91,0.695,0.455,0.855
		c-0.274,0.098-0.748-0.139-0.793,0.231c-0.069,0.588,0.256,0.442,0.652,0.297c0.334-0.123,0.604,0.509,0.797,0.241
		c0.4-0.556,0.437,0.006,0.819-0.278c0.04-0.029-0.858-1.35,0.166-0.605c0.093,0.067,0.974,0.948,1.017,0.839
		c0.075-0.186-0.094-0.542,0.201-0.605c0.272-0.059-0.369-1.739-0.679-1.752c-0.478-0.018-0.838,0.063-0.752-0.529
		c0.11-0.763,0.479,0.198,0.746-0.156c0.15-0.2-0.103-0.384,0.144-0.608c0.266-0.243,0.08-0.685,0.271-0.861
		c0.135-0.124,2.062-0.086,2.174-0.041c-0.397-0.16-0.263-0.104-0.047-0.435c0.087-0.133-0.168-0.456-0.168-0.615
		c0-0.443-0.442-0.035-0.58,0.068c-0.22,0.166-1.064-0.247-1.05-0.301c0.095-0.33,1.149-0.969,1.126-1.078
		c-0.014-0.065-0.8,0.194-0.777,0.05c0.031-0.201,0.74-0.604,0.734-0.736c-0.005-0.151-0.258-0.24-0.081-0.398
		c0.197-0.179,0.492-0.219,0.706-0.377c0.198-0.146,1.195-0.726,1.125-0.865c-0.493-0.98,0.791-0.405,0.729-0.786
		c-0.033-0.203-0.54-0.465-0.637-0.771c-0.1-0.316-0.702-0.617-1.005-0.735c-0.652-0.254-0.994-0.575-1.641-0.113
		c-0.205,0.147-0.738-0.094-0.825-0.316c-0.06-0.149,0.429-0.358,0.203-0.732c-0.093-0.155,0.102-0.937,0.19-1.083
		c0.085,0.009,0.17,0.006,0.255-0.006c0.157-0.143-0.954-1.324-0.202-1.104c1.195,0.35,0.077-1.102,0.215-1.208
		c0.199-0.152,0.438,0.227,0.636-0.141c0.226-0.42,0.482-0.049,0.607,0.202c0.264,0.525,0.351-0.076,0.6-0.185
		c0.164-0.071,0.214,0.074,0.376-0.138c0.228-0.298,1.221,0.071,1.515,0.087C83.413,57.148,82.91,56.804,83.045,56.471z
		 M29.618,41.584c-0.249-0.247-0.528-0.521-0.448-0.896c0.267,0.214,0.474,0.077,0.733,0.163
		C30.022,40.892,29.662,41.513,29.618,41.584z M22.243,41.828c0.059-0.098,0.034-0.055,0.005-0.006
		c0.638-1.039,1.827,0.949,2.073,1.513c-0.486-0.284-2.38-0.981-2.078-1.505C22.213,41.88,22.184,41.929,22.243,41.828z
		 M25.116,48.453c-0.384,0.842-0.542,0.375-1.039-0.188c-0.139-0.159-0.074-0.085-0.004-0.006c-0.226-0.264,0.288-0.001,0.413-0.157
		c0.224-0.281-0.529-0.854-0.715-0.934c-0.352-0.151-2.008-0.973-1.682-1.596c0.18-0.343,0.801,0.235,1.009,0.194
		c0.227-0.044-0.031-0.879,0.423-0.98c0.324-0.073,0.465-0.008,0.566,0.333c0.16,0.542-0.331,0.519-0.499,0.946
		c-0.11,0.28,1.367-0.01,1.262-0.082c0.529,0.362-0.473,0.853-0.128,1.318C25.202,47.948,25.496,47.62,25.116,48.453z
		 M26.764,44.761c-0.295,0.165-0.552,0.119-0.77-0.169c-0.463-0.61,0.245-0.599,0.562-0.844c-0.048,0.039-0.09,0.073,0.007-0.004
		c0.185-0.151,0.804,0.24,1.018,0.325c0.104,0.075,0.159,0.175,0.166,0.302c0.096,0.255,0.513,0.052,0.69,0.228
		C27.935,44.586,27.218,44.51,26.764,44.761z M37.274,69.976l0.153,0.578c-0.012,0.016-0.022,0.029-0.032,0.043
		C37.355,70.39,37.315,70.185,37.274,69.976z M37.69,69.969c0.034,0.027,0.05,0.07,0.069,0.109c-0.06,0.089-0.15,0.219-0.234,0.339
		C37.565,70.181,37.626,69.916,37.69,69.969z M37.766,72.266c0.016-0.009,0.026-0.014,0.028-0.011
		c0.062,0.098,0.069,0.204,0.057,0.313C37.823,72.468,37.792,72.367,37.766,72.266z M37.666,71.868
		c-0.089-0.377-0.169-0.76-0.246-1.146c0.019,0.007,0.036,0.017,0.057,0.019l0.003,0.01c0-0.002,0.001-0.008,0.001-0.011
		c0.097,0.006,0.211-0.039,0.329-0.114c-0.003,0.044-0.007,0.09-0.007,0.125c0,0.02,0.41-0.307,0.452-0.367
		c-0.053,0.455-0.3,1.079,0.207,0.795c0.008-0.005,0.012,0.012,0.019,0.011c-0.178,0.238-0.366,0.46-0.6,0.6
		C37.846,71.81,37.765,71.836,37.666,71.868z M38.202,73.63c0.045-0.04,0.089-0.084,0.144-0.099
		c0.046-0.012,0.083,0.012,0.119,0.038c-0.058,0.362-0.089,0.521-0.089,0.521C38.309,73.938,38.26,73.783,38.202,73.63z
		 M39.956,73.825c0.044-0.384,0.111-0.767,0.177-1.148c0.011,0.077-0.009,0.2,0.015,0.451C40.17,73.35,40.023,73.595,39.956,73.825z
		 M50.643,76.558c-0.058,0.377-0.087,0.523-0.087,0.523c-0.417-0.955-0.59-1.922-0.786-2.937l0.146,0.554
		c0.002-0.054,0.074-0.622,0.15-0.559c0.143,0.116,0.08,0.407,0.08,0.559c0,0.014,0.292-0.221,0.323-0.263
		c-0.038,0.324-0.214,0.771,0.148,0.566C50.81,74.893,50.652,76.492,50.643,76.558z M62.919,75.752
		c-0.067,0.438-0.102,0.608-0.102,0.608c-0.259-0.595-0.435-1.194-0.579-1.804c0.085,0.062,0.161,0.093,0.227,0.002
		c0.272-0.377,0.352-0.16,0.533-0.17C63.005,74.909,62.927,75.703,62.919,75.752z M77.797,52.912
		c0.009,0.061-0.021,0.11-0.088,0.147c0.067-0.084,0.134-0.167-0.001,0.001L77.797,52.912z M77.635,50.235
		c-0.098,0.077,0.274,0.544,0.146,0.704c-0.084,0.105-0.184,0.195-0.286,0.281C77.747,50.987,77.196,50.581,77.635,50.235z
		 M76.765,46.379l-0.494-0.204C76.439,46.287,76.649,46.154,76.765,46.379z M77.036,51.539l-0.614-0.171
		c0.311-0.577,0.469-0.176,1.016-0.143c0.002,0.002,0.015,0.004,0.048,0.005C77.345,51.347,77.195,51.451,77.036,51.539z
		 M77.282,52.146l0.127-0.583c0.016-0.026,0.144,0.123,0.142,0.148C77.538,51.828,77.338,52.027,77.282,52.146z M78.521,66.364
		l0.27-0.404C78.714,66.116,78.789,66.305,78.521,66.364z M79.192,64.306c-0.066,0.025-0.132,0.05,0.002-0.001
		c0.134-0.05,0.068-0.025,0.002,0c0.228-0.084,0.343,0.062,0.538-0.135c0.185-0.184,0.145-0.419,0.349-0.621
		c-0.02,0.019-0.075,0.021-0.103,0.036c0.718-0.403,0.633-0.233,0.193-0.664c0.139,0.136,0.564,0.063,0.741,0.251
		c0.117,0.125-0.54,0.503-0.603,0.561c-0.26,0.234-0.177,0.678-0.394,0.88c-0.329,0.307-0.822,0.326-1.232,0.199
		C78.822,64.678,78.925,64.408,79.192,64.306z M78.586,63.122c-0.032,0.182-0.017,0.098,0,0.007c-0.095,0.563,0.476,0.8-0.045,1.407
		c0.137-0.158-0.371-0.32-0.156-0.534c0.127-0.128,0.146-0.382-0.047-0.436L78.586,63.122z"/>
	<polygon points="79.194,64.305 79.192,64.306 79.196,64.305 	"/>
	<path d="M45.343,75.142c-0.043-0.013-0.11-0.105-0.18-0.214C45.17,75.026,45.221,75.104,45.343,75.142z"/>
</g>
</svg>
