<?xml version="1.0" encoding="utf-8"?>
<!-- Generator: Adobe Illustrator 15.0.2, SVG Export Plug-In . SVG Version: 6.00 Build 0)  -->
<!DOCTYPE svg PUBLIC "-//W3C//DTD SVG 1.1//EN" "http://www.w3.org/Graphics/SVG/1.1/DTD/svg11.dtd">
<svg version="1.1" id="Ebene_1" xmlns="http://www.w3.org/2000/svg" xmlns:xlink="http://www.w3.org/1999/xlink" x="0px" y="0px"
	 width="100px" height="100px" viewBox="0 0 100 100" enable-background="new 0 0 100 100" xml:space="preserve">
<circle fill="#B2B2B2" cx="50" cy="50" r="50"/>
<path d="M61.19,34.894l0.425-0.079c0,0-2.177-4.897-2.177-6.171c0-1.273-1.394-4.379-3.105-5.096
	c-1.712-0.716-1.989-1.672-2.966-1.971c-0.975-0.298-1.412-0.431-1.412-1.068s-0.465-0.968-0.85-0.583c0,0-0.267-0.478,0.212-0.664
	s0.826-0.004,1.095-0.272c0.269-0.269,0.293,0.015,0.577-0.269c0.284-0.284,0.299,0.249,0.637-0.268
	c0.339-0.518,0.657-0.199,0.657-0.518c0-0.318-0.199-1.214-0.199-1.214l3.682-2.906c0,0-3.244-3.006-3.244-3.782l0.798-0.816
	c0,0-0.956-1.672-2.031-2.25s-1.036-0.617-2.13,0.22c-1.096,0.835-3.145,2.607-3.145,2.607s-0.498-0.577-1.115-0.179
	c-0.617,0.398-0.756,0.438-1.234,0.299c-0.479-0.14-0.717-0.478-1.055-0.14c-0.339,0.339-0.976,0.318-0.976,0.637
	c0,0.318-0.557,0.417-0.438,0.836c0.12,0.417-0.279,0.318-0.179,0.716c0.1,0.397,0.14,0.478,0.418,0.756
	c0.279,0.278-0.09,0.389,0.04,0.517c0.129,0.13-0.06,0.578,0.159,0.578c0.219,0,0.339,0.119,0.339,0.119s0.1,0.916-0.538,1.353
	c-0.637,0.439-1.174,1.095-0.835,1.434c0.338,0.338,0.656,0.537,0.378,0.816c-0.279,0.279-0.199,0.432-0.1,0.531
	c0.1,0.099,0.1,0.099,0.1,0.099s-0.298,0.192-0.127,0.365c0.173,0.172,0.398,0.292,0.226,0.664c-0.172,0.371-0.212,0.61,0.478,0.875
	c0.69,0.265,1.26,0.451,1.726,0.451c0.464,0,0.663-0.199,0.875,0.146c0.213,0.345,0.305,0.743,0.16,1.035
	c-0.146,0.292-0.146,0.292-0.146,0.292s-0.85,0.372-1.619,0.664s-2.15,0.796-2.15,2.256c0,1.459-1.221,3.423-1.008,4.3
	c0.211,0.875,0.345,2.017-0.186,2.919c-0.531,0.903-1.062,2.495-1.062,2.495s1.194,1.167,1.938,1.167c0,0-1.248,0.824-0.743,1.992
	c0.504,1.168,1.725,2.123,2.708,2.123c0.981,0,1.034,0.106,1.034,0.106s0.067,0.093-0.265,0.425
	c-0.332,0.331-2.057,1.857-2.057,3.808s0.438,2.269,0,3.543c-0.437,1.274-0.437,2.827-0.199,3.702
	c0.239,0.876-0.04,2.827-0.318,4.14c-0.279,1.315-0.557,5.934-1.115,7.405c-0.557,1.474-0.677,3.266-0.677,3.266
	s0.538,0.299,1.195,0.955c0.657,0.657,2.986,2.229,4.021,1.831c0,0,0.119,3.941,0.319,6.488c0.199,2.549,0.995,7.087,0.677,8.004
	c0,0-0.797-0.021-1.035,0.655c-0.239,0.678-0.697,1.893-1.454,2.189c-0.756,0.3-2.409,0.876-2.707,1.752s0.12,1.732,1.812,1.871
	c1.692,0.141,2.907-0.139,3.623-0.556c0.717-0.419,0.996-0.479,1.653-0.359c0.657,0.12,2.487-0.438,2.288-1.235
	c-0.198-0.794-0.02-1.173,0.08-1.65c0.101-0.478,0.418-2.012,0.101-2.131c-0.32-0.119-0.32,0.06-0.32,0.06s-0.517-3.204-0.139-5.114
	c0.377-1.911,0.703-5.607,0.703-5.607s0.188,4.565,0.691,6.13c0.502,1.567,0.45,3.691,0.265,4.486c0,0-0.638,0.026-0.876,0.584
	s0.531,0.982,0.531,0.982s-0.689,0.398-0.478,0.61c0.212,0.213,0.212,0.398,0.212,0.398s-1.061,2.441-1.061,2.998
	c0,0.558,0,0.85,0,0.85s-0.425,0.69,0.132,0.69s2.149,0.478,3.026,0.158c0.876-0.318,1.354-0.61,1.354-0.98
	c0-0.372,0.08-0.186,0.292-0.664s0.079-0.77,0.079-1.354c0-0.583,0-0.901,0.213-1.512c0.212-0.61-0.134-0.851-0.134-0.851
	s0.346-1.354,0.16-2.044c-0.186-0.689,0.265-2.44,0.77-3.768c0.504-1.326,0.771-4.671,0.479-6.423s-0.372-2.761-0.372-3.318
	c0-0.557,0-0.822,0-0.822s4.564,0.12,4.564-0.995c0-1.114-1.034-12.992-1.618-16.494c-0.584-3.505-2.282-9.981-2.282-9.981
	s1.618-0.105,1.485-0.796c-0.133-0.689-0.266-2.069-0.266-2.069s1.54-0.372,1.991-0.372s1.115-0.054,1.327-1.143
	C61.96,36.672,61.906,35.611,61.19,34.894z"/>
</svg>
