<?xml version="1.0" encoding="utf-8"?>
<!-- Generator: Adobe Illustrator 15.0.2, SVG Export Plug-In . SVG Version: 6.00 Build 0)  -->
<!DOCTYPE svg PUBLIC "-//W3C//DTD SVG 1.1//EN" "http://www.w3.org/Graphics/SVG/1.1/DTD/svg11.dtd">
<svg version="1.1" id="Ebene_1" xmlns="http://www.w3.org/2000/svg" xmlns:xlink="http://www.w3.org/1999/xlink" x="0px" y="0px"
	 width="100px" height="100px" viewBox="0 0 100 100" enable-background="new 0 0 100 100" xml:space="preserve">
<circle fill="#B2B2B2" cx="50" cy="50" r="50"/>
<path d="M90.52,54.007v-2.226h0.483v-1.658H90.12l-2.082-13.665h-1.733v13.665h-0.023c-0.067-0.229-0.277-0.4-0.529-0.4h-0.227
	c0.011-0.044,0.021-0.09,0.021-0.138v-3.454c0-0.306-0.248-0.553-0.554-0.553h-2.523H34.547c0.576-0.259,1.112-0.559,1.632-0.894
	c-1.981-2.553-4.199-3.492-9.833-4.205c-5.634-0.711-8.161,0.101-10.569,1.626c1.289,1.661,2.897,2.734,5.782,3.473H19.53h-2.522
	c-0.306,0-0.553,0.247-0.553,0.553v3.454c0,0.048,0.007,0.093,0.02,0.138h-0.227c-0.251,0-0.462,0.17-0.529,0.4h-0.024V27.339
	h-2.792l-1.15,22.784h-0.894v1.658h0.484v4.16h1.036h3.108h1.105v-2.625h1.866v1.657h2.072l9.38,4.214v1.397
	c0,0.331,0.183,0.62,0.453,0.771l-4.441,1.949l-0.511,1.065h-3.36v0.414v1.797v0.964c-0.261-0.087-0.54-0.136-0.829-0.136
	c-1.45,0-2.626,1.177-2.626,2.626c0,1.45,1.176,2.626,2.626,2.626c1.45,0,2.625-1.176,2.625-2.626c0-0.047-0.004-0.093-0.007-0.139
	h0.007v-3.315h24.078h3.731h30.365v0.964c-0.26-0.087-0.539-0.136-0.829-0.136c-1.449,0-2.626,1.177-2.626,2.626
	c0,1.45,1.177,2.626,2.626,2.626s2.626-1.176,2.626-2.626c0-0.047-0.006-0.093-0.008-0.139h0.008v-3.315v-1.797v-0.414H71.105
	v-0.242l4.542-1.97v-0.754c0.323-0.132,0.553-0.449,0.553-0.82v-1.742h1.124v-0.137v-2.021v-1.711h6.218v-0.551h1.727v1.519h5.251
	v-1.519h0.622v-0.416H90.52z M67.792,63.306l-0.513,1.065H29.237v-0.242l4.542-1.97v-0.754c0.324-0.132,0.554-0.449,0.554-0.82
	v-0.55h27.611c0.349,1.378,1.598,2.401,3.082,2.401h2.072c1.484,0,2.735-1.023,3.082-2.401h1.601v0.55
	c0,0.331,0.182,0.62,0.452,0.771L67.792,63.306z M73.431,57.757H31.442v-1.794h41.989V57.757z M85.269,54.007h-1.727v-0.69h1.727
	V54.007z"/>
</svg>
