<?xml version="1.0" encoding="utf-8"?>
<!-- Generator: Adobe Illustrator 15.0.2, SVG Export Plug-In . SVG Version: 6.00 Build 0)  -->
<!DOCTYPE svg PUBLIC "-//W3C//DTD SVG 1.1//EN" "http://www.w3.org/Graphics/SVG/1.1/DTD/svg11.dtd">
<svg version="1.1" id="Ebene_1" xmlns="http://www.w3.org/2000/svg" xmlns:xlink="http://www.w3.org/1999/xlink" x="0px" y="0px"
	 width="100px" height="100px" viewBox="0 0 100 100" enable-background="new 0 0 100 100" xml:space="preserve">
<circle fill="#B2B2B2" cx="50" cy="50" r="50"/>
<g>
	<polygon fill-rule="evenodd" clip-rule="evenodd" points="13.106,24.361 13.021,24.337 12.988,24.419 13.083,24.419 	"/>
	<polygon fill-rule="evenodd" clip-rule="evenodd" points="13.054,25.01 13.196,25.045 13.234,24.893 13.078,24.86 	"/>
	<polygon fill-rule="evenodd" clip-rule="evenodd" points="14.997,27.076 14.908,27.047 14.908,27.216 14.972,27.194 	"/>
	<polygon fill-rule="evenodd" clip-rule="evenodd" points="14.966,30.155 15.085,30.173 15.121,29.967 15.085,29.908 14.971,29.967 
			"/>
	<path fill-rule="evenodd" clip-rule="evenodd" d="M86.682,26.119c-0.179-0.053-2.004-0.626-2.494-0.77
		c-0.492-0.144-3.208-1.01-3.735-1.177c-0.53-0.166-2.966-0.994-3.342-1.135c0.059-0.353-0.115-0.545-0.147-0.594
		c-0.031-0.049-0.155-0.285-0.938-0.836c-0.781-0.551-2.165-1.143-2.347-1.206c-0.178-0.063-1.042-0.321-1.067-0.322
		c-0.026,0-0.074,0.027-0.09,0.038c-0.015,0.011-0.019,0.018-0.084-0.002c0.005-0.096-0.038-0.104-0.038-0.104
		s-4.557-0.434-4.606-0.427c-0.047,0.007-0.848,0.27-1.341,0.581c-0.396,0.231-0.58,0.661-0.58,0.661s-0.184,0.882-0.258,1.209
		s0.078,0.504,0.078,0.504L63.79,33.417l-0.181,0.147l-0.244,1.583c0,0-0.015,0.002-0.037,0.046c-0.35-0.034-0.76-0.054-1.202-0.054
		c-1.254,0-2.271,0.157-2.271,0.343c0,0.208,0.003,0.406,0.01,0.598c-1.137-0.37-3.804,0.431-3.804,0.431
		c-0.975-0.227-5.308,0.227-5.308,0.227c-1.729-1.026-4.764-0.796-4.764-0.796l-1.409-1.483c0-1.026-0.753-1.944-0.753-1.944
		c0-0.798-1.768-3.543-1.768-3.543c0.844,0,1.116-1.587,1.116-1.587l0.326-1.026c0.326-0.572,0.759-0.227,0.759-0.227
		c0.539,0.113,0.756-0.459,0.756-0.459l-0.114-1.598c0.438-0.113,0.438-2.282,0.438-2.282l0.213-1.711l0.869,0.115
		c0.106-0.684-1.3-2.395-1.3-2.395c-1.841-3.422-6.282-2.398-6.282-2.398c-2.49,0.115-4.872,6.279-4.872,6.279
		c-0.214,0.34,0.319,0.909,0.319,0.909l-0.753,0.46c-0.432-1.259-2.814,1.253-2.814,1.253c-2.601,1.939-6.498,6.845-6.498,6.845
		c-0.615,1.114-2.17,3.914-3.538,6.374c-0.826,0.472-4.389,2.577-5.654,4.47c-0.081,0.09-0.151,0.197-0.201,0.341
		c-0.253,0.488-0.332,0.954-0.137,1.365l0.019,0.043c0.263,4.997,5.265,17.858,5.265,17.858c0.325,0.867,1.107,1.495,2.166,1.948
		c-1.028,2.365-2.747,7.346-3.118,14.835C18.483,89.22,20,78.611,20,78.611s1.499-10.723,3.333-14.656
		c2.42,0.66,5.694,0.706,8.547,0.56l0.474,1.867c-0.854,2.688-1.925,7.196-2.191,13.481c-0.46,10.841,0.826,0.228,0.826,0.228
		s0.805-6.769,1.919-11.523l1.708,6.732c0,0,0.323-0.681,0.113-3.42l-1.153-5.746c0.271-0.817,0.553-1.449,0.839-1.802
		c0.068-0.007,0.134-0.013,0.201-0.02c-0.019,0.021-0.032,0.038-0.032,0.038l0.187-0.053c1.961-0.19,3.311-0.406,3.311-0.406
		c0.565-0.062,1.008-0.333,1.295-0.689c0.04,0.004,0.079,0.009,0.12,0.015c0.072,0.268,0.105,0.446,0.105,0.446
		c0,0.568,1.246,3.132,1.974,4.582l1.838,8.539c0,0,0.282-0.683,0.097-3.421l-0.482-2.819c0.494,0.641,1.071,1.365,1.552,1.962
		v8.495l0.107,0.118h2.165l0.114-0.118v-5.49c0.363,0.399,0.654,0.705,0.654,0.705c-0.438,1.141,1.292,1.709,1.292,1.709
		c0.429,0,2.167,1.938,2.167,1.938c4.769,2.056,3.79-2.396,3.79-2.396c8.659-2.739-2.815-3.422-2.815-3.422
		c-0.975-0.456-0.326-2.621-0.326-2.621c0-0.915,0.761-12.096,0.761-12.096c0-1.484,0.541-7.189,0.541-7.189
		c0-2.502-4.62-2.891-6.063-2.951v-7.311l-0.114-0.117h32.922l-0.103,0.117v39.123l0.103,0.118h2.171l0.107-0.118V41.878
		l-0.107-0.117h2.165l0.108-0.115v-1.486l-0.108-0.111h-7.27c0.011-0.06,0.012-0.14,0-0.217c-0.03-0.108-0.137-0.162-0.137-0.162
		s-1.465-0.619-1.335-0.634c0.129-0.016,0.322-0.226,0.322-0.226l3.47,0.122c0,0,0.155,0.088,0.31,0.188
		c0.139,0.091,0.276,0.197,0.336,0.21c0.125,0.028,0.616,0.042,0.682,0.051c0.066,0.009,0.064-0.05,0.064-0.05l0.044-0.339
		c0,0,1.405,0.078,1.564,0.074c0.16-0.003,0.158-0.122,0.158-0.122s0.133-0.78,0.274-1.599c0.152-0.885,0.314-1.813,0.314-1.813
		s-0.003-0.003,0.042-0.22c0.559-0.029,1.779,0.061,1.979,0.072c0.198,0.011,0.202-0.17,0.202-0.17s0.189-1.041,0.289-1.638
		c0.103-0.596,0.349-1.898,0.441-2.458s0.236-1.406,0.489-2.512c0.253-1.107,0.55-1.895,0.649-2.236
		C87.062,26.172,86.861,26.171,86.682,26.119z M66.755,38.171c0.237,0.142,0.876,0.469,0.895,0.48
		c0.019,0.013-0.102,0.04-0.146,0.056c-0.045,0.019-0.876,0.418-0.876,0.418s-0.346,0-0.757-0.08
		c-0.412-0.079-1.104-0.204-1.668-0.268c-0.056-0.006-0.1-0.009-0.15-0.014c0.079-0.435,0.144-0.935,0.195-1.417
		c0.254,0.185,0.399,0.208,0.469,0.238C64.798,37.621,66.413,38.083,66.755,38.171z M44.581,41.878v7.226
		c-0.822,0.014-1.756,0.052-2.549,0.09c-0.263-0.796-0.924-1.635-2.427-2.181c0.062-1.277-0.221-3.655-0.221-3.655
		c0.435-1.255,1.079-4.223,1.079-4.223h1.735c0.146,0.433,0.429,0.72,0.761,0.913h-0.542l-0.111,0.111v1.486l0.111,0.115h2.27
		L44.581,41.878z M60.01,40.048c0.23-0.199,0.271-0.456,0.271-0.456c0.072-0.019,0.129-0.047,0.188-0.072
		c0.113,0.28,0.197,0.411,0.197,0.411h2.924c0.175,0,0.319-0.426,0.436-1.013c0.019,0,0.045,0.001,0.062,0.001
		c0.311,0.003,1.246,0.16,1.757,0.256c0.265,0.05,0.539,0.052,0.539,0.052l-1.135,0.556c0,0-0.053,0.176-0.032,0.265H60.01z
		 M75.161,38.912c0,0-0.079-0.097-0.01-0.1c0.071-0.001,0.326,0.007,0.326,0.007S75.32,38.933,75.161,38.912z"/>
</g>
</svg>
