<?xml version="1.0" encoding="utf-8"?>
<!-- Generator: Adobe Illustrator 15.0.2, SVG Export Plug-In . SVG Version: 6.00 Build 0)  -->
<!DOCTYPE svg PUBLIC "-//W3C//DTD SVG 1.1//EN" "http://www.w3.org/Graphics/SVG/1.1/DTD/svg11.dtd">
<svg version="1.1" id="Ebene_1" xmlns="http://www.w3.org/2000/svg" xmlns:xlink="http://www.w3.org/1999/xlink" x="0px" y="0px"
	 width="100px" height="100px" viewBox="0 0 100 100" enable-background="new 0 0 100 100" xml:space="preserve">
<circle fill="#B2B2B2" cx="50" cy="50" r="50"/>
<g>
	<path d="M42.492,36.644c-0.044-0.607,0.032-0.877,0.156-1.424c0.126-0.583,0.275-1.094,0.259-1.703
		c-0.033-1.291-0.41-3.092-0.778-4.373c-0.258-0.889-0.319-0.685-0.656-1.34c-0.314-0.611-0.362-1.099-0.881-1.694
		c-0.344-0.391-0.987-0.881-1.445-1.122L38.73,24.78l-0.425-0.156c-0.036-0.025-0.256-0.328-0.291-0.383
		c-0.239-0.375-0.312-0.729-0.427-1.165l-0.583,0.259l-0.299-0.579c0.137-0.051,0.475,0.054,0.538-0.177
		c0.034-0.121,0.011-0.881,0.136-1.194c0.167-0.414,0.251-0.665,0.354-1.125c0.064-0.295,0.174-0.951,0.197-1.235l0.02-0.779
		l-0.05-0.832l-0.197-0.819l-0.364-0.77l-0.634-0.738c-0.132-0.134-0.341-0.283-0.528-0.311c-0.135-0.021-0.441,0.02-0.593,0.02
		c-0.642-0.002-0.46-0.139-0.685-0.25l-0.302-0.136l-0.457-0.07c-0.582-0.064-1.744-0.027-2.326,0.062
		c-0.252,0.042-0.486,0.082-0.718,0.186c-0.39,0.173-1.84,1.588-2.421,1.985c-0.287,0.196-0.343,0.158-0.654,0.445
		c-0.63,0.589-0.405,0.615-0.477,0.833c-0.028,0.08-0.043,0.076-0.074,0.136l-0.062,0.186l0.01,0.072
		c0.11-0.126,0.169-0.161,0.332-0.198c0.047,0.066,0.092,0.146,0.178,0.167c0.052,0.011,0.157-0.012,0.238,0.103
		c0.044,0.068,0.07,0.223,0.135,0.27l0.061,0.021c0.039,0.017,0.124,0.085,0.2,0.062c0.066-0.022,0.144-0.121,0.165-0.188
		c0.041-0.126,0.035-0.198,0.313-0.233c-0.065,0.197-0.074,0.377-0.074,0.586l0.01,0.005c-0.011,0.278,0.042,0.773,0.147,1.038
		c-0.052,0.019-0.052,0.031-0.085,0.08c0.12,0.206,0.151,0.08,0.188,0.259c0.037,0.185,0.034,0.159-0.01,0.344
		c-0.105,0.428-0.184,0.864-0.208,1.309c-0.014,0.271-0.024,0.368,0.396,0.417c0.11,0.011,0.225,0.002,0.269,0.113
		c0.074,0.182-0.104,0.434,0.031,0.55c0.093,0.08,0.208,0.007,0.197,0.198c-0.004,0.099-0.086,0.189-0.073,0.29
		c0.031,0.113,0.04,0.09,0.105,0.146l0.228,0.259c0.019,0.036,0.053,0.152,0.049,0.191l-0.018,0.039l0.019-0.025l-0.009,0.149
		l0.041,0.415l0.051,0.073l-0.019,0.01c0.033,0.066,0.143,0.166,0.209,0.198l0.189,0.058l-0.004,0.016
		c0.167,0,0.33,0.018,0.495-0.004l0.004,0.004c0.409,0.021,0.632-0.035,1.027-0.074c0.296-0.029,0.306-0.037,0.468,0.187
		l0.003-0.006c0.088,0.135,0.157,0.29,0.34,0.358c0.14,0.055,0.111-0.004,0.207,0.189l0.131,0.25
		c-2.13,2.446-2.364,7.613-3.103,10.564l-0.145,0.508c-0.06,0.225-0.174,0.821-0.198,1.05c-0.037,0.366-0.017,0.754-0.009,1.122
		c0.001,0.101-0.042,0.151-0.074,0.248c-0.078,0.242-0.101,0.753-0.093,1.008c0.014,0.488,0.128,0.972,0.312,1.424
		c0.075,0.176,0.454,1.083,0.602,1.215l0.072,0.058l-0.029,0.774l-0.895,0.196c-0.321,0.081-0.168,0.081-0.436,0.043
		c-0.285-0.043-0.583-0.039-0.872-0.053c-0.226-0.016-0.368-0.062-0.634-0.042c-0.953,0.074-1.328,0.659-1.589,0.811
		c-0.142,0.082-0.492,0.408-0.633,0.531c-0.044,0.037-0.069,0.044-0.083,0.103l-0.006,0.179l-3.08-0.428
		c-2.672,1.329-5.247,2.682-7.896,4.029l0.088,0.119l7.579-0.002l3.342-1.896l0.139,0.036c0.178,0.036,0.317-0.01,0.644,0.083
		c0.229,0.064,0.451,0.185,0.696,0.197l0.343,0.052c0.381,0.08,0.21,0.084,0.353,0.135c0.09,0.031,0.298,0.004,0.395,0.012
		c0.161,0.013,0.397,0.076,0.581,0.009c0.259-0.091,0.694-0.694,1.205-0.758c0.137-0.016,0.291,0.019,0.41-0.06
		c-0.141,0.679-0.287,1.359-0.451,2.034c-0.181,0.749-0.382,1.494-0.552,2.244L29.08,52.61l-0.134,0.906l-0.053,0.787
		c-0.01,0.363,0.018,0.97,0.042,1.34c0.046,0.704,0.12,1.33,0.094,2.048c-0.07,1.295-0.254,2.582-0.374,3.875l-0.125,1.412
		l-0.114,1.382l-0.063,1.381l-0.041,1.414l0.031,1.474l0.074,1.579l0.053,1.674l-0.147,1.515L28.04,74.78l-0.414,1.276l-0.51,1.175
		l-0.582,1.11l-0.633,1.062l-0.615,0.959l-0.165,0.068c-0.407,0.212-0.732,0.616-1.079,0.779c-0.433,0.189-0.828,0.224-1.28,0.28
		c-0.538,0.073-0.433,0.062-0.954,0.062c-0.319,0-0.794-0.032-1.061,0.168c-0.274,0.204-0.245,0.472-0.322,0.56
		c-0.088,0.1-0.461,0.167-0.218,0.376c0.104,0.087,0.125,0.066,0.29,0.248c0.167,0.174,0.178,0.202,0.364,0.312
		c0.236,0.139,0.462,0.233,0.717,0.345c0.325,0.13,0.269,0.226,0.707,0.342c0.583,0.153,0.938,0.3,1.588,0.302
		c0.938,0,2.244-0.286,3.21-0.354c0.127-0.01,0.436-0.032,0.551-0.01c0.079,0.2-0.042,0.406,0.207,0.424l3.167,0.053l0.282-0.053
		c0.075-0.038,0.208-0.373,0.218-0.457c0.014-0.111-0.031-0.271-0.042-0.383l-0.011-0.603l-0.046-0.164l0.246,0.018
		c0.157-0.381,0.173-0.385,0.249-0.799c0.073-0.404,0.094-0.822,0.217-1.215l0.167-0.426l0.281-0.447l0.425-0.447l0.862-1.787
		l0.323-1.881l-0.021-0.507c0.333,0.479,1.261,1.67,1.413,2.098l0.188,0.706l-0.011,0.624l-0.146,0.57l-0.219,0.571l-0.207,0.604
		l-0.103,0.443l-0.022,0.043L35,81.229c-0.052,0.479,0.009,1.153,0.157,1.622c0.055,0.175,0.119,0.387,0.149,0.567l-0.274,0.265
		c-0.465,0.396-1.581,1.056-2.171,1.205c-0.391,0.098-1.246,0.098-1.536,0.394c-0.228,0.231-0.143,0.446-0.177,0.562l-0.035,0.084
		l-0.018-0.011c-0.04,0.096-0.158,0.207-0.167,0.31l0.013,0.064v0.104l0.145,0.196l0.228,0.167c0.142,0.082,0.483,0.208,0.644,0.249
		c0.165,0.043,0.58,0.112,0.758,0.134l0.363,0.031l0.301,0.043c0.301,0.024,1.067,0.027,1.383,0.021
		c1.095-0.023,2.58-0.186,3.646-0.427l0.564-0.144l0.185,0.247c0.215-0.048,2.235-0.491,2.307-0.528l0.218-0.199l0.166-0.291
		c0.077-0.179,0.161-0.594,0.177-0.759c0.014-0.144,0.012-0.642-0.011-0.777c-0.078-0.257-0.064-0.529-0.103-0.842l-0.031-0.178
		l-0.032-0.478l0.217-0.998c0.075-0.418,0.205-1.597,0.229-2.024c0.021-0.386,0.034-1.627,0.02-2.016
		c-0.011-0.372-0.095-1.523-0.135-1.9l-0.114-0.861c-0.148-1.14-0.297-2.277-0.487-3.408c-0.229-1.304-0.466-2.603-0.738-3.896
		c-0.163-0.774-0.742-3.39-0.883-3.804c-0.123-0.357-0.435-0.938-0.569-1.277c-0.075-0.183-0.237-0.696-0.261-0.883l-0.012-0.467
		l0.083-0.466l0.136-0.49c0.232-1.014,0.217-2.381,0.208-3.429L39.53,56.34l0.053-0.436l0.113-0.345
		c2.227-2.917,2.895-5.528,1.256-9.025l-0.185-0.812l-0.1-0.307l0.639-0.523l0.685-0.728l0.489-0.727l0.303-0.716l0.175-0.758
		l0.063-0.801c0.022-0.583-0.03-1.75-0.105-2.326C42.823,38.127,42.546,37.406,42.492,36.644z"/>
	<path d="M79.224,83.879c0-0.12-0.103-0.548-0.394-1.028c-0.291-0.479-2.399-0.548-2.69-0.548s-0.445-0.239-0.65-0.411
		c-0.206-0.172-0.548-0.31-0.668-0.394c-0.12-0.086-0.258-0.378-0.532-0.446c-0.273-0.068-0.377-0.068-0.496-0.359
		c-0.12-0.291-0.479-0.686-0.565-0.771c-0.086-0.085,0.086-0.325,0.463-0.463c0.377-0.136,0.067-0.309,0.205-0.685
		c0.138-0.377,0.154-0.977,0.172-1.251c0.017-0.274-0.223-0.6-0.875-0.788c-0.65-0.188-1.541-1.679-1.695-1.833
		s-0.188-0.497-0.154-0.926c0.034-0.428,0.24-3.7,0.273-4.54c0.035-0.84-0.497-2.176-0.616-2.416c-0.119-0.239,0.018-0.891,0-1.422
		s-0.137-2.964-0.188-3.427c-0.052-0.462-0.292-4.438-0.257-5.122c0.034-0.687-0.411-3.376-0.686-3.924
		c-0.273-0.549-0.273-2.553-0.257-2.981c0.017-0.429,0.052-0.856,0.068-1.714c0.017-0.856-0.36-2.946-0.429-3.272
		c-0.068-0.325,0.104-1.593,0.104-1.833c0-0.24-0.035-4.438-0.052-4.763c-0.017-0.326-0.257-0.771-0.325-1.011
		s-0.309-2.057-0.326-2.622c-0.017-0.565-1.439-4.609-1.695-5.191c-0.258-0.583-1.68-2.553-1.491-2.759
		c0.188-0.205,0.702-0.942,0.908-1.285c0.206-0.343,0.686-1.028,0.822-1.028s0.411,0.223,0.583,0.668
		c0.171,0.446,1.336,0.651,1.627,0.309c0.291-0.343-0.309-2.245-0.479-2.553c-0.086-0.154-0.258-0.026-0.121-0.515
		c0.257-0.912-0.58-1.08-0.531-1.079c0.754,0.017,0.754-0.239,0.617-0.548c-0.137-0.308-1.183-1.131-1.113-1.319
		c0.068-0.189-0.052-1.114-0.052-1.114s1.97,0.069,2.176,0.018c0.206-0.052,0-0.445,0-0.445l-1.542-0.446
		c0,0-1.555-3.628-2.639-4.232c-2.98-1.662-5.859,0.24-6.99,1.576s-0.239,4.711-0.239,4.711s-0.24,0.097-0.24,0.257
		c0,0.428,0.737,0.411,0.737,0.411s0.137,0.805,0.496,1.165s0.496,0.428,0.496,0.428S60,22.49,60.12,22.901
		c0.12,0.412,0.479,0.754,0.479,0.754s0.043,0.561-0.033,0.6c-0.309,0.154-0.566,0.256-0.789,0.376
		c-0.223,0.121-0.325,0.154-0.531,0.343c-0.205,0.188-0.291,0.497-0.496,1.011c-0.205,0.514-1.285,1.525-2.228,2.742
		s-1.765,3.975-1.851,4.608c-0.086,0.634,0.086,3.564,0.154,4.506c0.068,0.943,0.445,3.41,0.429,3.684
		c-0.018,0.274,0,1.85-0.292,2.552c-0.291,0.703-0.394,2.451-0.428,3.17c-0.034,0.72,0,1.919-0.154,2.022
		c-0.154,0.103-0.806,0.753-0.856,0.616c-0.052-0.137-1.148-1.25-1.148-1.25s-0.206,0.257-0.6,0.292s-0.445,0.137-0.839,0.497
		c-0.394,0.359-0.206,0.839-0.565,1.113c-0.36,0.275-0.634,0.72-0.891,1.2c-0.257,0.479-2.056,3.152-2.467,3.392
		c-0.411,0.24-0.257,0.377-0.257,0.377s0.651,0.892,1.131,1.268c0.48,0.377,0.634,1.131,1.233,1.628
		c0.6,0.497,1.097,1.594,1.097,1.594s1.029,0.273,1.097-0.086s0.805-1.405,0.805-1.405s-0.171,0.583,0.068,0.669
		c0.24,0.086,0.84,0.257,1.098,0.377c0.256,0.119,0.462,0.394,0.924,0.668c0.463,0.274,1.062,0.394,1.594,0.017
		c0.531-0.376,1.404-1.182,1.594-2.793c0.188-1.609-0.686-2.638-1.028-3.117c-0.343-0.48-0.479-0.994-0.479-0.994
		s0.223-0.051,0.479-0.119c0.257-0.069,0.651-0.463,0.668-0.412c0.018,0.052,0.309,0.445,0.377,0.651s0.034,0.6,0.017,0.908
		c-0.017,0.309,0.566,1.251,0.721,1.594c0.154,0.342,0.309,0.703,0.411,1.027c0.103,0.325,0.36,0.292,0.429,0.514
		c0.068,0.224,0.085,1.525,0.033,2.861c-0.051,1.337,0.686,4.523,0.771,4.712s0.137,0.566,0.103,0.822
		c-0.034,0.257,0.017,2.588-0.103,3.204c-0.119,0.617,0.086,3.701,0.154,4.507c0.068,0.805,0.445,2.861,0.496,3.323
		c0.053,0.463,0.24,2.192,0.137,2.312c-0.102,0.12-0.752,0.326-0.959,0.84c-0.205,0.515,0.651,1.183,0.737,1.319
		c0.085,0.137-0.017,0.634-0.086,0.993c-0.067,0.36-0.017,1.405-0.171,1.783c-0.154,0.376-0.086,1.165-0.189,1.438
		c-0.102,0.274-0.084,1.079,0.154,1.113c0.24,0.034,8.859,0.549,10.144,0.515c1.285-0.035,1.285-0.634,1.268-0.891
		c-0.018-0.258-0.36-1.2-0.018-1.217c0.343-0.018,6.717,0.154,7.334-0.188C79.412,84.599,79.224,83.999,79.224,83.879z
		 M54.552,55.289c0-0.103,0.239-0.536,0.411-0.696s0.148-0.423,0.148-0.423c0.469-0.297,0.492,0.651,0.457,0.708
		c-0.034,0.058-0.148,0.08-0.455,0.166c-0.309,0.085-0.401,0.873-0.436,0.873S54.552,55.393,54.552,55.289z M55.843,59.104
		c-0.297-0.022-0.721-0.41-0.628-0.753c0,0,0.285,0.262,0.469,0.262c0.182,0,0.685-0.205,0.787-0.262
		C56.574,58.294,56.14,59.127,55.843,59.104z M56.574,55.632c0.521,0.39,0.093,1.91,0.091,2.011
		c-0.011,0.594-0.696,0.88-0.822,0.822s-0.548-0.479-0.776-0.675c-0.229-0.193-0.012-1.667,0-1.987
		c0.01-0.319,0.56-0.742,0.56-0.742C55.773,54.935,55.945,55.164,56.574,55.632z M67.779,78.259c0,0.12-0.052,0.274-0.514,0.429
		c-0.464,0.154-0.104,1.045,0.051,1.079c0.154,0.035-0.018,0.36,0.12,0.856c0.137,0.497,0,0.943,0,1.199
		c0,0.258-0.24,1.062-0.325,1.046c-0.086-0.018-0.807-0.805-1.062-0.977c-0.258-0.172,0.154-0.463,0.173-0.686
		s0.409-1.542,0.443-1.713s-0.376-0.651-0.63-0.72s-0.176-0.359-0.244-0.823c-0.068-0.462,0.104-0.821,0.326-1.388
		c0.223-0.565,0.172-1.593,0.172-1.593s0.41,0.12,0.516,0.359c0.104,0.24,0.34,0.343,0.324,0.856
		c-0.018,0.515,0.529,1.457,0.65,1.679C67.898,78.088,67.779,78.139,67.779,78.259z"/>
</g>
</svg>
