<?xml version="1.0" encoding="utf-8"?>
<!-- Generator: Adobe Illustrator 15.0.2, SVG Export Plug-In . SVG Version: 6.00 Build 0)  -->
<!DOCTYPE svg PUBLIC "-//W3C//DTD SVG 1.1//EN" "http://www.w3.org/Graphics/SVG/1.1/DTD/svg11.dtd">
<svg version="1.1" id="Ebene_1" xmlns="http://www.w3.org/2000/svg" xmlns:xlink="http://www.w3.org/1999/xlink" x="0px" y="0px"
	 width="100px" height="100px" viewBox="0 0 100 100" enable-background="new 0 0 100 100" xml:space="preserve">
<circle fill="#B2B2B2" cx="50" cy="50" r="50"/>
<path d="M60.595,34.834h-0.417v-3.06h0.834c1.153,0,2.086-0.935,2.086-2.087v-8.348c0-1.153-0.933-2.086-2.086-2.086H38.988
	c-1.152,0-2.087,0.934-2.087,2.086v8.348c0,1.152,0.935,2.087,2.087,2.087h0.835v3.06h-0.417c-3.458,0-6.261,2.803-6.261,6.261
	v33.393c0,3.457,2.804,6.26,6.261,6.26h21.189c3.458,0,6.261-2.803,6.261-6.26V41.096C66.855,37.638,64.053,34.834,60.595,34.834z
	 M64.865,61.201c0,0.344-0.281,0.625-0.626,0.625H35.718c-0.345,0-0.625-0.281-0.625-0.625v-12.94c0-0.345,0.281-0.627,0.625-0.627
	h28.521c0.345,0,0.626,0.282,0.626,0.627V61.201z"/>
</svg>
