<?xml version="1.0" encoding="utf-8"?>
<!-- Generator: Adobe Illustrator 15.0.2, SVG Export Plug-In . SVG Version: 6.00 Build 0)  -->
<!DOCTYPE svg PUBLIC "-//W3C//DTD SVG 1.1//EN" "http://www.w3.org/Graphics/SVG/1.1/DTD/svg11.dtd">
<svg version="1.1" id="Ebene_1" xmlns="http://www.w3.org/2000/svg" xmlns:xlink="http://www.w3.org/1999/xlink" x="0px" y="0px"
	 width="100px" height="100px" viewBox="0 0 100 100" enable-background="new 0 0 100 100" xml:space="preserve">
<circle fill="#B2B2B2" cx="50" cy="50" r="50"/>
<g>
	<g>
		<path d="M71.322,84.748h-1.715l-4.055-10.771c0,0,4.873-3.975,4.873-18.848c0-16.734-8.963-20.845-13.207-21.854v-0.968h-0.641
			v-0.642h-1.9c-0.838-1.431-2.391-2.393-4.169-2.393c-0.924,0-1.788,0.26-2.521,0.71v-6.758h0.641v-1.026h-1.923v-10.3h-0.32
			v-0.875h0.577v-0.77h-6.924v0.77h0.577v0.875h-0.321v10.3h-1.923v1.026h0.641v22.933l-4.468-2.055l-0.536,1.165l-0.583-0.268
			l-0.696,1.514l1.09,0.501c0.051,0.311,0.3,0.691,0.712,1.112l-1.298,1.76c-0.139,0.188-0.092,0.489,0.096,0.842l-1.916,2.596
			l0.106,0.396l-1.066,1.445l-0.121,1.025l2.889,2.133l0.946-0.418l1.066-1.445l0.41-0.016l1.979-2.682
			c0.374,0.09,0.658,0.08,0.769-0.07l1.59-2.154c0.251,0.111,0.501,0.219,0.748,0.32c0.083,0.158,0.267,0.305,0.527,0.43v3.225
			l0.321,0.256v2.693l0.513,0.898h2.82l0.513-0.898V55.77l0.321-0.256V53.17c0.458,0.006,0.813-0.057,1.039-0.193l1.09,0.502
			l0.696-1.516l-0.582-0.268l0.328-0.712h6.425c0,0,2.307-3.59,5.727-1.538c3.42,2.051,3.676,10.813,2.906,13.079
			c-0.506,1.492-1.197,3.889-6.41,3.889h-3.59v-0.385h0.256v-1.154h3.654v-1.41h1.475v-1.539h-2.693v-1.025h0.514v-0.77h-2.564v0.77
			h0.512v1.025H30.165v1.539h1.475v1.41h7.244v2.309h-0.513v-0.256h-1.667v1.025h1.667v-0.258h0.513v0.643h1.41v0.512h-1.41v2.564
			h0.577v0.256c0,0.285,0.229,0.514,0.513,0.514h7.053c0.282,0,0.513-0.229,0.513-0.514v-0.256h0.576v-2.564h-1.41v-0.512h1.41
			v-3.463h0.642v1.154h0.257v1.281h0.256v6.797h-0.513v2.949h4.873v-2.949h-0.514v-4.617h3.848c0,3.486,0,7.939,0,11.156h-1.539
			v2.18h1.539c0,0.967,0,1.654,0,1.924H30.934c-0.284,0-0.513,0.229-0.513,0.512v4.488h41.415V85.26
			C71.836,84.977,71.605,84.748,71.322,84.748z M46.32,49.518v-2.381h0.812v2.754L46.32,49.518z"/>
		<path d="M49.214,79.904l-0.5-1.18c-0.109-0.262-0.411-0.383-0.672-0.273l-8.974,3.799c-0.261,0.111-0.383,0.412-0.272,0.672
			l0.5,1.182c0.111,0.26,0.411,0.383,0.672,0.271l4.423-1.871h11.033v-1.539h-7.397l0.915-0.389
			C49.203,80.467,49.325,80.166,49.214,79.904z"/>
	</g>
	<circle cx="50.509" cy="34.101" r="2.415"/>
	<circle cx="50.509" cy="34.101" r="1.208"/>
	<g>
		<circle cx="61.3" cy="71.818" r="1.39"/>
	</g>
</g>
</svg>
