<?xml version="1.0" encoding="utf-8"?>
<!-- Generator: Adobe Illustrator 15.0.2, SVG Export Plug-In . SVG Version: 6.00 Build 0)  -->
<!DOCTYPE svg PUBLIC "-//W3C//DTD SVG 1.1//EN" "http://www.w3.org/Graphics/SVG/1.1/DTD/svg11.dtd">
<svg version="1.1" id="Ebene_1" xmlns="http://www.w3.org/2000/svg" xmlns:xlink="http://www.w3.org/1999/xlink" x="0px" y="0px"
	 width="100px" height="100px" viewBox="0 0 100 100" enable-background="new 0 0 100 100" xml:space="preserve">
<circle fill="#B2B2B2" cx="50" cy="50" r="50"/>
<g>
	<path d="M77.621,48.295l0.066-0.082c0.516-0.562,0.386-3.815-0.512-4.888c0,0,0-1.155,0.039-1.666c0,0-0.426-3.856-1.157-4.201
		c0,0-1.841-4.497-2.312-5.011l0.901-0.213c0,0-1.54-2.829-2.099-2.956l0.683-0.515c0,0,1.199-0.128,1.199-0.943
		c0,0-0.126-0.557,0.045-0.557l0.132-0.343c0,0,0.298-0.598,0.127-0.814l0.513-0.17c0,0,0.428-0.13,0.298-0.557l-0.512-1.5
		l0.031-0.378c0.126-0.028,0.251-0.047,0.362-0.034c0.261,0.03,0.451-0.152,0.692-0.214c0.168-0.043,0.337-0.086,0.505-0.128
		c0.069-0.018,0.146-0.007,0.15-0.084c0.003-0.041-0.002-0.082-0.022-0.119c-0.069-0.144-0.265-0.209-0.395-0.297
		c-0.413-0.278-0.771-0.572-0.816-1.086c-0.022-0.258,0.004-0.517-0.025-0.773c-0.013-0.125-0.043-0.235-0.04-0.36
		c0.001-0.13,0.004-0.259,0.005-0.389c-0.119-0.999-0.292-2.101-1.104-2.821c-0.19-0.17-0.416-0.343-0.659-0.442
		c-0.149-0.061-0.309-0.092-0.455-0.159c-0.075-0.035-0.115-0.099-0.188-0.121c-0.089-0.028-0.122-0.006-0.117-0.105
		c-0.052-0.023-0.104-0.046-0.153-0.069c-0.05-0.02-0.099-0.041-0.15-0.057c0.002-0.079,0.025-0.097-0.053-0.134
		c-0.056-0.027-0.112-0.055-0.167-0.082c-0.078-0.037-0.058-0.049-0.056-0.125c-0.09,0-0.082,0.036-0.152-0.021
		c-0.047-0.038-0.1-0.071-0.154-0.1c-0.114-0.062-0.287-0.142-0.419-0.086c-0.077,0.033-0.07,0.105-0.125,0.151
		c-0.071,0.06-0.136-0.025-0.199,0.023c-0.075,0.02-0.035,0.085-0.086,0.125c-0.05,0.039-0.112,0.047-0.174,0.055
		c-0.064,0.008-0.134,0.021-0.153,0.091c-0.018,0.07-0.146,0.088-0.214,0.134c-0.129,0.088-0.204,0.182-0.359,0.218
		c-0.336,0.081-0.61,0.143-0.911,0.32c-0.769,0.457-1.141,1.199-1.398,2.001c-0.137,0.426-0.248,0.858-0.394,1.282
		c-0.041,0.122-0.082,0.228-0.096,0.355c-0.011,0.104-0.011,0.217-0.048,0.315c-0.065,0.171-0.096,0.353-0.123,0.532
		c-0.037,0.235-0.069,0.478-0.165,0.698c-0.082,0.192-0.22,0.358-0.359,0.515c-0.294,0.332-0.581,0.669-0.602,1.125
		c-0.013,0.307,0.046,0.876,0.443,0.914c0.144,0.014,0.298,0.076,0.44,0.103c0.115,0.003,0.239-0.005,0.352,0.018
		c0.036,0.007,0.073,0.005,0.11,0.009l-0.18,0.824l-1.502,1.338c0,0-0.643,0.771-1.073,0.943c0,0-1.925,0.428-2.012,1.202
		c-0.087,0.765-0.087-0.13-0.087-0.13s-2.482,2.567-2.139,3.894c0,0,0,0.6-0.174,1.031c0,0-0.984,1.37,0.256,2.57
		c0,0-0.212,2.058-0.128,2.83c0,0-1.072,1.114-1.029,1.841c0,0-0.555,0.986-0.512,1.925c0,0-1.156,1.158-0.601,1.887
		c0,0,0.089,0.511,0.13,0.941c0,0,0.343,1.626,1.023,1.84l-0.084,0.602c0,0-0.469-0.087-0.512,0.386c0,0-0.085,0.687,0.13,0.687
		c0,0-0.43-0.172-0.43,0.212c0,0,0.042,0.473,0.644,0.513c0,0,1.156-0.083,1.156,0.256c0,0,0.13,0.644,0.769,0.599
		c0,0,0.085,0.729,0.643,0.729c0,0-0.388,2.315-0.684,2.573c0,0-0.812,1.667-0.771,2.226c0,0-0.86,1.156,0,1.545
		c0,0,1.5,0.642,1.929,0.642c0,0,0.941,0.556,1.754,0.556c0,0-0.216,4.668,0.044,5.397c0,0-0.512,1.328-0.601,2.481l-0.469,2.444
		c0,0-0.825,2.002-0.563,3.298l0.046,0.174c0.385,1.283,0.13,8.31,0.046,9.293c0,0-0.174,1.755,0.339,1.669
		c0,0-0.212,1.846,0.303,1.846l1.544,0.043c0,0-0.257,0.726,0.17,0.726c0,0,1.628-0.043,2.443-0.17c0,0,3.336-0.088,4.28,0.127
		c0,0,4.628-0.298,4.368-1.114c0,0-0.599-1.371-2.183-1.283c0,0-1.37-0.644-1.627-0.599l-0.559-0.603c0,0-0.555-2.614-1.413-2.953
		c0,0-0.087-1.069,0.125-1.412c0,0,0.688-4.887,0.433-5.573c0,0,0.388-0.771,1.026-1.326c0,0,2.229-4.153,2.015-6.428l0.945-7.752
		c0,0,1.625-0.085,1.709,0.172l1.242,0.086l0.046-1.156c0,0-0.13-5.016-0.514-5.526C77.304,50.996,77.187,48.964,77.621,48.295z"/>
	<path d="M52.062,33.979h-0.188v-0.305h-0.116l-0.01-3.297c0,0,0.01-0.314-0.324-0.797c-1.079-1.55-3.424-1.292-4.327-1.009
		c-0.904,0.283-1.366,1.04-1.366,1.04l-0.157-0.105c0,0-0.011-0.105-0.011-0.156c0-0.054,0.073-0.106,0.073-0.106
		s-0.136-0.325-0.157-0.43c-0.021-0.105-0.294-0.399-0.368-0.43c-0.073-0.031-0.125-0.305-0.125-0.305l-0.032,0.327l-0.588-0.263
		c0,0-0.389-0.283-0.557-0.441s-0.787-0.399-0.787-0.399l-0.273-0.335c0,0,0.231-0.294,0.063-0.399s-0.032-0.283-0.032-0.283
		s0.137-0.105,0.137-0.462c0-0.356-0.126-0.588-0.273-0.693c-0.147-0.105-0.032-0.178-0.032-0.178
		c1.018-0.21,1.659-1.061,1.796-1.197c0.136-0.137,0.083-0.252,0.083-0.252c-1.606-1.586-2.961-1.848-2.667-1.879
		c0.294-0.032,0.494-0.148,0.483-0.252c-0.01-0.105-0.262-0.294-0.262-0.294c-0.536-0.431-1.775-4.138-3.392-5.345
		c-1.69-1.262-3.77-0.966-5.387-0.126c-1.617,0.839-2.415,3.266-2.415,3.266s-0.074,0.01-0.179,0.42
		c-0.105,0.41-0.184,2.037-0.184,2.037s-0.058,0.084-0.094,0.173c-0.037,0.09,0,0.137,0,0.137s-0.457,0.562-0.457,0.672
		c0,0.11,0.257,0.126,0.257,0.126l1.265,0.063v4.426l-0.125,0.073c0,0-0.021,0.221-0.011,0.336c0.011,0.116,0.115,0.126,0.115,0.126
		h0.231c0,0-0.158,0.168-0.263,0.221c-0.105,0.052-0.294,0.251-0.315,0.283c-0.021,0.031-0.084,0.125-0.084,0.125l-0.105-0.083
		l-0.23,0.178l-0.41-0.399l-0.125,0.074l-0.095-0.021c0,0-0.336,0.273-0.357,0.305s0,0.147,0,0.147l-0.094,0.032l-0.221,0.188
		c-0.062,0.032-0.198,0.166-0.189,0.346c0.01,0.221,0.105,0.41,0.851,1.24c0.745,0.829,0.966,0.871,1.197,0.924
		c0.231,0.052,0.525-0.483,0.525-0.483s0,0,0.032,0.053c0.032,0.052,0.158,0.105,0.158,0.105s0.021,0.083,0.052,0.136
		c0.032,0.053,0.147,0.074,0.147,0.074s-0.147,0.147-0.294,0.294s-0.399,0.588-0.399,0.588s-0.115,0.305-0.21,0.452
		c-0.094,0.147-0.809,1.155-0.809,1.155s-0.43,0.441-0.724,0.977c-0.294,0.535-0.136,0.735-0.136,0.735s-0.588,0.43-0.798,0.851
		c-0.21,0.419-0.178,0.851-0.178,0.851l-0.651,1.396c0,0,0,0-0.283,0.063c-0.284,0.062-0.378,0.388-0.378,0.43
		s-0.073,0.125-0.188,0.272c-0.116,0.147-0.147,0.473-0.189,0.494c-0.042,0.021-0.189,0.21-0.21,0.283
		c-0.021,0.074-0.378,0.337-0.525,0.442c-0.147,0.104-0.241,0.294-0.241,0.294L25.675,40.5l-0.693,0.399
		c0,0-0.073-0.011-0.189-0.011s-0.263,0.042-0.263,0.042l-0.242-0.314c0,0-0.158-0.116-0.326-0.148
		c-0.167-0.031-0.325,0.021-0.325,0.021l-0.347-0.294c0,0-0.325,0.021-0.504,0.042c-0.179,0.021-0.21,0.21-0.21,0.21
		s-0.116-0.063-0.179-0.105c-0.062-0.042-0.167,0-0.167,0s-0.284,0.116-0.347,0.263c-0.063,0.147,0.094,0.273,0.094,0.273
		s0.178,0.209,0.126,0.251c-0.052,0.042-0.199,0.021-0.199,0.021l-0.641-0.178v-0.085h0.126v-0.063l-0.221-0.042l-0.01-0.095
		c0,0-0.284-0.105-0.315-0.105c-0.031,0-0.115,0.126-0.115,0.126h-0.441l-0.063,0.158c0,0-0.462-0.126-0.483-0.19
		c-0.021-0.062-0.609-0.272-0.609-0.272s-0.682-0.147-0.745-0.22c-0.063-0.074-0.126-0.138-0.126-0.138s-1.208-0.305-1.292-0.325
		c-0.084-0.021-0.084,0.136-0.084,0.136l-0.094,0.326c0,0-0.063-0.021-0.168-0.096c-0.104-0.073-0.388-0.43-0.473-0.545
		c-0.083-0.116-0.357-0.252-0.304-0.19c0.053,0.063-0.451,1.376-0.545,1.66c-0.095,0.284-0.21,0.63-0.21,0.63l0.409-0.032
		c0,0,0.441-0.147,0.662-0.209c0.221-0.063,0.231,0.073,0.231,0.073s-0.105,0.274-0.105,0.368c0,0.095,0.095,0.147,0.095,0.147
		l1.197,0.367l0.252-0.063c0,0,0.798,0.273,1.008,0.315s0.378-0.063,0.378-0.063l0.913,0.325l-0.095,0.463
		c0,0,0.21,0.094,0.252,0.094s0.126-0.167,0.126-0.167l0.956,0.389l-0.094,0.462l0.609,0.189l0.01,0.104l0.672,0.168l0.042-0.136
		c0,0,0.294,0.062,0.515,0.115c0.221,0.052,0.284,0.042,0.284,0.042l0.294-0.262c0,0-0.084,0.609,0.451,1.376
		c0.536,0.766,1.239,0.808,1.786,0.755c0.545-0.052,1.06-0.924,1.06-0.924l0.189,0.021c0,0,0.074,0.074,0.147,0.095
		s0.326-0.168,0.326-0.168s0.073,0.074,0.115,0.094c0.042,0.021,0.147-0.178,0.147-0.178l0.242-0.094l1.008,0.347l-0.326,1.365
		c0,0-0.335,1.533-0.346,2.488c-0.011,0.957,0.147,2.354,0.798,3.328c0.65,0.979,1.785,1.114,1.785,1.114l0.032,0.348
		c0,0-0.179,0.85-0.179,0.912c0,0.064,0.126,0.231,0.126,0.231s-0.052,0.232-0.147,0.326c-0.095,0.095-0.011,0.473-0.011,0.473
		s-0.209,0.221-0.356,0.504s-0.42,0.828-0.42,0.828s-0.21,0.767-0.231,0.904c-0.021,0.137,0.011,0.188,0.378,0.377
		c0.368,0.189,0.83,0.273,0.83,0.273s-0.01-0.494,0.032-0.788s0.336-0.756,0.336-0.756s0.021,0.367,0.032,0.494
		c0.01,0.127-0.095,0.787-0.095,0.787s-0.105,0.011-0.2,0.105c-0.094,0.095,0.031,0.168,0.031,0.168l0.147,0.104
		c0,0,0.01,0.631,0.042,0.863c0.031,0.229-0.084,0.429-0.168,0.545c-0.084,0.115-0.063,0.21-0.063,0.378
		c0,0.167,0.105,0.21,0.105,0.21l-0.105,0.272c0,0-0.441,1.47-0.756,2.751s-0.377,3.634-0.356,4.054
		c0.021,0.419,0.168,1.028,0.23,1.093c0.063,0.062,0.126,0.799,0.147,1.028c0.021,0.231,0.441,0.714,0.441,0.714
		s-0.398,1.093-0.462,1.512c-0.062,0.42-0.147,1.28-0.147,1.28s0,1.324-0.062,1.87c-0.063,0.547,0.083,1.24,0.083,1.24
		s0.252,1.805,0.147,1.932c-0.105,0.126-0.168,0.337-0.168,0.337l0.105,0.943c0,0-0.105,0.127-0.588,0.462
		c-0.483,0.337-0.441,0.715-0.357,1.303s0.315,0.86,0.315,0.86l-0.357,0.566c0,0-0.042,0.127-0.21,0.191
		c-0.168,0.062-1.596,0.966-1.596,0.966s-0.714,0.124-1.218,0.229c-0.504,0.105-0.945,0.464-0.988,0.693
		c-0.042,0.231,0.273,0.714,0.273,0.714s1.995,0.211,4.264,0.252c2.268,0.042,6.72-0.313,6.72-0.313v-0.337
		c0,0,0.565,0.025,1.092,0.043c5.103,0.167,6.279-0.464,6.279-0.464v-0.378c0,0,0.651-2.373,0.714-3.066
		c0.063-0.693-0.462-1.111-0.462-1.111s0.168-0.442,0.231-0.632c0.063-0.188,0.063-1.364,0.063-1.364s2.521-3.464,3.402-6.342
		s1.028-5.545,0.546-8.926c-0.484-3.382-2.123-6.667-2.123-6.667s0.032-0.947,0-1.514c-0.031-0.566,0.148-2.33,0.21-2.961
		c0.063-0.629,0.379-1.794,0.379-1.794l0.073-0.494c0,0,0.188,0.199,0.43,0.199c0.241,0,0.348-0.348,0.348-0.348l0.503-0.011
		l0.136-0.135h0.671c0,0,0,0,0.032,0.03c0.031,0.032,0.347,0.021,0.347,0.021l0.189-0.043c0,0,0.083,0.558,0.504,0.484
		c0.419-0.074,0.524-0.873,0.399-1.323c-0.126-0.452-0.462-0.535-0.683-0.431c-0.221,0.105-0.305,0.496-0.305,0.496l-0.116-0.127
		l-0.294,0.009l-0.221,0.147v-0.767h0.504v-0.504l0.242-0.189v-0.399c1.995-0.545,2.037-2.204,2.037-2.204v-8.38l0.116-0.021
		l-0.012-0.19c0,0,0.159-0.031,0.189-0.115c0.031-0.084-0.03-0.221-0.073-0.336c-0.042-0.116,0.094-0.105,0.094-0.105v-1.723h-0.042
		V33.979z M30.58,43.152c0,0,0.449-0.151,0.615-0.2c0.166-0.048,0.244-0.186,0.244-0.186s0.029,0.26-0.029,0.513
		c-0.059,0.254-0.387,0.591-0.387,0.591l-0.669-0.224L30.58,43.152z M29.91,43.323c0,0,0,0.181-0.058,0.195
		c-0.058,0.015-0.293-0.107-0.293-0.107L29.91,43.323z M31.174,52.539l-0.086,0.828c0,0-1.434-0.038-1.916-2.126
		c-0.481-2.089,0.52-5.461,0.52-5.461l1.038,0.346l0.124,0.247c0,0-0.309,0.024-0.47,0.222c-0.161,0.197-0.68,0.952-0.593,1.755
		c0.087,0.802,0.408,1.347,0.618,1.519c0.21,0.174,0.976,0.444,0.976,0.444L31.174,52.539z M31.471,49.893
		c0,0-0.667-0.294-0.903-0.48c-0.234-0.185-0.309-0.704-0.321-1.285c-0.012-0.581,0.495-1.199,0.495-1.199
		c0.148-0.012,0.161,0.297,0.161,0.334c0,0.036-0.037,0.074-0.074,0.136c-0.037,0.061,0.012,0.186,0.012,0.186l0.729,2.124
		L31.471,49.893z M38.653,76.674c-0.059,0.06,0,0.375,0,0.375l-0.355,1.781c0,0-0.119,0.256-0.217,0.396
		c-0.1,0.137-0.416,0.968-0.396,1.206c0.02,0.238,0.336,0.436,0.415,0.495c0.08,0.059,0.158,0.118,0.158,0.396
		c0,0.276-0.237,1.581-0.396,1.898c-0.158,0.316,0.159,0.475,0.159,0.475l-1.306,0.732l-0.178-0.752c0,0,0.257-0.436,0.336-0.515
		s0.119-1.502,0.119-1.502s-0.099-0.397-0.04-0.436c0.06-0.041,0.06-0.831,0.06-1.009c0-0.179-0.139-0.516-0.198-0.554
		c-0.059-0.041,0.178-1.623,0.178-1.623c0-0.178,0.198-0.403,0.198-0.403s0.079-1.298,0.098-1.477
		c0.02-0.178,0.316-1.324,0.316-1.423s0-0.534,0.08-0.712c0.079-0.179,0.079-1.543,0.079-1.543s1.266,2.59,1.306,2.729
		C39.108,75.348,38.713,76.613,38.653,76.674z M46.521,65.031l-0.111,0.062l0.099,0.938l0.074,0.025c0,0,0.049,2.026-0.062,2.806
		c-0.111,0.778-0.637,3.975-1.377,5.015c0,0-0.095-0.457-0.015-0.568c0.078-0.109,0.142-0.566,0.109-0.614
		c-0.031-0.047-0.062-0.377-0.062-0.425c0-0.047,0.031-0.377-0.095-0.457c-0.126-0.079-0.221-0.425-0.158-0.599
		c0.063-0.172,0.158-0.283,0.189-0.425s0.125-1.654-0.063-2.315c-0.188-0.661-0.724-1.685-0.724-1.685s-0.126-0.378-0.062-0.457
		c0.062-0.08,0.566-1.071,0.614-1.858c0.047-0.788-0.142-2.49-0.142-2.49l0.236-0.534l-0.785-0.729c0,0,0.209-0.631,0.148-0.805
		c-0.062-0.172,0.012-0.432,0.012-0.432s0.148-0.334,0.148-0.434c0-0.099,0.013-0.185,0.013-0.185h0.358c0,0,0.642,1.483,0.89,2.349
		c0.247,0.864,0.458,1.692,0.458,1.692l0.061,0.777L46.521,65.031z M48.325,48.953h-0.494v-0.095l-0.104-0.03l-0.042-0.148
		c0,0-0.252-0.042-0.421-0.031s-0.221,0.261-0.221,0.261l-0.062,0.105l-0.147,0.032l0.031-0.377l0.116-0.043l-0.052-0.483
		l-0.998-0.104c-0.158-0.883-0.514-1.125-0.514-1.125c0.115-0.125,0.2-1.019,0.2-1.019c0.588,1.155,1.984,1.439,1.984,1.439
		l0.011,0.347l0.21,0.209v0.515h0.503V48.953z"/>
</g>
</svg>
