<?xml version="1.0" encoding="utf-8"?>
<!-- Generator: Adobe Illustrator 15.0.2, SVG Export Plug-In . SVG Version: 6.00 Build 0)  -->
<!DOCTYPE svg PUBLIC "-//W3C//DTD SVG 1.1//EN" "http://www.w3.org/Graphics/SVG/1.1/DTD/svg11.dtd">
<svg version="1.1" id="Ebene_1" xmlns="http://www.w3.org/2000/svg" xmlns:xlink="http://www.w3.org/1999/xlink" x="0px" y="0px"
	 width="100px" height="100px" viewBox="0 0 100 100" enable-background="new 0 0 100 100" xml:space="preserve">
<circle fill="#B2B2B2" cx="50" cy="50" r="50"/>
<path d="M82.021,26.074c-0.484-0.229-0.997-0.428-1.528-0.602l0.079-0.208c0.09-0.223-0.019-0.472-0.24-0.562
	c-0.223-0.087-0.471,0.022-0.561,0.244l-0.113,0.28c-1.185-0.312-2.337-0.666-3.634-0.756l0.054-0.354
	c0.044-0.234-0.115-0.458-0.351-0.499c-0.238-0.039-0.46,0.121-0.503,0.354l-0.07,0.455c-1.447-0.053-2.918,0.001-4.372,0.131
	l-0.011-0.229c-0.005-0.237-0.206-0.424-0.446-0.417c-0.235,0.008-0.421,0.208-0.416,0.447l0.012,0.285
	c-1.462,0.159-2.887,0.383-4.214,0.637l-0.056-0.212c-0.056-0.232-0.29-0.372-0.523-0.315c-0.233,0.056-0.376,0.291-0.314,0.524
	l0.042,0.17c-1.182,0.243-2.268,0.501-3.217,0.75l-0.056-0.236c-0.056-0.229-0.29-0.372-0.523-0.314
	c-0.232,0.056-0.376,0.288-0.319,0.52l0.063,0.25c-1.829,0.495-2.978,0.896-2.978,0.896c-0.18-1.26-1.256-0.94-1.256-0.94
	l-2.406,0.347c0,0-1.516-7.102-3.162-4.896c-1.099,1.466-1.226,3.439-1.192,4.602c-0.222-0.79-0.959-1.675-3.261-1.009
	c-3.782,1.092-11.761,9.976-12.705,11.233c-0.935,1.254,0.49,3.372,0.49,3.372S24.681,55.39,23.388,57.12
	c-1.295,1.729,0.335,2.519,0.335,2.519c-4.304,5.21-6.304,12.231-7.15,18.87c1.438,0.021,2.875,0.051,4.312,0.093
	c1.505-12.294,5.688-16.258,5.688-16.258c1.593,1.194,2.152,0.508,2.152,0.508l1.504-2.018c6.211,4.64,9.943,5.231,11.746,5.623
	c1.809,0.4,1.875-0.268,1.875-0.268c3.024-3.276,11.221-22.223,12.093-23.384c0.868-1.164-0.356-2.079-0.356-2.079l-4.039-4.116
	l0.984-0.585c5.024,6.459,5.589,3.076,5.589,3.076c-0.349-2.408-1.146-5.025-1.146-5.025s0.535-0.077,1.715-0.629
	c1.179-0.552,0.608-1.836,0.608-1.836c0.856-0.417,1.691-0.781,2.506-1.108l0.028,0.122c0.035,0.126,0.12,0.228,0.23,0.282
	c0.09,0.045,0.192,0.058,0.297,0.035c0.232-0.056,0.372-0.293,0.316-0.527l-0.056-0.229c1.098-0.408,2.149-0.741,3.159-1.007
	l0.09,0.351c0.031,0.128,0.117,0.229,0.221,0.283c0.092,0.044,0.196,0.061,0.3,0.033c0.235-0.056,0.372-0.29,0.317-0.522
	l-0.087-0.35c1.216-0.282,2.356-0.468,3.432-0.582l0.01,0.242c0.006,0.163,0.1,0.302,0.235,0.37c0.062,0.031,0.135,0.05,0.212,0.045
	c0.237-0.007,0.425-0.208,0.416-0.447l-0.013-0.286c1.319-0.092,2.519-0.078,3.585,0.004l-0.051,0.299
	c-0.031,0.193,0.068,0.377,0.235,0.46c0.037,0.018,0.076,0.032,0.119,0.039c0.235,0.04,0.458-0.12,0.5-0.354l0.058-0.357
	c1.132,0.133,2.097,0.333,2.871,0.541l-0.086,0.212c-0.081,0.21,0.009,0.444,0.21,0.544c0.01,0.007,0.021,0.014,0.037,0.017
	c0.219,0.089,0.471-0.022,0.557-0.242l0.116-0.29c0.793,0.25,1.287,0.449,1.436,0.51c1.085,0.44,1.142,0.44,1.142,0.44l1.787-3.462
	L82.021,26.074z M43.453,60.78c0,0-0.812-3.723-0.974-9.367c-0.079-2.819,3.736-2.237,4.793-1.788L43.453,60.78z M47.96,47.274
	l-5.054,0.083c-2.987,0.484-2.498,3.318-2.498,3.318l0.942,8.771c-2.85-0.026-2.953,1.139-2.953,1.139s-3.495-2.614-4.238-3.601
	c-0.739-0.984-0.282-1.98-0.282-1.98s3.922-10.438,5.471-12.43c1.049-1.344,2.892-0.418,2.892-0.418
	C49.031,45.662,47.96,47.274,47.96,47.274z"/>
</svg>
