<?xml version="1.0" encoding="utf-8"?>
<!-- Generator: Adobe Illustrator 15.0.2, SVG Export Plug-In . SVG Version: 6.00 Build 0)  -->
<!DOCTYPE svg PUBLIC "-//W3C//DTD SVG 1.1//EN" "http://www.w3.org/Graphics/SVG/1.1/DTD/svg11.dtd">
<svg version="1.1" id="Ebene_1" xmlns="http://www.w3.org/2000/svg" xmlns:xlink="http://www.w3.org/1999/xlink" x="0px" y="0px"
	 width="100px" height="100px" viewBox="0 0 100 100" enable-background="new 0 0 100 100" xml:space="preserve">
<circle fill="#B2B2B2" cx="50" cy="50" r="50"/>
<path d="M68.537,71.156c-2.5,1.744-4.914,2.617-7.24,2.617c-1.396,0-3.695-0.465-6.893-1.396c-2.732-0.873-5.117-1.31-7.153-1.31
	c-3.663,0-7.21,1.134-10.641,3.402c2.151-2.151,3.896-4.041,5.234-5.671c3.372-4.012,5.058-7.617,5.058-10.815v-0.088
	c0-1.571-0.436-3.606-1.307-6.106h11.861v-4.797H43.5l-1.395-2.441l-0.785-1.311c-0.406-0.756-0.726-1.396-0.958-1.919l-0.088-0.085
	v-0.088c-1.279-2.442-1.919-4.769-1.919-6.98v-0.085c0-2.094,0.465-3.956,1.395-5.585c2.094-3.663,5.729-5.494,10.905-5.494
	c7.676,0,11.631,4.478,11.865,13.433h7.674c-0.059-5.06-0.873-8.927-2.441-11.602l-1.482-2.181
	c-3.605-4.304-8.695-6.455-15.268-6.455h-0.088c-5.29,0-9.854,1.512-13.693,4.536c-4.653,3.663-6.98,8.373-6.98,14.13v0.873
	c0,0.642,0.058,1.224,0.175,1.747c0.291,1.919,1.774,5.087,4.449,9.507h-7.065v4.797h9.594c1.396,2.326,2.095,4.595,2.095,6.804
	v0.088c0,0.059,0,0.088,0,0.088c0,1.162-0.146,2.268-0.437,3.314c-1.047,3.663-4.536,8.054-10.467,13.172l4.188,5.759
	c3.257-2.153,6.426-3.229,9.507-3.229c1.92,0,3.839,0.32,5.758,0.961l1.659,0.609c4.824,1.629,8.518,2.444,11.076,2.444
	c4.305,0,8.113-1.629,11.43-4.886L68.537,71.156z"/>
</svg>
