<?xml version="1.0" encoding="utf-8"?>
<!-- Generator: Adobe Illustrator 15.0.2, SVG Export Plug-In . SVG Version: 6.00 Build 0)  -->
<!DOCTYPE svg PUBLIC "-//W3C//DTD SVG 1.1//EN" "http://www.w3.org/Graphics/SVG/1.1/DTD/svg11.dtd">
<svg version="1.1" id="Ebene_1" xmlns="http://www.w3.org/2000/svg" xmlns:xlink="http://www.w3.org/1999/xlink" x="0px" y="0px"
	 width="100px" height="100px" viewBox="0 0 100 100" enable-background="new 0 0 100 100" xml:space="preserve">
<circle fill="#B2B2B2" cx="50" cy="50" r="50"/>
<path fill-rule="evenodd" clip-rule="evenodd" fill="#1D1D1B" d="M53.539,25.808c2.122,0.567,4.012,1.366,4.725,3.343
	c1.676,0.804,3.117,2.033,4.379,3.572c1.263,1.538,2.023,3.194,2.768,5.416c0.541,1.623,0.268,3.562,1.687,4.442
	c0.844,0.04,0.074,3.623-0.766,5.124c-0.249,0.443-0.72,0.657-0.807,1.151c-0.091,0.51,0.192,1.093,0.229,1.613
	c0.104,1.435,0.065,3.005,0.115,4.379c-0.493,0.033-0.761-0.16-1.037-0.347c0.637-1.302,0.312-2.855,0.346-4.724
	c-0.967,0.608-1.86,1.288-2.304,2.419c-0.677,0.601-1.731,0.549-2.536,0.923c-0.527,0.245-0.832,1.346-1.383,0.807
	c-0.628-0.116,0.402-0.189,0.231-0.577c-0.263-0.328-0.677,0.162-1.153,0c0.289,3.925,0.862,7.556,1.037,11.41
	c0.047,1.015-0.1,2.076,0,3.111c0.31,3.197,1.377,6.034,1.613,9.104c0.258,3.337-0.766,6.692-0.921,10.257
	c-0.065,0.856-2.119,0.912-3.343,1.382c-0.901,0.347-2.123,1.337-3.457,1.499c-2.002,0.242-4.482-0.397-4.726-1.499
	c-0.317-1.439,1.136-2.049,1.959-2.65c-2.043,0.301-5.928,2.409-7.951-0.115c-0.171-2.326,1.907-2.14,3.342-2.765
	c1.105-0.484,1.385-1.636,2.188-2.306c-0.67-0.812-0.43-1.69-0.575-2.997c-0.099-0.89-0.793-1.745-1.036-2.649
	c-0.381-1.414-0.868-3.07-1.038-4.495c-0.367-3.061-0.167-5.99-0.461-9.104c-0.122-1.285-0.567-2.522-0.692-3.803
	c-0.146-1.51,0.289-3.109,0.115-4.609c-0.203-1.754-0.864-3.268-0.806-4.955c0.086-2.522,1.464-4.763,1.037-7.376
	c-0.433-0.329-0.374,0.873-1.037,0.346c-1.074,0.66-1.932,1.925-3.342,1.728c-0.938-0.129-3.173-2.835-3.803-3.687
	c-0.527-0.713-0.955-1.609-1.383-2.305c-0.8-1.299-1.505-2.076-1.959-3.457c-0.397-0.255-0.523,0.581-0.807,0.806
	c-3.193-1.839-6.442-3.623-9.45-5.647c1.952-4.002,4.161-7.747,6.224-11.639c3.479,1.746,6.612,3.836,9.911,5.762
	c-1.161,2.143-2.456,4.153-3.688,6.223c1.045,0.987,0.279,2.828,0.576,4.149c0.187,0.83,1.084,1.867,1.614,2.535
	c0.886,1.121,2.012,2.079,2.881,2.881c1.012-0.333,1.005-1.474,1.498-2.304c0.856-1.445,1.773-2.838,2.766-4.726
	c0.196-0.834,2.968-2.256,4.38-3.457c0-0.538,0-1.076,0-1.613c-1.247-0.816-2.631-2.262-2.767-4.264
	c-0.027-0.406,0.227-0.734,0.231-1.152c0.003-0.341-0.174-1.818-0.347-2.535c-0.112-0.469-0.569-0.834-0.576-1.268
	c-0.013-0.756,0.954-1.844,1.268-2.074c1.928-1.412,6.224-1.959,8.297,0.115c1.946,1.946,1.57,6.412,0.115,8.297
	C54.27,24.346,53.246,24.147,53.539,25.808z M53.77,82.392c0.787-0.409,0.441-2.633-0.116-3.112
	C53.56,80.333,53.441,81.497,53.77,82.392z"/>
</svg>
