<?xml version="1.0" encoding="utf-8"?>
<!-- Generator: Adobe Illustrator 15.0.2, SVG Export Plug-In . SVG Version: 6.00 Build 0)  -->
<!DOCTYPE svg PUBLIC "-//W3C//DTD SVG 1.1//EN" "http://www.w3.org/Graphics/SVG/1.1/DTD/svg11.dtd">
<svg version="1.1" id="Ebene_1" xmlns="http://www.w3.org/2000/svg" xmlns:xlink="http://www.w3.org/1999/xlink" x="0px" y="0px"
	 width="100px" height="100px" viewBox="0 0 100 100" enable-background="new 0 0 100 100" xml:space="preserve">
<circle fill="#B2B2B2" cx="50" cy="50" r="50"/>
<path fill="#231F20" d="M92.664,61.714l0.001-1.493l-2.878-0.002l0.015-17.929l2.877,0.002l0.001-1.493l-2.876-0.002l0.002-2.851
	l-3.597-0.002l-0.002,2.85l-2.849-0.002l0.002-3.209l-3.596-0.003l-0.002,3.209l-2.848-0.002l0.003-3.209l-3.597-0.003l-0.003,3.21
	l-2.849-0.002l0.003-3.21l-3.597-0.002l-0.002,3.21l-2.847-0.002l0.002-3.209l-3.598-0.003l-0.002,3.209l-2.848-0.002l0.002-3.209
	l-3.596-0.002l-0.003,3.209l-2.847-0.002l0.002-3.209l-3.597-0.003l-0.002,3.209l-2.847-0.002l0.002-3.209L41.1,37.549l-0.002,3.209
	l-2.847-0.002l0.002-3.209l-3.597-0.003l-0.002,3.209l-2.848-0.002l0.002-3.209l-3.596-0.003l-0.002,3.209l-2.848-0.002l0.002-2.85
	l-3.597-0.003l-0.002,2.85l-2.848-0.002l0.002-2.851l-3.596-0.002l-0.002,2.85l-2.848-0.002l0.002-2.851l-3.597-0.002l-0.002,2.85
	l-2.518-0.002l-0.001,1.494l2.518,0.002L8.861,60.156l-2.518-0.003l-0.001,1.493l2.518,0.003l-0.002,2.13l3.597,0.003l0.002-2.131
	l2.848,0.002l-0.002,2.131l3.597,0.003l0.001-2.13l2.848,0.002l-0.001,2.13l3.596,0.003l0.002-2.13l2.848,0.002l-0.001,1.771
	l3.596,0.003l0.001-1.771l2.848,0.002l-0.001,1.771l3.596,0.003l0.001-1.771l2.848,0.002l-0.001,1.771l3.597,0.002l0.001-1.771
	l2.848,0.002l-0.001,1.771l3.597,0.003l0.001-1.771l2.847,0.002l-0.001,1.771l3.597,0.003l0.001-1.771l2.848,0.003l-0.002,1.771
	l3.598,0.003l0.001-1.771l2.848,0.002l-0.001,1.772l3.596,0.003l0.002-1.772l2.849,0.003l-0.002,1.771l3.597,0.002l0.001-1.771
	l2.848,0.002l-0.002,1.771l3.597,0.003l0.002-1.772l2.848,0.003l-0.002,2.131l3.597,0.003l0.001-2.131L92.664,61.714z
	 M12.458,60.158l0.014-17.929l2.848,0.002L15.306,60.16L12.458,60.158z M18.902,60.163l0.014-17.929l2.848,0.002L21.75,60.166
	L18.902,60.163z M25.346,60.169l0.014-17.93l2.848,0.002l-0.014,17.929L25.346,60.169z M31.79,60.173l0.014-17.929l2.848,0.002
	l-0.014,17.929L31.79,60.173z M38.235,60.179l0.014-17.929l2.848,0.002l-0.014,17.929L38.235,60.179z M44.679,60.184l0.014-17.93
	l2.847,0.002l-0.014,17.929L44.679,60.184z M51.123,60.188l0.014-17.929l2.848,0.002L53.97,60.19L51.123,60.188z M57.566,60.193
	l0.015-17.929l2.848,0.002l-0.015,17.93L57.566,60.193z M64.011,60.198l0.015-17.929l2.847,0.002l-0.014,17.93L64.011,60.198z
	 M70.455,60.204l0.014-17.93l2.849,0.002l-0.015,17.93L70.455,60.204z M76.899,60.209l0.014-17.93l2.848,0.002l-0.015,17.929
	L76.899,60.209z M83.343,60.214l0.015-17.93l2.848,0.002l-0.014,17.929L83.343,60.214z"/>
</svg>
