<?xml version="1.0" encoding="utf-8"?>
<!-- Generator: Adobe Illustrator 15.0.2, SVG Export Plug-In . SVG Version: 6.00 Build 0)  -->
<!DOCTYPE svg PUBLIC "-//W3C//DTD SVG 1.1//EN" "http://www.w3.org/Graphics/SVG/1.1/DTD/svg11.dtd">
<svg version="1.1" id="Ebene_1" xmlns="http://www.w3.org/2000/svg" xmlns:xlink="http://www.w3.org/1999/xlink" x="0px" y="0px"
	 width="100px" height="100px" viewBox="0 0 100 100" enable-background="new 0 0 100 100" xml:space="preserve">
<circle fill="#B2B2B2" cx="50" cy="50" r="50"/>
<g>
	<path d="M55.073,85.77c-0.015-0.086,0.122-0.203,0.061-0.143c-0.041,0.041-0.12,0.061-0.194,0.091
		C55.001,85.773,55.079,85.814,55.073,85.77z"/>
	<path d="M83.404,48.247c-0.186-0.525-0.393-0.953-0.393-0.953c0.245-0.089,0.291-0.261,0.172-0.501
		c-0.074-0.146-0.44-0.061-0.687-0.221c-0.346-0.226-0.523-0.744-0.754-1.071c-0.295-0.418-0.834-0.669-1.276-0.892
		c-0.987-0.497-1.98-1.242-2.631-2.146c-0.758-1.055-1.696-1.93-2.614-2.845c-1.082-1.078-1.94-2.345-2.926-3.508
		c-0.932-1.099-1.915-2.099-2.987-3.059c-0.899-0.805-0.858-1.95-1.568-2.838c-0.625-0.788-0.625-1.779-0.477-2.765
		c0.058-0.39-0.278-0.966-0.379-1.353c-0.163-0.625-0.25-1.196-0.587-1.754c-0.677-1.109-2.196-1.411-3.33-1.768
		c-0.899-0.283-1.82-0.498-2.735-0.724c0.276-0.786,0.741-1.625,0.81-2.458c0.207-0.112,0.395-0.248,0.569-0.407
		c0.256-0.234,0.137-0.748,0.146-1.049c0.013-0.386,0.323-0.836,0.303-1.177c-0.004-0.065-0.062-0.211-0.062-0.211
		s0.025,0.053,0.074,0.081c0.048,0.029,0.121,0.037,0.121,0.037c-0.154-0.293-0.136-0.661-0.246-0.974
		c0.029,0.091,0.085,0.168,0.162,0.225c-0.159-0.317,0.082-0.628-0.082-0.974c0.04,0.104,0.122,0.164,0.231,0.162
		c-0.17-0.2-0.154-0.5-0.243-0.764c0.072,0.075,0.121,0.166,0.143,0.267c0,0,0.035-0.15,0.013-0.301
		c-0.025-0.16-0.096-0.299-0.122-0.46c0.028,0.11,0.091,0.206,0.18,0.276c-0.066-0.18,0.002-0.494-0.133-0.624
		c-0.052-0.053-0.133-0.138-0.133-0.138s0.061,0.037,0.121,0.041c0.062,0.005,0.146-0.008,0.146-0.008s-0.14-0.033-0.203-0.095
		c-0.064-0.061-0.09-0.24-0.09-0.24s0.033,0.103,0.086,0.135c0.052,0.033,0.134,0.053,0.134,0.053
		c-0.18-0.255,0.056-0.599-0.347-0.685c0.108-0.033,0.208-0.002,0.28,0.086c0,0-0.062-0.114-0.116-0.171
		c-0.06-0.058-0.192-0.058-0.192-0.058s0.127-0.011,0.2,0.005c0.072,0.017,0.146,0.07,0.146,0.07s-0.09-0.151-0.146-0.184
		c-0.085-0.048-0.227-0.046-0.322-0.049c0.071,0.01,0.144,0.007,0.215-0.008c0.127-0.024,0.143-0.086,0.143-0.086
		c-0.152,0.051-0.31,0.031-0.451-0.052c0,0,0.191,0.037,0.346-0.012c0.154-0.049,0.168-0.103,0.168-0.103
		c-0.251,0.036-0.479-0.094-0.743-0.089c0,0,0.126,0.008,0.267-0.012c0.139-0.021,0.143-0.102,0.143-0.102
		c-0.185,0.006-0.379-0.003-0.57-0.029c0,0,0.068-0.074,0.176-0.081c0.104-0.009,0.146,0.032,0.146,0.032s-0.061-0.061-0.118-0.085
		c-0.058-0.025-0.272,0.044-0.272,0.044s0.172-0.114,0.311-0.09c0.068,0.013,0.102,0.032,0.118,0.05
		c-0.019-0.034-0.048-0.086-0.073-0.111c-0.042-0.035-0.062-0.035-0.195-0.057c-0.136-0.021-0.203-0.159-0.203-0.159
		s0.101,0.064,0.162,0.078c0.061,0.011,0.162,0.007,0.162,0.007S61.3,11.38,61.23,11.327c-0.068-0.054-0.062-0.123-0.166-0.168
		c-0.108-0.046-0.242-0.06-0.359-0.069c0.12,0.033,0.24,0.017,0.346-0.049c-0.19-0.002-0.316-0.096-0.492-0.122
		c-0.074-0.011-0.135-0.007-0.184,0c-0.002,0.001-0.002,0.003-0.006,0.004c-0.053,0.016-0.098,0.021-0.098,0.021
		s0.041-0.015,0.104-0.024c0.047-0.02,0.061-0.069,0.061-0.069s-0.082,0.037-0.174,0.028c-0.095-0.009-0.141-0.078-0.141-0.078
		c0.112,0.041,0.237,0.039,0.339-0.012c-0.116-0.039-0.298-0.129-0.42-0.111c-0.164,0.025-0.351,0.147-0.351,0.147
		c0.165-0.134,0.253-0.324,0.248-0.534c0,0-0.117,0.147-0.199,0.208c-0.081,0.061-0.217,0.029-0.217,0.029s0.082-0.044,0.14-0.086
		c0.058-0.041,0.098-0.126,0.098-0.126c-0.157,0.058-0.322,0.052-0.473-0.019c0.091-0.023,0.184-0.016,0.269,0.024
		c0,0-0.057-0.065-0.176-0.103c-0.161-0.049-0.326-0.02-0.492-0.073c0.101,0.026,0.204,0.021,0.301-0.016
		c-0.15-0.065-0.425-0.184-0.588-0.122c-0.102,0.039-0.107,0.095-0.104,0.122c-0.005-0.016-0.01-0.044-0.014-0.084
		c-0.004-0.058,0.033-0.127,0.033-0.127c-0.062,0.066-0.103,0.146-0.119,0.236c-0.03-0.132-0.112-0.232-0.236-0.285
		c0.106,0.07,0.162,0.175,0.156,0.302c0,0-0.096-0.176-0.146-0.233c-0.054-0.056-0.245-0.096-0.245-0.096s0.11,0.064,0.158,0.102
		c0.05,0.037,0.119,0.203,0.119,0.203s-0.114-0.134-0.236-0.211C57.844,9.858,57.6,9.813,57.6,9.813s0.109,0.094,0.18,0.192
		c0.068,0.097,0.086,0.208,0.086,0.208c-0.211-0.055-0.396-0.167-0.616-0.191c0,0,0.106,0.07,0.172,0.135
		c0.063,0.064,0.063,0.146,0.063,0.146c-0.196-0.112-0.408-0.147-0.618-0.24c0.089,0.071,0.178,0.16,0.253,0.237
		c-0.066-0.065-0.281-0.074-0.372-0.095c0.099,0.055,0.219,0.128,0.306,0.186c-0.365-0.05-0.729,0.043-1.104,0.024
		c0.054,0.023,0.177,0.092,0.236,0.085c-0.023,0.004-0.123-0.004-0.235,0c-0.114,0.004-0.233,0.089-0.233,0.089
		c0.118,0.008,0.237,0.015,0.355,0.021c0,0-0.047,0.062-0.139,0.094c-0.178,0.062-0.389,0.091-0.578,0.111
		c0.101,0.028,0.207,0.031,0.31,0.008c-0.158,0.071-0.344,0.117-0.519,0.109c-0.103-0.003-0.199-0.044-0.199-0.044
		c0.057,0.075,0.132,0.133,0.22,0.167c-0.157,0.037-0.311,0.097-0.452,0.177c0.076-0.028,0.158-0.038,0.24-0.028
		c0,0-0.041,0-0.089,0.021c-0.352,0.142-0.843,0.488-1.158,0.706c0,0,0.112-0.037,0.171-0.053c0.057-0.017,0.184,0.021,0.184,0.021
		c-0.146,0.231-0.35,0.407-0.53,0.607c0.122-0.008,0.243-0.057,0.343-0.134c-0.167,0.242-0.421,0.782-0.432,1.079
		c0.033-0.084,0.088-0.157,0.16-0.212c-0.239,0.429-0.122,0.986-0.437,1.363c0.051-0.04,0.106-0.07,0.167-0.09
		c-0.044,0.191-0.115,0.369-0.227,0.53c0,0,0.049-0.049,0.097-0.073c0.049-0.025,0.114-0.033,0.114-0.033
		c-0.107,0.169-0.173,0.358-0.243,0.545c0.078-0.049,0.135-0.125,0.153-0.213c0.008,0.136,0,0.273-0.024,0.408
		c0,0-0.456,0-0.479,0.489c-0.015,0.268,0.126,0.551,0.139,0.824c0.017,0.403-0.114,0.941,0.023,1.328
		c0.073,0.204,0.295,0.407,0.448,0.48c0.155,0.074,0.416,0.008,0.416,0.008c0.1,0.716,0.117,1.441,0.261,2.152
		c0,0-0.107-0.008-0.244,0.049c-0.231,0.095-0.241,0.421-0.469,0.53c-0.309,0.148-0.604,0.258-0.904,0.43
		c-0.591,0.336-1.331,0.489-1.979,0.673c-1.325,0.377-2.441,0.855-3.65,1.504c-0.247,0.132-0.186,0.438-0.408,0.578
		c-0.471,0.103-0.895,0.597-1.263,0.904c-0.639,0.533-1.276,1.069-1.888,1.633c-0.379,0.349-0.739,0.691-1.062,1.093
		c-0.144,0.18-0.387,0.368-0.45,0.594c-0.096,0.344-0.565,0.239-0.774,0.425c-0.947,0.825-2.03,1.688-3.163,2.274
		c0,0,0.065,0.131,0.098,0.146c-0.079-0.043-1.568,0.886-1.712,0.954c-0.826,0.391-1.618,0.857-2.378,1.362
		c-1.357,0.901-2.586,1.995-3.835,3.038c-1.287,1.074-2.559,2.169-3.865,3.222c-0.717,0.578-1.442,1.151-2.204,1.67
		c-0.633,0.432-1.64,0.791-2.089,1.435c-0.304,0.437-0.219,1.071-0.25,1.57c-0.023,0.356-0.219,0.95-0.067,1.291
		c0.18,0.409,0.969,0.923,1.378,1.003c0.204,0.041,0.374-0.057,0.473-0.196c0.097-0.137-0.367-0.481-0.391-0.553
		c0.059,0.178,1.589-0.518,1.737-0.637c0.171-0.138,0.204-0.726,0.163-0.985c-0.046-0.296,1.083-0.823,1.296-1.109
		c0.196-0.261,0.375-0.839,0.684-1.288c0.53-0.764,1.961-1.138,2.752-1.538c1.061-0.536,2.145-1.031,3.233-1.51
		c1.017-0.449,1.868-0.988,2.727-1.697c0.663-0.547,1.466-1.368,2.252-1.703c0.497-0.209,1.101-0.216,1.619-0.397
		c0.391-0.137,0.784-0.266,1.178-0.393c0.415,0.261,0.92,0.623,1.427,0.635c0.285,0.009,0.358-0.489,0.7-0.888
		c0.343-0.399,0.686-0.538,1.402-0.718c0.718-0.179,1.769-0.22,2.087-0.179c0.325,0.042,0.71,2.166,0.725,2.438
		c0.024,0.425-0.269,0.383-0.293,0.522c-0.025,0.139,0.049,0.457,0.057,0.751c0.006,0.254-0.335,0.401-0.408,0.667
		c-0.13,0.485-0.565,0.822-0.881,1.182c-0.437,0.502-0.408,1.57-0.542,2.212c-0.215,1.034-0.938,1.979-1.094,2.984
		c-0.08,0.512-0.34,0.847-0.524,1.319c-0.215,0.553-0.31,1.139-0.54,1.694c-0.199,0.479-0.479,0.929-0.6,1.437
		c-0.106,0.446-0.514,0.823-0.572,1.263c-0.013,0.089-0.674,0.23-0.803,0.345c-0.25,0.221-0.458,0.505-0.659,0.768
		c-0.329,0.429-0.649,0.87-0.945,1.321c-0.211,0.322-0.136,0.722-0.324,1.07c-0.259,0.483-0.611,0.942-0.828,1.444
		c-0.188,0.435-0.155,0.874-0.272,1.314c-0.202,0.763-0.307,1.575-0.596,2.288c-0.14,0.343-0.034,0.809-0.034,0.809
		s-0.252-0.253-0.416-0.4c-0.124-0.11-0.198-0.006-0.333-0.091c-0.258-0.163-0.484-0.377-0.737-0.549
		c-0.645-0.437-1.372-0.708-2.141-0.825c-0.868-0.136-1.784,0.057-2.657,0.06c-1.021,0.004-2.016-0.072-3.036,0.025
		c-0.636,0.062-1.272,0.143-1.913,0.095c-0.637-0.047-1.479-0.308-2.086-0.131c-0.229,0.063-0.424-0.059-0.579-0.164
		c-0.335-0.228-0.117-0.894-0.62-1.155c-0.139-0.071-1.074-0.362-1.059-0.458c0.025-0.154-0.032-0.203-0.163-0.318
		c-0.13-0.113-0.276-0.121-0.521-0.08c-0.244,0.041-0.399,0.277-0.628,0.213c-0.603-0.176-0.76,0.043-1.14,0.447
		c-0.122,0.131-0.163-0.049-0.31-0.064c-0.391-0.042-0.582,0.541-0.953,0.474c-0.126-0.025-0.648,0.418-0.873,0.459
		c-0.416,0.075-0.513,0.082-0.807-0.198c-0.367-0.348-1.859,0.838-2.202,0.988c-0.114,0.048-0.26-0.164-0.407-0.197
		c-0.146-0.031-0.424,0.254-0.481,0.344s0.032,0.351-0.041,0.433c-0.073,0.081-0.554,0.595-0.684,0.676
		c-0.131,0.081-0.138-0.163-0.301-0.18s-0.416,0.336-0.433,0.571c-0.016,0.234,0.008,0.863-0.065,0.971
		c-0.061,0.086-0.569-0.675-0.584-0.06c-0.01,0.408-0.061,0.879-0.035,1.283c0.009,0.122,0.04,0.17,0.285,0.384
		c0.245,0.211,0.57,0.325,0.961,0.356c0.775,0.063,1.68-0.14,2.458-0.213c1-0.094,1.981-0.325,2.987-0.372
		c1.223-0.058,2.64-0.255,3.842,0.021c0.594,0.137,1.056,0.182,1.67,0.099c0.299-0.04,0.558-0.15,0.805,0.002
		c0.188,0.112,0.106,0.146,0.31,0.27c0.628,0.376,1.555,0.479,2.258,0.69c0.828,0.249,1.659,0.5,2.462,0.825
		c0.283,0.114,0.495,0.211,0.801,0.244c0.466,0.05,0.949,0.416,1.39,0.418c0.889,0.004,1.504,0.276,2.332,0.567
		c0.114,0.041,0.106,0.092,0.22,0.244c0.358,0.492,1.348,0.333,1.753,0.719c0.048,0.049,0.13,0.211,0.309,0.327
		c0.16,0.101,0.677,0.084,0.88,0.14c0.401,0.108,0.726,0.369,1.133,0.471c0.983,0.247,2.024,0.504,3.024,0.678
		c0.521,0.09,1.06-0.025,1.671-0.393c1.019-0.611,1.215-1.935,2.127-2.657c0.789-0.628,1.195-1.651,1.867-2.37
		c0.725-0.779,2.105-1.136,3.016-1.713c0.192,1.114,0.874,2.041,1.051,3.139c0.06,0.38,0.431,0.771,0.515,1.196
		c0.062,0.311,0.064,0.597,0.162,0.905c0.113,0.363,0.28,0.7,0.407,1.057c0.106,0.302,0.046,0.737,0.281,0.984
		c0.571,0.595,3.771-1.414,4.133-0.685c0.055,0.111,0.166,0.509,0.129,0.644c-0.06,0.216-0.377,0.247-0.451,0.537
		c-0.089,0.328-0.964,0.53-1.22,0.665c-0.393,0.206-0.485,0.44-0.731,0.735c-0.527,0.633-1.571,1.131-2.292,1.491
		c-0.913,0.453-1.357,1.151-1.857,1.985c-0.553,0.921-1.273,1.663-2.067,2.377c-0.422,0.379-1.036,1.177-1.641,1.201
		c-0.319,0.01-0.841,0.604-1.054,0.845c-0.439,0.495-0.885,0.988-1.353,1.457c-0.721,0.723-1.561,1.328-2.38,1.934
		c-0.34-0.352-0.442-0.139-0.507,0.19c-0.098,0.505-0.722,0.901-0.906,1.398c-0.314,0.846-0.19,1.726,0.05,2.564
		c0.025-0.124,0.058-0.247,0.097-0.367c0,0,0.019,0.329,0.061,0.452c0.044,0.123,0.165-0.445,0.177-0.509
		c-0.018,0.142,0.011,0.282,0.081,0.406c-0.012-0.169,0.015-0.336,0.079-0.492c0.014,0.221,0.109,0.43,0.275,0.576
		c0.03-0.136,0.053-0.273,0.067-0.412c0,0,0,0.104,0.012,0.159c0.013,0.056,0.074,0.142,0.074,0.142s-0.013-0.215-0.006-0.244
		c0.006-0.031,0.061-0.165,0.061-0.165s0.019,0.208,0.049,0.293c0.03,0.086,0.14,0.104,0.14,0.104
		c0.007-0.136,0.041-0.268,0.099-0.391c0,0.154,0.045,0.311,0.128,0.432c0,0,0.116,0.043,0.177-0.07
		c0.062-0.118-0.019-0.245-0.019-0.245c0.051,0.111,0.076,0.234,0.074,0.358c0,0,0.031-0.098,0.061-0.207
		c0.03-0.109-0.018-0.201-0.018-0.201c0.061,0.114,0.099,0.243,0.11,0.373c0.046-0.106,0.063-0.225,0.049-0.338
		c0.02,0.121,0.083,0.264,0.146,0.318c-0.001-0.134,0-0.269,0.006-0.402c0.044,0.152,0.106,0.3,0.184,0.438
		c0.005-0.144-0.026-0.282-0.092-0.409c0.11,0.123,0.21,0.254,0.299,0.393c-0.031-0.147-0.078-0.291-0.14-0.429
		c0.107,0.16,0.256,0.283,0.434,0.36c-0.136-0.194-0.265-0.395-0.373-0.605c0.214,0.196,0.426,0.397,0.617,0.617
		c-0.033-0.154-0.053-0.312-0.061-0.47c0.041,0.134,0.096,0.264,0.164,0.385c-0.005-0.134-0.031-0.264-0.079-0.39
		c0.086,0.14,0.159,0.286,0.219,0.439c0.031-0.135,0.03-0.274,0-0.41c0.071,0.131,0.117,0.275,0.135,0.424
		c0,0,0.043-0.123,0.048-0.154c0.006-0.03-0.012-0.245-0.012-0.245s0.098,0.313,0.085,0.403c-0.012,0.092,0.141,0.043,0.141,0.043
		s0.061-0.122,0.054-0.178c-0.007-0.073,0.105,0.238,0.105,0.238c-0.027-0.106-0.087-0.298-0.061-0.402
		c-0.024,0.1,0.243,0.228,0.299,0.287c-0.007-0.157-0.008-0.338,0.037-0.489c-0.035,0.125,0.068,0.329,0.128,0.435
		c-0.035-0.187-0.043-0.381-0.011-0.568c-0.02,0.151,0.088,0.344,0.176,0.459c-0.042-0.204-0.044-0.412-0.079-0.617
		c0.034,0.213,0.176,0.462,0.225,0.686c0,0-0.025-0.264,0.006-0.367c0.031-0.104,0.129-0.307,0.129-0.307
		c-0.042,0.236-0.007,0.466,0.085,0.686c-0.063-0.151,0.35-0.517,0.35-0.723c0,0.221-0.049,0.433-0.134,0.637l0.159-0.109
		c-0.045,0.094-0.09,0.188-0.135,0.281l0.22,0.037c0.142-0.109,0.168-0.285,0.111-0.467L45,85.439
		c-0.028-0.294-0.035-0.588,0.012-0.881c0.01,0.24,0.054,0.479,0.159,0.696c0,0-0.011-0.194,0.024-0.271
		c0.037-0.071,0.074,0.137,0.111,0.233c0.036,0.097,0.073-0.036,0.109-0.122c0.147-0.336,0.219,0.237,0.257,0.256
		c0.073,0.037,0.159,0.086,0.221,0.061c0.084-0.032-0.064-0.331,0.028-0.332c0.018,0,0.214,0.377,0.229,0.283
		c0.009-0.072,0.273-0.28,0.255-0.318c0.024,0.05,0.086,0.061,0.099-0.011c0.012-0.074,0.134,0.155,0.134,0.155
		s0.171-0.011,0.244,0.016c0.074,0.023,0.293,0.17,0.293,0.17s0.049-0.072,0.074-0.158c0.023-0.086,0.086-0.074,0.123-0.012
		c0.036,0.061,0.048,0.183,0.097,0.206c0.048,0.024,0.195,0.014,0.195,0.014c-0.012-0.064-0.015-0.433,0.03-0.423
		c0.086,0.021,0.193,0.356,0.216,0.386c0.049,0.062,0.097,0.05,0.134,0c0.116-0.149,0.243-0.059,0.342-0.257
		c-0.011,0.021,1.001,0.594,1.062,0.405c0.013-0.037,0.04-0.402,0.041-0.398c0.039,0.094,0.062,0.2,0.082,0.3
		c0,0,0.098-0.062,0.122-0.123c-0.039,0.097,0.257,0.428,0.318,0.479c0.116-0.163,0.184-0.362,0.171-0.564l0.098,0.367
		c0.03-0.033,0.047-0.074,0.049-0.121c0,0.045,0.17,0.364,0.295,0.293c0.062-0.037,0.048-0.062,0.036-0.195
		c-0.014-0.135,0.048-0.025,0.097,0.037c0.05,0.061,0.062,0.184,0.122,0.207c0.062,0.024,0.087-0.121,0.159-0.258
		c0.073-0.134-0.024-0.33-0.024-0.33s0.186,0.381,0.172,0.467c-0.012,0.084,0.123,0.121,0.172,0.107
		c0.049-0.011,0.086-0.146,0.098-0.268c0.006-0.062,0.181,0.243,0.208,0.305c0.011-0.18,0.086-0.338,0.221-0.453
		c-0.008,0.16,0.008,0.381,0.111,0.514c0.036,0.051,0.22,0.074,0.243,0.024c0.023-0.049-0.012-0.306-0.012-0.306
		s0.195,0.294,0.269,0.379c0.232,0.273,0.455-0.325,0.489-0.428c0.001-0.002,0.393,0.357,0.392,0.354
		c0.003-0.112,0.02-0.222,0.048-0.33c0.096,0.08,0.182,0.169,0.258,0.269c0.158,0.147,0.33,0.111,0.392,0.136
		c0.204,0.081,0.48-0.443,0.698-0.392c0.047,0.013-0.196,0.221-0.172,0.354c0.016,0.09,0.289-0.203,0.342-0.226
		c-0.055-0.051-0.102-0.114-0.062-0.145c0.087-0.062,0.05-0.023,0.147,0V85.35c0.196-0.986-1.884-1.296-2.439-1.505
		c-0.86-0.323-1.663-0.816-2.365-1.408c-0.054-0.045-0.945-0.864-0.8-0.938c0.195-0.097,0.585-0.535,0.585-0.535l0.097-0.438
		c1.616-0.54,3.086-1.947,4.375-3.013c0.396-0.327,0.789-0.658,1.176-0.996c0.25-0.221,0.447-0.607,0.698-0.855
		c0.374-0.37,0.884-0.567,1.253-0.937c0.084-0.084,0.084,0,0.242,0.037c0.16,0.036,0.246-0.086,0.467-0.146
		c0.436-0.122,0.621-0.765,0.817-1.124c0.229-0.422,0.779-0.713,1.113-1.054c0.149-0.148,0.156-0.349,0.288-0.502
		c0.335-0.39,0.699-0.77,1.08-1.113c0.67-0.603,1.463-1.04,1.775-1.93c0.462-1.345,0.325-3.28,0-4.646
		c0.689-1.379,0.078-3.086-0.184-4.525c-0.057-0.323-0.338-0.468-0.438-0.784c-0.136-0.43-0.312-0.956-0.639-1.282
		c-0.313-0.312-0.285-0.729-0.448-1.114c-0.146-0.346-0.597-0.894-0.884-1.136c-0.171-0.146,0.013-0.318-0.024-0.514
		c-0.042-0.23-0.734-0.809-0.672-0.965c0.049-0.123,0.184-0.209,0.172-0.318c-0.045-0.423-0.552-0.987-0.366-1.404
		c0.085-0.196,0.221-0.184,0.157-0.516c-0.061-0.33-0.121-0.367-0.293-0.549c-0.151-0.165,0.858-0.277,0.074-0.648
		c-0.128-0.06,0.156-1.158,0.219-1.357c0.177-0.542,0.483-0.99,0.722-1.5c0.4-0.86,0.244-1.732,0.454-2.596
		c0.072-0.306,0.257-0.489,0.391-0.697c0.201-0.309,0.169-0.688,0.135-1.038c-0.059-0.608,0.037-1.214,0.037-1.822
		c0-0.842,0.132-1.774,0.337-2.592c0.403-1.605,0.686-3.2,1.559-4.635c0.036-0.062,0.231-0.233,0.429-0.172
		c0.466,0.149,1.054,1.211,1.363,1.59c0.421,0.514,0.852,1.018,1.34,1.468c1.032,0.952,2.101,1.868,3.179,2.766
		c1.049,0.875,2.173,1.638,3.288,2.425c0.7,0.495,1.412,0.983,2.032,1.579c0.605,0.583,0.796,1.165,1.208,1.873
		c0.471,0.81,1.557,1.212,2.311,1.7c0.493,0.322,0.668,1.175,0.978,1.651c0.184,0.28,0.429,0.501,0.636,0.428
		c0.598-0.213-0.235-1.638-0.391-1.969c-0.098-0.208-0.023-0.184,0.087-0.16c0.108,0.025,0.294,0.099,0.294,0.099
		c0.328,0.805,0.792,2.099,1.369,2.751c0.18,0.2,0.652,0.516,0.916,0.38c0.306-0.16,0.207-0.795,0.207-0.795
		s0.232,0.123,0.478,0.037c0.245-0.085,0.209-0.22,0.259-0.477C83.721,49.152,83.587,48.773,83.404,48.247
		C83.219,47.722,83.587,48.773,83.404,48.247z"/>
	<path d="M63.258,75.05c3.647-0.09,5.652,2.53,5.652,5.652c0,3.121-2.531,5.651-5.652,5.651s-5.652-2.53-5.652-5.651
		C57.605,77.58,60.138,75.127,63.258,75.05z"/>
</g>
</svg>
