<?xml version="1.0" encoding="utf-8"?>
<!-- Generator: Adobe Illustrator 15.0.2, SVG Export Plug-In . SVG Version: 6.00 Build 0)  -->
<!DOCTYPE svg PUBLIC "-//W3C//DTD SVG 1.1//EN" "http://www.w3.org/Graphics/SVG/1.1/DTD/svg11.dtd">
<svg version="1.1" id="Ebene_1" xmlns="http://www.w3.org/2000/svg" xmlns:xlink="http://www.w3.org/1999/xlink" x="0px" y="0px"
	 width="100px" height="100px" viewBox="0 0 100 100" enable-background="new 0 0 100 100" xml:space="preserve">
<circle fill="#B2B2B2" cx="50" cy="50" r="50"/>
<path d="M43.593,55.164c0.039,0.021,0.067,0.097,0.067,0.185c0,0.078-0.021,0.145-0.051,0.174
	c0.628,14.499,1.401,32.016,1.401,32.016s0.109,0.049,0.113,0.237l0.049,1.871c0.004,0.166-0.957,0.26-1.249,0.26
	c-0.291,0-1.177-0.004-1.179-0.17l-0.038-1.855c-0.004-0.167,0.092-0.253,0.092-0.253l-0.175-6.63h-0.126v0.083
	c0,0,0.002,0.075-0.064,0.062l-0.665-0.115c-0.085-0.014-0.084-0.114-0.084-0.114s-0.958,0.187-1.28,0.187
	c-0.321,0-1.373-0.176-1.602-0.218c-0.229-0.041-0.271-0.214-0.271-0.214s-0.196-0.008-0.196-0.155c0-0.135,0.113-0.134,0.113-0.134
	s-0.107-5.523-0.107-6.463c0-0.938,0.301-1.28,0.645-1.362c0.359-0.088,2.996-0.222,2.996-0.222
	c0.192-0.015,0.337,0.049,0.417,0.097l-0.432-16.351l-0.759-0.047c-0.148-0.007-0.189-0.133-0.189-0.133l-2.444-0.04l0,0.69
	c0,0-0.009,0.163-0.134,0.16l-2.334-0.077c-0.153-0.005-0.164-0.132-0.164-0.132v-0.706l-2.737-0.084
	c-0.29-0.009-0.293-0.318-0.293-0.318l-0.039-2.341c0,0-0.006-0.273,0.267-0.263l3.98,0.164v-0.317c0,0-0.005-0.175,0.12-0.203
	l4.303-0.91c0,0-0.004-0.145,0.083-0.162l0.214-0.039l-0.387-14.686c0,0,0.024-4.894,0.458-7.728
	c0.402-2.625,1.023-4.671,1.471-5.856c0.449-1.184,1.975-5.592,6.899-8.658c1.555-0.968,3.928-1.619,6.684-1.619
	c1.062,0,3.289,0.37,3.289,0.37s0.108-0.111,0.225-0.097c0.116,0.013,0.22,0.025,0.298,0.012c0.078-0.013,0.306-0.093,0.433-0.093
	c0.124,0,7.499,1.435,7.597,1.461c0.101,0.025,0.282,0.319,0.282,0.319s0.348,0.074,0.411,0.127
	c0.189,0.156-0.305,0.382-0.305,0.382s-0.036,0.234-0.202,0.379c-0.168,0.147-1.031,0.614-1.405,0.625
	c-0.343,0.011-7.326-0.979-7.461-1.041c-0.137-0.063-0.137-0.146-0.209-0.167s-0.423-0.011-0.443-0.141
	c-0.029-0.186,0.319-0.42,0.319-0.42s0.097-0.658,0.2-0.856c0,0-1.96-0.278-3-0.278c-2.664,0-4.801,0.766-6.411,1.78
	c-3.538,2.227-5.473,5.807-6.202,8.22c-0.336,1.112-1.001,3.29-1.29,5.744c-0.337,2.875-0.271,6.069-0.271,7.472
	c0,0.479,0.267,6.837,0.613,14.91c0.039,0.021,0.066,0.095,0.066,0.186c0,0.076-0.02,0.142-0.05,0.172l0.062,1.434
	c0.042,0.016,0.074,0.094,0.074,0.188c0,0.082-0.024,0.153-0.059,0.179L43.593,55.164z"/>
</svg>
