<?xml version="1.0" encoding="utf-8"?>
<!-- Generator: Adobe Illustrator 15.0.2, SVG Export Plug-In . SVG Version: 6.00 Build 0)  -->
<!DOCTYPE svg PUBLIC "-//W3C//DTD SVG 1.1//EN" "http://www.w3.org/Graphics/SVG/1.1/DTD/svg11.dtd">
<svg version="1.1" id="Ebene_1" xmlns="http://www.w3.org/2000/svg" xmlns:xlink="http://www.w3.org/1999/xlink" x="0px" y="0px"
	 width="100px" height="100px" viewBox="0 0 100 100" enable-background="new 0 0 100 100" xml:space="preserve">
<circle fill="#B2B2B2" cx="50" cy="50" r="50"/>
<g>
	<path fill="#13110C" d="M37.915,48.256c-0.893-0.451-2.46-1.172-3.208-1.514c0.096-0.367,0.099-1.045-0.958-1.486
		c-0.008-0.965-0.049-4.513-0.17-4.94c-0.137-0.48-1.155-6.452-1.213-6.749c-0.057-0.297-0.186-0.354-0.171-0.137
		c0.446,6.794,0.583,7.893,0.755,9.002c0.141,0.91,0.25,2.285,0.285,2.753c-0.12-0.009-0.205-0.019-0.205-0.019s-0.72,0-0.72,0.046
		s0.028,0.154-0.058,0.24c-0.084,0.084-1.308,0.833-0.143,1.827c-0.541,0.249-1.738,0.841-2.397,1.5
		c-0.869,0.87-4.959,5.153-5.079,5.273c-0.12,0.121-0.023,0.27,0.125,0.195s5.119-4.067,5.457-4.404
		c0.268-0.269,1.6-1.478,2.133-1.96l-1.587,37.98l-0.169,3.19h2.216l0.247-41.352c0.666,0.05,1.215-0.384,1.441-0.595
		c0.371,0.31,0.871,0.74,1.197,1.066c0.938,0.938,3.41,1.808,3.649,1.898c0.24,0.092,4.239,1.665,4.347,1.773
		c0.108,0.109,0.475,0.109,0.217-0.148C43.652,51.442,39.116,48.862,37.915,48.256z"/>
	<path fill="#13110C" d="M75.295,52.747c-0.132-0.131-2.947-3.17-5.146-5.144c-0.82-0.737-2.938-2.553-4.015-3.474
		c0.228-0.479,0.292-1.406-0.635-1.959c0.068-0.2,0.158-0.449,0.264-0.693c0.225-0.524,1.01-3.086,1.196-3.872
		c0.188-0.786,0.617-6.155,0.749-6.772c0.131-0.617,0.3-1.478,0.057-1.478c0,0-0.655,1.758-1.01,3.479
		c-0.356,1.721-1.236,5.612-1.236,5.912c0,0.276-0.414,2.673-0.564,3.287c-0.297-0.001-1.075,0.063-1.38,0.772
		c-0.131,0.302-0.149,0.597-0.101,0.862c-0.677,0.049-2.375,0.192-3.042,0.429c-0.842,0.299-8.193,3.516-8.511,3.666
		c-0.318,0.149-0.169,0.243,0.317,0.112s3.891-1.047,4.564-1.291c0.673-0.244,4.321-1.478,4.826-1.646
		c0.361-0.121,1.443-0.549,2.027-0.781c0.152,0.259,0.368,0.45,0.58,0.532l-1.822,44.368h2.47l0.094-44.332
		c0.29-0.047,0.579-0.144,0.785-0.236c0.213,0.216,0.481,0.516,0.692,0.843c0.412,0.636,1.234,1.739,2.675,2.899
		s4.696,3.554,4.9,3.759c0.206,0.206,1.086,0.954,1.273,0.954C75.491,52.943,75.426,52.879,75.295,52.747z"/>
	<path fill="#13110C" d="M54.871,45.296c0.082,0.083,0.268,0.227,0.082-0.473c-0.186-0.701-1.565-5.479-2.102-6.921
		c-0.535-1.441-2.059-5.932-2.41-6.838c-0.294-0.762-0.919-1.974-1.185-3.124c0.569-0.535,0.772-1.356,0.772-1.716
		c0-0.295-0.251-0.669-0.504-0.974c0.861-0.715,2.933-2.442,3.347-2.856c0.523-0.524,2.8-3.192,3.542-4.571
		c0.742-1.381,4.367-6.303,4.531-6.467c0.165-0.165,0.154-0.69-0.31-0.227c-4.788,4.789-8.979,10.257-9.639,11.164
		c-0.53,0.729-1.608,1.952-2.008,2.401c-0.108-0.069-0.991-0.603-1.802-0.179c-0.509,0.267-0.891,0.69-1.099,1.17
		c-0.994-0.446-3.675-1.624-4.607-1.808c-1.153-0.226-12.212-1.153-12.542-1.153c-0.329,0-0.432,0.249,0.072,0.402
		c0.504,0.154,6.806,1.514,7.795,1.658c0.989,0.145,5.562,1.071,6.879,1.236c0.739,0.092,1.612,0.217,2.239,0.309
		c-0.013,0.137-0.013,0.273,0.007,0.41c0.089,0.624,0.695,1.175,1.186,1.463l-2.249,60.854h3.562l-0.213-60.632
		c0.135-0.015,0.26-0.046,0.376-0.085c0.088,0.975,0.402,3.981,1.086,5.775c0.823,2.163,3.048,6.322,3.481,7.393
		S54.787,45.214,54.871,45.296z"/>
</g>
</svg>
